<svg xmlns="http://www.w3.org/2000/svg" xmlns:xlink="http://www.w3.org/1999/xlink" width="82" height="82" viewBox="0 0 82 82">
  <defs>
    <filter id="長方形_144" x="0" y="0" width="82" height="82" filterUnits="userSpaceOnUse">
      <feOffset dy="3" input="SourceAlpha"/>
      <feGaussianBlur stdDeviation="3" result="blur"/>
      <feFlood flood-opacity="0.161"/>
      <feComposite operator="in" in2="blur"/>
      <feComposite in="SourceGraphic"/>
    </filter>
  </defs>
  <g id="button" transform="translate(-345 -2550)">
    <g transform="matrix(1, 0, 0, 1, 345, 2550)" filter="url(#長方形_144)">
      <rect id="長方形_144-2" data-name="長方形 144" width="64" height="64" rx="32" transform="translate(9 6)" fill="#1da1f2"/>
    </g>
    <g id="グループ_320" data-name="グループ 320" transform="translate(371.778 2576.444)">
      <path id="パス_323" data-name="パス 323" d="M8.943,23.111c10.731,0,16.6-8.891,16.6-16.6,0-.253-.005-.5-.017-.754a11.869,11.869,0,0,0,2.911-3.021,11.65,11.65,0,0,1-3.351.919A5.855,5.855,0,0,0,27.652.427a11.692,11.692,0,0,1-3.7,1.416A5.839,5.839,0,0,0,14,7.164a16.564,16.564,0,0,1-12.026-6.1A5.839,5.839,0,0,0,3.785,8.857a5.793,5.793,0,0,1-2.642-.73c0,.024,0,.049,0,.074a5.837,5.837,0,0,0,4.681,5.72,5.825,5.825,0,0,1-2.635.1,5.841,5.841,0,0,0,5.45,4.052,11.708,11.708,0,0,1-7.246,2.5A11.863,11.863,0,0,1,0,20.49a16.517,16.517,0,0,0,8.943,2.621" transform="translate(0 0)" fill="#fff"/>
    </g>
  </g>
</svg>
