<svg xmlns="http://www.w3.org/2000/svg" xmlns:xlink="http://www.w3.org/1999/xlink" width="500" height="190" viewBox="0 0 500 190">
  <defs>
    <clipPath id="clip-path">
      <rect id="長方形_537" data-name="長方形 537" width="500" height="190" fill="none"/>
    </clipPath>
  </defs>
  <g id="グループ_729" data-name="グループ 729" transform="translate(-10 -10)">
    <g id="グループ_706" data-name="グループ 706" transform="translate(10 10)" clip-path="url(#clip-path)">
      <path id="パス_556" data-name="パス 556" d="M5.393,2.835a1.467,1.467,0,0,0-.629-.026.294.294,0,0,0-.206.252.447.447,0,0,1-.21.1c-.132.021-.212.263-.256.35a2.113,2.113,0,0,1-.143.24l-.281.352s-.071.085-.053.153a.559.559,0,0,1-.09.314c-.037.052-.417.636-.481.771s-.382.977-.416,1.066a6.532,6.532,0,0,0-.2.74c-.057.206-.86,3.356-.86,3.6s-.088.387-.128,1.194-.091,1.144-.122,1.384c-.013.231-.318,5.806-.29,6.15.038.365,0,.548.022.761s.026.545.026.891.06,6.06.051,6.275-.365.483.073.733c0,0,.081.031.081.2s-.146.3-.057.362a.145.145,0,0,1,.019.222c-.06.082-.082.175.038.25s.035.23,0,.324-.057.213.022.272a1.219,1.219,0,0,1,0,.777c-.1.222-.193.659-.079.8s.019.194-.041.246-.3.172-.056.589A1.265,1.265,0,0,1,1.139,33a.1.1,0,0,0-.009.171c.116.109-.051.308-.051.408s.051.1,0,.177c-.026.079-.357.233-.01.562,0,0-.038.347-.038.421s-.4.353-.028.365a.691.691,0,0,1-.073.395c-.084.153-.187.209-.071.269a.189.189,0,0,1,.05.268c-.131.18-.166.33-.063.389.084.063-.025.191-.025.191a.184.184,0,0,0,.088.311,2.736,2.736,0,0,1,0,.452c-.05.249-.251,3.845-.263,4.1s-.3,3.739-.273,4.1-.022.4-.022.4.123.165-.013.265L.3,46.575.147,49.133s.156.236.071.368-.2.311-.022.328l.022.854L.2,50.818s-.288.2.053.269l-.031.137s-.344.211.037.33c0,0,0,.294-.107.331-.125.04.1,5.522.1,5.522s.434,6.486.979,7.682c0,0,0,.231.132.249,0,0,.059.311.082.462S2,68.29,2.284,69.08V69.4s-.072.2.178.508a2.529,2.529,0,0,1,.141.707,1.726,1.726,0,0,0,.215.945,1.086,1.086,0,0,1,.273.57c.032.244-.1.3.151.364,0,0,.078.593.078.916a1.413,1.413,0,0,0,.276.961c.222.246.071.659.351,1.045a3.642,3.642,0,0,1,.484.938c.16.321.692,1.557.864,1.775a.624.624,0,0,1,.176.347.666.666,0,0,0,.09.275c.084.094.491.62.588.73s.04.265.22.4-.032.356.21.39c0,0,0,.16.116.177a.373.373,0,0,1,.172.074s.175.294.212.355-.082.344.216.367a5.074,5.074,0,0,0,.29.6,2.813,2.813,0,0,0,.251.314c.063.062.037.316.138.316s.1.166.1.166a10.325,10.325,0,0,0,1.2,1.786c.369.3.154.172.154.172s.028.315.27.369c0,0,.024.1.043.16a4.754,4.754,0,0,0,.4.462s.156,0,.156.25c0,0,.817,1.029,1.058,1.353a35.093,35.093,0,0,0,3.582,3.861s.172.134.172.246.306.24.306.24.176-.194.215.069a.446.446,0,0,0,.185.353l.172.069a7.793,7.793,0,0,0,.75.551c.107.032.266.115.278.227s.131.124.265.178a.7.7,0,0,1,.247.265.961.961,0,0,0,.37.218,3.655,3.655,0,0,1,.735.48c.1.078.154.053.184.144.019.071.019.193.076.193a4.02,4.02,0,0,1,.569.211,4.1,4.1,0,0,1,.761.5c.094.138.332.119.428.178a.716.716,0,0,1,.232.2,7.728,7.728,0,0,0,.81.5,7.953,7.953,0,0,0,.838.308,3.359,3.359,0,0,1,.725.361.6.6,0,0,0,.394.194s.106.081.193.163a1.4,1.4,0,0,0,.394.127,2.257,2.257,0,0,1,.751.3c.187.152.279.309.482.268.187-.038.366-.071.435.041s.46.112.5.112c.06,0,.078.128.191.175a.3.3,0,0,0,.222-.018,2.3,2.3,0,0,0,.606.19c.329.068.469.068.5.166s.231.037.35.072c.1.019,1.244.387,1.645.467s1.576.362,1.836.445a7.417,7.417,0,0,0,.87.093c.122.022.357.2.55.258s.2-.15.287-.118a1.6,1.6,0,0,1,.276.118c.14.059,2.3.168,3.037.21a4.51,4.51,0,0,1,1.23.156.487.487,0,0,0,.316.074c.215,0,.977.044.977.044s.062.286.437.035h.14c.132,0,.739.022.813.035a.473.473,0,0,0,.432.019h.316c.075,0,1.89-.09,2.2-.107s3.285-.278,3.739-.315a15.942,15.942,0,0,0,2.07-.293,55.118,55.118,0,0,0,7.466-2.438s.191-.159.313-.084.5-.246,1.2-.533a.566.566,0,0,1,.36-.041c.184.041.407-.309.447-.53.043-.247.319,0,.438-.054a5.709,5.709,0,0,0,.666-.583s.322-.153.535-.268a12.521,12.521,0,0,0,1.433-1.2s.513-.2.513-.427L67.3,89.452s.037-.3.27-.272.823-.773.935-.773,1.083-.659,1.164-1.16a12.334,12.334,0,0,1,.857-.96,77.66,77.66,0,0,0,5.7-7.566,3.862,3.862,0,0,0,.494-.9,16.619,16.619,0,0,1,1.052-1.457.83.83,0,0,1,.238-.4c.112-.069,2.011-4.525,2.364-5.461.351-.919,1.9-5.261,2.018-6s.2-.546.235-.577.807-2.095.941-2.485c.107-.375.922-4.247.922-4.247a2.058,2.058,0,0,0,.2-.281c.11-.185,0-.733.078-.885s.2-.47.2-.47a1.772,1.772,0,0,1,0-.5c.032-.158.735-4.158.81-4.341.085-.2.157-.777.238-1.133s.772-6.032.847-6.238a1.766,1.766,0,0,0,.16-.5c.04-.228.278-5.033.382-5.813s.438-3.206.51-3.6a1.489,1.489,0,0,1,.19-.533c.019-.044,0-.106,0-.208,0-.04.082-.074.082-.115s-.063-.118-.056-.168a2.8,2.8,0,0,1,.1-.676c.06-.2.27-.826.27-.826s.037-.4.078-.686c.038-.261.423-1.894.547-2.368.109-.455.193-.963.268-1.12a.562.562,0,0,0,.173-.275c.046-.169-.129-.259-.059-.375a1.752,1.752,0,0,0,.154-.35c.078-.155-.007-.188.041-.392a7.721,7.721,0,0,0,.312-1.131,3.914,3.914,0,0,1,.081-.919c.084-.29.179-.773.384-.932s.041-.268.116-.5.121-1.192.19-1.35a1.723,1.723,0,0,0,.279-.779,10.183,10.183,0,0,1,.032-1.512c.078-.234.275-.381.275-.495a1.753,1.753,0,0,1,0-.7,24.231,24.231,0,0,0,.353-2.756,19.525,19.525,0,0,0,.031-2.982c-.082-.651-.15-1.08-.15-1.08a1.869,1.869,0,0,1-.122-.314c-.078-.318-.15-.732-.2-.848A14.1,14.1,0,0,0,90.668,7.3c-.153-.234-.617-1.154-.7-1.348s-.464-.5-.506-.62c0,0,0-.2-.106-.272a.875.875,0,0,1-.181-.106c-.054-.043-.36-.29-.541-.4a1.083,1.083,0,0,0-.553-.149s-.589-.194-1.011.581a4.63,4.63,0,0,0,.118,1.959,9.227,9.227,0,0,1,.235,1.574.189.189,0,0,1-.019.109.3.3,0,0,0,.047.449s.122.085-.028.215-.113.209-.1.291-.016.212-.243.311-.213.078-.466-.028c-.269-.1-.594-.577-.8-.867s-.072-.371-.119-.583a1.134,1.134,0,0,0-.293-.508.526.526,0,0,1-.237-.283c-.062-.165-.675-1.366-.838-1.668a1.65,1.65,0,0,1-.265-.593c-.028-.128-.11-.147-.141-.208s-.8-1.22-.916-1.331a2.645,2.645,0,0,1-.425-.642,1.248,1.248,0,0,0-.248-.337c-.047-.075-1.308-1.3-1.416-1.381s-.1-.121-.144-.15-.788-.552-.92-.623a2.087,2.087,0,0,0-.742-.137,1.287,1.287,0,0,0-.955.364s-.131.153-.09.735a.441.441,0,0,0-.013.272c.071.128.215.592.273.71a4.7,4.7,0,0,1,.275.461,4.61,4.61,0,0,1,.122.7c.009.2.051.2.073.228a2.2,2.2,0,0,1,.413.568c.168.321.366,1.076.464,1.3.082.213.385.714.487.945a7.9,7.9,0,0,1,.4,1.282c.007.258.125.949.1,1.114-.035.184.021.389-.394.467a.694.694,0,0,1-.65-.131,15.424,15.424,0,0,1-1.182-1.1c-.113-.166-1.11-1.11-1.214-1.226s-.6-.724-.8-.919S75.4,5.343,75.218,5.156c-.166-.171-.72-.813-.775-.913s0-.1-.375-.328-.228-.309-.342-.43a6.3,6.3,0,0,0-.922-.827c-.356-.2-.758-.52-.842-.564s-.076-.2-.125-.219c-.051-.038-.144-.043-.193-.1-.041-.041-.106-.13-.162-.194a.666.666,0,0,0-.254-.134c-.054-.025-.209,0-.3-.037a5.221,5.221,0,0,1-.4-.361,1.665,1.665,0,0,0-.228-.1c-.093-.019-.291-.218-.478-.23a1.435,1.435,0,0,0-.9.049c-.387.174-.4.224-.4.224a1.238,1.238,0,0,1-.193.053c-.034.018-.016.206-.06.266s-.193.163-.088.287-.026.2-.09.234a.512.512,0,0,0-.191.356,1.511,1.511,0,0,0,.323.473c.115.181,0,.178.09.294.109.11.982,1.36,1.051,1.515a9.3,9.3,0,0,0,.62.861c.191.213.563.67.616.7.05.05.094.178.16.256s.169.071.25.188c.065.1.059.25.125.339s.093.059.2.093a.723.723,0,0,1,.354.269c.085.124.65.868.778,1.061.137.209.291.543.356.64s.26.046.26.312a1.969,1.969,0,0,0,.232.272c.075.059.168.256.235.324s.354.5.487.621a.974.974,0,0,1,.223.445c.075.194.234.59.293.732a3,3,0,0,1,.05.868.559.559,0,0,1-.42.411c-.2.016-.5-.2-.588-.206a.551.551,0,0,1-.256.007c-.073-.031-.073-.244-.147-.293-.078-.068-.287-.038-.391-.074s-.307-.268-.367-.334a8.373,8.373,0,0,1-.7-.593c-.062-.091-.062-.174-.165-.259s-.1-.218-.178-.268a1.993,1.993,0,0,0-.3-.124.976.976,0,0,1-.2-.281,3.468,3.468,0,0,0-.482-.534c-.069-.047-.382-.387-.445-.447s-.778-.676-.86-.764-.035-.119-.118-.178-.153-.046-.2-.077a2.041,2.041,0,0,1-.337-.324c-.043-.066-.071-.174-.153-.221a.431.431,0,0,0-.238-.062c-.132,0-.265-.149-.315-.2a4.22,4.22,0,0,0-.394-.34c-.044-.04-.044-.135-.106-.219s-.265-.124-.265-.124-.792-.408-.875-.468c0,0-.176-.149-.232-.194s-.134-.037-.2-.063a4.491,4.491,0,0,1-.556-.392,1.445,1.445,0,0,0-.407-.1,3.928,3.928,0,0,1-.513-.1.7.7,0,0,0-.617.118,1.418,1.418,0,0,0-.417.414A3.447,3.447,0,0,1,63,6.515c-.034.047-.175.238-.091.349s.062.23.091.33c0,.1.071.629.1.78.009.141.1.211.1.256a.519.519,0,0,0,.116.3c.071.1.6.843.738,1s.459.664.635.839.276.274.268.314a.344.344,0,0,0,.151.263c.068.025.122.118.163.184s.1.04.179.1.168.336.251.418a.92.92,0,0,1,.2.287c.028.075.387.367.466.468s.082.3.126.375a.347.347,0,0,0,.235.218.7.7,0,0,1,.257.172c.072.079.072.234.126.306a3.479,3.479,0,0,0,.52.637c.2.177.625.811.77.97s.043.23.125.289a.57.57,0,0,1,.185.14,3.182,3.182,0,0,1,.442.8,1.77,1.77,0,0,1,.05.839,2.2,2.2,0,0,1-.384.456.443.443,0,0,1-.323.121,1.828,1.828,0,0,1-.479.009.866.866,0,0,1-.2-.1c-.084-.046-.539-.072-.65-.112S66.05,17.06,65.943,17s-.362-.065-.538-.121-.941-.509-1.1-.551a8.5,8.5,0,0,0-1.138-.352,2.264,2.264,0,0,0-.825,0,1.491,1.491,0,0,0-.464.258c-.06.063-.206.286-.238.324a.4.4,0,0,1-.181.077c-.059,0-.143.177-.151.314s-.084.316-.088.424a1.665,1.665,0,0,0,.1.584,1.2,1.2,0,0,1,.163.484.893.893,0,0,0,.082.4,1.245,1.245,0,0,0,.21.263c.082.075.5.748.617.891a.717.717,0,0,1,.144.272,5.435,5.435,0,0,0,.563.595,12.07,12.07,0,0,1,1.082,1.1c.151.188.322.371.407.475s1.023.919,1.305,1.176c.282.231,1.321,1.136,1.56,1.348s.854.992,1.054,1.222a16.513,16.513,0,0,1,.911,1.42,5.29,5.29,0,0,1,.275.549c.068.106.159.15.2.241.059.109.579,1.17.66,1.378s.226.6.235.674c.025.087.165.283.2.4s.557,1.294.61,1.423a1.568,1.568,0,0,1,.118.4.724.724,0,0,0,.125.262,8.812,8.812,0,0,1,.44,1.125c.087.324.087.576.128.667a4.149,4.149,0,0,1,.162.533c.016.156.41,1.472.428,1.8.046.337.2,1.593.237,1.744.028.135,0,.458.028.562a3.15,3.15,0,0,1,.1.508c.01.2.085,1.4.115,1.6,0,.2.071,1.8.068,1.922a.234.234,0,0,1-.068.184c0,.043-.138.112.021.252a1.637,1.637,0,0,1,.047.271c0,.078-.047,1.438-.057,1.606s-.074,1.105-.088,1.356-.1.911-.116,1.038-.051.13-.074.375c0,.243-.038.615-.051.735s-.112.5-.118.634c-.028.122-.028.45-.063.558s-.182.255-.2.318a1.865,1.865,0,0,1-.11.262.27.27,0,0,0,.044.314c.11.087.073.206,0,.236s-.169.246-.066.359.063.191.04.231c-.04.032-.169.112-.056.243a.313.313,0,0,1,.031.38c-.031.04-.144,0-.184.081s.093.147.15.255,0,.178-.053.244-.262.14-.2.188.075.052.075.15a.245.245,0,0,1-.075.213c-.031.037-.1.062-.1.147a1.736,1.736,0,0,1-.019.244c-.015.068.049.15.032.212s-.013.1-.072.119a.132.132,0,0,0-.138.1,2.634,2.634,0,0,0-.066.439c-.041.1-.041.135-.073.157s-.075.028-.09.081a1.172,1.172,0,0,1-.035.221.456.456,0,0,0-.034.316c.018.144.034.184.118.252a.225.225,0,0,1,.015.247c-.049.025-.169.087-.188.137s.01.367-.024.417-.16.16-.16.2c0,.054,0,.072.051.1.031.035,0,.2-.022.224a.471.471,0,0,1-.1.143c-.038.027-.178.077-.065.149.1.049.072.091.059.143-.032.059-.116.49-.153.6s-.353,1.178-.473,1.466c-.1.284-.614,1.562-.7,1.771-.1.218-.429,1.005-.485,1.141a3.549,3.549,0,0,1-.276.431c-.032.071-.594,1.17-.664,1.3s-.489,1.036-.55,1.11a1.762,1.762,0,0,0-.115.43,1.569,1.569,0,0,1-.179.4,7.64,7.64,0,0,0-.479.708,2.844,2.844,0,0,0-.19.362c-.032.091,0,.184-.051.247-.043.085-.059.085-.1.174a1.048,1.048,0,0,0-.151.39,4.757,4.757,0,0,1-.413.627.771.771,0,0,0-.093.266c-.034.053-.146.144-.178.206s-.04.143-.072.219-.222.311-.254.393c-.057.09-.063.185-.129.312s-.891,1.384-1,1.585-.431.617-.517.733c0,0-.513.649-.6.8a4.935,4.935,0,0,0-.528.773c-.022.178-.115.231-.16.327-.071.079-1.051.924-1.177,1.066a3.86,3.86,0,0,1-.341.353,1.168,1.168,0,0,0-.281.187c-.06.063-2.937,2.429-3.122,2.555s-1.561,1.232-1.692,1.3a3.459,3.459,0,0,1-.4.331c-.157.1-.656.389-.841.509s-1.349.67-1.579.78-1.88.617-2.131.707a4.292,4.292,0,0,1-.764.208,3.412,3.412,0,0,1-.376.028,2.514,2.514,0,0,0-.554.191c-.169.052-1.786.394-2.145.437-.344.027-1.546.212-1.768.23s-5.636.116-5.919.1-1.094-.038-1.21-.071-.222-.1-.294-.115-1.927-.054-2.043-.072-1.46-.2-1.679-.24a8.129,8.129,0,0,0-.886-.178,9.6,9.6,0,0,0-.975-.206,9.236,9.236,0,0,1-.969-.127c-.115-.049-.123-.118-.231-.137s-.392-.1-.556-.141c-.147-.041-1-.412-1.169-.5s-.783-.453-.938-.493a3.081,3.081,0,0,1-.492-.21,8.453,8.453,0,0,0-1-.478,2.627,2.627,0,0,1-.41-.218,4.738,4.738,0,0,0-.664-.306,2.714,2.714,0,0,1-.526-.315c-.025-.034-.075-.165-.137-.178s-.278-.091-.278-.091a.757.757,0,0,0-.275-.244.734.734,0,0,1-.32-.225c-.078-.052-1.533-1.161-1.833-1.406s-1.724-1.537-1.933-1.8c-.168-.256-1.157-1.5-1.285-1.678a1.185,1.185,0,0,1-.163-.4.466.466,0,0,0-.166-.266c-.088-.1-.716-1.2-.77-1.266s-.057-.309-.1-.339a3.124,3.124,0,0,1-.266-.3.926.926,0,0,1-.153-.353c-.018-.1-.143-.134-.143-.291a.417.417,0,0,0-.181-.386s-.132-.172-.132-.244-.088-.137-.146-.194a.831.831,0,0,1-.2-.35,1.956,1.956,0,0,0-.157-.468,2.41,2.41,0,0,0-.3-.483.613.613,0,0,1-.2-.336,2.314,2.314,0,0,0-.029-.462c-.029-.082-.14-.287-.168-.38-.022-.121-.635-1.522-.753-1.931s-.825-2.789-.878-3.068c-.059-.3-.363-1.912-.363-2.012s-.068-.434-.053-.521a3.51,3.51,0,0,0-.035-.714,1.709,1.709,0,0,1-.1-.44,3.3,3.3,0,0,0-.119-.546,3.428,3.428,0,0,1-.141-.392c-.015-.077-.063-.684-.063-.684s.107-.047.094-.084a.475.475,0,0,0-.094-.107,3.1,3.1,0,0,1-.037-.342c0-.088-.119-1-.132-1.166s-.016-1.859-.016-1.942-.035-.1.029-.137c.049-.021.043-.277,0-.4a1.929,1.929,0,0,1-.112-.518c.022-.124-.006-.695-.006-.783s-.044-2.27-.031-2.545.1-1.373.1-1.421a.185.185,0,0,1,.072-.149c.06-.038-.056.018-.056-.1s.056-1.005.078-1.22c.038-.222.275-1.472.312-1.733a2.888,2.888,0,0,1,.165-.782c.073-.113.141,0,.141-.433,0,0,.166-.144.132-.291a.386.386,0,0,1,.079-.293.523.523,0,0,0,.112-.193c.063-.143,0-.561.04-.659s.739-2.566.878-2.966.609-1.415.72-1.73a3.342,3.342,0,0,1,.144-.57,1.053,1.053,0,0,1,.206-.181c.1-.057-.01-.2.04-.25a1.858,1.858,0,0,1,.226-.383c.11-.085.029-.116.015-.183a1.7,1.7,0,0,1,.147-.411s.093.013.123-.2a15.633,15.633,0,0,1,.545-1.466,15.865,15.865,0,0,1,.756-1.463,9.808,9.808,0,0,0,.514-.86c.11-.156.463-.81.6-.982a8.386,8.386,0,0,1,.816-1.07c.222-.2.567-.637.7-.752.154-.113.41-.352.516-.425a3.581,3.581,0,0,1,.673-.523,2.71,2.71,0,0,0,.62-.605s.353-.4.462-.425.384.066.315-.209a.083.083,0,0,1,.069-.109c.1-.018.337-.3.432-.3s.228-.025.268-.087c.063-.085-.219-.187.057-.265a2.062,2.062,0,0,0,.61-.353s-.049-.241.046-.256a3.061,3.061,0,0,1,.419-.054c.14,0,.248.054.276-.053s-.141-.308.062-.286.31-.022.44-.291c.11-.256.169-.084.248-.174s.14-.29.272-.35a1.014,1.014,0,0,1,.4-.159c.148,0,.247,0,.316-.258a.443.443,0,0,0,.159-.034c.071-.028.085-.028.14-.187a.481.481,0,0,1,.288-.306c.138-.072,1.373-1.022,1.595-1.163s.882-.693.973-.711c.066-.015.132-.056.226-.081s.2-.241.287-.241a.59.59,0,0,0,.206-.057s.049-.127.143-.143.172.016.2-.04.013-.238.132-.291.322-.268.4-.277.141-.01.156-.071a1.95,1.95,0,0,1,.012-.294,2.977,2.977,0,0,1,.407-.393.282.282,0,0,0,.148-.188c.015-.056,0-.19.062-.268a1.54,1.54,0,0,0,.238-.662,1.918,1.918,0,0,0-.134-.891,1.164,1.164,0,0,0-.679-.531c-.318-.053-.567-.1-.6-.115-.049-.018-.072-.074-.194-.057a1.54,1.54,0,0,0-.259.068c-.107.032-.447.118-.692.171-.229.037-.444.127-.532.132-.084.022-.15-.006-.25.077a1.514,1.514,0,0,1-.257.213c-.057.029-.279.018-.407.043a.479.479,0,0,0-.257.112.457.457,0,0,1-.234.11c-.072.018-.516.034-.656.066s-.288.14-.419.146c0,0-.338.068-.451.1s-.342.144-.478.153a1.067,1.067,0,0,1-.664-.1c-.376-.159-.538-.241-.567-.316a4.108,4.108,0,0,1-.091-.7c.034-.132.034-.1,0-.153a.161.161,0,0,1,0-.2,3.963,3.963,0,0,0,.313-.483,2.741,2.741,0,0,1,.363-.524c.1-.131.085-.275.313-.434s.119-.312.119-.312a.773.773,0,0,1,.112-.2c.065-.082.659-1,.855-1.247.179-.246.622-.867.722-.973.1-.124.016-.206.1-.3.09-.107.213-.259.257-.321s.01-.181.079-.274.065-.088.25-.255a2.966,2.966,0,0,0,.545-.748c.122-.213.334-.58.444-.782a.966.966,0,0,0,.151-.48.469.469,0,0,1,.079-.272c.046-.079,0-.219,0-.318-.018-.082-.018-.309-.166-.422a1.36,1.36,0,0,0-.584-.375,2.653,2.653,0,0,0-.957-.1.7.7,0,0,0-.5.216c-.118.068-.517.374-.625.445s-.819.748-.932.829a1.776,1.776,0,0,0-.27.215c-.037.071-.037.135-.084.183-.031.046-.825.659-1.02.823a9.82,9.82,0,0,1-.779.634c-.119.074-.156.074-.29.155a3.566,3.566,0,0,0-.367.458.412.412,0,0,1-.25.071c-.082-.013-.132-.1-.131.059s-.27.325-.313.372-1.035.732-1.117.788a.811.811,0,0,1-.3.125,2.143,2.143,0,0,1-.566-.043c-.071-.043-.184-.347-.21-.138,0,0,.031.056-.082.057a.41.41,0,0,1-.285-.085,1.021,1.021,0,0,1-.222-.377,1.166,1.166,0,0,1,.047-.646c.081-.216.088-.336.157-.486.082-.125.291-.48.429-.7s.293-.539.341-.6.075-.185.093-.25c.037-.069.14-.132.256-.29s.429-.655.5-.807c.1-.152.146-.42.278-.481.116-.066.116-.124.162-.234s.382-.611.481-.758.159-.339.248-.515a4.094,4.094,0,0,1,.373-.7,7.9,7.9,0,0,1,.584-.836.827.827,0,0,0,.187-.3c.025-.062.006-.293.072-.324s.1-.153.1-.261c.026-.09-.035-.406.026-.474s.163-.152.182-.265a1.2,1.2,0,0,0-.038-.528,2.529,2.529,0,0,0-.384-.62,1.472,1.472,0,0,0-.792-.506,4.129,4.129,0,0,1-.635-.124.579.579,0,0,0-.348.028,1.066,1.066,0,0,1-.322.162.79.79,0,0,0-.329.138c-.082.081-.731.749-.8.851a5.2,5.2,0,0,0-.338.449,17.333,17.333,0,0,1-1.264,1.487.779.779,0,0,0-.225.352c-.068.209-.024.152-.1.227-.078.1-.223.063-.326.256a5.715,5.715,0,0,1-.42.654s-.684.664-.769.773a1.4,1.4,0,0,0-.137.29c-.065.09-.551.542-.641.683-.068.131-.047.243-.115.318s-.829,1-.979,1.17a2.4,2.4,0,0,1-.681.6.514.514,0,0,1-.607-.169,1.119,1.119,0,0,1-.323-.729,6.236,6.236,0,0,1,.16-1.073c.081-.3.5-1.6.594-1.809s.764-1.677.875-1.892.234-.427.284-.579a4.672,4.672,0,0,0,.166-.49,2.84,2.84,0,0,1,.279-.534c.034-.046.131.007.175-.234a1.917,1.917,0,0,1,.284-.559s.179-.314.235-.414.146-.324.078-.465a.318.318,0,0,1,0-.29c.029-.077.015-.269-.207-.471A.971.971,0,0,0,16.3,0a2.075,2.075,0,0,0-.792.143.3.3,0,0,0-.244.212,2.049,2.049,0,0,1-.419.4c-.151.1-.986.892-1.094,1.013s-.588.6-.659.684c-.05.068-.093.168-.148.231s-.91,1-1.014,1.148-.118.3-.185.392-.622.93-.725,1.067a3.614,3.614,0,0,0-.42.631.428.428,0,0,0-.068.2c0,.1-.069.152-.148.265-.062.118-.578.967-.645,1.079s-.087.174-.147.2a.43.43,0,0,0-.138.233c-.043.082-.57.908-.656,1.025a2.191,2.191,0,0,1-.7.558,2.391,2.391,0,0,1-.816-.166,2.346,2.346,0,0,1-.6-.581c-.1-.15-.243-.4-.313-.486S6.3,8.1,6.318,7.957A.741.741,0,0,0,6.3,7.547a1.943,1.943,0,0,1-.059-.574,12.7,12.7,0,0,1,.119-1.3,7.29,7.29,0,0,0,.047-.894c.01-.094.066-.094.076-.2a2.195,2.195,0,0,0-.043-.386C6.424,4.114,6.388,4.06,6.424,4s.084-.088.062-.2a2.236,2.236,0,0,0-.168-.352,1.452,1.452,0,0,0-.459-.425,2.339,2.339,0,0,0-.466-.191" transform="translate(0.035 0)" fill="#0068b6"/>
      <path id="パス_557" data-name="パス 557" d="M21.1,23.88s-1.335.655-1.433.7a1.867,1.867,0,0,0-.334.115s-.839.564-1.051.7a11.062,11.062,0,0,0-.935.677,1.13,1.13,0,0,0-.285.346c-.031.085-.078.11-.2.194a1.219,1.219,0,0,0-.3.23,9.357,9.357,0,0,0-.876,1.083,4.04,4.04,0,0,0-.248.521c-.012.078.012.233-.041.309a1.25,1.25,0,0,0-.259.551,2.3,2.3,0,0,0,.044.623,2.468,2.468,0,0,0,.345.867.6.6,0,0,0,.278.166c.1.025.131.1.212.174a.638.638,0,0,0,.4.162,1.434,1.434,0,0,0,.485-.062c.138-.05.372-.11.479-.143a6.722,6.722,0,0,0,.623-.324,1.716,1.716,0,0,0,.4-.312,9.283,9.283,0,0,0,.6-.711c.153-.166.551-.63.732-.779s.567-.515.714-.611a4.968,4.968,0,0,1,.731-.431c.113-.032.263-.15.437-.228a4.687,4.687,0,0,1,1.025-.308,2.042,2.042,0,0,0,.413-.094,6.817,6.817,0,0,1,1.039-.122c.284,0,.689-.1.985-.081a2.483,2.483,0,0,1,.735.155c.179.06.254.16.372.193s.373.087.551.162a6.382,6.382,0,0,1,.722.347c.253.165.756.408.916.526a1.33,1.33,0,0,0,.456.24,3.594,3.594,0,0,0,.954.056,1.26,1.26,0,0,0,.9-.595s.151-.015.046-.868-.046-.68-.14-.947a.888.888,0,0,0-.316-.422,5.187,5.187,0,0,1-.66-.6,1,1,0,0,0-.243-.283c-.131-.082-.348-.3-.429-.3a.3.3,0,0,1-.176-.031c-.049-.026-.054-.134-.181-.188s-.29-.172-.4-.216c-.087-.047-.087-.115-.22-.115a.633.633,0,0,1-.318-.043c-.113-.049-.385-.268-.469-.268a.74.74,0,0,1-.256-.025c-.046-.038-.119-.155-.218-.18s-.739-.047-.9-.085c-.175-.016-.356-.1-.535-.11a8.081,8.081,0,0,0-.98.031,1.691,1.691,0,0,1-.422-.031,5.366,5.366,0,0,0-1.141.063,1.96,1.96,0,0,1-.394.183c-.125.018-.656.043-.823.071s-.257.037-.419.084" transform="translate(7.109 11.078)" fill="#0068b6"/>
      <path id="パス_558" data-name="パス 558" d="M21.7,28.684a.885.885,0,0,0-.531.01,3.859,3.859,0,0,1-.457.132c-.116.007-.151.135-.245.185s-.112.115-.218.125a.5.5,0,0,0-.31.106,2.147,2.147,0,0,0-.256.361c-.059.107-.228.5-.322.748a1.817,1.817,0,0,0-.147.5c-.007.127-.049.447-.049.634a1.918,1.918,0,0,0,.131.833,1.8,1.8,0,0,0,.485.517c.2.156.467.361.591.439a.62.62,0,0,0,.223.1.592.592,0,0,0,.32,0c.1-.046.212.025.3.074a.474.474,0,0,0,.329.1c.134-.013.334-.132.472-.163a1.006,1.006,0,0,1,.353-.043.269.269,0,0,0,.247-.068,1.468,1.468,0,0,1,.322-.219c.1-.037.235-.074.27-.172.059-.093.178-.316.222-.374s.09-.2.166-.259a2.046,2.046,0,0,0,.218-.334.874.874,0,0,0,.06-.23c0-.06.047-.289.047-.461s.044-.344-.047-.455a3.81,3.81,0,0,0-.176-.417,2.351,2.351,0,0,1-.188-.327,1.313,1.313,0,0,1-.073-.314.439.439,0,0,0-.151-.365,2.135,2.135,0,0,0-.538-.249c-.175-.063-.323-.13-.456-.184a1.307,1.307,0,0,0-.326-.137.505.505,0,0,1-.163-.018.294.294,0,0,0-.1-.075" transform="translate(9.004 13.522)" fill="#0068b6"/>
      <path id="パス_559" data-name="パス 559" d="M48.695,23.257a6.451,6.451,0,0,1-.713-.046c-.222-.049-1.414.021-1.551.021a.809.809,0,0,1-.384-.05.469.469,0,0,0-.379.05,4.177,4.177,0,0,1-.811.077,2.325,2.325,0,0,1-.564.028.559.559,0,0,0-.37.024c-.193.077-1.223.269-1.413.331s-.225.026-.435.081-.363.072-.464.115-1.3.447-1.443.54-.263.04-.385.165a1.774,1.774,0,0,1-.365.243s-.367.152-.526.2-.125-.015-.3.1a3.111,3.111,0,0,0-.492.336,1.96,1.96,0,0,1-.194.213c-.06.06-.683.386-.9.54s-.581.42-.722.511-.764.657-.979.842c-.194.19-.614.549-.732.682s-.32.386-.382.433c-.051.066-.2.031-.176.1.026.044.1.166-.021.166a.254.254,0,0,0-.218.1,3.738,3.738,0,0,0-.24.291c-.038.081-.288.409-.35.517-.06.124-.112.216-.179.216-.057.021-.128,0-.128.124a.322.322,0,0,1-.1.25c-.043.052-.256.361-.318.417a1.253,1.253,0,0,0-.238.277,1.8,1.8,0,0,1-.138.352c-.091.168-.692,1.107-.76,1.266-.085.165-.22.321-.225.371-.028.06.018.236-.091.283a.374.374,0,0,0-.243.215c-.037.087-.037.188-.076.283-.037.113-.129.125-.16.177a1.148,1.148,0,0,0-.153.291,1.771,1.771,0,0,1-.251.509c-.053.093-.173.2-.194.258a.854.854,0,0,1,0,.261c-.05.091-.237.14-.244.244s.029.211,0,.28-.153.183-.237.308a1.092,1.092,0,0,0-.088.548.424.424,0,0,1-.125.349,1.974,1.974,0,0,0-.2.5c-.093.259-.425,1.365-.479,1.675a2.4,2.4,0,0,1-.148.6c-.078.118-.113.132-.132.234a2.568,2.568,0,0,0-.134.425,1.365,1.365,0,0,1,.038.225c0,.082-.1.218-.135.325a.968.968,0,0,0-.049.439,1.085,1.085,0,0,1-.044.452,1.955,1.955,0,0,0-.146.393,1.031,1.031,0,0,1,.05.369c-.024.213-.115.624-.132.786s-.137,1.247-.121,1.437c0,.187.121,1.1.156,1.4a1.949,1.949,0,0,1,.009.4c.028.082.118.172.088.249s-.213.2.054.241a.646.646,0,0,1,.169.194.964.964,0,0,0,.25.244c.113.077.326.238.463.319a.66.66,0,0,0,.345.138c.138.018.21-.063.335-.063a.81.81,0,0,0,.3,0,1.272,1.272,0,0,0,.572-.337,2.563,2.563,0,0,0,.347-.525c.1-.183.25-.49.328-.659a2.279,2.279,0,0,1,.219-.437,1.236,1.236,0,0,0,.181-.49c.038-.159.244-.952.318-1.262.063-.334.14-.8.16-.949.031-.166.106-.478.123-.564.009-.069.051-.156.118-.424s.084-.71.135-.908.1-.224.147-.433a3.889,3.889,0,0,1,.069-.649c.075-.162.357-.933.422-1.145s.216-.662.262-.9a9.112,9.112,0,0,1,.4-1.316,1.036,1.036,0,0,0,.162-.4,2.022,2.022,0,0,1,.169-.489c.078-.121.215-.35.262-.449s.026-.33.176-.42.162-.211.218-.336.245-.365.313-.526a4.8,4.8,0,0,1,.338-.729,1.474,1.474,0,0,0,.165-.272.561.561,0,0,1,.15-.275s.131-.193.182-.286a1.85,1.85,0,0,0,.218-.3c.087-.087.137-.259.2-.306.053-.065.078-.116.112-.116s.193-.093.169-.224.112-.241.165-.3a3.294,3.294,0,0,1,.323-.489,2.755,2.755,0,0,1,.413-.461c.093-.056.132-.156.215-.18s.143.007.194-.041a.6.6,0,0,1,.129-.171c.118-.1.332-.346.431-.443s.285-.381.373-.389.068.057.2.024.2-.107.307-.131a2.8,2.8,0,0,0,.373-.241c.11-.074,1.086-.749,1.31-.88a9.167,9.167,0,0,1,1-.521,4.074,4.074,0,0,1,.52-.18c.147-.021.115-.087.22-.087a.745.745,0,0,0,.3-.032.745.745,0,0,1,.243-.194c.129-.035.807-.224,1.1-.281a13.218,13.218,0,0,1,1.517-.316c.291,0,1.035-.043,1.163-.046s.084,0,.157.025.879.015,1.129.015,1.042-.04,1.2-.052a.452.452,0,0,1,.275.066c.079.04.094.04.288.04a9.192,9.192,0,0,0,1.06-.024,1.971,1.971,0,0,0,.916-.365,1,1,0,0,0,.276-.512c.013-.066.049-.107.059-.185a.4.4,0,0,0-.059-.2c-.024-.053,0-.45-.024-.517s-.16-.188-.253-.319-.215-.289-.268-.355c-.063-.046-.325-.3-.413-.374s-.259-.059-.31-.09a.721.721,0,0,1-.229-.208.328.328,0,0,0-.212-.075,4.922,4.922,0,0,1-.564-.062,2.367,2.367,0,0,1-.353-.163c-.073-.026-.228-.078-.288-.016s-.024.078-.15.087-.14.026-.206-.024a.6.6,0,0,0-.24-.079" transform="translate(12.968 10.933)" fill="#0068b6"/>
      <path id="パス_560" data-name="パス 560" d="M38.285,29.073a1.334,1.334,0,0,0-.216.306,3.088,3.088,0,0,1-.2.287,1.221,1.221,0,0,0-.2.353c-.044.153-.146.4-.172.465s-.159.262-.209.344a1.033,1.033,0,0,0-.1.406,2.133,2.133,0,0,0,.146.645,2.446,2.446,0,0,0,.238.481c.093.1.032.13.118.2a2.981,2.981,0,0,1,.25.277c.069.09.141.244.185.309a.278.278,0,0,0,.15.112c.085.025.187.025.27.047a2.292,2.292,0,0,0,.278.132,1.53,1.53,0,0,0,.384.1c.078.013.147.022.216.04a1.8,1.8,0,0,0,.457.043,1.59,1.59,0,0,0,.559-.138c.184-.062.319-.2.4-.208a1.458,1.458,0,0,0,.331-.181c.109-.063.159-.18.25-.23s.191-.074.265-.155a.625.625,0,0,0,.147-.23c.024-.044.024-.324.04-.375A2.845,2.845,0,0,0,42,31.836c.049-.107.1-.3.123-.322.041-.035.006-.106.072-.131.04-.019.162-.109.016-.194,0,0-.047-.228-.016-.262a.429.429,0,0,0,.016-.306c-.082-.163-.082-.234-.122-.291a.968.968,0,0,1-.173-.259,1.165,1.165,0,0,0-.141-.28c-.04-.056-.469-.474-.547-.537a1.04,1.04,0,0,0-.2-.2c-.075-.024-.188-.024-.284-.056s-.084-.066-.184-.087a1.512,1.512,0,0,0-.273-.025c-.11-.031-.235-.1-.367-.137a1.532,1.532,0,0,0-.36-.122.73.73,0,0,0-.309.06,1.6,1.6,0,0,0-.345.078c-.079.049-.175.121-.265.19s-.176.013-.363.124" transform="translate(17.48 13.51)" fill="#0068b6"/>
      <path id="パス_561" data-name="パス 561" d="M24.1,45.437a4.4,4.4,0,0,0-.785,0c-.163.046-.144.131-.222.149a1.453,1.453,0,0,0-.431.069c-.09.062-.437.255-.548.331a.76.76,0,0,0-.215.2,2.206,2.206,0,0,0-.159.873,5.452,5.452,0,0,1,.09.752.181.181,0,0,0,.085.236c.082.085.109.209.232.231s.151-.022.263.044a.6.6,0,0,1,.194.2,6.135,6.135,0,0,0,.783.577,11.491,11.491,0,0,0,1.076.512,6.14,6.14,0,0,0,.863.312c.146.054.129.128.237.128a1.12,1.12,0,0,1,.416.031c.116.063.284.206.4.213.1.019.181-.057.275.019s.078.178.222.188.539-.062.684-.041a6.133,6.133,0,0,1,.65.071.855.855,0,0,1,.273.1c.094.031,2,.031,2.3.031a3.81,3.81,0,0,0,.667-.016,2.338,2.338,0,0,1,.391-.106c.122,0,.268.056.444.056.193,0,.209,0,.3-.068a.442.442,0,0,1,.288-.071.561.561,0,0,1,.251.041c.107.029.312-.062.413-.077s1.244-.155,1.483-.2.479-.007.556-.078a.379.379,0,0,1,.29-.168.373.373,0,0,0,.273-.13c.082-.056.266-.056.437-.134s.688-.289,1.073-.43c.365-.144.791-.377,1.11-.536a3.8,3.8,0,0,1,.488-.262.727.727,0,0,1,.269-.109A1.287,1.287,0,0,0,40,48.136a2.508,2.508,0,0,0,.5-.493,2.144,2.144,0,0,1,.432-.539c.078-.057.175-.1.215-.218s.012-.265.046-.318c.054-.043.109-.131.122-.337a1.576,1.576,0,0,0-.053-.617,1.553,1.553,0,0,0-.22-.424,1.463,1.463,0,0,0-.323-.222c-.04-.027-.118-.077-.171-.037s-.129.1-.176.066a.176.176,0,0,1-.078-.13.192.192,0,0,0-.213-.132,1.689,1.689,0,0,1-.325,0c-.091-.016-.091-.047-.216-.047a1.738,1.738,0,0,0-.354.057c-.125.04-.6.04-.735.06a3.622,3.622,0,0,0-.426.125c-.188.066-.75.277-1.022.4-.29.127-.644.281-.908.424s-.845.392-1.063.509a4.548,4.548,0,0,1-.462.219c-.122.015-.363.049-.529.082-.182.032-.773.181-.958.209a8.728,8.728,0,0,1-1.2.141c-.234,0-1.486-.018-1.808-.018a6.846,6.846,0,0,1-1.144-.131c-.235-.053-1-.169-1.294-.236-.284-.049-1.063-.283-1.467-.408S25.3,45.9,25,45.784s-.62-.243-.907-.347" transform="translate(10.212 21.094)" fill="#0068b6"/>
      <path id="長方形_492" data-name="長方形 492" d="M.855,0H21.391a.852.852,0,0,1,.852.852V4.721a.849.849,0,0,1-.849.849H.852A.852.852,0,0,1,0,4.718V.855A.855.855,0,0,1,.855,0Z" transform="translate(114.066 19.483)" fill="#0068b6"/>
      <path id="パス_562" data-name="パス 562" d="M113.267,0H71.286a1.252,1.252,0,0,0-1.249,1.254V43.284a1.253,1.253,0,0,0,1.249,1.253h41.981a1.25,1.25,0,0,0,1.244-1.253V1.255A1.249,1.249,0,0,0,113.267,0m-4.313,38.342a.627.627,0,0,1-.626.627h-32.1a.633.633,0,0,1-.632-.627V6.2a.631.631,0,0,1,.632-.626h32.1a.625.625,0,0,1,.626.626Z" transform="translate(32.911 0)" fill="#0068b6"/>
      <path id="パス_563" data-name="パス 563" d="M137.663,66.4a1.256,1.256,0,0,1-1.258,1.254h-3.062A1.244,1.244,0,0,1,132.1,66.4V51.576a.636.636,0,0,0-.634-.627h-14.8A1.252,1.252,0,0,1,115.42,49.7V46.635a1.254,1.254,0,0,1,1.254-1.253H136.4a1.258,1.258,0,0,1,1.258,1.253Z" transform="translate(54.237 21.421)" fill="#0068b6"/>
      <path id="パス_564" data-name="パス 564" d="M122.828,59.181a3.7,3.7,0,1,1-3.7-3.714,3.711,3.711,0,0,1,3.7,3.714" transform="translate(54.237 26.182)" fill="#0068b6"/>
      <path id="パス_565" data-name="パス 565" d="M151.077,37.821h-41.97a1.248,1.248,0,0,0-1.248,1.251V81.106a1.249,1.249,0,0,0,1.248,1.247h41.97a1.248,1.248,0,0,0,1.251-1.247V39.072a1.247,1.247,0,0,0-1.251-1.251M146.765,76.16a.618.618,0,0,1-.626.626h-32.1a.624.624,0,0,1-.625-.626V44.009a.622.622,0,0,1,.625-.621h32.1a.616.616,0,0,1,.626.621Z" transform="translate(50.684 17.852)" fill="#0068b6"/>
      <path id="パス_566" data-name="パス 566" d="M92.274,64.4a1.243,1.243,0,0,1-1.245,1.25H87.97a1.25,1.25,0,0,1-1.251-1.25V44.008a.622.622,0,0,0-.629-.62h-14.8a1.257,1.257,0,0,1-1.249-1.256v-3.06a1.248,1.248,0,0,1,1.249-1.251H91.029a1.244,1.244,0,0,1,1.245,1.251Z" transform="translate(32.911 17.852)" fill="#0068b6"/>
      <path id="パス_567" data-name="パス 567" d="M105.622,39.072a1.244,1.244,0,0,0-1.244-1.251H101.32a1.245,1.245,0,0,0-1.254,1.251v3.69a.624.624,0,0,1-.626.626H90.194a1.242,1.242,0,0,0-1.242,1.253V47.7a1.244,1.244,0,0,0,1.242,1.253h14.185a1.249,1.249,0,0,0,1.244-1.253Z" transform="translate(41.799 17.852)" fill="#0068b6"/>
      <path id="パス_568" data-name="パス 568" d="M77.388,78.783a1.245,1.245,0,0,0,.88-.362L88.3,68.366a.425.425,0,0,0,.125-.3.413.413,0,0,0-.42-.417H76.224a.632.632,0,0,1-.632-.627V62.71a.632.632,0,0,1,.632-.629H79.91a1.251,1.251,0,0,0,1.245-1.25V57.767a1.252,1.252,0,0,0-1.245-1.244H76.224a.636.636,0,0,1-.632-.629V51.576a.633.633,0,0,1,.632-.626H79.91a1.257,1.257,0,0,0,1.245-1.25V46.634a1.256,1.256,0,0,0-1.245-1.251H71.286a1.253,1.253,0,0,0-1.249,1.251V71.96a1.25,1.25,0,0,0,1.249,1.256h3.306a.416.416,0,0,1,.414.422.441.441,0,0,1-.116.293l-4.133,4.141a.419.419,0,0,0,.3.711Z" transform="translate(32.911 21.422)" fill="#0068b6"/>
      <path id="パス_569" data-name="パス 569" d="M97.767,72.067a1.245,1.245,0,0,1-1.254-1.247V65.113a1.216,1.216,0,0,1,.373-.888l4.471-4.485a.4.4,0,0,1,.3-.128.416.416,0,0,1,.416.424V70.82a1.246,1.246,0,0,1-1.245,1.247Z" transform="translate(45.352 28.138)" fill="#0068b6"/>
      <path id="パス_570" data-name="パス 570" d="M108.93,56.449a1.224,1.224,0,0,0,.365-.888V50.417a1.252,1.252,0,0,0-1.244-1.253h-3.059a1.251,1.251,0,0,0-1.254,1.253v2.841a1.242,1.242,0,0,1-.369.883L81.258,76.288a.4.4,0,0,0-.121.291.415.415,0,0,0,.416.42h6.335a1.245,1.245,0,0,0,.886-.364Z" transform="translate(38.127 23.207)" fill="#0068b6"/>
      <path id="パス_571" data-name="パス 571" d="M141.216,34.647a1.25,1.25,0,0,0-1.258-1.245H133.5a.629.629,0,0,1-.628-.632V11.754a.63.63,0,0,1,.628-.626h17.58a1.245,1.245,0,0,0,1.251-1.248V6.821a1.251,1.251,0,0,0-1.251-1.251H133.5a.628.628,0,0,1-.628-.629V1.254A1.252,1.252,0,0,0,131.617,0H128.56a1.247,1.247,0,0,0-1.244,1.254V4.942a.628.628,0,0,1-.623.629H109.107a1.252,1.252,0,0,0-1.248,1.251V9.88a1.246,1.246,0,0,0,1.248,1.248h17.586a.63.63,0,0,1,.623.626V32.77a.65.65,0,0,1-.623.632h-6.466a1.25,1.25,0,0,0-1.254,1.25v3.062a1.252,1.252,0,0,0,1.254,1.257h6.466a.636.636,0,0,1,.623.623v3.692a1.249,1.249,0,0,0,1.244,1.253h3.057a1.255,1.255,0,0,0,1.252-1.253V39.593a.62.62,0,0,1,.628-.623h6.46v-.009a1.257,1.257,0,0,0,1.258-1.254Z" transform="translate(50.684)" fill="#0068b6"/>
      <path id="パス_572" data-name="パス 572" d="M121.388,19.719a1.251,1.251,0,0,0,.362-.886V12.487a.407.407,0,0,0-.407-.412.431.431,0,0,0-.3.116L108.225,25.026a1.285,1.285,0,0,0-.366.891v6.346a.416.416,0,0,0,.71.293Z" transform="translate(50.684 5.7)" fill="#0068b6"/>
      <path id="パス_573" data-name="パス 573" d="M129.029,19.719a1.239,1.239,0,0,1-.376-.886l.012-6.346a.41.41,0,0,1,.414-.412.375.375,0,0,1,.284.116l12.828,12.835a1.285,1.285,0,0,1,.366.891v6.346a.412.412,0,0,1-.417.415.385.385,0,0,1-.29-.122Z" transform="translate(60.455 5.7)" fill="#0068b6"/>
      <path id="パス_574" data-name="パス 574" d="M69.948,116.227s-7.5,0-7.62-.009a7.478,7.478,0,0,1,.345-14.948h7.275a1.95,1.95,0,0,1,0,3.9H62.674a3.579,3.579,0,0,0-.159,7.154c.065,0,7.433,0,7.433,0a1.95,1.95,0,0,1,0,3.9" transform="translate(25.941 47.802)" fill="#0068b6"/>
      <path id="パス_575" data-name="パス 575" d="M119.59,91.3l-16.738,17.714,0,0a3.878,3.878,0,0,0,.586,5.878,3.888,3.888,0,0,0,5.421-.958,4,4,0,0,0,.412-.757h0Z" transform="translate(47.827 43.095)" fill="#0068b6"/>
      <path id="パス_576" data-name="パス 576" d="M143.109,109.464a3.936,3.936,0,0,0-.372-.449h0L126,91.3l10.314,21.88h0a3.953,3.953,0,0,0,.41.758,3.9,3.9,0,1,0,6.379-4.472" transform="translate(59.21 43.095)" fill="#0068b6"/>
      <path id="パス_577" data-name="パス 577" d="M14.908,88.78a5.562,5.562,0,1,1-5.561-5.57,5.566,5.566,0,0,1,5.561,5.57" transform="translate(1.778 39.277)" fill="#0068b6"/>
      <path id="パス_578" data-name="パス 578" d="M11.124,102.06a5.562,5.562,0,1,1-5.561-5.57,5.563,5.563,0,0,1,5.561,5.57" transform="translate(0 45.546)" fill="#0068b6"/>
      <path id="パス_579" data-name="パス 579" d="M25.168,73.823a5.561,5.561,0,0,0-6.957,5.158l-.01,0v21.815L28.742,81.728l-.01,0a5.576,5.576,0,0,0-3.563-7.9" transform="translate(8.553 34.761)" fill="#0068b6"/>
      <path id="パス_580" data-name="パス 580" d="M15.864,132.448h0l0-26.786L2.923,129.105a6.955,6.955,0,1,0,12.725,5.268,7.042,7.042,0,0,0,.216-1.925" transform="translate(0.922 49.875)" fill="#0068b6"/>
      <path id="パス_581" data-name="パス 581" d="M60.949,87.887A2.782,2.782,0,0,0,58.172,85.1H28.133a2.785,2.785,0,0,0,0,5.57H58.172a2.783,2.783,0,0,0,2.777-2.785" transform="translate(11.913 40.17)" fill="#0068b6"/>
      <path id="パス_582" data-name="パス 582" d="M64.552,93.563a2.781,2.781,0,1,0-5.562,0,2.834,2.834,0,0,0,.082.665h0l2.7,10.622,2.7-10.622h-.006a2.759,2.759,0,0,0,.084-.665" transform="translate(27.72 42.849)" fill="#0068b6"/>
      <path id="パス_583" data-name="パス 583" d="M92.081,98.107a5.561,5.561,0,1,1-5.561-5.57,5.566,5.566,0,0,1,5.561,5.57" transform="translate(38.043 43.68)" fill="#e50012"/>
      <path id="パス_584" data-name="パス 584" d="M62.8,128.851a2.882,2.882,0,0,0-.359.025h-2.91a.625.625,0,0,1-.625-.626V117.3a.626.626,0,0,1,.625-.626H62.8a2.785,2.785,0,0,0,0-5.57H59.527a.626.626,0,0,1-.625-.626V96.013a3.341,3.341,0,0,0-3.338-3.343H39.984a2.785,2.785,0,0,0,0,5.57H51.6a.627.627,0,0,1,.626.629v11.61a.627.627,0,0,1-.626.626H44.5a.626.626,0,0,1-.626-.626v-3.272a3.337,3.337,0,1,0-6.673,0v3.274a.628.628,0,0,1-.628.626H29.492a.626.626,0,0,1-.625-.626h0V96.971a3.337,3.337,0,1,0-6.675,0v13.507a.627.627,0,0,1-.626.626H18.286a2.785,2.785,0,0,0,0,5.57h3.281a.627.627,0,0,1,.626.626v13.8a3.339,3.339,0,0,0,3.337,3.341H51.6a.627.627,0,0,1,.626.627v7.172a3.337,3.337,0,1,0,6.675,0v-7.172a.626.626,0,0,1,.625-.627H62.8v-.025a2.785,2.785,0,0,0,0-5.57m-18.918-8.277V117.3a.626.626,0,0,1,.626-.626h7.1a.627.627,0,0,1,.626.626v10.95a.626.626,0,0,1-.626.626H29.492a.625.625,0,0,1-.625-.626h0V117.3h0a.626.626,0,0,1,.625-.626h7.085a.628.628,0,0,1,.628.626v3.272h0a3.337,3.337,0,1,0,6.673,0" transform="translate(7.286 43.742)" fill="#0068b6"/>
      <path id="パス_585" data-name="パス 585" d="M104.872,84.69v-.029a3.34,3.34,0,0,0-3.337-3.343h-17.8a2.783,2.783,0,0,0-2.78,2.785,2.627,2.627,0,0,0,2.591,2.785c.063,0,.125,0,.188-.009v.009H97.6a.627.627,0,0,1,.626.627v35.022a3.337,3.337,0,1,0,6.673,0V84.69Z" transform="translate(38.043 38.384)" fill="#0068b6"/>
      <path id="パス_586" data-name="パス 586" d="M93.391,120.309H79.555a.627.627,0,0,1-.626-.627V84.661a3.337,3.337,0,1,0-6.673,0v37.877a3.339,3.339,0,0,0,3.337,3.341h17.8a2.785,2.785,0,0,0,0-5.57" transform="translate(33.953 38.384)" fill="#0068b6"/>
      <path id="パス_587" data-name="パス 587" d="M148,87.607H131.3a.626.626,0,0,1-.547-.62V82.894a3.337,3.337,0,1,0-6.673,0v4.094a.626.626,0,0,1-.545.62h-16.7a2.785,2.785,0,0,0,0,5.57h16.616a.626.626,0,0,1,.626.626v21.149a.625.625,0,0,1-.588.621h-6.643a2.785,2.785,0,0,0,0,5.57h6.644a.624.624,0,0,1,.587.623v4.39h0a3.337,3.337,0,1,0,6.673,0h0v-4.39a.625.625,0,0,1,.586-.623h6.645a2.785,2.785,0,0,0,0-5.57h-6.644a.626.626,0,0,1-.588-.621V93.8a.626.626,0,0,1,.628-.626H148a2.785,2.785,0,0,0,0-5.57" transform="translate(48.898 37.55)" fill="#0068b6"/>
      <path id="パス_588" data-name="パス 588" d="M103.633,118.919h0a1.671,1.671,0,1,0-3.341,0v10.047a1.673,1.673,0,0,1-3.115.852h0a1.669,1.669,0,0,0-3.125.823,1.619,1.619,0,0,0,.218.826v.013a5.017,5.017,0,0,0,9.363-2.514Z" transform="translate(44.195 55.341)" fill="#0068b6"/>
      <path id="パス_589" data-name="パス 589" d="M88.045,116.787a9.043,9.043,0,1,0,9.028,9.044,9.037,9.037,0,0,0-9.028-9.044m0,14.738a5.695,5.695,0,1,1,5.681-5.694,5.692,5.692,0,0,1-5.681,5.694" transform="translate(37.128 55.126)" fill="#0068b6"/>
      <path id="パス_590" data-name="パス 590" d="M131.59,129.179a1.673,1.673,0,0,0-1.3.611,5.69,5.69,0,1,1-.006-7.933v0a1.672,1.672,0,1,0,2.5-2.212v0a9.044,9.044,0,1,0,.094,12.287l0,0a1.676,1.676,0,0,0-1.292-2.739" transform="translate(55.065 55.126)" fill="#0068b6"/>
      <path id="パス_591" data-name="パス 591" d="M61.893,117.242h-5.02a1.669,1.669,0,0,0-1.668,1.675V132.31a1.671,1.671,0,1,0,3.341,0V121.261a.685.685,0,0,1,.679-.67h2.668a1.674,1.674,0,0,1,0,3.347,1.675,1.675,0,0,0,0,3.35,5.023,5.023,0,0,0,0-10.047" transform="translate(25.941 55.341)" fill="#0068b6"/>
      <path id="パス_592" data-name="パス 592" d="M139.645,117.242h-6.691a1.674,1.674,0,0,0,0,3.349h.988a.687.687,0,0,1,.682.686l0,.015v11.021a1.672,1.672,0,1,0,3.344,0V121.3l0-.016a.686.686,0,0,1,.685-.686l.01,0h.975a1.674,1.674,0,1,0,0-3.349" transform="translate(61.69 55.341)" fill="#0068b6"/>
      <path id="パス_593" data-name="パス 593" d="M110.035,127.289H114.2a1.31,1.31,0,0,0,.182.01,1.674,1.674,0,1,0,0-3.347v-.012h-4.341a.687.687,0,0,1-.672-.686l0-.009v-1.97a.685.685,0,0,1,.686-.683h4.329a1.675,1.675,0,1,0,0-3.35H107.7a1.675,1.675,0,0,0-1.677,1.675v13.394h0a1.675,1.675,0,0,0,1.677,1.675h6.684a1.674,1.674,0,1,0,0-3.347h-4.322l-.01,0a.686.686,0,0,1-.684-.67v-2.011a.686.686,0,0,1,.664-.668" transform="translate(49.822 55.341)" fill="#0068b6"/>
      <path id="パス_594" data-name="パス 594" d="M77.862,131.688l-.01-.016-.007-.019L76.1,127.441l0-.012a.688.688,0,0,1,.22-.827,5.019,5.019,0,0,0-2.518-9.359H68.782a1.673,1.673,0,0,0-1.674,1.675v13.392a1.671,1.671,0,1,0,3.343,0V121.262a.683.683,0,0,1,.679-.67H73.8a1.674,1.674,0,0,1,.009,3.347h-.27a1.672,1.672,0,0,0-1.67,1.675,1.633,1.633,0,0,0,.138.668h0l2.743,6.629a.656.656,0,0,0,.038.09l.007.024h0a1.671,1.671,0,0,0,3.184-.715,1.726,1.726,0,0,0-.121-.623Z" transform="translate(31.535 55.341)" fill="#0068b6"/>
      <path id="パス_595" data-name="パス 595" d="M161.378,134.218a45.024,45.024,0,0,0,1.335-6.246.5.5,0,0,0-.491-.574h-.49l.084.056a41.253,41.253,0,0,1-4.7,9.375.5.5,0,0,1-.811,0l-2.089-2.848a.484.484,0,0,1,.006-.59,39.4,39.4,0,0,0,4.3-7.986.5.5,0,0,1,.788-.181l1.423,1.264a.5.5,0,0,0,.826-.372v-1.79a.5.5,0,0,1,.5-.5h.735a.5.5,0,0,0,.5-.452c.137-1.359.212-2.341.26-3.253-.194.2-.222.252-.614.645l-2.528-2.655a.5.5,0,0,1,.035-.715,16.041,16.041,0,0,0,4.213-6.324.492.492,0,0,1,.507-.319l3.129.3a.5.5,0,0,1,.428.654c-.038.107-.076.219-.12.337-.116.324-.219.668.123.668h11.74a.5.5,0,0,1,.5.5v2.738a.5.5,0,0,1-.5.5H166.739a.5.5,0,0,0-.416.227c-.116.178-.244.367-.42.617a.446.446,0,0,0,.365.7h12.95a.644.644,0,0,1,.647.651c-.01,1.22-.041,3.539-.048,4.691,0,.277.076.5.356.5h.294a.5.5,0,0,1,.5.5V126.9a.5.5,0,0,1-.5.5h-.4c-.266,0-.345.209-.359.475-.016.428-.038.867-.076,1.375-.021.288.021.536.31.536h.187a.5.5,0,0,1,.5.5v2.6a.5.5,0,0,1-.5.5h-.551c-.248,0-.319.18-.35.427-.2,1.446-.688,3.587-3.2,3.587h-3.944a.5.5,0,0,1-.488-.39l-.425-1.924a.5.5,0,0,1,.488-.606h2.518c.982,0,1.094-.617,1.179-1.094h-9.091a.5.5,0,0,0-.488.4,14.614,14.614,0,0,1-.345,1.431.5.5,0,0,1-.589.342l-3.1-.705a.5.5,0,0,1-.367-.626m-4.735-16.057a19.424,19.424,0,0,1,4.117,2.541.5.5,0,0,1,.094.673l-1.764,2.55a.5.5,0,0,1-.722.1,19.044,19.044,0,0,0-3.792-2.576.5.5,0,0,1-.181-.723l1.636-2.392a.5.5,0,0,1,.611-.175m.81-7.148a20.792,20.792,0,0,1,4.248,2.392.494.494,0,0,1,.1.677l-1.8,2.551a.494.494,0,0,1-.716.093,25.363,25.363,0,0,0-3.883-2.438.5.5,0,0,1-.178-.724l1.636-2.374a.5.5,0,0,1,.6-.177m11.589,18.427c.11-.757.168-1.22.209-1.6a.4.4,0,0,0-.4-.445H167.1a.4.4,0,0,0-.4.346c-.044.337-.118.9-.206,1.587a.406.406,0,0,0,.4.453h1.751a.4.4,0,0,0,.4-.344m-1.779-7.5c-.034.662-.056,1.075-.085,1.46a.4.4,0,0,0,.4.431h1.683a.4.4,0,0,0,.4-.377c.047-.707.073-1.128.082-1.485a.4.4,0,0,0-.4-.412h-1.679a.4.4,0,0,0-.4.383m5.811,5.814c-.053.528-.11,1.085-.165,1.584a.4.4,0,0,0,.4.445h1.98a.4.4,0,0,0,.4-.374c.057-.833.076-1.288.093-1.6a.4.4,0,0,0-.4-.417h-1.906a.4.4,0,0,0-.4.358m.412-5.817c-.022.436-.047,1.044-.069,1.474a.4.4,0,0,0,.4.421h1.708a.4.4,0,0,0,.4-.393c.015-.6.016-1.033.016-1.479a.4.4,0,0,0-.4-.4h-1.657a.4.4,0,0,0-.4.38" transform="translate(72.421 52.28)" fill="#0068b6"/>
      <path id="パス_596" data-name="パス 596" d="M184.832,132.339a.934.934,0,0,1,.754-1.248c2.539-.336,6.648-1.527,6.648-7.1,0-3.118-1.5-5.145-4.122-5.706a.651.651,0,0,0-.783.587c-.222,2.99-1.464,14.389-7.771,14.389-4.1,0-5.423-4.574-5.423-7.656,0-7.582,5.765-11.545,11.945-11.545,7.058,0,10.7,4.428,10.7,10.2a11.067,11.067,0,0,1-3.517,8.391c-1.97,1.747-4.974,2.354-6.579,2.591a.93.93,0,0,1-1.007-.605Zm-6.569-6.633c0,.611.147,2.862,1.465,2.862,1.577,0,2.912-3.946,3.482-9.306a.535.535,0,0,0-.744-.55c-4.2,1.883-4.2,6.327-4.2,7" transform="translate(81.828 53.84)" fill="#0068b6"/>
      <path id="パス_597" data-name="パス 597" d="M202.478,113.071v-1.409a.91.91,0,0,1,.908-.91h2.472a.91.91,0,0,1,.908.91v1.409a.6.6,0,0,0,.6.6h7.939a.91.91,0,0,1,.908.91v2.14a.908.908,0,0,1-.908.908h-7.939a.6.6,0,0,0-.6.6v2.055a.6.6,0,0,0,.6.6h9.565a.91.91,0,0,1,.908.91v2.14a.908.908,0,0,1-.908.908h-6.688a.6.6,0,0,0-.441,1.013,22.4,22.4,0,0,0,7.571,5.444.907.907,0,0,1,.413,1.292l-1.505,2.557a.9.9,0,0,1-1.244.322,29.89,29.89,0,0,1-7.2-6.04.6.6,0,0,0-1.069.374v6.705a.91.91,0,0,1-.908.91h-2.472a.91.91,0,0,1-.908-.91v-6.72a.6.6,0,0,0-1.066-.375,25.6,25.6,0,0,1-7.191,6.066.906.906,0,0,1-1.242-.349l-1.429-2.573a.9.9,0,0,1,.4-1.26,23.754,23.754,0,0,0,7.658-5.451.6.6,0,0,0-.445-1.005H192.37a.908.908,0,0,1-.908-.908V121.8a.91.91,0,0,1,.908-.91h9.509a.6.6,0,0,0,.6-.6v-2.055a.6.6,0,0,0-.6-.6h-7.8a.907.907,0,0,1-.907-.908v-2.14a.908.908,0,0,1,.907-.91h7.8a.6.6,0,0,0,.6-.6" transform="translate(89.957 52.278)" fill="#0068b6"/>
      <path id="パス_598" data-name="パス 598" d="M217.779,117.079h-4.388a.631.631,0,0,1-.631-.632v-2.666a.631.631,0,0,1,.631-.631h9a.374.374,0,0,0,.373-.374v-1.354a.631.631,0,0,1,.631-.631h2.916a.631.631,0,0,1,.631.631v1.354a.374.374,0,0,0,.373.374h9.171a.631.631,0,0,1,.631.631v2.666a.631.631,0,0,1-.631.632h-4.442l2.27.483a.628.628,0,0,1,.479.789,32.794,32.794,0,0,1-1.342,3.805.388.388,0,0,0,.357.539h3.716a.631.631,0,0,1,.631.632v2.723a.631.631,0,0,1-.631.631h-6.979a.382.382,0,0,0-.266.657,24.751,24.751,0,0,0,7.642,5.04.634.634,0,0,1,.3.9l-1.7,2.947a.635.635,0,0,1-.828.252,25.275,25.275,0,0,1-8.032-6.294.407.407,0,0,0-.714.271v6.3a.631.631,0,0,1-.631.632H223.4a.631.631,0,0,1-.631-.632v-6.171a.41.41,0,0,0-.707-.283,27.8,27.8,0,0,1-7.9,6.172.627.627,0,0,1-.828-.247l-1.748-3.013a.634.634,0,0,1,.307-.9,23.462,23.462,0,0,0,7.63-4.968.383.383,0,0,0-.272-.652h-6.923a.631.631,0,0,1-.631-.631v-2.723a.631.631,0,0,1,.631-.632h3.717a.39.39,0,0,0,.375-.489,26.891,26.891,0,0,0-1.188-3.758.628.628,0,0,1,.434-.849Zm-.112,5.616h4.6a.506.506,0,0,0,.5-.506v-4.6a.506.506,0,0,0-.5-.506h-2.436a.455.455,0,0,0-.423.63,25.1,25.1,0,0,1,1.208,3.676.632.632,0,0,1-.479.77Zm11.749-1.54c.457-1.148.919-2.626,1.173-3.49a.456.456,0,0,0-.438-.586h-2.7a.506.506,0,0,0-.5.506v4.6a.506.506,0,0,0,.5.506h5.214L229.85,122a.63.63,0,0,1-.434-.846" transform="translate(99.385 52.296)" fill="#0068b6"/>
      <path id="パス_599" data-name="パス 599" d="M242.822,113.958c-.081.355-.154.636-.256.974a.279.279,0,0,0,.265.359H251.1a.569.569,0,0,1,.569.57v2.785a.568.568,0,0,1-.569.568h-9.8a.3.3,0,0,0-.276.194,10.442,10.442,0,0,1-.735,1.593,6.94,6.94,0,0,1,3.028-.758,4.117,4.117,0,0,1,3.886,2.073,39.046,39.046,0,0,1,5.231-1.625.57.57,0,0,1,.706.453l.578,3.034a.563.563,0,0,1-.443.655c-1.079.215-2.694.721-4.911,1.437a.371.371,0,0,0-.256.375c.079,1.07.079,2,.079,2.393,0,.275,0,.509,0,.724a.571.571,0,0,1-.573.564h-3.125a.571.571,0,0,1-.573-.593c.01-.266.016-.6.026-1.191a.358.358,0,0,0-.519-.328c-.892.47-1.818,1.133-1.818,2.164,0,1.415,1.765,1.491,4.339,1.491,1.739,0,3.942-.081,5.761-.261a.57.57,0,0,1,.629.562l.018,3.081a.569.569,0,0,1-.556.573c-2.042.046-4.749.088-5.12.088a19.824,19.824,0,0,1-6.939-.885,4.418,4.418,0,0,1-2.877-4.12c0-3.512,3.81-5.533,6.309-6.8a2.037,2.037,0,0,0-1.288-.43c-1.917,0-3.584,1.643-4.214,2.249a29.627,29.627,0,0,1-2.885,3.849.572.572,0,0,1-.823.012l-2.258-2.3a.568.568,0,0,1,0-.795,22.518,22.518,0,0,0,4.76-7.069.3.3,0,0,0-.272-.417h-3.173a.568.568,0,0,1-.567-.568v-2.785a.568.568,0,0,1,.567-.57h4.633a.281.281,0,0,0,.272-.224c.115-.536.2-.985.279-1.516a.57.57,0,0,1,.592-.481l3.516.19a.572.572,0,0,1,.523.7" transform="translate(108.798 53.371)" fill="#0068b6"/>
      <path id="パス_600" data-name="パス 600" d="M303.157,114.751v2.307a.689.689,0,0,1-.272.555c-1.283.967-3.761,2.332-5.092,3.319a.139.139,0,0,0,.1.256,8.207,8.207,0,0,1,1.665-.127c5.628,0,6.884,4.226,6.884,6.932,0,5.028-3.754,8.137-9.835,8.137-5.325,0-6.889-2.806-6.889-4.752,0-2.754,2.7-4.27,5.173-4.27,3.028,0,4.561,2.021,4.561,3.942a4.314,4.314,0,0,1-.126.96,3.678,3.678,0,0,0,2.752-3.512c0-.43-.069-3.765-4.613-3.765a9.871,9.871,0,0,0-5.855,2,41,41,0,0,0-4.275,3.483.42.42,0,0,1-.663-.1l-1.562-2.882a.683.683,0,0,1,.162-.855c1.765-1.468,7.769-5.99,9.723-7.629.2-.163.073-.618-.182-.612l-7.176.168a.661.661,0,0,1-.676-.662v-2.8a.662.662,0,0,1,.655-.662l14.839-.127a.7.7,0,0,1,.707.7m-6.884,17.209a1.552,1.552,0,0,0-1.615-1.668c-.883,0-1.514.43-1.514,1.136,0,1.063,1.288,1.188,2.045,1.188a3.838,3.838,0,0,0,1.01-.125,1.828,1.828,0,0,0,.075-.531" transform="translate(133.934 53.834)" fill="#0068b6"/>
      <path id="パス_601" data-name="パス 601" d="M309.066,133.649a9.942,9.942,0,0,0,4.139-4.275.23.23,0,0,0-.317-.3c-.97.546-1.743.923-2.387,1.22a.584.584,0,0,1-.813-.383L309,127.258c-.069-.269-.485-.163-.66-.1a.33.33,0,0,0-.209.3v7.468a2.241,2.241,0,0,1-2.271,2.47h-2.878a.626.626,0,0,1-.619-.54l-.412-2.929a.625.625,0,0,1,.619-.714h.851c.42,0,.785-.056.785-.786v-3.4a.37.37,0,0,0-.483-.35c-.463.146-.819.253-1.189.365a.587.587,0,0,1-.754-.5l-.322-3.187a.585.585,0,0,1,.467-.636c.409-.081.85-.18,1.958-.462a.431.431,0,0,0,.323-.415v-4.207a.4.4,0,0,0-.4-.4h-1.507a.588.588,0,0,1-.587-.587v-2.726a.588.588,0,0,1,.587-.589H303.8a.4.4,0,0,0,.4-.4v-3.559a.588.588,0,0,1,.588-.589h2.749a.588.588,0,0,1,.588.589v3.559a.4.4,0,0,0,.4.4h1.282l1.827-1.718a.59.59,0,0,1,.882.09,14.738,14.738,0,0,1,1.388,2.345.146.146,0,0,0,.276-.068v-4.649a.473.473,0,0,1,.473-.474h2.866a.473.473,0,0,1,.473.474v12.084c0,8.845-3.7,12.037-6.191,13.79a.628.628,0,0,1-.848-.116l-2.055-2.505a.627.627,0,0,1,.166-.942m3.415-12.2a.478.478,0,0,1-.77-.231,21.177,21.177,0,0,0-1.649-4.251v1.641a.633.633,0,0,1-.632.633h-.9a.4.4,0,0,0-.4.4v3a.329.329,0,0,0,.426.312c.394-.125.623-.2.854-.284a.5.5,0,0,1,.666.464l.044,2.535c2.186-.921,2.993-1.276,3.645-1.59a.741.741,0,0,0,.419-.667v-2.739a.31.31,0,0,0-.512-.237Zm12.837,7.65a21.164,21.164,0,0,0-1.836-3.549.194.194,0,0,0-.357.1v6.415c0,.365.028.674.364.674h.98c.426,0,.763,0,.829-2.046a.613.613,0,0,1,.794-.571l2.17.682a.619.619,0,0,1,.429.606c-.137,4.351-1.063,5.792-2.9,5.792h-4.009c-1.4,0-2.522-.617-2.522-2.3V111.339a.473.473,0,0,1,.473-.474h2.927a.473.473,0,0,1,.472.47l.053,5.692a.22.22,0,0,0,.419.122,26.732,26.732,0,0,0,1.507-3.325.459.459,0,0,1,.686-.237l2.508,1.653a.461.461,0,0,1,.172.564,24.745,24.745,0,0,1-3.246,5.57l-1.592-1.317a.311.311,0,0,0-.51.24v2.411a.266.266,0,0,0,.42.218l1.285-.921a.471.471,0,0,1,.65.1,28.517,28.517,0,0,1,3.046,4.993.471.471,0,0,1-.146.567l-2.167,1.678a.579.579,0,0,1-.9-.244" transform="translate(141.654 52.296)" fill="#0068b6"/>
      <path id="パス_602" data-name="パス 602" d="M348.225,123.961a27.289,27.289,0,0,1-3.742,6.508c.365,1.01.589,1.627,1.01,1.627.483,0,1.045-.883,1.532-1.774a.414.414,0,0,1,.757.078l.913,2.875a1.2,1.2,0,0,1-.028.833c-.789,1.84-2.292,3.35-3.65,3.35-2.046,0-3.168-2.442-3.672-3.537a21.52,21.52,0,0,1-3.764,2.944.756.756,0,0,1-1.041-.238l-1.98-3.127h-2.4a.4.4,0,0,0-.4.4v2.941a.611.611,0,0,1-.61.612h-2.815a.611.611,0,0,1-.612-.612V133.9a.4.4,0,0,0-.4-.4h-4.8a.653.653,0,0,1-.653-.652v-2.542a.653.653,0,0,1,.653-.652h4.742a.465.465,0,0,0,.464-.465v-.5a.465.465,0,0,0-.464-.465H323.4a.673.673,0,0,1-.673-.673V116.528a.369.369,0,0,1,.394-.378h.448a22.8,22.8,0,0,0-1.561-3.765.428.428,0,0,1,.259-.617l2.827-.777a.419.419,0,0,1,.485.2,33,33,0,0,1,1.561,3.44.423.423,0,0,1-.27.555l-3.049.96h7.821a23.119,23.119,0,0,0,2.136-5.056.412.412,0,0,1,.5-.29l3.356.851a.412.412,0,0,1,.273.571c-.6,1.331-2.014,3.751-2.112,3.924h.591a.337.337,0,0,1,.362.355v11.045a.673.673,0,0,1-.672.673h-3.853a.465.465,0,0,0-.466.465v.5a.465.465,0,0,0,.466.465h4.517a.652.652,0,0,1,.651.652v1.454a26.685,26.685,0,0,0,2.636-2.162,56.734,56.734,0,0,1-.982-7.719l-1.274.077a.542.542,0,0,1-.575-.542v-2.937a.542.542,0,0,1,.5-.54l1.239-.1c-.028-.9-.112-4.97-.112-5.784v-.686a.549.549,0,0,1,.548-.549h2.877a.547.547,0,0,1,.548.556c-.006.3-.012.664-.016.93a.19.19,0,0,0,.287.166l2.273-1.337a.633.633,0,0,1,.838.175,29.975,29.975,0,0,1,2.192,3.712.637.637,0,0,1-.259.827l-2.615,1.509,2.259-.152a.622.622,0,0,1,.664.612l.04,2.769a.623.623,0,0,1-.578.632l-4.852.35c.112,1.909.223,2.947.337,3.846a13.251,13.251,0,0,0,1.436-3.2.566.566,0,0,1,.83-.328l2.353,1.372a.565.565,0,0,1,.243.7m-22.047-3.178h1.906v-1.657h-1.906Zm0,4.379h1.906v-1.685h-1.906Zm5.12-14.181a23.544,23.544,0,0,1,.692,3.67.425.425,0,0,1-.359.468l-2.825.431a.425.425,0,0,1-.487-.377,20.093,20.093,0,0,0-.754-3.684.427.427,0,0,1,.366-.549l2.919-.261a.427.427,0,0,1,.447.3m.235,9.8h1.821v-1.657h-1.821Zm0,4.379h1.821v-1.685h-1.821Zm13.747-7.952a20.313,20.313,0,0,0-2.234-4.1.149.149,0,0,0-.27.081c.009,1.524.057,3.45.082,4.366l2.306-.156a.137.137,0,0,0,.116-.188" transform="translate(151.246 52.242)" fill="#0068b6"/>
      <path id="パス_603" data-name="パス 603" d="M286.563,120.195v2.639a.475.475,0,0,1-.235.412,60.54,60.54,0,0,0-5.18,3.637,4.22,4.22,0,0,1,1.629-.375c2.25,0,2.328,1.774,2.328,2.973v.824c0,1.323,0,1.824,2.121,1.824.26,0,2.025,0,3.767-.152a.475.475,0,0,1,.516.461l.1,3.284a.474.474,0,0,1-.454.493c-.817.026-1.89.06-3.179.06-2.793,0-5.173-.075-6.156-1.348a4.043,4.043,0,0,1-.853-2.473v-1.2c0-.649-.026-1.473-1.216-1.473-1.668,0-2.922.952-7.86,6.322a.473.473,0,0,1-.706-.007L268.9,133.44a.482.482,0,0,1,.048-.679c1.846-1.6,7.4-6.328,8.553-7.3.528-.443.964-.8,1.341-1.1a.371.371,0,0,0-.238-.662l-8.112.271a.476.476,0,0,1-.488-.478v-3.2a.476.476,0,0,1,.47-.478l15.616-.094a.476.476,0,0,1,.475.478m-1.655-1.652-9.874-1.628a.477.477,0,0,1-.388-.58l.617-2.847a.472.472,0,0,1,.539-.365l9.841,1.706a.478.478,0,0,1,.381.58l-.584,2.769a.474.474,0,0,1-.533.365" transform="translate(126.302 53.394)" fill="#0068b6"/>
      <path id="パス_604" data-name="パス 604" d="M251.744,122.106a22.752,22.752,0,0,0,3.585-5.357.607.607,0,0,0-.319-.835l-2.4-.961a.611.611,0,0,0-.764.283,17.232,17.232,0,0,1-2.921,4.186.606.606,0,0,0,.019.854l1.918,1.862a.608.608,0,0,0,.878-.032" transform="translate(116.896 54.241)" fill="#0068b6"/>
      <path id="パス_605" data-name="パス 605" d="M268.863,117.976a.707.707,0,0,0-.247.977,24.55,24.55,0,0,0,3.794,5.146.845.845,0,0,0,1.192-.019l1.715-1.752a.706.706,0,0,0,0-.985,24.275,24.275,0,0,1-3.551-4.528.211.211,0,0,1,.188-.312H274.6a.874.874,0,0,0,.873-.874v-2.081a.874.874,0,0,0-.873-.874H264.548a.21.21,0,0,1-.21-.209v-.69a.873.873,0,0,0-.873-.873H260.8a.873.873,0,0,0-.873.873v.69a.21.21,0,0,1-.21.209H249.634a.874.874,0,0,0-.873.874v2.081a.874.874,0,0,0,.873.874h7.156a.561.561,0,0,1,.544.679,7.66,7.66,0,0,1-3.282,4.892.811.811,0,0,0-.125,1.2l1.645,1.778a.215.215,0,0,1-.037.318,21.146,21.146,0,0,1-5.6,2.859.887.887,0,0,0-.473,1.257l1.1,2.006a.88.88,0,0,0,1.076.4,30.757,30.757,0,0,0,3-1.292.576.576,0,0,1,.675.118,15.37,15.37,0,0,0,1.266,1.206.471.471,0,0,1-.207.816,46.076,46.076,0,0,1-6.288,1.014.879.879,0,0,0-.754,1.153l.642,1.974a.877.877,0,0,0,.926.606,44.525,44.525,0,0,0,10.8-2.464h.148a49.183,49.183,0,0,0,11.38,2.489.877.877,0,0,0,.914-.552l.95-2.314a.881.881,0,0,0-.776-1.209,43.929,43.929,0,0,1-6.859-.866.218.218,0,0,1-.071-.4,18.352,18.352,0,0,0,3.72-3.236.882.882,0,0,0,.228-.593v-2.273a.877.877,0,0,0-.876-.877h-8.6c.128-.155.325-.415.494-.646a.331.331,0,0,0-.216-.539l-3.16-.873a.207.207,0,0,1-.1-.337,11.567,11.567,0,0,0,2.44-5.84.549.549,0,0,1,.547-.467h1.413a.555.555,0,0,1,.554.555v2.148c0,.845,0,.93-.76.93h-.654a.806.806,0,0,0-.8.938l.482,2.519a.647.647,0,0,0,.638.542h2.636a2.109,2.109,0,0,0,2.362-2.084v-4.992a.555.555,0,0,1,.554-.555h2.321a.21.21,0,0,1,.106.392Zm-9.4,10.579h5.386a.384.384,0,0,1,.213.7,19.565,19.565,0,0,1-2.606,1.476.8.8,0,0,1-.683,0,19.173,19.173,0,0,1-2.527-1.474.386.386,0,0,1,.218-.7" transform="translate(116.895 52.348)" fill="#0068b6"/>
      <path id="パス_625" data-name="パス 625" d="M0,0,2.383,0l0,2.378L0,2.383Z" transform="translate(295.346 66.156) rotate(-45.025)" fill="#009fc9"/>
      <path id="パス_626" data-name="パス 626" d="M.009.009l4.758,0,0,4.758-4.758,0Z" transform="translate(302.062 74.571) rotate(-45)" fill="#009fc9"/>
      <path id="パス_627" data-name="パス 627" d="M.014.014,7.15.009,7.145,7.145.009,7.15Z" transform="translate(308.779 82.987) rotate(-45)" fill="#009fc9"/>
      <path id="パス_628" data-name="パス 628" d="M.009.009l4.758,0,0,4.758-4.758,0Z" transform="translate(302.062 91.403) rotate(-45)" fill="#009fc9"/>
      <path id="パス_629" data-name="パス 629" d="M.019.019,9.533.012,9.527,9.527.012,9.533Z" transform="translate(315.495 91.402) rotate(-45)" fill="#009fc9"/>
      <path id="パス_630" data-name="パス 630" d="M.014.014,7.15.009,7.145,7.145.009,7.15Z" transform="translate(308.779 99.818) rotate(-45)" fill="#009fc9"/>
      <path id="パス_631" data-name="パス 631" d="M.019.019,9.533.012,9.527,9.527.012,9.533Z" transform="translate(315.495 108.234) rotate(-45)" fill="#009fc9"/>
      <path id="パス_632" data-name="パス 632" d="M.014.014,7.15.009,7.145,7.145.009,7.15Z" transform="translate(308.779 116.65) rotate(-45)" fill="#009fc9"/>
      <path id="パス_633" data-name="パス 633" d="M.009.009l4.758,0,0,4.758-4.758,0Z" transform="matrix(0.707, -0.707, 0.707, 0.707, 302.062, 125.065)" fill="#009fc9"/>
      <path id="パス_634" data-name="パス 634" d="M.019.019,9.533.012,9.527,9.527.012,9.533Z" transform="translate(315.495 125.065) rotate(-45)" fill="#009fc9"/>
      <path id="パス_635" data-name="パス 635" d="M.014.014,7.15.009,7.145,7.145.009,7.15Z" transform="translate(308.779 133.481) rotate(-45)" fill="#009fc9"/>
      <path id="パス_636" data-name="パス 636" d="M.009.009l4.758,0,0,4.758-4.758,0Z" transform="translate(302.063 141.897) rotate(-45)" fill="#009fc9"/>
      <path id="パス_637" data-name="パス 637" d="M0,0,2.383,0l0,2.378L0,2.383Z" transform="translate(295.346 150.313) rotate(-45)" fill="#009fc9"/>
      <path id="パス_638" data-name="パス 638" d="M0,0,2.383,0l0,2.378L0,2.383Z" transform="matrix(0.707, -0.707, 0.707, 0.707, 261.732, 66.155)" fill="#009fc9"/>
      <path id="パス_639" data-name="パス 639" d="M.009.009l4.758,0,0,4.758-4.758,0Z" transform="translate(268.447 74.571) rotate(-45)" fill="#009fc9"/>
      <path id="パス_640" data-name="パス 640" d="M.014.014,7.15.009,7.145,7.145.009,7.15Z" transform="translate(275.164 82.987) rotate(-45)" fill="#009fc9"/>
      <path id="パス_641" data-name="パス 641" d="M.009.009l4.758,0,0,4.758-4.758,0Z" transform="translate(268.447 91.403) rotate(-45)" fill="#009fc9"/>
      <path id="パス_642" data-name="パス 642" d="M.019.019,9.533.012,9.527,9.527.012,9.533Z" transform="translate(281.88 91.402) rotate(-45)" fill="#009fc9"/>
      <path id="パス_643" data-name="パス 643" d="M.014.014,7.15.009,7.145,7.145.009,7.15Z" transform="translate(275.164 99.818) rotate(-45)" fill="#009fc9"/>
      <path id="パス_644" data-name="パス 644" d="M.019.019,9.533.012,9.527,9.527.012,9.533Z" transform="translate(281.88 108.234) rotate(-45)" fill="#009fc9"/>
      <path id="パス_645" data-name="パス 645" d="M.014.014,7.15.009,7.145,7.145.009,7.15Z" transform="translate(275.164 116.65) rotate(-45)" fill="#009fc9"/>
      <path id="パス_646" data-name="パス 646" d="M.009.009l4.758,0,0,4.758-4.758,0Z" transform="matrix(0.707, -0.707, 0.707, 0.707, 268.448, 125.065)" fill="#009fc9"/>
      <path id="パス_606" data-name="パス 606" d="M213.166,70.509l-8.4-8.416-8.4,8.416,8.4,8.416-8.4,8.416,8.4,8.416,8.4-8.416,8.4-8.416Z" transform="translate(92.271 29.309)" fill="#009fc9"/>
      <path id="パス_647" data-name="パス 647" d="M.019.019,9.533.012,9.527,9.527.012,9.533Z" transform="translate(281.88 125.066) rotate(-45)" fill="#009fc9"/>
      <path id="パス_648" data-name="パス 648" d="M.014.014,7.15.009,7.145,7.145.009,7.15Z" transform="translate(275.164 133.481) rotate(-45)" fill="#009fc9"/>
      <path id="パス_649" data-name="パス 649" d="M.009.009l4.758,0,0,4.758-4.758,0Z" transform="translate(268.448 141.897) rotate(-45)" fill="#009fc9"/>
      <path id="パス_650" data-name="パス 650" d="M0,0,2.383,0l0,2.378L0,2.383Z" transform="translate(261.731 150.313) rotate(-45)" fill="#009fc9"/>
      <path id="パス_651" data-name="パス 651" d="M0,0,2.383,0l0,2.378L0,2.383Z" transform="translate(228.117 66.156) rotate(-45.025)" fill="#009fc9"/>
      <path id="パス_652" data-name="パス 652" d="M.009.009l4.758,0,0,4.758-4.758,0Z" transform="translate(234.833 74.571) rotate(-45)" fill="#009fc9"/>
      <path id="パス_653" data-name="パス 653" d="M0,0,2.383,0l0,2.378L0,2.383Z" transform="translate(228.117 82.987) rotate(-45.025)" fill="#009fc9"/>
      <path id="パス_654" data-name="パス 654" d="M.014.014,7.15.009,7.145,7.145.009,7.15Z" transform="translate(241.549 82.987) rotate(-45)" fill="#009fc9"/>
      <path id="パス_655" data-name="パス 655" d="M.009.009l4.758,0,0,4.758-4.758,0Z" transform="translate(234.833 91.403) rotate(-45)" fill="#009fc9"/>
      <path id="パス_656" data-name="パス 656" d="M0,0,2.383,0l0,2.378L0,2.383Z" transform="translate(228.117 99.819) rotate(-45.025)" fill="#009fc9"/>
      <path id="パス_657" data-name="パス 657" d="M.019.019,9.533.012,9.527,9.527.012,9.533Z" transform="translate(248.266 91.402) rotate(-45)" fill="#009fc9"/>
      <path id="パス_658" data-name="パス 658" d="M.014.014,7.15.009,7.145,7.145.009,7.15Z" transform="translate(241.549 99.818) rotate(-45)" fill="#009fc9"/>
      <path id="パス_659" data-name="パス 659" d="M.009.009l4.758,0,0,4.758-4.758,0Z" transform="matrix(0.707, -0.707, 0.707, 0.707, 234.833, 108.234)" fill="#009fc9"/>
      <path id="パス_660" data-name="パス 660" d="M0,0,2.383,0l0,2.379L0,2.383Z" transform="translate(228.117 116.65) rotate(-45.025)" fill="#009fc9"/>
      <path id="パス_661" data-name="パス 661" d="M.019.019,9.533.012,9.527,9.527.012,9.533Z" transform="translate(248.266 108.234) rotate(-45)" fill="#009fc9"/>
      <path id="パス_662" data-name="パス 662" d="M.014.014,7.15.009,7.145,7.145.009,7.15Z" transform="translate(241.549 116.65) rotate(-45)" fill="#009fc9"/>
      <path id="パス_663" data-name="パス 663" d="M.009.009l4.758,0,0,4.758-4.758,0Z" transform="matrix(0.707, -0.707, 0.707, 0.707, 234.833, 125.065)" fill="#009fc9"/>
      <path id="パス_664" data-name="パス 664" d="M0,0,2.383,0l0,2.378L0,2.383Z" transform="translate(228.117 133.482) rotate(-45.025)" fill="#009fc9"/>
      <path id="パス_607" data-name="パス 607" d="M190.3,70.509l-8.4-8.416-8.4,8.416,8.4,8.416-8.4,8.416,8.4,8.416,8.4-8.416,8.4-8.416Z" transform="translate(81.525 29.309)" fill="#009fc9"/>
      <path id="パス_665" data-name="パス 665" d="M.019.019,9.533.012,9.527,9.527.012,9.533Z" transform="translate(248.266 125.066) rotate(-45)" fill="#009fc9"/>
      <path id="パス_666" data-name="パス 666" d="M.014.014,7.15.009,7.145,7.145.009,7.15Z" transform="translate(241.549 133.481) rotate(-45)" fill="#009fc9"/>
      <path id="パス_667" data-name="パス 667" d="M.009.009l4.758,0,0,4.758-4.758,0Z" transform="translate(234.833 141.897) rotate(-45)" fill="#009fc9"/>
      <path id="パス_668" data-name="パス 668" d="M0,0,2.383,0l0,2.378L0,2.383Z" transform="matrix(0.707, -0.707, 0.707, 0.707, 228.117, 150.314)" fill="#009fc9"/>
      <path id="パス_608" data-name="パス 608" d="M237.018,71.494h0l-9.387-9.4-8.4,8.416,8.4,8.416-8.4,8.416,8.4,8.416,8.4-8.416,8.4-8.416Z" transform="translate(103.017 29.309)" fill="#009fc9"/>
      <path id="パス_609" data-name="パス 609" d="M201.415,33.064a1.274,1.274,0,0,1,1.186,1.728,24.343,24.343,0,0,1-23.036,15.39,25.023,25.023,0,0,1-25.316-25.155,25.111,25.111,0,0,1,48.382-9.352,1.269,1.269,0,0,1-1.195,1.708h-7.708a1.237,1.237,0,0,1-1.1-.651,14.962,14.962,0,0,0-13.19-8.171c-9.4,0-15.463,7.906-15.463,16.466,0,8.82,6.329,16.6,15.528,16.6,7.777,0,11.724-5.541,13.088-7.914a1.27,1.27,0,0,1,1.1-.645Z" transform="translate(72.483 0)" fill="#0068b6"/>
      <path id="パス_610" data-name="パス 610" d="M190.7,47.709V1.889A1.265,1.265,0,0,1,191.96.623h7.194a1.265,1.265,0,0,1,1.264,1.266v17.4a.736.736,0,0,0,.736.737h17.12a.738.738,0,0,0,.738-.737V1.889A1.265,1.265,0,0,1,220.276.623h7.194a1.265,1.265,0,0,1,1.264,1.266v45.82a1.265,1.265,0,0,1-1.264,1.266h-7.194a1.265,1.265,0,0,1-1.264-1.266V29.327a.739.739,0,0,0-.738-.739h-17.12a.738.738,0,0,0-.736.739V47.709a1.265,1.265,0,0,1-1.264,1.266H191.96a1.265,1.265,0,0,1-1.264-1.266" transform="translate(89.61 0.294)" fill="#0068b6"/>
      <path id="パス_611" data-name="パス 611" d="M228.781,48.975h-8.389a1,1,0,0,1-.925-1.376L238.2,1.322a1.117,1.117,0,0,1,1.035-.7h7.033a1.117,1.117,0,0,1,1.039.708l18.3,46.275a1,1,0,0,1-.929,1.369h-8.471a1,1,0,0,1-.936-.651l-3.153-8.482a.527.527,0,0,0-.492-.342H233.3a.526.526,0,0,0-.492.344l-3.093,8.473a1,1,0,0,1-.938.657M241.73,13.849,235.784,30.86a.65.65,0,0,0,.613.864h12.061a.648.648,0,0,0,.61-.868l-6.115-17.012a.649.649,0,0,0-1.223.006" transform="translate(103.095 0.294)" fill="#0068b6"/>
      <path id="パス_612" data-name="パス 612" d="M284.588,32.461,284.41,1.942A1.311,1.311,0,0,1,285.72.623h6.7a1.312,1.312,0,0,1,1.311,1.312V47.65a1.326,1.326,0,0,1-1.324,1.325h-6.581a1.322,1.322,0,0,1-1.1-.59L263.8,16.914a.5.5,0,0,0-.919.281l.179,30.458a1.314,1.314,0,0,1-1.313,1.322h-6.7a1.314,1.314,0,0,1-1.313-1.315V1.776A1.153,1.153,0,0,1,254.888.623H261.8a1.146,1.146,0,0,1,.959.517l20.918,31.6a.5.5,0,0,0,.916-.28" transform="translate(119.233 0.294)" fill="#0068b6"/>
      <path id="パス_613" data-name="パス 613" d="M322.894,15.748a1.4,1.4,0,0,1-1.145-.608,15.624,15.624,0,0,0-3.178-3.377,14.588,14.588,0,0,0-9.265-3.2c-7.764,0-15.659,5.881-15.659,16.4,0,10.914,7.961,16.662,15.659,16.662a15.956,15.956,0,0,0,9.591-2.938,12.785,12.785,0,0,0,4.613-6.163.861.861,0,0,0-.8-1.156H307.248a1.4,1.4,0,0,1-1.4-1.4V24.924a1.4,1.4,0,0,1,1.4-1.4h26.5A1.348,1.348,0,0,1,335.1,24.88a28.231,28.231,0,0,1-2.173,10.8c-4.5,10.063-14.877,14.505-23.554,14.505A25.032,25.032,0,0,1,283.925,24.96C283.925,10.521,295.409,0,309.5,0c10.063,0,19.013,5.909,22.789,13.76a1.4,1.4,0,0,1-1.276,1.987Z" transform="translate(133.419)" fill="#0068b6"/>
      <path id="パス_614" data-name="パス 614" d="M322.82.623h24.4a1.34,1.34,0,0,1,1.339,1.34V7.843a1.339,1.339,0,0,1-1.339,1.34H331.989a.785.785,0,0,0-.785.786v9.4a.785.785,0,0,0,.785.786h14.9a1.339,1.339,0,0,1,1.338,1.34V27.38a1.338,1.338,0,0,1-1.338,1.34h-14.9a.785.785,0,0,0-.785.786V39.629a.785.785,0,0,0,.785.786H347.22a1.34,1.34,0,0,1,1.339,1.34v5.881a1.339,1.339,0,0,1-1.339,1.34h-24.4a1.338,1.338,0,0,1-1.338-1.34V1.963A1.339,1.339,0,0,1,322.82.623" transform="translate(151.067 0.294)" fill="#0068b6"/>
      <path id="パス_615" data-name="パス 615" d="M242.464,71.358a1.24,1.24,0,0,1,1.239-1.241h13.641c4.715,0,8.149.944,10.572,2.7,3.638,2.226,5.052,6.135,5.052,10.114a11.235,11.235,0,0,1-6.329,10.451,12.375,12.375,0,0,1,9.088,12.34c-.066,4.922-2.221,9.1-6.06,11.4-3.5,2.426-6.463,2.9-12.59,2.9H243.7a1.24,1.24,0,0,1-1.239-1.241Zm7.945,18.835a.625.625,0,0,0,.626.626h5.906a12.1,12.1,0,0,0,5.051-.808c2.49-1.35,3.366-3.506,3.366-6.138a6.232,6.232,0,0,0-3.366-5.866,11.541,11.541,0,0,0-5.253-.876h-5.7a.625.625,0,0,0-.626.626Zm0,22.185a.625.625,0,0,0,.626.626h7.386a14.854,14.854,0,0,0,5.321-.808,7.647,7.647,0,0,0,0-13.824,14.209,14.209,0,0,0-5.993-.877h-6.715a.626.626,0,0,0-.626.627Z" transform="translate(113.936 33.097)" fill="#0068b6"/>
      <path id="パス_616" data-name="パス 616" d="M271.281,70.116h5.468a1.238,1.238,0,0,1,1.239,1.241v41.019a.625.625,0,0,0,.626.626h15.709a1.242,1.242,0,0,1,1.241,1.241v4.531a1.241,1.241,0,0,1-1.241,1.241h-23.1a1.177,1.177,0,0,1-1.177-1.179V71.357a1.24,1.24,0,0,1,1.238-1.241" transform="translate(126.896 33.096)" fill="#0068b6"/>
      <path id="パス_617" data-name="パス 617" d="M297.549,70.116a1.239,1.239,0,0,1,1.239,1.241v29.912c0,3.1,0,5.8,1.818,8.7a8.862,8.862,0,0,0,7.676,3.979,8.508,8.508,0,0,0,7.541-3.843c1.887-2.832,1.887-5.6,1.887-8.835V71.357a1.239,1.239,0,0,1,1.238-1.241h5.4a1.24,1.24,0,0,1,1.239,1.241v29.912c.068,6.609-1.01,11.666-5.386,15.308a17.157,17.157,0,0,1-11.852,4.382c-3.569,0-8.687-1.01-12.053-4.314-4.915-4.384-5.521-9.306-5.455-15.375V71.357a1.24,1.24,0,0,1,1.239-1.241Z" transform="translate(136.667 33.096)" fill="#0068b6"/>
      <path id="パス_618" data-name="パス 618" d="M322.177,70.116h25.4a1.239,1.239,0,0,1,1.239,1.241v4.531a1.24,1.24,0,0,1-1.239,1.241H329.508a.625.625,0,0,0-.625.626V90.663a.625.625,0,0,0,.625.626h17.8a1.241,1.241,0,0,1,1.239,1.242v4.463a1.241,1.241,0,0,1-1.239,1.241h-17.8a.625.625,0,0,0-.625.626v13.516a.625.625,0,0,0,.625.626h18.068a1.24,1.24,0,0,1,1.239,1.241v4.531a1.239,1.239,0,0,1-1.239,1.241h-25.4a1.239,1.239,0,0,1-1.239-1.241V71.357a1.239,1.239,0,0,1,1.239-1.241" transform="translate(150.812 33.096)" fill="#0068b6"/>
      <path id="パス_619" data-name="パス 619" d="M243.087,42.871h13.276a.623.623,0,0,1,.623.623v2.673a.623.623,0,0,1-.623.623h-9.14a.319.319,0,0,0-.319.319v7.5a.32.32,0,0,0,.319.319h8.99a.622.622,0,0,1,.622.623v2.633a.623.623,0,0,1-.622.624h-8.99a.319.319,0,0,0-.319.319v11a.624.624,0,0,1-.623.624h-3.194a.623.623,0,0,1-.622-.624V43.494a.621.621,0,0,1,.622-.623" transform="translate(113.937 20.236)" fill="#0068b6"/>
      <path id="パス_620" data-name="パス 620" d="M254.491,57.131a14.3,14.3,0,1,1,0,.037Zm4.4-.152a10.224,10.224,0,0,0,10.232,10.55c6.057,0,10.081-5.087,10.081-10.512,0-5.463-4.023-10.587-10.119-10.587a10.205,10.205,0,0,0-10.194,10.512Z" transform="translate(119.588 20.067)" fill="#0068b6"/>
      <path id="パス_621" data-name="パス 621" d="M276.751,43.491a.619.619,0,0,1,.619-.62h7.244c4.364,0,6.622.6,8.089,1.621a8.961,8.961,0,0,1,3.687,7.534,9.413,9.413,0,0,1-1.58,5.313,7.379,7.379,0,0,1-5.055,2.991.224.224,0,0,0-.148.339l5.768,9.129a.62.62,0,0,1-.522.952h-3.231a.618.618,0,0,1-.529-.3s-6.981-11.513-7.116-11.728.038-.556.244-.556h.394c1.92,0,4.251-.075,5.568-1.206A5.925,5.925,0,0,0,292.1,52.4a5.715,5.715,0,0,0-2.371-4.709,8.828,8.828,0,0,0-4.741-.9h-3.454a.345.345,0,0,0-.345.346V70.13a.62.62,0,0,1-.619.62h-3.2a.62.62,0,0,1-.619-.62Z" transform="translate(130.048 20.236)" fill="#0068b6"/>
      <path id="パス_622" data-name="パス 622" d="M303.757,46.79h-5.415a.636.636,0,0,1-.634-.637V43.508a.636.636,0,0,1,.634-.637H314.3a.637.637,0,0,1,.635.637v2.644a.637.637,0,0,1-.635.637h-5.411a.346.346,0,0,0-.347.347V70.112a.637.637,0,0,1-.637.637H304.74a.637.637,0,0,1-.637-.637V47.137a.347.347,0,0,0-.347-.347" transform="translate(139.896 20.236)" fill="#0068b6"/>
      <path id="パス_623" data-name="パス 623" d="M311.7,70.112v-26.6a.637.637,0,0,1,.637-.637h3.166a.637.637,0,0,1,.636.637V54.285a.339.339,0,0,0,.34.34H327.8a.339.339,0,0,0,.338-.34V43.508a.637.637,0,0,1,.636-.637h3.169a.636.636,0,0,1,.635.637v26.6a.636.636,0,0,1-.635.637h-3.169a.637.637,0,0,1-.636-.637V58.882a.34.34,0,0,0-.338-.34H316.483a.34.34,0,0,0-.34.34v11.23a.637.637,0,0,1-.636.637h-3.166a.637.637,0,0,1-.637-.637" transform="translate(146.473 20.236)" fill="#0068b6"/>
      <path id="パス_624" data-name="パス 624" d="M329.945,42.871h14.3a.637.637,0,0,1,.637.637v2.644a.637.637,0,0,1-.637.637H334.087a.34.34,0,0,0-.34.34v7.232a.34.34,0,0,0,.34.34H344.1a.636.636,0,0,1,.636.636v2.607a.636.636,0,0,1-.636.636H334.087a.34.34,0,0,0-.34.34v7.571a.34.34,0,0,0,.34.34h10.159a.637.637,0,0,1,.637.637v2.644a.637.637,0,0,1-.637.637h-14.3a.637.637,0,0,1-.637-.637v-26.6a.637.637,0,0,1,.637-.637" transform="translate(154.745 20.236)" fill="#0068b6"/>
    </g>
  </g>
</svg>
