<svg xmlns="http://www.w3.org/2000/svg" width="794.808" height="131.856" viewBox="0 0 794.808 131.856">
  <path id="パス_696" data-name="パス 696" d="M-398.888-10.808h2.072v-34.44h15.064v-1.96h-17.136Zm34.328,2.24c-1.232,1.68-2.016,2.464-3.472,2.464-1.512,0-2.632-2.52-2.016-4.928.952-3.584,5.544-6.832,11.536-7.728C-360.64-14.952-363.216-10.36-364.56-8.568Zm26.488-16.352a8.483,8.483,0,0,1,2.128.784,1.611,1.611,0,0,1,.9,1.736,17.1,17.1,0,0,1-.5,5.208A43.167,43.167,0,0,0-353.7-21.336h-.28l.112-.224a131.985,131.985,0,0,1,8.736-13.216c1.232-1.512,3.248-2.072,3.248-3.248,0-1.288-3.192-3.528-4.7-3.528-.9,0-1.176.9-3.136,1.512-2.016.616-7.616,2.24-9.912,2.24-1.624,0-2.184-1.4-3.024-2.912l-1.064.336a9.836,9.836,0,0,0,.336,2.968c.616,1.624,2.912,3.584,4.536,3.584,1.008,0,1.792-.9,2.744-1.288,2.128-.9,5.6-2.24,7.616-2.912.728-.224,1.008.056.56.952-1.344,2.576-6.384,10.64-9.016,15.456l-.28.5c-7.168,1.008-13.776,4.872-14.952,10.3-.784,3.976.952,8.736,4.088,8.736,2.576,0,4.2-1.4,5.936-3.92,1.624-2.24,4.48-8.344,6.944-13.048h.112a32.506,32.506,0,0,1,18.48,5.32c-2.8,7.448-9.184,13.1-18.088,15.848l.84,1.288c10.192-2.3,17.08-7.392,20.216-15.12,4.2,3.024,5.712,5.376,7.112,5.376A1.441,1.441,0,0,0-324.968-7.9a4.007,4.007,0,0,0-1.344-3.248,30.4,30.4,0,0,0-6.16-4.424c.448-1.96.784-3.976.952-5.04a29.126,29.126,0,0,0,.448-3.08c0-1.064-2.24-2.408-3.976-2.632a7.588,7.588,0,0,0-2.968.336Zm44.744-15.344c.728.5.9,1.288.168,2.688-2.016,3.7-10.472,17.584-15.344,26.04-2.912,5.04-5.1,8.512-5.1,10.528,0,1.568.9,2.576,1.9,2.576,1.064,0,1.624-.672,2.128-1.9.784-2.016,1.848-5.32,3.528-8.9,2.688-5.488,7.448-10.64,12.768-10.64,3.248,0,4.2,1.96,4.2,4.424,0,3.3-.5,6.72-.448,9.8,0,5.04,2.912,7.448,7.616,7.448,5.656,0,12.432-3.7,14.84-16.016l-1.232-.392c-2.464,6.608-6.72,12.768-12.936,12.768-3.248,0-4.648-1.624-4.648-4.648,0-2.576.28-5.936.224-8.568-.056-4.48-2.3-6.832-6.888-6.832-2.184,0-4.816.952-7.728,2.688-.448.28-.728,0-.448-.448a145.036,145.036,0,0,1,10.36-15.008c1.4-1.736,2.968-2.072,2.968-3.192,0-1.736-2.408-4.144-4.984-4.76a9.889,9.889,0,0,0-3.864-.28l-.336,1.12A11.562,11.562,0,0,1-293.328-40.264Zm48.44-2.3a16.228,16.228,0,0,1,2.632.9c.952.392,1.232.84,1.176,2.016a46.558,46.558,0,0,1-1.008,6.048,21.266,21.266,0,0,1-4.76.616c-3.864,0-5.1-1.232-7.5-3.248l-1.008.784c1.792,3.976,3.7,5.544,7.9,5.544a30.562,30.562,0,0,0,4.424-.336c-2.52,8.176-7.224,15.064-10.64,19.6a4.249,4.249,0,0,0-1.008,2.688c0,1.008.5,2.184,1.624,2.184,1.064,0,1.736-.9,2.52-2.016,4.592-6.664,8.624-16.968,10.584-23.016a38.922,38.922,0,0,0,8.848-2.856c.616-.336,1.9-1.12,1.9-2.128a1.909,1.909,0,0,0-2.072-1.68c-1.064,0-2.184,1.344-7.56,3.024,2.072-7.168,2.3-8.176,1.344-8.736a8.325,8.325,0,0,0-4.088-.952,10.509,10.509,0,0,0-3.3.672Zm18.2,35.784c0,3.3-1.232,5.992-6.608,5.992-4.088,0-5.992-1.568-5.992-3.528,0-2.016,2.688-4.144,7.784-4.144a26.066,26.066,0,0,1,4.816.448Zm1.792-25.648a10.807,10.807,0,0,1,6.44,1.68c.952.728,1.176,1.456,0,2.072-1.96.84-4.48,1.736-6.216,3.584a9.072,9.072,0,0,0-2.688,7c0,2.184.28,4.7.448,7.168-.784-.056-1.624-.112-2.52-.112-7.448,0-11.984,3.136-11.984,7.392,0,3.248,3.136,6.1,8.96,6.1,5.712,0,9.128-2.688,9.128-7.336,0-.672-.056-1.4-.112-2.24a22.364,22.364,0,0,1,7.9,5.1c1.232,1.12,1.9,2.072,2.968,2.072.9,0,1.4-.672,1.4-1.792,0-1.4-1.176-2.968-3.864-4.7a25.9,25.9,0,0,0-8.736-3.92c-.448-3.36-1.008-6.888-1.064-8.568-.056-2.016.168-3.808,1.4-5.04a8.646,8.646,0,0,1,5.208-2.184c2.408-.168,3.36.728,4.648.728,1.064,0,1.624-.728,1.624-2.016,0-2.24-1.736-4.424-5.152-5.712a15.865,15.865,0,0,0-7.728-.672Zm25.312-1.96a13.738,13.738,0,0,0,.224,2.576c.5,1.9,3.3,4.368,5.376,4.368,1.176,0,2.3-.9,3.416-1.4a118.264,118.264,0,0,1,17.584-5.712c.616-.168.672.168.28.5-6.328,4.984-8.4,12.376-8.4,18.984,0,6.328,1.848,9.688,5.376,12.264,3.808,2.912,9.352,3.136,12.6,3.136,2.52,0,4.032-.5,4.032-1.848,0-1.4-1.848-2.352-3.192-2.352-2.3,0-7.224.336-10.864-1.848-2.24-1.4-4.76-3.92-4.76-10.024,0-11.2,5.6-16.408,8.12-17.92,2.8-1.736,6.72-2.072,9.408-2.072,2.072,0,3.752.168,4.816.168,1.232,0,1.9-.672,1.9-1.456s-.448-1.4-1.68-1.96a11.4,11.4,0,0,0-3.976-.616c-1.9,0-6.272.784-12.712,2.3-9.24,2.128-20.048,5.376-22.96,5.376-1.232,0-2.744-1.344-3.528-2.8Zm39.648,3.7a28.322,28.322,0,0,1,5.208,4.48c1.176,1.4,1.736,2.688,2.632,2.688.84,0,1.288-.5,1.288-1.456,0-1.176-.56-2.24-2.072-3.472a22.485,22.485,0,0,0-6.328-3.248Zm-4.984,3.7a31.682,31.682,0,0,1,5.152,4.872c1.12,1.456,1.736,2.744,2.576,2.744a1.3,1.3,0,0,0,1.344-1.456c0-1.12-.56-2.072-1.9-3.36a21.285,21.285,0,0,0-6.384-3.752Zm37.352.336A38.453,38.453,0,0,0-118.5-37.184h26.152c.784,0,1.288-.28,1.456-.9-1.792-1.68-4.76-4.032-4.76-4.032l-2.576,3.248h-19.32c.84-1.624,1.68-3.3,2.408-5.1,1.12.056,1.848-.336,2.072-1.008l-5.6-1.96c-2.072,7.728-5.824,15.12-9.632,19.656ZM-138.04-45.864c2.3,1.736,5.208,4.76,6.1,7.28,3.92,2.3,6.384-5.544-5.544-7.784Zm-4.312,12.88c2.408,1.568,5.152,4.48,5.936,7,3.864,2.3,6.328-5.6-5.432-7.5Zm15.176-3.7c-9.464,22.064-9.464,22.064-10.36,24.024-.5,1.12-.672,1.12-1.4,1.12H-141.4V-10.3a4.983,4.983,0,0,1,2.744.84c1.288.84,1.512,5.264.784,11.032.168,1.736.728,2.8,1.736,2.8,1.848,0,2.912-1.456,3.024-3.864.224-4.592-1.4-7.28-1.4-9.744a18.165,18.165,0,0,1,.84-4.816c.784-2.632,5.264-15.512,7.56-22.344Zm17.248,29.512c.392-2.912.9-6.72,1.344-10.64h8.176a98.919,98.919,0,0,1-1.176,10.64Zm-2.016-10.64c-.5,3.864-1.064,7.672-1.512,10.64h-8.176c.616-3.416,1.232-7.112,1.848-10.64Zm1.4-11.928c-.28,2.968-.728,6.608-1.176,10.3H-119.5c.616-3.92,1.176-7.56,1.624-10.3Zm10.752,0c-.112,3.752-.28,7.168-.5,10.3h-8.12c.392-3.64.784-7.28,1.064-10.3Zm8.96,11.928c.784,0,1.288-.28,1.456-.9-1.68-1.68-4.368-3.92-4.368-3.92l-2.408,3.192h-.672c.168-2.968.336-6.272.448-9.856a3.39,3.39,0,0,0,2.3-.9l-4.144-3.528L-100.3-31.3h-16.576l-4.088-1.96c-.5,3.584-1.232,8.512-2.184,13.832h-7.392l.448,1.624h6.72c-1.008,5.768-2.184,11.816-3.248,16.688,2.072.448,3.024.336,3.864-.168q.42-1.932.84-4.2h20.048c-.5,2.408-1.12,4.032-1.792,4.648a2.665,2.665,0,0,1-2.184.728c-1.232,0-5.1-.392-7.448-.616V.336c2.128.336,4.312.84,5.152,1.456a2.887,2.887,0,0,1,1.008,2.464,8.1,8.1,0,0,0,6.16-2.352c1.064-1.176,1.96-3.64,2.632-7.392h7c.728,0,1.288-.28,1.4-.9-1.568-1.68-4.424-4.144-4.424-4.144l-2.408,3.36h-1.288c.448-2.912.84-6.44,1.12-10.64Zm28-28.56c2.184,2.408,4.76,6.44,5.432,9.52,3.864,2.912,7.056-5.1-4.816-9.968Zm-16.8.952c2.464,1.68,5.488,4.816,6.44,7.392,4.144,2.3,6.328-6.1-5.936-7.9ZM-84.28-32.368c2.408,1.512,5.376,4.312,6.272,6.72,4.088,2.24,6.16-5.88-5.768-7.28Zm16.352-5.04c-9.744,22.96-9.744,22.96-10.808,24.976-.448,1.064-.672,1.12-1.344,1.12h-2.464v1.232A4.975,4.975,0,0,1-79.8-9.3c1.176.84,1.512,5.208.784,10.864.112,1.736.728,2.744,1.792,2.744,1.9,0,2.968-1.456,3.024-3.808.224-4.536-1.344-7.112-1.344-9.576a20.11,20.11,0,0,1,.84-4.984c.728-2.688,5.376-15.96,7.84-23.072Zm28.28,26.1h-9.52V-21.9H-35.84a1.411,1.411,0,0,0,1.512-.9c-1.848-1.736-4.76-4.032-4.76-4.032l-2.632,3.248h-7.448v-9.912h14.9c.84,0,1.344-.28,1.456-.9-1.792-1.624-4.76-3.976-4.76-3.976l-2.688,3.3h-7a72.2,72.2,0,0,0,7.392-9.072c1.176,0,1.9-.448,2.128-1.064L-43.96-47.04a93.541,93.541,0,0,1-4.76,11.984H-66.752l.448,1.568h13.44v9.912h-13.16l.448,1.68h12.712v10.584h-16.3l.448,1.68h15.848V4.312h.616c1.848,0,3.08-.9,3.08-1.176V-9.632H-33.6a1.273,1.273,0,0,0,1.4-.9c-1.792-1.736-4.872-4.144-4.872-4.144Zm38.7-20.1a26.359,26.359,0,0,1-2.016,8.624c-2.3,5.32-7.448,14.168-11.144,14.168-2.3,0-4.76-4.088-4.76-9.464A18.02,18.02,0,0,1-13.1-31.024,21.3,21.3,0,0,1-2.52-36.568,9.774,9.774,0,0,1-.952-31.416ZM-1.9.224c18.312-1.176,24.136-10.7,24.136-19.992,0-11.592-8.9-19.152-20.44-19.152A24.211,24.211,0,0,0-14.56-32.928a21.511,21.511,0,0,0-7.448,15.736c0,6.888,3.92,12.824,7.672,12.824,5.712,0,12.208-10.864,14.56-17.584A28.071,28.071,0,0,0,1.96-30.968,10.45,10.45,0,0,0-.448-36.9c.672-.056,1.344-.112,2.016-.112,9.24,0,16.632,6.384,16.632,16.352,0,10.136-6.608,17.192-20.328,19.6ZM82.04-23.3c.784,0,1.4-.28,1.512-.9-2.016-1.792-5.264-4.312-5.264-4.312l-2.912,3.528h-15.4v-10.08H77.952c.784,0,1.344-.28,1.512-.9-1.96-1.792-5.04-4.144-5.04-4.144l-2.8,3.416H59.976v-8.064c1.4-.224,1.848-.784,1.96-1.568l-5.712-.672v10.3H37.408l.392,1.624H56.224v10.08H33.04l.448,1.68h19.6A62.94,62.94,0,0,1,32.144-.336L32.76.5A58.327,58.327,0,0,0,56.224-20.664V4.368h.728c1.456,0,3.024-.952,3.024-1.512V-23.3h.168C64.624-12.824,72.352-4.48,80.808.056A4.224,4.224,0,0,1,84.28-2.968l.112-.616A49.089,49.089,0,0,1,61.432-23.3Zm58.352,3.248c.784,0,1.344-.28,1.456-.9-2.016-1.848-5.264-4.312-5.264-4.312l-2.912,3.584H118.216V-36.4h19.712c.784,0,1.344-.28,1.456-.9-1.96-1.792-5.1-4.144-5.1-4.144l-2.8,3.416H118.216v-6.72c1.4-.224,1.848-.784,1.96-1.568l-5.712-.672v8.96H93.8l.5,1.624h20.16v14.728H91.112l.448,1.624h20.272A61.592,61.592,0,0,1,90.44.784l.616.9c9.688-4.424,17.92-10.976,23.408-18.648V4.368h.728c1.456,0,3.024-.952,3.024-1.512V-19.32A45.263,45.263,0,0,0,139.048.952a4.174,4.174,0,0,1,3.36-3.136l.112-.5c-8.736-2.968-18.2-9.576-23.408-17.36Zm-40.264-14.9c2.128,2.856,4.592,7.336,4.816,10.92,3.752,3.3,7.392-5.208-4.2-11.256Zm23.128,12.152a50.816,50.816,0,0,0,8.68-9.184,1.869,1.869,0,0,0,2.072-.84l-5.432-2.408a70.452,70.452,0,0,1-6.1,11.872Zm65.24-7.056a7.945,7.945,0,0,1,2.744,1.9c.784.9.672,1.4-.28,1.9-3.36,1.792-9.072,4.088-13.608,6.552-.56-4.2-2.688-6.608-6.216-6.608a14.2,14.2,0,0,0-6.16,1.9c-.392.224-.56-.056-.336-.336a66.5,66.5,0,0,0,5.376-7.9,65.6,65.6,0,0,0,13.5-4.144c1.064-.5,1.568-1.008,1.568-1.736,0-1.064-1.176-1.512-2.408-1.512-.84,0-1.232.5-3.584,1.568a55.187,55.187,0,0,1-7.28,2.408c.672-1.4,1.4-2.8,1.792-3.7.616-1.232,1.064-1.624,1.064-2.408,0-1.344-3.64-2.3-5.376-2.3a11.985,11.985,0,0,0-3.192.56v1.064a11.024,11.024,0,0,1,3.136.784c1.12.448,1.288.84,1.008,1.848a21.911,21.911,0,0,1-1.848,4.928,27.162,27.162,0,0,1-4.984.56c-4.144,0-5.1-1.176-7.336-3.528L154.9-37.3c2.24,4.424,3.192,5.656,7.784,5.656a34.079,34.079,0,0,0,4.032-.28,54.02,54.02,0,0,1-7.84,10.248c-2.52,2.688-4.592,4.088-4.592,5.6,0,1.4.784,2.24,1.9,2.24,1.344-.056,2.912-2.688,4.872-4.816,2.352-2.464,6.048-5.6,9.184-5.6,2.912,0,3.976,1.736,4.2,6.5-6.552,4.144-11.648,8.624-11.648,13.048s3.416,7.672,13.832,7.672a61.086,61.086,0,0,0,12.544-1.512c1.792-.5,2.072-1.232,2.072-2.072,0-1.064-1.008-1.736-2.968-1.736-2.688,0-5.936,1.736-14.224,1.736-5.32,0-8.9-1.344-8.9-4.48,0-3.3,3.92-6.888,9.352-9.968-.056,3.024-.28,6.048-.28,7.392,0,1.512.9,2.128,1.848,2.128,1.12,0,1.736-.84,1.736-2.184,0-1.792,0-5.88-.168-9.072a108.039,108.039,0,0,1,15.96-6.328c2.184-.672,2.744-.84,2.744-1.848,0-1.568-1.624-3.416-3.024-4.368a9.452,9.452,0,0,0-4.144-1.512Zm37.352-7.56c-1.4,9.408-5.88,14.952-17.024,18.928l.28.84c13.16-3.136,19.152-8.736,21.056-19.768h7v12.6c0,2.744.784,3.64,5.04,3.64h5.768c8.456,0,10.08-.672,10.08-2.3,0-.728-.28-1.176-1.512-1.624l-.168-6.216h-.728a31.022,31.022,0,0,1-1.624,6.048c-.224.5-.392.616-1.008.672-.784.056-2.632.056-4.872.056h-5.152c-1.96,0-2.184-.168-2.184-.952V-37.408h10.864a76.269,76.269,0,0,1-3.976,7.168l.728.392a48,48,0,0,0,8.064-6.888c1.064-.056,1.792-.112,2.128-.56l-4.424-4.256-2.464,2.464H234.864v-5.88c1.288-.168,1.848-.728,1.96-1.456l-5.712-.616v7.952H215.264a21.556,21.556,0,0,0-.672-3.416h-1.008c.224,4.256-1.792,8.344-3.976,9.912-1.176.784-1.848,2.016-1.232,3.136.728,1.232,2.744.952,4.088-.224,1.512-1.232,2.968-3.864,2.912-7.728ZM250.824.392h-15.96V-13.552H253.12a1.34,1.34,0,0,0,1.456-.9c-1.848-1.736-4.928-4.032-4.928-4.032l-2.632,3.248H212.688l.5,1.68h17.92V.392h-23.52l.5,1.624h49.112c.784,0,1.288-.224,1.4-.84-1.848-1.848-4.984-4.312-4.984-4.312Zm58.464-42.224v6.1H295.68v-6.1ZM295.68-27.888V-34.1h13.608v6.216Zm0,8.008v-6.384h13.608v6.384Zm0,1.624h13.608v3.248h.56c1.232,0,3.024-.9,3.08-1.288V-41.1a5.047,5.047,0,0,0,2.408-1.176L310.8-45.752l-2.072,2.24H295.96l-3.808-1.736V-14.5h.56c1.512,0,2.968-.84,2.968-1.288ZM285.88-14c3.024,1.848,6.608,5.432,7.56,8.512,4.032,2.3,5.936-6.384-7-9.072Zm-12.04,2.856a12.754,12.754,0,0,1-6.552,8.9c-1.12.728-1.848,1.848-1.4,2.968.672,1.232,2.688,1.008,4.2.056,2.352-1.512,5.488-5.544,4.7-11.816Zm6.5-19.768c2.352,1.9,4.928,4.928,5.768,7.336,3.64,2.352,6.1-5.04-5.768-8.344v-4.2h8.848c.784,0,1.344-.28,1.512-.9-1.792-1.68-4.592-3.976-4.592-3.976l-2.464,3.248h-3.3V-45.08c1.4-.224,1.9-.728,2.016-1.512l-5.544-.616v9.464H265.776l.392,1.624h9.3a45.268,45.268,0,0,1-10.416,18.088l.728.84a39.638,39.638,0,0,0,11.032-12.656V-14.28h.728c1.288,0,2.8-.84,2.8-1.344ZM303.968-7.28h-.728a34.951,34.951,0,0,1-1.68,6.16c-.28.56-.5.672-1.232.728-.952.112-3.472.112-6.776.112h-7.168c-2.52,0-2.8-.168-2.8-.952v-9.24a1.761,1.761,0,0,0,1.624-1.344l-5.264-.56V-.616c0,2.856.952,3.584,5.88,3.584H293.5c10.36,0,12.264-.616,12.264-2.3,0-.728-.392-1.12-1.68-1.512Zm-.168-3.808c3.752,2.744,8.176,7.56,9.24,11.536,4.48,2.912,6.944-7.224-8.624-12.1Zm33.376-28.224c.952.56,1.288,1.176,1.288,3.192,0,3.248-1.344,16.408-1.344,25.088,0,9.576,3.864,13.216,11.368,13.216,9.912,0,18.312-6.1,22.456-14.9l-1.232-.84C365.96-7.616,358.12-1.568,348.488-1.568c-6.16,0-8.232-2.688-8.232-9.8A147.714,147.714,0,0,1,342.1-33.32c.5-2.632,1.568-3.024,1.568-4.2,0-1.568-3.864-4.424-6.5-4.536a15.519,15.519,0,0,0-3.64.392v1.176A11.119,11.119,0,0,1,337.176-39.312ZM381.864-8.736A25.886,25.886,0,0,1,390.936,1.9c.784,1.68,1.512,2.352,2.688,2.352a2.242,2.242,0,0,0,2.3-2.52,6.164,6.164,0,0,0-1.344-3.752C392.728-4.7,389.2-7.56,382.48-9.688Zm-652.512,87.56c-4.2,0-6.272-1.568-6.272-3.528,0-2.688,3.92-4.7,9.3-4.7a33.854,33.854,0,0,1,5.432.448C-262.248,76.36-263.76,78.824-270.648,78.824Zm10.528-26.768a10.228,10.228,0,0,0,3.752,1.064,39.673,39.673,0,0,0,9.856-1.512c1.456-.448,2.072-1.12,2.072-1.792,0-1.232-1.064-1.96-3.248-1.96-.784,0-1.792.672-3.528,1.232a30.866,30.866,0,0,1-7.224,1.12c-.392,0-1.008,0-1.624-.056a43.777,43.777,0,0,1,.728-6.72c.448-1.68,1.12-2.128,1.12-3.416,0-1.344-3.472-3.192-6.384-3.192a12.7,12.7,0,0,0-4.144.84l.112,1.176a17.414,17.414,0,0,1,3.92.56,1.961,1.961,0,0,1,1.512,2.016c.112,1.12.168,7.336.224,10.976,0,3.808.5,11.536.672,15.792-1.12-.112-2.352-.168-3.64-.168-6.72,0-13.216,2.352-13.216,7.56,0,3.976,4.088,6.5,9.912,6.5,6.832,0,10.36-3.136,10.36-7.84,0-.952-.056-1.736-.112-2.464a23.544,23.544,0,0,1,5.432,2.24c5.376,3.024,7.168,6.216,8.848,6.216A1.475,1.475,0,0,0-243.1,78.6c0-2.912-4.76-5.824-8.232-7.392a33.227,33.227,0,0,0-8.064-2.576c-.056-.448-.112-.952-.168-1.456-.336-4.424-.56-11.816-.56-14.392Zm47.152-9.744c0,3.024-2.688,13.832-2.688,19.88a15.628,15.628,0,0,0,.84,5.208,1.977,1.977,0,0,0,1.96,1.4,1.6,1.6,0,0,0,1.568-1.792c0-1.848-.336-3.472-.336-5.712a22.526,22.526,0,0,1,2.912-10.7c1.96-3.752,5.488-6.272,8.12-6.272,3.92,0,6.44,5.432,6.44,14.56,0,10.024-3.3,18.536-16.856,23.968l.616,1.288c15.008-3.92,20.16-13.272,20.16-24.864,0-9.968-3.08-17.192-9.8-17.192-3.64,0-7.56,3.36-10.192,8.008-.616,1.12-1.064,1.064-.84-.112a44.673,44.673,0,0,1,1.288-5.656,13.087,13.087,0,0,0,.728-3.3c0-1.232-1.624-3.752-3.7-5.152a8.521,8.521,0,0,0-2.688-1.232l-.728.728C-213.808,38.056-212.968,39.4-212.968,42.312Zm55.44,9.408h24.7v7.952h-24.7Zm24.7-9.464V50.1h-24.7v-7.84Zm5.432,19.376a103.908,103.908,0,0,1-12.6,9.3,26.977,26.977,0,0,1-6.44-9.632h13.608v1.9h.56c1.288,0,3.08-.9,3.136-1.288V42.984a4.592,4.592,0,0,0,2.408-1.12l-4.592-3.472-2.072,2.24h-10.3V34.976c1.176-.224,1.68-.728,1.792-1.456l-5.544-.56v7.672h-9.464l-4.368-1.848V78.376c-3.416.616-6.16,1.12-8.008,1.344l2.464,4.76a2.232,2.232,0,0,0,1.288-1.288c10.192-3.024,17.584-5.6,22.9-7.448l-.168-.9c-5.208,1.064-10.3,2.016-14.728,2.856V61.3h9.912c3.752,12.712,11.872,19.376,24.7,22.96a4.3,4.3,0,0,1,3.416-3.3l.112-.616c-8.008-1.512-14.728-4.2-19.712-8.568a118,118,0,0,0,14.112-6.5c1.12.392,1.68.28,2.072-.28Zm20.944-1.288c.168,10.7,5.992,15.568,10.36,17.472,2.3.952,3.808.056,3.808-1.456,0-1.176-.9-1.456-.392-3.976.336-1.736,2.128-6.44,3.416-10.136l-1.456-.672a91.423,91.423,0,0,1-5.264,10.248,1.32,1.32,0,0,1-1.96.392c-2.352-1.232-5.6-4.872-5.6-11.984,0-5.768,1.9-9.3,1.9-11.76,0-2.3-2.912-4.816-4.928-5.768a15.464,15.464,0,0,0-3.528-.9l-.5.9c3.976,2.8,4.368,4.2,4.368,7.224C-106.232,52.448-106.568,56.312-106.456,60.344Zm35-5.04c2.352,3.976,2.8,8.736,3.192,11.2.224,1.288.9,1.96,1.792,1.96,1.512,0,2.24-.952,2.24-3.136,0-3.752-1.68-9.3-4.872-12.6a17.413,17.413,0,0,0-10.528-5.544l-.5,1.344A16.212,16.212,0,0,1-71.456,55.3ZM-5.32,56.7c.784,0,1.4-.28,1.512-.9C-5.824,54.016-9.072,51.5-9.072,51.5l-2.912,3.528h-15.4V44.944H-9.408c.784,0,1.344-.28,1.512-.9-1.96-1.792-5.04-4.144-5.04-4.144l-2.8,3.416H-27.384V35.256c1.4-.224,1.848-.784,1.96-1.568l-5.712-.672v10.3H-49.952l.392,1.624h18.424v10.08H-54.32l.448,1.68h19.6a62.94,62.94,0,0,1-20.944,22.96l.616.84A58.327,58.327,0,0,0-31.136,59.336V84.368h.728c1.456,0,3.024-.952,3.024-1.512V56.7h.168c4.48,10.472,12.208,18.816,20.664,23.352A4.224,4.224,0,0,1-3.08,77.032l.112-.616A49.089,49.089,0,0,1-25.928,56.7Zm58.352,3.248c.784,0,1.344-.28,1.456-.9-2.016-1.848-5.264-4.312-5.264-4.312l-2.912,3.584H30.856V43.6H50.568c.784,0,1.344-.28,1.456-.9-1.96-1.792-5.1-4.144-5.1-4.144l-2.8,3.416H30.856v-6.72c1.4-.224,1.848-.784,1.96-1.568L27.1,33.016v8.96H6.44l.5,1.624H27.1V58.328H3.752L4.2,59.952H24.472A61.592,61.592,0,0,1,3.08,80.784l.616.9C13.384,77.256,21.616,70.7,27.1,63.032V84.368h.728c1.456,0,3.024-.952,3.024-1.512V60.68A45.263,45.263,0,0,0,51.688,80.952a4.174,4.174,0,0,1,3.36-3.136l.112-.5c-8.736-2.968-18.2-9.576-23.408-17.36Zm-40.264-14.9c2.128,2.856,4.592,7.336,4.816,10.92,3.752,3.3,7.392-5.208-4.2-11.256ZM35.9,57.208a50.817,50.817,0,0,0,8.68-9.184,1.869,1.869,0,0,0,2.072-.84l-5.432-2.408a70.451,70.451,0,0,1-6.1,11.872Zm65.24-7.056a7.945,7.945,0,0,1,2.744,1.9c.784.9.672,1.4-.28,1.9-3.36,1.792-9.072,4.088-13.608,6.552-.56-4.2-2.688-6.608-6.216-6.608a14.2,14.2,0,0,0-6.16,1.9c-.392.224-.56-.056-.336-.336a66.5,66.5,0,0,0,5.376-7.9,65.6,65.6,0,0,0,13.5-4.144c1.064-.5,1.568-1.008,1.568-1.736,0-1.064-1.176-1.512-2.408-1.512-.84,0-1.232.5-3.584,1.568a55.187,55.187,0,0,1-7.28,2.408c.672-1.4,1.4-2.8,1.792-3.7.616-1.232,1.064-1.624,1.064-2.408,0-1.344-3.64-2.3-5.376-2.3a11.985,11.985,0,0,0-3.192.56v1.064a11.024,11.024,0,0,1,3.136.784c1.12.448,1.288.84,1.008,1.848a21.911,21.911,0,0,1-1.848,4.928,27.162,27.162,0,0,1-4.984.56c-4.144,0-5.1-1.176-7.336-3.528l-1.176.728c2.24,4.424,3.192,5.656,7.784,5.656a34.079,34.079,0,0,0,4.032-.28,54.021,54.021,0,0,1-7.84,10.248c-2.52,2.688-4.592,4.088-4.592,5.6,0,1.4.784,2.24,1.9,2.24,1.344-.056,2.912-2.688,4.872-4.816,2.352-2.464,6.048-5.6,9.184-5.6,2.912,0,3.976,1.736,4.2,6.5C80.528,66.392,75.432,70.872,75.432,75.3s3.416,7.672,13.832,7.672a61.086,61.086,0,0,0,12.544-1.512c1.792-.5,2.072-1.232,2.072-2.072,0-1.064-1.008-1.736-2.968-1.736-2.688,0-5.936,1.736-14.224,1.736-5.32,0-8.9-1.344-8.9-4.48,0-3.3,3.92-6.888,9.352-9.968-.056,3.024-.28,6.048-.28,7.392,0,1.512.9,2.128,1.848,2.128,1.12,0,1.736-.84,1.736-2.184,0-1.792,0-5.88-.168-9.072a108.04,108.04,0,0,1,15.96-6.328c2.184-.672,2.744-.84,2.744-1.848,0-1.568-1.624-3.416-3.024-4.368a9.452,9.452,0,0,0-4.144-1.512Zm28.952-3.808h14.784c.784,0,1.288-.28,1.456-.9-1.624-1.512-4.2-3.528-4.2-3.528l-2.3,2.8H129.92a52.1,52.1,0,0,0,7.336-8.568c5.432,2.968,9.464,7,11.088,10.248,3.7,2.184,6.888-6.216-10.528-10.864,1.4-.056,1.96-.392,2.184-1.008l-5.936-1.68a51.748,51.748,0,0,1-14.84,18.536l.616.672a44.182,44.182,0,0,0,9.856-7.112Zm-.728,16.24c.112-1.512.112-2.912.112-4.256V58.1h15.96v4.48Zm16.072-10.472V56.48h-15.96V52.112Zm.112,18.424v8.12H131.152v-8.12Zm-.672-20.048H130.144L126,48.7v9.688c0,7.672-.784,16.24-6.44,23.408l.672.616a23.238,23.238,0,0,0,7.5-10.976v12.88h.56c1.736,0,2.856-.9,2.856-1.176v-2.8h14.392v3.192h.5c1.176,0,2.968-.784,3.024-1.12V71.1a3.807,3.807,0,0,0,2.184-1.064l-4.312-3.192-1.9,2.072H131.88l-3.136-1.344a24.862,24.862,0,0,0,.448-3.416h16.24v1.792h.56a4.95,4.95,0,0,0,2.968-1.12V52.84a5.338,5.338,0,0,0,2.408-1.176l-4.48-3.36Zm13.72-10.416c1.344-.168,1.848-.728,2.016-1.512L155.176,38V73.056h.672c1.288,0,2.744-.672,2.744-1.232Zm6.5-5.936V78.712c0,.84-.28,1.176-1.232,1.176-1.12,0-6.384-.448-6.384-.448v.952c2.352.28,3.7.728,4.424,1.344a3.865,3.865,0,0,1,1.176,2.632c4.928-.5,5.544-2.352,5.544-5.32V36.208c1.344-.168,1.9-.672,2.072-1.456Zm38.864,44.3c-5.432,0-7.84-1.736-7.84-3.7,0-1.792,1.512-2.968,3.472-2.968,3.192,0,5.936,2.24,6.664,6.552C205.52,78.376,204.736,78.432,203.952,78.432ZM191.8,38.84a7.44,7.44,0,0,0-.056,3.136c.448,1.624,2.52,4.032,4.648,4.032.9,0,1.68-.84,2.744-1.288a91.823,91.823,0,0,1,9.072-3.08c.672-.112,1.008.112.5.952-2.352,3.752-12.488,13.384-21.28,22.568-1.288,1.288-1.792,2.072-1.848,3.08-.056,1.4.784,2.24,1.456,2.24.84.056,1.288-.28,2.128-1.344,4.7-6.048,10.36-11.088,18.424-11.088,6.888,0,10.64,4.928,10.472,9.856-.112,4.368-2.912,8.288-8.512,9.856a9.113,9.113,0,0,0-9.128-8.064c-3.64,0-6.272,2.3-6.272,5.264,0,4.032,4.256,6.552,10.528,6.552,10.584,0,16.856-5.768,16.968-12.768C221.816,60.96,215.6,56.2,208.32,56.2a27.661,27.661,0,0,0-9.632,1.96c-.448.224-.672-.224-.28-.56,2.52-2.8,9.968-10.024,12.824-12.376,1.96-1.736,3.248-1.792,3.248-2.856,0-1.512-3.08-3.864-4.76-3.864-.784,0-.952.56-2.184.952-2.52.728-9.576,2.52-11.816,2.52-1.456,0-2.184-1.68-2.912-3.3Zm61.488,9.408h-2.072v34.44H236.152v1.96h17.136Z" transform="translate(398.888 47.208)" fill="#0068b6"/>
</svg>
