<svg id="グループ_746" data-name="グループ 746" xmlns="http://www.w3.org/2000/svg" xmlns:xlink="http://www.w3.org/1999/xlink" width="340" height="167" viewBox="0 0 340 167">
  <defs>
    <clipPath id="clip-path">
      <rect id="長方形_537" data-name="長方形 537" width="280" height="106.75" fill="none"/>
    </clipPath>
  </defs>
  <rect id="長方形_557" data-name="長方形 557" width="340" height="167" fill="#fff"/>
  <g id="グループ_736" data-name="グループ 736" transform="translate(20 20)">
    <g id="グループ_706" data-name="グループ 706" transform="translate(10 10)" clip-path="url(#clip-path)">
      <path id="パス_556" data-name="パス 556" d="M3.056,1.6A.818.818,0,0,0,2.7,1.582a.165.165,0,0,0-.115.142.25.25,0,0,1-.118.058c-.074.012-.119.148-.143.2a1.192,1.192,0,0,1-.08.135l-.157.2s-.04.048-.03.086a.316.316,0,0,1-.05.177c-.021.029-.234.358-.269.435s-.214.551-.233.6a3.7,3.7,0,0,0-.112.417C1.363,4.144.913,5.919.913,6.058s-.049.218-.072.673-.051.644-.068.78S.595,10.781.611,10.975s0,.309.012.429.015.307.015.5.034,3.414.029,3.535-.2.272.041.413c0,0,.045.017.045.11s-.082.168-.032.2a.082.082,0,0,1,.011.125c-.034.046-.046.1.021.141s.02.129,0,.182-.032.12.012.153a.69.69,0,0,1,0,.438c-.058.125-.108.372-.044.449s.011.109-.023.138-.171.1-.031.332a.716.716,0,0,1,0,.467.054.054,0,0,0,0,.1c.065.061-.029.173-.029.23s.029.055,0,.1-.2.131-.006.317c0,0-.021.2-.021.237s-.227.2-.016.206A.391.391,0,0,1,.554,20c-.047.086-.1.118-.04.152a.107.107,0,0,1,.028.151c-.073.1-.093.186-.035.219s-.014.108-.014.108a.1.1,0,0,0,.049.175,1.549,1.549,0,0,1,0,.255C.514,21.2.4,23.226.395,23.371S.229,25.477.241,25.681s-.012.228-.012.228S.3,26,.222,26.059L.2,26.24.115,27.682s.087.133.04.207-.114.175-.012.185l.012.481-.012.076s-.161.112.03.152l-.017.077s-.193.119.021.186c0,0,0,.166-.06.187s.057,3.111.057,3.111a28.658,28.658,0,0,0,.549,4.328s0,.13.074.14c0,0,.033.175.046.26s.316,1.4.472,1.848V39.1s-.04.113.1.286a1.431,1.431,0,0,1,.079.4.976.976,0,0,0,.12.532.613.613,0,0,1,.153.321c.018.138-.058.167.085.2,0,0,.044.334.044.516a.8.8,0,0,0,.155.542c.124.138.04.372.2.589a2.056,2.056,0,0,1,.271.528c.09.181.388.877.484,1a.352.352,0,0,1,.1.2.377.377,0,0,0,.05.155c.047.053.275.349.33.411s.022.149.124.225-.018.2.118.22c0,0,0,.09.065.1a.209.209,0,0,1,.1.041l.119.2c.021.034-.046.194.121.206a2.866,2.866,0,0,0,.162.336,1.584,1.584,0,0,0,.141.177c.035.035.021.178.077.178s.055.094.055.094a5.82,5.82,0,0,0,.672,1.006c.207.168.087.1.087.1s.016.177.152.208c0,0,.013.056.024.09a2.675,2.675,0,0,0,.222.26s.087,0,.087.141c0,0,.458.58.593.762A19.733,19.733,0,0,0,8.4,51.3s.1.075.1.139.171.135.171.135.1-.109.12.039a.251.251,0,0,0,.1.2l.1.039a4.37,4.37,0,0,0,.42.31c.06.018.149.065.156.128s.073.07.148.1a.4.4,0,0,1,.138.149.538.538,0,0,0,.208.123,2.048,2.048,0,0,1,.412.27c.058.044.087.03.1.081s.011.109.043.109a2.246,2.246,0,0,1,.319.119,2.3,2.3,0,0,1,.427.283c.053.078.186.067.24.1a.4.4,0,0,1,.13.112,4.328,4.328,0,0,0,.454.282,4.442,4.442,0,0,0,.47.173,1.879,1.879,0,0,1,.406.2.334.334,0,0,0,.221.109s.059.046.108.092a.783.783,0,0,0,.221.071,1.261,1.261,0,0,1,.421.167c.1.085.157.174.27.151s.205-.04.244.023.258.063.283.063.044.072.107.1a.166.166,0,0,0,.124-.01,1.283,1.283,0,0,0,.339.107c.185.038.263.038.281.094s.129.021.2.041.7.218.922.263.883.2,1.029.25a4.139,4.139,0,0,0,.488.052c.068.012.2.112.308.145s.113-.085.161-.066a.892.892,0,0,1,.155.066c.078.033,1.287.095,1.7.119a2.516,2.516,0,0,1,.69.088.272.272,0,0,0,.177.041c.12,0,.548.025.548.025s.035.161.245.02h.078c.074,0,.414.012.456.02a.264.264,0,0,0,.242.011h.177c.042,0,1.06-.051,1.233-.061l2.1-.177a8.893,8.893,0,0,0,1.16-.165,30.782,30.782,0,0,0,4.185-1.373s.107-.09.176-.047.279-.138.672-.3a.316.316,0,0,1,.2-.023c.1.023.228-.174.25-.3s.179,0,.246-.031a3.205,3.205,0,0,0,.373-.328s.18-.086.3-.151a7.027,7.027,0,0,0,.8-.674s.288-.114.288-.241L37.759,50.4s.021-.172.152-.153.461-.435.524-.435.607-.372.653-.654a6.938,6.938,0,0,1,.48-.541,43.731,43.731,0,0,0,3.2-4.263,2.179,2.179,0,0,0,.277-.506,9.363,9.363,0,0,1,.59-.821.468.468,0,0,1,.133-.223c.063-.039,1.127-2.549,1.325-3.077s1.066-2.964,1.131-3.381.11-.308.132-.325.452-1.18.527-1.4.517-2.393.517-2.393a1.16,1.16,0,0,0,.11-.158c.062-.1,0-.413.044-.5s.11-.265.11-.265a1,1,0,0,1,0-.279c.018-.089.412-2.343.454-2.446s.088-.438.133-.639.433-3.4.475-3.515a1,1,0,0,0,.09-.28c.022-.129.156-2.835.214-3.275s.246-1.806.286-2.03a.842.842,0,0,1,.106-.3c.011-.025,0-.06,0-.117,0-.022.046-.041.046-.065s-.035-.066-.031-.095a1.587,1.587,0,0,1,.054-.381c.034-.113.152-.465.152-.465s.021-.225.044-.386.237-1.067.306-1.334.108-.542.15-.631a.317.317,0,0,0,.1-.155c.026-.1-.073-.146-.033-.211a.99.99,0,0,0,.087-.2c.044-.087,0-.106.023-.221a4.368,4.368,0,0,0,.175-.637,2.216,2.216,0,0,1,.045-.518c.047-.163.1-.435.215-.525s.023-.151.065-.284.068-.672.106-.76a.974.974,0,0,0,.157-.439,5.766,5.766,0,0,1,.018-.852c.044-.132.154-.215.154-.279a.993.993,0,0,1,0-.4,13.718,13.718,0,0,0,.2-1.553,11.056,11.056,0,0,0,.017-1.68c-.046-.367-.084-.609-.084-.609a1.057,1.057,0,0,1-.068-.177c-.044-.179-.084-.412-.115-.478a7.972,7.972,0,0,0-.339-.983c-.086-.132-.346-.65-.393-.76S50.2,3.069,50.179,3c0,0,0-.114-.059-.153a.49.49,0,0,1-.1-.06c-.03-.024-.2-.163-.3-.226a.6.6,0,0,0-.31-.084s-.33-.109-.567.328a2.622,2.622,0,0,0,.066,1.1,5.223,5.223,0,0,1,.132.887.107.107,0,0,1-.011.061.169.169,0,0,0,.026.253s.068.048-.016.121-.063.118-.054.164-.009.119-.136.175-.119.044-.261-.016-.333-.325-.447-.488-.04-.209-.067-.328a.64.64,0,0,0-.164-.286.3.3,0,0,1-.133-.159c-.035-.093-.378-.77-.47-.94a.932.932,0,0,1-.148-.334c-.016-.072-.062-.083-.079-.117s-.447-.688-.513-.75a1.491,1.491,0,0,1-.238-.362.7.7,0,0,0-.139-.19c-.026-.042-.733-.73-.793-.778s-.054-.068-.081-.085S44.871.431,44.8.391a1.165,1.165,0,0,0-.416-.077.719.719,0,0,0-.536.2S43.772.6,43.8.932a.25.25,0,0,0-.007.153c.04.072.12.333.153.4a2.649,2.649,0,0,1,.154.26,2.609,2.609,0,0,1,.068.393c0,.114.029.114.041.129a1.239,1.239,0,0,1,.232.32c.094.181.205.606.26.731s.216.4.273.532a4.464,4.464,0,0,1,.224.722c0,.145.07.535.058.628s.012.219-.221.263a.388.388,0,0,1-.364-.074A8.663,8.663,0,0,1,44,4.77c-.063-.094-.622-.625-.681-.691s-.335-.408-.448-.518-.58-.551-.681-.656-.4-.458-.434-.514,0-.055-.21-.185-.128-.174-.192-.242a3.536,3.536,0,0,0-.517-.466c-.2-.11-.425-.293-.472-.318s-.043-.111-.07-.124-.081-.024-.108-.056S40.133.927,40.1.891a.373.373,0,0,0-.143-.075c-.03-.014-.117,0-.167-.021a2.933,2.933,0,0,1-.224-.2A.931.931,0,0,0,39.44.538c-.052-.011-.163-.123-.268-.129a.8.8,0,0,0-.5.027c-.217.1-.226.126-.226.126a.691.691,0,0,1-.108.03c-.019.01-.009.116-.034.15s-.108.092-.049.162-.015.114-.05.132a.289.289,0,0,0-.107.2.852.852,0,0,0,.181.266c.064.1,0,.1.05.166s.55.766.589.853a5.236,5.236,0,0,0,.348.485c.107.12.316.377.345.4s.053.1.09.144.095.04.14.106.033.141.07.191.052.033.114.052a.406.406,0,0,1,.2.152c.048.07.364.489.436.6s.163.306.2.361.146.026.146.176a1.107,1.107,0,0,0,.13.153c.042.033.094.144.132.182s.2.28.273.35a.55.55,0,0,1,.125.25c.042.109.131.333.164.412a1.7,1.7,0,0,1,.028.489.314.314,0,0,1-.236.231c-.112.009-.278-.115-.33-.116a.308.308,0,0,1-.143,0C41.1,7.122,41.1,7,41.061,6.975s-.161-.022-.219-.041-.172-.151-.206-.188a4.7,4.7,0,0,1-.395-.334c-.035-.051-.035-.1-.092-.146s-.054-.123-.1-.151a1.114,1.114,0,0,0-.169-.07.55.55,0,0,1-.114-.158,1.95,1.95,0,0,0-.27-.3c-.039-.027-.214-.218-.25-.252s-.436-.381-.482-.43-.02-.067-.066-.1-.086-.026-.115-.043a1.147,1.147,0,0,1-.189-.182c-.024-.037-.04-.1-.086-.124a.241.241,0,0,0-.133-.035c-.074,0-.148-.084-.176-.112a2.369,2.369,0,0,0-.221-.192c-.025-.022-.025-.076-.059-.124s-.148-.07-.148-.07-.444-.23-.49-.264l-.13-.109c-.032-.027-.075-.021-.115-.036a2.518,2.518,0,0,1-.311-.221.806.806,0,0,0-.228-.059,2.192,2.192,0,0,1-.288-.056.391.391,0,0,0-.346.066.8.8,0,0,0-.234.233,1.946,1.946,0,0,1-.086.2c-.019.027-.1.134-.051.2s.035.129.051.186c0,.056.04.354.054.44s.058.119.058.144a.293.293,0,0,0,.065.168c.04.056.335.475.414.564s.257.374.356.473.155.154.15.177a.194.194,0,0,0,.085.148c.038.014.068.066.091.1s.056.022.1.059.094.189.141.236a.519.519,0,0,1,.111.162c.016.042.217.207.261.264s.046.17.071.211a.2.2,0,0,0,.132.123.394.394,0,0,1,.144.1c.04.045.04.132.071.173a1.958,1.958,0,0,0,.292.359c.111.1.35.457.432.547s.024.129.07.163a.32.32,0,0,1,.1.079,1.8,1.8,0,0,1,.248.451,1,1,0,0,1,.028.473,1.239,1.239,0,0,1-.215.257.248.248,0,0,1-.181.068,1.02,1.02,0,0,1-.269,0,.485.485,0,0,1-.11-.055c-.047-.026-.3-.041-.364-.063s-.627-.265-.687-.3-.2-.036-.3-.068-.527-.287-.614-.31a4.747,4.747,0,0,0-.638-.2,1.263,1.263,0,0,0-.462,0,.835.835,0,0,0-.26.145c-.034.036-.115.161-.133.182a.226.226,0,0,1-.1.043c-.033,0-.08.1-.085.177s-.047.178-.049.239a.942.942,0,0,0,.054.329.676.676,0,0,1,.091.273.505.505,0,0,0,.046.223.7.7,0,0,0,.118.148c.046.042.279.421.346.5a.4.4,0,0,1,.081.153,3.055,3.055,0,0,0,.316.335,6.784,6.784,0,0,1,.606.617c.085.106.18.209.228.268s.573.518.732.663.741.64.874.76.479.559.591.688a9.309,9.309,0,0,1,.511.8,2.984,2.984,0,0,1,.154.309c.038.06.089.085.115.136s.325.659.37.776.127.337.132.38.092.159.112.225.312.729.342.8a.886.886,0,0,1,.066.224.409.409,0,0,0,.07.148,4.98,4.98,0,0,1,.246.634c.049.182.049.324.072.376a2.346,2.346,0,0,1,.091.3c.009.088.23.829.24,1.013.026.19.114.9.133.983s0,.258.016.317a1.782,1.782,0,0,1,.058.286c.006.114.048.79.064.9,0,.112.04,1.017.038,1.083a.132.132,0,0,1-.038.1c0,.024-.077.063.012.142a.926.926,0,0,1,.026.153c0,.044-.026.81-.032.9s-.041.623-.049.764-.054.513-.065.585-.029.073-.041.211-.021.347-.029.414-.063.284-.066.357-.016.254-.035.314-.1.143-.115.179a1.054,1.054,0,0,1-.062.148.153.153,0,0,0,.025.177c.062.049.041.116,0,.133s-.095.138-.037.2.035.108.022.13-.095.063-.031.137a.177.177,0,0,1,.017.214c-.017.022-.081,0-.1.046s.052.083.084.143,0,.1-.03.138-.147.079-.115.106.042.029.042.085a.138.138,0,0,1-.042.12c-.017.021-.056.035-.056.083a.982.982,0,0,1-.011.138c-.008.038.027.085.018.119s-.007.056-.04.067a.074.074,0,0,0-.077.055,1.491,1.491,0,0,0-.037.247c-.023.057-.023.076-.041.089s-.042.016-.05.046a.664.664,0,0,1-.02.124.258.258,0,0,0-.019.178c.01.081.019.1.066.142a.127.127,0,0,1,.008.139c-.027.014-.095.049-.105.077s.006.207-.013.235-.09.09-.09.112,0,.041.029.056,0,.11-.012.126a.265.265,0,0,1-.054.08c-.021.015-.1.043-.036.084s.04.051.033.08-.065.276-.086.338-.2.663-.265.826-.344.88-.392,1-.241.566-.272.643a2,2,0,0,1-.155.243c-.018.04-.333.659-.372.734s-.274.584-.308.625a1,1,0,0,0-.064.242.886.886,0,0,1-.1.226,4.306,4.306,0,0,0-.269.4,1.6,1.6,0,0,0-.106.2c-.018.051,0,.1-.029.139s-.033.048-.054.1a.592.592,0,0,0-.085.22,2.681,2.681,0,0,1-.232.353.436.436,0,0,0-.052.15c-.019.03-.082.081-.1.116s-.022.08-.04.124-.124.175-.143.221-.035.1-.073.176-.5.78-.563.893-.241.347-.29.413c0,0-.288.366-.335.453a2.781,2.781,0,0,0-.3.435c-.012.1-.064.13-.09.184s-.589.521-.66.6a2.17,2.17,0,0,1-.191.2.654.654,0,0,0-.157.105c-.034.036-1.646,1.368-1.75,1.44s-.875.694-.948.735a1.941,1.941,0,0,1-.223.187c-.088.056-.367.219-.471.287s-.756.377-.885.44-1.054.347-1.195.4a2.4,2.4,0,0,1-.428.117,1.9,1.9,0,0,1-.211.016,1.4,1.4,0,0,0-.311.108c-.095.029-1,.222-1.2.246s-.867.119-.991.129-3.159.066-3.318.055-.613-.022-.678-.04-.124-.055-.165-.065-1.08-.031-1.145-.041-.818-.111-.941-.135a4.535,4.535,0,0,0-.5-.1,5.358,5.358,0,0,0-.546-.116,5.154,5.154,0,0,1-.543-.071c-.064-.027-.069-.066-.129-.077s-.22-.059-.311-.08-.56-.232-.655-.282-.439-.255-.526-.278a1.723,1.723,0,0,1-.276-.119,4.727,4.727,0,0,0-.562-.27,1.47,1.47,0,0,1-.23-.123,2.651,2.651,0,0,0-.372-.173,1.52,1.52,0,0,1-.295-.177c-.014-.019-.042-.093-.077-.1s-.156-.051-.156-.051a.425.425,0,0,0-.154-.138.412.412,0,0,1-.18-.127c-.044-.029-.859-.654-1.027-.792s-.966-.866-1.083-1.015c-.094-.144-.648-.843-.72-.945a.669.669,0,0,1-.091-.226.263.263,0,0,0-.093-.15c-.049-.055-.4-.675-.432-.713s-.032-.174-.058-.191a1.757,1.757,0,0,1-.149-.168.523.523,0,0,1-.086-.2c-.01-.057-.08-.075-.08-.164a.235.235,0,0,0-.1-.217.414.414,0,0,1-.074-.138c0-.039-.049-.077-.082-.109a.469.469,0,0,1-.111-.2,1.106,1.106,0,0,0-.088-.264,1.359,1.359,0,0,0-.17-.272.346.346,0,0,1-.115-.189,1.31,1.31,0,0,0-.016-.26c-.016-.046-.078-.162-.094-.214-.012-.068-.356-.858-.422-1.088s-.462-1.572-.492-1.728-.2-1.077-.2-1.134-.038-.245-.03-.294a1.987,1.987,0,0,0-.02-.4.967.967,0,0,1-.055-.248,1.87,1.87,0,0,0-.067-.308,1.938,1.938,0,0,1-.079-.221c-.008-.043-.035-.386-.035-.386s.06-.027.053-.047a.267.267,0,0,0-.053-.061,1.752,1.752,0,0,1-.021-.192c0-.05-.067-.564-.074-.657s-.009-1.047-.009-1.094-.02-.057.016-.077.024-.156,0-.224a1.092,1.092,0,0,1-.063-.292c.012-.07,0-.391,0-.441s-.025-1.279-.017-1.434.058-.774.058-.8a.1.1,0,0,1,.04-.084c.034-.022-.031.01-.031-.054s.031-.566.044-.688.154-.829.175-.976a1.634,1.634,0,0,1,.092-.44c.041-.064.079,0,.079-.244,0,0,.093-.081.074-.164a.218.218,0,0,1,.044-.165.3.3,0,0,0,.063-.109c.035-.08,0-.316.022-.372s.414-1.446.492-1.671.341-.8.4-.974a1.89,1.89,0,0,1,.081-.321.591.591,0,0,1,.115-.1c.056-.032-.006-.112.022-.141A1.048,1.048,0,0,1,9.6,20.3c.062-.048.016-.066.008-.1a.959.959,0,0,1,.082-.231s.052.007.069-.112c.034-.124.263-.762.306-.826a8.956,8.956,0,0,1,.423-.824,5.532,5.532,0,0,0,.288-.484c.062-.088.26-.456.334-.553a4.722,4.722,0,0,1,.457-.6c.124-.115.318-.359.395-.424s.23-.2.289-.24a2.009,2.009,0,0,1,.377-.294,1.523,1.523,0,0,0,.348-.341s.2-.227.259-.24.215.037.176-.118a.047.047,0,0,1,.039-.061c.057-.01.189-.171.242-.171s.128-.014.15-.049-.123-.105.032-.149a1.154,1.154,0,0,0,.342-.2s-.027-.136.026-.144a1.708,1.708,0,0,1,.235-.031c.078,0,.139.031.155-.03s-.079-.173.035-.161.174-.012.246-.164.095-.047.139-.1.078-.163.152-.2a.567.567,0,0,1,.222-.09c.083,0,.138,0,.177-.145a.247.247,0,0,0,.089-.019c.04-.016.048-.016.078-.105a.271.271,0,0,1,.161-.173c.077-.041.77-.576.894-.655s.494-.391.545-.4.074-.032.127-.046.11-.136.161-.136a.33.33,0,0,0,.115-.032s.027-.071.08-.08.1.009.114-.022.007-.134.074-.164.18-.151.227-.156.079-.006.087-.04a1.1,1.1,0,0,1,.007-.166,1.673,1.673,0,0,1,.228-.221.159.159,0,0,0,.083-.106c.008-.032,0-.107.035-.151a.87.87,0,0,0,.133-.373,1.086,1.086,0,0,0-.075-.5.653.653,0,0,0-.381-.3c-.178-.03-.318-.059-.336-.065s-.04-.041-.109-.032a.86.86,0,0,0-.145.038c-.06.018-.25.066-.388.1s-.249.071-.3.075-.084,0-.14.043a.85.85,0,0,1-.144.12c-.032.017-.157.01-.228.024a.268.268,0,0,0-.144.063.256.256,0,0,1-.131.062c-.04.01-.289.019-.367.037s-.161.079-.235.082c0,0-.19.038-.253.054s-.192.081-.268.086A.6.6,0,0,1,14.825,10c-.211-.09-.3-.136-.318-.178a2.326,2.326,0,0,1-.051-.4c.019-.075.019-.058,0-.086a.091.091,0,0,1,0-.114,2.234,2.234,0,0,0,.175-.272,1.544,1.544,0,0,1,.2-.3c.054-.074.048-.155.175-.245s.067-.176.067-.176a.436.436,0,0,1,.063-.112c.036-.046.369-.563.48-.7s.349-.488.4-.548.009-.116.058-.167.119-.146.144-.181.006-.1.044-.154.036-.05.14-.143a1.671,1.671,0,0,0,.306-.421c.068-.12.187-.327.249-.44a.546.546,0,0,0,.085-.27.265.265,0,0,1,.044-.153c.026-.045,0-.124,0-.179s-.01-.174-.093-.238a.762.762,0,0,0-.327-.211,1.48,1.48,0,0,0-.536-.057.39.39,0,0,0-.278.122c-.066.038-.29.211-.35.25s-.459.421-.522.467a1,1,0,0,0-.152.121c-.021.04-.021.076-.047.1s-.462.372-.572.464a5.51,5.51,0,0,1-.437.357c-.067.041-.087.041-.162.087a2.007,2.007,0,0,0-.206.258.23.23,0,0,1-.14.04c-.046-.007-.074-.054-.073.033s-.152.183-.175.21-.58.412-.626.444a.453.453,0,0,1-.171.07,1.2,1.2,0,0,1-.317-.024c-.04-.024-.1-.2-.118-.078,0,0,.017.032-.046.032a.229.229,0,0,1-.16-.048.576.576,0,0,1-.124-.212.66.66,0,0,1,.026-.364c.045-.122.049-.189.088-.274s.163-.27.241-.394.164-.3.191-.337.042-.1.052-.141.078-.075.143-.163.241-.369.282-.454c.057-.085.082-.236.156-.271s.065-.07.091-.132S12.942,4.079,13,4s.089-.191.139-.29a2.311,2.311,0,0,1,.209-.394,4.453,4.453,0,0,1,.327-.471.466.466,0,0,0,.1-.168c.014-.035,0-.165.04-.182s.054-.086.058-.147-.02-.229.015-.267.091-.085.1-.149a.681.681,0,0,0-.021-.3,1.426,1.426,0,0,0-.215-.349A.825.825,0,0,0,13.312,1a2.3,2.3,0,0,1-.356-.07.323.323,0,0,0-.2.016.6.6,0,0,1-.18.091.441.441,0,0,0-.185.078c-.046.046-.409.422-.449.479a2.929,2.929,0,0,0-.19.253,9.752,9.752,0,0,1-.709.838.439.439,0,0,0-.126.2c-.038.118-.013.085-.059.128s-.125.036-.183.144a3.222,3.222,0,0,1-.236.368s-.383.374-.431.435a.79.79,0,0,0-.077.163c-.036.051-.309.305-.359.385s-.026.137-.064.179-.465.566-.549.659a1.347,1.347,0,0,1-.381.336.287.287,0,0,1-.34-.1.632.632,0,0,1-.181-.411,3.53,3.53,0,0,1,.09-.6c.045-.172.281-.9.333-1.019s.428-.945.49-1.066.131-.241.159-.326a2.642,2.642,0,0,0,.093-.276,1.6,1.6,0,0,1,.157-.3c.019-.026.073,0,.1-.132a1.082,1.082,0,0,1,.159-.315s.1-.177.132-.233.082-.182.044-.262a.18.18,0,0,1,0-.163C9.833.43,9.825.321,9.7.207A.543.543,0,0,0,9.172,0a1.158,1.158,0,0,0-.444.08A.17.17,0,0,0,8.591.2a1.151,1.151,0,0,1-.235.224C8.271.48,7.8.927,7.743,1s-.33.34-.369.386-.052.095-.083.13-.51.566-.569.647-.066.172-.1.221-.349.524-.406.6a2.037,2.037,0,0,0-.236.356.242.242,0,0,0-.038.114c0,.058-.039.085-.083.149s-.324.545-.362.608-.049.1-.082.111a.242.242,0,0,0-.077.131c-.024.046-.32.512-.367.577a1.229,1.229,0,0,1-.391.314,1.334,1.334,0,0,1-.457-.094A1.318,1.318,0,0,1,3.78,4.92c-.055-.085-.136-.227-.175-.274s-.04-.085-.03-.163a.419.419,0,0,0-.009-.231,1.1,1.1,0,0,1-.033-.323A7.193,7.193,0,0,1,3.6,3.195a4.128,4.128,0,0,0,.026-.5c.006-.053.037-.053.043-.113a1.242,1.242,0,0,0-.024-.217c-.011-.043-.03-.074-.011-.105s.047-.05.035-.113a1.263,1.263,0,0,0-.094-.2.816.816,0,0,0-.257-.24A1.307,1.307,0,0,0,3.056,1.6" transform="translate(-0.013 0)" fill="#0068b6"/>
      <path id="パス_557" data-name="パス 557" d="M18.474,23.7s-.748.369-.8.392a1.043,1.043,0,0,0-.187.065s-.47.318-.589.392a6.2,6.2,0,0,0-.524.381.636.636,0,0,0-.16.195c-.017.048-.044.062-.112.109a.684.684,0,0,0-.168.129,5.267,5.267,0,0,0-.491.61,2.281,2.281,0,0,0-.139.294c-.007.044.007.131-.023.174a.706.706,0,0,0-.145.31,1.3,1.3,0,0,0,.025.351,1.394,1.394,0,0,0,.194.488.336.336,0,0,0,.156.094c.058.014.073.056.119.1a.357.357,0,0,0,.227.091.8.8,0,0,0,.272-.035c.077-.028.208-.062.269-.08a3.762,3.762,0,0,0,.349-.182.963.963,0,0,0,.225-.176A5.224,5.224,0,0,0,17.3,27c.086-.094.309-.355.41-.439s.318-.29.4-.344a2.782,2.782,0,0,1,.409-.243c.063-.018.147-.085.245-.129a2.617,2.617,0,0,1,.574-.173,1.14,1.14,0,0,0,.232-.053,3.8,3.8,0,0,1,.583-.069c.159,0,.386-.056.552-.046a1.386,1.386,0,0,1,.412.087c.1.034.143.09.208.109s.209.049.309.091a3.569,3.569,0,0,1,.4.2c.142.093.424.23.513.3a.744.744,0,0,0,.255.135,2,2,0,0,0,.535.032.706.706,0,0,0,.5-.335s.085-.008.026-.489-.026-.383-.078-.533a.5.5,0,0,0-.177-.238,2.913,2.913,0,0,1-.37-.341.562.562,0,0,0-.136-.159c-.073-.046-.2-.17-.241-.17a.169.169,0,0,1-.1-.017c-.027-.015-.03-.075-.1-.106s-.162-.1-.223-.122-.049-.065-.124-.065a.353.353,0,0,1-.178-.024c-.063-.027-.216-.151-.263-.151a.413.413,0,0,1-.143-.014c-.026-.022-.067-.087-.122-.1s-.414-.027-.506-.048-.2-.059-.3-.062a4.505,4.505,0,0,0-.55.017.943.943,0,0,1-.236-.017,2.993,2.993,0,0,0-.639.036,1.1,1.1,0,0,1-.221.1c-.07.01-.367.024-.461.04s-.144.021-.235.047" transform="translate(-2.664 -4.005)" fill="#0068b6"/>
      <path id="パス_558" data-name="パス 558" d="M20.581,28.668a.494.494,0,0,0-.3.006,2.155,2.155,0,0,1-.256.075c-.065,0-.085.076-.138.1s-.063.065-.122.07a.28.28,0,0,0-.174.06,1.21,1.21,0,0,0-.143.2c-.033.061-.128.28-.18.421a1.028,1.028,0,0,0-.082.28c0,.071-.027.252-.027.357a1.086,1.086,0,0,0,.073.469,1.015,1.015,0,0,0,.272.291c.113.088.262.2.331.247a.347.347,0,0,0,.125.056.33.33,0,0,0,.18,0c.059-.026.119.014.167.041a.265.265,0,0,0,.185.056c.075-.007.187-.075.264-.092a.561.561,0,0,1,.2-.024.151.151,0,0,0,.138-.038.822.822,0,0,1,.18-.124c.058-.021.132-.041.152-.1s.1-.178.124-.211.05-.113.093-.146a1.154,1.154,0,0,0,.122-.188.494.494,0,0,0,.034-.129c0-.034.026-.163.026-.26s.025-.194-.026-.256a2.152,2.152,0,0,0-.1-.235,1.326,1.326,0,0,1-.105-.184.743.743,0,0,1-.041-.177.248.248,0,0,0-.085-.206,1.194,1.194,0,0,0-.3-.14c-.1-.036-.181-.073-.255-.1a.73.73,0,0,0-.183-.077.282.282,0,0,1-.091-.01.165.165,0,0,0-.057-.042" transform="translate(-3.374 -4.889)" fill="#0068b6"/>
      <path id="パス_559" data-name="パス 559" d="M39.423,23.216a3.6,3.6,0,0,1-.4-.026c-.124-.027-.793.012-.869.012a.452.452,0,0,1-.215-.028.262.262,0,0,0-.213.028,2.329,2.329,0,0,1-.455.043,1.3,1.3,0,0,1-.316.016.312.312,0,0,0-.208.013c-.108.043-.686.152-.792.187s-.126.015-.244.046-.2.041-.26.065-.73.252-.809.3-.147.022-.216.093a.994.994,0,0,1-.2.137s-.206.085-.295.112-.07-.008-.171.056a1.743,1.743,0,0,0-.276.189,1.1,1.1,0,0,1-.109.12c-.034.034-.383.217-.5.3s-.325.236-.4.288-.428.37-.549.474-.344.309-.41.384-.18.217-.214.244-.11.017-.1.056.054.094-.012.094a.142.142,0,0,0-.122.057,2.1,2.1,0,0,0-.134.164c-.021.046-.161.231-.2.291s-.063.122-.1.122-.072,0-.072.07a.182.182,0,0,1-.058.141c-.024.029-.143.2-.178.235a.705.705,0,0,0-.133.156,1.017,1.017,0,0,1-.077.2c-.051.095-.388.624-.426.713s-.124.181-.126.209.01.133-.051.159a.21.21,0,0,0-.136.121c-.021.049-.021.106-.043.159s-.073.07-.09.1a.648.648,0,0,0-.086.164,1,1,0,0,1-.141.287c-.03.052-.1.113-.109.145a.483.483,0,0,1,0,.147c-.028.051-.133.079-.137.138s.016.119,0,.158-.086.1-.133.173a.618.618,0,0,0-.049.309.239.239,0,0,1-.07.2,1.115,1.115,0,0,0-.115.282c-.052.146-.238.769-.269.944a1.357,1.357,0,0,1-.083.34c-.044.066-.063.075-.074.132a1.452,1.452,0,0,0-.075.24.773.773,0,0,1,.021.127c0,.046-.056.123-.076.183a.548.548,0,0,0-.027.247.614.614,0,0,1-.025.255,1.1,1.1,0,0,0-.082.221.584.584,0,0,1,.028.208c-.013.12-.064.352-.074.443s-.077.7-.068.809.068.618.087.787a1.1,1.1,0,0,1,0,.225c.016.046.066.1.049.14s-.119.112.03.136a.363.363,0,0,1,.095.109A.542.542,0,0,0,28,37c.063.043.183.134.26.18a.369.369,0,0,0,.194.078c.077.01.118-.036.188-.036a.452.452,0,0,0,.17,0,.712.712,0,0,0,.321-.19,1.445,1.445,0,0,0,.194-.3c.055-.1.14-.276.184-.372a1.287,1.287,0,0,1,.123-.246.7.7,0,0,0,.1-.276c.021-.09.137-.537.178-.711s.078-.453.09-.535.059-.27.069-.318.029-.088.066-.239.047-.4.076-.512.058-.126.082-.244a2.2,2.2,0,0,1,.039-.366c.042-.091.2-.526.236-.645s.121-.373.147-.509a5.154,5.154,0,0,1,.224-.741.585.585,0,0,0,.091-.226,1.143,1.143,0,0,1,.095-.275c.044-.068.12-.2.147-.253s.015-.186.1-.236.091-.119.122-.189.138-.206.176-.3a2.708,2.708,0,0,1,.19-.411.831.831,0,0,0,.092-.153.316.316,0,0,1,.084-.155s.073-.109.1-.161a1.042,1.042,0,0,0,.122-.167c.049-.049.077-.146.11-.172s.044-.066.063-.066.108-.052.095-.126.063-.136.092-.168a1.857,1.857,0,0,1,.181-.275,1.549,1.549,0,0,1,.232-.26c.052-.032.074-.088.12-.1s.08,0,.109-.023a.338.338,0,0,1,.073-.1c.066-.056.186-.195.241-.25s.16-.215.209-.219.038.032.115.013.113-.061.172-.074a1.568,1.568,0,0,0,.209-.136c.062-.041.609-.422.734-.5a5.129,5.129,0,0,1,.563-.294,2.276,2.276,0,0,1,.292-.1c.082-.012.064-.049.124-.049a.416.416,0,0,0,.168-.018.418.418,0,0,1,.136-.109c.073-.02.452-.126.617-.158a7.377,7.377,0,0,1,.85-.178c.163,0,.58-.024.652-.026s.047,0,.088.014.493.008.633.008.584-.022.671-.029a.252.252,0,0,1,.154.037c.044.022.053.022.161.022a5.126,5.126,0,0,0,.594-.013,1.1,1.1,0,0,0,.513-.206.565.565,0,0,0,.155-.289c.007-.037.027-.061.033-.1a.224.224,0,0,0-.033-.11c-.013-.03,0-.254-.013-.291s-.09-.106-.142-.18-.12-.163-.15-.2-.182-.172-.232-.211-.145-.033-.174-.051a.405.405,0,0,1-.129-.117.184.184,0,0,0-.119-.042,2.745,2.745,0,0,1-.316-.035,1.324,1.324,0,0,1-.2-.092c-.041-.015-.128-.044-.161-.009s-.013.044-.084.049-.078.015-.115-.013a.335.335,0,0,0-.134-.045" transform="translate(-4.859 -3.953)" fill="#0068b6"/>
      <path id="パス_560" data-name="パス 560" d="M37.808,28.876a.751.751,0,0,0-.121.173,1.74,1.74,0,0,1-.11.162.689.689,0,0,0-.111.2c-.025.086-.082.224-.1.262s-.089.148-.117.194a.584.584,0,0,0-.054.229,1.207,1.207,0,0,0,.082.363,1.381,1.381,0,0,0,.133.271c.052.055.018.073.066.113a1.677,1.677,0,0,1,.14.156c.039.051.079.138.1.174a.156.156,0,0,0,.084.063c.048.014.1.014.152.027a1.281,1.281,0,0,0,.156.075.854.854,0,0,0,.215.055c.044.007.082.012.121.022a1,1,0,0,0,.256.024.888.888,0,0,0,.313-.078c.1-.035.179-.11.224-.117a.816.816,0,0,0,.185-.1c.061-.036.089-.1.14-.129s.107-.041.148-.087a.352.352,0,0,0,.082-.129c.013-.025.013-.182.022-.211a1.607,1.607,0,0,0,.068-.15c.027-.061.057-.168.069-.182s0-.06.04-.074.091-.061.009-.109c0,0-.026-.129-.009-.148a.243.243,0,0,0,.009-.172c-.046-.092-.046-.132-.068-.164a.546.546,0,0,1-.1-.146.658.658,0,0,0-.079-.158c-.022-.032-.263-.267-.306-.3a.585.585,0,0,0-.11-.115c-.042-.013-.105-.013-.159-.032s-.047-.037-.1-.049a.843.843,0,0,0-.153-.014c-.062-.017-.132-.054-.206-.077a.855.855,0,0,0-.2-.069.407.407,0,0,0-.173.034.893.893,0,0,0-.194.044c-.045.027-.1.068-.148.107s-.1.007-.2.07" transform="translate(-6.55 -4.885)" fill="#0068b6"/>
      <path id="パス_561" data-name="パス 561" d="M23.058,45.11a2.456,2.456,0,0,0-.44,0c-.091.026-.081.074-.124.084a.811.811,0,0,0-.241.039c-.05.035-.245.143-.307.187a.427.427,0,0,0-.12.115,1.248,1.248,0,0,0-.089.492,3.087,3.087,0,0,1,.05.424.1.1,0,0,0,.048.133c.046.048.061.118.13.13s.085-.012.147.025a.337.337,0,0,1,.109.111,3.44,3.44,0,0,0,.439.325,6.426,6.426,0,0,0,.6.289,3.429,3.429,0,0,0,.484.176c.082.031.073.072.133.072a.625.625,0,0,1,.233.017c.065.036.159.116.223.12s.1-.032.154.011.044.1.124.106.3-.035.383-.023a3.418,3.418,0,0,1,.364.04.478.478,0,0,1,.153.058c.053.017,1.119.017,1.292.017a2.125,2.125,0,0,0,.374-.009,1.305,1.305,0,0,1,.219-.06c.068,0,.15.032.249.032s.117,0,.171-.038a.247.247,0,0,1,.161-.04.313.313,0,0,1,.141.023c.06.017.175-.035.232-.043s.7-.087.831-.114.269,0,.311-.044a.212.212,0,0,1,.162-.095.208.208,0,0,0,.153-.073c.046-.032.149-.032.245-.075s.386-.163.6-.242.443-.212.622-.3a2.125,2.125,0,0,1,.274-.148.406.406,0,0,1,.151-.061.72.72,0,0,0,.266-.137,1.409,1.409,0,0,0,.28-.278,1.207,1.207,0,0,1,.242-.3c.044-.032.1-.058.12-.123s.007-.149.026-.179.061-.074.068-.19a.892.892,0,0,0-.03-.347.877.877,0,0,0-.124-.239.82.82,0,0,0-.181-.125c-.022-.015-.066-.043-.1-.021s-.073.056-.1.037a.1.1,0,0,1-.044-.073.108.108,0,0,0-.119-.075.941.941,0,0,1-.182,0c-.051-.009-.051-.027-.121-.027a.97.97,0,0,0-.2.032c-.07.022-.337.022-.412.034a2.023,2.023,0,0,0-.239.07c-.105.037-.42.156-.573.226s-.361.158-.509.239-.474.221-.6.287a2.542,2.542,0,0,1-.259.124c-.068.008-.2.027-.3.046s-.433.1-.537.118a4.868,4.868,0,0,1-.672.08c-.131,0-.833-.01-1.013-.01a3.818,3.818,0,0,1-.641-.074c-.132-.03-.56-.1-.725-.133s-.6-.159-.822-.23-.484-.126-.652-.193-.348-.137-.508-.2" transform="translate(-3.826 -7.627)" fill="#0068b6"/>
      <path id="長方形_492" data-name="長方形 492" d="M.855,0H11.616a.852.852,0,0,1,.852.852V2.289a.849.849,0,0,1-.849.849H.852A.852.852,0,0,1,0,2.286V.855A.855.855,0,0,1,.855,0Z" transform="translate(63.937 10.977)" fill="#0068b6"/>
      <path id="パス_562" data-name="パス 562" d="M94.269,0H70.737a.7.7,0,0,0-.7.707V24.387a.7.7,0,0,0,.7.706H94.269a.7.7,0,0,0,.7-.706V.708a.7.7,0,0,0-.7-.707M91.851,21.6a.352.352,0,0,1-.351.353h-18a.356.356,0,0,1-.354-.353V3.492a.355.355,0,0,1,.354-.352h18a.351.351,0,0,1,.351.352Z" transform="translate(-12.332 0)" fill="#0068b6"/>
      <path id="パス_563" data-name="パス 563" d="M127.888,57.222a.706.706,0,0,1-.705.707h-1.716a.7.7,0,0,1-.694-.707V48.872a.358.358,0,0,0-.355-.353h-8.294a.7.7,0,0,1-.7-.7V46.088a.7.7,0,0,1,.7-.706h11.06a.707.707,0,0,1,.705.706Z" transform="translate(-20.322 -7.745)" fill="#0068b6"/>
      <path id="パス_564" data-name="パス 564" d="M119.573,57.559a2.076,2.076,0,1,1-2.074-2.092,2.086,2.086,0,0,1,2.074,2.092" transform="translate(-20.323 -9.466)" fill="#0068b6"/>
      <path id="パス_565" data-name="パス 565" d="M132.084,37.821H108.559a.7.7,0,0,0-.7.7V62.208a.7.7,0,0,0,.7.7h23.526a.7.7,0,0,0,.7-.7V38.526a.7.7,0,0,0-.7-.7m-2.417,21.6a.347.347,0,0,1-.351.352H111.323a.35.35,0,0,1-.35-.352V41.308a.349.349,0,0,1,.35-.35h17.993a.346.346,0,0,1,.351.35Z" transform="translate(-18.991 -6.455)" fill="#0068b6"/>
      <path id="パス_566" data-name="パス 566" d="M82.5,52.8a.7.7,0,0,1-.7.7H80.089a.7.7,0,0,1-.7-.7V41.307a.35.35,0,0,0-.353-.349h-8.3a.706.706,0,0,1-.7-.707V38.526a.7.7,0,0,1,.7-.7H81.8a.7.7,0,0,1,.7.7Z" transform="translate(-12.332 -6.455)" fill="#0068b6"/>
      <path id="パス_567" data-name="パス 567" d="M98.3,38.526a.7.7,0,0,0-.7-.7H95.885a.7.7,0,0,0-.7.7v2.079a.351.351,0,0,1-.351.352H89.648a.7.7,0,0,0-.7.706v1.723a.7.7,0,0,0,.7.706H97.6a.7.7,0,0,0,.7-.706Z" transform="translate(-15.662 -6.455)" fill="#0068b6"/>
      <path id="パス_568" data-name="パス 568" d="M74.157,64.2a.7.7,0,0,0,.494-.2l5.625-5.665a.24.24,0,0,0,.07-.168.232.232,0,0,0-.236-.235H73.5a.355.355,0,0,1-.354-.353V55.145a.355.355,0,0,1,.354-.354h2.066a.7.7,0,0,0,.7-.7V52.36a.7.7,0,0,0-.7-.7H73.5a.358.358,0,0,1-.354-.354V48.872a.356.356,0,0,1,.354-.352h2.066a.706.706,0,0,0,.7-.7V46.088a.706.706,0,0,0-.7-.7H70.737a.7.7,0,0,0-.7.7V60.357a.7.7,0,0,0,.7.707H72.59a.234.234,0,0,1,.232.238.249.249,0,0,1-.065.165L70.441,63.8a.236.236,0,0,0-.067.164.234.234,0,0,0,.233.236Z" transform="translate(-12.332 -7.745)" fill="#0068b6"/>
      <path id="パス_569" data-name="パス 569" d="M97.216,66.629a.7.7,0,0,1-.7-.7V62.711a.687.687,0,0,1,.209-.5l2.506-2.527a.221.221,0,0,1,.166-.072.234.234,0,0,1,.233.239v6.076a.7.7,0,0,1-.7.7Z" transform="translate(-16.993 -10.174)" fill="#0068b6"/>
      <path id="パス_570" data-name="パス 570" d="M96.716,53.268a.691.691,0,0,0,.2-.5v-2.9a.7.7,0,0,0-.7-.706H94.508a.7.7,0,0,0-.7.706v1.6a.7.7,0,0,1-.207.5L81.2,64.445a.229.229,0,0,0-.068.164.233.233,0,0,0,.233.236h3.551a.7.7,0,0,0,.5-.2Z" transform="translate(-14.286 -8.391)" fill="#0068b6"/>
      <path id="パス_571" data-name="パス 571" d="M126.556,19.52a.7.7,0,0,0-.705-.7H122.23a.354.354,0,0,1-.352-.356V6.622a.354.354,0,0,1,.352-.352h9.854a.7.7,0,0,0,.7-.7V3.843a.7.7,0,0,0-.7-.7H122.23a.353.353,0,0,1-.352-.354V.707a.7.7,0,0,0-.7-.707h-1.714a.7.7,0,0,0-.7.707V2.784a.353.353,0,0,1-.349.354h-9.857a.7.7,0,0,0-.7.7V5.566a.7.7,0,0,0,.7.7h9.857a.354.354,0,0,1,.349.352v11.84a.366.366,0,0,1-.349.356h-3.624a.7.7,0,0,0-.7.7v1.725a.7.7,0,0,0,.7.708h3.624a.358.358,0,0,1,.349.351v2.08a.7.7,0,0,0,.7.706h1.714a.705.705,0,0,0,.7-.706v-2.08a.348.348,0,0,1,.352-.351h3.621v0a.707.707,0,0,0,.705-.707Z" transform="translate(-18.991 0)" fill="#0068b6"/>
      <path id="パス_572" data-name="パス 572" d="M115.442,16.382a.706.706,0,0,0,.2-.5V12.307a.228.228,0,0,0-.228-.232.241.241,0,0,0-.168.066l-7.185,7.231a.726.726,0,0,0-.205.5v3.575a.233.233,0,0,0,.4.165Z" transform="translate(-18.991 -2.061)" fill="#0068b6"/>
      <path id="パス_573" data-name="パス 573" d="M128.864,16.382a.7.7,0,0,1-.211-.5l.007-3.575a.23.23,0,0,1,.232-.232.21.21,0,0,1,.159.066l7.19,7.231a.726.726,0,0,1,.205.5v3.575a.232.232,0,0,1-.234.234.215.215,0,0,1-.162-.069Z" transform="translate(-22.652 -2.061)" fill="#0068b6"/>
      <path id="パス_574" data-name="パス 574" d="M63.469,109.7s-4.205,0-4.271,0a4.214,4.214,0,0,1,.194-8.422h4.078a1.1,1.1,0,0,1,0,2.2H59.391A2.017,2.017,0,0,0,59.3,107.5c.036,0,4.167,0,4.167,0a1.1,1.1,0,0,1,0,2.2" transform="translate(-9.72 -17.284)" fill="#0068b6"/>
      <path id="パス_575" data-name="パス 575" d="M111.763,91.3l-9.382,9.98,0,0a2.191,2.191,0,0,0,.329,3.312,2.172,2.172,0,0,0,3.039-.54,2.254,2.254,0,0,0,.231-.426h0Z" transform="translate(-17.921 -15.582)" fill="#0068b6"/>
      <path id="パス_576" data-name="パス 576" d="M135.592,101.533a2.217,2.217,0,0,0-.208-.253h0L126,91.3l5.782,12.327h0a2.231,2.231,0,0,0,.23.427,2.174,2.174,0,0,0,3.039.54,2.206,2.206,0,0,0,.536-3.059" transform="translate(-22.186 -15.582)" fill="#0068b6"/>
      <path id="パス_577" data-name="パス 577" d="M10.019,86.348A3.118,3.118,0,1,1,6.9,83.21a3.128,3.128,0,0,1,3.117,3.138" transform="translate(-0.666 -14.201)" fill="#0068b6"/>
      <path id="パス_578" data-name="パス 578" d="M6.235,99.628A3.118,3.118,0,1,1,3.119,96.49a3.126,3.126,0,0,1,3.117,3.138" transform="translate(0 -16.468)" fill="#0068b6"/>
      <path id="パス_579" data-name="パス 579" d="M22.106,73.744a3.116,3.116,0,0,0-3.8,2.246,3.172,3.172,0,0,0-.1.66l-.006,0V88.939L24.109,78.2l-.006,0a3.149,3.149,0,0,0-2-4.452" transform="translate(-3.205 -12.568)" fill="#0068b6"/>
      <path id="パス_580" data-name="パス 580" d="M9.755,120.753h0l0-15.091L2.5,118.87a3.935,3.935,0,0,0,2.385,5.787,3.894,3.894,0,0,0,4.747-2.819,3.987,3.987,0,0,0,.121-1.085" transform="translate(-0.345 -18.033)" fill="#0068b6"/>
      <path id="パス_581" data-name="パス 581" d="M45.305,86.671A1.563,1.563,0,0,0,43.749,85.1H26.911a1.569,1.569,0,0,0,0,3.138H43.749a1.564,1.564,0,0,0,1.556-1.569" transform="translate(-4.464 -14.524)" fill="#0068b6"/>
      <path id="パス_582" data-name="パス 582" d="M62.108,92.347a1.559,1.559,0,1,0-3.118,0,1.6,1.6,0,0,0,.046.375h0l1.515,5.984,1.515-5.984h0a1.562,1.562,0,0,0,.047-.375" transform="translate(-10.387 -15.493)" fill="#0068b6"/>
      <path id="パス_583" data-name="パス 583" d="M87.193,95.675a3.117,3.117,0,1,1-3.117-3.138,3.128,3.128,0,0,1,3.117,3.138" transform="translate(-14.255 -15.793)" fill="#e50012"/>
      <path id="パス_584" data-name="パス 584" d="M42.013,113.054a1.607,1.607,0,0,0-.2.014H40.181a.351.351,0,0,1-.35-.352v-6.169a.352.352,0,0,1,.35-.352h1.834a1.569,1.569,0,0,0,0-3.138H40.181a.352.352,0,0,1-.35-.352v-8.15A1.878,1.878,0,0,0,37.96,92.67H29.227a1.569,1.569,0,0,0,0,3.138h6.512a.353.353,0,0,1,.351.354V102.7a.352.352,0,0,1-.351.352H31.76a.352.352,0,0,1-.351-.352V100.86a1.87,1.87,0,1,0-3.741,0V102.7a.353.353,0,0,1-.352.352H23.346A.352.352,0,0,1,23,102.7h0V95.093a1.871,1.871,0,1,0-3.741,0v7.61a.352.352,0,0,1-.351.352H17.064a1.569,1.569,0,0,0,0,3.138H18.9a.352.352,0,0,1,.351.352v7.777a1.877,1.877,0,0,0,1.87,1.883H35.738a.352.352,0,0,1,.351.353V120.6a1.871,1.871,0,1,0,3.741,0V116.56a.352.352,0,0,1,.35-.353h1.832v-.014a1.569,1.569,0,0,0,0-3.138m-10.6-4.663v-1.844a.352.352,0,0,1,.351-.352h3.978a.352.352,0,0,1,.351.352v6.169a.352.352,0,0,1-.351.352H23.346a.351.351,0,0,1-.35-.352h0v-6.168h0a.352.352,0,0,1,.35-.352h3.971a.353.353,0,0,1,.352.352v1.844h0a1.87,1.87,0,1,0,3.741,0" transform="translate(-2.73 -15.816)" fill="#0068b6"/>
      <path id="パス_585" data-name="パス 585" d="M94.362,83.218V83.2a1.877,1.877,0,0,0-1.87-1.883H82.516a1.564,1.564,0,0,0-1.558,1.569,1.477,1.477,0,0,0,1.453,1.569c.035,0,.07,0,.105,0v0h7.77a.352.352,0,0,1,.351.353v19.731a1.87,1.87,0,1,0,3.741,0V83.218Z" transform="translate(-14.255 -13.878)" fill="#0068b6"/>
      <path id="パス_586" data-name="パス 586" d="M84.1,103.285H76.347a.352.352,0,0,1-.351-.353V83.2a1.87,1.87,0,1,0-3.741,0v21.34a1.877,1.877,0,0,0,1.87,1.883H84.1a1.569,1.569,0,0,0,0-3.138" transform="translate(-12.722 -13.878)" fill="#0068b6"/>
      <path id="パス_587" data-name="パス 587" d="M128.688,84.09h-9.359a.352.352,0,0,1-.306-.349V81.434a1.87,1.87,0,1,0-3.741,0v2.306a.352.352,0,0,1-.306.349h-9.359a1.569,1.569,0,0,0,0,3.138h9.314a.352.352,0,0,1,.351.352V99.5a.351.351,0,0,1-.33.35h-3.723a1.569,1.569,0,0,0,0,3.138h3.724a.351.351,0,0,1,.329.351v2.473h0a1.87,1.87,0,1,0,3.741,0h0v-2.473a.351.351,0,0,1,.329-.351h3.725a1.569,1.569,0,0,0,0-3.138h-3.724a.352.352,0,0,1-.33-.35V87.581a.352.352,0,0,1,.352-.352h9.314a1.569,1.569,0,0,0,0-3.138" transform="translate(-18.322 -13.577)" fill="#0068b6"/>
      <path id="パス_588" data-name="パス 588" d="M99.422,118.187h0a.936.936,0,1,0-1.873,0v5.66a.942.942,0,0,1-.94.945.932.932,0,0,1-.806-.464h0a.935.935,0,0,0-1.752.464.916.916,0,0,0,.122.465v.007a2.81,2.81,0,0,0,5.248-1.417Z" transform="translate(-16.56 -20.01)" fill="#0068b6"/>
      <path id="パス_589" data-name="パス 589" d="M84.075,116.787a5.1,5.1,0,1,0,5.061,5.1,5.078,5.078,0,0,0-5.061-5.1m0,8.3a3.208,3.208,0,1,1,3.184-3.208,3.2,3.2,0,0,1-3.184,3.208" transform="translate(-13.912 -19.932)" fill="#0068b6"/>
      <path id="パス_590" data-name="パス 590" d="M125.258,123.768a.936.936,0,0,0-.726.344,3.157,3.157,0,0,1-2.287.978,3.208,3.208,0,1,1,2.284-5.447v0a.939.939,0,1,0,1.4-1.246v0a5.029,5.029,0,0,0-3.687-1.606,5.1,5.1,0,1,0,3.74,8.528l0,0a.945.945,0,0,0-.724-1.543" transform="translate(-20.633 -19.932)" fill="#0068b6"/>
      <path id="パス_591" data-name="パス 591" d="M58.954,117.242H56.14a.938.938,0,0,0-.935.944v7.545a.936.936,0,1,0,1.873,0v-6.225a.385.385,0,0,1,.381-.377h1.5a.943.943,0,0,1,0,1.886.944.944,0,0,0,0,1.888,2.83,2.83,0,0,0,0-5.66" transform="translate(-9.72 -20.01)" fill="#0068b6"/>
      <path id="パス_592" data-name="パス 592" d="M135.969,117.242h-3.75a.943.943,0,0,0,0,1.887h.554a.386.386,0,0,1,.382.386l0,.008v6.209a.937.937,0,1,0,1.874,0v-6.207l0-.009a.386.386,0,0,1,.384-.386l.006,0h.546a.943.943,0,0,0,0-1.887" transform="translate(-23.115 -20.01)" fill="#0068b6"/>
      <path id="パス_593" data-name="パス 593" d="M108.273,122.9h2.337a.732.732,0,0,0,.1.006.943.943,0,0,0,0-1.886v-.007h-2.433a.386.386,0,0,1-.377-.386l0,0v-1.11a.385.385,0,0,1,.385-.385h2.426a.944.944,0,0,0,0-1.888h-3.746a.941.941,0,0,0-.94.944v7.546h0a.941.941,0,0,0,.94.944h3.746a.943.943,0,0,0,0-1.886h-2.422l-.006,0a.386.386,0,0,1-.383-.377v-1.133a.385.385,0,0,1,.372-.376" transform="translate(-18.668 -20.01)" fill="#0068b6"/>
      <path id="パス_594" data-name="パス 594" d="M73.136,125.381l-.006-.009,0-.011-.977-2.373,0-.007a.389.389,0,0,1,.124-.466,2.831,2.831,0,0,0-1.411-5.273H68.046a.94.94,0,0,0-.938.944v7.545a.937.937,0,1,0,1.874,0v-6.225a.384.384,0,0,1,.381-.377h1.5a.943.943,0,0,1,0,1.886h-.152a.94.94,0,0,0-.936.944.924.924,0,0,0,.077.377h0l1.537,3.734a.37.37,0,0,0,.021.051l0,.013h0a.936.936,0,0,0,1.785-.4.977.977,0,0,0-.068-.351Z" transform="translate(-11.816 -20.01)" fill="#0068b6"/>
      <path id="パス_595" data-name="パス 595" d="M158.187,123.975a25.476,25.476,0,0,0,.748-3.519.28.28,0,0,0-.275-.323h-.274l.047.032a23.291,23.291,0,0,1-2.635,5.282.28.28,0,0,1-.455,0l-1.171-1.6a.274.274,0,0,1,0-.333,22.234,22.234,0,0,0,2.412-4.5.277.277,0,0,1,.442-.1l.8.712a.278.278,0,0,0,.463-.21V118.4a.28.28,0,0,1,.279-.28h.412a.283.283,0,0,0,.278-.255c.077-.765.119-1.319.146-1.833-.109.11-.124.142-.344.363l-1.417-1.5a.281.281,0,0,1,.02-.4,9.041,9.041,0,0,0,2.361-3.563.276.276,0,0,1,.284-.18l1.754.168a.281.281,0,0,1,.24.368c-.021.061-.043.124-.068.19-.065.182-.123.377.069.377h6.581a.28.28,0,0,1,.278.28v1.543a.279.279,0,0,1-.278.28h-7.694a.279.279,0,0,0-.233.128c-.065.1-.137.206-.236.347a.251.251,0,0,0,.2.395h7.259a.362.362,0,0,1,.363.367c-.006.688-.023,1.994-.027,2.643,0,.156.043.28.2.28h.165a.279.279,0,0,1,.278.28v1.447a.28.28,0,0,1-.278.281h-.223c-.149,0-.194.118-.2.268-.009.241-.021.488-.043.775-.012.163.012.3.174.3h.1a.279.279,0,0,1,.278.28v1.463a.28.28,0,0,1-.278.281h-.309c-.139,0-.179.1-.2.241-.11.814-.386,2.021-1.794,2.021h-2.211a.279.279,0,0,1-.274-.22l-.238-1.084a.281.281,0,0,1,.274-.342h1.411c.55,0,.613-.348.661-.616h-5.1a.28.28,0,0,0-.274.225,8.268,8.268,0,0,1-.194.806.279.279,0,0,1-.33.192l-1.735-.4a.281.281,0,0,1-.206-.352m-2.654-9.046a10.879,10.879,0,0,1,2.308,1.431.285.285,0,0,1,.053.379l-.989,1.436a.277.277,0,0,1-.4.058,10.673,10.673,0,0,0-2.126-1.451.283.283,0,0,1-.1-.407l.917-1.348a.277.277,0,0,1,.343-.1m.454-4.027a11.637,11.637,0,0,1,2.381,1.348.28.28,0,0,1,.054.381l-1.011,1.437a.276.276,0,0,1-.4.052,14.2,14.2,0,0,0-2.177-1.373.28.28,0,0,1-.1-.408L155.65,111a.278.278,0,0,1,.337-.1m6.5,10.382c.062-.426.094-.688.117-.9a.224.224,0,0,0-.222-.25h-.984a.226.226,0,0,0-.223.195c-.025.19-.066.507-.115.894a.228.228,0,0,0,.224.255h.981a.226.226,0,0,0,.222-.194m-1-4.225c-.019.373-.031.605-.048.823a.225.225,0,0,0,.224.243h.943a.225.225,0,0,0,.223-.212c.026-.4.041-.635.046-.837a.225.225,0,0,0-.224-.232h-.941a.226.226,0,0,0-.224.216m3.257,3.276c-.03.3-.062.611-.092.892a.227.227,0,0,0,.224.25h1.11a.223.223,0,0,0,.223-.211c.032-.469.043-.726.052-.9a.224.224,0,0,0-.224-.235h-1.069a.225.225,0,0,0-.224.2m.231-3.278c-.012.246-.026.588-.039.83a.226.226,0,0,0,.225.237h.957a.226.226,0,0,0,.224-.221c.008-.337.009-.582.009-.833a.224.224,0,0,0-.224-.226H165.2a.224.224,0,0,0-.224.214" transform="translate(-27.136 -18.903)" fill="#0068b6"/>
      <path id="パス_596" data-name="パス 596" d="M180.131,124.359a.526.526,0,0,1,.423-.7c1.423-.189,3.727-.86,3.727-4a2.942,2.942,0,0,0-2.31-3.214.365.365,0,0,0-.439.331c-.124,1.684-.821,8.107-4.356,8.107-2.3,0-3.039-2.577-3.039-4.313,0-4.272,3.231-6.5,6.7-6.5,3.956,0,6,2.495,6,5.746a6.252,6.252,0,0,1-1.972,4.727,7.394,7.394,0,0,1-3.688,1.46.521.521,0,0,1-.564-.341Zm-3.682-3.737c0,.344.082,1.612.821,1.612.884,0,1.632-2.223,1.952-5.243a.3.3,0,0,0-.417-.31,4.211,4.211,0,0,0-2.356,3.941" transform="translate(-30.66 -19.467)" fill="#0068b6"/>
      <path id="パス_597" data-name="パス 597" d="M197.625,112.059v-.794a.511.511,0,0,1,.509-.513h1.386a.511.511,0,0,1,.509.513v.794a.338.338,0,0,0,.336.338h4.45a.511.511,0,0,1,.509.513v1.206a.51.51,0,0,1-.509.512h-4.45a.338.338,0,0,0-.336.338v1.158a.338.338,0,0,0,.336.338h5.361a.511.511,0,0,1,.509.513v1.206a.51.51,0,0,1-.509.512h-3.749a.341.341,0,0,0-.247.571,12.556,12.556,0,0,0,4.244,3.067.512.512,0,0,1,.231.728l-.844,1.441a.5.5,0,0,1-.7.182,16.776,16.776,0,0,1-4.037-3.4.336.336,0,0,0-.6.211v3.778a.511.511,0,0,1-.509.513h-1.386a.511.511,0,0,1-.509-.513V121.48a.335.335,0,0,0-.6-.211A14.37,14.37,0,0,1,193,124.686a.506.506,0,0,1-.7-.2l-.8-1.45a.511.511,0,0,1,.223-.71,13.318,13.318,0,0,0,4.293-3.071.339.339,0,0,0-.25-.566h-3.807a.51.51,0,0,1-.509-.512v-1.206a.511.511,0,0,1,.509-.513h5.33a.338.338,0,0,0,.336-.338v-1.158a.338.338,0,0,0-.336-.338h-4.372a.51.51,0,0,1-.508-.512V112.91a.511.511,0,0,1,.508-.513h4.372a.338.338,0,0,0,.336-.338" transform="translate(-33.707 -18.902)" fill="#0068b6"/>
      <path id="パス_598" data-name="パス 598" d="M215.019,114.334h-2.459a.355.355,0,0,1-.353-.356v-1.5a.355.355,0,0,1,.353-.356h5.047a.21.21,0,0,0,.209-.211v-.763a.355.355,0,0,1,.353-.356H219.8a.355.355,0,0,1,.353.356v.763a.21.21,0,0,0,.209.211h5.14a.355.355,0,0,1,.354.356v1.5a.355.355,0,0,1-.354.356h-2.49l1.272.272a.354.354,0,0,1,.269.445,18.542,18.542,0,0,1-.752,2.144.218.218,0,0,0,.2.3h2.083a.355.355,0,0,1,.353.356v1.534a.355.355,0,0,1-.353.356h-3.912a.215.215,0,0,0-.149.37,13.867,13.867,0,0,0,4.284,2.84.358.358,0,0,1,.167.505l-.955,1.66a.355.355,0,0,1-.464.142,14.18,14.18,0,0,1-4.5-3.546.228.228,0,0,0-.4.153v3.547a.355.355,0,0,1-.353.356h-1.635a.355.355,0,0,1-.353-.356v-3.477a.229.229,0,0,0-.4-.159,15.592,15.592,0,0,1-4.429,3.477.351.351,0,0,1-.464-.139l-.98-1.7a.358.358,0,0,1,.172-.508,13.144,13.144,0,0,0,4.277-2.8.216.216,0,0,0-.152-.367h-3.881a.355.355,0,0,1-.353-.356v-1.534a.355.355,0,0,1,.353-.356h2.084a.22.22,0,0,0,.21-.275,15.205,15.205,0,0,0-.666-2.117.354.354,0,0,1,.243-.479Zm-.063,3.164h2.576a.284.284,0,0,0,.283-.285v-2.593a.284.284,0,0,0-.283-.285h-1.365a.256.256,0,0,0-.237.355,14.191,14.191,0,0,1,.677,2.071.356.356,0,0,1-.269.434Zm6.586-.867c.256-.647.515-1.48.657-1.966a.257.257,0,0,0-.245-.33h-1.514a.284.284,0,0,0-.283.285v2.593a.284.284,0,0,0,.283.285h2.922l-1.577-.391a.355.355,0,0,1-.243-.477" transform="translate(-37.239 -18.909)" fill="#0068b6"/>
      <path id="パス_599" data-name="パス 599" d="M237.86,113.57c-.045.2-.087.358-.143.549a.157.157,0,0,0,.148.2H242.5a.32.32,0,0,1,.319.321v1.569a.319.319,0,0,1-.319.32h-5.494a.167.167,0,0,0-.155.109,5.9,5.9,0,0,1-.412.9,3.873,3.873,0,0,1,1.7-.427,2.3,2.3,0,0,1,2.178,1.168,21.8,21.8,0,0,1,2.932-.916.319.319,0,0,1,.4.255l.324,1.709a.317.317,0,0,1-.248.369c-.6.121-1.51.406-2.753.809a.209.209,0,0,0-.143.211c.044.6.044,1.126.044,1.348,0,.155,0,.287,0,.408a.321.321,0,0,1-.321.318h-1.752a.321.321,0,0,1-.321-.334c.006-.15.009-.341.015-.671a.2.2,0,0,0-.291-.185c-.5.265-1.019.639-1.019,1.219,0,.8.99.84,2.432.84.975,0,2.21-.046,3.229-.147a.32.32,0,0,1,.353.317l.01,1.736a.32.32,0,0,1-.311.323c-1.144.026-2.662.05-2.87.05a11.06,11.06,0,0,1-3.89-.5,2.489,2.489,0,0,1-1.612-2.321c0-1.979,2.136-3.117,3.536-3.83a1.138,1.138,0,0,0-.722-.242,3.79,3.79,0,0,0-2.362,1.267,16.686,16.686,0,0,1-1.617,2.169.319.319,0,0,1-.461.007l-1.266-1.295a.321.321,0,0,1,0-.448,12.689,12.689,0,0,0,2.668-3.982.169.169,0,0,0-.152-.235h-1.779a.319.319,0,0,1-.318-.32v-1.569a.319.319,0,0,1,.318-.321h2.6a.158.158,0,0,0,.152-.126c.064-.3.11-.555.157-.854a.32.32,0,0,1,.332-.271l1.971.107a.322.322,0,0,1,.293.393" transform="translate(-40.766 -19.297)" fill="#0068b6"/>
      <path id="パス_600" data-name="パス 600" d="M295.187,114.445v1.3a.389.389,0,0,1-.152.313c-.719.545-2.108,1.314-2.854,1.87a.079.079,0,0,0,.054.144,4.577,4.577,0,0,1,.933-.071,3.6,3.6,0,0,1,3.858,3.905c0,2.833-2.1,4.585-5.513,4.585-2.985,0-3.862-1.581-3.862-2.677,0-1.552,1.514-2.406,2.9-2.406a2.321,2.321,0,0,1,2.557,2.221,2.445,2.445,0,0,1-.071.541,2.071,2.071,0,0,0,1.542-1.979c0-.242-.039-2.121-2.586-2.121a5.516,5.516,0,0,0-3.282,1.125,23.011,23.011,0,0,0-2.4,1.962.234.234,0,0,1-.372-.058l-.876-1.624a.386.386,0,0,1,.091-.482c.99-.827,4.354-3.375,5.45-4.3.11-.092.041-.348-.1-.345l-4.022.095a.372.372,0,0,1-.379-.373v-1.576a.372.372,0,0,1,.367-.373l8.318-.071a.394.394,0,0,1,.4.4m-3.859,9.7a.873.873,0,0,0-.905-.94c-.5,0-.849.242-.849.64,0,.6.722.669,1.146.669a2.141,2.141,0,0,0,.566-.07,1.033,1.033,0,0,0,.042-.3" transform="translate(-50.184 -19.465)" fill="#0068b6"/>
      <path id="パス_601" data-name="パス 601" d="M305.719,123.669a5.587,5.587,0,0,0,2.32-2.408.129.129,0,0,0-.178-.171c-.544.308-.977.52-1.338.688a.327.327,0,0,1-.456-.216l-.388-1.494c-.039-.152-.272-.092-.37-.054a.186.186,0,0,0-.117.172v4.207a1.259,1.259,0,0,1-1.273,1.392h-1.613a.351.351,0,0,1-.347-.3l-.231-1.65a.352.352,0,0,1,.347-.4h.477c.236,0,.44-.032.44-.443v-1.913a.208.208,0,0,0-.271-.2c-.26.082-.459.143-.667.206a.329.329,0,0,1-.423-.284l-.18-1.8a.33.33,0,0,1,.262-.358c.229-.046.476-.1,1.1-.26a.243.243,0,0,0,.181-.234v-2.37a.225.225,0,0,0-.225-.226h-.845a.33.33,0,0,1-.329-.331v-1.536a.33.33,0,0,1,.329-.332h.845a.225.225,0,0,0,.225-.226v-2.005a.331.331,0,0,1,.33-.332h1.541a.331.331,0,0,1,.33.332v2.005a.225.225,0,0,0,.224.226h.718l1.024-.968a.33.33,0,0,1,.494.051,8.314,8.314,0,0,1,.778,1.321.082.082,0,0,0,.155-.038V111.1a.266.266,0,0,1,.265-.267h1.607a.266.266,0,0,1,.265.267v6.808c0,4.983-2.072,6.781-3.47,7.769a.351.351,0,0,1-.475-.066l-1.152-1.412a.354.354,0,0,1,.093-.531m1.914-6.874a.268.268,0,0,1-.432-.13,11.968,11.968,0,0,0-.924-2.4v.925a.355.355,0,0,1-.354.357h-.506a.225.225,0,0,0-.224.226v1.69a.184.184,0,0,0,.239.176c.221-.07.349-.114.479-.16a.281.281,0,0,1,.373.261l.025,1.428c1.225-.519,1.677-.719,2.043-.9a.418.418,0,0,0,.235-.376v-1.543a.174.174,0,0,0-.287-.134Zm7.2,4.31a11.945,11.945,0,0,0-1.029-2,.108.108,0,0,0-.2.059v3.614c0,.206.016.38.2.38h.55c.239,0,.428,0,.465-1.153a.344.344,0,0,1,.445-.322l1.216.384a.349.349,0,0,1,.241.342c-.077,2.452-.6,3.263-1.628,3.263h-2.247c-.785,0-1.414-.348-1.414-1.3V111.1a.266.266,0,0,1,.265-.267h1.64a.266.266,0,0,1,.264.265l.03,3.207c0,.148.167.2.235.069a15.1,15.1,0,0,0,.844-1.873.257.257,0,0,1,.385-.133l1.406.931a.261.261,0,0,1,.1.318,13.959,13.959,0,0,1-1.819,3.138l-.892-.742a.174.174,0,0,0-.286.135V117.5a.149.149,0,0,0,.236.123l.72-.519a.263.263,0,0,1,.364.057,16.081,16.081,0,0,1,1.707,2.813.266.266,0,0,1-.082.319l-1.214.945a.324.324,0,0,1-.5-.138" transform="translate(-53.077 -18.908)" fill="#0068b6"/>
      <path id="パス_602" data-name="パス 602" d="M336.639,118.161a15.4,15.4,0,0,1-2.1,3.666c.2.569.33.916.566.916.271,0,.586-.5.858-1a.232.232,0,0,1,.424.044l.512,1.62a.678.678,0,0,1-.016.469c-.442,1.037-1.284,1.888-2.046,1.888-1.147,0-1.776-1.376-2.058-1.993a12.071,12.071,0,0,1-2.11,1.659.423.423,0,0,1-.583-.134l-1.11-1.762h-1.345a.227.227,0,0,0-.227.228v1.657a.343.343,0,0,1-.342.345h-1.578a.344.344,0,0,1-.343-.345v-1.657a.227.227,0,0,0-.227-.228h-2.692a.367.367,0,0,1-.366-.367v-1.432a.367.367,0,0,1,.366-.367h2.658a.261.261,0,0,0,.26-.262v-.282a.261.261,0,0,0-.26-.262h-2.16a.378.378,0,0,1-.377-.379v-6.209a.207.207,0,0,1,.221-.213h.251a12.884,12.884,0,0,0-.875-2.121.242.242,0,0,1,.145-.348l1.584-.438a.235.235,0,0,1,.272.115,18.634,18.634,0,0,1,.875,1.938.239.239,0,0,1-.152.313l-1.709.541h4.384a13.06,13.06,0,0,0,1.2-2.849.231.231,0,0,1,.279-.163l1.881.479a.233.233,0,0,1,.153.322c-.334.75-1.129,2.113-1.184,2.211H330a.189.189,0,0,1,.2.2v6.222a.378.378,0,0,1-.377.379h-2.159a.261.261,0,0,0-.261.262v.282a.261.261,0,0,0,.261.262H330.2a.366.366,0,0,1,.365.367v.819a14.975,14.975,0,0,0,1.477-1.218,32.109,32.109,0,0,1-.55-4.349l-.714.043a.3.3,0,0,1-.322-.305v-1.655a.3.3,0,0,1,.279-.3l.695-.056c-.016-.507-.063-2.8-.063-3.258v-.386a.308.308,0,0,1,.307-.309h1.612a.308.308,0,0,1,.307.313c0,.172-.007.374-.009.524a.106.106,0,0,0,.161.094l1.274-.753a.354.354,0,0,1,.47.1,16.906,16.906,0,0,1,1.229,2.092.36.36,0,0,1-.145.466l-1.466.85,1.266-.085a.349.349,0,0,1,.372.345l.022,1.56a.35.35,0,0,1-.324.356l-2.72.2c.063,1.076.125,1.66.189,2.167a7.485,7.485,0,0,0,.8-1.8.317.317,0,0,1,.466-.185l1.319.773a.319.319,0,0,1,.136.4m-12.358-1.791h1.069v-.934h-1.069Zm0,2.467h1.069v-.95h-1.069Zm2.87-7.99a13.327,13.327,0,0,1,.388,2.068.239.239,0,0,1-.2.264l-1.584.243a.239.239,0,0,1-.273-.212,11.374,11.374,0,0,0-.423-2.076.24.24,0,0,1,.205-.309l1.636-.147a.24.24,0,0,1,.251.17m.132,5.523H328.3v-.934h-1.021Zm0,2.467H328.3v-.95h-1.021Zm7.705-4.48a11.465,11.465,0,0,0-1.252-2.311.083.083,0,0,0-.152.046c0,.858.032,1.944.046,2.46l1.293-.088a.077.077,0,0,0,.065-.106" transform="translate(-56.671 -18.889)" fill="#0068b6"/>
      <path id="パス_603" data-name="パス 603" d="M278.748,117.1v1.487a.268.268,0,0,1-.132.232,33.925,33.925,0,0,0-2.9,2.049,2.355,2.355,0,0,1,.913-.211c1.261,0,1.305,1,1.305,1.675v.464c0,.746,0,1.028,1.189,1.028.146,0,1.135,0,2.112-.085a.267.267,0,0,1,.289.26l.056,1.85a.267.267,0,0,1-.255.278c-.458.015-1.06.034-1.782.034-1.565,0-2.9-.042-3.451-.76a2.285,2.285,0,0,1-.478-1.393v-.676c0-.366-.015-.83-.681-.83-.935,0-1.638.537-4.406,3.562a.264.264,0,0,1-.4,0l-1.283-1.5a.273.273,0,0,1,.027-.382c1.035-.9,4.148-3.565,4.794-4.114.3-.25.54-.45.751-.619a.209.209,0,0,0-.134-.373l-4.547.153a.267.267,0,0,1-.273-.27v-1.8a.267.267,0,0,1,.264-.27l8.753-.053a.267.267,0,0,1,.266.27m-.928-.931-5.534-.917a.269.269,0,0,1-.217-.327l.346-1.6a.265.265,0,0,1,.3-.206l5.516.961a.269.269,0,0,1,.213.327l-.327,1.56a.266.266,0,0,1-.3.206" transform="translate(-47.325 -19.305)" fill="#0068b6"/>
      <path id="パス_604" data-name="パス 604" d="M250.434,118.965a12.822,12.822,0,0,0,2.01-3.018.342.342,0,0,0-.179-.47l-1.343-.542a.342.342,0,0,0-.428.159,9.709,9.709,0,0,1-1.637,2.359.343.343,0,0,0,.011.481l1.075,1.049a.34.34,0,0,0,.492-.018" transform="translate(-43.8 -19.612)" fill="#0068b6"/>
      <path id="パス_605" data-name="パス 605" d="M260.029,114.887a.4.4,0,0,0-.138.551,13.825,13.825,0,0,0,2.127,2.9.472.472,0,0,0,.668-.011l.962-.987a.4.4,0,0,0,0-.555,13.667,13.667,0,0,1-1.991-2.551.119.119,0,0,1,.105-.176h1.482a.491.491,0,0,0,.489-.493v-1.173a.491.491,0,0,0-.489-.493H257.61a.118.118,0,0,1-.118-.118v-.389A.49.49,0,0,0,257,110.9h-1.5a.49.49,0,0,0-.489.492v.389a.118.118,0,0,1-.118.118h-5.65a.491.491,0,0,0-.489.493v1.173a.491.491,0,0,0,.489.493h4.011a.316.316,0,0,1,.3.382,4.317,4.317,0,0,1-1.84,2.756.458.458,0,0,0-.07.678l.922,1a.122.122,0,0,1-.021.179,11.832,11.832,0,0,1-3.141,1.611.5.5,0,0,0-.265.708l.619,1.13a.492.492,0,0,0,.6.228,17.19,17.19,0,0,0,1.684-.728.322.322,0,0,1,.378.066,8.638,8.638,0,0,0,.709.679.266.266,0,0,1-.116.459,25.708,25.708,0,0,1-3.525.571.5.5,0,0,0-.423.649l.36,1.112a.492.492,0,0,0,.519.342,24.849,24.849,0,0,0,6.055-1.388h.083a27.448,27.448,0,0,0,6.379,1.4.491.491,0,0,0,.512-.311l.532-1.3a.5.5,0,0,0-.435-.681,24.505,24.505,0,0,1-3.844-.488.123.123,0,0,1-.04-.223,10.306,10.306,0,0,0,2.085-1.823.5.5,0,0,0,.128-.334v-1.281a.493.493,0,0,0-.491-.494h-4.82c.072-.087.182-.234.277-.364a.187.187,0,0,0-.121-.3l-1.771-.492a.117.117,0,0,1-.058-.19,6.535,6.535,0,0,0,1.368-3.29.308.308,0,0,1,.307-.263h.792a.312.312,0,0,1,.311.313v1.21c0,.476,0,.524-.426.524h-.367a.453.453,0,0,0-.446.528l.27,1.419a.363.363,0,0,0,.358.305h1.477a1.185,1.185,0,0,0,1.324-1.174V114.37a.312.312,0,0,1,.311-.313h1.3a.118.118,0,0,1,.059.221Zm-5.267,5.96h3.019a.216.216,0,0,1,.119.4,10.955,10.955,0,0,1-1.461.832.449.449,0,0,1-.383,0,10.731,10.731,0,0,1-1.416-.83.218.218,0,0,1,.122-.4" transform="translate(-43.8 -18.927)" fill="#0068b6"/>
      <path id="パス_625" data-name="パス 625" d="M0,0,1.341,0l0,1.336L0,1.341Z" transform="translate(165.548 37.272) rotate(-45.025)" fill="#009fc9"/>
      <path id="パス_626" data-name="パス 626" d="M.009.009,2.682,0,2.674,2.674,0,2.682Z" transform="translate(169.31 42.013) rotate(-45)" fill="#009fc9"/>
      <path id="パス_627" data-name="パス 627" d="M.013.013,4.023,0,4.01,4.01,0,4.023Z" transform="translate(173.072 46.754) rotate(-45)" fill="#009fc9"/>
      <path id="パス_628" data-name="パス 628" d="M.009.009,2.682,0,2.674,2.674,0,2.682Z" transform="translate(169.31 51.496) rotate(-45)" fill="#009fc9"/>
      <path id="パス_629" data-name="パス 629" d="M.017.017,5.364,0,5.347,5.347,0,5.364Z" transform="translate(176.834 51.496) rotate(-45)" fill="#009fc9"/>
      <path id="パス_630" data-name="パス 630" d="M.013.013,4.023,0,4.01,4.01,0,4.023Z" transform="translate(173.072 56.237) rotate(-45)" fill="#009fc9"/>
      <path id="パス_631" data-name="パス 631" d="M.017.017,5.364,0,5.347,5.347,0,5.364Z" transform="translate(176.834 60.979) rotate(-45)" fill="#009fc9"/>
      <path id="パス_632" data-name="パス 632" d="M.013.013,4.023,0,4.01,4.01,0,4.023Z" transform="translate(173.072 65.72) rotate(-45)" fill="#009fc9"/>
      <path id="パス_633" data-name="パス 633" d="M.009.009,2.682,0,2.674,2.674,0,2.682Z" transform="matrix(0.707, -0.707, 0.707, 0.707, 169.31, 70.461)" fill="#009fc9"/>
      <path id="パス_634" data-name="パス 634" d="M.017.017,5.364,0,5.347,5.347,0,5.364Z" transform="translate(176.834 70.461) rotate(-45)" fill="#009fc9"/>
      <path id="パス_635" data-name="パス 635" d="M.013.013,4.023,0,4.01,4.01,0,4.023Z" transform="translate(173.072 75.203) rotate(-45)" fill="#009fc9"/>
      <path id="パス_636" data-name="パス 636" d="M.009.009,2.682,0,2.674,2.674,0,2.682Z" transform="translate(169.31 79.944) rotate(-45)" fill="#009fc9"/>
      <path id="パス_637" data-name="パス 637" d="M0,0,1.341,0l0,1.336L0,1.341Z" transform="translate(165.548 84.686) rotate(-45)" fill="#009fc9"/>
      <path id="パス_638" data-name="パス 638" d="M0,0,1.341,0l0,1.336L0,1.341Z" transform="matrix(0.707, -0.707, 0.707, 0.707, 146.706, 37.271)" fill="#009fc9"/>
      <path id="パス_639" data-name="パス 639" d="M.009.009,2.682,0,2.674,2.674,0,2.682Z" transform="translate(150.468 42.013) rotate(-45)" fill="#009fc9"/>
      <path id="パス_640" data-name="パス 640" d="M.013.013,4.023,0,4.01,4.01,0,4.023Z" transform="translate(154.23 46.754) rotate(-45)" fill="#009fc9"/>
      <path id="パス_641" data-name="パス 641" d="M.009.009,2.682,0,2.674,2.674,0,2.682Z" transform="translate(150.468 51.496) rotate(-45)" fill="#009fc9"/>
      <path id="パス_642" data-name="パス 642" d="M.017.017,5.364,0,5.347,5.347,0,5.364Z" transform="translate(157.992 51.496) rotate(-45)" fill="#009fc9"/>
      <path id="パス_643" data-name="パス 643" d="M.013.013,4.023,0,4.01,4.01,0,4.023Z" transform="translate(154.23 56.237) rotate(-45)" fill="#009fc9"/>
      <path id="パス_644" data-name="パス 644" d="M.017.017,5.364,0,5.347,5.347,0,5.364Z" transform="translate(157.992 60.979) rotate(-45)" fill="#009fc9"/>
      <path id="パス_645" data-name="パス 645" d="M.013.013,4.023,0,4.01,4.01,0,4.023Z" transform="translate(154.23 65.72) rotate(-45)" fill="#009fc9"/>
      <path id="パス_646" data-name="パス 646" d="M.009.009,2.682,0,2.674,2.674,0,2.682Z" transform="matrix(0.707, -0.707, 0.707, 0.707, 150.468, 70.461)" fill="#009fc9"/>
      <path id="パス_606" data-name="パス 606" d="M205.78,66.834l-4.71-4.741-4.71,4.741,4.71,4.741-4.71,4.741,4.71,4.741,4.71-4.741,4.71-4.741Z" transform="translate(-34.574 -10.597)" fill="#009fc9"/>
      <path id="パス_647" data-name="パス 647" d="M.017.017,5.364,0,5.347,5.347,0,5.364Z" transform="translate(157.992 70.461) rotate(-45)" fill="#009fc9"/>
      <path id="パス_648" data-name="パス 648" d="M.013.013,4.023,0,4.01,4.01,0,4.023Z" transform="translate(154.23 75.203) rotate(-45)" fill="#009fc9"/>
      <path id="パス_649" data-name="パス 649" d="M.009.009,2.682,0,2.674,2.674,0,2.682Z" transform="translate(150.468 79.944) rotate(-45)" fill="#009fc9"/>
      <path id="パス_650" data-name="パス 650" d="M0,0,1.341,0l0,1.336L0,1.341Z" transform="translate(146.706 84.686) rotate(-45)" fill="#009fc9"/>
      <path id="パス_651" data-name="パス 651" d="M0,0,1.341,0l0,1.336L0,1.341Z" transform="translate(127.864 37.272) rotate(-45.025)" fill="#009fc9"/>
      <path id="パス_652" data-name="パス 652" d="M.009.009,2.682,0,2.674,2.674,0,2.682Z" transform="translate(131.626 42.013) rotate(-45)" fill="#009fc9"/>
      <path id="パス_653" data-name="パス 653" d="M0,0,1.341,0l0,1.336L0,1.341Z" transform="translate(127.864 46.755) rotate(-45.025)" fill="#009fc9"/>
      <path id="パス_654" data-name="パス 654" d="M.013.013,4.023,0,4.01,4.01,0,4.023Z" transform="translate(135.388 46.754) rotate(-45)" fill="#009fc9"/>
      <path id="パス_655" data-name="パス 655" d="M.009.009,2.682,0,2.674,2.674,0,2.682Z" transform="translate(131.626 51.496) rotate(-45)" fill="#009fc9"/>
      <path id="パス_656" data-name="パス 656" d="M0,0,1.341,0l0,1.336L0,1.341Z" transform="translate(127.864 56.238) rotate(-45.025)" fill="#009fc9"/>
      <path id="パス_657" data-name="パス 657" d="M.017.017,5.364,0,5.347,5.347,0,5.364Z" transform="translate(139.15 51.496) rotate(-45)" fill="#009fc9"/>
      <path id="パス_658" data-name="パス 658" d="M.013.013,4.023,0,4.01,4.01,0,4.023Z" transform="translate(135.388 56.237) rotate(-45)" fill="#009fc9"/>
      <path id="パス_659" data-name="パス 659" d="M.009.009,2.682,0,2.674,2.674,0,2.682Z" transform="matrix(0.707, -0.707, 0.707, 0.707, 131.626, 60.979)" fill="#009fc9"/>
      <path id="パス_660" data-name="パス 660" d="M0,0,1.341,0l0,1.337L0,1.341Z" transform="translate(127.864 65.72) rotate(-45.025)" fill="#009fc9"/>
      <path id="パス_661" data-name="パス 661" d="M.017.017,5.364,0,5.347,5.347,0,5.364Z" transform="translate(139.15 60.979) rotate(-45)" fill="#009fc9"/>
      <path id="パス_662" data-name="パス 662" d="M.013.013,4.023,0,4.01,4.01,0,4.023Z" transform="translate(135.388 65.72) rotate(-45)" fill="#009fc9"/>
      <path id="パス_663" data-name="パス 663" d="M.009.009,2.682,0,2.674,2.674,0,2.682Z" transform="matrix(0.707, -0.707, 0.707, 0.707, 131.626, 70.461)" fill="#009fc9"/>
      <path id="パス_664" data-name="パス 664" d="M0,0,1.341,0l0,1.336L0,1.341Z" transform="translate(127.864 75.203) rotate(-45.025)" fill="#009fc9"/>
      <path id="パス_607" data-name="パス 607" d="M182.912,66.834l-4.71-4.741-4.71,4.741,4.71,4.741-4.71,4.741,4.71,4.741,4.71-4.741,4.71-4.741Z" transform="translate(-30.547 -10.597)" fill="#009fc9"/>
      <path id="パス_665" data-name="パス 665" d="M.017.017,5.364,0,5.347,5.347,0,5.364Z" transform="translate(139.15 70.461) rotate(-45)" fill="#009fc9"/>
      <path id="パス_666" data-name="パス 666" d="M.013.013,4.023,0,4.01,4.01,0,4.023Z" transform="translate(135.388 75.203) rotate(-45)" fill="#009fc9"/>
      <path id="パス_667" data-name="パス 667" d="M.009.009,2.682,0,2.674,2.674,0,2.682Z" transform="translate(131.626 79.944) rotate(-45)" fill="#009fc9"/>
      <path id="パス_668" data-name="パス 668" d="M0,0,1.341,0l0,1.336L0,1.341Z" transform="matrix(0.707, -0.707, 0.707, 0.707, 127.864, 84.686)" fill="#009fc9"/>
      <path id="パス_608" data-name="パス 608" d="M229.2,67.389h0l-5.262-5.3-4.71,4.741,4.71,4.741-4.71,4.741,4.71,4.741,4.71-4.741,4.71-4.741Z" transform="translate(-38.6 -10.597)" fill="#009fc9"/>
      <path id="パス_609" data-name="パス 609" d="M180.687,18.629a.717.717,0,0,1,.665.974,13.646,13.646,0,0,1-12.913,8.671A14.062,14.062,0,0,1,154.249,14.1a14.065,14.065,0,0,1,27.12-5.269.715.715,0,0,1-.67.962h-4.321a.693.693,0,0,1-.619-.367,8.385,8.385,0,0,0-7.393-4.6c-5.267,0-8.668,4.454-8.668,9.277,0,4.969,3.548,9.35,8.7,9.35a8.423,8.423,0,0,0,7.336-4.458.711.711,0,0,1,.617-.363Z" transform="translate(-27.159 0)" fill="#0068b6"/>
      <path id="パス_610" data-name="パス 610" d="M190.7,27.151V1.336A.711.711,0,0,1,191.4.623h4.032a.711.711,0,0,1,.709.713v9.8a.414.414,0,0,0,.413.415h9.6a.415.415,0,0,0,.414-.415v-9.8a.711.711,0,0,1,.709-.713h4.032a.711.711,0,0,1,.709.713V27.151a.711.711,0,0,1-.709.713h-4.032a.711.711,0,0,1-.709-.713V16.795a.415.415,0,0,0-.414-.416h-9.6a.415.415,0,0,0-.413.416V27.151a.711.711,0,0,1-.709.713H191.4a.711.711,0,0,1-.709-.713" transform="translate(-33.576 -0.106)" fill="#0068b6"/>
      <path id="パス_611" data-name="パス 611" d="M224.655,27.864h-4.7a.563.563,0,0,1-.518-.775l10.5-26.072a.626.626,0,0,1,.58-.394h3.942a.626.626,0,0,1,.583.4L245.3,27.093a.563.563,0,0,1-.521.771h-4.748a.56.56,0,0,1-.525-.367l-1.767-4.779a.3.3,0,0,0-.276-.192H227.191a.3.3,0,0,0-.276.194l-1.734,4.774a.56.56,0,0,1-.526.37m7.258-19.79-3.333,9.584a.366.366,0,0,0,.344.487h6.76a.365.365,0,0,0,.342-.489L232.6,8.071a.363.363,0,0,0-.686,0" transform="translate(-38.629 -0.106)" fill="#0068b6"/>
      <path id="パス_612" data-name="パス 612" d="M271.029,18.561l-.1-17.195a.737.737,0,0,1,.734-.743h3.757a.737.737,0,0,1,.735.739V27.118a.745.745,0,0,1-.742.746h-3.689a.74.74,0,0,1-.618-.333L259.376,9.8a.281.281,0,0,0-.515.158l.1,17.16a.738.738,0,0,1-.736.745h-3.754a.738.738,0,0,1-.736-.741V1.272a.648.648,0,0,1,.646-.649h3.872a.642.642,0,0,1,.537.291l11.725,17.8a.279.279,0,0,0,.513-.158" transform="translate(-44.676 -0.106)" fill="#0068b6"/>
      <path id="パス_613" data-name="パス 613" d="M305.768,8.872a.785.785,0,0,1-.642-.343,8.785,8.785,0,0,0-1.781-1.9,8.151,8.151,0,0,0-5.193-1.8,8.807,8.807,0,0,0-8.777,9.24c0,6.149,4.462,9.387,8.777,9.387a8.912,8.912,0,0,0,5.376-1.655,7.2,7.2,0,0,0,2.586-3.472.485.485,0,0,0-.45-.651H297a.787.787,0,0,1-.784-.79V14.042a.787.787,0,0,1,.784-.79H311.85a.757.757,0,0,1,.759.765,15.975,15.975,0,0,1-1.218,6.083c-2.524,5.669-8.339,8.172-13.2,8.172a14.067,14.067,0,0,1-14.264-14.211A13.982,13.982,0,0,1,298.262,0a14.3,14.3,0,0,1,12.774,7.753.789.789,0,0,1-.715,1.12Z" transform="translate(-49.992)" fill="#0068b6"/>
      <path id="パス_614" data-name="パス 614" d="M322.232.623h13.677a.753.753,0,0,1,.751.755V4.691a.753.753,0,0,1-.751.755h-8.538a.441.441,0,0,0-.44.443v5.3a.441.441,0,0,0,.44.443h8.355a.752.752,0,0,1,.75.755V15.7a.752.752,0,0,1-.75.755h-8.355a.441.441,0,0,0-.44.443v5.7a.441.441,0,0,0,.44.443h8.538a.753.753,0,0,1,.751.755v3.313a.753.753,0,0,1-.751.755H322.232a.752.752,0,0,1-.75-.755V1.378a.752.752,0,0,1,.75-.755" transform="translate(-56.604 -0.106)" fill="#0068b6"/>
      <path id="パス_615" data-name="パス 615" d="M242.464,70.816a.7.7,0,0,1,.695-.7H250.8a9.875,9.875,0,0,1,5.926,1.519,6.882,6.882,0,0,1-.716,11.587,6.973,6.973,0,0,1,5.094,6.952,7.34,7.34,0,0,1-3.4,6.422c-1.963,1.367-3.623,1.633-7.057,1.633h-7.5a.7.7,0,0,1-.695-.7Zm4.453,10.611a.351.351,0,0,0,.351.352h3.311a6.749,6.749,0,0,0,2.831-.455,3.587,3.587,0,0,0,1.887-3.458,3.514,3.514,0,0,0-1.887-3.3,6.44,6.44,0,0,0-2.945-.493h-3.2a.351.351,0,0,0-.351.352Zm0,12.5a.351.351,0,0,0,.351.352h4.14a8.287,8.287,0,0,0,2.983-.455,4.318,4.318,0,0,0,0-7.788,7.928,7.928,0,0,0-3.359-.494h-3.764a.352.352,0,0,0-.351.353Z" transform="translate(-42.691 -11.967)" fill="#0068b6"/>
      <path id="パス_616" data-name="パス 616" d="M270.737,70.116H273.8a.7.7,0,0,1,.695.7v23.11a.351.351,0,0,0,.351.352h8.805a.7.7,0,0,1,.7.7V97.53a.7.7,0,0,1-.7.7H270.7a.662.662,0,0,1-.66-.664V70.815a.7.7,0,0,1,.694-.7" transform="translate(-47.547 -11.967)" fill="#0068b6"/>
      <path id="パス_617" data-name="パス 617" d="M294.6,70.116a.7.7,0,0,1,.695.7V87.667a8.371,8.371,0,0,0,1.019,4.9,4.961,4.961,0,0,0,4.3,2.242,4.763,4.763,0,0,0,4.227-2.165c1.058-1.6,1.058-3.154,1.058-4.978V70.815a.7.7,0,0,1,.694-.7h3.027a.7.7,0,0,1,.695.7V87.667c.038,3.724-.566,6.572-3.019,8.624a9.589,9.589,0,0,1-6.643,2.469A9.907,9.907,0,0,1,293.9,96.33c-2.755-2.47-3.095-5.243-3.058-8.662V70.815a.7.7,0,0,1,.695-.7Z" transform="translate(-51.209 -11.967)" fill="#0068b6"/>
      <path id="パス_618" data-name="パス 618" d="M321.633,70.116h14.237a.7.7,0,0,1,.695.7v2.553a.7.7,0,0,1-.695.7H325.742a.351.351,0,0,0-.35.352v7.272a.351.351,0,0,0,.35.352h9.977a.7.7,0,0,1,.695.7v2.515a.7.7,0,0,1-.695.7h-9.977a.351.351,0,0,0-.35.352v7.615a.351.351,0,0,0,.35.352h10.128a.7.7,0,0,1,.695.7V97.53a.7.7,0,0,1-.695.7H321.633a.7.7,0,0,1-.695-.7V70.815a.7.7,0,0,1,.695-.7" transform="translate(-56.509 -11.967)" fill="#0068b6"/>
      <path id="パス_619" data-name="パス 619" d="M242.814,42.871h7.442a.35.35,0,0,1,.349.351v1.506a.35.35,0,0,1-.349.351h-5.123a.179.179,0,0,0-.179.18v4.225a.18.18,0,0,0,.179.18h5.039a.349.349,0,0,1,.349.351V51.5a.35.35,0,0,1-.349.352h-5.039a.179.179,0,0,0-.179.18v6.2a.351.351,0,0,1-.349.352h-1.79a.35.35,0,0,1-.349-.352v-15a.349.349,0,0,1,.349-.351" transform="translate(-42.692 -7.317)" fill="#0068b6"/>
      <path id="パス_620" data-name="パス 620" d="M254.491,50.748a8.055,8.055,0,1,1,0,.021Zm2.468-.085a5.937,5.937,0,1,0,0-.021Z" transform="translate(-44.809 -7.255)" fill="#0068b6"/>
      <path id="パス_621" data-name="パス 621" d="M276.751,43.22a.348.348,0,0,1,.347-.349h4.06c2.446,0,3.712.339,4.534.913a5.057,5.057,0,0,1,2.066,4.245,5.323,5.323,0,0,1-.886,2.993,4.132,4.132,0,0,1-2.834,1.685.126.126,0,0,0-.083.191l3.233,5.144a.349.349,0,0,1-.293.537h-1.811a.346.346,0,0,1-.3-.168s-3.913-6.486-3.989-6.607.021-.313.137-.313h.221a5.019,5.019,0,0,0,3.121-.679,3.346,3.346,0,0,0,1.076-2.568,3.225,3.225,0,0,0-1.329-2.653,4.927,4.927,0,0,0-2.657-.509h-1.936a.194.194,0,0,0-.194.195V58.229a.349.349,0,0,1-.347.349H277.1a.349.349,0,0,1-.347-.349Z" transform="translate(-48.728 -7.317)" fill="#0068b6"/>
      <path id="パス_622" data-name="パス 622" d="M301.1,45.079h-3.035a.357.357,0,0,1-.355-.359V43.23a.357.357,0,0,1,.355-.359h8.945a.358.358,0,0,1,.356.359V44.72a.358.358,0,0,1-.356.359h-3.033a.194.194,0,0,0-.194.2V58.219a.358.358,0,0,1-.357.359H301.65a.358.358,0,0,1-.357-.359V45.274a.2.2,0,0,0-.194-.2" transform="translate(-52.418 -7.317)" fill="#0068b6"/>
      <path id="パス_623" data-name="パス 623" d="M311.7,58.219V43.23a.358.358,0,0,1,.357-.359h1.775a.358.358,0,0,1,.357.359V49.3a.19.19,0,0,0,.19.192h6.346a.19.19,0,0,0,.19-.192V43.23a.358.358,0,0,1,.357-.359h1.776a.357.357,0,0,1,.356.359V58.219a.357.357,0,0,1-.356.359h-1.776a.358.358,0,0,1-.357-.359V51.892a.191.191,0,0,0-.19-.192h-6.346a.191.191,0,0,0-.19.192v6.327a.358.358,0,0,1-.357.359h-1.775a.358.358,0,0,1-.357-.359" transform="translate(-54.883 -7.317)" fill="#0068b6"/>
      <path id="パス_624" data-name="パス 624" d="M329.665,42.871h8.016a.358.358,0,0,1,.357.359V44.72a.358.358,0,0,1-.357.359h-5.694a.191.191,0,0,0-.19.192v4.075a.191.191,0,0,0,.19.192h5.61a.357.357,0,0,1,.357.358v1.469a.357.357,0,0,1-.357.358h-5.61a.191.191,0,0,0-.19.192v4.265a.191.191,0,0,0,.19.192h5.694a.358.358,0,0,1,.357.359v1.489a.358.358,0,0,1-.357.359h-8.016a.358.358,0,0,1-.357-.359V43.23a.358.358,0,0,1,.357-.359" transform="translate(-57.982 -7.317)" fill="#0068b6"/>
    </g>
  </g>
</svg>
