<svg xmlns="http://www.w3.org/2000/svg" xmlns:xlink="http://www.w3.org/1999/xlink" width="60" height="60" viewBox="0 0 60 60">
  <defs>
    <style>
      .cls-1 {
        fill: #fff;
        fill-rule: evenodd;
        filter: url(#filter);
      }
    </style>
    <filter id="filter" x="750" y="1671" width="60" height="60" filterUnits="userSpaceOnUse">
      <feGaussianBlur result="blur" stdDeviation="3.333" in="SourceAlpha"/>
      <feComposite result="composite"/>
      <feComposite result="composite-2"/>
      <feComposite result="composite-3"/>
      <feFlood result="flood" flood-color="#43dbf2" flood-opacity="0.75"/>
      <feComposite result="composite-4" operator="in" in2="composite-3"/>
      <feBlend result="blend" in2="SourceGraphic"/>
      <feBlend result="blend-2" in="SourceGraphic"/>
    </filter>
  </defs>
  <path id="icon_instagram.svg" class="cls-1" d="M779.555,1689.72a10.39,10.39,0,1,0,10.392,10.39A10.442,10.442,0,0,0,779.555,1689.72Zm0,17.1a6.705,6.705,0,1,1,6.705-6.71A6.727,6.727,0,0,1,779.555,1706.82Zm10.727-19.78a2.345,2.345,0,1,0,2.347,2.35A2.289,2.289,0,0,0,790.282,1687.04Zm9.219,4.86a12.019,12.019,0,0,0-1.006-4.86,7.512,7.512,0,0,0-2.179-3.69,10.008,10.008,0,0,0-3.52-2.34,22.439,22.439,0,0,0-4.86-1.01h-8.381c-5.531,0-6.2,0-8.212.17a12.029,12.029,0,0,0-4.861,1,7.578,7.578,0,0,0-3.687,2.18,10.044,10.044,0,0,0-2.347,3.52,17.593,17.593,0,0,0-.837,5.03c-0.168,2.01-.168,2.68-0.168,8.21s0,6.2.168,8.22a12.053,12.053,0,0,0,1,4.86,7.489,7.489,0,0,0,2.179,3.68,9.9,9.9,0,0,0,3.52,2.35,23.05,23.05,0,0,0,4.86,1.01h8.38c5.531,0,6.2,0,8.213-.17a12.038,12.038,0,0,0,4.861-1.01,10.1,10.1,0,0,0,5.866-5.86,22.84,22.84,0,0,0,1.006-4.86c0.167-2.02.167-2.69,0.167-8.22S799.668,1693.91,799.5,1691.9Zm-3.688,16.26a8.974,8.974,0,0,1-.67,3.68,6.714,6.714,0,0,1-3.855,3.86,9.606,9.606,0,0,1-3.688.67c-2.178.17-2.681,0.17-8.045,0.17s-6.033,0-8.044-.17a9.068,9.068,0,0,1-3.688-.67,7.111,7.111,0,0,1-2.346-1.51,7.026,7.026,0,0,1-1.509-2.35,9.514,9.514,0,0,1-.67-3.68c-0.168-2.18-.168-2.68-0.168-8.05s0-6.03.168-8.04a9.022,9.022,0,0,1,.67-3.69,7.026,7.026,0,0,1,1.509-2.35,7.111,7.111,0,0,1,2.346-1.51,9.606,9.606,0,0,1,3.688-.67c2.011-.16,2.681-0.16,8.044-0.16s6.034,0,8.045.16a9.065,9.065,0,0,1,3.688.67,7.111,7.111,0,0,1,2.346,1.51,7.01,7.01,0,0,1,1.509,2.35,9.53,9.53,0,0,1,.67,3.69c0.168,2.18.168,2.68,0.168,8.04S795.981,1706.15,795.813,1708.16Z" transform="translate(-750 -1671)"/>
</svg>
