<svg xmlns="http://www.w3.org/2000/svg" width="309.28" height="141.632" viewBox="0 0 309.28 141.632">
  <path id="パス_696" data-name="パス 696" d="M-78.176-6.176h1.184v-19.68h8.608v-1.12h-9.792ZM-58.56-4.9c-.7.96-1.152,1.408-1.984,1.408-.864,0-1.5-1.44-1.152-2.816.544-2.048,3.168-3.9,6.592-4.416C-56.32-8.544-57.792-5.92-58.56-4.9Zm15.136-9.344a4.847,4.847,0,0,1,1.216.448.921.921,0,0,1,.512.992,9.773,9.773,0,0,1-.288,2.976,24.667,24.667,0,0,0-10.368-2.368h-.16l.064-.128a75.421,75.421,0,0,1,4.992-7.552c.7-.864,1.856-1.184,1.856-1.856,0-.736-1.824-2.016-2.688-2.016-.512,0-.672.512-1.792.864a29.755,29.755,0,0,1-5.664,1.28c-.928,0-1.248-.8-1.728-1.664l-.608.192a5.621,5.621,0,0,0,.192,1.7A3.553,3.553,0,0,0-55.3-19.328c.576,0,1.024-.512,1.568-.736,1.216-.512,3.2-1.28,4.352-1.664.416-.128.576.032.32.544-.768,1.472-3.648,6.08-5.152,8.832l-.16.288c-4.1.576-7.872,2.784-8.544,5.888-.448,2.272.544,4.992,2.336,4.992,1.472,0,2.4-.8,3.392-2.24.928-1.28,2.56-4.768,3.968-7.456h.064a18.575,18.575,0,0,1,10.56,3.04c-1.6,4.256-5.248,7.488-10.336,9.056l.48.736C-46.624.64-42.688-2.272-40.9-6.688c2.4,1.728,3.264,3.072,4.064,3.072a.824.824,0,0,0,.9-.9A2.29,2.29,0,0,0-36.7-6.368,17.373,17.373,0,0,0-40.224-8.9c.256-1.12.448-2.272.544-2.88a16.647,16.647,0,0,0,.256-1.76c0-.608-1.28-1.376-2.272-1.5a4.336,4.336,0,0,0-1.7.192Zm25.568-8.768c.416.288.512.736.1,1.536-1.152,2.112-5.984,10.048-8.768,14.88-1.664,2.88-2.912,4.864-2.912,6.016,0,.9.512,1.472,1.088,1.472.608,0,.928-.384,1.216-1.088.448-1.152,1.056-3.04,2.016-5.088,1.536-3.136,4.256-6.08,7.3-6.08,1.856,0,2.4,1.12,2.4,2.528,0,1.888-.288,3.84-.256,5.6,0,2.88,1.664,4.256,4.352,4.256,3.232,0,7.1-2.112,8.48-9.152l-.7-.224c-1.408,3.776-3.84,7.3-7.392,7.3A2.331,2.331,0,0,1-13.6-3.712c0-1.472.16-3.392.128-4.9-.032-2.56-1.312-3.9-3.936-3.9a9.138,9.138,0,0,0-4.416,1.536c-.256.16-.416,0-.256-.256a82.877,82.877,0,0,1,5.92-8.576c.8-.992,1.7-1.184,1.7-1.824,0-.992-1.376-2.368-2.848-2.72a5.651,5.651,0,0,0-2.208-.16l-.192.64A6.607,6.607,0,0,1-17.856-23.008ZM9.824-24.32a9.274,9.274,0,0,1,1.5.512c.544.224.7.48.672,1.152a26.6,26.6,0,0,1-.576,3.456,12.152,12.152,0,0,1-2.72.352c-2.208,0-2.912-.7-4.288-1.856l-.576.448c1.024,2.272,2.112,3.168,4.512,3.168a17.464,17.464,0,0,0,2.528-.192A37.483,37.483,0,0,1,4.8-6.08a2.428,2.428,0,0,0-.576,1.536c0,.576.288,1.248.928,1.248.608,0,.992-.512,1.44-1.152,2.624-3.808,4.928-9.7,6.048-13.152A22.242,22.242,0,0,0,17.7-19.232c.352-.192,1.088-.64,1.088-1.216a1.091,1.091,0,0,0-1.184-.96c-.608,0-1.248.768-4.32,1.728,1.184-4.1,1.312-4.672.768-4.992a4.757,4.757,0,0,0-2.336-.544,6.005,6.005,0,0,0-1.888.384Zm10.4,20.448c0,1.888-.7,3.424-3.776,3.424-2.336,0-3.424-.9-3.424-2.016,0-1.152,1.536-2.368,4.448-2.368a14.9,14.9,0,0,1,2.752.256Zm1.024-14.656a6.175,6.175,0,0,1,3.68.96c.544.416.672.832,0,1.184a10.05,10.05,0,0,0-3.552,2.048,5.184,5.184,0,0,0-1.536,4c0,1.248.16,2.688.256,4.1-.448-.032-.928-.064-1.44-.064-4.256,0-6.848,1.792-6.848,4.224,0,1.856,1.792,3.488,5.12,3.488,3.264,0,5.216-1.536,5.216-4.192,0-.384-.032-.8-.064-1.28a12.78,12.78,0,0,1,4.512,2.912c.7.64,1.088,1.184,1.7,1.184.512,0,.8-.384.8-1.024,0-.8-.672-1.7-2.208-2.688a14.8,14.8,0,0,0-4.992-2.24c-.256-1.92-.576-3.936-.608-4.9a3.736,3.736,0,0,1,.8-2.88,4.941,4.941,0,0,1,2.976-1.248c1.376-.1,1.92.416,2.656.416.608,0,.928-.416.928-1.152,0-1.28-.992-2.528-2.944-3.264a9.066,9.066,0,0,0-4.416-.384Zm14.464-1.12a7.851,7.851,0,0,0,.128,1.472,3.97,3.97,0,0,0,3.072,2.5,5.372,5.372,0,0,0,1.952-.8,67.579,67.579,0,0,1,10.048-3.264c.352-.1.384.1.16.288a13.412,13.412,0,0,0-4.8,10.848c0,3.616,1.056,5.536,3.072,7.008C51.52.064,54.688.192,56.544.192c1.44,0,2.3-.288,2.3-1.056,0-.8-1.056-1.344-1.824-1.344-1.312,0-4.128.192-6.208-1.056-1.28-.8-2.72-2.24-2.72-5.728,0-6.4,3.2-9.376,4.64-10.24a10.741,10.741,0,0,1,5.376-1.184c1.184,0,2.144.1,2.752.1.7,0,1.088-.384,1.088-.832s-.256-.8-.96-1.12a6.514,6.514,0,0,0-2.272-.352,43.19,43.19,0,0,0-7.264,1.312C46.176-20.1,40-18.24,38.336-18.24a2.855,2.855,0,0,1-2.016-1.6Zm22.656,2.112a16.184,16.184,0,0,1,2.976,2.56c.672.8.992,1.536,1.5,1.536.48,0,.736-.288.736-.832A2.538,2.538,0,0,0,62.4-16.256a12.849,12.849,0,0,0-3.616-1.856ZM55.52-15.424a18.1,18.1,0,0,1,2.944,2.784c.64.832.992,1.568,1.472,1.568A.741.741,0,0,0,60.7-11.9a2.672,2.672,0,0,0-1.088-1.92,12.163,12.163,0,0,0-3.648-2.144ZM-156.1,40.768a21.973,21.973,0,0,0,5.184-6.016h14.944c.448,0,.736-.16.832-.512-1.024-.96-2.72-2.3-2.72-2.3l-1.472,1.856h-11.04c.48-.928.96-1.888,1.376-2.912.64.032,1.056-.192,1.184-.576l-3.2-1.12a30.957,30.957,0,0,1-5.5,11.232Zm-5.984-10.976a11.068,11.068,0,0,1,3.488,4.16c2.24,1.312,3.648-3.168-3.168-4.448Zm-2.464,7.36a8.846,8.846,0,0,1,3.392,4c2.208,1.312,3.616-3.2-3.1-4.288Zm8.672-2.112c-5.408,12.608-5.408,12.608-5.92,13.728-.288.64-.384.64-.8.64H-164v.7a2.847,2.847,0,0,1,1.568.48c.736.48.864,3.008.448,6.3.1.992.416,1.6.992,1.6,1.056,0,1.664-.832,1.728-2.208.128-2.624-.8-4.16-.8-5.568a10.38,10.38,0,0,1,.48-2.752c.448-1.5,3.008-8.864,4.32-12.768Zm9.856,16.864c.224-1.664.512-3.84.768-6.08h4.672a56.523,56.523,0,0,1-.672,6.08Zm-1.152-6.08c-.288,2.208-.608,4.384-.864,6.08H-152.7c.352-1.952.7-4.064,1.056-6.08Zm.8-6.816c-.16,1.7-.416,3.776-.672,5.888h-4.448c.352-2.24.672-4.32.928-5.888Zm6.144,0c-.064,2.144-.16,4.1-.288,5.888h-4.64c.224-2.08.448-4.16.608-5.888Zm5.12,6.816c.448,0,.736-.16.832-.512-.96-.96-2.5-2.24-2.5-2.24l-1.376,1.824h-.384c.1-1.7.192-3.584.256-5.632a1.937,1.937,0,0,0,1.312-.512l-2.368-2.016-1.184,1.376h-9.472l-2.336-1.12c-.288,2.048-.7,4.864-1.248,7.9h-4.224l.256.928h3.84c-.576,3.3-1.248,6.752-1.856,9.536a2.8,2.8,0,0,0,2.208-.1q.24-1.1.48-2.4h11.456a5.647,5.647,0,0,1-1.024,2.656,1.523,1.523,0,0,1-1.248.416c-.7,0-2.912-.224-4.256-.352v.608a8.646,8.646,0,0,1,2.944.832,1.65,1.65,0,0,1,.576,1.408,4.629,4.629,0,0,0,3.52-1.344,9.2,9.2,0,0,0,1.5-4.224h4c.416,0,.736-.16.8-.512-.9-.96-2.528-2.368-2.528-2.368L-138.5,51.9h-.736c.256-1.664.48-3.68.64-6.08Zm16-16.32a14.074,14.074,0,0,1,3.1,5.44c2.208,1.664,4.032-2.912-2.752-5.7Zm-9.6.544a10.77,10.77,0,0,1,3.68,4.224c2.368,1.312,3.616-3.488-3.392-4.512ZM-131.36,37.5a9.551,9.551,0,0,1,3.584,3.84c2.336,1.28,3.52-3.36-3.3-4.16Zm9.344-2.88c-5.568,13.12-5.568,13.12-6.176,14.272-.256.608-.384.64-.768.64h-1.408v.7a2.843,2.843,0,0,1,1.568.448c.672.48.864,2.976.448,6.208.064.992.416,1.568,1.024,1.568,1.088,0,1.7-.832,1.728-2.176.128-2.592-.768-4.064-.768-5.472a11.492,11.492,0,0,1,.48-2.848c.416-1.536,3.072-9.12,4.48-13.184Zm16.16,14.912h-5.44V43.488h7.616a.806.806,0,0,0,.864-.512c-1.056-.992-2.72-2.3-2.72-2.3l-1.5,1.856H-111.3V36.864h8.512c.48,0,.768-.16.832-.512-1.024-.928-2.72-2.272-2.72-2.272l-1.536,1.888h-4a41.257,41.257,0,0,0,4.224-5.184c.672,0,1.088-.256,1.216-.608l-3.552-1.056a53.452,53.452,0,0,1-2.72,6.848h-10.3l.256.9h7.68v5.664h-7.52l.256.96h7.264v6.048h-9.312l.256.96h9.056v7.968h.352a2.069,2.069,0,0,0,1.76-.672V50.5h8.9a.727.727,0,0,0,.8-.512c-1.024-.992-2.784-2.368-2.784-2.368Zm22.112-11.488A15.062,15.062,0,0,1-84.9,42.976c-1.312,3.04-4.256,8.1-6.368,8.1-1.312,0-2.72-2.336-2.72-5.408a10.3,10.3,0,0,1,3.3-7.392A12.173,12.173,0,0,1-84.64,35.1,5.585,5.585,0,0,1-83.744,38.048Zm-.544,18.08C-73.824,55.456-70.5,50.016-70.5,44.7c0-6.624-5.088-10.944-11.68-10.944a13.835,13.835,0,0,0-9.344,3.424,12.292,12.292,0,0,0-4.256,8.992c0,3.936,2.24,7.328,4.384,7.328,3.264,0,6.976-6.208,8.32-10.048A16.041,16.041,0,0,0-82.08,38.3a5.972,5.972,0,0,0-1.376-3.392c.384-.032.768-.064,1.152-.064,5.28,0,9.5,3.648,9.5,9.344,0,5.792-3.776,9.824-11.616,11.2Zm47.968-13.44c.448,0,.8-.16.864-.512-1.152-1.024-3.008-2.464-3.008-2.464l-1.664,2.016h-8.8v-5.76h10.272c.448,0,.768-.16.864-.512-1.12-1.024-2.88-2.368-2.88-2.368l-1.6,1.952h-6.656V30.432c.8-.128,1.056-.448,1.12-.9l-3.264-.384V35.04H-61.824l.224.928h10.528v5.76H-64.32l.256.96h11.2a35.965,35.965,0,0,1-11.968,13.12l.352.48a33.33,33.33,0,0,0,13.408-12.1V58.5h.416c.832,0,1.728-.544,1.728-.864V42.688h.1A27.489,27.489,0,0,0-37.024,56.032,2.414,2.414,0,0,1-35.04,54.3l.064-.352A28.051,28.051,0,0,1-48.1,42.688Zm33.344,1.856c.448,0,.768-.16.832-.512-1.152-1.056-3.008-2.464-3.008-2.464l-1.664,2.048h-8.832V35.2H-4.384c.448,0,.768-.16.832-.512-1.12-1.024-2.912-2.368-2.912-2.368l-1.6,1.952h-7.584v-3.84c.8-.128,1.056-.448,1.12-.9l-3.264-.384v5.12H-29.6l.288.928h11.52v8.416H-31.136l.256.928H-19.3a35.2,35.2,0,0,1-12.224,11.9l.352.512A33.6,33.6,0,0,0-17.792,46.3V58.5h.416c.832,0,1.728-.544,1.728-.864V44.96a25.865,25.865,0,0,0,11.9,11.584,2.385,2.385,0,0,1,1.92-1.792l.064-.288a27.738,27.738,0,0,1-13.376-9.92Zm-23.008-8.512c1.216,1.632,2.624,4.192,2.752,6.24,2.144,1.888,4.224-2.976-2.4-6.432Zm13.216,6.944a29.038,29.038,0,0,0,4.96-5.248,1.068,1.068,0,0,0,1.184-.48l-3.1-1.376a40.258,40.258,0,0,1-3.488,6.784Zm37.28-4.032a4.54,4.54,0,0,1,1.568,1.088c.448.512.384.8-.16,1.088-1.92,1.024-5.184,2.336-7.776,3.744-.32-2.4-1.536-3.776-3.552-3.776a8.115,8.115,0,0,0-3.52,1.088c-.224.128-.32-.032-.192-.192a38,38,0,0,0,3.072-4.512A37.485,37.485,0,0,0,21.664,35.1c.608-.288.9-.576.9-.992,0-.608-.672-.864-1.376-.864-.48,0-.7.288-2.048.9a31.536,31.536,0,0,1-4.16,1.376c.384-.8.8-1.6,1.024-2.112.352-.7.608-.928.608-1.376,0-.768-2.08-1.312-3.072-1.312a6.848,6.848,0,0,0-1.824.32v.608A6.3,6.3,0,0,1,13.5,32.1c.64.256.736.48.576,1.056a12.521,12.521,0,0,1-1.056,2.816,15.521,15.521,0,0,1-2.848.32c-2.368,0-2.912-.672-4.192-2.016l-.672.416c1.28,2.528,1.824,3.232,4.448,3.232a19.473,19.473,0,0,0,2.3-.16,30.869,30.869,0,0,1-4.48,5.856c-1.44,1.536-2.624,2.336-2.624,3.2,0,.8.448,1.28,1.088,1.28.768-.032,1.664-1.536,2.784-2.752,1.344-1.408,3.456-3.2,5.248-3.2,1.664,0,2.272.992,2.4,3.712-3.744,2.368-6.656,4.928-6.656,7.456s1.952,4.384,7.9,4.384a34.906,34.906,0,0,0,7.168-.864c1.024-.288,1.184-.7,1.184-1.184,0-.608-.576-.992-1.7-.992-1.536,0-3.392.992-8.128.992-3.04,0-5.088-.768-5.088-2.56,0-1.888,2.24-3.936,5.344-5.7-.032,1.728-.16,3.456-.16,4.224,0,.864.512,1.216,1.056,1.216.64,0,.992-.48.992-1.248,0-1.024,0-3.36-.1-5.184a61.737,61.737,0,0,1,9.12-3.616c1.248-.384,1.568-.48,1.568-1.056a3.735,3.735,0,0,0-1.728-2.5,5.4,5.4,0,0,0-2.368-.864Zm21.344-4.32c-.8,5.376-3.36,8.544-9.728,10.816l.16.48c7.52-1.792,10.944-4.992,12.032-11.3h4v7.2c0,1.568.448,2.08,2.88,2.08h3.3c4.832,0,5.76-.384,5.76-1.312,0-.416-.16-.672-.864-.928l-.1-3.552H62.88a17.726,17.726,0,0,1-.928,3.456c-.128.288-.224.352-.576.384-.448.032-1.5.032-2.784.032H55.648c-1.12,0-1.248-.1-1.248-.544V34.624h6.208a43.582,43.582,0,0,1-2.272,4.1l.416.224a27.431,27.431,0,0,0,4.608-3.936c.608-.032,1.024-.064,1.216-.32l-2.528-2.432L60.64,33.664H51.008V30.3c.736-.1,1.056-.416,1.12-.832l-3.264-.352v4.544H39.808a12.318,12.318,0,0,0-.384-1.952h-.576a6.985,6.985,0,0,1-2.272,5.664c-.672.448-1.056,1.152-.7,1.792.416.7,1.568.544,2.336-.128a5.532,5.532,0,0,0,1.664-4.416Zm14.272,21.6h-9.12V48.256H61.44a.766.766,0,0,0,.832-.512c-1.056-.992-2.816-2.3-2.816-2.3l-1.5,1.856H38.336l.288.96h10.24v7.968H35.424l.288.928H63.776c.448,0,.736-.128.8-.48-1.056-1.056-2.848-2.464-2.848-2.464ZM93.536,32.1v3.488H85.76V32.1ZM85.76,40.064V36.512h7.776v3.552Zm0,4.576V40.992h7.776V44.64Zm0,.928h7.776v1.856h.32a2.584,2.584,0,0,0,1.76-.736V32.512a2.884,2.884,0,0,0,1.376-.672L94.4,29.856l-1.184,1.28h-7.3l-2.176-.992V47.712h.32c.864,0,1.7-.48,1.7-.736ZM80.16,48c1.728,1.056,3.776,3.1,4.32,4.864,2.3,1.312,3.392-3.648-4-5.184Zm-6.88,1.632a7.288,7.288,0,0,1-3.744,5.088,1.459,1.459,0,0,0-.8,1.7c.384.7,1.536.576,2.4.032A6.884,6.884,0,0,0,73.824,49.7Zm3.712-11.3a11.2,11.2,0,0,1,3.3,4.192c2.08,1.344,3.488-2.88-3.3-4.768v-2.4h5.056c.448,0,.768-.16.864-.512-1.024-.96-2.624-2.272-2.624-2.272L78.88,34.432H76.992V30.24c.8-.128,1.088-.416,1.152-.864l-3.168-.352v5.408h-6.3l.224.928h5.312A25.868,25.868,0,0,1,68.256,45.7l.416.48a22.65,22.65,0,0,0,6.3-7.232v8.9h.416c.736,0,1.6-.48,1.6-.768Zm13.5,13.5H90.08a19.973,19.973,0,0,1-.96,3.52c-.16.32-.288.384-.7.416-.544.064-1.984.064-3.872.064h-4.1c-1.44,0-1.6-.1-1.6-.544v-5.28a1.006,1.006,0,0,0,.928-.768l-3.008-.32v6.72c0,1.632.544,2.048,3.36,2.048h4.384c5.92,0,7.008-.352,7.008-1.312,0-.416-.224-.64-.96-.864Zm-.1-2.176c2.144,1.568,4.672,4.32,5.28,6.592,2.56,1.664,3.968-4.128-4.928-6.912Zm19.072-16.128c.544.32.736.672.736,1.824,0,1.856-.768,9.376-.768,14.336,0,5.472,2.208,7.552,6.5,7.552a14.281,14.281,0,0,0,12.832-8.512l-.7-.48A14.846,14.846,0,0,1,115.936,55.1c-3.52,0-4.7-1.536-4.7-5.6a84.408,84.408,0,0,1,1.056-12.544c.288-1.5.9-1.728.9-2.4,0-.9-2.208-2.528-3.712-2.592a8.868,8.868,0,0,0-2.08.224v.672A6.354,6.354,0,0,1,109.472,33.536Zm25.536,17.472a14.792,14.792,0,0,1,5.184,6.08c.448.96.864,1.344,1.536,1.344a1.281,1.281,0,0,0,1.312-1.44,3.522,3.522,0,0,0-.768-2.144c-1.056-1.536-3.072-3.168-6.912-4.384Zm-289.664,60.32c-2.4,0-3.584-.9-3.584-2.016,0-1.536,2.24-2.688,5.312-2.688a19.346,19.346,0,0,1,3.1.256C-149.856,109.92-150.72,111.328-154.656,111.328Zm6.016-15.3a5.844,5.844,0,0,0,2.144.608,22.671,22.671,0,0,0,5.632-.864c.832-.256,1.184-.64,1.184-1.024,0-.7-.608-1.12-1.856-1.12a11.821,11.821,0,0,0-2.016.7,17.637,17.637,0,0,1-4.128.64c-.224,0-.576,0-.928-.032a25.014,25.014,0,0,1,.416-3.84c.256-.96.64-1.216.64-1.952,0-.768-1.984-1.824-3.648-1.824a7.257,7.257,0,0,0-2.368.48l.064.672a9.951,9.951,0,0,1,2.24.32,1.12,1.12,0,0,1,.864,1.152c.064.64.1,4.192.128,6.272,0,2.176.288,6.592.384,9.024-.64-.064-1.344-.1-2.08-.1-3.84,0-7.552,1.344-7.552,4.32,0,2.272,2.336,3.712,5.664,3.712,3.9,0,5.92-1.792,5.92-4.48,0-.544-.032-.992-.064-1.408a13.454,13.454,0,0,1,3.1,1.28c3.072,1.728,4.1,3.552,5.056,3.552a.843.843,0,0,0,.928-.928c0-1.664-2.72-3.328-4.7-4.224a18.987,18.987,0,0,0-4.608-1.472c-.032-.256-.064-.544-.1-.832-.192-2.528-.32-6.752-.32-8.224Zm26.944-5.568c0,1.728-1.536,7.9-1.536,11.36a8.93,8.93,0,0,0,.48,2.976,1.13,1.13,0,0,0,1.12.8.913.913,0,0,0,.9-1.024c0-1.056-.192-1.984-.192-3.264a12.872,12.872,0,0,1,1.664-6.112c1.12-2.144,3.136-3.584,4.64-3.584,2.24,0,3.68,3.1,3.68,8.32,0,5.728-1.888,10.592-9.632,13.7l.352.736c8.576-2.24,11.52-7.584,11.52-14.208,0-5.7-1.76-9.824-5.6-9.824-2.08,0-4.32,1.92-5.824,4.576-.352.64-.608.608-.48-.064a25.527,25.527,0,0,1,.736-3.232,7.478,7.478,0,0,0,.416-1.888,4.886,4.886,0,0,0-2.112-2.944,4.87,4.87,0,0,0-1.536-.7l-.416.416C-122.176,88.032-121.7,88.8-121.7,90.464Zm31.68,5.376H-75.9v4.544H-90.016ZM-75.9,90.432v4.48H-90.016v-4.48Zm3.1,11.072a59.376,59.376,0,0,1-7.2,5.312,15.415,15.415,0,0,1-3.68-5.5H-75.9V102.4h.32a2.607,2.607,0,0,0,1.792-.736V90.848a2.624,2.624,0,0,0,1.376-.64l-2.624-1.984-1.184,1.28h-5.888V86.272c.672-.128.96-.416,1.024-.832l-3.168-.32V89.5h-5.408l-2.5-1.056v22.624c-1.952.352-3.52.64-4.576.768l1.408,2.72a1.275,1.275,0,0,0,.736-.736c5.824-1.728,10.048-3.2,13.088-4.256l-.1-.512c-2.976.608-5.888,1.152-8.416,1.632v-9.376h5.664c2.144,7.264,6.784,11.072,14.112,13.12a2.458,2.458,0,0,1,1.952-1.888l.064-.352c-4.576-.864-8.416-2.4-11.264-4.9a67.427,67.427,0,0,0,8.064-3.712c.64.224.96.16,1.184-.16Zm11.968-.736c.1,6.112,3.424,8.9,5.92,9.984,1.312.544,2.176.032,2.176-.832,0-.672-.512-.832-.224-2.272.192-.992,1.216-3.68,1.952-5.792l-.832-.384a52.243,52.243,0,0,1-3.008,5.856.754.754,0,0,1-1.12.224c-1.344-.7-3.2-2.784-3.2-6.848,0-3.3,1.088-5.312,1.088-6.72,0-1.312-1.664-2.752-2.816-3.3a8.836,8.836,0,0,0-2.016-.512l-.288.512c2.272,1.6,2.5,2.4,2.5,4.128C-60.7,96.256-60.9,98.464-60.832,100.768Zm20-2.88a17.442,17.442,0,0,1,1.824,6.4c.128.736.512,1.12,1.024,1.12.864,0,1.28-.544,1.28-1.792a11.394,11.394,0,0,0-2.784-7.2A9.95,9.95,0,0,0-45.5,93.248l-.288.768A9.264,9.264,0,0,1-40.832,97.888Zm37.792.8c.448,0,.8-.16.864-.512-1.152-1.024-3.008-2.464-3.008-2.464l-1.664,2.016h-8.8v-5.76H-5.376c.448,0,.768-.16.864-.512-1.12-1.024-2.88-2.368-2.88-2.368l-1.6,1.952h-6.656V86.432c.8-.128,1.056-.448,1.12-.9l-3.264-.384V91.04H-28.544l.224.928h10.528v5.76H-31.04l.256.96h11.2a35.965,35.965,0,0,1-11.968,13.12l.352.48a33.33,33.33,0,0,0,13.408-12.1v14.3h.416c.832,0,1.728-.544,1.728-.864V98.688h.1A27.489,27.489,0,0,0-3.744,112.032,2.414,2.414,0,0,1-1.76,110.3l.064-.352a28.051,28.051,0,0,1-13.12-11.264ZM30.3,100.544c.448,0,.768-.16.832-.512-1.152-1.056-3.008-2.464-3.008-2.464l-1.664,2.048H17.632V91.2H28.9c.448,0,.768-.16.832-.512-1.12-1.024-2.912-2.368-2.912-2.368l-1.6,1.952H17.632v-3.84c.8-.128,1.056-.448,1.12-.9l-3.264-.384v5.12H3.68l.288.928h11.52v8.416H2.144l.256.928H13.984a35.2,35.2,0,0,1-12.224,11.9l.352.512A33.6,33.6,0,0,0,15.488,102.3V114.5H15.9c.832,0,1.728-.544,1.728-.864V100.96a25.865,25.865,0,0,0,11.9,11.584,2.385,2.385,0,0,1,1.92-1.792l.064-.288a27.738,27.738,0,0,1-13.376-9.92ZM7.3,92.032c1.216,1.632,2.624,4.192,2.752,6.24,2.144,1.888,4.224-2.976-2.4-6.432Zm13.216,6.944a29.038,29.038,0,0,0,4.96-5.248,1.068,1.068,0,0,0,1.184-.48l-3.1-1.376a40.258,40.258,0,0,1-3.488,6.784Zm37.28-4.032a4.54,4.54,0,0,1,1.568,1.088c.448.512.384.8-.16,1.088-1.92,1.024-5.184,2.336-7.776,3.744-.32-2.4-1.536-3.776-3.552-3.776a8.115,8.115,0,0,0-3.52,1.088c-.224.128-.32-.032-.192-.192a38,38,0,0,0,3.072-4.512A37.485,37.485,0,0,0,54.944,91.1c.608-.288.9-.576.9-.992,0-.608-.672-.864-1.376-.864-.48,0-.7.288-2.048.9a31.536,31.536,0,0,1-4.16,1.376c.384-.8.8-1.6,1.024-2.112.352-.7.608-.928.608-1.376,0-.768-2.08-1.312-3.072-1.312a6.848,6.848,0,0,0-1.824.32v.608a6.3,6.3,0,0,1,1.792.448c.64.256.736.48.576,1.056A12.521,12.521,0,0,1,46.3,91.968a15.521,15.521,0,0,1-2.848.32c-2.368,0-2.912-.672-4.192-2.016l-.672.416c1.28,2.528,1.824,3.232,4.448,3.232a19.474,19.474,0,0,0,2.3-.16,30.869,30.869,0,0,1-4.48,5.856c-1.44,1.536-2.624,2.336-2.624,3.2,0,.8.448,1.28,1.088,1.28.768-.032,1.664-1.536,2.784-2.752,1.344-1.408,3.456-3.2,5.248-3.2,1.664,0,2.272.992,2.4,3.712-3.744,2.368-6.656,4.928-6.656,7.456s1.952,4.384,7.9,4.384a34.906,34.906,0,0,0,7.168-.864c1.024-.288,1.184-.7,1.184-1.184,0-.608-.576-.992-1.7-.992-1.536,0-3.392.992-8.128.992-3.04,0-5.088-.768-5.088-2.56,0-1.888,2.24-3.936,5.344-5.7-.032,1.728-.16,3.456-.16,4.224,0,.864.512,1.216,1.056,1.216.64,0,.992-.48.992-1.248,0-1.024,0-3.36-.1-5.184a61.738,61.738,0,0,1,9.12-3.616c1.248-.384,1.568-.48,1.568-1.056a3.735,3.735,0,0,0-1.728-2.5,5.4,5.4,0,0,0-2.368-.864Zm16.544-2.176h8.448c.448,0,.736-.16.832-.512-.928-.864-2.4-2.016-2.4-2.016L79.9,91.84H74.24a29.768,29.768,0,0,0,4.192-4.9A15.61,15.61,0,0,1,84.768,92.8c2.112,1.248,3.936-3.552-6.016-6.208.8-.032,1.12-.224,1.248-.576l-3.392-.96a29.57,29.57,0,0,1-8.48,10.592l.352.384a25.247,25.247,0,0,0,5.632-4.064Zm-.416,9.28c.064-.864.064-1.664.064-2.432v-.128H83.1v2.56ZM83.1,96.064v2.5h-9.12v-2.5Zm.064,10.528v4.64H74.944v-4.64Zm-.384-11.456H74.368L72,94.112v5.536c0,4.384-.448,9.28-3.68,13.376l.384.352a13.279,13.279,0,0,0,4.288-6.272v7.36h.32a1.841,1.841,0,0,0,1.632-.672v-1.6h8.224v1.824h.288a2.763,2.763,0,0,0,1.728-.64v-6.464a2.175,2.175,0,0,0,1.248-.608l-2.464-1.824-1.088,1.184H75.36l-1.792-.768a14.205,14.205,0,0,0,.256-1.952H83.1v1.024h.32a2.829,2.829,0,0,0,1.7-.64V96.48a3.05,3.05,0,0,0,1.376-.672l-2.56-1.92Zm7.84-5.952c.768-.1,1.056-.416,1.152-.864l-3.1-.32v20.032h.384c.736,0,1.568-.384,1.568-.7Zm3.712-3.392v25.472c0,.48-.16.672-.7.672-.64,0-3.648-.256-3.648-.256v.544a4.94,4.94,0,0,1,2.528.768,2.208,2.208,0,0,1,.672,1.5c2.816-.288,3.168-1.344,3.168-3.04V86.976c.768-.1,1.088-.384,1.184-.832ZM116.544,111.1c-3.1,0-4.48-.992-4.48-2.112a1.787,1.787,0,0,1,1.984-1.7c1.824,0,3.392,1.28,3.808,3.744C117.44,111.072,116.992,111.1,116.544,111.1ZM109.6,88.48a4.252,4.252,0,0,0-.032,1.792,3.346,3.346,0,0,0,2.656,2.3c.512,0,.96-.48,1.568-.736a52.471,52.471,0,0,1,5.184-1.76c.384-.064.576.064.288.544-1.344,2.144-7.136,7.648-12.16,12.9-.736.736-1.024,1.184-1.056,1.76-.032.8.448,1.28.832,1.28.48.032.736-.16,1.216-.768,2.688-3.456,5.92-6.336,10.528-6.336,3.936,0,6.08,2.816,5.984,5.632-.064,2.5-1.664,4.736-4.864,5.632a5.207,5.207,0,0,0-5.216-4.608c-2.08,0-3.584,1.312-3.584,3.008,0,2.3,2.432,3.744,6.016,3.744,6.048,0,9.632-3.3,9.7-7.3.1-4.448-3.456-7.168-7.616-7.168a15.806,15.806,0,0,0-5.5,1.12c-.256.128-.384-.128-.16-.32,1.44-1.6,5.7-5.728,7.328-7.072,1.12-.992,1.856-1.024,1.856-1.632,0-.864-1.76-2.208-2.72-2.208-.448,0-.544.32-1.248.544a42.58,42.58,0,0,1-6.752,1.44c-.832,0-1.248-.96-1.664-1.888Zm35.136,5.376h-1.184v19.68h-8.608v1.12h9.792Z" transform="translate(164.544 26.976)" fill="#0068b6"/>
</svg>
