<svg xmlns="http://www.w3.org/2000/svg" width="1113.112" height="140.424" viewBox="0 0 1113.112 140.424">
  <path id="パス_701" data-name="パス 701" d="M-557.312-45.752c-4.368,2.8-7.784,7.336-7.784,12.264a9.836,9.836,0,0,0,.9,4.256,4.022,4.022,0,0,0,2.8,1.008,2.8,2.8,0,0,0,3.024-3.136c0-1.344-.448-2.52-2.184-4.032l-1.736-1.456c1.176-3.416,2.744-5.152,5.88-7.616Zm6.608,8.9c1.12-3.416,2.744-5.152,5.88-7.616l-.952-1.288c-4.368,2.8-7.784,7.336-7.784,12.264a10.721,10.721,0,0,0,.9,4.256,4.214,4.214,0,0,0,2.8,1.008,2.843,2.843,0,0,0,3.08-3.136c0-1.344-.5-2.52-2.184-4.032Zm28.84-2.016v-1.96H-538.5v1.96l5.824.616c.168,5.376.168,10.864.168,16.3v3.08c0,5.488,0,10.92-.168,16.24l-5.824.616V0h16.632V-2.016l-5.824-.616c-.168-5.376-.168-10.864-.168-16.24v-3.08c0-5.544,0-10.976.168-16.3Zm53.48,36.344c-.056-3.08-.112-7.336-.112-10.248V-19.04c0-7.56-2.856-10.528-7.672-10.528-3.92,0-7.9,1.9-11.144,5.88-.952-4.144-3.36-5.88-7.112-5.88-3.7,0-7.616,2.24-10.808,5.768l-.448-5.152-.784-.56-8.064,2.968v1.792l4.984.392c.112,2.576.224,4.928.224,8.512v3.08c0,2.856-.056,7.168-.168,10.3l-4.7.672V0h13.664V-1.792l-4.424-.728c-.056-3.08-.112-7.392-.112-10.248v-8.9c3.472-3.192,6.1-4.368,8.848-4.368,3.472,0,5.208,1.96,5.208,7.672v5.6c0,2.912-.056,7.224-.112,10.3l-4.76.672V0h13.608V-1.792L-486.7-2.52c-.056-3.08-.112-7.336-.112-10.248v-5.824a24.264,24.264,0,0,0-.168-2.968c3.472-3.416,6.272-4.48,8.9-4.48,3.528,0,5.376,1.736,5.376,7.56v5.712c0,2.912-.056,7.168-.112,10.3l-4.76.672V0h13.608V-1.792Zm28.728-3.864c-3.584,2.856-5.208,3.864-7.56,3.864-3.024,0-5.152-1.512-5.152-4.872,0-2.24,1.008-4.592,6.44-6.664a59.914,59.914,0,0,1,6.272-2.016Zm9.184,3.08a3.275,3.275,0,0,1-2.52,1.344c-1.512,0-2.408-1.008-2.408-4.256V-19.488c0-7.28-3.024-10.08-9.24-10.08-5.936,0-10.3,2.744-11.48,7.336a2.248,2.248,0,0,0,2.464,2.128c1.456,0,2.3-.84,2.744-2.464l1.232-4.144a11.584,11.584,0,0,1,3.92-.616c4.256,0,6.1,1.512,6.1,7.672v1.792c-2.576.56-5.264,1.344-7.448,2.016-7.616,2.744-9.8,5.488-9.8,9.24,0,4.816,3.584,7.392,8.064,7.392,3.64,0,5.88-1.624,9.3-5.1.5,3.08,2.3,4.984,5.152,4.984a5.49,5.49,0,0,0,4.872-2.8Zm17.808-8.288c-4.032,0-6.5-3.192-6.5-7.952s2.576-8.008,6.664-8.008,6.5,3.192,6.5,7.84C-406-14.952-408.52-11.592-412.664-11.592Zm5.1,12.32c4.48,0,6.16,2.128,6.16,4.928,0,3.7-3.7,6.72-10.7,6.72-5.1,0-8.4-1.9-8.4-6.048,0-2.3.9-3.92,2.8-5.768a23.617,23.617,0,0,0,2.968.168Zm10.3-29.624-.952-.616-6.944,2.184a11.911,11.911,0,0,0-7.336-2.24c-6.216,0-10.808,3.64-10.808,9.968,0,4.088,1.792,7,4.648,8.624-2.968,2.688-4.088,4.648-4.088,6.664,0,2.3,1.456,3.808,3.92,4.48-4.2,2.016-5.88,4.2-5.88,6.888,0,4.536,4.032,7.616,12.544,7.616,9.688,0,14.56-5.1,14.56-10.3,0-4.816-3.024-7.448-9.24-7.448h-8.232c-3.136,0-4.088-1.232-4.088-2.968,0-1.512.672-2.744,1.9-4.312a13.807,13.807,0,0,0,4.7.784c6.16,0,10.7-3.64,10.7-10.024a9.82,9.82,0,0,0-1.792-6.048l6.384.056Zm12.936-8.232a3.4,3.4,0,0,0,3.584-3.416,3.369,3.369,0,0,0-3.584-3.416,3.353,3.353,0,0,0-3.528,3.416A3.386,3.386,0,0,0-384.328-37.128Zm2.352,34.608c-.056-3.08-.112-7.392-.112-10.248V-21l.168-7.952-.84-.56-8.792,2.912v1.848l5.152.336c.112,2.8.112,5.04.112,8.512v3.136c0,2.856-.056,7.168-.112,10.248l-4.816.728V0h13.664V-1.792Zm39.424,0c-.112-3.08-.168-7.336-.168-10.248v-5.824c0-7.9-2.576-10.976-7.672-10.976-3.752,0-7.952,2.184-11.2,5.768l-.448-5.152-.784-.56-8.064,2.968v1.792l4.984.392c.112,2.632.224,4.984.224,8.512v3.08c0,2.856-.056,7.168-.168,10.3l-4.7.672V0h13.664V-1.792l-4.424-.728c-.056-3.08-.112-7.392-.112-10.248v-8.848c3.584-3.3,6.44-4.48,9.184-4.48,3.584,0,5.264,1.9,5.264,7.728v5.6c0,2.912-.056,7.224-.112,10.3l-4.76.672V0h13.72V-1.792ZM-324.8-37.128a3.4,3.4,0,0,0,3.584-3.416A3.369,3.369,0,0,0-324.8-43.96a3.353,3.353,0,0,0-3.528,3.416A3.386,3.386,0,0,0-324.8-37.128Zm2.352,34.608c-.056-3.08-.112-7.392-.112-10.248V-21l.168-7.952-.84-.56-8.792,2.912v1.848l5.152.336c.112,2.8.112,5.04.112,8.512v3.136c0,2.856-.056,7.168-.112,10.248l-4.816.728V0h13.664V-1.792Zm39.424,0c-.112-3.08-.168-7.336-.168-10.248v-5.824c0-7.9-2.576-10.976-7.672-10.976-3.752,0-7.952,2.184-11.2,5.768l-.448-5.152-.784-.56-8.064,2.968v1.792l4.984.392c.112,2.632.224,4.984.224,8.512v3.08c0,2.856-.056,7.168-.168,10.3l-4.7.672V0h13.664V-1.792l-4.424-.728c-.056-3.08-.112-7.392-.112-10.248v-8.848c3.584-3.3,6.44-4.48,9.184-4.48,3.584,0,5.264,1.9,5.264,7.728v5.6c0,2.912-.056,7.224-.112,10.3l-4.76.672V0h13.72V-1.792Zm23.016-9.072c-4.032,0-6.5-3.192-6.5-7.952s2.576-8.008,6.664-8.008,6.5,3.192,6.5,7.84C-253.344-14.952-255.864-11.592-260.008-11.592Zm5.1,12.32c4.48,0,6.16,2.128,6.16,4.928,0,3.7-3.7,6.72-10.7,6.72-5.1,0-8.4-1.9-8.4-6.048,0-2.3.9-3.92,2.8-5.768a23.617,23.617,0,0,0,2.968.168Zm10.3-29.624-.952-.616-6.944,2.184a11.911,11.911,0,0,0-7.336-2.24c-6.216,0-10.808,3.64-10.808,9.968,0,4.088,1.792,7,4.648,8.624-2.968,2.688-4.088,4.648-4.088,6.664,0,2.3,1.456,3.808,3.92,4.48-4.2,2.016-5.88,4.2-5.88,6.888,0,4.536,4.032,7.616,12.544,7.616,9.688,0,14.56-5.1,14.56-10.3,0-4.816-3.024-7.448-9.24-7.448h-8.232c-3.136,0-4.088-1.232-4.088-2.968,0-1.512.672-2.744,1.9-4.312a13.807,13.807,0,0,0,4.7.784c6.16,0,10.7-3.64,10.7-10.024a9.82,9.82,0,0,0-1.792-6.048l6.384.056Zm40.6,22.512c-3.584,2.856-5.208,3.864-7.56,3.864-3.024,0-5.152-1.512-5.152-4.872,0-2.24,1.008-4.592,6.44-6.664a59.913,59.913,0,0,1,6.272-2.016Zm9.184,3.08a3.275,3.275,0,0,1-2.52,1.344c-1.512,0-2.408-1.008-2.408-4.256V-19.488c0-7.28-3.024-10.08-9.24-10.08-5.936,0-10.3,2.744-11.48,7.336a2.248,2.248,0,0,0,2.464,2.128c1.456,0,2.3-.84,2.744-2.464l1.232-4.144a11.584,11.584,0,0,1,3.92-.616c4.256,0,6.1,1.512,6.1,7.672v1.792c-2.576.56-5.264,1.344-7.448,2.016-7.616,2.744-9.8,5.488-9.8,9.24,0,4.816,3.584,7.392,8.064,7.392,3.64,0,5.88-1.624,9.3-5.1.5,3.08,2.3,4.984,5.152,4.984a5.49,5.49,0,0,0,4.872-2.8Zm34.1.784c-.112-3.08-.168-7.336-.168-10.248v-5.824c0-7.9-2.576-10.976-7.672-10.976-3.752,0-7.952,2.184-11.2,5.768l-.448-5.152-.784-.56-8.064,2.968v1.792l4.984.392c.112,2.632.224,4.984.224,8.512v3.08c0,2.856-.056,7.168-.168,10.3l-4.7.672V0h13.664V-1.792l-4.424-.728c-.056-3.08-.112-7.392-.112-10.248v-8.848c3.584-3.3,6.44-4.48,9.184-4.48,3.584,0,5.264,1.9,5.264,7.728v5.6c0,2.912-.056,7.224-.112,10.3l-4.76.672V0h13.72V-1.792ZM-128.3-5.936c-2.52,2.856-4.648,3.92-7.5,3.92-5.1,0-8.96-3.752-8.96-12.208,0-8.848,4.2-12.544,9.128-12.544,2.24,0,4.536.84,7.336,3.472Zm4.256,3.528V-36.12l.168-8.568-.784-.5-8.736,2.352V-41.1l5.264.448V-25.48c-2.632-3.08-5.432-4.088-8.176-4.088-7.5,0-12.992,6.048-12.992,15.456,0,8.736,5.04,14.9,12.376,14.9a10.549,10.549,0,0,0,8.736-4.48l.336,4.256,9.184-.56V-1.792ZM-96.6-28.28v2.072h5.376v13.44c0,3.416-.056,6.832-.112,10.248l-5.208.728V0h15.4V-1.792l-5.712-.728c-.056-3.416-.112-6.832-.112-10.248v-13.44h8.68v-2.576H-87.08c-.168-6.552.728-9.968,2.24-12.208a6.5,6.5,0,0,1,2.632-2.464l1.624,1.288a6.814,6.814,0,0,0,4.2,1.736c1.9,0,3.024-1.008,3.136-2.352-.616-2.016-2.856-2.968-5.544-2.968a10.68,10.68,0,0,0-8.12,3.64c-2.688,2.8-3.864,6.608-4.256,13.16ZM-59.192.784c6.888,0,13.72-4.928,13.72-15.064,0-10.192-6.944-15.288-13.72-15.288-6.944,0-13.776,5.1-13.776,15.288C-72.968-4.144-66.136.784-59.192.784Zm0-2.24c-5.656,0-9.016-4.424-9.016-12.824,0-8.344,3.36-13.048,9.016-13.048,5.6,0,9.016,4.7,9.016,13.048C-50.176-5.88-53.592-1.456-59.192-1.456Zm29.9-27.5-.784-.56-8.064,2.968v1.792l4.984.392c.112,2.632.224,4.928.224,8.512v3.08c0,2.856-.056,7.168-.168,10.3l-4.592.672V0h14.28V-1.792L-28.56-2.52c-.056-3.136-.112-7.392-.112-10.248v-5.1c1.4-3.864,3.192-6.44,5.824-8.176l.784.672a5.433,5.433,0,0,0,3.584,1.624c2.184,0,3.136-1.4,3.136-3.808-.616-1.232-2.464-2.016-4.256-2.016-3.528,0-7.112,3.024-9.128,7.952Zm30.3,17.36c-4.032,0-6.5-3.192-6.5-7.952s2.576-8.008,6.664-8.008,6.5,3.192,6.5,7.84C7.672-14.952,5.152-11.592,1.008-11.592ZM6.1.728c4.48,0,6.16,2.128,6.16,4.928,0,3.7-3.7,6.72-10.7,6.72-5.1,0-8.4-1.9-8.4-6.048,0-2.3.9-3.92,2.8-5.768A23.617,23.617,0,0,0-1.064.728ZM16.408-28.9l-.952-.616L8.512-27.328a11.911,11.911,0,0,0-7.336-2.24c-6.216,0-10.808,3.64-10.808,9.968,0,4.088,1.792,7,4.648,8.624C-7.952-8.288-9.072-6.328-9.072-4.312c0,2.3,1.456,3.808,3.92,4.48-4.2,2.016-5.88,4.2-5.88,6.888,0,4.536,4.032,7.616,12.544,7.616,9.688,0,14.56-5.1,14.56-10.3,0-4.816-3.024-7.448-9.24-7.448H-1.4c-3.136,0-4.088-1.232-4.088-2.968,0-1.512.672-2.744,1.9-4.312a13.807,13.807,0,0,0,4.7.784c6.16,0,10.7-3.64,10.7-10.024a9.82,9.82,0,0,0-1.792-6.048l6.384.056Zm12.936-8.232a3.4,3.4,0,0,0,3.584-3.416,3.369,3.369,0,0,0-3.584-3.416,3.353,3.353,0,0,0-3.528,3.416A3.386,3.386,0,0,0,29.344-37.128ZM31.7-2.52c-.056-3.08-.112-7.392-.112-10.248V-21l.168-7.952-.84-.56L22.12-26.6v1.848l5.152.336c.112,2.8.112,5.04.112,8.512v3.136c0,2.856-.056,7.168-.112,10.248l-4.816.728V0H36.12V-1.792Zm39.424,0c-.112-3.08-.168-7.336-.168-10.248v-5.824c0-7.9-2.576-10.976-7.672-10.976-3.752,0-7.952,2.184-11.2,5.768l-.448-5.152-.784-.56-8.064,2.968v1.792l4.984.392c.112,2.632.224,4.984.224,8.512v3.08c0,2.856-.056,7.168-.168,10.3l-4.7.672V0H56.784V-1.792L52.36-2.52c-.056-3.08-.112-7.392-.112-10.248v-8.848c3.584-3.3,6.44-4.48,9.184-4.48,3.584,0,5.264,1.9,5.264,7.728v5.6c0,2.912-.056,7.224-.112,10.3l-4.76.672V0h13.72V-1.792Zm23.016-9.072c-4.032,0-6.5-3.192-6.5-7.952s2.576-8.008,6.664-8.008,6.5,3.192,6.5,7.84C100.8-14.952,98.28-11.592,94.136-11.592Zm5.1,12.32c4.48,0,6.16,2.128,6.16,4.928,0,3.7-3.7,6.72-10.7,6.72-5.1,0-8.4-1.9-8.4-6.048,0-2.3.9-3.92,2.8-5.768a23.617,23.617,0,0,0,2.968.168Zm10.3-29.624-.952-.616-6.944,2.184a11.911,11.911,0,0,0-7.336-2.24c-6.216,0-10.808,3.64-10.808,9.968,0,4.088,1.792,7,4.648,8.624-2.968,2.688-4.088,4.648-4.088,6.664,0,2.3,1.456,3.808,3.92,4.48-4.2,2.016-5.88,4.2-5.88,6.888,0,4.536,4.032,7.616,12.544,7.616,9.688,0,14.56-5.1,14.56-10.3,0-4.816-3.024-7.448-9.24-7.448H91.728c-3.136,0-4.088-1.232-4.088-2.968,0-1.512.672-2.744,1.9-4.312a13.807,13.807,0,0,0,4.7.784c6.16,0,10.7-3.64,10.7-10.024a9.82,9.82,0,0,0-1.792-6.048l6.384.056Zm40.6,22.512c-3.584,2.856-5.208,3.864-7.56,3.864-3.024,0-5.152-1.512-5.152-4.872,0-2.24,1.008-4.592,6.44-6.664a59.913,59.913,0,0,1,6.272-2.016ZM159.32-3.3A3.275,3.275,0,0,1,156.8-1.96c-1.512,0-2.408-1.008-2.408-4.256V-19.488c0-7.28-3.024-10.08-9.24-10.08-5.936,0-10.3,2.744-11.48,7.336a2.248,2.248,0,0,0,2.464,2.128c1.456,0,2.3-.84,2.744-2.464l1.232-4.144a11.584,11.584,0,0,1,3.92-.616c4.256,0,6.1,1.512,6.1,7.672v1.792c-2.576.56-5.264,1.344-7.448,2.016-7.616,2.744-9.8,5.488-9.8,9.24,0,4.816,3.584,7.392,8.064,7.392,3.64,0,5.88-1.624,9.3-5.1.5,3.08,2.3,4.984,5.152,4.984a5.49,5.49,0,0,0,4.872-2.8Zm31.752-19.712c3.472-3.192,5.936-3.752,8.064-3.752,4.928,0,8.4,4.256,8.4,12.376,0,8.68-4.032,12.32-8.68,12.32a11.1,11.1,0,0,1-7.784-3.584ZM190.9-36.064l.224-8.624-.84-.5L181.72-42.84V-41.1l5.1.5v27.832c0,2.856-.056,7.168-.112,10.248l-4.816.728V0l8.624.56.448-4.2A10.856,10.856,0,0,0,199.7.784c7.28,0,12.376-6.272,12.376-15.512,0-9.184-4.984-14.84-11.648-14.84-3.248,0-6.552,1.344-9.52,4.648Zm33.712,19.208c.672-7.112,4.76-10.472,8.848-10.472a7.3,7.3,0,0,1,7.28,7.448c0,1.792-.56,3.024-3.024,3.024Zm19.936,2.184a11.6,11.6,0,0,0,.392-3.472c0-7-4.7-11.424-11.2-11.424-7.392,0-13.72,5.992-13.72,15.344,0,9.576,5.656,15.008,13.5,15.008a12.565,12.565,0,0,0,11.368-6.608l-1.176-.9a10.766,10.766,0,0,1-8.792,4.368c-5.936,0-10.3-4.088-10.36-12.376ZM268.408-3.416a7.016,7.016,0,0,1-4.256,1.624c-2.3,0-3.64-1.4-3.64-4.7V-26.208h8.456v-2.576h-8.4l.336-8.456h-3.08l-1.344,8.288-5.712.672v2.072h5.488v15.064c0,2.184-.056,3.472-.056,4.872,0,4.76,2.352,7.056,6.608,7.056a8.6,8.6,0,0,0,6.72-2.8Zm22.456,0a7.016,7.016,0,0,1-4.256,1.624c-2.3,0-3.64-1.4-3.64-4.7V-26.208h8.456v-2.576h-8.4l.336-8.456h-3.08l-1.344,8.288-5.712.672v2.072h5.488v15.064c0,2.184-.056,3.472-.056,4.872,0,4.76,2.352,7.056,6.608,7.056a8.6,8.6,0,0,0,6.72-2.8Zm11.256-13.44c.672-7.112,4.76-10.472,8.848-10.472a7.3,7.3,0,0,1,7.28,7.448c0,1.792-.56,3.024-3.024,3.024Zm19.936,2.184a11.6,11.6,0,0,0,.392-3.472c0-7-4.7-11.424-11.2-11.424-7.392,0-13.72,5.992-13.72,15.344,0,9.576,5.656,15.008,13.5,15.008a12.565,12.565,0,0,0,11.368-6.608l-1.176-.9a10.766,10.766,0,0,1-8.792,4.368c-5.936,0-10.3-4.088-10.36-12.376Zm16.632-14.28-.784-.56-8.064,2.968v1.792l4.984.392c.112,2.632.224,4.928.224,8.512v3.08c0,2.856-.056,7.168-.168,10.3l-4.592.672V0h14.28V-1.792l-5.152-.728c-.056-3.136-.112-7.392-.112-10.248v-5.1c1.4-3.864,3.192-6.44,5.824-8.176l.784.672a5.433,5.433,0,0,0,3.584,1.624c2.184,0,3.136-1.4,3.136-3.808-.616-1.232-2.464-2.016-4.256-2.016-3.528,0-7.112,3.024-9.128,7.952Zm35.392.672v2.072h5.376v13.44c0,3.416-.056,6.832-.112,10.248l-5.208.728V0h15.4V-1.792l-5.712-.728c-.056-3.416-.112-6.832-.112-10.248v-13.44h8.68v-2.576H383.6c-.168-6.552.728-9.968,2.24-12.208a6.5,6.5,0,0,1,2.632-2.464l1.624,1.288a6.814,6.814,0,0,0,4.2,1.736c1.9,0,3.024-1.008,3.136-2.352-.616-2.016-2.856-2.968-5.544-2.968a10.68,10.68,0,0,0-8.12,3.64c-2.688,2.8-3.864,6.608-4.256,13.16ZM424.368-2.464V-20.048l.224-8.512-.616-.616-8.288.728v1.792l4.592.784L420.168-7.28c-2.856,2.968-5.936,4.48-9.128,4.48-3.64,0-5.432-2.016-5.432-7.84v-9.408l.28-8.512-.56-.616-8.4.728v1.792l4.648.784L401.408-10.3C401.352-2.072,404.32.784,409.36.784c3.92,0,7.784-2.016,10.92-5.88l.448,5.6L428.68,0V-1.792Zm27.16-.952a7.016,7.016,0,0,1-4.256,1.624c-2.3,0-3.64-1.4-3.64-4.7V-26.208h8.456v-2.576h-8.4l.336-8.456h-3.08L439.6-28.952l-5.712.672v2.072h5.488v15.064c0,2.184-.056,3.472-.056,4.872,0,4.76,2.352,7.056,6.608,7.056a8.6,8.6,0,0,0,6.72-2.8Zm32.928.952V-20.048l.224-8.512-.616-.616-8.288.728v1.792l4.592.784L480.256-7.28C477.4-4.312,474.32-2.8,471.128-2.8c-3.64,0-5.432-2.016-5.432-7.84v-9.408l.28-8.512-.56-.616-8.4.728v1.792l4.648.784L461.5-10.3C461.44-2.072,464.408.784,469.448.784c3.92,0,7.784-2.016,10.92-5.88l.448,5.6,7.952-.5V-1.792Zm19.936-26.488-.784-.56-8.064,2.968v1.792l4.984.392c.112,2.632.224,4.928.224,8.512v3.08c0,2.856-.056,7.168-.168,10.3l-4.592.672V0h14.28V-1.792L505.12-2.52c-.056-3.136-.112-7.392-.112-10.248v-5.1c1.4-3.864,3.192-6.44,5.824-8.176l.784.672a5.432,5.432,0,0,0,3.584,1.624c2.184,0,3.136-1.4,3.136-3.808-.616-1.232-2.464-2.016-4.256-2.016-3.528,0-7.112,3.024-9.128,7.952Zm23.3,12.1c.672-7.112,4.76-10.472,8.848-10.472a7.3,7.3,0,0,1,7.28,7.448c0,1.792-.56,3.024-3.024,3.024Zm19.936,2.184a11.6,11.6,0,0,0,.392-3.472c0-7-4.7-11.424-11.2-11.424-7.392,0-13.72,5.992-13.72,15.344,0,9.576,5.656,15.008,13.5,15.008A12.565,12.565,0,0,0,547.96-5.824l-1.176-.9a10.766,10.766,0,0,1-8.792,4.368c-5.936,0-10.3-4.088-10.36-12.376ZM-344.512,51.72v2.072h5.376v13.44c0,3.416-.056,6.832-.112,10.248l-5.208.728V80h15.4V78.208l-5.712-.728c-.056-3.416-.112-6.832-.112-10.248V53.792h8.68V51.216h-8.792c-.168-6.552.728-9.968,2.24-12.208a6.5,6.5,0,0,1,2.632-2.464l1.624,1.288a6.814,6.814,0,0,0,4.2,1.736c1.9,0,3.024-1.008,3.136-2.352-.616-2.016-2.856-2.968-5.544-2.968a10.68,10.68,0,0,0-8.12,3.64c-2.688,2.8-3.864,6.608-4.256,13.16ZM-307.1,80.784c6.888,0,13.72-4.928,13.72-15.064,0-10.192-6.944-15.288-13.72-15.288-6.944,0-13.776,5.1-13.776,15.288C-320.88,75.856-314.048,80.784-307.1,80.784Zm0-2.24c-5.656,0-9.016-4.424-9.016-12.824,0-8.344,3.36-13.048,9.016-13.048,5.6,0,9.016,4.7,9.016,13.048C-298.088,74.12-301.5,78.544-307.1,78.544Zm29.9-27.5-.784-.56-8.064,2.968v1.792l4.984.392c.112,2.632.224,4.928.224,8.512v3.08c0,2.856-.056,7.168-.168,10.3l-4.592.672V80h14.28V78.208l-5.152-.728c-.056-3.136-.112-7.392-.112-10.248v-5.1c1.4-3.864,3.192-6.44,5.824-8.176l.784.672a5.433,5.433,0,0,0,3.584,1.624c2.184,0,3.136-1.4,3.136-3.808-.616-1.232-2.464-2.016-4.256-2.016-3.528,0-7.112,3.024-9.128,7.952Zm51.576,25.536a7.016,7.016,0,0,1-4.256,1.624c-2.3,0-3.64-1.4-3.64-4.7V53.792h8.456V51.216h-8.4l.336-8.456h-3.08l-1.344,8.288-5.712.672v2.072h5.488V68.856c0,2.184-.056,3.472-.056,4.872,0,4.76,2.352,7.056,6.608,7.056a8.6,8.6,0,0,0,6.72-2.8Zm34.048.9c-.056-3.08-.112-7.336-.112-10.248V61.408c0-7.952-2.576-10.976-7.672-10.976-3.864,0-8.12,2.3-11.368,5.88V43.936l.224-8.624-.84-.5-8.568,2.352V38.9l5.1.448V67.232c0,2.856-.056,7.168-.112,10.248l-4.816.728V80h13.72V78.208l-4.424-.672c-.056-3.136-.112-7.448-.112-10.3V58.384c3.64-3.472,6.5-4.48,9.3-4.48,3.64,0,5.376,1.9,5.376,7.728v5.6c0,2.912-.056,7.168-.112,10.3l-4.76.672V80H-187.1V78.208Zm16.128-14.336c.672-7.112,4.76-10.472,8.848-10.472a7.3,7.3,0,0,1,7.28,7.448c0,1.792-.56,3.024-3.024,3.024Zm19.936,2.184a11.6,11.6,0,0,0,.392-3.472c0-7-4.7-11.424-11.2-11.424-7.392,0-13.72,5.992-13.72,15.344,0,9.576,5.656,15.008,13.5,15.008a12.565,12.565,0,0,0,11.368-6.608l-1.176-.9a10.766,10.766,0,0,1-8.792,4.368c-5.936,0-10.3-4.088-10.36-12.376Zm38.92,15.456c6.888,0,13.72-4.928,13.72-15.064,0-10.192-6.944-15.288-13.72-15.288-6.944,0-13.776,5.1-13.776,15.288C-130.368,75.856-123.536,80.784-116.592,80.784Zm0-2.24c-5.656,0-9.016-4.424-9.016-12.824,0-8.344,3.36-13.048,9.016-13.048,5.6,0,9.016,4.7,9.016,13.048C-107.576,74.12-110.992,78.544-116.592,78.544Zm45.08-5.488a10.373,10.373,0,0,1-8.736,4.592c-6.048,0-10.3-4.592-10.3-12.432,0-7.9,4.032-12.544,9.688-12.544a12.148,12.148,0,0,1,3.808.672l1.232,4.2a2.8,2.8,0,0,0,2.856,2.408A2.263,2.263,0,0,0-70.5,57.88c-1.064-4.424-5.376-7.448-10.528-7.448-7.28,0-13.944,5.656-13.944,15.176,0,9.3,5.376,15.176,13.552,15.176,5.488,0,9.184-2.688,11.088-7.168Zm13.1-9.912c.672-7.112,4.76-10.472,8.848-10.472a7.3,7.3,0,0,1,7.28,7.448c0,1.792-.56,3.024-3.024,3.024Zm19.936,2.184a11.6,11.6,0,0,0,.392-3.472c0-7-4.7-11.424-11.2-11.424-7.392,0-13.72,5.992-13.72,15.344,0,9.576,5.656,15.008,13.5,15.008a12.565,12.565,0,0,0,11.368-6.608l-1.176-.9A10.766,10.766,0,0,1-48.1,77.648c-5.936,0-10.3-4.088-10.36-12.376ZM-13.1,73.616c-3.584,2.856-5.208,3.864-7.56,3.864-3.024,0-5.152-1.512-5.152-4.872,0-2.24,1.008-4.592,6.44-6.664A59.914,59.914,0,0,1-13.1,63.928ZM-3.92,76.7A3.275,3.275,0,0,1-6.44,78.04c-1.512,0-2.408-1.008-2.408-4.256V60.512c0-7.28-3.024-10.08-9.24-10.08-5.936,0-10.3,2.744-11.48,7.336A2.248,2.248,0,0,0-27.1,59.9c1.456,0,2.3-.84,2.744-2.464l1.232-4.144a11.584,11.584,0,0,1,3.92-.616c4.256,0,6.1,1.512,6.1,7.672v1.792c-2.576.56-5.264,1.344-7.448,2.016-7.616,2.744-9.8,5.488-9.8,9.24,0,4.816,3.584,7.392,8.064,7.392,3.64,0,5.88-1.624,9.3-5.1.5,3.08,2.3,4.984,5.152,4.984a5.49,5.49,0,0,0,4.872-2.8Zm34.1.784c-.112-3.08-.168-7.336-.168-10.248V61.408c0-7.9-2.576-10.976-7.672-10.976-3.752,0-7.952,2.184-11.2,5.768L10.7,51.048l-.784-.56L1.848,53.456v1.792l4.984.392c.112,2.632.224,4.984.224,8.512v3.08c0,2.856-.056,7.168-.168,10.3l-4.7.672V80H15.848V78.208l-4.424-.728c-.056-3.08-.112-7.392-.112-10.248V58.384c3.584-3.3,6.44-4.48,9.184-4.48,3.584,0,5.264,1.9,5.264,7.728v5.6c0,2.912-.056,7.224-.112,10.3l-4.76.672V80h13.72V78.208Zm18.144,4.536c-1.232,4.592-4.2,7.5-8.344,9.744l.728,1.624c5.432-2.3,10.584-7.9,10.584-14.616a13.7,13.7,0,0,0-.616-3.976,4.814,4.814,0,0,0-3.36-1.568,3.085,3.085,0,0,0-3.136,3.36A5,5,0,0,0,46.2,80.392Zm45.864-5.432a7.016,7.016,0,0,1-4.256,1.624c-2.3,0-3.64-1.4-3.64-4.7V53.792h8.456V51.216h-8.4l.336-8.456h-3.08l-1.344,8.288-5.712.672v2.072H82.04V68.856c0,2.184-.056,3.472-.056,4.872,0,4.76,2.352,7.056,6.608,7.056a8.6,8.6,0,0,0,6.72-2.8Zm20.44,4.2c6.888,0,13.72-4.928,13.72-15.064,0-10.192-6.944-15.288-13.72-15.288-6.944,0-13.776,5.1-13.776,15.288C100.856,75.856,107.688,80.784,114.632,80.784Zm0-2.24c-5.656,0-9.016-4.424-9.016-12.824,0-8.344,3.36-13.048,9.016-13.048,5.6,0,9.016,4.7,9.016,13.048C123.648,74.12,120.232,78.544,114.632,78.544Zm33.32-10.136c-4.032,0-6.5-3.192-6.5-7.952s2.576-8.008,6.664-8.008,6.5,3.192,6.5,7.84C154.616,65.048,152.1,68.408,147.952,68.408Zm5.1,12.32c4.48,0,6.16,2.128,6.16,4.928,0,3.7-3.7,6.72-10.7,6.72-5.1,0-8.4-1.9-8.4-6.048,0-2.3.9-3.92,2.8-5.768a23.617,23.617,0,0,0,2.968.168Zm10.3-29.624-.952-.616-6.944,2.184a11.911,11.911,0,0,0-7.336-2.24c-6.216,0-10.808,3.64-10.808,9.968,0,4.088,1.792,7,4.648,8.624-2.968,2.688-4.088,4.648-4.088,6.664,0,2.3,1.456,3.808,3.92,4.48-4.2,2.016-5.88,4.2-5.88,6.888,0,4.536,4.032,7.616,12.544,7.616,9.688,0,14.56-5.1,14.56-10.3,0-4.816-3.024-7.448-9.24-7.448h-8.232c-3.136,0-4.088-1.232-4.088-2.968,0-1.512.672-2.744,1.9-4.312a13.807,13.807,0,0,0,4.7.784c6.16,0,10.7-3.64,10.7-10.024a9.82,9.82,0,0,0-1.792-6.048l6.384.056ZM174.1,63.144c.672-7.112,4.76-10.472,8.848-10.472a7.3,7.3,0,0,1,7.28,7.448c0,1.792-.56,3.024-3.024,3.024Zm19.936,2.184a11.6,11.6,0,0,0,.392-3.472c0-7-4.7-11.424-11.2-11.424-7.392,0-13.72,5.992-13.72,15.344,0,9.576,5.656,15.008,13.5,15.008a12.565,12.565,0,0,0,11.368-6.608l-1.176-.9a10.766,10.766,0,0,1-8.792,4.368c-5.936,0-10.3-4.088-10.36-12.376ZM217.9,76.584a7.016,7.016,0,0,1-4.256,1.624c-2.3,0-3.64-1.4-3.64-4.7V53.792h8.456V51.216h-8.4l.336-8.456h-3.08l-1.344,8.288-5.712.672v2.072h5.488V68.856c0,2.184-.056,3.472-.056,4.872,0,4.76,2.352,7.056,6.608,7.056a8.6,8.6,0,0,0,6.72-2.8Zm34.048.9c-.056-3.08-.112-7.336-.112-10.248V61.408c0-7.952-2.576-10.976-7.672-10.976-3.864,0-8.12,2.3-11.368,5.88V43.936l.224-8.624-.84-.5-8.568,2.352V38.9l5.1.448V67.232c0,2.856-.056,7.168-.112,10.248l-4.816.728V80H237.5V78.208l-4.424-.672c-.056-3.136-.112-7.448-.112-10.3V58.384c3.64-3.472,6.5-4.48,9.3-4.48,3.64,0,5.376,1.9,5.376,7.728v5.6c0,2.912-.056,7.168-.112,10.3l-4.76.672V80h13.664V78.208Zm16.128-14.336c.672-7.112,4.76-10.472,8.848-10.472a7.3,7.3,0,0,1,7.28,7.448c0,1.792-.56,3.024-3.024,3.024Zm19.936,2.184a11.6,11.6,0,0,0,.392-3.472c0-7-4.7-11.424-11.2-11.424-7.392,0-13.72,5.992-13.72,15.344,0,9.576,5.656,15.008,13.5,15.008a12.565,12.565,0,0,0,11.368-6.608l-1.176-.9a10.766,10.766,0,0,1-8.792,4.368c-5.936,0-10.3-4.088-10.36-12.376Zm16.632-14.28-.784-.56-8.064,2.968v1.792l4.984.392c.112,2.632.224,4.928.224,8.512v3.08c0,2.856-.056,7.168-.168,10.3l-4.592.672V80h14.28V78.208l-5.152-.728c-.056-3.136-.112-7.392-.112-10.248v-5.1c1.4-3.864,3.192-6.44,5.824-8.176l.784.672a5.433,5.433,0,0,0,3.584,1.624c2.184,0,3.136-1.4,3.136-3.808-.616-1.232-2.464-2.016-4.256-2.016-3.528,0-7.112,3.024-9.128,7.952Zm24.976-8.232c-1.176,3.416-2.744,5.152-5.88,7.616l.952,1.344c4.368-2.8,7.784-7.392,7.784-12.32a9.873,9.873,0,0,0-.952-4.256,3.972,3.972,0,0,0-2.8-.952,2.784,2.784,0,0,0-3.024,3.08c0,1.344.5,2.576,2.184,4.032Zm11.592.056c-1.176,3.36-2.744,5.1-5.88,7.56l.9,1.344c4.368-2.8,7.784-7.392,7.784-12.32a9.836,9.836,0,0,0-.9-4.256,4.06,4.06,0,0,0-2.8-.952,2.76,2.76,0,0,0-3.024,3.08c0,1.344.448,2.576,2.184,4.032Z" transform="translate(565.096 45.752)" fill="#0068b6"/>
</svg>
