<svg xmlns="http://www.w3.org/2000/svg" width="319.368" height="110.212" viewBox="0 0 319.368 110.212">
  <path id="パス_702" data-name="パス 702" d="M-156.352-22.876c-2.184,1.4-3.892,3.668-3.892,6.132a4.918,4.918,0,0,0,.448,2.128,2.011,2.011,0,0,0,1.4.5,1.4,1.4,0,0,0,1.512-1.568,2.5,2.5,0,0,0-1.092-2.016l-.868-.728a7.425,7.425,0,0,1,2.94-3.808Zm3.3,4.452a7.281,7.281,0,0,1,2.94-3.808l-.476-.644c-2.184,1.4-3.892,3.668-3.892,6.132a5.36,5.36,0,0,0,.448,2.128,2.107,2.107,0,0,0,1.4.5,1.421,1.421,0,0,0,1.54-1.568A2.585,2.585,0,0,0-152.18-17.7Zm13.3-1.008v-.98h-8.316v.98l2.912.308c.084,2.688.084,5.432.084,8.148v1.54c0,2.744,0,5.46-.084,8.12l-2.912.308V0h8.316V-1.008l-2.912-.308c-.084-2.688-.084-5.432-.084-8.12v-1.54c0-2.772,0-5.488.084-8.148Zm25.62,18.172c-.028-1.54-.056-3.668-.056-5.124V-9.52c0-3.78-1.428-5.264-3.836-5.264a7.233,7.233,0,0,0-5.572,2.94,3.315,3.315,0,0,0-3.556-2.94,7.743,7.743,0,0,0-5.4,2.884l-.224-2.576-.392-.28-4.032,1.484v.9l2.492.2c.056,1.288.112,2.464.112,4.256v1.54c0,1.428-.028,3.584-.084,5.152l-2.352.336V0h6.832V-.9l-2.212-.364c-.028-1.54-.056-3.7-.056-5.124v-4.452c1.736-1.6,3.052-2.184,4.424-2.184,1.736,0,2.6.98,2.6,3.836v2.8c0,1.456-.028,3.612-.056,5.152l-2.38.336V0h6.8V-.9l-2.212-.364c-.028-1.54-.056-3.668-.056-5.124V-9.3a12.132,12.132,0,0,0-.084-1.484c1.736-1.708,3.136-2.24,4.452-2.24,1.764,0,2.688.868,2.688,3.78v2.856c0,1.456-.028,3.584-.056,5.152l-2.38.336V0h6.8V-.9Zm13.244-1.932c-1.792,1.428-2.6,1.932-3.78,1.932A2.278,2.278,0,0,1-107.24-3.7c0-1.12.5-2.3,3.22-3.332a29.956,29.956,0,0,1,3.136-1.008Zm4.592,1.54a1.637,1.637,0,0,1-1.26.672c-.756,0-1.2-.5-1.2-2.128V-9.744c0-3.64-1.512-5.04-4.62-5.04-2.968,0-5.152,1.372-5.74,3.668a1.124,1.124,0,0,0,1.232,1.064c.728,0,1.148-.42,1.372-1.232l.616-2.072a5.792,5.792,0,0,1,1.96-.308c2.128,0,3.052.756,3.052,3.836v.9c-1.288.28-2.632.672-3.724,1.008-3.808,1.372-4.9,2.744-4.9,4.62,0,2.408,1.792,3.7,4.032,3.7,1.82,0,2.94-.812,4.648-2.548A2.582,2.582,0,0,0-98.252.336a2.745,2.745,0,0,0,2.436-1.4ZM-88.508-5.8c-2.016,0-3.248-1.6-3.248-3.976s1.288-4,3.332-4,3.248,1.6,3.248,3.92C-85.176-7.476-86.436-5.8-88.508-5.8ZM-85.96.364c2.24,0,3.08,1.064,3.08,2.464,0,1.848-1.848,3.36-5.348,3.36-2.548,0-4.2-.952-4.2-3.024A3.761,3.761,0,0,1-91.028.28a11.808,11.808,0,0,0,1.484.084Zm5.152-14.812-.476-.308-3.472,1.092a5.956,5.956,0,0,0-3.668-1.12c-3.108,0-5.4,1.82-5.4,4.984A4.674,4.674,0,0,0-91.5-5.488c-1.484,1.344-2.044,2.324-2.044,3.332a2.29,2.29,0,0,0,1.96,2.24c-2.1,1.008-2.94,2.1-2.94,3.444,0,2.268,2.016,3.808,6.272,3.808,4.844,0,7.28-2.548,7.28-5.152,0-2.408-1.512-3.724-4.62-3.724h-4.116c-1.568,0-2.044-.616-2.044-1.484A3.433,3.433,0,0,1-90.8-5.18a6.9,6.9,0,0,0,2.352.392c3.08,0,5.348-1.82,5.348-5.012a4.91,4.91,0,0,0-.9-3.024l3.192.028Zm5.348-4.116a1.7,1.7,0,0,0,1.792-1.708A1.684,1.684,0,0,0-75.46-21.98a1.677,1.677,0,0,0-1.764,1.708A1.693,1.693,0,0,0-75.46-18.564Zm1.176,17.3c-.028-1.54-.056-3.7-.056-5.124V-10.5l.084-3.976-.42-.28-4.4,1.456v.924l2.576.168c.056,1.4.056,2.52.056,4.256v1.568c0,1.428-.028,3.584-.056,5.124L-78.9-.9V0h6.832V-.9Zm18.592,0c-.056-1.54-.084-3.668-.084-5.124V-9.3c0-3.948-1.288-5.488-3.836-5.488a8.026,8.026,0,0,0-5.6,2.884l-.224-2.576-.392-.28-4.032,1.484v.9l2.492.2c.056,1.316.112,2.492.112,4.256v1.54c0,1.428-.028,3.584-.084,5.152L-69.692-.9V0h6.832V-.9l-2.212-.364c-.028-1.54-.056-3.7-.056-5.124v-4.424c1.792-1.652,3.22-2.24,4.592-2.24,1.792,0,2.632.952,2.632,3.864v2.8c0,1.456-.028,3.612-.056,5.152L-60.34-.9V0h6.86V-.9Zm7.756-17.3a1.7,1.7,0,0,0,1.792-1.708,1.684,1.684,0,0,0-1.792-1.708A1.677,1.677,0,0,0-49.7-20.272,1.693,1.693,0,0,0-47.936-18.564Zm1.176,17.3c-.028-1.54-.056-3.7-.056-5.124V-10.5l.084-3.976-.42-.28-4.4,1.456v.924l2.576.168c.056,1.4.056,2.52.056,4.256v1.568c0,1.428-.028,3.584-.056,5.124L-51.38-.9V0h6.832V-.9Zm18.592,0c-.056-1.54-.084-3.668-.084-5.124V-9.3c0-3.948-1.288-5.488-3.836-5.488a8.026,8.026,0,0,0-5.6,2.884l-.224-2.576-.392-.28-4.032,1.484v.9l2.492.2c.056,1.316.112,2.492.112,4.256v1.54c0,1.428-.028,3.584-.084,5.152L-42.168-.9V0h6.832V-.9l-2.212-.364c-.028-1.54-.056-3.7-.056-5.124v-4.424c1.792-1.652,3.22-2.24,4.592-2.24,1.792,0,2.632.952,2.632,3.864v2.8c0,1.456-.028,3.612-.056,5.152l-2.38.336V0h6.86V-.9ZM-17.78-5.8c-2.016,0-3.248-1.6-3.248-3.976s1.288-4,3.332-4,3.248,1.6,3.248,3.92C-14.448-7.476-15.708-5.8-17.78-5.8Zm2.548,6.16c2.24,0,3.08,1.064,3.08,2.464,0,1.848-1.848,3.36-5.348,3.36-2.548,0-4.2-.952-4.2-3.024A3.761,3.761,0,0,1-20.3.28a11.808,11.808,0,0,0,1.484.084Zm5.152-14.812-.476-.308-3.472,1.092a5.956,5.956,0,0,0-3.668-1.12c-3.108,0-5.4,1.82-5.4,4.984a4.674,4.674,0,0,0,2.324,4.312C-22.26-4.144-22.82-3.164-22.82-2.156A2.29,2.29,0,0,0-20.86.084c-2.1,1.008-2.94,2.1-2.94,3.444,0,2.268,2.016,3.808,6.272,3.808,4.844,0,7.28-2.548,7.28-5.152,0-2.408-1.512-3.724-4.62-3.724h-4.116c-1.568,0-2.044-.616-2.044-1.484a3.433,3.433,0,0,1,.952-2.156,6.9,6.9,0,0,0,2.352.392c3.08,0,5.348-1.82,5.348-5.012a4.91,4.91,0,0,0-.9-3.024l3.192.028ZM7.98-3.192C6.188-1.764,5.376-1.26,4.2-1.26A2.278,2.278,0,0,1,1.624-3.7c0-1.12.5-2.3,3.22-3.332A29.957,29.957,0,0,1,7.98-8.036Zm4.592,1.54a1.638,1.638,0,0,1-1.26.672c-.756,0-1.2-.5-1.2-2.128V-9.744c0-3.64-1.512-5.04-4.62-5.04-2.968,0-5.152,1.372-5.74,3.668A1.124,1.124,0,0,0,.98-10.052c.728,0,1.148-.42,1.372-1.232l.616-2.072a5.792,5.792,0,0,1,1.96-.308c2.128,0,3.052.756,3.052,3.836v.9c-1.288.28-2.632.672-3.724,1.008C.448-6.552-.644-5.18-.644-3.3c0,2.408,1.792,3.7,4.032,3.7,1.82,0,2.94-.812,4.648-2.548A2.582,2.582,0,0,0,10.612.336a2.745,2.745,0,0,0,2.436-1.4ZM28.5-1.26c-.056-1.54-.084-3.668-.084-5.124V-9.3c0-3.948-1.288-5.488-3.836-5.488a8.026,8.026,0,0,0-5.6,2.884l-.224-2.576-.392-.28-4.032,1.484v.9l2.492.2c.056,1.316.112,2.492.112,4.256v1.54c0,1.428-.028,3.584-.084,5.152L14.5-.9V0h6.832V-.9L19.124-1.26c-.028-1.54-.056-3.7-.056-5.124v-4.424c1.792-1.652,3.22-2.24,4.592-2.24,1.792,0,2.632.952,2.632,3.864v2.8c0,1.456-.028,3.612-.056,5.152L23.856-.9V0h6.86V-.9ZM43.6-2.968a4.665,4.665,0,0,1-3.752,1.96c-2.548,0-4.48-1.876-4.48-6.1,0-4.424,2.1-6.272,4.564-6.272A5.224,5.224,0,0,1,43.6-11.648ZM45.724-1.2V-18.06l.084-4.284-.392-.252L41.048-21.42v.868l2.632.224v7.588a5.179,5.179,0,0,0-4.088-2.044c-3.752,0-6.5,3.024-6.5,7.728,0,4.368,2.52,7.448,6.188,7.448a5.275,5.275,0,0,0,4.368-2.24L43.82.28,48.412,0V-.9ZM57.2-14.14V-13.1h2.688v6.72c0,1.708-.028,3.416-.056,5.124l-2.6.364V0h7.7V-.9L62.076-1.26c-.028-1.708-.056-3.416-.056-5.124V-13.1h4.34v-1.288h-4.4c-.084-3.276.364-4.984,1.12-6.1A3.249,3.249,0,0,1,64.4-21.728l.812.644a3.407,3.407,0,0,0,2.1.868c.952,0,1.512-.5,1.568-1.176-.308-1.008-1.428-1.484-2.772-1.484a5.34,5.34,0,0,0-4.06,1.82c-1.344,1.4-1.932,3.3-2.128,6.58ZM74.788.392c3.444,0,6.86-2.464,6.86-7.532,0-5.1-3.472-7.644-6.86-7.644-3.472,0-6.888,2.548-6.888,7.644C67.9-2.072,71.316.392,74.788.392Zm0-1.12C71.96-.728,70.28-2.94,70.28-7.14c0-4.172,1.68-6.524,4.508-6.524,2.8,0,4.508,2.352,4.508,6.524C79.3-2.94,77.588-.728,74.788-.728ZM88.62-14.476l-.392-.28L84.2-13.272v.9l2.492.2c.056,1.316.112,2.464.112,4.256v1.54c0,1.428-.028,3.584-.084,5.152L84.42-.9V0h7.14V-.9L88.984-1.26c-.028-1.568-.056-3.7-.056-5.124V-8.932A7.673,7.673,0,0,1,91.84-13.02l.392.336a2.716,2.716,0,0,0,1.792.812c1.092,0,1.568-.7,1.568-1.9a2.423,2.423,0,0,0-2.128-1.008c-1.764,0-3.556,1.512-4.564,3.976ZM102.648-5.8c-2.016,0-3.248-1.6-3.248-3.976s1.288-4,3.332-4,3.248,1.6,3.248,3.92C105.98-7.476,104.72-5.8,102.648-5.8ZM105.2.364c2.24,0,3.08,1.064,3.08,2.464,0,1.848-1.848,3.36-5.348,3.36-2.548,0-4.2-.952-4.2-3.024a3.761,3.761,0,0,1,1.4-2.884,11.808,11.808,0,0,0,1.484.084Zm5.152-14.812-.476-.308L106.4-13.664a5.956,5.956,0,0,0-3.668-1.12c-3.108,0-5.4,1.82-5.4,4.984a4.674,4.674,0,0,0,2.324,4.312c-1.484,1.344-2.044,2.324-2.044,3.332a2.29,2.29,0,0,0,1.96,2.24c-2.1,1.008-2.94,2.1-2.94,3.444,0,2.268,2.016,3.808,6.272,3.808,4.844,0,7.28-2.548,7.28-5.152,0-2.408-1.512-3.724-4.62-3.724h-4.116c-1.568,0-2.044-.616-2.044-1.484a3.433,3.433,0,0,1,.952-2.156,6.9,6.9,0,0,0,2.352.392c3.08,0,5.348-1.82,5.348-5.012a4.91,4.91,0,0,0-.9-3.024l3.192.028Zm5.348-4.116a1.7,1.7,0,0,0,1.792-1.708A1.684,1.684,0,0,0,115.7-21.98a1.677,1.677,0,0,0-1.764,1.708A1.693,1.693,0,0,0,115.7-18.564Zm1.176,17.3c-.028-1.54-.056-3.7-.056-5.124V-10.5l.084-3.976-.42-.28-4.4,1.456v.924l2.576.168c.056,1.4.056,2.52.056,4.256v1.568c0,1.428-.028,3.584-.056,5.124L112.252-.9V0h6.832V-.9Zm18.592,0c-.056-1.54-.084-3.668-.084-5.124V-9.3c0-3.948-1.288-5.488-3.836-5.488a8.026,8.026,0,0,0-5.6,2.884l-.224-2.576-.392-.28L121.3-13.272v.9l2.492.2c.056,1.316.112,2.492.112,4.256v1.54c0,1.428-.028,3.584-.084,5.152L121.464-.9V0H128.3V-.9l-2.212-.364c-.028-1.54-.056-3.7-.056-5.124v-4.424c1.792-1.652,3.22-2.24,4.592-2.24,1.792,0,2.632.952,2.632,3.864v2.8c0,1.456-.028,3.612-.056,5.152l-2.38.336V0h6.86V-.9ZM145.852-5.8c-2.016,0-3.248-1.6-3.248-3.976s1.288-4,3.332-4,3.248,1.6,3.248,3.92C149.184-7.476,147.924-5.8,145.852-5.8ZM148.4.364c2.24,0,3.08,1.064,3.08,2.464,0,1.848-1.848,3.36-5.348,3.36-2.548,0-4.2-.952-4.2-3.024a3.761,3.761,0,0,1,1.4-2.884,11.809,11.809,0,0,0,1.484.084Zm5.152-14.812-.476-.308L149.6-13.664a5.956,5.956,0,0,0-3.668-1.12c-3.108,0-5.4,1.82-5.4,4.984a4.674,4.674,0,0,0,2.324,4.312c-1.484,1.344-2.044,2.324-2.044,3.332a2.29,2.29,0,0,0,1.96,2.24c-2.1,1.008-2.94,2.1-2.94,3.444,0,2.268,2.016,3.808,6.272,3.808,4.844,0,7.28-2.548,7.28-5.152,0-2.408-1.512-3.724-4.62-3.724h-4.116c-1.568,0-2.044-.616-2.044-1.484a3.433,3.433,0,0,1,.952-2.156,6.9,6.9,0,0,0,2.352.392c3.08,0,5.348-1.82,5.348-5.012a4.91,4.91,0,0,0-.9-3.024l3.192.028Zm-244.5,51.256c-1.792,1.428-2.6,1.932-3.78,1.932A2.278,2.278,0,0,1-97.3,36.3c0-1.12.5-2.3,3.22-3.332a29.956,29.956,0,0,1,3.136-1.008Zm4.592,1.54a1.637,1.637,0,0,1-1.26.672c-.756,0-1.2-.5-1.2-2.128V30.256c0-3.64-1.512-5.04-4.62-5.04-2.968,0-5.152,1.372-5.74,3.668a1.124,1.124,0,0,0,1.232,1.064c.728,0,1.148-.42,1.372-1.232l.616-2.072A5.792,5.792,0,0,1-94,26.336c2.128,0,3.052.756,3.052,3.836v.9c-1.288.28-2.632.672-3.724,1.008-3.808,1.372-4.9,2.744-4.9,4.62,0,2.408,1.792,3.7,4.032,3.7,1.82,0,2.94-.812,4.648-2.548a2.582,2.582,0,0,0,2.576,2.492,2.745,2.745,0,0,0,2.436-1.4Zm13.636-9.856c1.736-1.6,2.968-1.876,4.032-1.876,2.464,0,4.2,2.128,4.2,6.188,0,4.34-2.016,6.16-4.34,6.16a5.548,5.548,0,0,1-3.892-1.792Zm-.084-6.524.112-4.312-.42-.252-4.284,1.176v.868l2.548.252V33.616c0,1.428-.028,3.584-.056,5.124l-2.408.364V40l4.312.28.224-2.1A5.428,5.428,0,0,0-68.4,40.392c3.64,0,6.188-3.136,6.188-7.756,0-4.592-2.492-7.42-5.824-7.42A6.3,6.3,0,0,0-72.8,27.54Zm15.736,9.6c.336-3.556,2.38-5.236,4.424-5.236A3.65,3.65,0,0,1-49,30.06c0,.9-.28,1.512-1.512,1.512Zm9.968,1.092a5.8,5.8,0,0,0,.2-1.736,5.365,5.365,0,0,0-5.6-5.712c-3.7,0-6.86,3-6.86,7.672,0,4.788,2.828,7.5,6.748,7.5a6.282,6.282,0,0,0,5.684-3.3l-.588-.448a5.383,5.383,0,0,1-4.4,2.184c-2.968,0-5.152-2.044-5.18-6.188Zm10.808,5.628a3.508,3.508,0,0,1-2.128.812c-1.148,0-1.82-.7-1.82-2.352V26.9h4.228V25.608h-4.2l.168-4.228h-1.54l-.672,4.144-2.856.336V26.9h2.744v7.532c0,1.092-.028,1.736-.028,2.436,0,2.38,1.176,3.528,3.3,3.528a4.3,4.3,0,0,0,3.36-1.4Zm10.108,0a3.508,3.508,0,0,1-2.128.812c-1.148,0-1.82-.7-1.82-2.352V26.9H-25.9V25.608h-4.2l.168-4.228h-1.54l-.672,4.144L-35,25.86V26.9h2.744v7.532c0,1.092-.028,1.736-.028,2.436,0,2.38,1.176,3.528,3.3,3.528a4.3,4.3,0,0,0,3.36-1.4Zm4.508-6.72c.336-3.556,2.38-5.236,4.424-5.236a3.65,3.65,0,0,1,3.64,3.724c0,.9-.28,1.512-1.512,1.512Zm9.968,1.092a5.8,5.8,0,0,0,.2-1.736,5.365,5.365,0,0,0-5.6-5.712c-3.7,0-6.86,3-6.86,7.672,0,4.788,2.828,7.5,6.748,7.5a6.282,6.282,0,0,0,5.684-3.3l-.588-.448a5.383,5.383,0,0,1-4.4,2.184c-2.968,0-5.152-2.044-5.18-6.188Zm7.2-7.14-.392-.28-4.032,1.484v.9l2.492.2c.056,1.316.112,2.464.112,4.256v1.54c0,1.428-.028,3.584-.084,5.152l-2.3.336V40h7.14v-.9l-2.576-.364c-.028-1.568-.056-3.7-.056-5.124V31.068A7.673,7.673,0,0,1-1.288,26.98l.392.336A2.716,2.716,0,0,0,.9,28.128c1.092,0,1.568-.7,1.568-1.9A2.423,2.423,0,0,0,.336,25.216c-1.764,0-3.556,1.512-4.564,3.976Zm15.456.336V26.9h2.688v6.72c0,1.708-.028,3.416-.056,5.124l-2.6.364V40h7.7v-.9L15.82,38.74c-.028-1.708-.056-3.416-.056-5.124V26.9H20.1V25.608h-4.4c-.084-3.276.364-4.984,1.12-6.1a3.249,3.249,0,0,1,1.316-1.232l.812.644a3.407,3.407,0,0,0,2.1.868c.952,0,1.512-.5,1.568-1.176-.308-1.008-1.428-1.484-2.772-1.484a5.34,5.34,0,0,0-4.06,1.82c-1.344,1.4-1.932,3.3-2.128,6.58ZM34.972,38.768V29.976l.112-4.256-.308-.308-4.144.364v.9l2.3.392-.056,9.3a6.36,6.36,0,0,1-4.564,2.24c-1.82,0-2.716-1.008-2.716-3.92v-4.7l.14-4.256-.28-.308-4.2.364v.9l2.324.392-.084,7.784c-.028,4.116,1.456,5.544,3.976,5.544a7.118,7.118,0,0,0,5.46-2.94l.224,2.8L37.128,40v-.9Zm12.46-.476A3.508,3.508,0,0,1,45.3,39.1c-1.148,0-1.82-.7-1.82-2.352V26.9h4.228V25.608h-4.2l.168-4.228H42.14l-.672,4.144-2.856.336V26.9h2.744v7.532c0,1.092-.028,1.736-.028,2.436,0,2.38,1.176,3.528,3.3,3.528a4.3,4.3,0,0,0,3.36-1.4Zm15.344.476V29.976l.112-4.256-.308-.308-4.144.364v.9l2.3.392-.056,9.3a6.36,6.36,0,0,1-4.564,2.24c-1.82,0-2.716-1.008-2.716-3.92v-4.7l.14-4.256-.28-.308-4.2.364v.9l2.324.392L51.3,34.848c-.028,4.116,1.456,5.544,3.976,5.544a7.118,7.118,0,0,0,5.46-2.94l.224,2.8L64.932,40v-.9Zm8.848-13.244-.392-.28L67.2,26.728v.9l2.492.2c.056,1.316.112,2.464.112,4.256v1.54c0,1.428-.028,3.584-.084,5.152l-2.3.336V40h7.14v-.9l-2.576-.364c-.028-1.568-.056-3.7-.056-5.124V31.068a7.673,7.673,0,0,1,2.912-4.088l.392.336a2.716,2.716,0,0,0,1.792.812c1.092,0,1.568-.7,1.568-1.9a2.423,2.423,0,0,0-2.128-1.008c-1.764,0-3.556,1.512-4.564,3.976Zm10.528,6.048c.336-3.556,2.38-5.236,4.424-5.236a3.65,3.65,0,0,1,3.64,3.724c0,.9-.28,1.512-1.512,1.512Zm9.968,1.092a5.8,5.8,0,0,0,.2-1.736,5.365,5.365,0,0,0-5.6-5.712c-3.7,0-6.86,3-6.86,7.672,0,4.788,2.828,7.5,6.748,7.5a6.282,6.282,0,0,0,5.684-3.3L91.7,36.64a5.383,5.383,0,0,1-4.4,2.184c-2.968,0-5.152-2.044-5.18-6.188Zm-251.5,33.2V66.9h2.688v6.72c0,1.708-.028,3.416-.056,5.124l-2.6.364V80h7.7v-.9l-2.856-.364c-.028-1.708-.056-3.416-.056-5.124V66.9h4.34V65.608h-4.4c-.084-3.276.364-4.984,1.12-6.1a3.249,3.249,0,0,1,1.316-1.232l.812.644a3.407,3.407,0,0,0,2.1.868c.952,0,1.512-.5,1.568-1.176-.308-1.008-1.428-1.484-2.772-1.484a5.34,5.34,0,0,0-4.06,1.82c-1.344,1.4-1.932,3.3-2.128,6.58Zm17.584,14.532c3.444,0,6.86-2.464,6.86-7.532,0-5.1-3.472-7.644-6.86-7.644-3.472,0-6.888,2.548-6.888,7.644C-148.68,77.928-145.264,80.392-141.792,80.392Zm0-1.12c-2.828,0-4.508-2.212-4.508-6.412,0-4.172,1.68-6.524,4.508-6.524,2.8,0,4.508,2.352,4.508,6.524C-137.284,77.06-138.992,79.272-141.792,79.272Zm13.832-13.748-.392-.28-4.032,1.484v.9l2.492.2c.056,1.316.112,2.464.112,4.256v1.54c0,1.428-.028,3.584-.084,5.152l-2.3.336V80h7.14v-.9l-2.576-.364c-.028-1.568-.056-3.7-.056-5.124V71.068a7.673,7.673,0,0,1,2.912-4.088l.392.336a2.716,2.716,0,0,0,1.792.812c1.092,0,1.568-.7,1.568-1.9a2.423,2.423,0,0,0-2.128-1.008c-1.764,0-3.556,1.512-4.564,3.976Zm23.548,12.768a3.508,3.508,0,0,1-2.128.812c-1.148,0-1.82-.7-1.82-2.352V66.9h4.228V65.608h-4.2l.168-4.228h-1.54l-.672,4.144-2.856.336V66.9h2.744v7.532c0,1.092-.028,1.736-.028,2.436,0,2.38,1.176,3.528,3.3,3.528a4.3,4.3,0,0,0,3.36-1.4Zm15.9.448c-.028-1.54-.056-3.668-.056-5.124V70.7c0-3.976-1.288-5.488-3.836-5.488a8.171,8.171,0,0,0-5.684,2.94V61.968l.112-4.312-.42-.252-4.284,1.176v.868l2.548.224V73.616c0,1.428-.028,3.584-.056,5.124l-2.408.364V80h6.86v-.9l-2.212-.336C-97.972,77.2-98,75.044-98,73.616V69.192c1.82-1.736,3.248-2.24,4.648-2.24,1.82,0,2.688.952,2.688,3.864v2.8c0,1.456-.028,3.584-.056,5.152l-2.38.336V80h6.832v-.9Zm6.944-7.168c.336-3.556,2.38-5.236,4.424-5.236A3.65,3.65,0,0,1-73.5,70.06c0,.9-.28,1.512-1.512,1.512Zm9.968,1.092a5.8,5.8,0,0,0,.2-1.736A5.365,5.365,0,0,0-77,65.216c-3.7,0-6.86,3-6.86,7.672,0,4.788,2.828,7.5,6.748,7.5a6.282,6.282,0,0,0,5.684-3.3l-.588-.448a5.383,5.383,0,0,1-4.4,2.184c-2.968,0-5.152-2.044-5.18-6.188Zm17.22,7.728c3.444,0,6.86-2.464,6.86-7.532,0-5.1-3.472-7.644-6.86-7.644-3.472,0-6.888,2.548-6.888,7.644C-61.264,77.928-57.848,80.392-54.376,80.392Zm0-1.12c-2.828,0-4.508-2.212-4.508-6.412,0-4.172,1.68-6.524,4.508-6.524,2.8,0,4.508,2.352,4.508,6.524C-49.868,77.06-51.576,79.272-54.376,79.272Zm21.42-2.744a5.186,5.186,0,0,1-4.368,2.3c-3.024,0-5.152-2.3-5.152-6.216,0-3.948,2.016-6.272,4.844-6.272a6.074,6.074,0,0,1,1.9.336l.616,2.1a1.4,1.4,0,0,0,1.428,1.2,1.132,1.132,0,0,0,1.232-1.036,5.193,5.193,0,0,0-5.264-3.724c-3.64,0-6.972,2.828-6.972,7.588,0,4.648,2.688,7.588,6.776,7.588a5.621,5.621,0,0,0,5.544-3.584Zm5.432-4.956c.336-3.556,2.38-5.236,4.424-5.236a3.65,3.65,0,0,1,3.64,3.724c0,.9-.28,1.512-1.512,1.512Zm9.968,1.092a5.8,5.8,0,0,0,.2-1.736,5.365,5.365,0,0,0-5.6-5.712c-3.7,0-6.86,3-6.86,7.672,0,4.788,2.828,7.5,6.748,7.5a6.282,6.282,0,0,0,5.684-3.3l-.588-.448a5.383,5.383,0,0,1-4.4,2.184c-2.968,0-5.152-2.044-5.18-6.188Zm11.564,4.144c-1.792,1.428-2.6,1.932-3.78,1.932A2.278,2.278,0,0,1-12.348,76.3c0-1.12.5-2.3,3.22-3.332a29.959,29.959,0,0,1,3.136-1.008Zm4.592,1.54a1.638,1.638,0,0,1-1.26.672c-.756,0-1.2-.5-1.2-2.128V70.256c0-3.64-1.512-5.04-4.62-5.04-2.968,0-5.152,1.372-5.74,3.668a1.124,1.124,0,0,0,1.232,1.064c.728,0,1.148-.42,1.372-1.232L-11,66.644a5.792,5.792,0,0,1,1.96-.308c2.128,0,3.052.756,3.052,3.836v.9c-1.288.28-2.632.672-3.724,1.008-3.808,1.372-4.9,2.744-4.9,4.62,0,2.408,1.792,3.7,4.032,3.7,1.82,0,2.94-.812,4.648-2.548A2.582,2.582,0,0,0-3.36,80.336a2.745,2.745,0,0,0,2.436-1.4Zm15.932.392c-.056-1.54-.084-3.668-.084-5.124V70.7c0-3.948-1.288-5.488-3.836-5.488a8.026,8.026,0,0,0-5.6,2.884l-.224-2.576-.392-.28L.364,66.728v.9l2.492.2c.056,1.316.112,2.492.112,4.256v1.54c0,1.428-.028,3.584-.084,5.152L.532,79.1V80H7.364v-.9L5.152,78.74c-.028-1.54-.056-3.7-.056-5.124V69.192c1.792-1.652,3.22-2.24,4.592-2.24,1.792,0,2.632.952,2.632,3.864v2.8c0,1.456-.028,3.612-.056,5.152l-2.38.336V80h6.86v-.9Zm7.952,2.268a7.681,7.681,0,0,1-4.172,4.872l.364.812c2.716-1.148,5.292-3.948,5.292-7.308A6.851,6.851,0,0,0,23.66,77.4a2.407,2.407,0,0,0-1.68-.784,1.543,1.543,0,0,0-1.568,1.68,2.5,2.5,0,0,0,1.008,1.9Zm20.692-2.716a3.508,3.508,0,0,1-2.128.812c-1.148,0-1.82-.7-1.82-2.352V66.9h4.228V65.608h-4.2l.168-4.228h-1.54l-.672,4.144-2.856.336V66.9H37.1v7.532c0,1.092-.028,1.736-.028,2.436,0,2.38,1.176,3.528,3.3,3.528a4.3,4.3,0,0,0,3.36-1.4Zm9.1,2.1c3.444,0,6.86-2.464,6.86-7.532,0-5.1-3.472-7.644-6.86-7.644-3.472,0-6.888,2.548-6.888,7.644C45.388,77.928,48.8,80.392,52.276,80.392Zm0-1.12c-2.828,0-4.508-2.212-4.508-6.412,0-4.172,1.68-6.524,4.508-6.524,2.8,0,4.508,2.352,4.508,6.524C56.784,77.06,55.076,79.272,52.276,79.272ZM67.816,74.2c-2.016,0-3.248-1.6-3.248-3.976s1.288-4,3.332-4,3.248,1.6,3.248,3.92C71.148,72.524,69.888,74.2,67.816,74.2Zm2.548,6.16c2.24,0,3.08,1.064,3.08,2.464,0,1.848-1.848,3.36-5.348,3.36-2.548,0-4.2-.952-4.2-3.024a3.761,3.761,0,0,1,1.4-2.884,11.808,11.808,0,0,0,1.484.084Zm5.152-14.812-.476-.308-3.472,1.092a5.956,5.956,0,0,0-3.668-1.12c-3.108,0-5.4,1.82-5.4,4.984a4.674,4.674,0,0,0,2.324,4.312c-1.484,1.344-2.044,2.324-2.044,3.332a2.29,2.29,0,0,0,1.96,2.24c-2.1,1.008-2.94,2.1-2.94,3.444,0,2.268,2.016,3.808,6.272,3.808,4.844,0,7.28-2.548,7.28-5.152,0-2.408-1.512-3.724-4.62-3.724H66.612c-1.568,0-2.044-.616-2.044-1.484a3.433,3.433,0,0,1,.952-2.156,6.9,6.9,0,0,0,2.352.392c3.08,0,5.348-1.82,5.348-5.012a4.91,4.91,0,0,0-.9-3.024l3.192.028Zm4.256,6.02c.336-3.556,2.38-5.236,4.424-5.236a3.65,3.65,0,0,1,3.64,3.724c0,.9-.28,1.512-1.512,1.512Zm9.968,1.092a5.8,5.8,0,0,0,.2-1.736,5.365,5.365,0,0,0-5.6-5.712c-3.7,0-6.86,3-6.86,7.672,0,4.788,2.828,7.5,6.748,7.5a6.282,6.282,0,0,0,5.684-3.3l-.588-.448a5.383,5.383,0,0,1-4.4,2.184c-2.968,0-5.152-2.044-5.18-6.188Zm10.808,5.628a3.508,3.508,0,0,1-2.128.812c-1.148,0-1.82-.7-1.82-2.352V66.9h4.228V65.608h-4.2L96.8,61.38h-1.54l-.672,4.144-2.856.336V66.9h2.744v7.532c0,1.092-.028,1.736-.028,2.436,0,2.38,1.176,3.528,3.3,3.528a4.3,4.3,0,0,0,3.36-1.4Zm15.9.448c-.028-1.54-.056-3.668-.056-5.124V70.7c0-3.976-1.288-5.488-3.836-5.488a8.171,8.171,0,0,0-5.684,2.94V61.968l.112-4.312-.42-.252-4.284,1.176v.868l2.548.224V73.616c0,1.428-.028,3.584-.056,5.124l-2.408.364V80h6.86v-.9l-2.212-.336c-.028-1.568-.056-3.724-.056-5.152V69.192c1.82-1.736,3.248-2.24,4.648-2.24,1.82,0,2.688.952,2.688,3.864v2.8c0,1.456-.028,3.584-.056,5.152l-2.38.336V80h6.832v-.9Zm6.944-7.168c.336-3.556,2.38-5.236,4.424-5.236a3.65,3.65,0,0,1,3.64,3.724c0,.9-.28,1.512-1.512,1.512Zm9.968,1.092a5.8,5.8,0,0,0,.2-1.736,5.365,5.365,0,0,0-5.6-5.712c-3.7,0-6.86,3-6.86,7.672,0,4.788,2.828,7.5,6.748,7.5a6.282,6.282,0,0,0,5.684-3.3l-.588-.448a5.383,5.383,0,0,1-4.4,2.184c-2.968,0-5.152-2.044-5.18-6.188Zm7.2-7.14-.392-.28-4.032,1.484v.9l2.492.2c.056,1.316.112,2.464.112,4.256v1.54c0,1.428-.028,3.584-.084,5.152l-2.3.336V80h7.14v-.9l-2.576-.364c-.028-1.568-.056-3.7-.056-5.124V71.068a7.673,7.673,0,0,1,2.912-4.088l.392.336a2.716,2.716,0,0,0,1.792.812c1.092,0,1.568-.7,1.568-1.9a2.423,2.423,0,0,0-2.128-1.008c-1.764,0-3.556,1.512-4.564,3.976Zm11.368-4.116a7.425,7.425,0,0,1-2.94,3.808l.476.672c2.184-1.4,3.892-3.7,3.892-6.16a4.937,4.937,0,0,0-.476-2.128,1.986,1.986,0,0,0-1.4-.476,1.392,1.392,0,0,0-1.512,1.54,2.547,2.547,0,0,0,1.092,2.016Zm5.8.028a7.476,7.476,0,0,1-2.94,3.78l.448.672c2.184-1.4,3.892-3.7,3.892-6.16a4.918,4.918,0,0,0-.448-2.128,2.03,2.03,0,0,0-1.4-.476,1.38,1.38,0,0,0-1.512,1.54,2.469,2.469,0,0,0,1.092,2.016Z" transform="translate(160.244 22.876)" fill="#0068b6"/>
</svg>
