<svg xmlns="http://www.w3.org/2000/svg" width="40" height="40" viewBox="0 0 40 40">
  <g id="グループ_24" data-name="グループ 24" transform="translate(-517 -3727)">
    <rect id="長方形_45" data-name="長方形 45" width="40" height="40" transform="translate(517 3727)" fill="none"/>
    <path id="パス_5" data-name="パス 5" d="M84.674,123.411c11.609,0,17.957-9.617,17.957-17.957,0-.273-.006-.545-.018-.816a12.841,12.841,0,0,0,3.148-3.268,12.6,12.6,0,0,1-3.624.993,6.332,6.332,0,0,0,2.775-3.491A12.647,12.647,0,0,1,100.9,100.4a6.317,6.317,0,0,0-10.755,5.756,17.918,17.918,0,0,1-13.009-6.594,6.316,6.316,0,0,0,1.954,8.425,6.264,6.264,0,0,1-2.858-.79c0,.026,0,.053,0,.08A6.314,6.314,0,0,0,81.3,113.47a6.3,6.3,0,0,1-2.85.108,6.318,6.318,0,0,0,5.9,4.383,12.664,12.664,0,0,1-7.838,2.7A12.837,12.837,0,0,1,75,120.576a17.867,17.867,0,0,0,9.674,2.835" transform="translate(445 3636.589)" fill="#fff"/>
  </g>
</svg>
