<svg xmlns="http://www.w3.org/2000/svg" xmlns:xlink="http://www.w3.org/1999/xlink" width="1274.064" height="399.688" viewBox="0 0 1274.064 399.688">
  <defs>
    <filter id="パス_697" x="0" y="0" width="1274.064" height="374.608" filterUnits="userSpaceOnUse">
      <feOffset input="SourceAlpha"/>
      <feGaussianBlur stdDeviation="25" result="blur"/>
      <feFlood flood-color="#017a94"/>
      <feComposite operator="in" in2="blur"/>
      <feComposite in="SourceGraphic"/>
    </filter>
  </defs>
  <g id="グループ_733" data-name="グループ 733" transform="translate(-310.568 -320.072)">
    <g transform="matrix(1, 0, 0, 1, 310.57, 320.07)" filter="url(#パス_697)">
      <path id="パス_697-2" data-name="パス 697" d="M-290.976-32.64a2.547,2.547,0,0,0-.864-1.44l-5.088-3.936a3.621,3.621,0,0,0-1.824-.96c-.384,0-.768.288-1.344,1.152l-2.784,3.936h-4.7c0-2.688.384-13.728.384-14.3,1.248-.576,3.168-1.632,3.168-2.5a3.286,3.286,0,0,0-1.056-1.632l-2.88-2.688c-.864-.768-1.344-1.152-1.824-1.152-.576,0-1.056.384-1.728,1.056l-2.592,2.592h-22.656l-7.1-4.032a27.156,27.156,0,0,1,.288,4.8,112.838,112.838,0,0,1-1.728,17.76c-6.24-.192-8.064-.288-11.136-.576l1.92,3.84a57.819,57.819,0,0,1,8.928-.864c-2.016,12.288-2.592,15.456-4.128,23.232a19.185,19.185,0,0,0-.48,3.552,2.346,2.346,0,0,0,2.592,2.5c4.512,0,4.8-2.784,5.28-6.72h26.5c-1.44,7.488-3.456,7.488-5.952,7.488a45.49,45.49,0,0,1-9.024-1.248l-.1.576A12.862,12.862,0,0,1-323.9,7.68c11.712-.384,13.536-11.232,14.4-16.7h15.648c.672,0,1.44-.192,1.44-1.056,0-.48-.288-.864-.864-1.44l-4.9-4.224c-.768-.672-1.248-1.056-1.728-1.056s-.864.384-1.536,1.152l-3.456,4.32h-4.32c1.248-10.368,1.44-16.9,1.536-20.256h15.264C-291.648-31.584-290.976-31.872-290.976-32.64Zm-22.656-17.568c.192,3.744-.192,13.44-.288,16.32h-9.7c1.056-11.616,1.152-12.768,1.44-16.32Zm-14.88,0c-.48,9.792-.576,10.848-1.152,16.32h-9.5c.48-4.512,1.344-12.192,1.92-16.32Zm14.5,18.624c-.384,9.6-.96,15.456-1.536,20.256H-326.3c1.344-9.792,1.44-10.848,2.4-20.256Zm-15.84,0c-.192,1.536-.96,8.352-1.152,9.5-.1.768-.384,3.264-1.344,10.752h-9.7l2.592-20.256ZM-297.024-64.9a2.335,2.335,0,0,0-.864-1.44l-4.992-4.32c-.768-.672-1.152-.96-1.728-.96-.48,0-.96.384-1.536,1.152l-3.264,4.32h-28.8c.864-1.536,1.536-2.688,3.552-6.528,2.592-.672,3.072-1.056,3.072-1.92a1.589,1.589,0,0,0-.96-1.248l-8.352-4.32C-341.184-69.7-351.168-52.9-354.912-48l.48.48c3.648-3.072,10.464-8.928,14.88-16.32h41.088C-297.5-63.84-297.024-64.128-297.024-64.9Zm-59.52-2.208c0-7.3-9.7-10.272-13.632-11.52l-.288.576a26.271,26.271,0,0,1,4.224,7.1c2.208,5.664,2.976,7.68,5.952,7.68A3.7,3.7,0,0,0-356.544-67.1Zm-7.68,22.56c0-6.24-5.568-7.584-13.824-9.6l-.384.576c2.88,2.976,3.84,3.936,5.856,8.064,1.728,3.648,2.4,5.088,4.512,5.088A3.97,3.97,0,0,0-364.224-44.544Zm10.176-12.96L-355.1-57.7c-4.416,11.616-9.984,26.3-14.592,33.984-1.632,2.688-4.32,2.688-6.912,2.688l-.1.576c2.784,2.112,3.456,2.592,4.32,4.512a16.7,16.7,0,0,1,1.536,6.528c0,1.248-.768,7.488-.768,8.928,0,1.632.1,6.624,4.7,6.624,3.072,0,4.608-2.592,4.608-5.664,0-1.536-.192-2.5-1.44-6.432-1.152-3.84-1.824-6.432-1.824-7.968a12.151,12.151,0,0,1,.384-2.5c.864-4.7,3.456-11.712,4.8-16.224C-359.424-36.1-355.1-53.568-354.048-57.5Zm126.336,37.44c-.192-6.048-.192-7.2-.192-17.28h21.12c.672,0,1.536-.192,1.536-1.056a1.91,1.91,0,0,0-.96-1.44l-5.088-3.936a3.71,3.71,0,0,0-1.824-.96c-.48,0-1.056.768-1.44,1.248l-2.976,3.84H-227.9c0-2.016.1-15.456.1-16.416H-201.6c.672,0,1.44-.192,1.44-1.056a1.744,1.744,0,0,0-.96-1.44l-5.76-4.32c-.96-.768-1.344-.96-1.824-.96-.384,0-.864.48-1.44,1.152l-3.552,4.32H-227.9c3.456-2.88,9.7-9.408,14.5-14.208,1.344,0,3.648,0,3.648-1.536,0-.672-.576-1.056-1.248-1.44l-8.736-5.376c-.576,6.336-5.952,15.744-9.984,22.56h-12c-1.44,0-8.256-.1-14.784-.672l1.92,3.84a66.656,66.656,0,0,1,11.232-.864h8.736v16.416h-5.28c-.864,0-8.064-.1-14.688-.672l1.824,3.84a69.383,69.383,0,0,1,11.328-.864h6.816v9.6c0,.48-.1,4.9-.1,7.68h-11.712c-1.44,0-8.256-.1-14.784-.672l1.92,3.84a68.025,68.025,0,0,1,11.232-.864h13.248c-.1,4.8-.48,18.528-.48,22.848,0,2.592,1.92,2.592,2.784,2.592,1.248,0,5.376-.1,5.376-4.8,0-1.248-.48-18.048-.576-20.64h29.664c.672,0,1.44-.192,1.44-1.056,0-.384-.288-.672-1.056-1.44l-5.568-5.088A3.275,3.275,0,0,0-204.96-26.4c-.576,0-.864.384-1.536,1.152l-4.416,5.184Zm-47.52-57.5a32.079,32.079,0,0,1,6.24,9.408c1.152,3.072,2.208,5.856,5.184,5.856a4.174,4.174,0,0,0,3.936-4.32c0-4.7-4.7-9.312-14.976-11.616ZM-283.008-55.2a21.323,21.323,0,0,1,5.568,8.352c1.536,4.032,2.112,5.568,4.8,5.568a4.1,4.1,0,0,0,4.128-4.224c0-4.512-5.376-9.408-14.208-10.176Zm33.12-22.272c3.84,3.552,6.048,9.5,6.336,10.752.864,3.552,1.44,5.856,4.608,5.856,2.688,0,4.128-2.112,4.128-4.9,0-6.816-9.7-11.232-14.688-12.192Zm-8.448,24.288c-.864,1.824-10.08,20.16-14.208,26.88-2.208,3.552-4.128,3.936-7.584,4.416v.576c5.76,3.936,5.952,7.008,5.952,19.968,0,2.592.864,6.144,4.224,6.144,2.976,0,4.416-2.88,4.416-5.568a31.327,31.327,0,0,0-1.632-7.776c-1.92-6.24-2.112-6.912-2.112-8.544,0-2.016.48-3.264,1.728-6.72,6.048-16.8,6.72-18.72,9.7-29.184Zm151.872.576c0-1.248-6.624-9.024-8.256-9.024a4.255,4.255,0,0,0-2.3,1.056,9.968,9.968,0,0,1-4.416,2.112c-2.976.576-47.9,3.456-51.648,3.456-4.416,0-5.952-.288-9.312-6.432a12.908,12.908,0,0,0-.864,4.416c0,5.184,6.336,11.232,8.352,11.232.384,0,.576,0,2.3-1.056,4.224-2.4,13.536-3.552,15.648-3.84,17.856-2.3,19.872-2.5,37.344-3.648-4.992,8.064-16.8,22.08-22.368,27.264a52.082,52.082,0,0,0-21.792-9.312c16.224,11.04,23.04,21.888,24.1,23.616,2.592,4.32,3.552,5.856,5.664,5.856,2.5,0,3.744-2.208,3.744-4.512,0-3.84-2.976-8.832-9.888-14.3,4.32-2.784,6.912-4.416,24.96-21.6,2.112-1.92,2.688-2.5,4.608-2.976C-106.848-51.36-106.464-51.36-106.464-52.608Zm54.816-3.264c0-7.968-13.632-12.1-25.152-11.328A47.22,47.22,0,0,1-61.056-56.256c3.072,3.072,4.224,4.224,5.856,4.224A3.738,3.738,0,0,0-51.648-55.872Zm38.976-2.976-.48-.288A183.176,183.176,0,0,1-43.776-30.144C-47.9-26.976-62.784-15.936-65.952-15.936c-2.016,0-4.8-2.016-7.008-6.336a11.934,11.934,0,0,0-.96,4.224c0,4.512,6.336,12.576,9.7,12.576a2.607,2.607,0,0,0,1.632-.576c.48-.48,2.592-2.88,3.072-3.36,1.632-1.632,10.656-8.16,12.672-9.7C-25.728-35.328-14.976-51.84-12.672-58.848ZM92.544-65.472c0-6.816-10.368-9.888-16.512-9.792a40.377,40.377,0,0,1,9.792,9.024c2.88,3.744,3.264,4.224,4.512,4.224S92.544-63.552,92.544-65.472ZM82.368-60.864c0-5.28-8.832-9.792-16.32-10.656a39.572,39.572,0,0,1,9.5,10.176c1.728,2.592,2.688,4.032,4.128,4.032C81.6-57.312,82.368-59.52,82.368-60.864ZM75.84-50.592c0-2.016-7.392-7.1-8.64-7.1a1.876,1.876,0,0,0-1.44.672,7.985,7.985,0,0,1-4.128,2.688c-.384.1-9.984,1.056-12.192,1.248.384-1.632,2.5-10.368,2.688-10.56a23.37,23.37,0,0,0,2.592-4.32c0-2.976-8.448-5.952-10.368-5.952-1.728,0-3.648,1.056-4.9,1.728,3.36,1.344,5.568,2.208,5.568,6.72,0,3.264-1.056,8.736-2.112,13.056L36-51.744c-9.024.864-9.312.864-10.944.864-3.936,0-5.568-1.44-9.12-5.088a14.269,14.269,0,0,0-.576,3.456c0,4.416,5.568,9.216,7.584,9.216.864,0,1.056-.192,3.168-1.344.768-.48,8.64-2.4,15.552-3.456C32.64-19.008,19.872-8.256,12.96-3.072l.48.672c3.936-1.632,13.248-5.472,22.272-18.144,7.392-10.368,9.7-18.432,12.576-28.32,1.152-.1,7.008-.672,8.16-.768,3.168-.288,7.776-.672,9.312-.864A96.664,96.664,0,0,1,61.152-22.08C60.1-19.1,57.888-12.768,55.3-12.768c-1.152,0-5.952-1.632-11.04-4.32l-.192.384C45.312-15.168,50.4-9.6,51.072-6.24c.768,3.36.96,4.32,2.592,4.32a9.3,9.3,0,0,0,4.8-2.3c7.968-7.1,11.04-25.344,13.248-38.688.576-3.456.672-3.84,1.248-4.32C74.688-48.768,75.84-49.728,75.84-50.592Zm100.9-10.08c0-3.36-6.816-5.088-12.768-5.088-8.928,0-18.624,2.5-23.808,9.408,7.3-2.784,13.632-4.32,17.472-4.32.576,0,3.552,0,3.552,1.056a.876.876,0,0,1-.288.768c-.288.288-7.3,6.72-8.736,8.064l.576.576c3.168-2.3,9.216-5.472,18.528-7.1C174.72-57.888,176.736-58.464,176.736-60.672Zm4.7,50.592c0-2.688-4.032-4.128-7.392-4.128-.96,0-10.272.768-12.192.768-18.144,0-19.872-5.568-22.08-12.864a7.426,7.426,0,0,0-.96,4.032,14.045,14.045,0,0,0,9.7,13.056c8.352,2.592,21.216,2.688,23.52,2.688C178.08-6.528,181.44-7.008,181.44-10.08Zm-52.9-27.936-.768-.192c-3.456,7.392-7.488,18.528-8.544,21.792-.192.672-.672,1.824-1.248,1.824-1.536,0-3.168-7.392-3.168-14.016,0-10.464,2.976-20.544,6.72-30.144,1.056-2.784,1.248-3.648,1.248-4.512,0-3.744-6.24-9.12-9.7-9.12A3.834,3.834,0,0,0,111.36-72a12.923,12.923,0,0,1,3.264,9.312,44.5,44.5,0,0,1-.576,6.432c-1.632,9.888-3.744,22.848-3.744,29.76,0,19.488,6.24,28.32,10.176,28.32,2.3,0,2.5-1.92,2.5-3.552,0-.96-.48-5.568-.48-6.624,0-4.32,2.208-13.536,3.36-18.336C126.624-29.76,127.968-35.328,128.544-38.016Zm139.392,31.2c0-6.432-15.648-11.424-24.768-13.056a106.029,106.029,0,0,1-2.112-22.272c0-4.992.288-8.544.384-10.272a15.087,15.087,0,0,0,6.336,1.632c5.568,0,13.92-2.016,16.128-3.552a2.648,2.648,0,0,0,1.344-2.5c0-2.592-3.936-3.168-5.28-3.168a8.6,8.6,0,0,0-2.88.48c-7.488,2.4-11.136,3.552-15.264,3.84a69.031,69.031,0,0,1,1.344-7.68,44.2,44.2,0,0,0,1.152-5.28c0-3.744-7.1-6.336-10.464-6.336a7.26,7.26,0,0,0-6.048,2.688c6.912,1.248,8.064,3.36,8.064,9.12,0,.672-.1,19.008-.1,20.928,0,12.288.672,17.568,1.248,21.216A50.907,50.907,0,0,0,218.976-19.2c-3.264.96-8.448,4.32-8.448,9.312,0,6.528,10.08,10.08,17.28,10.08,13.728,0,15.456-8.448,16.032-13.92,3.168.768,6.336,1.824,12.864,5.952,3.552,2.3,7.1,4.512,8.448,4.512C267.168-3.264,267.936-4.9,267.936-6.816Zm-30.72-8.544c0,3.36-.384,9.792-11.9,9.792-4.128,0-11.04-.864-11.04-4.7,0-4.8,9.984-5.856,14.976-5.856A35.957,35.957,0,0,1,237.216-15.36Zm129.216-6.624c0-8.736-6.048-17.952-21.5-17.952-9.984,0-17.28,3.552-23.04,6.816,3.84-6.24,22.272-27.36,24.768-29.28,3.456-2.592,3.456-2.688,3.456-4.224,0-2.016-3.36-6.624-7.008-6.624-.48,0-3.648,1.056-4.32,1.248-2.88.96-13.056,3.84-17.664,3.84-2.688,0-4.416-.864-6.624-4.512A4.255,4.255,0,0,0,313.44-69.5c0,5.952,5.664,9.024,7.776,9.024.288,0,4.032-2.016,4.224-2.112,5.184-2.784,12.48-5.184,13.728-5.184.768,0,1.056.384,1.056.96,0,3.648-23.616,34.272-31.3,41.856-5.76,5.568-6.528,6.336-6.528,9.5,0,3.36,2.112,4.032,3.264,4.032,2.016,0,2.88-1.44,5.28-5.28,1.44-2.208,13.824-20.352,32.544-20.352,9.792,0,15.648,6.72,15.648,14.3,0,7.3-5.376,15.552-13.056,16.9-2.5-7.968-7.872-12.96-15.072-12.96-3.936,0-10.56,1.728-10.56,8.352,0,7.488,9.5,11.232,18.72,11.232C356.832.768,366.432-10.944,366.432-21.984ZM340.128-4.32a9.128,9.128,0,0,1-3.36.576c-2.784,0-12.672-2.208-12.672-7.2,0-2.784,2.688-4.032,4.608-4.032C331.872-14.976,338.112-11.424,340.128-4.32Zm-823.1,107.68a2.547,2.547,0,0,0-.864-1.44l-5.088-3.936a3.621,3.621,0,0,0-1.824-.96c-.384,0-.768.288-1.344,1.152l-2.784,3.936h-4.7c0-2.688.384-13.728.384-14.3,1.248-.576,3.168-1.632,3.168-2.5a3.286,3.286,0,0,0-1.056-1.632l-2.88-2.688c-.864-.768-1.344-1.152-1.824-1.152-.576,0-1.056.384-1.728,1.056l-2.592,2.592h-22.656l-7.1-4.032a27.156,27.156,0,0,1,.288,4.8,112.834,112.834,0,0,1-1.728,17.76c-6.24-.192-8.064-.288-11.136-.576l1.92,3.84a57.819,57.819,0,0,1,8.928-.864c-2.016,12.288-2.592,15.456-4.128,23.232a19.187,19.187,0,0,0-.48,3.552,2.346,2.346,0,0,0,2.592,2.5c4.512,0,4.8-2.784,5.28-6.72h26.5c-1.44,7.488-3.456,7.488-5.952,7.488a45.49,45.49,0,0,1-9.024-1.248l-.1.576a12.862,12.862,0,0,1,7.008,9.888c11.712-.384,13.536-11.232,14.4-16.7h15.648c.672,0,1.44-.192,1.44-1.056,0-.48-.288-.864-.864-1.44l-4.9-4.224c-.768-.672-1.248-1.056-1.728-1.056s-.864.384-1.536,1.152l-3.456,4.32h-4.32c1.248-10.368,1.44-16.9,1.536-20.256h15.264C-483.648,104.416-482.976,104.128-482.976,103.36Zm-22.656-17.568c.192,3.744-.192,13.44-.288,16.32h-9.7c1.056-11.616,1.152-12.768,1.44-16.32Zm-14.88,0c-.48,9.792-.576,10.848-1.152,16.32h-9.5c.48-4.512,1.344-12.192,1.92-16.32Zm14.5,18.624c-.384,9.6-.96,15.456-1.536,20.256H-518.3c1.344-9.792,1.44-10.848,2.4-20.256Zm-15.84,0c-.192,1.536-.96,8.352-1.152,9.5-.1.768-.384,3.264-1.344,10.752h-9.7l2.592-20.256ZM-489.024,71.1a2.335,2.335,0,0,0-.864-1.44l-4.992-4.32c-.768-.672-1.152-.96-1.728-.96-.48,0-.96.384-1.536,1.152l-3.264,4.32h-28.8c.864-1.536,1.536-2.688,3.552-6.528,2.592-.672,3.072-1.056,3.072-1.92a1.589,1.589,0,0,0-.96-1.248l-8.352-4.32C-533.184,66.3-543.168,83.1-546.912,88l.48.48c3.648-3.072,10.464-8.928,14.88-16.32h41.088C-489.5,72.16-489.024,71.872-489.024,71.1Zm-59.52-2.208c0-7.3-9.7-10.272-13.632-11.52l-.288.576a26.273,26.273,0,0,1,4.224,7.1c2.208,5.664,2.976,7.68,5.952,7.68A3.7,3.7,0,0,0-548.544,68.9Zm-7.68,22.56c0-6.24-5.568-7.584-13.824-9.6l-.384.576c2.88,2.976,3.84,3.936,5.856,8.064,1.728,3.648,2.4,5.088,4.512,5.088A3.97,3.97,0,0,0-556.224,91.456Zm10.176-12.96L-547.1,78.3c-4.416,11.616-9.984,26.3-14.592,33.984-1.632,2.688-4.32,2.688-6.912,2.688l-.1.576c2.784,2.112,3.456,2.592,4.32,4.512a16.7,16.7,0,0,1,1.536,6.528c0,1.248-.768,7.488-.768,8.928,0,1.632.1,6.624,4.7,6.624,3.072,0,4.608-2.592,4.608-5.664,0-1.536-.192-2.5-1.44-6.432-1.152-3.84-1.824-6.432-1.824-7.968a12.155,12.155,0,0,1,.384-2.5c.864-4.7,3.456-11.712,4.8-16.224C-551.424,99.9-547.1,82.432-546.048,78.5ZM-393.6,99.04c0-19.3-16.9-30.144-35.52-30.144-23.424,0-40.9,16.992-40.9,37.632a17.825,17.825,0,0,0,2.688,9.792c.672.864,4.512,4.416,5.184,5.376,2.88,4.032,3.744,5.28,5.952,5.28a5.564,5.564,0,0,0,3.072-1.056c6.528-5.376,15.552-24.672,21.7-37.824,2.976-6.24,3.264-6.912,3.264-7.968,0-1.344-1.44-4.9-6.624-7.68,1.056-.48,1.536-.576,3.936-.576,16.7,0,29.76,9.6,29.76,25.824,0,14.592-9.6,28.128-30.144,35.424l.1.768C-409.152,131.968-393.6,117.664-393.6,99.04Zm-42.144-19.872c0,4.992-3.168,11.232-12.768,30.528-1.632,3.264-5.376,10.08-7.968,10.08-3.744,0-7.488-7.2-7.488-13.728,0-17.664,14.688-31.3,25.248-33.024A8.39,8.39,0,0,1-435.744,79.168Zm103.488,16.416v-19.2H-304.8c.576,0,1.44-.1,1.44-.96,0-.672-.576-1.152-.96-1.536l-5.952-5.28a2.941,2.941,0,0,0-1.632-.96c-.576,0-1.056.48-1.536,1.248L-316.9,74.08h-15.36V61.792c.768-.48,2.688-1.632,2.688-2.688a1.631,1.631,0,0,0-1.44-1.536l-9.6-2.688c1.056,4.032,1.536,6.816,1.728,19.2h-16.128c-4.9,0-9.888-.192-14.784-.672l1.92,3.84a65.728,65.728,0,0,1,11.328-.864h17.76c.1,5.856.1,13.44,0,19.2h-24.864c-1.632,0-7.68-.1-14.688-.672l1.92,3.84a63.641,63.641,0,0,1,11.232-.864h23.808c-2.688,5.088-18.048,25.152-36.48,37.056v.48c13.152-3.648,28.7-15.072,39.072-29.28,0,7.392,0,14.784-.192,19.872-.1,2.016-.672,11.712-.672,13.92,0,1.92.768,3.36,3.264,3.36,2.4,0,4.9-1.344,4.9-4.8,0-1.248-.48-17.28-.672-23.52-.1-4.032-.1-12.768,0-17.088h.192c1.92,8.16,11.424,25.632,31.68,36.288A18.6,18.6,0,0,1-290.5,126.4v-.48c-15.744-2.112-32.16-14.208-40.128-28.032h36.48c.672,0,1.44-.1,1.44-1.056,0-.576-.384-.96-.96-1.44l-6.432-5.664c-.576-.48-1.248-1.056-1.824-1.056s-1.248.768-1.536,1.248l-3.552,5.664Zm133.248,6.432c.48,0,1.536,0,1.536-.96,0-.384-.576-1.056-1.056-1.44L-204.1,95.1c-.864-.768-1.344-.96-1.728-.96s-.768.288-1.632,1.152l-4.416,4.416h-16.992a76.434,76.434,0,0,0,7.392-7.3c5.568-6.048,6.144-6.72,7.008-7.584,3.36-.384,4.32-.672,4.32-1.92,0-.288-.1-.672-1.056-1.248l-8.64-5.184c-.288,4.224-5.952,16.32-10.944,23.232h-5.664c-.1-12.576-.1-14.112-.1-26.592h30.24c.576,0,1.536,0,1.536-.96a2.422,2.422,0,0,0-.96-1.44L-211.2,66.3a3.454,3.454,0,0,0-1.92-1.056c-.48,0-1.056.576-1.536,1.248l-3.456,4.32h-18.432c0-1.344.1-7.1.1-7.968,2.016-1.248,3.072-2.016,3.072-2.592,0-.864-.672-1.056-1.248-1.248L-244.8,56.224c1.728,3.744,1.728,6.048,1.92,14.592h-17.568c-4.9,0-9.888-.192-14.784-.576l1.92,3.744a75.236,75.236,0,0,1,11.328-.864h19.1c.192,14.592.192,16.224.192,26.592h-23.52c-4.9,0-9.888-.192-14.784-.576l1.92,3.84a58.969,58.969,0,0,1,11.328-.96h21.12c-5.664,9.408-18.528,23.712-33.888,33.408l.384.768C-264,130.72-249.7,117.76-242.592,107.968c0,8.544-.1,12.384-.768,26.208-.1,1.056-.288,4.992-.288,5.76,0,1.152,0,2.88,3.072,2.88.576,0,4.9-.288,4.9-4.512,0-1.632-.48-9.984-.48-11.9-.1-4.416-.192-11.616-.288-21.12,4.32,7.872,14.592,21.7,30.912,29.184,2.112-4.608,7.008-7.392,9.312-8.16l-.192-.672c-17.664-1.824-33.024-13.056-39.936-23.616ZM-268.992,78.3a33,33,0,0,1,6.816,14.016c.384,2.016.96,4.9,4.224,4.9,2.688,0,3.84-2.5,3.84-4.512,0-8.352-10.464-13.056-14.4-14.784ZM-117.6,111.04c0-.672-.48-1.248-1.248-1.824l-3.168-2.3c-1.248-.864-1.824-1.152-2.3-1.152s-1.056.384-1.824,1.152l-2.592,2.784h-30.432l-8.64-4.128a141.813,141.813,0,0,1,.576,14.784c0,2.88-.48,17.088-.48,20.256,0,1.536.384,2.5,2.5,2.5,1.824,0,4.9-.48,4.512-4.608H-127.3c0,1.728,0,4.128,2.784,4.128,2.3,0,4.512-1.44,4.512-3.552,0-.576-.1-1.728-.672-12.672-.192-2.88-.192-9.024-.192-12.192C-117.984,112.576-117.6,111.616-117.6,111.04Zm-9.7,11.616h-33.5V112h33.5Zm0,13.536h-33.5V124.96h33.5Zm27.072-36.96c0-.48-.384-.96-1.056-1.536l-5.472-4.9a2.8,2.8,0,0,0-1.92-1.056c-.576,0-1.056.48-1.632,1.248l-3.84,4.992h-18.912V72.736h25.92c.768,0,1.44-.288,1.44-.96a2.47,2.47,0,0,0-.96-1.632l-5.568-4.608a2.679,2.679,0,0,0-1.728-.864c-.576,0-1.056.288-1.632,1.056l-3.456,4.7h-17.472A86.034,86.034,0,0,0-126.144,61.7c2.112-.288,2.976-.768,2.976-1.632,0-.576-.672-1.152-1.248-1.44l-7.872-4.032c-.768,7.968-5.28,14.3-6.336,15.84h-29.184c-4.9,0-9.792-.288-14.784-.672l1.92,3.84a67.005,67.005,0,0,1,11.328-.864h12.864V97.984h-15.744c-1.632,0-7.2,0-14.688-.672l1.824,3.84a68.363,68.363,0,0,1,11.328-.864h72.1C-100.8,100.288-100.224,100-100.224,99.232ZM-139.2,97.984h-10.752V72.736H-139.2Zm25.44-15.456c0-.672-.48-1.152-1.152-1.632L-122.3,75.52c-.864,6.816-6.72,16.416-9.216,19.3l.576.768c3.456-2.208,6.144-4.128,13.536-11.136C-114.528,84.064-113.76,83.584-113.76,82.528Zm-36.576-16.9c0-5.664-8.736-10.08-13.344-11.04l-.1.576a22.305,22.305,0,0,1,4.8,7.488c2.016,4.8,2.784,6.816,5.376,6.816A3.642,3.642,0,0,0-150.336,65.632ZM-160.9,91.168c0-3.36-2.5-9.408-13.728-14.688l-.576.384a28.3,28.3,0,0,1,5.76,10.08c2.3,7.392,2.592,8.256,4.992,8.256C-162.72,95.2-160.9,94.048-160.9,91.168ZM-4.032,133.792v-.48a50.589,50.589,0,0,1-31.1-11.712c3.552-4.7,9.216-13.248,13.728-27.84,1.536-.672,5.088-2.112,5.088-3.072a2.366,2.366,0,0,0-.96-1.632l-4.608-4.224c-.384-.384-1.056-.96-1.536-.96-.576,0-1.056.672-1.632,1.152l-2.976,2.5h-8.736c.864-2.3,4.512-12.384,5.28-14.4a36.167,36.167,0,0,1,2.112-4.7c2.784-.864,5.088-1.344,5.088-2.688a2.372,2.372,0,0,0-.768-1.44l-4.7-5.088c-.384-.384-.768-.864-1.248-.864-.576,0-.864.48-1.344.864l-2.784,2.592H-68.544c-4.8,0-10.08-.288-14.784-.672l1.92,3.84A69.067,69.067,0,0,1-70.176,64.1H-64.7c-.864,44.832-13.92,68.928-26.4,77.376l.384.672c16.32-5.088,24.672-26.592,27.168-36.48A182.092,182.092,0,0,0-59.04,77.728c1.728,14.208,6.912,31.872,16.032,44.064-12.864,14.688-25.92,19.1-31.3,20.832v.768A56,56,0,0,0-39.168,126.3,58.328,58.328,0,0,0-13.056,142.24,17.763,17.763,0,0,1-4.032,133.792Zm-24-43.968c-.768,4.9-2.3,14.976-11.52,27.552a67.589,67.589,0,0,1-12.96-23.232c-2.016-6.048-5.856-20.256-5.76-26.112l.1-3.936h23.04A219.861,219.861,0,0,1-44.448,88.48c-.864,1.92-1.056,2.4-1.056,3.072,0,1.248,1.344,2.592,3.36,2.592,2.688,0,3.552-2.112,4.512-4.32ZM92.064,67.84a9.072,9.072,0,1,0-9.12,9.12A9.1,9.1,0,0,0,92.064,67.84ZM77.088,80.7c0-1.728-7.008-8.352-8.064-8.352-.672,0-3.264,2.112-4.032,2.3C60.384,76,25.44,78.88,24.1,78.88c-4.224,0-7.392-2.976-9.5-6.336a7.689,7.689,0,0,0-.864,3.744c0,6.24,6.816,10.752,7.68,10.752.672,0,3.744-1.632,4.416-1.92,3.168-1.344,20.544-4.416,40.32-5.568-3.84,14.88-10.368,26.5-14.88,32.544-4.9,6.72-16.224,18.336-27.744,24.576l.1.672c11.232-2.592,21.5-10.464,26.4-14.88C58.656,114.5,64.7,104.9,71.04,87.712c1.152-3.168,1.248-3.36,2.976-4.32C76.032,82.336,77.088,81.664,77.088,80.7Zm11.328-12.96a5.572,5.572,0,0,1-5.568,5.568,5.52,5.52,0,0,1,0-11.04A5.553,5.553,0,0,1,88.416,67.744Zm87.84,11.808c0-1.536-7.3-7.776-8.448-7.776a1.747,1.747,0,0,0-1.248.672c-1.344,1.152-1.92,1.728-4.992,2.208-3.936.672-23.616,1.824-28.128,2.112-.96.1-5.76.576-6.816.576a5.163,5.163,0,0,1-3.072-.768c-4.608-2.784-6.048-3.552-8.544-3.552a9.517,9.517,0,0,0-4.9,1.632c3.936,1.44,5.568,2.4,6.528,5.76,2.112,7.776,2.88,31.776,2.88,34.272,0,.576-.384,3.552-.384,4.224,0,2.592,1.632,9.312,4.992,9.312,2.4,0,2.592-3.552,2.592-5.376a197,197,0,0,1,22.176-1.056c10.56,0,12.48.288,17.088.864a14.791,14.791,0,0,0,1.824.192,2.3,2.3,0,0,0,2.592-2.3c0-1.344-.672-1.92-2.976-3.552-1.632-1.152-1.824-1.344-1.824-2.016a4.083,4.083,0,0,1,.192-1.056c1.248-5.184,3.072-15.168,4.512-22.848,1.44-7.488,1.536-7.584,3.744-9.12C175.68,80.9,176.256,80.32,176.256,79.552Zm-12.288,1.92c0,5.568-3.648,31.68-4.032,34.848-3.936.288-30.72,1.728-33.792,1.728,0-.192-2.112-34.56-2.112-36.384,0-.768.1-.864.384-.864.768,0,3.84,1.152,4.512,1.152,1.152,0,5.856-.672,6.816-.768,11.328-1.152,23.616-1.824,26.4-1.824C163.584,79.36,163.968,80.416,163.968,81.472Zm117.408-14.3c0-6.336-10.848-7.968-14.688-7.968-.864,0-1.536.1-2.784.192a36.616,36.616,0,0,1,10.464,7.1c3.168,3.072,3.456,3.456,4.512,3.456A2.608,2.608,0,0,0,281.376,67.168Zm-8.352,8.64c0-6.432-10.656-9.12-16.7-9.216a45.571,45.571,0,0,1,9.6,8.16c3.552,3.936,3.648,4.032,4.8,4.032C271.68,78.784,273.024,77.92,273.024,75.808Zm-33.7-.768c0-10.176-18.432-10.368-19.008-10.368a22.881,22.881,0,0,0-4.416.384,59.421,59.421,0,0,1,14.5,8.928c4.608,3.84,5.088,4.224,6.336,4.224C237.408,78.208,239.328,77.728,239.328,75.04Zm37.248,7.3-.672-.48c-16.7,19.872-33.5,34.08-49.152,43.008a6.559,6.559,0,0,1-3.36,1.056c-2.688,0-6.528-4.608-7.488-5.664a14.164,14.164,0,0,0-.288,2.5c0,6.336,6.528,12.768,9.12,12.768,1.344,0,2.112-.864,2.88-1.824a13.728,13.728,0,0,1,3.36-3.072C250.944,117.184,265.056,103.84,276.576,82.336Zm-45.5,13.728c0-.768-.384-4.416-4.9-6.912-4.128-2.3-12.384-2.3-13.344-2.3a45.338,45.338,0,0,0-7.2.576,72.971,72.971,0,0,1,14.88,7.2c6.144,4.128,6.912,4.608,7.872,4.608A2.935,2.935,0,0,0,231.072,96.064ZM368.16,126.976c0-3.072-7.584-5.664-8.352-5.664-.384,0-2.688.672-3.168.672-2.784.192-16.7.576-19.776.768.192-3.456,1.44-20.352,1.632-20.736a16.419,16.419,0,0,0,.864-2.88c0-.672-.576-1.248-1.536-2.208a131.031,131.031,0,0,1,14.88-.576c1.056,0,3.072-.288,3.072-2.016,0-2.5-5.76-3.36-6.24-3.36-.576,0-3.456,1.344-4.128,1.536a160.493,160.493,0,0,1-21.6,1.728c-3.648,0-6.528-.288-9.888-2.688-.1,3.168,4.032,7.392,6.432,7.392.384,0,2.592-.384,3.168-.48.48-.1,3.072-.48,7.3-1.056,1.632,2.688,2.016,3.552,2.016,10.656,0,5.184-.384,11.808-.576,14.976-3.36.192-18.336,1.824-20.64,1.824-3.744,0-6.048-2.5-8.064-5.376a12.474,12.474,0,0,0-.384,2.976c0,3.936,4.992,8.736,7.008,8.736a2.26,2.26,0,0,0,1.248-.48c5.568-4.32,30.144-4.512,32.832-4.512a84.965,84.965,0,0,1,16.8,1.44,50.1,50.1,0,0,0,5.376,1.248A1.775,1.775,0,0,0,368.16,126.976Zm91.392-44.448c0-1.824-6.912-7.584-7.968-7.584-.96,0-4.224,2.592-5.088,2.88-2.5.864-14.5,2.208-18.816,1.728,1.248-1.536,3.744-4.8,4.7-5.664,1.824-1.728,2.208-2.208,2.208-3.072,0-2.5-7.008-6.912-10.848-6.912a15.651,15.651,0,0,0-4.7.768c5.088,3.072,5.28,3.84,5.28,4.8,0,3.072-9.312,20.352-25.056,34.752l.48.768c9.5-4.992,16.512-10.464,25.44-22.272a10.82,10.82,0,0,0,4.9,1.632c.48,0,2.4-.288,3.072-.384,3.936-.576,10.464-1.536,14.4-1.92-8.832,22.368-28.224,43.584-49.152,55.2l.192.672a62.606,62.606,0,0,0,18.816-8.16c14.688-9.12,24.768-21.12,33.984-39.072,2.112-4.128,2.976-4.992,5.184-5.952C459.264,83.488,459.552,83.2,459.552,82.528Zm94.08,23.808a8.773,8.773,0,0,0-2.88-6.432c-5.28-4.608-14.976-8.832-24.768-10.368.1-4.7.288-15.744,1.344-19.392a44.823,44.823,0,0,0,1.344-4.8c0-3.072-9.408-5.088-10.848-5.088-2.112,0-4.416,1.152-6.336,2.3,4.992,1.728,7.1,2.688,7.68,4.8.768,3.072.864,22.176.864,26.3,0,8.16-.1,23.328-1.248,30.912a42.784,42.784,0,0,0-.672,6.432c0,2.5,1.344,8.064,4.512,8.064,3.744,0,3.744-5.664,3.744-7.68,0-2.208-.576-13.248-.576-15.744-.1-3.456.1-20.16.1-23.9,6.624,2.5,11.616,5.952,20.448,15.744,1.536,1.632,2.784,2.88,4.224,2.88C551.712,110.368,553.632,109.5,553.632,106.336Z" transform="translate(645.43 155.93)" fill="#fff"/>
    </g>
    <path id="パス_699" data-name="パス 699" d="M-347.54-19.92c-1.24-2.56-2.24-5.04-2.08-6.6-1.32.12-2.4.12-3.32.12-1,0-1.96-.04-3.16-.12a.748.748,0,0,0-.16,1l.64.08c2.44.32,2.76.92,2.68,3.44-.08,2.2-.24,5.6-.44,8.92-.24,3.96-.44,6.16-.68,8.8-.24,2.8-.8,3.04-2.48,3.28l-.88.12a.79.79,0,0,0,.08,1c1.36-.08,2.8-.12,4.08-.12,1.52,0,3.08.04,4.44.12.28-.12.32-.76.04-1L-350.3-1c-1.56-.12-1.8-.76-1.8-3.72,0-3.4.16-6.96.28-9.4.12-2.32.24-4.64.4-7.12h.08c.88,1.84,1.72,3.92,2.56,5.76l3.6,7.72c.92,1.96,2.84,5.88,3.52,8a.489.489,0,0,0,.36.16.464.464,0,0,0,.4-.16c.72-1.84,2.52-5.6,4.32-9.12l3.56-7c.8-1.56,2.32-4.76,2.6-5.2h.08l.12,16.68c0,2.56,0,3.2-1.96,3.4l-1.16.12a.741.741,0,0,0,.08,1c1.64-.08,3.44-.12,4.84-.12,1.44,0,3.08.04,4.72.12a.737.737,0,0,0,.08-1L-324.9-1c-1.88-.16-1.84-1.24-1.96-3.24-.32-5.76-.36-13.16-.44-17.4-.04-2.8.28-3.56,2.8-3.8l.84-.08a.842.842,0,0,0-.04-1c-1.24.08-2.56.12-3.56.12-.8,0-1.64,0-3-.12-.08,1.84-1.24,4.04-3.04,7.68l-3.76,7.64c-1,2.04-2,4.12-3.08,6h-.08c-.96-1.76-1.84-3.6-2.76-5.48Zm33.72,13.36c-2.56.92-3.32,1.84-3.32,3.4a3.742,3.742,0,0,0,1.24,2.8,4.14,4.14,0,0,0,2.8.92,5.92,5.92,0,0,0,2.88-1,6.141,6.141,0,0,1,1.56-.8c.24,0,.48.32.64.56a3.192,3.192,0,0,0,2.6,1.24,4.2,4.2,0,0,0,3.36-1.76c0-.28-.12-.52-.28-.52-.12,0-.32.16-.52.28a2.3,2.3,0,0,1-1,.24c-1.56,0-1.92-1.64-1.84-3.48l.24-6.96c.12-3-1.28-4.68-4.16-4.68-2.92,0-7.44,2.84-7.44,4.92a.506.506,0,0,0,.56.56,4.3,4.3,0,0,0,2.28-.76c.32-.24.36-.72.4-1.36.08-1.24,1.44-1.8,2.56-1.8,2.48,0,2.96,2,2.92,3.48l-.04,1.84c0,.6-.08.96-.68,1.16Zm-.24,2.92c0-1.56,1.16-2.16,3.52-2.96A7.549,7.549,0,0,1-308.9-7c.24,0,.4.08.4.52l-.08,2.36c-.04.84-.04,1.4-.52,1.88a4.523,4.523,0,0,1-2.44,1A2.411,2.411,0,0,1-314.06-3.64Zm19.6-.84c0,2.88-.04,3.28-1.52,3.48l-.84.12a.7.7,0,0,0,.08,1c1.12-.08,2.32-.12,3.76-.12,1.4,0,2.56.04,3.64.12a.7.7,0,0,0,.08-1l-.72-.12c-1.44-.24-1.52-.6-1.52-3.48V-10.6a3.37,3.37,0,0,1,.6-2.4,4.362,4.362,0,0,1,3.4-1.4c2.72,0,3.76,1.68,3.76,3.96v5.96c0,2.88-.04,3.24-1.52,3.48l-.76.12a.7.7,0,0,0,.08,1c1.08-.08,2.28-.12,3.72-.12,1.4,0,2.56.04,3.76.12a.7.7,0,0,0,.08-1l-.88-.12c-1.44-.2-1.52-.6-1.52-3.48v-6.88c0-2.68-1.36-4.96-4.68-4.96a10.966,10.966,0,0,0-5.6,2.04.42.42,0,0,1-.44-.44c0-.36,0-.96.08-1.88a.467.467,0,0,0-.44-.28,21.8,21.8,0,0,1-4,1.96.547.547,0,0,0-.04.72l.36.24c1.08.72,1.08.92,1.08,2.48Zm35.68-10.4a4.786,4.786,0,0,1-2.44-.64,9.983,9.983,0,0,0-3.84-.8,6.252,6.252,0,0,0-6.52,6.04,5.43,5.43,0,0,0,3,4.84,1.563,1.563,0,0,1-.4.76,12.431,12.431,0,0,1-2.12,1.84c-.44.32-.6.48-.6.68A3.716,3.716,0,0,0-268.78,1c.36.24.04.6-.32.96-.92.92-2.04,1.96-2.72,2.68a2.252,2.252,0,0,0-.44,1.48c0,2,1.72,4.64,6.64,4.64,5.2,0,9.96-3.2,9.96-7.56,0-4-3.36-4.4-5.6-4.4-1.76,0-3.4.12-4.76.12-1.88,0-2.8-.76-2.8-1.68,0-1.16,1.28-1.92,1.76-2.2.48.04,1.04.12,1.76.12,5.08,0,6.72-3.6,6.72-6.36a17.4,17.4,0,0,0-.08-2.04h2.88c.6-.08.68-1.44.24-1.64Zm-3.76,16.16c2.88,0,4.56,1.04,4.56,3.48,0,2.28-2.36,4.28-5.92,4.28-3.64,0-5.36-1.8-5.36-3.96a4.1,4.1,0,0,1,1.92-3.36,8.841,8.841,0,0,1,3.44-.44ZM-264.7-6c-1.92,0-3.64-1.84-3.64-4.68,0-2.72,1.44-4.48,3.36-4.48,2.44,0,3.56,2.28,3.56,5C-261.42-7.72-262.54-6-264.7-6Zm17.88-.56c-2.56.92-3.32,1.84-3.32,3.4a3.742,3.742,0,0,0,1.24,2.8,4.14,4.14,0,0,0,2.8.92,5.92,5.92,0,0,0,2.88-1,6.141,6.141,0,0,1,1.56-.8c.24,0,.48.32.64.56a3.192,3.192,0,0,0,2.6,1.24,4.2,4.2,0,0,0,3.36-1.76c0-.28-.12-.52-.28-.52-.12,0-.32.16-.52.28a2.3,2.3,0,0,1-1,.24c-1.56,0-1.92-1.64-1.84-3.48l.24-6.96c.12-3-1.28-4.68-4.16-4.68-2.92,0-7.44,2.84-7.44,4.92a.506.506,0,0,0,.56.56,4.3,4.3,0,0,0,2.28-.76c.32-.24.36-.72.4-1.36.08-1.24,1.44-1.8,2.56-1.8,2.48,0,2.96,2,2.92,3.48l-.04,1.84c0,.6-.08.96-.68,1.16Zm-.24,2.92c0-1.56,1.16-2.16,3.52-2.96A7.549,7.549,0,0,1-241.9-7c.24,0,.4.08.4.52l-.08,2.36c-.04.84-.04,1.4-.52,1.88a4.523,4.523,0,0,1-2.44,1A2.411,2.411,0,0,1-247.06-3.64Zm38.08-20.2c0-1.28.04-1.44,2.16-1.44,4.16,0,6.44,2.52,6.44,6.4,0,3.48-1.56,5.92-5.88,6.72-.24.08-.24.68.04.8a13.5,13.5,0,0,0,5.52-1.2,6.779,6.779,0,0,0,4-6.36,6.911,6.911,0,0,0-3.2-6c-1.88-1.16-4.36-1.6-7.68-1.6a63.065,63.065,0,0,0-7.92.32.668.668,0,0,0-.08,1l1.44.16c1.8.2,1.88.88,1.88,4.28V-6c0,4.2-.08,4.68-2.4,5l-.84.12a.777.777,0,0,0,.08,1c1.76-.08,3.2-.12,4.88-.12,1.6,0,2.92.04,5.2.12a.782.782,0,0,0,.08-1L-206.34-1c-2.56-.28-2.64-.8-2.64-5ZM-188.7-4.48c0,2.88-.04,3.24-1.52,3.48l-.76.12a.7.7,0,0,0,.08,1c1.04-.08,2.24-.12,3.68-.12,1.4,0,2.56.04,4.44.12a.7.7,0,0,0,.08-1L-184.14-1c-1.52-.12-1.6-.6-1.6-3.48V-9.92a6.084,6.084,0,0,1,.52-3.08,1.775,1.775,0,0,1,1.44-.8,3.28,3.28,0,0,1,1.76.64,1.537,1.537,0,0,0,.88.28,1.774,1.774,0,0,0,1.72-1.84,1.657,1.657,0,0,0-1.8-1.6c-1.48,0-3,1.24-4.4,2.4q-.12-.06-.12-.36V-16.6c0-.16-.12-.24-.32-.28a30.981,30.981,0,0,1-4.04,1.96.547.547,0,0,0-.04.72l.36.24c1.08.72,1.08.92,1.08,2.48Zm23.04-11.84a8.406,8.406,0,0,0-8.52,8.64,7.908,7.908,0,0,0,8.2,8.24c5,0,8.44-3.6,8.44-8.6A7.991,7.991,0,0,0-165.66-16.32Zm4.68,8.92c0,3.08-1.08,6.76-4.6,6.76s-5.16-3.92-5.16-7.56c0-4.4,1.96-6.92,4.6-6.92C-162.34-15.12-160.98-10.8-160.98-7.4Zm12.84,6c0,4.88-.72,7.76-2.16,9.44a7.625,7.625,0,0,1-2.36,1.8.675.675,0,0,0,.56.92c2.76-1.72,4.88-3.64,6.08-6.52A17.082,17.082,0,0,0-145.18-2v-9.68c0-1.64.08-3.56.16-4.96a.37.37,0,0,0-.4-.24,27.479,27.479,0,0,1-4.12,1.96.547.547,0,0,0-.04.72l.36.24c1.08.72,1.08.92,1.08,2.48Zm1.32-23.56a2.047,2.047,0,0,0-2.16,2.12,1.975,1.975,0,0,0,2.04,2.04,1.981,1.981,0,0,0,2.12-2.08A2,2,0,0,0-146.82-24.96Zm21.4,14.72c1.68,0,2.24-.04,2.36-.28a2.472,2.472,0,0,0,.16-1.04c0-2.4-2.24-4.76-5.68-4.76-4.8,0-8.04,4.12-8.04,9.04a8.493,8.493,0,0,0,1.68,5.2,7.169,7.169,0,0,0,5.8,2.64,6.991,6.991,0,0,0,6.28-3.72.529.529,0,0,0-.72-.48,4.311,4.311,0,0,1-3.68,1.96c-4.28,0-6.64-3.44-6.64-7.48,0-1,.04-1.08,1.08-1.08Zm-7.76-1.2c-.28,0-.28-.12-.28-.2.04-1.32,2.08-3.48,4.44-3.48,2.32,0,3.08,1.4,3.08,2.52,0,.52-.12.68-.24.76-.32.24-1.2.4-4.16.4Zm26.12-4.88c-6.64,0-9.68,4.6-9.68,8.92a7.963,7.963,0,0,0,2.32,5.92A7.752,7.752,0,0,0-108.94.56a7.288,7.288,0,0,0,6.68-4.08.631.631,0,0,0-.72-.56,4.88,4.88,0,0,1-4.44,2.4c-4.28,0-6.44-3.72-6.44-6.84,0-4.24,2.72-6.44,5.52-6.44a5.456,5.456,0,0,1,4,2.12.7.7,0,0,0,.56.28c.48,0,.88-.76.88-1.48a2.267,2.267,0,0,0-.6-1.6A9.976,9.976,0,0,0-107.06-16.32Zm20.6,2.24a1.278,1.278,0,0,0-.04-1.68h-4.44c-.68,0-.72-.04-.72-.76v-1.8c-.16-.28-.64-.28-.84-.2a9.9,9.9,0,0,1-1.68,2.36,7.942,7.942,0,0,1-2.56,1.24.665.665,0,0,0,.12.84h1.12c.8,0,.84.08.84,1.16v9.16c0,2.4.72,4.32,4.16,4.32a5.538,5.538,0,0,0,4.2-1.84c.08-.24-.08-.68-.4-.68-.12,0-.64.44-1,.56a3.054,3.054,0,0,1-1.08.2c-2.64,0-2.92-2.12-2.92-4.44v-7.48c0-.84.04-.96.72-.96Zm30.28,0a1.234,1.234,0,0,0,.28-1.68h-4.56c-.68,0-.68-.04-.68-1.12v-1.16a21.223,21.223,0,0,1,.88-6.76A3.084,3.084,0,0,1-57.42-27a4.465,4.465,0,0,1,3.2,1.76,1.14,1.14,0,0,0,.96.48,1.531,1.531,0,0,0,1.52-1.44c0-1.44-1.8-2.4-3.92-2.4a7.867,7.867,0,0,0-7.2,5.08,17.934,17.934,0,0,0-1.24,7.04.908.908,0,0,1-.6.8l-1.72.84a.56.56,0,0,0,.12.76h1.4c.8,0,.8.08.8,1.16v8.44c0,2.88-.04,3.28-1.52,3.48l-.92.12a.7.7,0,0,0,.08,1c1.2-.08,2.4-.12,3.84-.12,1.4,0,2.56.04,4.36.12a.7.7,0,0,0,.08-1L-59.62-1c-1.44-.12-1.52-.6-1.52-3.48v-8.44c0-1.08,0-1.16.68-1.16Zm13.8-2.24A8.406,8.406,0,0,0-50.9-7.68,7.908,7.908,0,0,0-42.7.56c5,0,8.44-3.6,8.44-8.6A7.991,7.991,0,0,0-42.38-16.32ZM-37.7-7.4c0,3.08-1.08,6.76-4.6,6.76s-5.16-3.92-5.16-7.56c0-4.4,1.96-6.92,4.6-6.92C-39.06-15.12-37.7-10.8-37.7-7.4Zm12.76,2.92c0,2.88-.04,3.24-1.52,3.48l-.76.12a.7.7,0,0,0,.08,1C-26.1.04-24.9,0-23.46,0c1.4,0,2.56.04,4.44.12a.7.7,0,0,0,.08-1L-20.38-1c-1.52-.12-1.6-.6-1.6-3.48V-9.92A6.084,6.084,0,0,1-21.46-13a1.775,1.775,0,0,1,1.44-.8,3.28,3.28,0,0,1,1.76.64,1.537,1.537,0,0,0,.88.28,1.774,1.774,0,0,0,1.72-1.84,1.657,1.657,0,0,0-1.8-1.6c-1.48,0-3,1.24-4.4,2.4q-.12-.06-.12-.36V-16.6c0-.16-.12-.24-.32-.28a30.981,30.981,0,0,1-4.04,1.96.547.547,0,0,0-.04.72l.36.24c1.08.72,1.08.92,1.08,2.48Zm39.08-9.6a1.278,1.278,0,0,0-.04-1.68H9.66c-.68,0-.72-.04-.72-.76v-1.8c-.16-.28-.64-.28-.84-.2a9.9,9.9,0,0,1-1.68,2.36,7.942,7.942,0,0,1-2.56,1.24.665.665,0,0,0,.12.84H5.1c.8,0,.84.08.84,1.16v9.16c0,2.4.72,4.32,4.16,4.32a5.538,5.538,0,0,0,4.2-1.84c.08-.24-.08-.68-.4-.68-.12,0-.64.44-1,.56a3.054,3.054,0,0,1-1.08.2C9.18-1.2,8.9-3.32,8.9-5.64v-7.48c0-.84.04-.96.72-.96Zm8.08,9.6c0,2.88-.04,3.32-1.52,3.48l-1,.12a.7.7,0,0,0,.08,1C21.06.04,22.26,0,23.7,0c1.4,0,2.56.04,3.76.12.28-.12.36-.84.08-1L26.7-1c-1.44-.2-1.52-.6-1.52-3.48V-11.2c0-1.4.12-1.6.84-2.2a4.788,4.788,0,0,1,3.12-1.08c2.56,0,3.8,1.72,3.8,4.28v5.72c0,2.88-.04,3.24-1.52,3.48l-.8.12a.7.7,0,0,0,.08,1C31.78.04,32.98,0,34.42,0c1.4,0,2.56.04,4,.12a.7.7,0,0,0,.08-1L37.42-1c-1.44-.16-1.52-.6-1.52-3.48v-6.68c0-2.8-1.36-5.16-5.16-5.16a9.086,9.086,0,0,0-5.4,2.08c-.12-.08-.16-.4-.16-.76v-8.4c0-1.76.08-3.76.12-4.96a.44.44,0,0,0-.4-.24,28.383,28.383,0,0,1-4.32,1.68.608.608,0,0,0,0,.8l.4.24c1.2.72,1.24.96,1.24,3.32ZM55.9-10.24c1.68,0,2.24-.04,2.36-.28a2.472,2.472,0,0,0,.16-1.04c0-2.4-2.24-4.76-5.68-4.76-4.8,0-8.04,4.12-8.04,9.04a8.493,8.493,0,0,0,1.68,5.2A7.169,7.169,0,0,0,52.18.56a6.991,6.991,0,0,0,6.28-3.72.529.529,0,0,0-.72-.48,4.311,4.311,0,0,1-3.68,1.96c-4.28,0-6.64-3.44-6.64-7.48,0-1,.04-1.08,1.08-1.08Zm-7.76-1.2c-.28,0-.28-.12-.28-.2.04-1.32,2.08-3.48,4.44-3.48,2.32,0,3.08,1.4,3.08,2.52,0,.52-.12.68-.24.76-.32.24-1.2.4-4.16.4ZM93.22.64A13.657,13.657,0,0,0,107.1-13.32c0-7.04-4.64-13.72-13.88-13.72A13.827,13.827,0,0,0,78.98-12.92C78.98-5.72,84.34.64,93.22.64ZM93.74-.6c-7.88,0-10.76-7.68-10.76-13.6,0-8.76,5.4-11.6,9.56-11.6,7.64,0,10.56,7.12,10.56,13.72C103.1-4.2,98.54-.6,93.74-.6Zm30.08-15.72c-6.64,0-9.68,4.6-9.68,8.92a7.963,7.963,0,0,0,2.32,5.92A7.752,7.752,0,0,0,121.94.56a7.288,7.288,0,0,0,6.68-4.08.631.631,0,0,0-.72-.56,4.88,4.88,0,0,1-4.44,2.4c-4.28,0-6.44-3.72-6.44-6.84,0-4.24,2.72-6.44,5.52-6.44a5.456,5.456,0,0,1,4,2.12.7.7,0,0,0,.56.28c.48,0,.88-.76.88-1.48a2.267,2.267,0,0,0-.6-1.6A9.976,9.976,0,0,0,123.82-16.32Zm21.48,6.08c1.68,0,2.24-.04,2.36-.28a2.472,2.472,0,0,0,.16-1.04c0-2.4-2.24-4.76-5.68-4.76-4.8,0-8.04,4.12-8.04,9.04a8.493,8.493,0,0,0,1.68,5.2,7.169,7.169,0,0,0,5.8,2.64,6.991,6.991,0,0,0,6.28-3.72.529.529,0,0,0-.72-.48,4.311,4.311,0,0,1-3.68,1.96c-4.28,0-6.64-3.44-6.64-7.48,0-1,.04-1.08,1.08-1.08Zm-7.76-1.2c-.28,0-.28-.12-.28-.2.04-1.32,2.08-3.48,4.44-3.48,2.32,0,3.08,1.4,3.08,2.52,0,.52-.12.68-.24.76-.32.24-1.2.4-4.16.4Zm19.72,4.88c-2.56.92-3.32,1.84-3.32,3.4a3.742,3.742,0,0,0,1.24,2.8,4.14,4.14,0,0,0,2.8.92,5.92,5.92,0,0,0,2.88-1,6.141,6.141,0,0,1,1.56-.8c.24,0,.48.32.64.56a3.192,3.192,0,0,0,2.6,1.24,4.2,4.2,0,0,0,3.36-1.76c0-.28-.12-.52-.28-.52-.12,0-.32.16-.52.28a2.3,2.3,0,0,1-1,.24c-1.56,0-1.92-1.64-1.84-3.48l.24-6.96c.12-3-1.28-4.68-4.16-4.68-2.92,0-7.44,2.84-7.44,4.92a.506.506,0,0,0,.56.56,4.3,4.3,0,0,0,2.28-.76c.32-.24.36-.72.4-1.36.08-1.24,1.44-1.8,2.56-1.8,2.48,0,2.96,2,2.92,3.48l-.04,1.84c0,.6-.08.96-.68,1.16Zm-.24,2.92c0-1.56,1.16-2.16,3.52-2.96a7.549,7.549,0,0,1,1.64-.4c.24,0,.4.08.4.52l-.08,2.36c-.04.84-.04,1.4-.52,1.88a4.523,4.523,0,0,1-2.44,1A2.411,2.411,0,0,1,157.02-3.64Zm19.6-.84c0,2.88-.04,3.28-1.52,3.48l-.84.12a.7.7,0,0,0,.08,1C175.46.04,176.66,0,178.1,0c1.4,0,2.56.04,3.64.12a.7.7,0,0,0,.08-1L181.1-1c-1.44-.24-1.52-.6-1.52-3.48V-10.6a3.37,3.37,0,0,1,.6-2.4,4.362,4.362,0,0,1,3.4-1.4c2.72,0,3.76,1.68,3.76,3.96v5.96c0,2.88-.04,3.24-1.52,3.48l-.76.12a.7.7,0,0,0,.08,1c1.08-.08,2.28-.12,3.72-.12,1.4,0,2.56.04,3.76.12a.7.7,0,0,0,.08-1L191.82-1c-1.44-.2-1.52-.6-1.52-3.48v-6.88c0-2.68-1.36-4.96-4.68-4.96a10.966,10.966,0,0,0-5.6,2.04.42.42,0,0,1-.44-.44c0-.36,0-.96.08-1.88a.467.467,0,0,0-.44-.28,21.8,21.8,0,0,1-4,1.96.547.547,0,0,0-.04.72l.36.24c1.08.72,1.08.92,1.08,2.48ZM199.02-28c-1.56,0-1.92,1.04-1.92,1.64a1.061,1.061,0,0,0,1.08,1.12,2.2,2.2,0,0,1,2,2.24c0,1.64-1.56,2.76-3.04,3.44a.591.591,0,0,0,.28.84c2.52-.76,4.68-2.68,4.68-5.44C202.1-26.24,200.66-28,199.02-28Zm13.52,11.68c-3.04,0-5.44,1.64-5.44,4.56,0,2.2,1.64,3.6,3.96,4.92,1.48.84,3.08,1.84,3.08,3.68A2.464,2.464,0,0,1,211.46-.6c-2.28,0-3.56-1.92-4.24-4.12a.679.679,0,0,0-.92.04,11.893,11.893,0,0,0,.48,4.04,6.654,6.654,0,0,0,4.28,1.2c2.96,0,5.76-1.52,5.76-4.56,0-2.84-1.96-4.2-4.08-5.4-1.4-.8-3.08-1.68-3.08-3.32a2.364,2.364,0,0,1,2.56-2.44c1.64,0,2.84,1.16,3.52,2.92a.7.7,0,0,0,.96-.12,9.342,9.342,0,0,0-.64-3.24A7.077,7.077,0,0,0,212.54-16.32Zm31.88-7.24c0-1.52,0-1.6,1.2-1.6h2.44a17.093,17.093,0,0,1,3.88.24c2,.52,2.48,2,2.8,3.8a.719.719,0,0,0,.96-.12c-.08-1.52-.12-3.44-.12-5.28-.52.12-2.84.12-5.4.12h-7.36c-1.6,0-2.96-.04-4.64-.12-.24.12-.32.84-.08,1l.64.08c2.32.28,2.4.84,2.4,5.04V-6c0,4.2-.08,4.72-2.4,5l-1,.12a.777.777,0,0,0,.08,1c1.88-.08,3.24-.12,5-.12,1.6,0,2.96.04,5.32.12.24-.12.32-.84.08-1L246.86-1c-2.36-.2-2.44-.8-2.44-5v-5.56c0-1.04.12-1.08,1.32-1.08h2.72a13.6,13.6,0,0,1,3.08.2,1.923,1.923,0,0,1,1.28,1.52l.4,1.56c.28.24.88.24,1.04,0,0-.92-.16-2.44-.16-3.88,0-1.48.16-3.08.16-4.04a.841.841,0,0,0-1.04,0l-.36,1.6c-.24,1.04-.56,1.24-1,1.4a15.081,15.081,0,0,1-3.4.24h-2.72c-1.2,0-1.32,0-1.32-1.08Zm22.52,11a30.135,30.135,0,0,1,.12-3.48c-.04-.16-.16-.24-.4-.28a14.158,14.158,0,0,1-4.28.72.594.594,0,0,0-.08.88l.48.2c1.2.52,1.2.88,1.2,3.4v6.68c0,3.24,1.32,5,4.84,5a10.457,10.457,0,0,0,5.52-2.08c.24,0,.36.2.36.56V.68a.555.555,0,0,0,.48.28,20.771,20.771,0,0,1,5.24-1.48c.32-.16.28-.96.04-1.16a7.58,7.58,0,0,1-1.56.2c-1.12,0-1.24-1.2-1.24-4.36v-6.72c0-1.48.04-2.72.12-3.48-.04-.16-.16-.24-.36-.28a15.977,15.977,0,0,1-4.68.72.544.544,0,0,0-.04.88l.52.2c1.2.48,1.48.56,1.48,3.16V-4.8a2.785,2.785,0,0,1-.8,2.32,5.233,5.233,0,0,1-3.24,1.2c-3.04,0-3.72-1.84-3.72-4.6Zm29.84-1.52a1.278,1.278,0,0,0-.04-1.68H292.3c-.68,0-.72-.04-.72-.76v-1.8c-.16-.28-.64-.28-.84-.2a9.9,9.9,0,0,1-1.68,2.36,7.942,7.942,0,0,1-2.56,1.24.665.665,0,0,0,.12.84h1.12c.8,0,.84.08.84,1.16v9.16c0,2.4.72,4.32,4.16,4.32a5.538,5.538,0,0,0,4.2-1.84c.08-.24-.08-.68-.4-.68-.12,0-.64.44-1,.56a3.054,3.054,0,0,1-1.08.2c-2.64,0-2.92-2.12-2.92-4.44v-7.48c0-.84.04-.96.72-.96Zm10.92,1.52a30.135,30.135,0,0,1,.12-3.48c-.04-.16-.16-.24-.4-.28a14.158,14.158,0,0,1-4.28.72.594.594,0,0,0-.08.88l.48.2c1.2.52,1.2.88,1.2,3.4v6.68c0,3.24,1.32,5,4.84,5a10.457,10.457,0,0,0,5.52-2.08c.24,0,.36.2.36.56V.68a.555.555,0,0,0,.48.28,20.771,20.771,0,0,1,5.24-1.48c.32-.16.28-.96.04-1.16a7.58,7.58,0,0,1-1.56.2c-1.12,0-1.24-1.2-1.24-4.36v-6.72c0-1.48.04-2.72.12-3.48-.04-.16-.16-.24-.36-.28a15.977,15.977,0,0,1-4.68.72.544.544,0,0,0-.04.88l.52.2c1.2.48,1.48.56,1.48,3.16V-4.8a2.785,2.785,0,0,1-.8,2.32,5.233,5.233,0,0,1-3.24,1.2c-3.04,0-3.72-1.84-3.72-4.6Zm22.04,8.08c0,2.88-.04,3.24-1.52,3.48l-.76.12a.7.7,0,0,0,.08,1c1.04-.08,2.24-.12,3.68-.12,1.4,0,2.56.04,4.44.12a.7.7,0,0,0,.08-1L334.3-1c-1.52-.12-1.6-.6-1.6-3.48V-9.92a6.084,6.084,0,0,1,.52-3.08,1.775,1.775,0,0,1,1.44-.8,3.28,3.28,0,0,1,1.76.64,1.536,1.536,0,0,0,.88.28,1.774,1.774,0,0,0,1.72-1.84,1.657,1.657,0,0,0-1.8-1.6c-1.48,0-3,1.24-4.4,2.4q-.12-.06-.12-.36V-16.6c0-.16-.12-.24-.32-.28a30.981,30.981,0,0,1-4.04,1.96.547.547,0,0,0-.04.72l.36.24c1.08.72,1.08.92,1.08,2.48Zm25.56-5.76c1.68,0,2.24-.04,2.36-.28a2.472,2.472,0,0,0,.16-1.04c0-2.4-2.24-4.76-5.68-4.76-4.8,0-8.04,4.12-8.04,9.04a8.493,8.493,0,0,0,1.68,5.2,7.169,7.169,0,0,0,5.8,2.64,6.991,6.991,0,0,0,6.28-3.72.529.529,0,0,0-.72-.48,4.311,4.311,0,0,1-3.68,1.96c-4.28,0-6.64-3.44-6.64-7.48,0-1,.04-1.08,1.08-1.08Zm-7.76-1.2c-.28,0-.28-.12-.28-.2.04-1.32,2.08-3.48,4.44-3.48,2.32,0,3.08,1.4,3.08,2.52,0,.52-.12.68-.24.76-.32.24-1.2.4-4.16.4Z" transform="translate(956 709)" fill="#fee737"/>
  </g>
</svg>
