<svg xmlns="http://www.w3.org/2000/svg" xmlns:xlink="http://www.w3.org/1999/xlink" width="475.878" height="314.75" viewBox="0 0 475.878 314.75">
  <defs>
    <filter id="パス_698" x="0" y="0" width="475.878" height="314.75" filterUnits="userSpaceOnUse">
      <feOffset input="SourceAlpha"/>
      <feGaussianBlur stdDeviation="25" result="blur"/>
      <feFlood flood-color="#017a94"/>
      <feComposite operator="in" in2="blur"/>
      <feComposite in="SourceGraphic"/>
    </filter>
  </defs>
  <g id="グループ_737" data-name="グループ 737" transform="translate(52.564 -263.594)">
    <g id="グループ_733" data-name="グループ 733" transform="translate(-768 -102)">
      <g transform="matrix(1, 0, 0, 1, 715.44, 365.59)" filter="url(#パス_698)">
        <path id="パス_698-2" data-name="パス 698" d="M-127.3-14.28a1.114,1.114,0,0,0-.378-.63l-2.226-1.722a1.584,1.584,0,0,0-.8-.42c-.168,0-.336.126-.588.5l-1.218,1.722h-2.058c0-1.176.168-6.006.168-6.258.546-.252,1.386-.714,1.386-1.092a1.437,1.437,0,0,0-.462-.714l-1.26-1.176c-.378-.336-.588-.5-.8-.5-.252,0-.462.168-.756.462l-1.134,1.134h-9.912l-3.108-1.764a11.881,11.881,0,0,1,.126,2.1,49.366,49.366,0,0,1-.756,7.77c-2.73-.084-3.528-.126-4.872-.252l.84,1.68a25.3,25.3,0,0,1,3.906-.378c-.882,5.376-1.134,6.762-1.806,10.164a8.393,8.393,0,0,0-.21,1.554,1.026,1.026,0,0,0,1.134,1.092c1.974,0,2.1-1.218,2.31-2.94h11.592c-.63,3.276-1.512,3.276-2.6,3.276a19.9,19.9,0,0,1-3.948-.546l-.042.252a5.627,5.627,0,0,1,3.066,4.326c5.124-.168,5.922-4.914,6.3-7.308h6.846c.294,0,.63-.084.63-.462,0-.21-.126-.378-.378-.63l-2.142-1.848c-.336-.294-.546-.462-.756-.462s-.378.168-.672.5l-1.512,1.89h-1.89c.546-4.536.63-7.392.672-8.862h6.678C-127.6-13.818-127.3-13.944-127.3-14.28Zm-9.912-7.686c.084,1.638-.084,5.88-.126,7.14h-4.242c.462-5.082.5-5.586.63-7.14Zm-6.51,0c-.21,4.284-.252,4.746-.5,7.14h-4.158c.21-1.974.588-5.334.84-7.14Zm6.342,8.148c-.168,4.2-.42,6.762-.672,8.862h-4.7c.588-4.284.63-4.746,1.05-8.862Zm-6.93,0c-.084.672-.42,3.654-.5,4.158-.042.336-.168,1.428-.588,4.7h-4.242l1.134-8.862Zm14.364-14.574a1.022,1.022,0,0,0-.378-.63l-2.184-1.89c-.336-.294-.5-.42-.756-.42-.21,0-.42.168-.672.5l-1.428,1.89h-12.6c.378-.672.672-1.176,1.554-2.856,1.134-.294,1.344-.462,1.344-.84a.7.7,0,0,0-.42-.546l-3.654-1.89c-.126,4.578-4.494,11.928-6.132,14.07l.21.21a30.074,30.074,0,0,0,6.51-7.14h17.976C-130.158-27.93-129.948-28.056-129.948-28.392Zm-26.04-.966c0-3.192-4.242-4.494-5.964-5.04l-.126.252a11.494,11.494,0,0,1,1.848,3.108c.966,2.478,1.3,3.36,2.6,3.36A1.619,1.619,0,0,0-155.988-29.358Zm-3.36,9.87c0-2.73-2.436-3.318-6.048-4.2l-.168.252A10.629,10.629,0,0,1-163-19.908c.756,1.6,1.05,2.226,1.974,2.226A1.737,1.737,0,0,0-159.348-19.488Zm4.452-5.67-.462-.084c-1.932,5.082-4.368,11.508-6.384,14.868-.714,1.176-1.89,1.176-3.024,1.176l-.042.252c1.218.924,1.512,1.134,1.89,1.974a7.3,7.3,0,0,1,.672,2.856c0,.546-.336,3.276-.336,3.906,0,.714.042,2.9,2.058,2.9,1.344,0,2.016-1.134,2.016-2.478a8.4,8.4,0,0,0-.63-2.814,15.216,15.216,0,0,1-.8-3.486,5.317,5.317,0,0,1,.168-1.092c.378-2.058,1.512-5.124,2.1-7.1C-157.248-15.792-155.358-23.436-154.9-25.158Zm55.272,16.38c-.084-2.646-.084-3.15-.084-7.56h9.24c.294,0,.672-.084.672-.462a.836.836,0,0,0-.42-.63l-2.226-1.722a1.623,1.623,0,0,0-.8-.42c-.21,0-.462.336-.63.546l-1.3,1.68h-4.536c0-.882.042-6.762.042-7.182H-88.2c.294,0,.63-.084.63-.462a.763.763,0,0,0-.42-.63l-2.52-1.89c-.42-.336-.588-.42-.8-.42-.168,0-.378.21-.63.5l-1.554,1.89h-6.216c1.512-1.26,4.242-4.116,6.342-6.216.588,0,1.6,0,1.6-.672,0-.294-.252-.462-.546-.63l-3.822-2.352c-.252,2.772-2.6,6.888-4.368,9.87h-5.25c-.63,0-3.612-.042-6.468-.294l.84,1.68a29.162,29.162,0,0,1,4.914-.378h3.822v7.182h-2.31c-.378,0-3.528-.042-6.426-.294l.8,1.68a30.355,30.355,0,0,1,4.956-.378h2.982v4.2c0,.21-.042,2.142-.042,3.36h-5.124c-.63,0-3.612-.042-6.468-.294l.84,1.68a29.761,29.761,0,0,1,4.914-.378h5.8c-.042,2.1-.21,8.106-.21,10,0,1.134.84,1.134,1.218,1.134a2.042,2.042,0,0,0,2.352-2.1c0-.546-.21-7.9-.252-9.03h12.978c.294,0,.63-.084.63-.462,0-.168-.126-.294-.462-.63l-2.436-2.226a1.433,1.433,0,0,0-.756-.462c-.252,0-.378.168-.672.5l-1.932,2.268Zm-20.79-25.158a14.034,14.034,0,0,1,2.73,4.116c.5,1.344.966,2.562,2.268,2.562a1.826,1.826,0,0,0,1.722-1.89c0-2.058-2.058-4.074-6.552-5.082Zm-3.4,9.786A9.329,9.329,0,0,1-121.38-20.5c.672,1.764.924,2.436,2.1,2.436a1.794,1.794,0,0,0,1.806-1.848c0-1.974-2.352-4.116-6.216-4.452Zm14.49-9.744a11.564,11.564,0,0,1,2.772,4.7c.378,1.554.63,2.562,2.016,2.562,1.176,0,1.806-.924,1.806-2.142,0-2.982-4.242-4.914-6.426-5.334Zm-3.7,10.626c-.378.8-4.41,8.82-6.216,11.76-.966,1.554-1.806,1.722-3.318,1.932v.252c2.52,1.722,2.6,3.066,2.6,8.736,0,1.134.378,2.688,1.848,2.688,1.3,0,1.932-1.26,1.932-2.436a13.706,13.706,0,0,0-.714-3.4c-.84-2.73-.924-3.024-.924-3.738a8.053,8.053,0,0,1,.756-2.94c2.646-7.35,2.94-8.19,4.242-12.768Zm66.444.252c0-.546-2.9-3.948-3.612-3.948A1.862,1.862,0,0,0-51.2-26.5a4.361,4.361,0,0,1-1.932.924c-1.3.252-20.958,1.512-22.6,1.512-1.932,0-2.6-.126-4.074-2.814a5.647,5.647,0,0,0-.378,1.932c0,2.268,2.772,4.914,3.654,4.914.168,0,.252,0,1.008-.462,1.848-1.05,5.922-1.554,6.846-1.68,7.812-1.008,8.694-1.092,16.338-1.6a79.888,79.888,0,0,1-9.786,11.928,22.786,22.786,0,0,0-9.534-4.074c7.1,4.83,10.08,9.576,10.542,10.332,1.134,1.89,1.554,2.562,2.478,2.562A1.756,1.756,0,0,0-56.994-5c0-1.68-1.3-3.864-4.326-6.258,1.89-1.218,3.024-1.932,10.92-9.45a4,4,0,0,1,2.016-1.3C-46.746-22.47-46.578-22.47-46.578-23.016ZM-22.6-24.444c0-3.486-5.964-5.292-11-4.956a20.659,20.659,0,0,1,6.888,4.788c1.344,1.344,1.848,1.848,2.562,1.848A1.635,1.635,0,0,0-22.6-24.444Zm17.052-1.3-.21-.126a80.139,80.139,0,0,1-13.4,12.684c-1.806,1.386-8.316,6.216-9.7,6.216-.882,0-2.1-.882-3.066-2.772A5.221,5.221,0,0,0-32.34-7.9c0,1.974,2.772,5.5,4.242,5.5a1.141,1.141,0,0,0,.714-.252c.21-.21,1.134-1.26,1.344-1.47.714-.714,4.662-3.57,5.544-4.242C-11.256-15.456-6.552-22.68-5.544-25.746Zm46.032-2.9c0-2.982-4.536-4.326-7.224-4.284a17.665,17.665,0,0,1,4.284,3.948c1.26,1.638,1.428,1.848,1.974,1.848S40.488-27.8,40.488-28.644Zm-4.452,2.016c0-2.31-3.864-4.284-7.14-4.662a17.313,17.313,0,0,1,4.158,4.452c.756,1.134,1.176,1.764,1.806,1.764C35.7-25.074,36.036-26.04,36.036-26.628ZM33.18-22.134c0-.882-3.234-3.108-3.78-3.108a.821.821,0,0,0-.63.294,3.493,3.493,0,0,1-1.806,1.176c-.168.042-4.368.462-5.334.546.168-.714,1.092-4.536,1.176-4.62a10.224,10.224,0,0,0,1.134-1.89c0-1.3-3.7-2.6-4.536-2.6a5.014,5.014,0,0,0-2.142.756c1.47.588,2.436.966,2.436,2.94a29.127,29.127,0,0,1-.924,5.712l-3.024.294a46.679,46.679,0,0,1-4.788.378c-1.722,0-2.436-.63-3.99-2.226a6.243,6.243,0,0,0-.252,1.512c0,1.932,2.436,4.032,3.318,4.032.378,0,.462-.084,1.386-.588a44.12,44.12,0,0,1,6.8-1.512C14.28-8.316,8.694-3.612,5.67-1.344l.21.294a21.2,21.2,0,0,0,9.744-7.938c3.234-4.536,4.242-8.064,5.5-12.39.5-.042,3.066-.294,3.57-.336,1.386-.126,3.4-.294,4.074-.378A42.29,42.29,0,0,1,26.754-9.66c-.462,1.3-1.428,4.074-2.562,4.074a17.623,17.623,0,0,1-4.83-1.89l-.084.168c.546.672,2.772,3.108,3.066,4.578.336,1.47.42,1.89,1.134,1.89a4.068,4.068,0,0,0,2.1-1.008c3.486-3.108,4.83-11.088,5.8-16.926.252-1.512.294-1.68.546-1.89C32.676-21.336,33.18-21.756,33.18-22.134Zm44.142-4.41c0-1.47-2.982-2.226-5.586-2.226-3.906,0-8.148,1.092-10.416,4.116a24.674,24.674,0,0,1,7.644-1.89c.252,0,1.554,0,1.554.462a.383.383,0,0,1-.126.336c-.126.126-3.192,2.94-3.822,3.528l.252.252a19.688,19.688,0,0,1,8.106-3.108C76.44-25.326,77.322-25.578,77.322-26.544ZM79.38-4.41c0-1.176-1.764-1.806-3.234-1.806-.42,0-4.494.336-5.334.336-7.938,0-8.694-2.436-9.66-5.628a3.249,3.249,0,0,0-.42,1.764,6.145,6.145,0,0,0,4.242,5.712c3.654,1.134,9.282,1.176,10.29,1.176C77.91-2.856,79.38-3.066,79.38-4.41ZM56.238-16.632l-.336-.084c-1.512,3.234-3.276,8.106-3.738,9.534-.084.294-.294.8-.546.8-.672,0-1.386-3.234-1.386-6.132A36.517,36.517,0,0,1,53.172-25.7a5.632,5.632,0,0,0,.546-1.974c0-1.638-2.73-3.99-4.242-3.99a1.677,1.677,0,0,0-.756.168,5.654,5.654,0,0,1,1.428,4.074,19.466,19.466,0,0,1-.252,2.814c-.714,4.326-1.638,10-1.638,13.02C48.258-3.066,50.988.8,52.71.8,53.718.8,53.8-.042,53.8-.756c0-.42-.21-2.436-.21-2.9a48.469,48.469,0,0,1,1.47-8.022C55.4-13.02,55.986-15.456,56.238-16.632Zm60.984,13.65c0-2.814-6.846-5-10.836-5.712a46.388,46.388,0,0,1-.924-9.744c0-2.184.126-3.738.168-4.494a6.6,6.6,0,0,0,2.772.714c2.436,0,6.09-.882,7.056-1.554a1.158,1.158,0,0,0,.588-1.092c0-1.134-1.722-1.386-2.31-1.386a3.765,3.765,0,0,0-1.26.21,28.566,28.566,0,0,1-6.678,1.68,30.2,30.2,0,0,1,.588-3.36,19.335,19.335,0,0,0,.5-2.31c0-1.638-3.108-2.772-4.578-2.772a3.176,3.176,0,0,0-2.646,1.176c3.024.546,3.528,1.47,3.528,3.99,0,.294-.042,8.316-.042,9.156A55.37,55.37,0,0,0,103.7-9.2a22.272,22.272,0,0,0-7.9.8c-1.428.42-3.7,1.89-3.7,4.074,0,2.856,4.41,4.41,7.56,4.41,6.006,0,6.762-3.7,7.014-6.09a17.036,17.036,0,0,1,5.628,2.6c1.554,1.008,3.108,1.974,3.7,1.974C116.886-1.428,117.222-2.142,117.222-2.982ZM103.782-6.72c0,1.47-.168,4.284-5.208,4.284-1.806,0-4.83-.378-4.83-2.058,0-2.1,4.368-2.562,6.552-2.562A15.731,15.731,0,0,1,103.782-6.72Zm56.532-2.9c0-3.822-2.646-7.854-9.408-7.854a19.628,19.628,0,0,0-10.08,2.982A120.94,120.94,0,0,1,151.662-27.3c1.512-1.134,1.512-1.176,1.512-1.848,0-.882-1.47-2.9-3.066-2.9-.21,0-1.6.462-1.89.546a36.48,36.48,0,0,1-7.728,1.68c-1.176,0-1.932-.378-2.9-1.974a1.862,1.862,0,0,0-.462,1.386,4.108,4.108,0,0,0,3.4,3.948c.126,0,1.764-.882,1.848-.924a24.507,24.507,0,0,1,6.006-2.268c.336,0,.462.168.462.42,0,1.6-10.332,14.994-13.692,18.312-2.52,2.436-2.856,2.772-2.856,4.158,0,1.47.924,1.764,1.428,1.764.882,0,1.26-.63,2.31-2.31.63-.966,6.048-8.9,14.238-8.9,4.284,0,6.846,2.94,6.846,6.258,0,3.192-2.352,6.8-5.712,7.392-1.092-3.486-3.444-5.67-6.594-5.67-1.722,0-4.62.756-4.62,3.654,0,3.276,4.158,4.914,8.19,4.914C156.114.336,160.314-4.788,160.314-9.618ZM148.806-1.89a3.994,3.994,0,0,1-1.47.252c-1.218,0-5.544-.966-5.544-3.15a1.9,1.9,0,0,1,2.016-1.764C145.194-6.552,147.924-5,148.806-1.89ZM-85.3,49.72a1.114,1.114,0,0,0-.378-.63l-2.226-1.722a1.584,1.584,0,0,0-.8-.42c-.168,0-.336.126-.588.5l-1.218,1.722h-2.058c0-1.176.168-6.006.168-6.258.546-.252,1.386-.714,1.386-1.092a1.437,1.437,0,0,0-.462-.714l-1.26-1.176c-.378-.336-.588-.5-.8-.5-.252,0-.462.168-.756.462l-1.134,1.134h-9.912l-3.108-1.764a11.882,11.882,0,0,1,.126,2.1,49.367,49.367,0,0,1-.756,7.77c-2.73-.084-3.528-.126-4.872-.252l.84,1.68a25.3,25.3,0,0,1,3.906-.378c-.882,5.376-1.134,6.762-1.806,10.164a8.393,8.393,0,0,0-.21,1.554,1.026,1.026,0,0,0,1.134,1.092c1.974,0,2.1-1.218,2.31-2.94H-96.18c-.63,3.276-1.512,3.276-2.6,3.276a19.9,19.9,0,0,1-3.948-.546l-.042.252a5.627,5.627,0,0,1,3.066,4.326c5.124-.168,5.922-4.914,6.3-7.308h6.846c.294,0,.63-.084.63-.462,0-.21-.126-.378-.378-.63l-2.142-1.848c-.336-.294-.546-.462-.756-.462s-.378.168-.672.5l-1.512,1.89h-1.89c.546-4.536.63-7.392.672-8.862h6.678C-85.6,50.182-85.3,50.056-85.3,49.72Zm-9.912-7.686c.084,1.638-.084,5.88-.126,7.14h-4.242c.462-5.082.5-5.586.63-7.14Zm-6.51,0c-.21,4.284-.252,4.746-.5,7.14h-4.158c.21-1.974.588-5.334.84-7.14Zm6.342,8.148c-.168,4.2-.42,6.762-.672,8.862h-4.7c.588-4.284.63-4.746,1.05-8.862Zm-6.93,0c-.084.672-.42,3.654-.5,4.158-.042.336-.168,1.428-.588,4.7h-4.242l1.134-8.862Zm14.364-14.574a1.022,1.022,0,0,0-.378-.63l-2.184-1.89c-.336-.294-.5-.42-.756-.42-.21,0-.42.168-.672.5l-1.428,1.89h-12.6c.378-.672.672-1.176,1.554-2.856,1.134-.294,1.344-.462,1.344-.84a.7.7,0,0,0-.42-.546l-3.654-1.89c-.126,4.578-4.494,11.928-6.132,14.07l.21.21a30.074,30.074,0,0,0,6.51-7.14h17.976C-88.158,36.07-87.948,35.944-87.948,35.608Zm-26.04-.966c0-3.192-4.242-4.494-5.964-5.04l-.126.252a11.493,11.493,0,0,1,1.848,3.108c.966,2.478,1.3,3.36,2.6,3.36A1.619,1.619,0,0,0-113.988,34.642Zm-3.36,9.87c0-2.73-2.436-3.318-6.048-4.2l-.168.252A10.629,10.629,0,0,1-121,44.092c.756,1.6,1.05,2.226,1.974,2.226A1.737,1.737,0,0,0-117.348,44.512Zm4.452-5.67-.462-.084c-1.932,5.082-4.368,11.508-6.384,14.868-.714,1.176-1.89,1.176-3.024,1.176l-.042.252c1.218.924,1.512,1.134,1.89,1.974a7.305,7.305,0,0,1,.672,2.856c0,.546-.336,3.276-.336,3.906,0,.714.042,2.9,2.058,2.9,1.344,0,2.016-1.134,2.016-2.478a8.4,8.4,0,0,0-.63-2.814,15.216,15.216,0,0,1-.8-3.486,5.317,5.317,0,0,1,.168-1.092c.378-2.058,1.512-5.124,2.1-7.1C-115.248,48.208-113.358,40.564-112.9,38.842Zm66.7,8.988c0-8.442-7.392-13.188-15.54-13.188-10.248,0-17.892,7.434-17.892,16.464a7.8,7.8,0,0,0,1.176,4.284c.294.378,1.974,1.932,2.268,2.352,1.26,1.764,1.638,2.31,2.6,2.31a2.434,2.434,0,0,0,1.344-.462c2.856-2.352,6.8-10.794,9.492-16.548,1.3-2.73,1.428-3.024,1.428-3.486,0-.588-.63-2.142-2.9-3.36a3.313,3.313,0,0,1,1.722-.252c7.308,0,13.02,4.2,13.02,11.3,0,6.384-4.2,12.306-13.188,15.5l.042.336C-53,62.236-46.2,55.978-46.2,47.83Zm-18.438-8.694c0,2.184-1.386,4.914-5.586,13.356-.714,1.428-2.352,4.41-3.486,4.41-1.638,0-3.276-3.15-3.276-6.006,0-7.728,6.426-13.692,11.046-14.448A3.671,3.671,0,0,1-64.638,39.136Zm45.276,7.182v-8.4H-7.35c.252,0,.63-.042.63-.42,0-.294-.252-.5-.42-.672l-2.6-2.31a1.286,1.286,0,0,0-.714-.42c-.252,0-.462.21-.672.546l-1.512,2.268h-6.72V31.534c.336-.21,1.176-.714,1.176-1.176a.713.713,0,0,0-.63-.672l-4.2-1.176c.462,1.764.672,2.982.756,8.4h-7.056c-2.142,0-4.326-.084-6.468-.294l.84,1.68a28.756,28.756,0,0,1,4.956-.378h7.77c.042,2.562.042,5.88,0,8.4H-33.1c-.714,0-3.36-.042-6.426-.294l.84,1.68a27.843,27.843,0,0,1,4.914-.378h10.416c-1.176,2.226-7.9,11-15.96,16.212v.21c5.754-1.6,12.558-6.594,17.094-12.81,0,3.234,0,6.468-.084,8.694-.042.882-.294,5.124-.294,6.09,0,.84.336,1.47,1.428,1.47a1.987,1.987,0,0,0,2.142-2.1c0-.546-.21-7.56-.294-10.29-.042-1.764-.042-5.586,0-7.476h.084c.84,3.57,5,11.214,13.86,15.876a8.137,8.137,0,0,1,4.284-3.4v-.21c-6.888-.924-14.07-6.216-17.556-12.264h15.96c.294,0,.63-.042.63-.462,0-.252-.168-.42-.42-.63l-2.814-2.478c-.252-.21-.546-.462-.8-.462s-.546.336-.672.546l-1.554,2.478Zm58.3,2.814c.21,0,.672,0,.672-.42,0-.168-.252-.462-.462-.63l-2.436-1.974c-.378-.336-.588-.42-.756-.42s-.336.126-.714.5l-1.932,1.932H25.872a33.44,33.44,0,0,0,3.234-3.192c2.436-2.646,2.688-2.94,3.066-3.318,1.47-.168,1.89-.294,1.89-.84,0-.126-.042-.294-.462-.546L29.82,37.96c-.126,1.848-2.6,7.14-4.788,10.164H22.554c-.042-5.5-.042-6.174-.042-11.634h13.23c.252,0,.672,0,.672-.42a1.06,1.06,0,0,0-.42-.63L33.6,33.508a1.511,1.511,0,0,0-.84-.462c-.21,0-.462.252-.672.546l-1.512,1.89H22.512c0-.588.042-3.108.042-3.486.882-.546,1.344-.882,1.344-1.134,0-.378-.294-.462-.546-.546L18.9,29.1c.756,1.638.756,2.646.84,6.384H12.054c-2.142,0-4.326-.084-6.468-.252l.84,1.638a32.916,32.916,0,0,1,4.956-.378H19.74c.084,6.384.084,7.1.084,11.634H9.534c-2.142,0-4.326-.084-6.468-.252l.84,1.68a25.8,25.8,0,0,1,4.956-.42H18.1A49.949,49.949,0,0,1,3.276,63.748l.168.336C10.5,61.69,16.758,56.02,19.866,51.736c0,3.738-.042,5.418-.336,11.466-.042.462-.126,2.184-.126,2.52,0,.5,0,1.26,1.344,1.26.252,0,2.142-.126,2.142-1.974,0-.714-.21-4.368-.21-5.208-.042-1.932-.084-5.082-.126-9.24A30.985,30.985,0,0,0,36.078,63.328a7.518,7.518,0,0,1,4.074-3.57l-.084-.294A25.094,25.094,0,0,1,22.6,49.132ZM8.316,38.758A14.437,14.437,0,0,1,11.3,44.89c.168.882.42,2.142,1.848,2.142a1.8,1.8,0,0,0,1.68-1.974c0-3.654-4.578-5.712-6.3-6.468ZM74.55,53.08c0-.294-.21-.546-.546-.8l-1.386-1.008c-.546-.378-.8-.5-1.008-.5s-.462.168-.8.5l-1.134,1.218H56.364l-3.78-1.806a62.043,62.043,0,0,1,.252,6.468c0,1.26-.21,7.476-.21,8.862,0,.672.168,1.092,1.092,1.092.8,0,2.142-.21,1.974-2.016H70.308c0,.756,0,1.806,1.218,1.806A1.807,1.807,0,0,0,73.5,65.344c0-.252-.042-.756-.294-5.544-.084-1.26-.084-3.948-.084-5.334C74.382,53.752,74.55,53.332,74.55,53.08Zm-4.242,5.082H55.65V53.5H70.308Zm0,5.922H55.65V59.17H70.308Zm11.844-16.17c0-.21-.168-.42-.462-.672L79.3,45.1a1.224,1.224,0,0,0-.84-.462c-.252,0-.462.21-.714.546l-1.68,2.184H67.788V36.322h11.34c.336,0,.63-.126.63-.42a1.081,1.081,0,0,0-.42-.714L76.9,33.172a1.172,1.172,0,0,0-.756-.378c-.252,0-.462.126-.714.462L73.92,35.314H66.276a37.639,37.639,0,0,0,4.536-3.822c.924-.126,1.3-.336,1.3-.714,0-.252-.294-.5-.546-.63l-3.444-1.764a15.166,15.166,0,0,1-2.772,6.93H52.584c-2.142,0-4.284-.126-6.468-.294l.84,1.68a29.315,29.315,0,0,1,4.956-.378H57.54V47.368H50.652c-.714,0-3.15,0-6.426-.294l.8,1.68a29.909,29.909,0,0,1,4.956-.378H81.522C81.9,48.376,82.152,48.25,82.152,47.914ZM65.1,47.368H60.4V36.322h4.7Zm11.13-6.762c0-.294-.21-.5-.5-.714L72.492,37.54c-.378,2.982-2.94,7.182-4.032,8.442l.252.336a34.739,34.739,0,0,0,5.922-4.872C75.894,41.278,76.23,41.068,76.23,40.606Zm-16-7.392c0-2.478-3.822-4.41-5.838-4.83l-.042.252a9.759,9.759,0,0,1,2.1,3.276c.882,2.1,1.218,2.982,2.352,2.982A1.593,1.593,0,0,0,60.228,33.214Zm-4.62,11.172c0-1.47-1.092-4.116-6.006-6.426l-.252.168a12.381,12.381,0,0,1,2.52,4.41C52.878,45.772,53,46.15,54.054,46.15A1.561,1.561,0,0,0,55.608,44.386Zm68.628,18.648v-.21A22.133,22.133,0,0,1,110.628,57.7a38.311,38.311,0,0,0,6.006-12.18c.672-.294,2.226-.924,2.226-1.344a1.035,1.035,0,0,0-.42-.714l-2.016-1.848c-.168-.168-.462-.42-.672-.42-.252,0-.462.294-.714.5l-1.3,1.092h-3.822c.378-1.008,1.974-5.418,2.31-6.3a15.823,15.823,0,0,1,.924-2.058c1.218-.378,2.226-.588,2.226-1.176a1.038,1.038,0,0,0-.336-.63L112.98,30.4c-.168-.168-.336-.378-.546-.378-.252,0-.378.21-.588.378l-1.218,1.134H96.012c-2.1,0-4.41-.126-6.468-.294l.84,1.68a30.217,30.217,0,0,1,4.914-.378h2.394C97.314,52.156,91.6,62.7,86.142,66.394l.168.294C93.45,64.462,97.1,55.054,98.2,50.728a79.665,79.665,0,0,0,1.974-12.222c.756,6.216,3.024,13.944,7.014,19.278A29.45,29.45,0,0,1,93.492,66.9v.336a24.5,24.5,0,0,0,15.372-7.476,25.519,25.519,0,0,0,11.424,6.972A7.771,7.771,0,0,1,124.236,63.034ZM113.736,43.8a25.554,25.554,0,0,1-5.04,12.054,29.57,29.57,0,0,1-5.67-10.164c-.882-2.646-2.562-8.862-2.52-11.424l.042-1.722h10.08a96.19,96.19,0,0,1-4.074,10.668,3.357,3.357,0,0,0-.462,1.344,1.347,1.347,0,0,0,1.47,1.134c1.176,0,1.554-.924,1.974-1.89ZM-85.722,98.18a3.979,3.979,0,0,0-3.99-3.948A3.943,3.943,0,0,0-93.66,98.18a3.953,3.953,0,0,0,3.948,3.99A3.988,3.988,0,0,0-85.722,98.18Zm-6.552,5.628c0-.756-3.066-3.654-3.528-3.654-.294,0-1.428.924-1.764,1.008-2.016.588-17.3,1.848-17.892,1.848a5.121,5.121,0,0,1-4.158-2.772,3.364,3.364,0,0,0-.378,1.638c0,2.73,2.982,4.7,3.36,4.7a12.821,12.821,0,0,0,1.932-.84c1.386-.588,8.988-1.932,17.64-2.436a42.814,42.814,0,0,1-6.51,14.238,42.187,42.187,0,0,1-12.138,10.752l.042.294c4.914-1.134,9.408-4.578,11.55-6.51,3.78-3.486,6.426-7.686,9.2-15.2.5-1.386.546-1.47,1.3-1.89C-92.736,104.522-92.274,104.228-92.274,103.808Zm4.956-5.67a2.438,2.438,0,0,1-2.436,2.436,2.4,2.4,0,0,1-2.394-2.436,2.393,2.393,0,0,1,2.394-2.394A2.429,2.429,0,0,1-87.318,98.138Zm38.43,5.166c0-.672-3.192-3.4-3.7-3.4a.764.764,0,0,0-.546.294,3.316,3.316,0,0,1-2.184.966c-1.722.294-10.332.8-12.306.924-.42.042-2.52.252-2.982.252A2.259,2.259,0,0,1-71.946,102c-2.016-1.218-2.646-1.554-3.738-1.554a4.164,4.164,0,0,0-2.142.714c1.722.63,2.436,1.05,2.856,2.52.924,3.4,1.26,13.9,1.26,14.994,0,.252-.168,1.554-.168,1.848,0,1.134.714,4.074,2.184,4.074,1.05,0,1.134-1.554,1.134-2.352a86.188,86.188,0,0,1,9.7-.462,45.55,45.55,0,0,1,7.476.378,6.471,6.471,0,0,0,.8.084,1.006,1.006,0,0,0,1.134-1.008c0-.588-.294-.84-1.3-1.554-.714-.5-.8-.588-.8-.882a1.786,1.786,0,0,1,.084-.462c.546-2.268,1.344-6.636,1.974-10,.63-3.276.672-3.318,1.638-3.99C-49.14,103.892-48.888,103.64-48.888,103.3Zm-5.376.84c0,2.436-1.6,13.86-1.764,15.246-1.722.126-13.44.756-14.784.756,0-.084-.924-15.12-.924-15.918,0-.336.042-.378.168-.378.336,0,1.68.5,1.974.5.5,0,2.562-.294,2.982-.336,4.956-.5,10.332-.8,11.55-.8C-54.432,103.22-54.264,103.682-54.264,104.144ZM-2.9,97.886c0-2.772-4.746-3.486-6.426-3.486-.378,0-.672.042-1.218.084a16.019,16.019,0,0,1,4.578,3.108C-4.578,98.936-4.452,99.1-3.99,99.1A1.141,1.141,0,0,0-2.9,97.886Zm-3.654,3.78c0-2.814-4.662-3.99-7.308-4.032a19.938,19.938,0,0,1,4.2,3.57c1.554,1.722,1.6,1.764,2.1,1.764C-7.14,102.968-6.552,102.59-6.552,101.666Zm-14.742-.336c0-4.452-8.064-4.536-8.316-4.536a10.01,10.01,0,0,0-1.932.168,26,26,0,0,1,6.342,3.906c2.016,1.68,2.226,1.848,2.772,1.848A1.212,1.212,0,0,0-21.294,101.33ZM-5,104.522l-.294-.21c-7.308,8.694-14.658,14.91-21.5,18.816a2.869,2.869,0,0,1-1.47.462c-1.176,0-2.856-2.016-3.276-2.478a6.2,6.2,0,0,0-.126,1.092c0,2.772,2.856,5.586,3.99,5.586a1.606,1.606,0,0,0,1.26-.8,6.006,6.006,0,0,1,1.47-1.344C-16.212,119.768-10.038,113.93-5,104.522Zm-19.908,6.006a3.686,3.686,0,0,0-2.142-3.024c-1.806-1.008-5.418-1.008-5.838-1.008a19.835,19.835,0,0,0-3.15.252,31.924,31.924,0,0,1,6.51,3.15c2.688,1.806,3.024,2.016,3.444,2.016A1.284,1.284,0,0,0-24.906,110.528ZM35.07,124.052c0-1.344-3.318-2.478-3.654-2.478-.168,0-1.176.294-1.386.294-1.218.084-7.308.252-8.652.336.084-1.512.63-8.9.714-9.072a7.183,7.183,0,0,0,.378-1.26c0-.294-.252-.546-.672-.966a57.326,57.326,0,0,1,6.51-.252c.462,0,1.344-.126,1.344-.882,0-1.092-2.52-1.47-2.73-1.47-.252,0-1.512.588-1.806.672a70.216,70.216,0,0,1-9.45.756,6.6,6.6,0,0,1-4.326-1.176c-.042,1.386,1.764,3.234,2.814,3.234.168,0,1.134-.168,1.386-.21.21-.042,1.344-.21,3.192-.462.714,1.176.882,1.554.882,4.662,0,2.268-.168,5.166-.252,6.552-1.47.084-8.022.8-9.03.8-1.638,0-2.646-1.092-3.528-2.352a5.458,5.458,0,0,0-.168,1.3c0,1.722,2.184,3.822,3.066,3.822a.989.989,0,0,0,.546-.21c2.436-1.89,13.188-1.974,14.364-1.974a37.172,37.172,0,0,1,7.35.63,21.92,21.92,0,0,0,2.352.546A.777.777,0,0,0,35.07,124.052Zm39.984-19.446c0-.8-3.024-3.318-3.486-3.318-.42,0-1.848,1.134-2.226,1.26a34.56,34.56,0,0,1-8.232.756c.546-.672,1.638-2.1,2.058-2.478.8-.756.966-.966.966-1.344,0-1.092-3.066-3.024-4.746-3.024a6.847,6.847,0,0,0-2.058.336c2.226,1.344,2.31,1.68,2.31,2.1,0,1.344-4.074,8.9-10.962,15.2l.21.336c4.158-2.184,7.224-4.578,11.13-9.744a4.734,4.734,0,0,0,2.142.714c.21,0,1.05-.126,1.344-.168,1.722-.252,4.578-.672,6.3-.84-3.864,9.786-12.348,19.068-21.5,24.15l.084.294a27.39,27.39,0,0,0,8.232-3.57c6.426-3.99,10.836-9.24,14.868-17.094.924-1.806,1.3-2.184,2.268-2.6C74.928,105.026,75.054,104.9,75.054,104.606Zm41.16,10.416a3.838,3.838,0,0,0-1.26-2.814c-2.31-2.016-6.552-3.864-10.836-4.536.042-2.058.126-6.888.588-8.484a19.612,19.612,0,0,0,.588-2.1c0-1.344-4.116-2.226-4.746-2.226a5.864,5.864,0,0,0-2.772,1.008c2.184.756,3.108,1.176,3.36,2.1.336,1.344.378,9.7.378,11.508A118.939,118.939,0,0,1,100.968,123a18.718,18.718,0,0,0-.294,2.814c0,1.092.588,3.528,1.974,3.528,1.638,0,1.638-2.478,1.638-3.36,0-.966-.252-5.8-.252-6.888-.042-1.512.042-8.82.042-10.458,2.9,1.092,5.082,2.6,8.946,6.888.672.714,1.218,1.26,1.848,1.26C115.374,116.786,116.214,116.408,116.214,115.022Z" transform="translate(240.56 110.41)" fill="#fff"/>
      </g>
      <path id="パス_700" data-name="パス 700" d="M-139.016-7.968a6.115,6.115,0,0,1-.832-2.64c-.528.048-.96.048-1.328.048-.4,0-.784-.016-1.264-.048a.3.3,0,0,0-.064.4l.256.032c.976.128,1.1.368,1.072,1.376-.032.88-.1,2.24-.176,3.568-.1,1.584-.176,2.464-.272,3.52-.1,1.12-.32,1.216-.992,1.312l-.352.048a.316.316,0,0,0,.032.4C-142.392.016-141.816,0-141.3,0c.608,0,1.232.016,1.776.048.112-.048.128-.3.016-.4L-140.12-.4c-.624-.048-.72-.3-.72-1.488,0-1.36.064-2.784.112-3.76.048-.928.1-1.856.16-2.848h.032c.352.736.688,1.568,1.024,2.3l1.44,3.088c.368.784,1.136,2.352,1.408,3.2a.2.2,0,0,0,.144.064A.186.186,0,0,0-136.36.1c.288-.736,1.008-2.24,1.728-3.648l1.424-2.8c.32-.624.928-1.9,1.04-2.08h.032l.048,6.672c0,1.024,0,1.28-.784,1.36l-.464.048a.3.3,0,0,0,.032.4c.656-.032,1.376-.048,1.936-.048.576,0,1.232.016,1.888.048a.3.3,0,0,0,.032-.4L-129.96-.4c-.752-.064-.736-.5-.784-1.3-.128-2.3-.144-5.264-.176-6.96-.016-1.12.112-1.424,1.12-1.52l.336-.032a.337.337,0,0,0-.016-.4c-.5.032-1.024.048-1.424.048-.32,0-.656,0-1.2-.048a9.361,9.361,0,0,1-1.216,3.072l-1.5,3.056c-.4.816-.8,1.648-1.232,2.4h-.032c-.384-.7-.736-1.44-1.1-2.192Zm13.488,5.344c-1.024.368-1.328.736-1.328,1.36a1.5,1.5,0,0,0,.5,1.12,1.656,1.656,0,0,0,1.12.368,2.368,2.368,0,0,0,1.152-.4,2.456,2.456,0,0,1,.624-.32c.1,0,.192.128.256.224a1.277,1.277,0,0,0,1.04.5,1.679,1.679,0,0,0,1.344-.7c0-.112-.048-.208-.112-.208-.048,0-.128.064-.208.112a.919.919,0,0,1-.4.1c-.624,0-.768-.656-.736-1.392l.1-2.784c.048-1.2-.512-1.872-1.664-1.872-1.168,0-2.976,1.136-2.976,1.968a.2.2,0,0,0,.224.224,1.722,1.722,0,0,0,.912-.3c.128-.1.144-.288.16-.544.032-.5.576-.72,1.024-.72.992,0,1.184.8,1.168,1.392l-.016.736c0,.24-.032.384-.272.464Zm-.1,1.168c0-.624.464-.864,1.408-1.184a3.02,3.02,0,0,1,.656-.16c.1,0,.16.032.16.208l-.032.944c-.016.336-.016.56-.208.752a1.809,1.809,0,0,1-.976.4A.964.964,0,0,1-125.624-1.456Zm7.84-.336c0,1.152-.016,1.312-.608,1.392l-.336.048a.28.28,0,0,0,.032.4c.448-.032.928-.048,1.5-.048.56,0,1.024.016,1.456.048a.28.28,0,0,0,.032-.4l-.288-.048c-.576-.1-.608-.24-.608-1.392V-4.24a1.348,1.348,0,0,1,.24-.96A1.745,1.745,0,0,1-115-5.76a1.387,1.387,0,0,1,1.5,1.584v2.384c0,1.152-.016,1.3-.608,1.392l-.3.048a.28.28,0,0,0,.032.4c.432-.032.912-.048,1.488-.048.56,0,1.024.016,1.5.048a.28.28,0,0,0,.032-.4L-111.7-.4c-.576-.08-.608-.24-.608-1.392V-4.544a1.775,1.775,0,0,0-1.872-1.984,4.387,4.387,0,0,0-2.24.816.168.168,0,0,1-.176-.176c0-.144,0-.384.032-.752a.187.187,0,0,0-.176-.112,8.719,8.719,0,0,1-1.6.784.219.219,0,0,0-.016.288l.144.1c.432.288.432.368.432.992Zm14.272-4.16a1.914,1.914,0,0,1-.976-.256,3.993,3.993,0,0,0-1.536-.32,2.5,2.5,0,0,0-2.608,2.416,2.172,2.172,0,0,0,1.2,1.936.625.625,0,0,1-.16.3,4.973,4.973,0,0,1-.848.736c-.176.128-.24.192-.24.272A1.486,1.486,0,0,0-107.512.4c.144.1.016.24-.128.384-.368.368-.816.784-1.088,1.072a.9.9,0,0,0-.176.592c0,.8.688,1.856,2.656,1.856,2.08,0,3.984-1.28,3.984-3.024,0-1.6-1.344-1.76-2.24-1.76-.7,0-1.36.048-1.9.048-.752,0-1.12-.3-1.12-.672,0-.464.512-.768.7-.88.192.016.416.048.7.048a2.46,2.46,0,0,0,2.688-2.544,6.958,6.958,0,0,0-.032-.816h1.152c.24-.032.272-.576.1-.656Zm-1.5,6.464c1.152,0,1.824.416,1.824,1.392,0,.912-.944,1.712-2.368,1.712-1.456,0-2.144-.72-2.144-1.584a1.639,1.639,0,0,1,.768-1.344A3.536,3.536,0,0,1-105.56.512ZM-105.88-2.4c-.768,0-1.456-.736-1.456-1.872,0-1.088.576-1.792,1.344-1.792.976,0,1.424.912,1.424,2C-104.568-3.088-105.016-2.4-105.88-2.4Zm7.152-.224c-1.024.368-1.328.736-1.328,1.36a1.5,1.5,0,0,0,.5,1.12,1.656,1.656,0,0,0,1.12.368,2.368,2.368,0,0,0,1.152-.4,2.456,2.456,0,0,1,.624-.32c.1,0,.192.128.256.224a1.277,1.277,0,0,0,1.04.5,1.679,1.679,0,0,0,1.344-.7c0-.112-.048-.208-.112-.208-.048,0-.128.064-.208.112a.919.919,0,0,1-.4.1c-.624,0-.768-.656-.736-1.392l.1-2.784c.048-1.2-.512-1.872-1.664-1.872-1.168,0-2.976,1.136-2.976,1.968a.2.2,0,0,0,.224.224,1.722,1.722,0,0,0,.912-.3c.128-.1.144-.288.16-.544.032-.5.576-.72,1.024-.72.992,0,1.184.8,1.168,1.392l-.016.736c0,.24-.032.384-.272.464Zm-.1,1.168c0-.624.464-.864,1.408-1.184a3.02,3.02,0,0,1,.656-.16c.1,0,.16.032.16.208l-.032.944c-.016.336-.016.56-.208.752a1.809,1.809,0,0,1-.976.4A.964.964,0,0,1-98.824-1.456Zm15.232-8.08c0-.512.016-.576.864-.576a2.359,2.359,0,0,1,2.576,2.56A2.489,2.489,0,0,1-82.5-4.864c-.1.032-.1.272.016.32a5.4,5.4,0,0,0,2.208-.48,2.712,2.712,0,0,0,1.6-2.544,2.764,2.764,0,0,0-1.28-2.4,5.779,5.779,0,0,0-3.072-.64,25.226,25.226,0,0,0-3.168.128.267.267,0,0,0-.032.4l.576.064c.72.08.752.352.752,1.712v5.9c0,1.68-.032,1.872-.96,2l-.336.048a.311.311,0,0,0,.032.4c.7-.032,1.28-.048,1.952-.048.64,0,1.168.016,2.08.048a.313.313,0,0,0,.032-.4L-82.536-.4c-1.024-.112-1.056-.32-1.056-2Zm8.112,7.744c0,1.152-.016,1.3-.608,1.392l-.3.048a.28.28,0,0,0,.032.4c.416-.032.9-.048,1.472-.048.56,0,1.024.016,1.776.048a.28.28,0,0,0,.032-.4L-73.656-.4c-.608-.048-.64-.24-.64-1.392V-3.968A2.434,2.434,0,0,1-74.088-5.2a.71.71,0,0,1,.576-.32,1.312,1.312,0,0,1,.7.256.615.615,0,0,0,.352.112.71.71,0,0,0,.688-.736.663.663,0,0,0-.72-.64,3.233,3.233,0,0,0-1.76.96q-.048-.024-.048-.144V-6.64c0-.064-.048-.1-.128-.112a12.393,12.393,0,0,1-1.616.784.219.219,0,0,0-.016.288l.144.1c.432.288.432.368.432.992Zm9.216-4.736a3.362,3.362,0,0,0-3.408,3.456,3.163,3.163,0,0,0,3.28,3.3,3.268,3.268,0,0,0,3.376-3.44A3.2,3.2,0,0,0-66.264-6.528Zm1.872,3.568c0,1.232-.432,2.7-1.84,2.7S-68.3-1.824-68.3-3.28c0-1.76.784-2.768,1.84-2.768C-64.936-6.048-64.392-4.32-64.392-2.96Zm5.136,2.4c0,1.952-.288,3.1-.864,3.776a3.05,3.05,0,0,1-.944.72.27.27,0,0,0,.224.368A5.628,5.628,0,0,0-58.408,1.7a6.833,6.833,0,0,0,.336-2.5V-4.672c0-.656.032-1.424.064-1.984a.148.148,0,0,0-.16-.1,10.992,10.992,0,0,1-1.648.784.219.219,0,0,0-.016.288l.144.1c.432.288.432.368.432.992Zm.528-9.424a.819.819,0,0,0-.864.848.79.79,0,0,0,.816.816.792.792,0,0,0,.848-.832A.8.8,0,0,0-58.728-9.984Zm8.56,5.888c.672,0,.9-.016.944-.112a.989.989,0,0,0,.064-.416,2.1,2.1,0,0,0-2.272-1.9,3.359,3.359,0,0,0-3.216,3.616,3.4,3.4,0,0,0,.672,2.08A2.867,2.867,0,0,0-51.656.224a2.8,2.8,0,0,0,2.512-1.488.212.212,0,0,0-.288-.192A1.724,1.724,0,0,1-50.9-.672,2.708,2.708,0,0,1-53.56-3.664c0-.4.016-.432.432-.432Zm-3.1-.48c-.112,0-.112-.048-.112-.08a1.878,1.878,0,0,1,1.776-1.392c.928,0,1.232.56,1.232,1.008,0,.208-.048.272-.1.3-.128.1-.48.16-1.664.16Zm10.448-1.952A3.56,3.56,0,0,0-46.7-2.96a3.185,3.185,0,0,0,.928,2.368,3.1,3.1,0,0,0,2.192.816A2.915,2.915,0,0,0-40.9-1.408a.252.252,0,0,0-.288-.224,1.952,1.952,0,0,1-1.776.96,2.629,2.629,0,0,1-2.576-2.736,2.31,2.31,0,0,1,2.208-2.576,2.183,2.183,0,0,1,1.6.848.279.279,0,0,0,.224.112c.192,0,.352-.3.352-.592a.907.907,0,0,0-.24-.64A3.99,3.99,0,0,0-42.824-6.528Zm8.24.9A.511.511,0,0,0-34.6-6.3h-1.776c-.272,0-.288-.016-.288-.3v-.72c-.064-.112-.256-.112-.336-.08a3.961,3.961,0,0,1-.672.944,3.177,3.177,0,0,1-1.024.5.266.266,0,0,0,.048.336h.448c.32,0,.336.032.336.464V-1.5c0,.96.288,1.728,1.664,1.728a2.215,2.215,0,0,0,1.68-.736c.032-.1-.032-.272-.16-.272-.048,0-.256.176-.4.224a1.222,1.222,0,0,1-.432.08c-1.056,0-1.168-.848-1.168-1.776V-5.248c0-.336.016-.384.288-.384Zm12.112,0A.494.494,0,0,0-22.36-6.3h-1.824c-.272,0-.272-.016-.272-.448v-.464a8.489,8.489,0,0,1,.352-2.7,1.234,1.234,0,0,1,1.136-.88,1.786,1.786,0,0,1,1.28.7A.456.456,0,0,0-21.3-9.9a.612.612,0,0,0,.608-.576c0-.576-.72-.96-1.568-.96a3.147,3.147,0,0,0-2.88,2.032,7.173,7.173,0,0,0-.5,2.816.363.363,0,0,1-.24.32l-.688.336a.224.224,0,0,0,.048.3h.56c.32,0,.32.032.32.464v3.376c0,1.152-.016,1.312-.608,1.392l-.368.048a.28.28,0,0,0,.032.4C-26.1.016-25.624,0-25.048,0c.56,0,1.024.016,1.744.048a.28.28,0,0,0,.032-.4L-23.848-.4c-.576-.048-.608-.24-.608-1.392V-5.168c0-.432,0-.464.272-.464Zm5.52-.9A3.362,3.362,0,0,0-20.36-3.072a3.163,3.163,0,0,0,3.28,3.3A3.268,3.268,0,0,0-13.7-3.216,3.2,3.2,0,0,0-16.952-6.528ZM-15.08-2.96c0,1.232-.432,2.7-1.84,2.7s-2.064-1.568-2.064-3.024c0-1.76.784-2.768,1.84-2.768C-15.624-6.048-15.08-4.32-15.08-2.96Zm5.1,1.168c0,1.152-.016,1.3-.608,1.392l-.3.048a.28.28,0,0,0,.032.4C-10.44.016-9.96,0-9.384,0c.56,0,1.024.016,1.776.048a.28.28,0,0,0,.032-.4L-8.152-.4c-.608-.048-.64-.24-.64-1.392V-3.968A2.434,2.434,0,0,1-8.584-5.2a.71.71,0,0,1,.576-.32,1.312,1.312,0,0,1,.7.256.615.615,0,0,0,.352.112.71.71,0,0,0,.688-.736.663.663,0,0,0-.72-.64,3.233,3.233,0,0,0-1.76.96q-.048-.024-.048-.144V-6.64c0-.064-.048-.1-.128-.112a12.392,12.392,0,0,1-1.616.784.219.219,0,0,0-.016.288l.144.1c.432.288.432.368.432.992ZM5.656-5.632A.511.511,0,0,0,5.64-6.3H3.864c-.272,0-.288-.016-.288-.3v-.72c-.064-.112-.256-.112-.336-.08a3.961,3.961,0,0,1-.672.944,3.177,3.177,0,0,1-1.024.5.266.266,0,0,0,.048.336H2.04c.32,0,.336.032.336.464V-1.5c0,.96.288,1.728,1.664,1.728A2.215,2.215,0,0,0,5.72-.512c.032-.1-.032-.272-.16-.272-.048,0-.256.176-.4.224a1.222,1.222,0,0,1-.432.08C3.672-.48,3.56-1.328,3.56-2.256V-5.248c0-.336.016-.384.288-.384Zm3.232,3.84C8.888-.64,8.872-.464,8.28-.4l-.4.048a.28.28,0,0,0,.032.4C8.424.016,8.9,0,9.48,0c.56,0,1.024.016,1.5.048.112-.048.144-.336.032-.4L10.68-.4c-.576-.08-.608-.24-.608-1.392V-4.48c0-.56.048-.64.336-.88a1.915,1.915,0,0,1,1.248-.432c1.024,0,1.52.688,1.52,1.712v2.288c0,1.152-.016,1.3-.608,1.392l-.32.048a.28.28,0,0,0,.032.4C12.712.016,13.192,0,13.768,0c.56,0,1.024.016,1.6.048a.28.28,0,0,0,.032-.4L14.968-.4c-.576-.064-.608-.24-.608-1.392V-4.464A1.866,1.866,0,0,0,12.3-6.528a3.634,3.634,0,0,0-2.16.832c-.048-.032-.064-.16-.064-.3V-9.36c0-.7.032-1.5.048-1.984a.176.176,0,0,0-.16-.1,11.353,11.353,0,0,1-1.728.672.243.243,0,0,0,0,.32l.16.1c.48.288.5.384.5,1.328ZM22.36-4.1c.672,0,.9-.016.944-.112a.989.989,0,0,0,.064-.416,2.1,2.1,0,0,0-2.272-1.9A3.359,3.359,0,0,0,17.88-2.912a3.4,3.4,0,0,0,.672,2.08A2.867,2.867,0,0,0,20.872.224a2.8,2.8,0,0,0,2.512-1.488.212.212,0,0,0-.288-.192,1.724,1.724,0,0,1-1.472.784,2.708,2.708,0,0,1-2.656-2.992c0-.4.016-.432.432-.432Zm-3.1-.48c-.112,0-.112-.048-.112-.08A1.878,1.878,0,0,1,20.92-6.048c.928,0,1.232.56,1.232,1.008,0,.208-.048.272-.1.3-.128.1-.48.16-1.664.16ZM37.288.256A5.463,5.463,0,0,0,42.84-5.328a5.266,5.266,0,0,0-5.552-5.488,5.531,5.531,0,0,0-5.7,5.648A5.388,5.388,0,0,0,37.288.256Zm.208-.5c-3.152,0-4.3-3.072-4.3-5.44,0-3.5,2.16-4.64,3.824-4.64,3.056,0,4.224,2.848,4.224,5.488C41.24-1.68,39.416-.24,37.5-.24ZM49.528-6.528A3.56,3.56,0,0,0,45.656-2.96a3.185,3.185,0,0,0,.928,2.368,3.1,3.1,0,0,0,2.192.816,2.915,2.915,0,0,0,2.672-1.632.252.252,0,0,0-.288-.224,1.952,1.952,0,0,1-1.776.96,2.629,2.629,0,0,1-2.576-2.736,2.31,2.31,0,0,1,2.208-2.576,2.183,2.183,0,0,1,1.6.848.279.279,0,0,0,.224.112c.192,0,.352-.3.352-.592a.907.907,0,0,0-.24-.64A3.99,3.99,0,0,0,49.528-6.528ZM58.12-4.1c.672,0,.9-.016.944-.112a.989.989,0,0,0,.064-.416,2.1,2.1,0,0,0-2.272-1.9A3.359,3.359,0,0,0,53.64-2.912a3.4,3.4,0,0,0,.672,2.08A2.867,2.867,0,0,0,56.632.224a2.8,2.8,0,0,0,2.512-1.488.212.212,0,0,0-.288-.192,1.724,1.724,0,0,1-1.472.784,2.708,2.708,0,0,1-2.656-2.992c0-.4.016-.432.432-.432Zm-3.1-.48c-.112,0-.112-.048-.112-.08A1.878,1.878,0,0,1,56.68-6.048c.928,0,1.232.56,1.232,1.008,0,.208-.048.272-.1.3-.128.1-.48.16-1.664.16ZM62.9-2.624c-1.024.368-1.328.736-1.328,1.36a1.5,1.5,0,0,0,.5,1.12,1.656,1.656,0,0,0,1.12.368,2.368,2.368,0,0,0,1.152-.4,2.456,2.456,0,0,1,.624-.32c.1,0,.192.128.256.224a1.277,1.277,0,0,0,1.04.5,1.679,1.679,0,0,0,1.344-.7c0-.112-.048-.208-.112-.208-.048,0-.128.064-.208.112a.919.919,0,0,1-.4.1c-.624,0-.768-.656-.736-1.392l.1-2.784c.048-1.2-.512-1.872-1.664-1.872-1.168,0-2.976,1.136-2.976,1.968a.2.2,0,0,0,.224.224,1.722,1.722,0,0,0,.912-.3c.128-.1.144-.288.16-.544.032-.5.576-.72,1.024-.72.992,0,1.184.8,1.168,1.392l-.016.736c0,.24-.032.384-.272.464Zm-.1,1.168c0-.624.464-.864,1.408-1.184a3.02,3.02,0,0,1,.656-.16c.1,0,.16.032.16.208L65-1.648c-.016.336-.016.56-.208.752a1.809,1.809,0,0,1-.976.4A.964.964,0,0,1,62.808-1.456Zm7.84-.336c0,1.152-.016,1.312-.608,1.392L69.7-.352a.28.28,0,0,0,.032.4C70.184.016,70.664,0,71.24,0c.56,0,1.024.016,1.456.048a.28.28,0,0,0,.032-.4L72.44-.4c-.576-.1-.608-.24-.608-1.392V-4.24a1.348,1.348,0,0,1,.24-.96,1.745,1.745,0,0,1,1.36-.56,1.387,1.387,0,0,1,1.5,1.584v2.384c0,1.152-.016,1.3-.608,1.392l-.3.048a.28.28,0,0,0,.032.4C74.488.016,74.968,0,75.544,0c.56,0,1.024.016,1.5.048a.28.28,0,0,0,.032-.4L76.728-.4c-.576-.08-.608-.24-.608-1.392V-4.544a1.775,1.775,0,0,0-1.872-1.984,4.387,4.387,0,0,0-2.24.816.168.168,0,0,1-.176-.176c0-.144,0-.384.032-.752a.187.187,0,0,0-.176-.112,8.719,8.719,0,0,1-1.6.784.219.219,0,0,0-.016.288l.144.1c.432.288.432.368.432.992Zm8.96-9.408c-.624,0-.768.416-.768.656a.424.424,0,0,0,.432.448.878.878,0,0,1,.8.9c0,.656-.624,1.1-1.216,1.376a.236.236,0,0,0,.112.336A2.377,2.377,0,0,0,80.84-9.664,1.438,1.438,0,0,0,79.608-11.2Zm5.408,4.672c-1.216,0-2.176.656-2.176,1.824,0,.88.656,1.44,1.584,1.968.592.336,1.232.736,1.232,1.472A.986.986,0,0,1,84.584-.24c-.912,0-1.424-.768-1.7-1.648a.272.272,0,0,0-.368.016,4.757,4.757,0,0,0,.192,1.616,2.662,2.662,0,0,0,1.712.48c1.184,0,2.3-.608,2.3-1.824,0-1.136-.784-1.68-1.632-2.16-.56-.32-1.232-.672-1.232-1.328a.946.946,0,0,1,1.024-.976A1.56,1.56,0,0,1,86.3-4.9a.279.279,0,0,0,.384-.048,3.737,3.737,0,0,0-.256-1.3A2.831,2.831,0,0,0,85.016-6.528Zm12.752-2.9c0-.608,0-.64.48-.64h.976a6.837,6.837,0,0,1,1.552.1c.8.208.992.8,1.12,1.52a.288.288,0,0,0,.384-.048c-.032-.608-.048-1.376-.048-2.112-.208.048-1.136.048-2.16.048H97.128c-.64,0-1.184-.016-1.856-.048-.1.048-.128.336-.032.4l.256.032c.928.112.96.336.96,2.016V-2.4c0,1.68-.032,1.888-.96,2l-.4.048a.311.311,0,0,0,.032.4c.752-.032,1.3-.048,2-.048.64,0,1.184.016,2.128.048.1-.048.128-.336.032-.4L98.744-.4c-.944-.08-.976-.32-.976-2V-4.624c0-.416.048-.432.528-.432h1.088a5.44,5.44,0,0,1,1.232.08.769.769,0,0,1,.512.608l.16.624c.112.1.352.1.416,0,0-.368-.064-.976-.064-1.552,0-.592.064-1.232.064-1.616a.336.336,0,0,0-.416,0l-.144.64c-.1.416-.224.5-.4.56a6.032,6.032,0,0,1-1.36.1H98.3c-.48,0-.528,0-.528-.432Zm9.008,4.4a12.055,12.055,0,0,1,.048-1.392c-.016-.064-.064-.1-.16-.112a5.663,5.663,0,0,1-1.712.288.238.238,0,0,0-.032.352l.192.08c.48.208.48.352.48,1.36v2.672c0,1.3.528,2,1.936,2a4.183,4.183,0,0,0,2.208-.832c.1,0,.144.08.144.224V.272a.222.222,0,0,0,.192.112,8.309,8.309,0,0,1,2.1-.592c.128-.064.112-.384.016-.464a3.032,3.032,0,0,1-.624.08c-.448,0-.5-.48-.5-1.744V-5.024c0-.592.016-1.088.048-1.392-.016-.064-.064-.1-.144-.112a6.391,6.391,0,0,1-1.872.288.218.218,0,0,0-.016.352l.208.08c.48.192.592.224.592,1.264V-1.92a1.114,1.114,0,0,1-.32.928,2.093,2.093,0,0,1-1.3.48c-1.216,0-1.488-.736-1.488-1.84Zm11.936-.608A.511.511,0,0,0,118.7-6.3H116.92c-.272,0-.288-.016-.288-.3v-.72c-.064-.112-.256-.112-.336-.08a3.961,3.961,0,0,1-.672.944,3.177,3.177,0,0,1-1.024.5.266.266,0,0,0,.048.336h.448c.32,0,.336.032.336.464V-1.5c0,.96.288,1.728,1.664,1.728a2.215,2.215,0,0,0,1.68-.736c.032-.1-.032-.272-.16-.272-.048,0-.256.176-.4.224a1.222,1.222,0,0,1-.432.08c-1.056,0-1.168-.848-1.168-1.776V-5.248c0-.336.016-.384.288-.384Zm4.368.608a12.055,12.055,0,0,1,.048-1.392c-.016-.064-.064-.1-.16-.112a5.663,5.663,0,0,1-1.712.288.238.238,0,0,0-.032.352l.192.08c.48.208.48.352.48,1.36v2.672c0,1.3.528,2,1.936,2a4.183,4.183,0,0,0,2.208-.832c.1,0,.144.08.144.224V.272a.222.222,0,0,0,.192.112,8.309,8.309,0,0,1,2.1-.592c.128-.064.112-.384.016-.464a3.032,3.032,0,0,1-.624.08c-.448,0-.5-.48-.5-1.744V-5.024c0-.592.016-1.088.048-1.392-.016-.064-.064-.1-.144-.112a6.391,6.391,0,0,1-1.872.288.218.218,0,0,0-.016.352l.208.08c.48.192.592.224.592,1.264V-1.92a1.114,1.114,0,0,1-.32.928,2.093,2.093,0,0,1-1.3.48c-1.216,0-1.488-.736-1.488-1.84ZM131.9-1.792c0,1.152-.016,1.3-.608,1.392l-.3.048a.28.28,0,0,0,.032.4c.416-.032.9-.048,1.472-.048.56,0,1.024.016,1.776.048a.28.28,0,0,0,.032-.4L133.72-.4c-.608-.048-.64-.24-.64-1.392V-3.968a2.433,2.433,0,0,1,.208-1.232.71.71,0,0,1,.576-.32,1.312,1.312,0,0,1,.7.256.615.615,0,0,0,.352.112.71.71,0,0,0,.688-.736.663.663,0,0,0-.72-.64,3.233,3.233,0,0,0-1.76.96q-.048-.024-.048-.144V-6.64c0-.064-.048-.1-.128-.112a12.391,12.391,0,0,1-1.616.784.219.219,0,0,0-.016.288l.144.1c.432.288.432.368.432.992ZM142.12-4.1c.672,0,.9-.016.944-.112a.988.988,0,0,0,.064-.416,2.1,2.1,0,0,0-2.272-1.9,3.359,3.359,0,0,0-3.216,3.616,3.4,3.4,0,0,0,.672,2.08,2.867,2.867,0,0,0,2.32,1.056,2.8,2.8,0,0,0,2.512-1.488.211.211,0,0,0-.288-.192,1.724,1.724,0,0,1-1.472.784,2.708,2.708,0,0,1-2.656-2.992c0-.4.016-.432.432-.432Zm-3.1-.48c-.112,0-.112-.048-.112-.08a1.878,1.878,0,0,1,1.776-1.392c.928,0,1.232.56,1.232,1.008,0,.208-.048.272-.1.3-.128.1-.48.16-1.664.16Z" transform="translate(956 645)" fill="#fee737"/>
    </g>
  </g>
</svg>
