<svg xmlns="http://www.w3.org/2000/svg" xmlns:xlink="http://www.w3.org/1999/xlink" width="1920" height="1360" viewBox="0 0 1920 1360">
  <defs>
    <clipPath id="clip-path">
      <rect id="長方形_560" data-name="長方形 560" width="1920" height="1360" transform="translate(0 1080)" fill="#fff" stroke="#707070" stroke-width="1"/>
    </clipPath>
    <linearGradient id="linear-gradient" x1="0.5" y1="-0.153" x2="0.5" y2="0.644" gradientUnits="objectBoundingBox">
      <stop offset="0" stop-color="#fff" stop-opacity="0"/>
      <stop offset="1" stop-color="#fff"/>
    </linearGradient>
  </defs>
  <g id="マスクグループ_6" data-name="マスクグループ 6" transform="translate(0 -1080)" clip-path="url(#clip-path)">
    <path id="合体_2" data-name="合体 2" d="M100,1350H-1820V0c56.469,0,56.469,22,112.937,22s56.471-22,112.941-22,56.469,22,112.938,22,56.47-22,112.939-22,56.471,22,112.941,22,56.471-22,112.941-22,56.47,22,112.94,22S-972.95,0-916.481,0-860.01,22-803.54,22-747.073,0-690.6,0s56.471,22,112.942,22S-521.192,0-464.72,0s56.47,22,112.941,22S-295.308,0-238.837,0s56.471,22,112.943,22S-69.421,0-12.947,0C-8.266,0-3.969.151,0,.429V0C56.469,0,56.469,22,112.937,22S169.408,0,225.878,0s56.469,22,112.939,22S395.287,0,451.757,0,508.227,22,564.7,22,621.167,0,677.638,0s56.47,22,112.941,22S847.049,0,903.519,0s56.47,22,112.941,22S1072.928,0,1129.4,0s56.471,22,112.942,22,56.47-22,112.941-22,56.47,22,112.941,22,56.471-22,112.944-22,56.47,22,112.942,22,56.473-22,112.947-22S1863.526,22,1920,22V1350Z" transform="translate(100 1090)" fill="url(#linear-gradient)"/>
    <path id="合体_1" data-name="合体 1" d="M0,1350V0C56.469,0,56.469,22,112.937,22S169.408,0,225.878,0s56.469,22,112.939,22S395.287,0,451.757,0,508.227,22,564.7,22,621.167,0,677.638,0s56.47,22,112.941,22S847.049,0,903.519,0s56.47,22,112.941,22S1072.928,0,1129.4,0s56.471,22,112.942,22,56.47-22,112.941-22,56.47,22,112.941,22,56.471-22,112.944-22,56.47,22,112.942,22,56.473-22,112.947-22S1863.526,22,1920,22V1350Z" transform="translate(0 1080)" fill="url(#linear-gradient)"/>
  </g>
</svg>
