<svg xmlns="http://www.w3.org/2000/svg" width="115.665" height="23.136" viewBox="0 0 115.665 23.136">
  <path id="パス_695" data-name="パス 695" d="M-53.028-14.3c0-.768.024-.864,1.3-.864a3.539,3.539,0,0,1,3.864,3.84c0,2.088-.936,3.552-3.528,4.032-.144.048-.144.408.024.48a8.1,8.1,0,0,0,3.312-.72,4.068,4.068,0,0,0,2.4-3.816,4.147,4.147,0,0,0-1.92-3.6,8.668,8.668,0,0,0-4.608-.96,37.839,37.839,0,0,0-4.752.192.4.4,0,0,0-.048.6l.864.1c1.08.12,1.128.528,1.128,2.568V-3.6c0,2.52-.048,2.808-1.44,3l-.5.072a.466.466,0,0,0,.048.6C-55.836.024-54.972,0-53.964,0c.96,0,1.752.024,3.12.072a.469.469,0,0,0,.048-.6L-51.444-.6c-1.536-.168-1.584-.48-1.584-3ZM-43.26-2.688c0,1.728-.024,1.944-.912,2.088l-.456.072a.42.42,0,0,0,.048.6C-43.956.024-43.236,0-42.372,0c.84,0,1.536.024,2.664.072a.42.42,0,0,0,.048-.6L-40.524-.6c-.912-.072-.96-.36-.96-2.088V-5.952A3.65,3.65,0,0,1-41.172-7.8a1.065,1.065,0,0,1,.864-.48,1.968,1.968,0,0,1,1.056.384.922.922,0,0,0,.528.168,1.065,1.065,0,0,0,1.032-1.1.994.994,0,0,0-1.08-.96,4.85,4.85,0,0,0-2.64,1.44q-.072-.036-.072-.216V-9.96c0-.1-.072-.144-.192-.168A18.589,18.589,0,0,1-44.1-8.952a.328.328,0,0,0-.024.432l.216.144c.648.432.648.552.648,1.488Zm11.424-7.1a5.043,5.043,0,0,0-5.112,5.184A4.745,4.745,0,0,0-32.028.336a4.9,4.9,0,0,0,5.064-5.16A4.8,4.8,0,0,0-31.836-9.792Zm2.808,5.352c0,1.848-.648,4.056-2.76,4.056s-3.1-2.352-3.1-4.536c0-2.64,1.176-4.152,2.76-4.152C-29.844-9.072-29.028-6.48-29.028-4.44Zm13.08-9.6c0-1.056.048-2.256.072-2.976a.264.264,0,0,0-.24-.144,17.029,17.029,0,0,1-2.592,1.008.365.365,0,0,0,0,.48l.24.144c.72.432.744.576.744,1.992v3.624c0,.192-.024.336-.144.336a4.921,4.921,0,0,0-1.608-.216c-3.264,0-5.808,2.16-5.808,5.52A4.41,4.41,0,0,0-20.844.336a5,5,0,0,0,3.024-1.1h.1a2.673,2.673,0,0,1,.048.744V.384c0,.12.12.192.264.192a18.043,18.043,0,0,1,3.168-.768c.216-.12.192-.72.024-.768a3.923,3.923,0,0,1-1.032.24c-.672,0-.7-.888-.7-2.784ZM-17.724-2.376a1.456,1.456,0,0,1-.168.888,2.936,2.936,0,0,1-1.848.672c-2.352,0-3.576-2.064-3.576-4.248,0-2.088,1.128-3.984,3.312-3.984A2.5,2.5,0,0,1-17.988-8.04a1.406,1.406,0,0,1,.264.936Zm7.632-5.16a18.085,18.085,0,0,1,.072-2.088c-.024-.1-.1-.144-.24-.168a8.5,8.5,0,0,1-2.568.432.356.356,0,0,0-.048.528l.288.12c.72.312.72.528.72,2.04v4.008c0,1.944.792,3,2.9,3A6.274,6.274,0,0,0-5.652-.912c.144,0,.216.12.216.336V.408a.333.333,0,0,0,.288.168A12.463,12.463,0,0,1-2-.312c.192-.1.168-.576.024-.7a4.548,4.548,0,0,1-.936.12c-.672,0-.744-.72-.744-2.616V-7.536c0-.888.024-1.632.072-2.088-.024-.1-.1-.144-.216-.168a9.586,9.586,0,0,1-2.808.432.326.326,0,0,0-.024.528l.312.12c.72.288.888.336.888,1.9V-2.88a1.671,1.671,0,0,1-.48,1.392,3.14,3.14,0,0,1-1.944.72c-1.824,0-2.232-1.1-2.232-2.76ZM5.052-9.792c-3.984,0-5.808,2.76-5.808,5.352A4.778,4.778,0,0,0,.636-.888,4.651,4.651,0,0,0,3.924.336,4.373,4.373,0,0,0,7.932-2.112.379.379,0,0,0,7.5-2.448a2.928,2.928,0,0,1-2.664,1.44,3.944,3.944,0,0,1-3.864-4.1c0-2.544,1.632-3.864,3.312-3.864A3.274,3.274,0,0,1,6.684-7.7a.419.419,0,0,0,.336.168c.288,0,.528-.456.528-.888a1.36,1.36,0,0,0-.36-.96A5.986,5.986,0,0,0,5.052-9.792ZM15.54-6.144c1.008,0,1.344-.024,1.416-.168a1.483,1.483,0,0,0,.1-.624,3.145,3.145,0,0,0-3.408-2.856c-2.88,0-4.824,2.472-4.824,5.424a5.1,5.1,0,0,0,1.008,3.12A4.3,4.3,0,0,0,13.308.336,4.2,4.2,0,0,0,17.076-1.9a.317.317,0,0,0-.432-.288,2.586,2.586,0,0,1-2.208,1.176c-2.568,0-3.984-2.064-3.984-4.488,0-.6.024-.648.648-.648Zm-4.656-.72c-.168,0-.168-.072-.168-.12A2.817,2.817,0,0,1,13.38-9.072c1.392,0,1.848.84,1.848,1.512,0,.312-.072.408-.144.456-.192.144-.72.24-2.5.24ZM27.66-14.04c0-1.056.048-2.256.072-2.976a.264.264,0,0,0-.24-.144A17.029,17.029,0,0,1,24.9-16.152a.365.365,0,0,0,0,.48l.24.144c.72.432.744.576.744,1.992v3.624c0,.192-.024.336-.144.336a4.921,4.921,0,0,0-1.608-.216c-3.264,0-5.808,2.16-5.808,5.52A4.41,4.41,0,0,0,22.764.336a5,5,0,0,0,3.024-1.1h.1a2.673,2.673,0,0,1,.048.744V.384c0,.12.12.192.264.192a18.043,18.043,0,0,1,3.168-.768c.216-.12.192-.72.024-.768a3.923,3.923,0,0,1-1.032.24c-.672,0-.7-.888-.7-2.784ZM25.884-2.376a1.456,1.456,0,0,1-.168.888,2.936,2.936,0,0,1-1.848.672c-2.352,0-3.576-2.064-3.576-4.248,0-2.088,1.128-3.984,3.312-3.984A2.5,2.5,0,0,1,25.62-8.04a1.406,1.406,0,0,1,.264.936ZM37.5-2.088c0,1.248-.024,1.7-.048,2.04a.264.264,0,0,0,.24.144c.048,0,.072,0,.1-.024.12-.168.312-.36.5-.36A5.121,5.121,0,0,1,39.3.024a6.864,6.864,0,0,0,2.04.312,5.256,5.256,0,0,0,5.52-5.424,4.5,4.5,0,0,0-4.584-4.7A5.541,5.541,0,0,0,39.516-9c-.144,0-.24-.1-.24-.5V-14.04c0-1.056.048-2.136.1-2.976a.264.264,0,0,0-.24-.144,22.135,22.135,0,0,1-2.616,1.008.365.365,0,0,0,0,.48l.24.144c.72.432.744.576.744,1.992Zm1.776-4.92c0-.936.048-1.2.288-1.368A3.134,3.134,0,0,1,41.2-8.76c2.376,0,3.648,1.92,3.648,4.392,0,2.064-.888,3.984-3.144,3.984a2.285,2.285,0,0,1-1.824-.792,3.319,3.319,0,0,1-.6-2.088ZM49.188,5.976a1.6,1.6,0,0,0,1.536-1.128c1.176-2.616,3.144-6.792,3.936-8.4L56-6.312c.816-1.7,1.248-2.4,2.04-2.544l.408-.072a.4.4,0,0,0-.048-.6c-.672.048-1.224.072-1.824.072-.624,0-1.344-.024-2.112-.072-.192.072-.216.48-.048.6l.744.12c.432.072.576.24.576.408A11.16,11.16,0,0,1,54.9-6l-.816,1.9A11.7,11.7,0,0,1,53.2-2.328a13.44,13.44,0,0,1-.7-1.7L51.732-6.24a18.15,18.15,0,0,1-.7-2.256c0-.168.192-.24.528-.312l.6-.12c.168-.12.144-.528-.048-.6-.768.048-1.44.072-2.088.072-.792,0-1.512-.024-2.28-.072-.192.072-.216.48-.072.6l.6.12c.84.168,1.008.744,1.416,1.872L51.564-1.8a4.562,4.562,0,0,1,.408,1.656,3.633,3.633,0,0,1-.24,1.032A15.285,15.285,0,0,1,50.34,3.552a.87.87,0,0,1-.792.432h-.456a.894.894,0,0,0-.96.96A.965.965,0,0,0,49.188,5.976Z" transform="translate(57.1 17.16)"/>
</svg>
