<svg xmlns="http://www.w3.org/2000/svg" width="51.249" height="17.544" viewBox="0 0 51.249 17.544">
  <path id="パス_697" data-name="パス 697" d="M-15.852-4.056a5.406,5.406,0,0,0-3-4.608l-1.92-1.2a3.774,3.774,0,0,1-2.04-2.952c0-1.1.5-2.664,2.856-2.664a3.144,3.144,0,0,1,3.264,2.712c.12.144.5.072.6-.072a10.5,10.5,0,0,0-.432-2.928,3.225,3.225,0,0,1-.84-.144,9.277,9.277,0,0,0-2.232-.312c-3.12,0-4.9,1.848-4.9,4.128A5.119,5.119,0,0,0-21.9-7.968l2.28,1.488a3.606,3.606,0,0,1,1.968,3.36,2.726,2.726,0,0,1-3,2.76c-2.784,0-3.768-2.352-4.128-3.576-.1-.144-.456-.1-.576.072A11.084,11.084,0,0,0-24.708-.5a7.491,7.491,0,0,0,3.744.888C-17.844.384-15.852-1.416-15.852-4.056Zm7.92-5.736c-3.984,0-5.808,2.76-5.808,5.352A4.778,4.778,0,0,0-12.348-.888,4.651,4.651,0,0,0-9.06.336,4.373,4.373,0,0,0-5.052-2.112a.379.379,0,0,0-.432-.336,2.928,2.928,0,0,1-2.664,1.44,3.944,3.944,0,0,1-3.864-4.1c0-2.544,1.632-3.864,3.312-3.864A3.274,3.274,0,0,1-6.3-7.7a.419.419,0,0,0,.336.168c.288,0,.528-.456.528-.888a1.36,1.36,0,0,0-.36-.96A5.986,5.986,0,0,0-7.932-9.792Zm5.28,7.1c0,1.728-.024,1.944-.912,2.088l-.456.072a.42.42,0,0,0,.048.6C-3.348.024-2.628,0-1.764,0-.924,0-.228.024.9.072a.42.42,0,0,0,.048-.6L.084-.6c-.912-.072-.96-.36-.96-2.088V-5.952A3.65,3.65,0,0,1-.564-7.8,1.065,1.065,0,0,1,.3-8.28,1.968,1.968,0,0,1,1.356-7.9a.922.922,0,0,0,.528.168,1.065,1.065,0,0,0,1.032-1.1.994.994,0,0,0-1.08-.96A4.85,4.85,0,0,0-.8-8.352q-.072-.036-.072-.216V-9.96c0-.1-.072-.144-.192-.168A18.589,18.589,0,0,1-3.492-8.952a.328.328,0,0,0-.024.432l.216.144c.648.432.648.552.648,1.488Zm11.424-7.1A5.043,5.043,0,0,0,3.66-4.608,4.745,4.745,0,0,0,8.58.336a4.9,4.9,0,0,0,5.064-5.16A4.8,4.8,0,0,0,8.772-9.792ZM11.58-4.44c0,1.848-.648,4.056-2.76,4.056s-3.1-2.352-3.1-4.536c0-2.64,1.176-4.152,2.76-4.152C10.764-9.072,11.58-6.48,11.58-4.44Zm6.792-9.6c0-1.056.048-2.256.072-2.976a.264.264,0,0,0-.24-.144,17.029,17.029,0,0,1-2.592,1.008.365.365,0,0,0,0,.48l.24.144c.72.432.744.576.744,1.992V-2.688C16.6-.96,16.572-.72,15.684-.6l-.552.072a.42.42,0,0,0,.048.6C15.9.024,16.62,0,17.484,0c.84,0,1.536.024,2.328.072a.42.42,0,0,0,.048-.6L19.284-.6c-.864-.12-.912-.36-.912-2.088Zm5.928,0c0-1.056.048-2.256.072-2.976a.264.264,0,0,0-.24-.144,17.029,17.029,0,0,1-2.592,1.008.365.365,0,0,0,0,.48l.24.144c.72.432.744.576.744,1.992V-2.688C22.524-.96,22.5-.72,21.612-.6l-.552.072a.42.42,0,0,0,.048.6c.72-.048,1.44-.072,2.3-.072.84,0,1.536.024,2.328.072a.42.42,0,0,0,.048-.6L25.212-.6c-.864-.12-.912-.36-.912-2.088Z" transform="translate(25.356 17.16)" fill="#fff"/>
</svg>
