<svg xmlns="http://www.w3.org/2000/svg" width="127.591" height="16.969" viewBox="0 0 127.591 16.969">
  <defs>
    <style>
      .cls-1 {
        fill: #fff;
        fill-rule: evenodd;
      }
    </style>
  </defs>
  <path id="nav_text_world_current.svg" class="cls-1" d="M972.718,54.894v2.28H975.7V71.7h2.4V57.174h2.976v-2.28h-8.353Zm10.128,16.8h2.4V63.535a1.6,1.6,0,0,1,.384-1.2,1.248,1.248,0,0,1,.912-0.384,1.055,1.055,0,0,1,.84.36,1.317,1.317,0,0,1,.312.96V71.7h2.4V62.311a2.761,2.761,0,0,0-.7-2.016,2.316,2.316,0,0,0-1.777-.7,2.815,2.815,0,0,0-1.584.456,3.174,3.174,0,0,0-.792.7V54.894h-2.4V71.7Zm12.144-5.064h4.848v-3.12a3.543,3.543,0,0,0-3.7-3.912,3.585,3.585,0,0,0-2.376.816,3.635,3.635,0,0,0-1.176,2.88v4.56a4.151,4.151,0,0,0,.864,2.88,3.753,3.753,0,0,0,2.76,1.152,3.892,3.892,0,0,0,2.232-.672,3.313,3.313,0,0,0,1.344-2.9v-0.1h-2.4a1.661,1.661,0,0,1-.216.816,1.062,1.062,0,0,1-.96.5A1.214,1.214,0,0,1,995.3,69.2a1.362,1.362,0,0,1-.312-1.032V66.631Zm0-1.848V63.319a1.457,1.457,0,0,1,.288-0.96,1.186,1.186,0,0,1,.936-0.408,1.252,1.252,0,0,1,.888.336,1.23,1.23,0,0,1,.336.936v1.56H994.99Zm11.88-9.889,2.64,16.8h2.16l1.92-10.849h0.17l1.92,10.849h2.16l2.64-16.8h-2.55l-1.29,10.465h-0.15l-1.92-10.465h-1.8l-1.92,10.465h-0.09l-1.35-10.465h-2.54Zm15.17,12.961a3.9,3.9,0,0,0,1.17,3.192,3.993,3.993,0,0,0,4.9,0,3.912,3.912,0,0,0,1.18-3.192V63.631a3.912,3.912,0,0,0-1.18-3.192,3.993,3.993,0,0,0-4.9,0,3.9,3.9,0,0,0-1.17,3.192v4.224ZM1026.89,68a1.82,1.82,0,0,1-.36,1.2,1.264,1.264,0,0,1-.87.336,1.22,1.22,0,0,1-.86-0.336,1.766,1.766,0,0,1-.36-1.2V63.487a1.766,1.766,0,0,1,.36-1.2,1.22,1.22,0,0,1,.86-0.336,1.264,1.264,0,0,1,.87.336,1.82,1.82,0,0,1,.36,1.2V68Zm4.89-8.209V71.7h2.4V64.879a2.534,2.534,0,0,1,3.19-2.712V59.6a3.975,3.975,0,0,0-3.14,1.488l-0.05-.024V59.79h-2.4Zm7.13-4.9V68.431a3.372,3.372,0,0,0,.6,2.256,3.026,3.026,0,0,0,2.45,1.008h0.69V69.463h-0.24a1.158,1.158,0,0,1-.77-0.24,1.2,1.2,0,0,1-.33-0.912V54.894h-2.4Zm10.37,16.8h2.4v-16.8h-2.4V60.75a3.144,3.144,0,0,0-.8-0.7,2.787,2.787,0,0,0-1.58-.456,2.319,2.319,0,0,0-1.78.7,2.771,2.771,0,0,0-.69,2.016V68.5a4.149,4.149,0,0,0,.55,2.472,2.375,2.375,0,0,0,1.99.912,2.745,2.745,0,0,0,1.47-.408,3,3,0,0,0,.81-0.84h0.03V71.7Zm0-3.744a1.608,1.608,0,0,1-.39,1.2,1.239,1.239,0,0,1-.91.384,1.061,1.061,0,0,1-.84-0.36,1.384,1.384,0,0,1-.31-1.08V63.271a1.306,1.306,0,0,1,.31-0.96,1.061,1.061,0,0,1,.84-0.36,1.239,1.239,0,0,1,.91.384,1.608,1.608,0,0,1,.39,1.2v4.416Zm10.48-.1a3.912,3.912,0,0,0,1.18,3.192,3.993,3.993,0,0,0,4.9,0,3.9,3.9,0,0,0,1.17-3.192V63.631a3.9,3.9,0,0,0-1.17-3.192,3.993,3.993,0,0,0-4.9,0,3.912,3.912,0,0,0-1.18,3.192v4.224ZM1064.61,68a1.766,1.766,0,0,1-.36,1.2,1.22,1.22,0,0,1-.86.336,1.264,1.264,0,0,1-.87-0.336,1.82,1.82,0,0,1-.36-1.2V63.487a1.82,1.82,0,0,1,.36-1.2,1.264,1.264,0,0,1,.87-0.336,1.22,1.22,0,0,1,.86.336,1.766,1.766,0,0,1,.36,1.2V68Zm5.45,3.7h2.4V61.71h1.92V59.79h-1.94V58.566a1.546,1.546,0,0,1,.36-1.152,1.331,1.331,0,0,1,1.12-.408h0.48V54.894h-0.86a3.8,3.8,0,0,0-2.57.744,3.177,3.177,0,0,0-.91,2.568V59.79h-1.25v1.92h1.25V71.7Zm11.62-16.8V71.7h3.64a4.569,4.569,0,0,0,2.86-.792,4.142,4.142,0,0,0,1.44-3.5V66.127a3.46,3.46,0,0,0-.48-2.112,2.39,2.39,0,0,0-1.15-1.056,3.389,3.389,0,0,0,.91-0.768,3.662,3.662,0,0,0,.72-2.616,4.4,4.4,0,0,0-1.54-3.864,5.614,5.614,0,0,0-3.16-.816h-3.24Zm2.4,2.16h1.12a2.075,2.075,0,0,1,1.56.552,1.743,1.743,0,0,1,.46,1.152V59.79a2.334,2.334,0,0,1-.46,1.44,1.917,1.917,0,0,1-1.53.624h-1.15v-4.8Zm0,6.961h1.22a1.809,1.809,0,0,1,1.27.432,2.174,2.174,0,0,1,.65,1.848v0.792a3.087,3.087,0,0,1-.43,1.7,1.929,1.929,0,0,1-1.63.744h-1.08v-5.52Zm8.18-9.121V71.7h2.4V64.279h3.24V71.7h2.4v-16.8h-2.4v7.225h-3.24V54.894h-2.4Z" transform="translate(-972.719 -54.906)"/>
</svg>
