<svg xmlns="http://www.w3.org/2000/svg" xmlns:xlink="http://www.w3.org/1999/xlink" width="90" height="90" viewBox="0 0 90 90">
  <defs>
    <filter id="長方形_144" x="0" y="0" width="90" height="90" filterUnits="userSpaceOnUse">
      <feOffset dy="3" input="SourceAlpha"/>
      <feGaussianBlur stdDeviation="3" result="blur"/>
      <feFlood flood-opacity="0.161"/>
      <feComposite operator="in" in2="blur"/>
      <feComposite in="SourceGraphic"/>
    </filter>
  </defs>
  <g id="button" transform="translate(-345 -2550)">
    <g transform="matrix(1, 0, 0, 1, 345, 2550)" filter="url(#長方形_144)">
      <rect id="長方形_144-2" data-name="長方形 144" width="72" height="72" rx="36" transform="translate(9 6)" fill="#1da1f2"/>
    </g>
    <g id="グループ_320" data-name="グループ 320" transform="translate(291 2576.752)">
      <path id="パス_323" data-name="パス 323" d="M10.061,26C22.134,26,28.736,16,28.736,7.325c0-.284-.006-.567-.019-.849a13.353,13.353,0,0,0,3.274-3.4,13.106,13.106,0,0,1-3.769,1.033A6.586,6.586,0,0,0,31.108.481a13.154,13.154,0,0,1-4.168,1.593A6.569,6.569,0,0,0,15.756,8.06,18.634,18.634,0,0,1,2.227,1.2,6.569,6.569,0,0,0,4.258,9.965a6.517,6.517,0,0,1-2.973-.821c0,.027,0,.055,0,.084A6.566,6.566,0,0,0,6.55,15.662a6.554,6.554,0,0,1-2.964.112,6.571,6.571,0,0,0,6.132,4.559,13.171,13.171,0,0,1-8.152,2.81A13.346,13.346,0,0,1,0,23.052,18.582,18.582,0,0,0,10.061,26" transform="translate(83 2.247)" fill="#fff"/>
    </g>
  </g>
</svg>
