<svg xmlns="http://www.w3.org/2000/svg" xmlns:xlink="http://www.w3.org/1999/xlink" width="107" height="107" viewBox="0 0 107 107">
  <defs>
    <filter id="長方形_365" x="15.357" y="0.643" width="76" height="35" filterUnits="userSpaceOnUse">
      <feOffset input="SourceAlpha"/>
      <feGaussianBlur stdDeviation="3" result="blur"/>
      <feFlood flood-color="#fff"/>
      <feComposite operator="in" in2="blur"/>
      <feComposite in="SourceGraphic"/>
    </filter>
    <filter id="合体_1" x="0" y="0" width="107" height="107" filterUnits="userSpaceOnUse">
      <feOffset input="SourceAlpha"/>
      <feGaussianBlur stdDeviation="7.5" result="blur-2"/>
      <feFlood flood-color="#fff"/>
      <feComposite operator="in" in2="blur-2"/>
      <feComposite in="SourceGraphic"/>
    </filter>
    <filter id="合体_2" x="14.974" y="0.462" width="76.577" height="35.561" filterUnits="userSpaceOnUse">
      <feOffset input="SourceAlpha"/>
      <feGaussianBlur stdDeviation="3" result="blur-3"/>
      <feFlood flood-color="#fff"/>
      <feComposite operator="in" in2="blur-3"/>
      <feComposite in="SourceGraphic"/>
    </filter>
  </defs>
  <g id="Twitter" transform="translate(-1239.5 -42.357)">
    <g transform="matrix(1, 0, 0, 1, 1239.5, 42.36)" filter="url(#合体_1)">
      <g id="合体_1-2" data-name="合体 1" transform="translate(-30.5 27.5)" fill="#1d9bf0">
        <path d="M 83.99970245361328 55.99970245361328 C 81.50405883789062 55.99970245361328 79.02407073974609 55.69290924072266 76.62862396240234 55.08786010742188 C 74.30297088623047 54.50044250488281 72.04814147949219 53.63010025024414 69.92676544189453 52.50102233886719 L 69.58394622802734 52.31856155395508 L 69.20783233642578 52.41529083251953 L 59.47861480712891 54.91757965087891 L 61.60948181152344 46.62984085083008 L 61.74063110351562 46.1197624206543 L 61.39420318603516 45.72306060791016 C 59.05792236328125 43.0477409362793 57.23298263549805 40.01726150512695 55.97007369995117 36.71580123901367 C 54.66289138793945 33.29859161376953 54.00010299682617 29.69331169128418 54.00010299682617 26.00010108947754 C 54.00010299682617 21.9497013092041 54.79314422607422 18.02097129821777 56.35720443725586 14.32302093505859 C 57.86812210083008 10.75070095062256 60.03133392333984 7.542221069335938 62.78676223754883 4.786681175231934 C 65.54220581054688 2.031131029129028 68.75057983398438 -0.1321890503168106 72.32279205322266 -1.643169045448303 C 76.02065277099609 -3.207309007644653 79.9493408203125 -4.000399112701416 83.99970245361328 -4.000399112701416 C 88.05007171630859 -4.000399112701416 91.97881317138672 -3.207309007644653 95.67676544189453 -1.643169045448303 C 99.24906921386719 -0.1321690380573273 102.4575653076172 2.031141042709351 105.2131118774414 4.786691188812256 C 107.9686660766602 7.542241096496582 110.1319732666016 10.75073051452637 111.6429748535156 14.32304096221924 C 113.2071151733398 18.0209903717041 114.0002059936523 21.94973182678223 114.0002059936523 26.00010108947754 C 114.0002059936523 30.05046081542969 113.2071151733398 33.97915267944336 111.6429748535156 37.67700958251953 C 110.1319961547852 41.24922180175781 107.9686737060547 44.45759963989258 105.2131195068359 47.21303939819336 C 102.4575805664062 49.96847152709961 99.24909973144531 52.13167953491211 95.67678070068359 53.64260101318359 C 91.97883605957031 55.20666122436523 88.05010223388672 55.99970245361328 83.99970245361328 55.99970245361328 Z" stroke="none"/>
        <path d="M 83.99970245361328 54.99970245361328 C 87.91554260253906 54.99970245361328 91.71322631835938 54.23323059082031 95.28723907470703 52.72159194946289 C 98.74036407470703 51.26108932495117 101.8420104980469 49.16983032226562 104.5060348510742 46.50592041015625 C 107.1700592041016 43.84199142456055 109.2614135742188 40.74045181274414 110.7219696044922 37.28745269775391 C 112.2336959838867 33.7135124206543 113.0002059936523 29.91590118408203 113.0002059936523 26.00010108947754 C 113.0002059936523 22.08429145812988 112.2336959838867 18.28662109375 110.7219696044922 14.71260070800781 C 109.2613906860352 11.25949096679688 107.1700439453125 8.157840728759766 104.5060043334961 5.493801116943359 C 101.8419647216797 2.829761028289795 98.74031066894531 0.7384109497070312 95.28720092773438 -0.722169041633606 C 91.71318054199219 -2.233889102935791 87.91551208496094 -3.000399112701416 83.99970245361328 -3.000399112701416 C 80.08390045166016 -3.000399112701416 76.28629302978516 -2.233889102935791 72.71234893798828 -0.722169041633606 C 69.25935363769531 0.7383909821510315 66.15781402587891 2.82974100112915 63.49388122558594 5.493771076202393 C 60.82997131347656 8.157791137695312 58.73871231079102 11.25944137573242 57.27821350097656 14.71256065368652 C 55.76657104492188 18.28658103942871 55.00010299682617 22.08426094055176 55.00010299682617 26.00010108947754 C 55.00010299682617 29.57072067260742 55.64069366455078 33.05580139160156 56.90407180786133 36.3585205078125 C 58.12475204467773 39.54960250854492 59.88887405395508 42.4789924621582 62.14742279052734 45.06529235839844 L 62.84028244018555 45.85869216918945 L 60.86852645874023 53.52756118774414 L 69.71096038818359 51.25334167480469 L 70.39659118652344 51.61825942993164 C 72.44684600830078 52.70948028564453 74.62599182128906 53.55062103271484 76.87351226806641 54.11831283569336 C 79.18897247314453 54.70315933227539 81.58657073974609 54.99970245361328 83.99970245361328 54.99970245361328 M 83.99970245361328 56.99970245361328 C 78.7435302734375 56.99970245361328 73.794189453125 55.69223022460938 69.45692443847656 53.38376998901367 L 58.08870315551758 56.30760192871094 L 60.64098358154297 46.38083267211914 C 55.88241195678711 40.93170928955078 53.00010299682617 33.80285263061523 53.00010299682617 26.00010108947754 C 53.00010299682617 8.879401206970215 66.87900543212891 -5.000399112701416 83.99970245361328 -5.000399112701416 C 101.1203994750977 -5.000399112701416 115.0002059936523 8.879401206970215 115.0002059936523 26.00010108947754 C 115.0002059936523 43.12080001831055 101.1203994750977 56.99970245361328 83.99970245361328 56.99970245361328 Z" stroke="none" fill="#fff"/>
      </g>
    </g>
    <g id="グループ_495" data-name="グループ 495" transform="translate(1277.5 78.143)">
      <rect id="長方形_45" data-name="長方形 45" width="35.429" height="35.429" transform="translate(0)" fill="none"/>
      <path id="パス_5" data-name="パス 5" d="M83.569,120.554a15.8,15.8,0,0,0,15.9-15.9c0-.242,0-.483-.016-.723a11.374,11.374,0,0,0,2.789-2.894,11.158,11.158,0,0,1-3.21.88,5.609,5.609,0,0,0,2.458-3.092,11.2,11.2,0,0,1-3.549,1.357,5.595,5.595,0,0,0-9.526,5.1A15.87,15.87,0,0,1,76.9,99.435a5.594,5.594,0,0,0,1.73,7.462,5.548,5.548,0,0,1-2.532-.7c0,.023,0,.047,0,.071a5.592,5.592,0,0,0,4.485,5.48,5.581,5.581,0,0,1-2.524.1,5.6,5.6,0,0,0,5.222,3.883,11.217,11.217,0,0,1-6.943,2.393A11.367,11.367,0,0,1,75,118.043a15.825,15.825,0,0,0,8.569,2.511" transform="translate(-72.343 -91.326)" fill="#fff"/>
    </g>
    <g transform="matrix(1, 0, 0, 1, 1239.5, 42.36)" filter="url(#合体_2)">
      <g id="合体_2-2" data-name="合体 2" transform="translate(-27.64 15.64)" fill="#1d9bf0" stroke-miterlimit="10">
        <path d="M 56.95674133300781 10.68926048278809 L 56.68648910522461 10.26981067657471 L 52.57978820800781 3.896010160446167 L 52.30858993530273 3.47510027885437 L 52.72988891601562 3.204500198364258 L 57.30638885498047 0.2651002407073975 L 57.72629165649414 -0.004589758347719908 L 57.99678039550781 0.4147902429103851 L 58.79148101806641 1.64689028263092 L 59.06301879882812 2.067880153656006 L 58.64149856567383 2.338600158691406 L 56.12449645996094 3.955187797546387 L 56.34754943847656 4.301052093505859 L 58.65105056762695 2.821970224380493 L 59.07128143310547 2.552140235900879 L 59.34160995483398 2.972040176391602 L 60.13541030883789 4.205040454864502 L 60.40641021728516 4.625990390777588 L 59.9851188659668 4.896460056304932 L 57.68384170532227 6.373843193054199 L 59.16616058349609 8.677220344543457 L 59.43714904785156 9.098310470581055 L 59.01565170288086 9.368670463562012 L 57.37675094604492 10.41987037658691 L 56.95674133300781 10.68926048278809 Z M 105.7410125732422 9.701600074768066 C 105.0311431884766 9.701600074768066 104.254280090332 9.439630508422852 103.431999206543 8.92296028137207 C 102.9689102172852 8.630390167236328 102.5705108642578 8.317770004272461 102.2468185424805 7.993130207061768 C 101.9143829345703 7.656680107116699 101.6725769042969 7.369550228118896 101.5059967041016 7.11374044418335 L 101.3310165405273 6.845010280609131 L 101.5022583007812 6.573890209197998 L 102.3077621459961 5.298590183258057 L 102.5762176513672 4.873550415039062 L 102.9998016357422 5.144320011138916 L 103.1419982910156 5.235220432281494 L 103.239990234375 5.297858715057373 C 103.1994857788086 5.181340217590332 103.1698379516602 5.064628124237061 103.1511764526367 4.947940349578857 C 103.0725784301758 4.450250148773193 103.1826324462891 3.961840152740479 103.4781188964844 3.495350122451782 C 103.8611297607422 2.886740207672119 104.464469909668 2.557890176773071 105.270622253418 2.519180297851562 C 105.3164520263672 2.516970157623291 105.3632125854492 2.515850305557251 105.4095611572266 2.515850305557251 C 106.1095428466797 2.515850305557251 106.8678970336914 2.770080327987671 107.6635665893555 3.271490335464478 C 108.0531768798828 3.516680240631104 108.4087982177734 3.797040224075317 108.7202987670898 4.104610443115234 C 109.0341110229492 4.415430068969727 109.2610931396484 4.677340030670166 109.4147872924805 4.905850410461426 L 109.5967712402344 5.176420211791992 L 109.4225463867188 5.45205020904541 L 108.6494522094727 6.675150394439697 L 108.381706237793 7.098730087280273 L 107.9587173461914 6.830060005187988 L 107.843017578125 6.756567478179932 C 107.9265975952148 6.938282012939453 107.9819946289062 7.121088981628418 108.0087432861328 7.304090023040771 C 108.0774917602539 7.774490356445312 107.9700012207031 8.23838996887207 107.6892395019531 8.682909965515137 C 107.2857666015625 9.319049835205078 106.6499862670898 9.670300483703613 105.8501205444336 9.699470520019531 L 105.8483734130859 9.699530601501465 L 105.8440628051758 9.699660301208496 C 105.8094100952148 9.700679779052734 105.7757034301758 9.701600074768066 105.7410125732422 9.701600074768066 Z M 103.5063323974609 5.837658405303955 C 103.5479583740234 5.915931701660156 103.6174392700195 6.03042459487915 103.7350921630859 6.192100048065186 C 103.8422622680664 6.341170310974121 103.9733123779297 6.49392032623291 104.1262664794922 6.648460388183594 C 104.2704010009766 6.795580387115479 104.4452896118164 6.933750152587891 104.6478881835938 7.06095027923584 C 104.6679611206055 7.073638916015625 104.6873931884766 7.085681438446045 104.7062225341797 7.097131729125977 C 104.6331634521484 7.029118061065674 104.5410537719727 6.94743537902832 104.4279937744141 6.85036039352417 C 104.239990234375 6.687060356140137 104.0697708129883 6.523630142211914 103.9198684692383 6.362720012664795 C 103.7573623657227 6.189435005187988 103.6193542480469 6.014142036437988 103.5063323974609 5.837658405303955 Z M 106.3442611694336 5.073616027832031 C 106.4831008911133 5.203361511230469 106.6293640136719 5.337055206298828 106.779167175293 5.471140384674072 C 106.9485015869141 5.620080471038818 107.1200790405273 5.784570217132568 107.2859268188477 5.957170009613037 L 107.2880096435547 5.959330081939697 L 107.2900619506836 5.961510181427002 C 107.3276062011719 6.001533985137939 107.3637619018555 6.041696548461914 107.3984832763672 6.081944465637207 C 107.3283157348633 5.97364330291748 107.2495574951172 5.865889072418213 107.1625823974609 5.759280204772949 C 106.9642562866211 5.516370296478271 106.7356109619141 5.313120365142822 106.4831008911133 5.155300140380859 C 106.4356079101562 5.125236988067627 106.3893203735352 5.098007678985596 106.3442611694336 5.073616027832031 Z M 101.0463409423828 7.213720321655273 L 100.5869979858398 7.017040252685547 L 98.89499664306641 6.292540073394775 L 98.43521881103516 6.095660209655762 L 98.51509094238281 5.909282684326172 C 98.43088531494141 5.91763162612915 98.34963989257812 5.923409938812256 98.27153778076172 5.926590442657471 C 98.24104309082031 5.927820205688477 98.21047973632812 5.928440093994141 98.17974090576172 5.928440093994141 C 97.82108306884766 5.928440093994141 97.44032287597656 5.84319019317627 97.04804229736328 5.675070285797119 C 96.33722686767578 5.370280265808105 95.86631011962891 4.911590099334717 95.64827728271484 4.311700344085693 C 95.43319702148438 3.721050262451172 95.49256896972656 3.031700134277344 95.82485961914062 2.263090133666992 L 97.28936004638672 -1.15710973739624 L 97.48618316650391 -1.61674976348877 L 97.94580841064453 -1.419939756393433 L 99.63780975341797 -0.6954397559165955 L 100.0975799560547 -0.4985697567462921 L 99.90058135986328 -0.03885975852608681 L 98.78368377685547 2.567540168762207 C 98.68119049072266 2.804800271987915 98.60044097900391 3.015670299530029 98.5430908203125 3.19562029838562 C 98.49269866943359 3.353780269622803 98.49178314208984 3.44225025177002 98.49571990966797 3.480910301208496 L 98.49653625488281 3.488880157470703 L 98.49709320068359 3.496870279312134 C 98.49939727783203 3.530080318450928 98.506591796875 3.541030168533325 98.52130889892578 3.556550264358521 C 98.54412078857422 3.580390214920044 98.62248229980469 3.648760318756104 98.82476806640625 3.734730243682861 L 98.82772827148438 3.735990285873413 L 98.83067321777344 3.737280130386353 C 98.92041778564453 3.776800155639648 99.04370880126953 3.805710315704346 99.19711303710938 3.823230266571045 C 99.25715637207031 3.830020189285278 99.31838989257812 3.833490133285522 99.37857818603516 3.833490133285522 C 99.38709259033203 3.833490133285522 99.39560699462891 3.833423376083374 99.40412139892578 3.833290576934814 L 100.8868789672852 0.3805002272129059 L 101.0838775634766 -0.07823976129293442 L 101.5429229736328 0.1180802434682846 L 103.2349090576172 0.8416802287101746 L 103.6951293945312 1.038490295410156 L 103.4978103637695 1.498500227928162 L 101.2433166503906 6.754500389099121 L 101.0463409423828 7.213720321655273 Z M 63.61470031738281 6.549800395965576 C 63.22782135009766 6.549800395965576 62.85198974609375 6.481200218200684 62.49765014648438 6.34591007232666 C 61.65166091918945 6.019150257110596 61.00495147705078 5.3543701171875 60.57368087768555 4.369330406188965 C 60.14154815673828 3.377500295639038 60.09531021118164 2.448120355606079 60.43589019775391 1.606200218200684 C 60.77682876586914 0.7680802345275879 61.46852874755859 0.1181902438402176 62.49214172363281 -0.3263197541236877 C 63.09148025512695 -0.5871397852897644 63.66772079467773 -0.7194597721099854 64.20449829101562 -0.7194597721099854 C 64.59561157226562 -0.7194597721099854 64.97265625 -0.6494897603988647 65.32517242431641 -0.5114997625350952 C 66.16886138916016 -0.1801597625017166 66.81359100341797 0.4860502481460571 67.24195098876953 1.468820214271545 C 67.67169952392578 2.454010248184204 67.71842193603516 3.37975025177002 67.38076019287109 4.220200061798096 C 67.04408264160156 5.058200359344482 66.35137939453125 5.710500240325928 65.32189178466797 6.158990383148193 C 64.72611236572266 6.418330192565918 64.15177154541016 6.549800395965576 63.61470031738281 6.549800395965576 Z M 63.86828994750977 4.091127395629883 C 63.94440460205078 4.128069400787354 64.01766967773438 4.146030426025391 64.092041015625 4.146040439605713 L 64.10224914550781 4.145920276641846 C 64.19560241699219 4.143332481384277 64.30478668212891 4.116180896759033 64.42415618896484 4.065279006958008 C 64.52439117431641 4.020511627197266 64.60850524902344 3.965281963348389 64.68111419677734 3.896560192108154 C 64.731201171875 3.847005367279053 64.76458740234375 3.787594318389893 64.78607177734375 3.709840297698975 C 64.81815338134766 3.594690322875977 64.82505035400391 3.462100267410278 64.80686187744141 3.314740180969238 C 64.79232025146484 3.204130172729492 64.74149322509766 2.993170261383057 64.58473968505859 2.638350248336792 C 64.46926116943359 2.370740175247192 64.35060119628906 2.161200284957886 64.23030853271484 2.011580228805542 L 64.22863006591797 2.009480237960815 L 64.22695922851562 2.007370233535767 C 64.12654113769531 1.879660248756409 64.02841186523438 1.78993022441864 63.93526840209961 1.740660190582275 C 63.86383819580078 1.702470183372498 63.79727935791016 1.684400200843811 63.72990036010742 1.684400200843811 L 63.72111129760742 1.684432506561279 L 63.71590042114258 1.684690237045288 C 63.61626434326172 1.689618945121765 63.51062393188477 1.715538024902344 63.40187454223633 1.761738896369934 C 63.29293441772461 1.810061454772949 63.20348739624023 1.86496889591217 63.13592910766602 1.925021886825562 C 63.09464263916016 1.964232206344604 63.05638122558594 2.035432815551758 63.02801132202148 2.125940322875977 C 63.00880813598633 2.188740253448486 62.99057006835938 2.310320138931274 63.0184211730957 2.514540195465088 C 63.04494857788086 2.709140300750732 63.11888122558594 2.947090148925781 63.23814010620117 3.221770286560059 C 63.34664916992188 3.468440294265747 63.46171188354492 3.671200275421143 63.57918167114258 3.822230339050293 C 63.67797470092773 3.950476408004761 63.77475357055664 4.040323257446289 63.86828994750977 4.091127395629883 Z M 68.69232177734375 4.652430057525635 L 68.55124664306641 4.173200130462646 L 66.31385040283203 -3.427299737930298 L 66.17253112792969 -3.90736985206604 L 66.65271759033203 -4.048269748687744 L 68.41941833496094 -4.566669940948486 L 68.89878082275391 -4.707329750061035 L 69.03984832763672 -4.228099822998047 L 71.27725219726562 3.372400283813477 L 71.41857147216797 3.85247015953064 L 70.93837738037109 3.993370294570923 L 69.17167663574219 4.511770248413086 L 68.69232177734375 4.652430057525635 Z M 71.94979095458984 3.720850229263306 L 71.84873199462891 3.231290340423584 L 70.24672698974609 -4.528509616851807 L 70.14556121826172 -5.018539905548096 L 70.63565826416016 -5.119349956512451 L 72.43836212158203 -5.490149974822998 L 72.92774200439453 -5.59080982208252 L 73.02877044677734 -5.101499557495117 L 74.63076782226562 2.657400131225586 L 74.73190307617188 3.147200345993042 L 74.24207305908203 3.248200178146362 L 72.43936920166016 3.619900226593018 L 71.94979095458984 3.720850229263306 Z M 90.08022308349609 3.280060291290283 L 89.71479034423828 3.237080335617065 L 87.77889251708984 3.009380340576172 L 87.41008758544922 2.966000318527222 L 87.34503173828125 2.600390195846558 L 86.93062591552734 0.2714824974536896 L 85.99310302734375 2.438620328903198 L 85.84523773193359 2.780410289764404 L 85.47541809082031 2.736630201339722 L 83.52152252197266 2.505330324172974 L 83.15476989746094 2.461920261383057 L 83.08843231201172 2.098610162734985 L 82.01383209228516 -3.786489725112915 L 81.89219665527344 -4.452589988708496 L 82.56461334228516 -4.372819900512695 L 84.47621917724609 -4.14601993560791 L 84.86399078369141 -4.100009918212891 L 84.91330718994141 -3.712649822235107 L 85.20043182373047 -1.457512855529785 L 86.15106964111328 -3.594429731369019 L 86.30077362060547 -3.930949687957764 L 86.66654968261719 -3.887749671936035 L 88.28205108642578 -3.69694972038269 L 88.65354156494141 -3.653069734573364 L 88.71630859375 -3.284299850463867 L 89.09489440917969 -1.060248255729675 L 89.86933135986328 -3.125739812850952 L 90.00695037841797 -3.492779731750488 L 90.39623260498047 -3.446739673614502 L 92.26822662353516 -3.225339651107788 L 92.94252014160156 -3.145589828491211 L 92.66623687744141 -2.525349855422974 L 90.22994232177734 2.943950176239014 L 90.08022308349609 3.280060291290283 Z M 77.92291259765625 2.914700269699097 C 76.99871063232422 2.914700269699097 76.22750091552734 2.659850358963013 75.63070678710938 2.157240152359009 C 74.93710327148438 1.577470183372498 74.54029846191406 0.7393002510070801 74.4527587890625 -0.3328097462654114 C 74.36518096923828 -1.413619756698608 74.62355804443359 -2.308199644088745 75.220703125 -2.991979837417603 C 75.81239318847656 -3.673029661178589 76.67740631103516 -4.064369678497314 77.79090118408203 -4.154179573059082 C 77.94275665283203 -4.166519641876221 78.09300994873047 -4.172779560089111 78.23719787597656 -4.172779560089111 C 79.16220855712891 -4.172779560089111 79.93389892578125 -3.916849851608276 80.53083801269531 -3.412099838256836 C 81.22113800048828 -2.827519655227661 81.61530303955078 -1.988829731941223 81.70263671875 -0.9190897345542908 C 81.78807067871094 0.1523802429437637 81.53163909912109 1.043150186538696 80.94053649902344 1.729410290718079 C 80.35267639160156 2.413150310516357 79.48531341552734 2.806050300598145 78.36282348632812 2.896870136260986 C 78.212646484375 2.908730268478394 78.06497192382812 2.914700269699097 77.92291259765625 2.914700269699097 Z M 77.65991973876953 0.4709689617156982 C 77.72031402587891 0.5321215987205505 77.78592681884766 0.5731738209724426 77.86038208007812 0.5964102149009705 C 77.92913055419922 0.6178702712059021 78.00688934326172 0.6287502646446228 78.09149169921875 0.6287602186203003 C 78.12286376953125 0.6287602186203003 78.15566253662109 0.6272502541542053 78.18898010253906 0.6242802143096924 L 78.19222259521484 0.6239902377128601 L 78.19547271728516 0.6237402558326721 C 78.30119323730469 0.6157002449035645 78.40170288085938 0.5900402665138245 78.49420166015625 0.5474802255630493 C 78.55448913574219 0.5191802382469177 78.60521697998047 0.4746802449226379 78.64594268798828 0.4130002558231354 L 78.64984893798828 0.4070902466773987 L 78.65392303466797 0.401290237903595 C 78.72074890136719 0.306060254573822 78.76927185058594 0.1854902356863022 78.79814910888672 0.04292024299502373 C 78.82122039794922 -0.06901975721120834 78.84175109863281 -0.2829697728157043 78.81047821044922 -0.6758197546005249 C 78.78640747070312 -0.9645597338676453 78.74185943603516 -1.203129768371582 78.67822265625 -1.383069753646851 C 78.62286376953125 -1.536669731140137 78.55821990966797 -1.654189705848694 78.48708343505859 -1.729619741439819 L 78.48468780517578 -1.732149720191956 L 78.48233032226562 -1.734719753265381 C 78.42521667480469 -1.796979784965515 78.36659240722656 -1.835179805755615 78.29781341552734 -1.854949712753296 C 78.22454071044922 -1.876199722290039 78.14665222167969 -1.886799812316895 78.06510162353516 -1.886799812316895 C 78.03550720214844 -1.886799812316895 78.00612640380859 -1.885579705238342 77.97528076171875 -1.883059740066528 C 77.85494232177734 -1.873179793357849 77.752197265625 -1.850009799003601 77.67012786865234 -1.814209699630737 C 77.62025451660156 -1.792150259017944 77.56211853027344 -1.739365816116333 77.50394439697266 -1.662359833717346 C 77.46367645263672 -1.604974031448364 77.40813446044922 -1.494849443435669 77.36710357666016 -1.292799711227417 C 77.32936859130859 -1.107019782066345 77.32251739501953 -0.8592697381973267 77.34671020507812 -0.5564197301864624 C 77.36727142333984 -0.2929997444152832 77.41023254394531 -0.06445975601673126 77.4744873046875 0.1237702444195747 C 77.52436828613281 0.2733691036701202 77.58804321289062 0.3921476304531097 77.65991973876953 0.4709689617156982 Z" stroke="none"/>
        <path d="M 57.1068000793457 9.999000549316406 L 58.74570083618164 8.947800636291504 L 56.99250030517578 6.22350025177002 L 59.71500015258789 4.475700378417969 L 58.92119979858398 3.242700338363647 L 56.19779968261719 4.991400241851807 L 55.43280029296875 3.805200338363647 L 58.37129974365234 1.917900204658508 L 57.57659912109375 0.6858002543449402 L 53.00009918212891 3.625200271606445 L 57.1068000793457 9.999000549316406 M 105.7410125732422 9.201600074768066 C 105.771598815918 9.201600074768066 105.8013000488281 9.200699806213379 105.831901550293 9.199800491333008 C 106.4736022949219 9.176400184631348 106.9496994018555 8.915400505065918 107.2665023803711 8.415900230407715 C 107.4825134277344 8.07390022277832 107.565299987793 7.727400302886963 107.5139999389648 7.376400470733643 C 107.4626998901367 7.025400161743164 107.2665023803711 6.667200088500977 106.9253997802734 6.303600311279297 C 106.7705993652344 6.142500400543213 106.6104125976562 5.988600254058838 106.4457015991211 5.843700408935547 C 106.2828063964844 5.697900295257568 106.1324996948242 5.560200214385986 105.9930114746094 5.429700374603271 C 105.7437133789062 5.187600135803223 105.6006011962891 5.012100219726562 105.5601119995117 4.90410041809082 C 105.5195999145508 4.794300079345703 105.5376129150391 4.681800365447998 105.6105117797852 4.567500114440918 C 105.6897125244141 4.440601348876953 105.8372955322266 4.398300170898438 106.051513671875 4.437000274658203 C 106.2648010253906 4.475700378417969 106.4979019165039 4.572900295257568 106.7481002807617 4.731300354003906 C 107.0504989624023 4.920300006866455 107.3178024291992 5.15880012512207 107.5500030517578 5.44320011138916 C 107.7813034057617 5.726700305938721 107.9640121459961 6.020100116729736 108.0936126708984 6.323400020599365 L 108.2267990112305 6.408000469207764 L 108.9999008178711 5.184900283813477 C 108.8649063110352 4.984200477600098 108.6543121337891 4.743000030517578 108.3690032958984 4.460400104522705 C 108.0837020874023 4.17870044708252 107.7588119506836 3.922200202941895 107.3970031738281 3.694500207901001 C 106.6329116821289 3.213000774383545 105.930778503418 2.987998723983765 105.2946014404297 3.018600225448608 C 104.6574020385742 3.049200296401978 104.1939010620117 3.296700239181519 103.9005126953125 3.762900352478027 C 103.6719131469727 4.123800277709961 103.5855026245117 4.492800235748291 103.6449127197266 4.869000434875488 C 103.7052001953125 5.246100425720215 103.9194030761719 5.631300449371338 104.2857131958008 6.021900177001953 C 104.4207000732422 6.166800022125244 104.5755004882812 6.316200256347656 104.7537002563477 6.471000194549561 C 104.9319000244141 6.624000072479248 105.071403503418 6.750000476837158 105.1686019897461 6.849000453948975 C 105.3810119628906 7.048800468444824 105.5115127563477 7.203600406646729 105.5646133422852 7.311600208282471 C 105.6177062988281 7.418700218200684 105.6078033447266 7.532100200653076 105.5322036743164 7.648200035095215 C 105.4485092163086 7.780496120452881 105.3134841918945 7.834502696990967 105.1227035522461 7.809300422668457 C 104.9337005615234 7.785000324249268 104.685302734375 7.676100254058838 104.3820114135742 7.484400272369385 C 104.1498031616211 7.338600158691406 103.9446029663086 7.177500247955322 103.7709121704102 7.000200271606445 C 103.5963134765625 6.823800086975098 103.4505004882812 6.6528000831604 103.3308029174805 6.486300468444824 C 103.1912994384766 6.294600009918213 103.0914001464844 6.1326003074646 103.0302124023438 6.003900051116943 C 102.9672012329102 5.874300003051758 102.915901184082 5.759100437164307 102.8727035522461 5.656500339508057 L 102.7304992675781 5.565600395202637 L 101.9250030517578 6.840900421142578 C 102.0762023925781 7.073100090026855 102.3030014038086 7.338600158691406 102.6008987426758 7.640100479125977 C 102.9015121459961 7.941600322723389 103.2677993774414 8.227800369262695 103.6980133056641 8.499600410461426 C 104.44140625 8.966700553894043 105.1227035522461 9.201600074768066 105.7410125732422 9.201600074768066 M 100.7838134765625 6.557400226593018 L 103.0382995605469 1.301400184631348 L 101.3463134765625 0.5778002142906189 L 99.74700164794922 4.302000045776367 C 99.53818511962891 4.337100982666016 99.33927917480469 4.342500686645508 99.14040374755859 4.320000171661377 C 98.94331359863281 4.297500133514404 98.77230072021484 4.257900238037109 98.62920379638672 4.194900035858154 C 98.41320037841797 4.103100299835205 98.25749969482422 4.004100322723389 98.15850067138672 3.90060019493103 C 98.05950164794922 3.796200275421143 98.00820159912109 3.673800230026245 97.99829864501953 3.5316002368927 C 97.98390197753906 3.390300273895264 98.00820159912109 3.227400302886963 98.06670379638672 3.043800354003906 C 98.12521362304688 2.860200166702271 98.20980072021484 2.635200262069702 98.3240966796875 2.37060022354126 L 99.44100189208984 -0.2357997596263885 L 97.74900054931641 -0.9602997303009033 L 96.2838134765625 2.46150016784668 C 96.00211334228516 3.113100290298462 95.94811248779297 3.673800230026245 96.11820220947266 4.140900135040283 C 96.28829956054688 4.60890007019043 96.66361236572266 4.966200351715088 97.24500274658203 5.215500354766846 C 97.60410308837891 5.369400501251221 97.93976593017578 5.439603805541992 98.25121307373047 5.427000045776367 C 98.56079864501953 5.414400100708008 98.92530059814453 5.355900287628174 99.34020233154297 5.253300189971924 L 99.09181213378906 5.832900047302246 L 100.7838134765625 6.557400226593018 M 63.61470031738281 6.049800395965576 C 64.08360290527344 6.049800395965576 64.58670043945312 5.933700084686279 65.12220001220703 5.700600147247314 C 66.03119659423828 5.304600238800049 66.62969970703125 4.748400211334229 66.91680145263672 4.03380012512207 C 67.20390319824219 3.319200277328491 67.15891265869141 2.529000282287598 66.78359985351562 1.66860020160675 C 66.40740203857422 0.8055002689361572 65.86019897460938 0.2358002364635468 65.14289855957031 -0.04589975997805595 C 64.42559814453125 -0.3266991078853607 63.60750198364258 -0.2664003968238831 62.69129943847656 0.1323002427816391 C 61.78770065307617 0.5247002243995667 61.19010162353516 1.079100251197815 60.89939880371094 1.793700218200684 C 60.60960006713867 2.510100126266479 60.65370178222656 3.301200151443481 61.03170013427734 4.168800354003906 C 61.40879821777344 5.030100345611572 61.95600128173828 5.600700378417969 62.67599868774414 5.878800392150879 C 62.97299957275391 5.992200374603271 63.28530120849609 6.049800395965576 63.61470031738281 6.049800395965576 M 63.72990036010742 1.184400200843811 C 63.87929916381836 1.184400200843811 64.0260009765625 1.222200274467468 64.16909790039062 1.298700213432312 C 64.32389831542969 1.380600214004517 64.47421264648438 1.512900233268738 64.62000274658203 1.698300242424011 C 64.76760101318359 1.881900191307068 64.90891265869141 2.127600193023682 65.04209899902344 2.436300277709961 C 65.18881225585938 2.768400192260742 65.27519989013672 3.041100263595581 65.3031005859375 3.25350022315979 C 65.32920074462891 3.465000152587891 65.31841278076172 3.662100315093994 65.26801300048828 3.843000173568726 C 65.22299957275391 4.005900382995605 65.143798828125 4.143600463867188 65.02860260009766 4.256100177764893 C 64.91159820556641 4.367700099945068 64.77660369873047 4.455900192260742 64.62449645996094 4.52340030670166 C 64.44629669189453 4.599900245666504 64.27619934082031 4.641300201416016 64.11329650878906 4.645800113677979 C 63.95044326782227 4.649405956268311 63.79199600219727 4.611599445343018 63.63990020751953 4.53600025177002 C 63.48149871826172 4.452300071716309 63.32939910888672 4.317300319671631 63.18450164794922 4.129200458526611 C 63.03960037231445 3.94290018081665 62.90459823608398 3.705300331115723 62.77949905395508 3.420900344848633 C 62.63999938964844 3.099600315093994 62.55540084838867 2.819700241088867 62.52299880981445 2.58210015296936 C 62.4906005859375 2.344500303268433 62.5004997253418 2.141100168228149 62.55089950561523 1.976400256156921 C 62.60760116577148 1.7955002784729 62.69129943847656 1.655100226402283 62.79840087890625 1.556100249290466 C 62.90639877319336 1.458900213241577 63.04140090942383 1.374300241470337 63.20249938964844 1.303200244903564 C 63.36449813842773 1.233900189399719 63.52740097045898 1.193400263786316 63.69120025634766 1.185300230979919 C 63.70380020141602 1.184400200843811 63.71730041503906 1.184400200843811 63.72990036010742 1.184400200843811 M 69.03089904785156 4.032000064849854 L 70.79759979248047 3.51360034942627 L 68.56020355224609 -4.086899757385254 L 66.79350280761719 -3.568499803543091 L 69.03089904785156 4.032000064849854 M 72.33840179443359 3.130200147628784 L 74.14109802246094 2.758500337600708 L 72.53910064697266 -5.000399589538574 L 70.73639678955078 -4.629599571228027 L 72.33840179443359 3.130200147628784 M 89.77320098876953 2.740500211715698 L 92.20950317382812 -2.728799819946289 L 90.33750152587891 -2.950199842453003 L 88.91280364990234 0.8496002554893494 L 88.22339630126953 -3.200399875640869 L 86.60790252685547 -3.391199827194214 L 84.93031311035156 0.3798002302646637 L 84.41731262207031 -3.649499654769897 L 82.50569915771484 -3.876299858093262 L 83.58029937744141 2.008800268173218 L 85.53420257568359 2.240100145339966 L 87.13169860839844 -1.452599763870239 L 87.83730316162109 2.512800216674805 L 89.77320098876953 2.740500211715698 M 77.92291259765625 2.414700269699097 C 78.05251312255859 2.414700269699097 78.18569946289062 2.409300327301025 78.32250213623047 2.398500204086304 C 79.3125 2.318400144577026 80.05950164794922 1.987200260162354 80.56169891357422 1.403100252151489 C 81.06479644775391 0.819000244140625 81.27899932861328 0.05850024148821831 81.20429992675781 -0.8783997297286987 C 81.12779998779297 -1.81529974937439 80.79570007324219 -2.532599687576294 80.20800018310547 -3.030299663543701 C 79.61940765380859 -3.527997255325317 78.82835388183594 -3.736803293228149 77.83110046386719 -3.655799865722656 C 76.84921264648438 -3.576599836349487 76.10399627685547 -3.246299743652344 75.59731292724609 -2.663099765777588 C 75.08879852294922 -2.08079981803894 74.87460327148438 -1.317599773406982 74.95110321044922 -0.3734997510910034 C 75.02760314941406 0.5634002685546875 75.36060333251953 1.279800295829773 75.95279693603516 1.774800300598145 C 76.46040344238281 2.202300310134888 77.11740112304688 2.414700269699097 77.92291259765625 2.414700269699097 M 78.06510162353516 -2.386799812316895 C 78.19380187988281 -2.386799812316895 78.31800079345703 -2.369699716567993 78.4359130859375 -2.33549976348877 C 78.59249877929688 -2.290499687194824 78.73110198974609 -2.203199863433838 78.85079956054688 -2.072699785232544 C 78.97049713134766 -1.945799708366394 79.06950378417969 -1.772099733352661 79.14959716796875 -1.549799799919128 C 79.22791290283203 -1.328399777412415 79.28099822998047 -1.050299763679504 79.30889892578125 -0.7154997587203979 C 79.33769989013672 -0.3536997437477112 79.33141326904297 -0.06749975681304932 79.28820037841797 0.1422002464532852 C 79.24590301513672 0.3510002493858337 79.17120361328125 0.5346002578735352 79.06320190429688 0.6885002255439758 C 78.97049713134766 0.8289002180099487 78.8489990234375 0.933300256729126 78.70320129394531 1.001700282096863 C 78.55650329589844 1.069200277328491 78.39900207519531 1.109700202941895 78.2333984375 1.122300267219543 C 78.04168701171875 1.139400839805603 77.86709594726562 1.122299551963806 77.71140289306641 1.073700189590454 C 77.55570220947266 1.025100231170654 77.41709899902344 0.938700258731842 77.29740142822266 0.815400242805481 C 77.17680358886719 0.6858002543449402 77.07599639892578 0.5094002485275269 77.00129699707031 0.2853002548217773 C 76.92479705810547 0.06120024248957634 76.87259674072266 -0.2051997631788254 76.84829711914062 -0.5165997743606567 C 76.82039642333984 -0.8657997846603394 76.82939910888672 -1.157399773597717 76.87709808349609 -1.392299771308899 C 76.92479705810547 -1.627199769020081 76.99949645996094 -1.817099809646606 77.10030364990234 -1.957499742507935 C 77.214599609375 -2.110499858856201 77.33789825439453 -2.21399974822998 77.47019958496094 -2.272499799728394 C 77.60430145263672 -2.330999851226807 77.75910186767578 -2.366999864578247 77.93460083007812 -2.381399869918823 C 77.97869873046875 -2.384999752044678 78.02189636230469 -2.386799812316895 78.06510162353516 -2.386799812316895 M 56.80669021606445 11.37952041625977 L 51.61708068847656 3.324990272521973 L 57.87596893310547 -0.6949797868728638 L 59.75215148925781 2.213836193084717 C 59.79423141479492 1.942877292633057 59.86764907836914 1.677597045898438 59.97238159179688 1.418700218200684 C 60.36470031738281 0.4542902410030365 61.14521026611328 -0.2865097522735596 62.29296875 -0.7849397659301758 C 62.95529937744141 -1.073169708251953 63.59865951538086 -1.219459772109985 64.20449829101562 -1.219459772109985 C 64.65823364257812 -1.219459772109985 65.09660339355469 -1.137919783592224 65.50742340087891 -0.9770897626876831 C 65.97914123535156 -0.7918388247489929 66.39556884765625 -0.518605649471283 66.75453948974609 -0.1596899330615997 L 65.55155944824219 -4.24623966217041 L 69.23735046386719 -5.327759742736816 L 70.35498809814453 -1.531122088432312 L 69.55471801757812 -5.407469749450684 L 73.31639099121094 -6.181219577789307 L 74.15373229980469 -2.125734329223633 C 74.30525970458984 -2.568469047546387 74.53560638427734 -2.967620134353638 74.84409332275391 -3.32086968421936 C 75.52375793457031 -4.103169918060303 76.50224304199219 -4.551859855651855 77.75070190429688 -4.652559757232666 C 79.010986328125 -4.754918098449707 80.06011962890625 -4.464927196502686 80.85368347167969 -3.793899774551392 C 81.19721221923828 -3.502978086471558 81.47690582275391 -3.159908056259155 81.69174957275391 -2.766843795776367 L 81.27870941162109 -5.028889656066895 L 85.3106689453125 -4.550519943237305 L 85.47053527832031 -3.294826030731201 L 85.99363708496094 -4.470699787139893 L 89.08367156982422 -4.105749607086182 L 89.27698516845703 -2.97011137008667 L 89.6763916015625 -4.035359859466553 L 93.67555236816406 -3.562379837036133 L 90.38722991943359 3.819620132446289 L 86.98287963867188 3.41920018196106 L 86.72955322265625 1.995574712753296 L 86.15628051757812 3.320720195770264 L 82.72924041748047 2.915040254592896 L 82.19313812255859 -0.02098708413541317 C 82.10878753662109 0.7829656600952148 81.81645202636719 1.478623509407043 81.31938934326172 2.055720329284668 C 80.64290618896484 2.842520236968994 79.66155242919922 3.293430328369141 78.40315246582031 3.395240306854248 C 78.23896789550781 3.408210277557373 78.07804870605469 3.414700269699097 77.92291259765625 3.414700269699097 C 76.87760925292969 3.414700269699097 75.99803924560547 3.12030029296875 75.30861663818359 2.539680242538452 C 75.22627258300781 2.470851182937622 75.14755249023438 2.398968696594238 75.07249450683594 2.324095010757446 L 75.32270050048828 3.535900354385376 L 71.79286193847656 4.26372241973877 L 68.35375213623047 5.272860050201416 L 67.98008728027344 4.003513336181641 C 67.94317626953125 4.139447212219238 67.89805603027344 4.273828506469727 67.84471130371094 4.406600475311279 C 67.45733642578125 5.370770454406738 66.67572784423828 6.114590167999268 65.52159118652344 6.617380142211914 C 64.86232757568359 6.904350280761719 64.22084808349609 7.049800395965576 63.61470031738281 7.049800395965576 C 63.16662979125977 7.049800395965576 62.73078918457031 6.97014045715332 62.31930160522461 6.8130202293396 C 61.5394172668457 6.511792659759521 60.9102783203125 5.970142841339111 60.44062423706055 5.198196411132812 L 58.37517929077148 6.524178981781006 L 60.12860107421875 9.248820304870605 L 56.80669021606445 11.37952041625977 Z M 63.50704193115234 2.270090103149414 C 63.50584411621094 2.27879786491394 63.49841690063477 2.333979845046997 63.51382827758789 2.446990251541138 C 63.5278205871582 2.549610137939453 63.57091903686523 2.73278021812439 63.69676971435547 3.022640228271484 C 63.81058883666992 3.281350135803223 63.91044998168945 3.433750152587891 63.97385025024414 3.515260219573975 C 64.03647613525391 3.596536874771118 64.07900238037109 3.632118225097656 64.09716033935547 3.645274877548218 C 64.11714172363281 3.64292049407959 64.15815734863281 3.634769678115845 64.22399139404297 3.607061862945557 C 64.25634765625 3.59233021736145 64.2843017578125 3.576053857803345 64.30851745605469 3.557794332504272 C 64.31861877441406 3.508396148681641 64.31925964355469 3.448621511459351 64.31114196777344 3.380238056182861 C 64.30313873291016 3.322932243347168 64.26934051513672 3.161750078201294 64.12738037109375 2.840390205383301 L 64.12391662597656 2.832450151443481 C 64.00444793701172 2.555570125579834 63.9039192199707 2.403590202331543 63.84061813354492 2.324860334396362 L 63.83393096923828 2.316430330276489 C 63.76918792724609 2.234104633331299 63.72570037841797 2.199271678924561 63.70901107788086 2.187543630599976 C 63.6766242980957 2.19288158416748 63.64038848876953 2.203905344009399 63.600830078125 2.220480918884277 C 63.55905532836914 2.239210844039917 63.52859115600586 2.25629711151123 63.50704193115234 2.270090103149414 Z M 78.02020263671875 0.1220114529132843 C 78.04133605957031 0.1268508434295654 78.08759307861328 0.1313353627920151 78.14453125 0.1262602359056473 L 78.15753173828125 0.1251802444458008 C 78.19032287597656 0.1226881742477417 78.2205810546875 0.1168443113565445 78.24909973144531 0.1074498891830444 C 78.2672119140625 0.07944111526012421 78.29074096679688 0.02936333976686001 78.30811309814453 -0.05634975805878639 C 78.31944274902344 -0.1113697588443756 78.34111022949219 -0.271149754524231 78.31204986572266 -0.6361497640609741 C 78.28688049316406 -0.9380729794502258 78.24171447753906 -1.116696953773499 78.20789337158203 -1.213351368904114 C 78.16934204101562 -1.319710850715637 78.13770294189453 -1.367477774620056 78.12698364257812 -1.381878256797791 C 78.09326934814453 -1.387628078460693 78.05680084228516 -1.388046264648438 78.01596069335938 -1.384719729423523 C 77.96823120117188 -1.380803346633911 77.93357086181641 -1.374437928199768 77.90976715087891 -1.368559837341309 C 77.90174865722656 -1.352028727531433 77.87856292724609 -1.298995733261108 77.85710144042969 -1.193299770355225 C 77.83756256103516 -1.097079753875732 77.81961822509766 -0.9153997302055359 77.84512329101562 -0.5962397456169128 C 77.86250305175781 -0.3736397624015808 77.89694976806641 -0.1863597631454468 77.94767761230469 -0.03775975853204727 L 77.94998168945312 -0.03092975914478302 C 77.97885131835938 0.05567938834428787 78.00637054443359 0.1020655184984207 78.02020263671875 0.1220114529132843 Z M 105.7410125732422 10.20160007476807 C 104.9355621337891 10.20160007476807 104.0691986083984 9.913849830627441 103.1659927368164 9.346330642700195 C 102.6703796386719 9.033220291137695 102.2427062988281 8.697159767150879 101.8927536010742 8.346159934997559 C 101.6828765869141 8.133763313293457 101.5058135986328 7.938358306884766 101.35791015625 7.755735874176025 L 101.3088836669922 7.870050430297852 L 97.91259765625 6.415792465209961 C 97.56782531738281 6.383464813232422 97.21190643310547 6.289288997650146 96.85106658935547 6.134640216827393 C 96.0081787109375 5.773210048675537 95.44544982910156 5.21737003326416 95.17835235595703 4.482500076293945 C 94.918212890625 3.768110275268555 94.98124694824219 2.954440355300903 95.36592102050781 2.064680337905884 L 97.22335052490234 -2.273199796676636 L 100.754150390625 -0.7613397836685181 L 99.24326324462891 2.764480352401733 C 99.16030883789062 2.956528663635254 99.09117889404297 3.133601903915405 99.04062652587891 3.283133745193481 C 99.05036926269531 3.286858558654785 99.06623077392578 3.292213201522827 99.08975219726562 3.298216581344604 L 100.8214492797852 -0.7342697381973267 L 104.3519515991211 0.7755902409553528 L 103.5459747314453 2.654584407806396 C 103.9228973388672 2.328547716140747 104.4678192138672 2.057154417037964 105.2466278076172 2.019750356674194 C 106.0897674560547 1.979177355766296 106.9935989379883 2.258303880691528 107.9301300048828 2.848470211029053 C 108.3501281738281 3.11279034614563 108.7343368530273 3.415810346603394 109.0716018676758 3.748820304870605 C 109.4097213745117 4.083720207214355 109.6573181152344 4.370550155639648 109.8296737670898 4.626800060272217 L 110.1936416625977 5.167940139770508 L 108.53662109375 7.789470195770264 L 108.5209732055664 7.779531478881836 C 108.4872817993164 8.180307388305664 108.3505554199219 8.572185516357422 108.1119766235352 8.949910163879395 C 107.6157836914062 9.732270240783691 106.8402862548828 10.1636905670166 105.8683395385742 10.19914054870605 L 105.8612976074219 10.19937038421631 C 105.8191833496094 10.20061016082764 105.780647277832 10.20160007476807 105.7410125732422 10.20160007476807 Z" stroke="none" fill="#fff"/>
      </g>
    </g>
  </g>
</svg>
