<svg id="グループ_520" data-name="グループ 520" xmlns="http://www.w3.org/2000/svg" width="24" height="24" viewBox="0 0 24 24">
  <rect id="長方形_45" data-name="長方形 45" width="24" height="24" transform="translate(0)" fill="none"/>
  <path id="パス_5" data-name="パス 5" d="M80.8,113.411a10.7,10.7,0,0,0,10.774-10.774c0-.164,0-.327-.011-.49a7.7,7.7,0,0,0,1.889-1.961,7.559,7.559,0,0,1-2.175.6,3.8,3.8,0,0,0,1.665-2.095,7.588,7.588,0,0,1-2.4.919,3.79,3.79,0,0,0-6.453,3.453A10.751,10.751,0,0,1,76.285,99.1a3.79,3.79,0,0,0,1.172,5.055,3.758,3.758,0,0,1-1.715-.474c0,.016,0,.032,0,.048a3.788,3.788,0,0,0,3.038,3.712,3.781,3.781,0,0,1-1.71.065,3.791,3.791,0,0,0,3.537,2.63,7.6,7.6,0,0,1-4.7,1.621,7.7,7.7,0,0,1-.9-.052,10.72,10.72,0,0,0,5.8,1.7" transform="translate(-73.2 -93.611)" fill="#fff"/>
</svg>
