<svg xmlns="http://www.w3.org/2000/svg" xmlns:xlink="http://www.w3.org/1999/xlink" width="90" height="90" viewBox="0 0 90 90">
  <defs>
    <filter id="長方形_144" x="0" y="0" width="90" height="90" filterUnits="userSpaceOnUse">
      <feOffset dy="3" input="SourceAlpha"/>
      <feGaussianBlur stdDeviation="3" result="blur"/>
      <feFlood flood-opacity="0.161"/>
      <feComposite operator="in" in2="blur"/>
      <feComposite in="SourceGraphic"/>
    </filter>
    <clipPath id="clip-path">
      <rect id="長方形_220" data-name="長方形 220" width="34" height="34" fill="#fff"/>
    </clipPath>
  </defs>
  <g id="button" transform="translate(-339 -2550)">
    <g transform="matrix(1, 0, 0, 1, 339, 2550)" filter="url(#長方形_144)">
      <rect id="長方形_144-2" data-name="長方形 144" width="72" height="72" rx="36" transform="translate(9 6)" fill="#1877f2"/>
    </g>
    <g id="グループ_343" data-name="グループ 343" transform="translate(-53 -6)">
      <g id="グループ_342" data-name="グループ 342" transform="translate(420 2581)" clip-path="url(#clip-path)">
        <path id="パス_341" data-name="パス 341" d="M34,17.106A17,17,0,1,0,14.344,34V22.05H10.027V17.106h4.316V13.338c0-4.287,2.538-6.654,6.421-6.654a25.988,25.988,0,0,1,3.805.334v4.209H22.427a2.465,2.465,0,0,0-2.77,2.671v3.208h4.715l-.754,4.944H19.656V34A17.076,17.076,0,0,0,34,17.106" transform="translate(0 -0.002)" fill="#fff"/>
      </g>
    </g>
  </g>
</svg>
