<svg xmlns="http://www.w3.org/2000/svg" width="389.508" height="152.649" viewBox="0 0 389.508 152.649">
  <g id="グループ_740" data-name="グループ 740" transform="translate(-304 -128)">
    <path id="合体_4" data-name="合体 4" d="M-4111.313,0-4093,44l-18.313,44Zm-343.373,88L-4473,44l18.314-44h343.373V88Z" transform="matrix(0.985, -0.174, 0.174, 0.985, 4709.045, -582.742)" fill="#d7515e"/>
    <path id="多角形_5" data-name="多角形 5" d="M18,0,36,31H0Z" transform="matrix(-0.966, 0.259, -0.259, -0.966, 619.398, 243.813)" fill="#d7515e"/>
    <path id="パス_672" data-name="パス 672" d="M-91.243-9.454a5.232,5.232,0,0,1-.325,1.814A4.034,4.034,0,0,1-92.5-6.151a5.672,5.672,0,0,1-1.842,1.234,6.679,6.679,0,0,1-2.528.417h-2.217V0h-3.562V-13.814h5.863a9.267,9.267,0,0,1,2.222.227,5.233,5.233,0,0,1,1.6.682,3.668,3.668,0,0,1,1.276,1.4A4.421,4.421,0,0,1-91.243-9.454Zm-3.683.083a1.634,1.634,0,0,0-.315-1.007,1.712,1.712,0,0,0-.733-.589,3.308,3.308,0,0,0-1.085-.246q-.529-.023-1.41-.023h-.612V-7.1h1.021a8.3,8.3,0,0,0,1.5-.111,2.121,2.121,0,0,0,.988-.445,1.715,1.715,0,0,0,.5-.71A2.909,2.909,0,0,0-94.926-9.37Zm13.573,2.134h-.3a3,3,0,0,0-.687-.111q-.473-.037-.789-.037a7.621,7.621,0,0,0-1.262.093,7.159,7.159,0,0,0-1.178.315V0H-88.9V-10.418h3.34v1.531a6.972,6.972,0,0,1,1.92-1.257,4.254,4.254,0,0,1,1.5-.311q.176,0,.4.009t.39.028ZM-69.2-4.592h-7.645a2.4,2.4,0,0,0,.932,1.874,4.148,4.148,0,0,0,2.528.649,5.683,5.683,0,0,0,2.05-.38,6.421,6.421,0,0,0,1.568-.816h.371V-.584a12.4,12.4,0,0,1-2.134.659,11.133,11.133,0,0,1-2.217.2,7.255,7.255,0,0,1-4.806-1.41,4.966,4.966,0,0,1-1.67-4.017,5.378,5.378,0,0,1,1.582-4.087A6.029,6.029,0,0,1-74.3-10.743,5.177,5.177,0,0,1-70.48-9.458a5.015,5.015,0,0,1,1.28,3.7ZM-72.521-6.55a2.338,2.338,0,0,0-.52-1.577,2,2,0,0,0-1.531-.529,2.448,2.448,0,0,0-1.586.5,2.137,2.137,0,0,0-.7,1.6ZM-63.5,0h-3.34V-14.436h3.34Zm6.494,0h-3.34V-10.418h3.34Zm.093-11.9h-3.525v-2.533h3.525Zm13.248,4.518V0h-3.358V-5.2q0-.761-.037-1.294a2.309,2.309,0,0,0-.2-.867,1.019,1.019,0,0,0-.506-.487,2.37,2.37,0,0,0-.951-.153,2.4,2.4,0,0,0-.956.2,6.994,6.994,0,0,0-.835.422V0h-3.34V-10.418h3.34v1.15a9.154,9.154,0,0,1,1.651-1.058,3.962,3.962,0,0,1,1.744-.38,3.547,3.547,0,0,1,1.818.459A3.138,3.138,0,0,1-44.067-8.9a10.38,10.38,0,0,1,1.948-1.327,4.067,4.067,0,0,1,1.855-.482A3.211,3.211,0,0,1-37.7-9.695a4.32,4.32,0,0,1,.877,2.913V0H-40.18V-5.2q0-.77-.032-1.3a2.245,2.245,0,0,0-.2-.863.975.975,0,0,0-.5-.487,2.434,2.434,0,0,0-.965-.153,2.39,2.39,0,0,0-.816.144A6.254,6.254,0,0,0-43.668-7.385ZM-30.411,0h-3.34V-10.418h3.34Zm.093-11.9h-3.525v-2.533h3.525ZM-16.792,0H-20.15V-5.167a12.179,12.179,0,0,0-.065-1.257,2.649,2.649,0,0,0-.223-.923,1.111,1.111,0,0,0-.543-.5,2.534,2.534,0,0,0-1-.158,3.045,3.045,0,0,0-.923.148,4.959,4.959,0,0,0-1.016.473V0h-3.34V-10.418h3.34v1.15a8.521,8.521,0,0,1,1.712-1.067,4.376,4.376,0,0,1,1.823-.371,3.5,3.5,0,0,1,2.639.983,4.078,4.078,0,0,1,.951,2.941Zm9.379-2.718V-4.889q-.677.056-1.466.153a7.062,7.062,0,0,0-1.2.227,1.648,1.648,0,0,0-.765.459,1.159,1.159,0,0,0-.264.793,2.064,2.064,0,0,0,.056.529.8.8,0,0,0,.278.39,1.353,1.353,0,0,0,.51.274,3.545,3.545,0,0,0,.928.088,2.743,2.743,0,0,0,1.016-.2A3.174,3.174,0,0,0-7.413-2.718Zm0,1.614q-.269.2-.668.492a4.864,4.864,0,0,1-.751.455A4.737,4.737,0,0,1-9.853.172a5.872,5.872,0,0,1-1.16.107A3.541,3.541,0,0,1-13.5-.64a3.043,3.043,0,0,1-1-2.347,3.164,3.164,0,0,1,.51-1.865,3.423,3.423,0,0,1,1.447-1.141,8.181,8.181,0,0,1,2.3-.594q1.373-.176,2.848-.26V-6.9A1.2,1.2,0,0,0-8.1-8.094a5.1,5.1,0,0,0-2.078-.329,5.932,5.932,0,0,0-1.763.292q-.937.292-1.345.45h-.306V-10.2q.529-.139,1.721-.329a15.141,15.141,0,0,1,2.389-.19,7.414,7.414,0,0,1,4.115.877A3.111,3.111,0,0,1-4.1-7.088V0H-7.413ZM6.522-7.236h-.3a3,3,0,0,0-.687-.111q-.473-.037-.789-.037a7.621,7.621,0,0,0-1.262.093,7.159,7.159,0,0,0-1.178.315V0H-1.03V-10.418H2.31v1.531a6.972,6.972,0,0,1,1.92-1.257,4.254,4.254,0,0,1,1.5-.311q.176,0,.4.009t.39.028Zm6.6,3.553,2.375-6.735h3.433L13.137,3.822H9.519l1.651-3.9L7.116-10.418h3.507Zm22.089-5.9a1.758,1.758,0,0,0-.213-.891,1.43,1.43,0,0,0-.733-.584,2.7,2.7,0,0,0-.844-.181q-.482-.032-1.123-.032H31v3.72H32.1a10.2,10.2,0,0,0,1.429-.083,2.047,2.047,0,0,0,.965-.38,1.849,1.849,0,0,0,.543-.635A2.127,2.127,0,0,0,35.208-9.583ZM40.765,0H36.414L32.647-5.065H31V0H27.461V-13.814h5.975a13.726,13.726,0,0,1,2.106.139,4.546,4.546,0,0,1,1.651.6,3.6,3.6,0,0,1,1.239,1.2,3.444,3.444,0,0,1,.459,1.851,4.107,4.107,0,0,1-.71,2.5,5.355,5.355,0,0,1-2.027,1.6ZM52.4-4.592H44.754a2.4,2.4,0,0,0,.932,1.874,4.148,4.148,0,0,0,2.528.649,5.683,5.683,0,0,0,2.05-.38,6.421,6.421,0,0,0,1.568-.816H52.2V-.584A12.4,12.4,0,0,1,50.07.074a11.133,11.133,0,0,1-2.217.2,7.255,7.255,0,0,1-4.806-1.41,4.966,4.966,0,0,1-1.67-4.017,5.378,5.378,0,0,1,1.582-4.087A6.029,6.029,0,0,1,47.3-10.743a5.177,5.177,0,0,1,3.822,1.285,5.015,5.015,0,0,1,1.28,3.7ZM49.077-6.55a2.338,2.338,0,0,0-.52-1.577,2,2,0,0,0-1.531-.529,2.448,2.448,0,0,0-1.586.5,2.137,2.137,0,0,0-.7,1.6ZM63.81-3.3A3.02,3.02,0,0,1,62.362-.7,6.939,6.939,0,0,1,58.4.288a11.3,11.3,0,0,1-2.523-.26,9.619,9.619,0,0,1-1.818-.575V-3.293h.306q.25.176.58.385a5.891,5.891,0,0,0,.932.45,7.692,7.692,0,0,0,1.178.366,6.218,6.218,0,0,0,1.41.153,3.667,3.667,0,0,0,1.457-.218A.694.694,0,0,0,60.4-2.8a.6.6,0,0,0-.278-.552,3.631,3.631,0,0,0-1.058-.329q-.371-.083-1.007-.181A10.818,10.818,0,0,1,56.9-4.1a4.094,4.094,0,0,1-2.106-1.155,2.857,2.857,0,0,1-.687-1.953,2.963,2.963,0,0,1,1.424-2.5,6.684,6.684,0,0,1,3.892-1,10.366,10.366,0,0,1,2.24.237,9.065,9.065,0,0,1,1.675.506v2.635h-.288a6.8,6.8,0,0,0-1.693-.83,6,6,0,0,0-1.925-.32,3.645,3.645,0,0,0-1.359.223q-.552.223-.552.631a.674.674,0,0,0,.25.566,3.408,3.408,0,0,0,1.178.39q.51.1,1.1.2t1.183.246a3.717,3.717,0,0,1,1.948,1.081A2.734,2.734,0,0,1,63.81-3.3ZM76.408,0h-3.34V-1.15a9.932,9.932,0,0,1-1.7,1.072,4.24,4.24,0,0,1-1.837.366,3.47,3.47,0,0,1-2.658-.993,4.135,4.135,0,0,1-.932-2.932v-6.782H69.3v5.167q0,.789.051,1.313a2.288,2.288,0,0,0,.237.867,1.066,1.066,0,0,0,.533.5,2.534,2.534,0,0,0,1,.158,3.285,3.285,0,0,0,.946-.158,4.074,4.074,0,0,0,1-.464v-7.385h3.34ZM82.9,0h-3.34V-14.436H82.9Zm9.815-.093a9.453,9.453,0,0,1-1.141.218A11.636,11.636,0,0,1,90.1.2a4.475,4.475,0,0,1-2.9-.789,3.335,3.335,0,0,1-.951-2.7V-8.155H84.878v-2.264h1.373V-13.4h3.34v2.978h3.126v2.264H89.591v3.692q0,.547.009.956a1.959,1.959,0,0,0,.148.733,1.028,1.028,0,0,0,.459.515,1.952,1.952,0,0,0,.96.19,2.815,2.815,0,0,0,.682-.111,2.839,2.839,0,0,0,.589-.2h.278ZM103.767-3.3A3.02,3.02,0,0,1,102.32-.7a6.939,6.939,0,0,1-3.961.988,11.3,11.3,0,0,1-2.523-.26,9.619,9.619,0,0,1-1.818-.575V-3.293h.306q.25.176.58.385a5.891,5.891,0,0,0,.932.45,7.692,7.692,0,0,0,1.178.366,6.218,6.218,0,0,0,1.41.153,3.667,3.667,0,0,0,1.457-.218.694.694,0,0,0,.473-.645.6.6,0,0,0-.278-.552,3.631,3.631,0,0,0-1.058-.329q-.371-.083-1.007-.181A10.818,10.818,0,0,1,96.855-4.1,4.094,4.094,0,0,1,94.75-5.256a2.857,2.857,0,0,1-.687-1.953,2.963,2.963,0,0,1,1.424-2.5,6.684,6.684,0,0,1,3.892-1,10.366,10.366,0,0,1,2.24.237,9.065,9.065,0,0,1,1.675.506v2.635h-.288a6.8,6.8,0,0,0-1.693-.83,6,6,0,0,0-1.925-.32,3.645,3.645,0,0,0-1.359.223q-.552.223-.552.631a.674.674,0,0,0,.25.566,3.408,3.408,0,0,0,1.178.39q.51.1,1.1.2t1.183.246a3.717,3.717,0,0,1,1.948,1.081A2.734,2.734,0,0,1,103.767-3.3ZM-102.932,30h-3.683l-.956-2.792h-5.121L-113.647,30h-3.59l5.1-13.814h4.1Zm-5.5-5.325-1.7-4.954-1.7,4.954ZM-90.667,30h-3.358V24.833a12.178,12.178,0,0,0-.065-1.257,2.649,2.649,0,0,0-.223-.923,1.111,1.111,0,0,0-.543-.5,2.534,2.534,0,0,0-1-.158,3.045,3.045,0,0,0-.923.148,4.959,4.959,0,0,0-1.016.473V30h-3.34V19.582h3.34v1.15a8.522,8.522,0,0,1,1.712-1.067,4.376,4.376,0,0,1,1.823-.371,3.5,3.5,0,0,1,2.639.983,4.078,4.078,0,0,1,.951,2.941Zm13.536,0H-80.49V24.833a12.178,12.178,0,0,0-.065-1.257,2.649,2.649,0,0,0-.223-.923,1.111,1.111,0,0,0-.543-.5,2.534,2.534,0,0,0-1-.158,3.045,3.045,0,0,0-.923.148,4.959,4.959,0,0,0-1.016.473V30H-87.6V19.582h3.34v1.15a8.522,8.522,0,0,1,1.712-1.067,4.376,4.376,0,0,1,1.823-.371,3.5,3.5,0,0,1,2.639.983,4.078,4.078,0,0,1,.951,2.941Zm13.721-5.2a5.434,5.434,0,0,1-1.5,4.05,5.73,5.73,0,0,1-4.207,1.48,5.73,5.73,0,0,1-4.207-1.48,5.434,5.434,0,0,1-1.5-4.05,5.424,5.424,0,0,1,1.508-4.063,5.747,5.747,0,0,1,4.2-1.475A5.713,5.713,0,0,1-64.9,20.741,5.469,5.469,0,0,1-63.411,24.8Zm-4.11,2.533a2.68,2.68,0,0,0,.487-.96,5.84,5.84,0,0,0,.162-1.554,6.036,6.036,0,0,0-.167-1.54,2.7,2.7,0,0,0-.464-.993,1.628,1.628,0,0,0-.714-.538,2.526,2.526,0,0,0-.9-.158,2.62,2.62,0,0,0-.858.13,1.734,1.734,0,0,0-.719.52,2.657,2.657,0,0,0-.487.993,5.862,5.862,0,0,0-.181,1.586,6.113,6.113,0,0,0,.158,1.48A2.6,2.6,0,0,0-70.74,27.3a1.765,1.765,0,0,0,.71.529,2.494,2.494,0,0,0,.942.167,2.475,2.475,0,0,0,.867-.153A1.589,1.589,0,0,0-67.521,27.328ZM-50.636,30h-3.34V28.85a9.932,9.932,0,0,1-1.7,1.072,4.24,4.24,0,0,1-1.837.366,3.47,3.47,0,0,1-2.658-.993,4.135,4.135,0,0,1-.932-2.932V19.582h3.358v5.167q0,.789.051,1.313a2.287,2.287,0,0,0,.237.867,1.066,1.066,0,0,0,.533.5,2.534,2.534,0,0,0,1,.158,3.285,3.285,0,0,0,.946-.158,4.074,4.074,0,0,0,1-.464V19.582h3.34Zm13.619,0h-3.358V24.833a12.179,12.179,0,0,0-.065-1.257,2.648,2.648,0,0,0-.223-.923,1.111,1.111,0,0,0-.543-.5,2.534,2.534,0,0,0-1-.158,3.045,3.045,0,0,0-.923.148,4.959,4.959,0,0,0-1.016.473V30h-3.34V19.582h3.34v1.15a8.522,8.522,0,0,1,1.712-1.067,4.376,4.376,0,0,1,1.823-.371,3.5,3.5,0,0,1,2.639.983,4.078,4.078,0,0,1,.951,2.941Zm8.5.278a8.98,8.98,0,0,1-2.491-.325,5.484,5.484,0,0,1-1.962-1,4.541,4.541,0,0,1-1.28-1.707,5.931,5.931,0,0,1-.455-2.412,5.968,5.968,0,0,1,.487-2.514,4.744,4.744,0,0,1,1.359-1.753,5.533,5.533,0,0,1,1.948-.965,8.535,8.535,0,0,1,2.292-.306,7.869,7.869,0,0,1,1.967.232,9.287,9.287,0,0,1,1.679.6v2.848h-.473q-.195-.167-.469-.39a4.225,4.225,0,0,0-.673-.436,4.4,4.4,0,0,0-.835-.339,3.74,3.74,0,0,0-1.058-.135,2.544,2.544,0,0,0-2.055.849,3.452,3.452,0,0,0-.719,2.305,3.2,3.2,0,0,0,.738,2.282,2.742,2.742,0,0,0,2.092.779,4.154,4.154,0,0,0,1.136-.144,3.667,3.667,0,0,0,.84-.339,4,4,0,0,0,.557-.39q.241-.2.445-.4h.473v2.848a9.148,9.148,0,0,1-1.647.589A7.7,7.7,0,0,1-28.519,30.278Zm16.013-4.871H-20.15a2.4,2.4,0,0,0,.932,1.874,4.148,4.148,0,0,0,2.528.649,5.683,5.683,0,0,0,2.05-.38,6.421,6.421,0,0,0,1.568-.816h.371v2.681a12.4,12.4,0,0,1-2.134.659,11.133,11.133,0,0,1-2.217.2,7.255,7.255,0,0,1-4.806-1.41,4.966,4.966,0,0,1-1.67-4.017,5.378,5.378,0,0,1,1.582-4.087,6.029,6.029,0,0,1,4.337-1.508,5.177,5.177,0,0,1,3.822,1.285,5.015,5.015,0,0,1,1.28,3.7Zm-3.321-1.958a2.338,2.338,0,0,0-.52-1.577,2,2,0,0,0-1.531-.529,2.448,2.448,0,0,0-1.586.5,2.137,2.137,0,0,0-.7,1.6ZM.037,22.615V30H-3.321V24.8q0-.761-.037-1.294a2.309,2.309,0,0,0-.2-.867,1.019,1.019,0,0,0-.506-.487,2.37,2.37,0,0,0-.951-.153,2.4,2.4,0,0,0-.956.2,6.994,6.994,0,0,0-.835.422V30h-3.34V19.582h3.34v1.15a9.154,9.154,0,0,1,1.651-1.058,3.962,3.962,0,0,1,1.744-.38,3.547,3.547,0,0,1,1.818.459A3.138,3.138,0,0,1-.362,21.1a10.38,10.38,0,0,1,1.948-1.327,4.067,4.067,0,0,1,1.855-.482,3.211,3.211,0,0,1,2.565,1.011,4.32,4.32,0,0,1,.877,2.913V30H3.525V24.8q0-.77-.032-1.3a2.245,2.245,0,0,0-.2-.863.975.975,0,0,0-.5-.487,2.434,2.434,0,0,0-.965-.153,2.39,2.39,0,0,0-.816.144A6.253,6.253,0,0,0,.037,22.615Zm20.178,2.792H12.571a2.4,2.4,0,0,0,.932,1.874,4.148,4.148,0,0,0,2.528.649,5.683,5.683,0,0,0,2.05-.38,6.421,6.421,0,0,0,1.568-.816h.371v2.681a12.4,12.4,0,0,1-2.134.659,11.133,11.133,0,0,1-2.217.2,7.255,7.255,0,0,1-4.806-1.41,4.966,4.966,0,0,1-1.67-4.017,5.378,5.378,0,0,1,1.582-4.087,6.029,6.029,0,0,1,4.337-1.508,5.177,5.177,0,0,1,3.822,1.285,5.015,5.015,0,0,1,1.28,3.7ZM16.894,23.45a2.338,2.338,0,0,0-.52-1.577,2,2,0,0,0-1.531-.529,2.448,2.448,0,0,0-1.586.5,2.137,2.137,0,0,0-.7,1.6ZM33.037,30H29.678V24.833a12.179,12.179,0,0,0-.065-1.257,2.649,2.649,0,0,0-.223-.923,1.111,1.111,0,0,0-.543-.5,2.534,2.534,0,0,0-1-.158,3.045,3.045,0,0,0-.923.148,4.959,4.959,0,0,0-1.016.473V30h-3.34V19.582h3.34v1.15a8.522,8.522,0,0,1,1.712-1.067,4.376,4.376,0,0,1,1.823-.371,3.5,3.5,0,0,1,2.639.983,4.078,4.078,0,0,1,.951,2.941Zm9.732-.093a9.453,9.453,0,0,1-1.141.218,11.636,11.636,0,0,1-1.475.079,4.475,4.475,0,0,1-2.9-.789,3.335,3.335,0,0,1-.951-2.7V21.845H34.929V19.582H36.3V16.6h3.34v2.978h3.126v2.264H39.642v3.692q0,.547.009.956a1.959,1.959,0,0,0,.148.733,1.028,1.028,0,0,0,.459.515,1.952,1.952,0,0,0,.96.19,3.833,3.833,0,0,0,1.271-.315h.278ZM61.435,30H51.443V16.186h9.992v2.672H54.987v2.384h5.984v2.672H54.987v3.414h6.448ZM74.729,19.582,70.712,30H66.927L62.938,19.582h3.535l2.412,7.162,2.384-7.162Zm12.116,5.826H79.2a2.4,2.4,0,0,0,.932,1.874,4.148,4.148,0,0,0,2.528.649,5.683,5.683,0,0,0,2.05-.38,6.421,6.421,0,0,0,1.568-.816h.371v2.681a12.4,12.4,0,0,1-2.134.659,11.133,11.133,0,0,1-2.217.2,7.255,7.255,0,0,1-4.806-1.41,4.966,4.966,0,0,1-1.67-4.017,5.378,5.378,0,0,1,1.582-4.087,6.029,6.029,0,0,1,4.337-1.508,5.177,5.177,0,0,1,3.822,1.285,5.015,5.015,0,0,1,1.28,3.7ZM83.524,23.45A2.338,2.338,0,0,0,83,21.873a2,2,0,0,0-1.531-.529,2.448,2.448,0,0,0-1.586.5,2.137,2.137,0,0,0-.7,1.6ZM99.667,30H96.308V24.833a12.178,12.178,0,0,0-.065-1.257,2.649,2.649,0,0,0-.223-.923,1.111,1.111,0,0,0-.543-.5,2.534,2.534,0,0,0-1-.158,3.045,3.045,0,0,0-.923.148,4.959,4.959,0,0,0-1.016.473V30H89.2V19.582h3.34v1.15a8.522,8.522,0,0,1,1.712-1.067,4.376,4.376,0,0,1,1.823-.371,3.5,3.5,0,0,1,2.639.983,4.078,4.078,0,0,1,.951,2.941Zm9.732-.093a9.453,9.453,0,0,1-1.141.218,11.636,11.636,0,0,1-1.475.079,4.475,4.475,0,0,1-2.9-.789,3.335,3.335,0,0,1-.951-2.7V21.845h-1.373V19.582h1.373V16.6h3.34v2.978H109.4v2.264h-3.126v3.692q0,.547.009.956a1.959,1.959,0,0,0,.148.733,1.028,1.028,0,0,0,.459.515,1.952,1.952,0,0,0,.96.19,3.833,3.833,0,0,0,1.271-.315h.278Zm6.179-13.721-.427,9.834h-3.024l-.427-9.834ZM115.512,30h-3.748V27.551h3.748Z" transform="matrix(0.985, -0.174, 0.174, 0.985, 497.838, 197.506)" fill="#fff"/>
  </g>
</svg>
