<svg xmlns="http://www.w3.org/2000/svg" width="389.508" height="152.649" viewBox="0 0 389.508 152.649">
  <g id="グループ_739" data-name="グループ 739" transform="translate(-304 -128)">
    <path id="合体_4" data-name="合体 4" d="M-4111.313,0-4093,44l-18.313,44Zm-343.373,88L-4473,44l18.314-44h343.373V88Z" transform="matrix(0.985, -0.174, 0.174, 0.985, 4709.045, -582.742)" fill="#d7515e"/>
    <path id="多角形_5" data-name="多角形 5" d="M18,0,36,31H0Z" transform="matrix(-0.966, 0.259, -0.259, -0.966, 619.398, 243.813)" fill="#d7515e"/>
    <path id="パス_672" data-name="パス 672" d="M-158.97-7.86A21.812,21.812,0,0,1-160.56-.9,17.633,17.633,0,0,1-157.83.39a27.737,27.737,0,0,0,1.8-7.74Zm6.69.66a30.532,30.532,0,0,1,1.77,5.79l2.82-.99a34.212,34.212,0,0,0-1.95-5.64Zm-.51-7.47c.36.63.72,1.35,1.05,2.04l-3.03.15a96.578,96.578,0,0,0,5.73-8.13l-3.03-1.26a46.908,46.908,0,0,1-2.76,4.92c-.3-.39-.66-.84-1.05-1.26,1.08-1.68,2.31-3.99,3.39-6.06l-3.15-1.11a39.658,39.658,0,0,1-2.19,5.22l-.72-.63-1.68,2.46a28.262,28.262,0,0,1,3.6,4.11c-.45.66-.93,1.29-1.38,1.86l-2.22.09.3,3.12c1.32-.09,2.82-.21,4.44-.3V2.64h3.15V-9.69l1.71-.12a16.326,16.326,0,0,1,.42,1.62l2.7-1.26a24.467,24.467,0,0,0-2.76-6.33Zm15.87,8.58v4.23h-6.69V-6.09Zm-9.96,8.67h3.27V1.32h6.69V2.55h3.45V-9.27h-13.41Zm14.76-20.88v-3.24h-6.57v-3.87h-3.63v3.87h-6.33v3.24h6.33v3.27h-5.49v3.24h15v-3.24h-5.88V-18.3Zm9.36,3.84v-1.92h4.83v1.92Zm0-6.6h4.83v1.92h-4.83Zm13.38,1.92h-4.77v-1.92h4.77Zm0,4.68h-4.77v-1.92h4.77Zm6.69,8.01V-9.72h-11.46v-1.77h8.7V-24.03h-21.06v12.54h8.58v1.77h-11.49v3.27h8.88a26.894,26.894,0,0,1-9.81,5.28,18.5,18.5,0,0,1,2.43,2.97,28.808,28.808,0,0,0,9.99-6.42V2.61h3.78V-4.77a30.1,30.1,0,0,0,9.93,6.39,14.419,14.419,0,0,1,2.4-3.03,29.4,29.4,0,0,1-9.72-5.04Zm18.3-2.07h-3.69v-3.39h3.69Zm6.45-3.39v-.96a20.905,20.905,0,0,0,3.69,2.25,13.607,13.607,0,0,1,2.46-3.09,18.409,18.409,0,0,1-4.65-2.73,49.245,49.245,0,0,0,3.96-3.24l-2.61-1.86a29.06,29.06,0,0,1-3.36,3.24c-.48-.51-.93-1.02-1.35-1.56,1.23-.9,2.61-2.07,3.84-3.18l-2.7-1.92a28.33,28.33,0,0,1-2.67,2.79,20.839,20.839,0,0,1-1.5-3.21l-3.21.9a27.446,27.446,0,0,0,5.46,9.18H-91.44a20.562,20.562,0,0,0,4.89-7.98l-2.4-1.11-.63.12h-7.83v3.06h6.12a16.781,16.781,0,0,1-1.89,2.7c-.84-.72-1.98-1.59-2.88-2.22l-2.25,1.86a32.019,32.019,0,0,1,2.97,2.55,18.561,18.561,0,0,1-4.98,3.09,15.514,15.514,0,0,1,2.16,2.7,24.521,24.521,0,0,0,3.99-2.37v.99h2.52v3.39h-6.42v3.27h5.94c-.75,2.01-2.55,3.87-6.69,5.13a13.6,13.6,0,0,1,2.28,2.85c5.55-1.86,7.53-4.83,8.19-7.98h3.96v3.27c0,3.33.81,4.38,4.05,4.38h3.27c2.64,0,3.57-1.2,3.93-5.16a8.883,8.883,0,0,1-3.21-1.41c-.12,2.82-.27,3.42-1.05,3.42h-2.31c-.84,0-.96-.18-.96-1.26V-5.25h6.39V-8.52h-6.39v-3.39Zm32.04,1.02a39.413,39.413,0,0,1-4.71,3.6,18.829,18.829,0,0,1-1.8-4.02h9.54v-3.03H-54.39v-1.68H-45v-2.85h-9.39V-20.4h10.56v-3.03H-54.39v-1.98h-3.57v1.98H-68.28v3.03h10.32v1.53h-8.91v2.85h8.91v1.68H-69.39v3.03h9.12A34.082,34.082,0,0,1-70.5-6.72a18.471,18.471,0,0,1,2.28,2.88,34.386,34.386,0,0,0,4.98-1.98v4.29c-1.5.3-2.91.57-4.08.78l1.05,3.3C-62.55,1.74-57.51.69-52.8-.42l-.33-3.24c-2.16.48-4.41.96-6.54,1.41V-7.83a27.227,27.227,0,0,0,3.93-3.03C-53.76-4.2-50.46.36-44.13,2.52A14.391,14.391,0,0,1-41.82-.66a14.671,14.671,0,0,1-7.05-4.26,62.556,62.556,0,0,0,5.94-3.75Zm23.4-3.99a49.018,49.018,0,0,0,7.95-6.45l-3.21-2.91a31.663,31.663,0,0,1-7.83,6.78,46.089,46.089,0,0,1-13.65,5.43l2.16,3.66a58.654,58.654,0,0,0,10.32-4.08v9.84a33.6,33.6,0,0,1-.21,3.93h4.74a20.625,20.625,0,0,1-.27-3.93Zm32.67-5.91L7.56-19.71a28.28,28.28,0,0,1,2.73,4.89l2.7-1.17A47.872,47.872,0,0,0,10.17-20.79Zm4.02-1.65-2.58,1.17a31.387,31.387,0,0,1,2.88,4.77l2.61-1.26A43.666,43.666,0,0,0,14.19-22.44ZM-10.02-8.52l3.54,3.63c.51-.78,1.23-1.86,1.92-2.79C-3.33-9.33-1.17-12.3,0-13.8c.87-1.08,1.38-1.08,2.43-.18A65.526,65.526,0,0,1,7.95-8.04c1.77,2.07,4.5,5.4,6.42,7.86l3.21-3.48c-2.16-2.49-5.37-5.91-7.38-8.1a78.077,78.077,0,0,0-6.12-6.09C1.62-19.92,0-19.71-1.8-17.58c-2.04,2.46-4.38,5.4-5.76,6.78C-8.46-9.9-9.12-9.27-10.02-8.52ZM26.13-22.8l-2.82,3a62.377,62.377,0,0,1,7.5,6.48l3.06-3.15A63,63,0,0,0,26.13-22.8ZM22.38-2.82,24.9,1.14A32.489,32.489,0,0,0,36.03-3.09a31.9,31.9,0,0,0,11.1-11.1l-2.34-4.23A28.447,28.447,0,0,1,33.87-6.75,30.92,30.92,0,0,1,22.38-2.82Zm52.59-8.22a97.981,97.981,0,0,0-12.54-4.65V-20.1a32.626,32.626,0,0,1,.27-3.63H58.02a20.923,20.923,0,0,1,.3,3.63V-2.88a32.1,32.1,0,0,1-.3,4.17H62.7c-.12-1.2-.27-3.3-.27-4.17v-8.49A86.651,86.651,0,0,1,73.26-6.9ZM89.52-21.72v1.53H84.81v-1.53Zm-4.71,5.49v-1.65h4.71v1.65Zm8.07,2.58V-24.27H81.33V2.61h3.48V-13.65Zm-.48,6.6V-9.3h2.79v2.25Zm9.21,2.91V-7.05h-3.3V-9.3h2.82v-2.82H86.64V-9.3h2.73v2.25H86.22v2.91h3.03A7.029,7.029,0,0,1,86.19.54a13.5,13.5,0,0,1,2.28,2.04,9.772,9.772,0,0,0,3.84-6.72h2.88V2.04h3.12V-4.14ZM98.25-16.17v-1.71h4.86v1.71Zm4.86-5.55v1.53H98.25v-1.53Zm3.51-2.55H94.86v10.68h8.25v12c0,.42-.15.6-.63.6-.45.03-1.92.03-3.27-.03a12.685,12.685,0,0,1,1.08,3.54c2.28,0,3.84-.09,4.92-.69,1.08-.57,1.41-1.56,1.41-3.39ZM124.17-3.24h3.78v1.92h-3.78ZM123-17.79h6.09a22.608,22.608,0,0,1-.87,2.94h-3.84a21.361,21.361,0,0,0,1.05-2.22Zm4.95,7.5h-3.78v-1.8h3.78Zm0,4.47h-3.78V-7.68h3.78Zm9.84,4.5h-6.45V-3.24h5.28V-5.82h-5.28V-7.68h5.28v-2.61h-5.28v-1.8h6.09v-2.76h-5.76l1.11-2.16-3.42-.78h7.8v-6.57h-3.42v3.57h-3.66v-4.44h-3.54v4.44h-3.39v-3.57h-3.27v6.57h2.07a19.377,19.377,0,0,1-5.37,7.32v-7.59a47.815,47.815,0,0,0,2.88-6.18l-3.39-1.08a31.884,31.884,0,0,1-6.81,11.25,22.6,22.6,0,0,1,1.89,3.69,27.568,27.568,0,0,0,2.04-2.4V2.55h3.39V-10.23a24.249,24.249,0,0,1,2.52,2.4,22.588,22.588,0,0,0,1.65-1.71V2.52h3.42V1.44h13.62Zm5.22-6.24h2.88l.63-11.07.15-4.17h-4.44l.15,4.17ZM144.45.42a2.781,2.781,0,0,0,2.76-2.88,2.781,2.781,0,0,0-2.76-2.88,2.757,2.757,0,0,0-2.73,2.88A2.757,2.757,0,0,0,144.45.42Zm9.66-7.98h2.88l.63-11.07.15-4.17h-4.44l.15,4.17ZM155.55.42a2.781,2.781,0,0,0,2.76-2.88,2.781,2.781,0,0,0-2.76-2.88,2.757,2.757,0,0,0-2.73,2.88A2.757,2.757,0,0,0,155.55.42Z" transform="matrix(0.985, -0.174, 0.174, 0.985, 503.814, 215.506)" fill="#fff"/>
  </g>
</svg>
