<svg xmlns="http://www.w3.org/2000/svg" width="280" height="109.733" viewBox="0 0 280 109.733">
  <g id="グループ_739" data-name="グループ 739" transform="translate(-304 -128)">
    <path id="合体_4" data-name="合体 4" d="M260,0l13.164,31.63L260,63.259ZM13.165,63.259,0,31.63,13.165,0H260V63.259Z" transform="matrix(0.985, -0.174, 0.174, 0.985, 304, 175.435)" fill="#d7515e"/>
    <path id="多角形_5" data-name="多角形 5" d="M12.939,0,25.879,22.285H0Z" transform="matrix(-0.966, 0.259, -0.259, -0.966, 530.726, 211.253)" fill="#d7515e"/>
    <path id="パス_673" data-name="パス 673" d="M-87.256,0h3.848V-7.8h6.838v-3.224h-6.838v-5.018H-75.4v-3.2H-87.256Zm15.418,0h3.8V-14.56h-3.8Zm1.924-16.9a2.117,2.117,0,0,0,2.262-2.08,2.086,2.086,0,0,0-2.262-2.08A2.1,2.1,0,0,0-72.2-18.98,2.125,2.125,0,0,0-69.914-16.9Zm6.5,16.9h3.8V-10.01c1.092-1.066,1.846-1.638,3.042-1.638,1.43,0,2.054.806,2.054,3.042V0H-50.7V-9.074c0-3.666-1.352-5.85-4.5-5.85a6.711,6.711,0,0,0-4.732,2.288h-.1l-.26-1.924h-3.12ZM-42.64.364A6.846,6.846,0,0,0-38.246-1.56h.078L-37.882,0h3.12V-8.5c0-4.212-1.9-6.422-5.59-6.422A11.632,11.632,0,0,0-46.436-13l1.378,2.522a8.226,8.226,0,0,1,4-1.378c1.794,0,2.418,1.092,2.47,2.522-5.85.624-8.372,2.262-8.372,5.382A4.136,4.136,0,0,0-42.64.364Zm1.248-2.99c-1.118,0-1.924-.494-1.924-1.638,0-1.3,1.2-2.262,4.732-2.73v2.938A3.86,3.86,0,0,1-41.392-2.626ZM-26.754.364A5.2,5.2,0,0,0-24.778.026l-.468-2.834a2.154,2.154,0,0,1-.52.052c-.364,0-.78-.286-.78-1.144V-20.748h-3.8V-4.082C-30.342-1.378-29.406.364-26.754.364ZM-11.05-16.2h2.5c2.47,0,3.822.7,3.822,2.782,0,2.054-1.352,3.094-3.822,3.094h-2.5ZM-.13,0l-4.5-7.878A5.508,5.508,0,0,0-.962-13.416c0-4.42-3.2-5.824-7.228-5.824H-14.9V0h3.848V-7.28h2.678L-4.42,0ZM9.048.364a9.185,9.185,0,0,0,5.1-1.612l-1.3-2.34A6,6,0,0,1,9.568-2.574a3.826,3.826,0,0,1-4.03-3.64h8.97a7.1,7.1,0,0,0,.182-1.742c0-4.03-2.08-6.968-6.084-6.968-3.484,0-6.786,2.938-6.786,7.67C1.82-2.47,4.992.364,9.048.364Zm-3.562-9.1c.286-2.132,1.638-3.224,3.172-3.224,1.872,0,2.756,1.248,2.756,3.224Zm17.03,9.1c3.8,0,5.8-2.054,5.8-4.6,0-2.7-2.132-3.666-4.056-4.394-1.534-.572-2.964-.962-2.964-2.028,0-.832.624-1.4,1.924-1.4a5.605,5.605,0,0,1,3.146,1.248L28.08-13.13a8.15,8.15,0,0,0-4.966-1.794c-3.276,0-5.408,1.846-5.408,4.472,0,2.418,2.132,3.536,3.978,4.238,1.534.6,3.042,1.092,3.042,2.184,0,.91-.65,1.534-2.106,1.534a6.321,6.321,0,0,1-3.9-1.586L16.978-1.69A9.174,9.174,0,0,0,22.516.364Zm13.546,0A5.852,5.852,0,0,0,40.716-2.08h.1L41.106,0h3.12V-14.56H40.4v9.828c-.988,1.3-1.768,1.82-2.964,1.82-1.4,0-2.028-.78-2.028-3.042V-14.56H31.59v9.1C31.59-1.82,32.942.364,36.062.364Zm16.354,0A5.2,5.2,0,0,0,54.392.026l-.468-2.834a2.154,2.154,0,0,1-.52.052c-.364,0-.78-.286-.78-1.144V-20.748h-3.8V-4.082C48.828-1.378,49.764.364,52.416.364Zm10.452,0a9.409,9.409,0,0,0,3.068-.546l-.624-2.782a4.254,4.254,0,0,1-1.43.312c-1.3,0-1.976-.78-1.976-2.444v-6.448h3.588V-14.56H61.906v-3.9h-3.2l-.442,3.9-2.236.182v2.834h2.054V-5.1C58.084-1.82,59.41.364,62.868.364Zm9.958,0c3.8,0,5.8-2.054,5.8-4.6,0-2.7-2.132-3.666-4.056-4.394C73.034-9.2,71.6-9.594,71.6-10.66c0-.832.624-1.4,1.924-1.4a5.605,5.605,0,0,1,3.146,1.248L78.39-13.13a8.15,8.15,0,0,0-4.966-1.794c-3.276,0-5.408,1.846-5.408,4.472,0,2.418,2.132,3.536,3.978,4.238,1.534.6,3.042,1.092,3.042,2.184,0,.91-.65,1.534-2.106,1.534a6.321,6.321,0,0,1-3.9-1.586L67.288-1.69A9.174,9.174,0,0,0,72.826.364ZM83.564-6.552h2.5l.546-9.594.13-3.614H82.888l.13,3.614ZM84.812.364a2.41,2.41,0,0,0,2.392-2.5,2.41,2.41,0,0,0-2.392-2.5,2.389,2.389,0,0,0-2.366,2.5A2.389,2.389,0,0,0,84.812.364Z" transform="matrix(0.985, -0.174, 0.174, 0.985, 449.217, 192.395)" fill="#fff"/>
  </g>
</svg>
