<?xml version="1.0" encoding="utf-8"?>
<!-- Generator: Adobe Illustrator 26.3.1, SVG Export Plug-In . SVG Version: 6.00 Build 0)  -->
<svg version="1.1" id="レイヤー_1" xmlns="http://www.w3.org/2000/svg" xmlns:xlink="http://www.w3.org/1999/xlink" x="0px"
	 y="0px" viewBox="0 0 280 109.7" style="enable-background:new 0 0 280 109.7;" xml:space="preserve">
<style type="text/css">
	.st0{fill:#D7515E;}
	.st1{fill:#FFFFFF;}
</style>
<g id="グループ_740" transform="translate(-304 -128)">
	<path id="合体_4" class="st0" d="M560.1,130.2l18.5,28.9l-7.5,33.4L560.1,130.2z M328,235.5l-18.5-28.9l7.5-33.4l243.1-42.9
		l11,62.3L328,235.5z"/>
	<path id="多角形_5" class="st0" d="M518.2,214.6L500,196.4l25-6.7L518.2,214.6z"/>
	<path id="パス_673" class="st1" d="M374.4,183.8c0.1,0.4,0.1,0.9,0,1.4c-0.1,0.4-0.2,0.8-0.5,1.2c-0.3,0.5-0.7,0.8-1.2,1.1
		c-0.5,0.3-1.2,0.5-1.8,0.6l-1.6,0.3l0.6,3.3l-2.6,0.5l-1.8-10l4.3-0.8c0.5-0.1,1.1-0.1,1.6-0.1c0.4,0,0.9,0.1,1.2,0.3
		c0.4,0.2,0.8,0.5,1.1,0.9C374.1,182.8,374.3,183.3,374.4,183.8z M371.7,184.4c0-0.3-0.2-0.5-0.4-0.7c-0.2-0.2-0.4-0.3-0.6-0.3
		c-0.3-0.1-0.5-0.1-0.8,0c-0.3,0-0.6,0.1-1,0.2l-0.4,0.1l0.5,3l0.7-0.1c0.4-0.1,0.7-0.1,1.1-0.3c0.3-0.1,0.5-0.2,0.7-0.4
		c0.1-0.2,0.2-0.4,0.3-0.6C371.8,184.9,371.8,184.6,371.7,184.4L371.7,184.4z M381.8,184.2l-0.2,0c-0.2,0-0.3,0-0.5,0
		c-0.2,0-0.4,0-0.6,0.1c-0.3,0.1-0.6,0.1-0.9,0.2c-0.3,0.1-0.6,0.2-0.8,0.4l0.9,5.1l-2.4,0.4l-1.3-7.6l2.4-0.4l0.2,1.1
		c0.3-0.5,0.8-0.8,1.2-1.2c0.3-0.2,0.7-0.3,1.1-0.4c0.1,0,0.2,0,0.3,0c0.1,0,0.2,0,0.3,0L381.8,184.2z M391,184.5l-5.5,1
		c0.1,0.5,0.4,1,0.9,1.2c0.6,0.3,1.3,0.3,1.9,0.1c0.5-0.1,1-0.3,1.4-0.5c0.4-0.2,0.7-0.5,1-0.8l0.3,0l0.3,1.9
		c-0.5,0.3-1,0.5-1.5,0.8c-0.5,0.2-1,0.3-1.6,0.4c-1.2,0.3-2.5,0.2-3.7-0.4c-1-0.6-1.6-1.6-1.7-2.7c-0.3-1.1,0-2.2,0.6-3.2
		c0.7-0.9,1.8-1.5,3-1.7c1-0.3,2.1-0.1,2.9,0.4c0.8,0.6,1.3,1.5,1.4,2.5L391,184.5z M388.3,183.5c-0.1-0.4-0.3-0.8-0.6-1.1
		c-0.3-0.2-0.8-0.3-1.2-0.2c-0.4,0.1-0.8,0.3-1.1,0.6c-0.3,0.4-0.4,0.8-0.3,1.3L388.3,183.5z M395.7,187.1l-2.4,0.4l-1.9-10.5
		l2.4-0.4L395.7,187.1z M400.4,186.3l-2.4,0.4l-1.3-7.6l2.4-0.4L400.4,186.3z M399,177.7l-2.6,0.5l-0.3-1.8l2.6-0.5L399,177.7z
		 M409.2,179.2l0.9,5.4l-2.4,0.4l-0.7-3.8c-0.1-0.4-0.1-0.7-0.2-0.9c0-0.2-0.1-0.4-0.3-0.6c-0.1-0.1-0.3-0.2-0.4-0.3
		c-0.2,0-0.5,0-0.7,0c-0.2,0-0.5,0.1-0.7,0.3c-0.2,0.1-0.4,0.3-0.6,0.4l0.9,5.4l-2.4,0.4l-1.3-7.6l2.4-0.4l0.1,0.8
		c0.3-0.4,0.7-0.7,1.1-1c0.4-0.3,0.8-0.4,1.2-0.5c0.5-0.1,0.9-0.1,1.4,0.1c0.4,0.2,0.8,0.4,1.1,0.8c0.4-0.5,0.8-0.9,1.2-1.2
		c0.4-0.3,0.8-0.5,1.3-0.6c0.7-0.2,1.4,0,2,0.4c0.6,0.5,0.9,1.2,1,2l0.9,4.9l-2.4,0.4l-0.7-3.8c-0.1-0.4-0.1-0.7-0.2-0.9
		c0-0.2-0.1-0.4-0.3-0.6c-0.1-0.1-0.3-0.2-0.4-0.3c-0.2,0-0.5,0-0.7,0c-0.2,0-0.4,0.1-0.6,0.2C409.6,178.9,409.4,179.1,409.2,179.2
		L409.2,179.2z M419.7,182.9l-2.4,0.4l-1.3-7.6l2.4-0.4L419.7,182.9z M418.3,174.2l-2.6,0.5l-0.3-1.8l2.6-0.5L418.3,174.2z
		 M429.6,181.2l-2.4,0.4l-0.7-3.8c-0.1-0.3-0.1-0.6-0.2-0.9c-0.1-0.2-0.1-0.4-0.3-0.6c-0.1-0.1-0.3-0.3-0.5-0.3c-0.2,0-0.5,0-0.7,0
		c-0.2,0-0.4,0.1-0.7,0.2c-0.2,0.1-0.5,0.3-0.7,0.5l0.9,5.4l-2.4,0.4l-1.3-7.6l2.4-0.4l0.1,0.8c0.3-0.4,0.7-0.7,1.1-1
		c0.4-0.3,0.8-0.4,1.3-0.5c0.7-0.2,1.4,0,2,0.4c0.6,0.5,1,1.2,1.1,2L429.6,181.2z M436.1,178l-0.3-1.6c-0.3,0.1-0.7,0.2-1,0.3
		c-0.3,0.1-0.6,0.2-0.8,0.3c-0.2,0.1-0.4,0.2-0.5,0.4c-0.1,0.2-0.1,0.4-0.1,0.6c0,0.1,0.1,0.3,0.1,0.4c0.1,0.1,0.1,0.2,0.3,0.2
		c0.1,0.1,0.3,0.1,0.4,0.1c0.2,0,0.5,0,0.7-0.1c0.3,0,0.5-0.1,0.7-0.3C435.7,178.3,435.9,178.2,436.1,178z M436.3,179.1
		c-0.1,0.1-0.3,0.3-0.4,0.4c-0.1,0.2-0.3,0.3-0.5,0.4c-0.2,0.1-0.5,0.3-0.7,0.4c-0.3,0.1-0.5,0.2-0.8,0.2c-0.7,0.1-1.4,0-1.9-0.3
		c-0.6-0.3-0.9-0.9-1-1.6c-0.1-0.5-0.1-1,0.1-1.4c0.2-0.4,0.5-0.8,0.9-1c0.5-0.3,1-0.6,1.6-0.7c0.6-0.2,1.3-0.4,2-0.6l0,0
		c0-0.4-0.3-0.7-0.7-0.8c-0.5-0.1-1-0.1-1.6,0c-0.4,0.1-0.9,0.2-1.2,0.4c-0.4,0.2-0.7,0.4-0.9,0.5l-0.2,0l-0.3-1.8
		c0.2-0.1,0.6-0.3,1.2-0.5c0.6-0.2,1.1-0.3,1.7-0.4c1-0.3,2.1-0.2,3.1,0.1c0.7,0.4,1.2,1,1.3,1.8l0.9,5.1l-2.4,0.4L436.3,179.1z
		 M445.6,172.9l-0.2,0c-0.2,0-0.3,0-0.5,0c-0.2,0-0.4,0-0.6,0.1c-0.3,0.1-0.6,0.1-0.9,0.2c-0.3,0.1-0.6,0.2-0.8,0.4l0.9,5.1
		l-2.4,0.4l-1.3-7.6l2.4-0.4l0.2,1.1c0.3-0.5,0.8-0.8,1.2-1.2c0.3-0.2,0.7-0.3,1.1-0.4c0.1,0,0.2,0,0.3,0c0.1,0,0.2,0,0.3,0
		L445.6,172.9z M450.9,174.6l0.9-5.2l2.5-0.4l-2.4,11.1l-2.6,0.5l0.7-3l-4.3-7l2.5-0.4L450.9,174.6z M466.1,167.5
		c0-0.2-0.1-0.4-0.3-0.6c-0.2-0.2-0.4-0.3-0.6-0.3c-0.2,0-0.4,0-0.6,0c-0.2,0-0.5,0.1-0.8,0.1l-0.9,0.2l0.5,2.7l0.8-0.1
		c0.3-0.1,0.7-0.1,1-0.2c0.2-0.1,0.5-0.2,0.7-0.4c0.1-0.2,0.3-0.3,0.3-0.5C466.2,168,466.2,167.8,466.1,167.5z M471.4,173.8
		l-3.2,0.6l-3.4-3.2l-1.2,0.2l0.6,3.7l-2.6,0.5l-1.8-10l4.3-0.8c0.5-0.1,1-0.2,1.5-0.2c0.4,0,0.9,0.1,1.3,0.2
		c0.4,0.1,0.8,0.4,1.1,0.7c0.3,0.4,0.5,0.8,0.6,1.3c0.1,0.6,0.1,1.3-0.2,1.9c-0.3,0.6-0.7,1.1-1.3,1.4L471.4,173.8z M479.3,168.9
		l-5.5,1c0.1,0.5,0.4,1,0.9,1.2c0.6,0.3,1.3,0.3,1.9,0.1c0.5-0.1,1-0.3,1.4-0.5c0.4-0.2,0.7-0.5,1-0.8l0.3,0l0.3,1.9
		c-0.5,0.3-1,0.5-1.5,0.8c-0.5,0.2-1,0.3-1.6,0.4c-1.2,0.3-2.5,0.2-3.7-0.4c-1-0.6-1.6-1.6-1.7-2.7c-0.3-1.1,0-2.2,0.6-3.2
		c0.7-0.9,1.8-1.5,3-1.7c1-0.3,2.1-0.1,2.9,0.4c0.8,0.6,1.3,1.5,1.4,2.5L479.3,168.9z M476.6,168c-0.1-0.4-0.3-0.8-0.6-1.1
		c-0.3-0.2-0.8-0.3-1.2-0.2c-0.4,0.1-0.8,0.3-1.1,0.6c-0.3,0.4-0.4,0.8-0.3,1.3L476.6,168z M487.7,168.4c0.1,0.8-0.1,1.6-0.7,2.1
		c-0.8,0.7-1.7,1.1-2.7,1.2c-0.6,0.1-1.2,0.2-1.9,0.1c-0.5,0-0.9-0.1-1.4-0.2l-0.4-2l0.2,0c0.1,0.1,0.3,0.1,0.5,0.2
		c0.2,0.1,0.5,0.2,0.7,0.2c0.3,0.1,0.6,0.1,0.9,0.1c0.3,0,0.7,0,1-0.1c0.4,0,0.7-0.2,1-0.3c0.2-0.1,0.3-0.3,0.3-0.5
		c0-0.2-0.1-0.3-0.3-0.4c-0.3-0.1-0.5-0.1-0.8-0.1c-0.2,0-0.4,0-0.8,0c-0.3,0-0.6,0-0.9,0c-0.6,0-1.2-0.2-1.7-0.6
		c-0.4-0.3-0.7-0.8-0.7-1.3c-0.1-0.7,0.1-1.5,0.7-2c0.8-0.7,1.7-1.1,2.7-1.2c0.5-0.1,1.1-0.1,1.7-0.1c0.4,0,0.9,0.1,1.3,0.2l0.3,1.9
		l-0.2,0c-0.4-0.2-0.9-0.3-1.3-0.4c-0.5-0.1-1-0.1-1.4,0c-0.3,0.1-0.7,0.2-1,0.3c-0.2,0.2-0.4,0.3-0.3,0.5c0,0.2,0.1,0.3,0.3,0.4
		c0.3,0.1,0.6,0.1,0.9,0.1c0.3,0,0.5,0,0.8,0c0.3,0,0.6,0,0.9,0c0.6,0,1.1,0.2,1.6,0.5C487.4,167.5,487.6,167.9,487.7,168.4z
		 M497.3,169.2l-2.4,0.4l-0.1-0.8c-0.3,0.4-0.7,0.7-1.1,1c-0.4,0.3-0.8,0.4-1.3,0.5c-0.7,0.2-1.5,0-2.1-0.4c-0.6-0.5-1-1.2-1.1-2
		l-0.9-4.9l2.4-0.4l0.7,3.8c0.1,0.4,0.1,0.7,0.2,0.9c0.1,0.2,0.1,0.4,0.3,0.6c0.1,0.1,0.3,0.3,0.5,0.3c0.2,0,0.5,0,0.7,0
		c0.2,0,0.5-0.1,0.7-0.2c0.2-0.1,0.5-0.3,0.7-0.5l-0.9-5.4l2.4-0.4L497.3,169.2z M502,168.4l-2.4,0.4l-1.9-10.5l2.4-0.4L502,168.4z
		 M509.1,167c-0.3,0.1-0.5,0.2-0.8,0.3c-0.3,0.1-0.7,0.2-1.1,0.2c-0.7,0.2-1.5,0.1-2.2-0.2c-0.6-0.4-1-1.1-1-1.8l-0.6-3.5l-1,0.2
		l-0.3-1.6l1-0.2l-0.4-2.2l2.4-0.4l0.4,2.2l2.3-0.4l0.3,1.6l-2.3,0.4l0.5,2.7c0,0.3,0.1,0.5,0.1,0.7c0,0.2,0.1,0.4,0.2,0.5
		c0.1,0.1,0.2,0.3,0.4,0.3c0.2,0.1,0.5,0.1,0.7,0c0.2,0,0.3-0.1,0.5-0.2c0.1-0.1,0.3-0.1,0.4-0.2l0.2,0L509.1,167z M516.7,163.3
		c0.1,0.8-0.1,1.6-0.7,2.1c-0.8,0.7-1.7,1.1-2.7,1.2c-0.6,0.1-1.2,0.2-1.9,0.1c-0.5,0-0.9-0.1-1.4-0.2l-0.4-2l0.2,0
		c0.1,0.1,0.3,0.1,0.5,0.2c0.2,0.1,0.5,0.2,0.7,0.2c0.3,0.1,0.6,0.1,0.9,0.1c0.3,0,0.7,0,1-0.1c0.4,0,0.7-0.2,1-0.3
		c0.2-0.1,0.3-0.3,0.3-0.5c0-0.2-0.1-0.3-0.3-0.4c-0.3-0.1-0.5-0.1-0.8-0.1c-0.2,0-0.4,0-0.8,0c-0.3,0-0.6,0-0.9,0
		c-0.6,0-1.2-0.2-1.7-0.6c-0.4-0.3-0.7-0.8-0.7-1.3c-0.1-0.7,0.1-1.5,0.7-2c0.8-0.7,1.7-1.1,2.7-1.2c0.5-0.1,1.1-0.1,1.7-0.1
		c0.4,0,0.9,0.1,1.3,0.2l0.3,1.9l-0.2,0c-0.4-0.2-0.9-0.3-1.3-0.4c-0.5-0.1-1-0.1-1.4,0c-0.3,0.1-0.7,0.2-1,0.3
		c-0.2,0.2-0.4,0.3-0.3,0.5c0,0.2,0.1,0.3,0.3,0.4c0.3,0.1,0.6,0.1,0.9,0.1c0.3,0,0.5,0,0.8,0s0.6,0,0.9,0c0.6,0,1.1,0.2,1.6,0.5
		C516.4,162.4,516.6,162.8,516.7,163.3z M399.1,207.2l-2.7,0.5l-1-1.9l-3.7,0.7l-0.3,2.2l-2.6,0.5l1.9-10.7l3-0.5L399.1,207.2z
		 M394.4,204l-1.9-3.4l-0.6,3.8L394.4,204z M408,205.6l-2.4,0.4l-0.7-3.8c-0.1-0.3-0.1-0.6-0.2-0.9c-0.1-0.2-0.1-0.4-0.3-0.6
		c-0.1-0.1-0.3-0.3-0.5-0.3c-0.2,0-0.5,0-0.7,0c-0.2,0-0.4,0.1-0.7,0.2c-0.2,0.1-0.5,0.3-0.7,0.5l0.9,5.4l-2.4,0.4l-1.3-7.6l2.4-0.4
		l0.1,0.8c0.3-0.4,0.7-0.7,1.1-1c0.4-0.3,0.8-0.4,1.3-0.5c0.7-0.2,1.4,0,2,0.4c0.6,0.5,1,1.2,1.1,2L408,205.6z M417.8,203.9
		l-2.4,0.4l-0.7-3.8c-0.1-0.3-0.1-0.6-0.2-0.9c-0.1-0.2-0.1-0.4-0.3-0.6c-0.1-0.1-0.3-0.3-0.5-0.3c-0.2,0-0.5,0-0.7,0
		c-0.2,0-0.4,0.1-0.7,0.2c-0.2,0.1-0.5,0.3-0.7,0.5l0.9,5.4l-2.4,0.4l-1.3-7.6l2.4-0.4l0.1,0.8c0.3-0.4,0.7-0.7,1.1-1
		c0.4-0.3,0.8-0.4,1.3-0.5c0.7-0.2,1.4,0,2,0.4c0.6,0.5,1,1.2,1.1,2L417.8,203.9z M427.1,198.3c0.3,1.1,0,2.2-0.6,3.1
		c-0.7,0.9-1.7,1.5-2.9,1.6c-1.1,0.3-2.3,0.1-3.2-0.5c-0.9-0.7-1.5-1.6-1.6-2.7c-0.3-1.1,0-2.2,0.6-3.1c0.7-0.9,1.7-1.5,2.9-1.6
		c1.1-0.3,2.3-0.1,3.3,0.5C426.4,196.2,427,197.2,427.1,198.3z M424.5,200.7c0.1-0.2,0.2-0.5,0.2-0.8c0-0.4,0-0.8-0.1-1.1
		c-0.1-0.4-0.2-0.7-0.3-1.1c-0.1-0.2-0.3-0.5-0.5-0.7c-0.2-0.2-0.4-0.3-0.6-0.3c-0.2,0-0.5,0-0.7,0c-0.2,0-0.4,0.1-0.6,0.2
		c-0.2,0.1-0.3,0.3-0.5,0.5c-0.1,0.2-0.2,0.5-0.2,0.8c0,0.4,0,0.8,0.1,1.2c0.1,0.4,0.2,0.7,0.3,1.1c0.1,0.3,0.3,0.5,0.5,0.7
		c0.2,0.1,0.4,0.2,0.6,0.3c0.2,0,0.5,0,0.7,0c0.2,0,0.4-0.1,0.6-0.2C424.2,201.1,424.4,200.9,424.5,200.7z M437,200.5l-2.4,0.4
		l-0.1-0.8c-0.3,0.4-0.7,0.7-1.1,1c-0.4,0.3-0.8,0.4-1.3,0.5c-0.7,0.2-1.5,0-2.1-0.4c-0.6-0.5-1-1.2-1.1-2l-0.9-4.9l2.4-0.4l0.7,3.8
		c0.1,0.4,0.1,0.7,0.2,0.9c0.1,0.2,0.1,0.4,0.3,0.6c0.1,0.1,0.3,0.3,0.5,0.3c0.2,0,0.5,0,0.7,0c0.2,0,0.5-0.1,0.7-0.2
		c0.2-0.1,0.5-0.3,0.7-0.5l-0.9-5.4l2.4-0.4L437,200.5z M446.9,198.7l-2.4,0.4l-0.7-3.8c-0.1-0.3-0.1-0.6-0.2-0.9
		c-0.1-0.2-0.1-0.4-0.3-0.6c-0.1-0.1-0.3-0.3-0.5-0.3c-0.2,0-0.5,0-0.7,0c-0.2,0-0.4,0.1-0.7,0.2c-0.2,0.1-0.5,0.3-0.7,0.5l0.9,5.4
		l-2.4,0.4l-1.3-7.6l2.4-0.4l0.1,0.8c0.3-0.4,0.7-0.7,1.1-1c0.4-0.3,0.8-0.4,1.3-0.5c0.7-0.2,1.4,0,2,0.4c0.6,0.5,1,1.2,1.1,2
		L446.9,198.7z M453.1,197.8c-0.6,0.1-1.2,0.1-1.8,0.1c-0.5-0.1-1.1-0.2-1.6-0.5c-0.5-0.3-0.9-0.6-1.1-1.1c-0.3-0.5-0.5-1.1-0.6-1.7
		c-0.1-0.6-0.1-1.3,0-1.9c0.1-0.5,0.4-1,0.8-1.4c0.4-0.4,0.8-0.7,1.3-1c0.5-0.2,1.1-0.4,1.6-0.5c0.5-0.1,1-0.1,1.5-0.1
		c0.4,0,0.9,0.1,1.3,0.2l0.4,2.1l-0.3,0.1c-0.1-0.1-0.2-0.1-0.4-0.2c-0.2-0.1-0.4-0.2-0.5-0.2c-0.2-0.1-0.4-0.1-0.6-0.1
		c-0.3,0-0.5,0-0.8,0c-0.6,0.1-1.1,0.4-1.4,0.9c-0.3,0.5-0.4,1.2-0.2,1.8c0.1,0.6,0.4,1.2,0.8,1.6c0.5,0.3,1.1,0.4,1.6,0.3
		c0.3,0,0.6-0.1,0.8-0.3c0.2-0.1,0.4-0.2,0.6-0.4c0.1-0.1,0.2-0.2,0.4-0.4c0.1-0.1,0.2-0.2,0.3-0.3l0.3-0.1l0.4,2.1
		c-0.4,0.2-0.7,0.5-1.1,0.6C454.1,197.6,453.6,197.8,453.1,197.8z M464.1,192.3l-5.5,1c0.1,0.5,0.4,1,0.9,1.2
		c0.6,0.3,1.3,0.3,1.9,0.1c0.5-0.1,1-0.3,1.4-0.5c0.4-0.2,0.7-0.5,1-0.8l0.3,0l0.3,1.9c-0.5,0.3-1,0.5-1.5,0.8
		c-0.5,0.2-1,0.3-1.6,0.4c-1.2,0.3-2.5,0.2-3.7-0.4c-1-0.6-1.6-1.6-1.7-2.7c-0.3-1.1,0-2.2,0.6-3.2c0.7-0.9,1.8-1.5,3-1.7
		c1-0.3,2.1-0.1,2.9,0.4c0.8,0.6,1.3,1.5,1.4,2.5L464.1,192.3z M461.5,191.3c-0.1-0.4-0.3-0.8-0.6-1.1c-0.3-0.2-0.8-0.3-1.2-0.2
		c-0.4,0.1-0.8,0.3-1.1,0.6c-0.3,0.4-0.4,0.8-0.3,1.3L461.5,191.3z M472.9,188.6l0.9,5.4l-2.4,0.4l-0.7-3.8
		c-0.1-0.4-0.1-0.7-0.2-0.9c0-0.2-0.1-0.4-0.3-0.6c-0.1-0.1-0.3-0.2-0.4-0.3c-0.2,0-0.5,0-0.7,0c-0.2,0-0.5,0.1-0.7,0.3
		c-0.2,0.1-0.4,0.3-0.6,0.4l0.9,5.4l-2.4,0.4l-1.3-7.6l2.4-0.4l0.1,0.8c0.3-0.4,0.7-0.7,1.1-1c0.4-0.3,0.8-0.4,1.2-0.5
		c0.5-0.1,0.9-0.1,1.4,0.1c0.4,0.2,0.8,0.4,1.1,0.8c0.4-0.5,0.8-0.9,1.2-1.2c0.4-0.3,0.8-0.5,1.3-0.6c0.7-0.2,1.4,0,2,0.4
		c0.6,0.5,0.9,1.2,1,2l0.9,4.9l-2.4,0.4l-0.7-3.8c-0.1-0.4-0.1-0.7-0.2-0.9c0-0.2-0.1-0.4-0.3-0.6c-0.1-0.1-0.3-0.2-0.4-0.3
		c-0.2,0-0.5,0-0.7,0c-0.2,0-0.4,0.1-0.6,0.2C473.3,188.3,473.1,188.4,472.9,188.6z M487.9,188.1l-5.6,1c0.1,0.5,0.4,1,0.9,1.2
		c0.6,0.3,1.3,0.3,1.9,0.1c0.5-0.1,1-0.3,1.4-0.5c0.4-0.2,0.7-0.5,1-0.8l0.3,0l0.3,1.9c-0.5,0.3-1,0.5-1.5,0.8
		c-0.5,0.2-1,0.3-1.6,0.4c-1.2,0.3-2.5,0.2-3.7-0.4c-1-0.6-1.6-1.6-1.7-2.7c-0.3-1.1,0-2.3,0.6-3.2c0.7-0.9,1.8-1.5,3-1.7
		c1-0.3,2.1-0.1,2.9,0.4c0.8,0.6,1.3,1.5,1.4,2.5L487.9,188.1z M485.2,187.1c-0.1-0.4-0.3-0.8-0.6-1.1c-0.3-0.2-0.8-0.3-1.2-0.2
		c-0.4,0.1-0.8,0.3-1.1,0.6c-0.3,0.4-0.4,0.8-0.3,1.3L485.2,187.1z M497.8,189.8l-2.4,0.4l-0.7-3.8c-0.1-0.3-0.1-0.6-0.2-0.9
		c-0.1-0.2-0.1-0.4-0.3-0.6c-0.1-0.1-0.3-0.3-0.5-0.3c-0.2,0-0.5,0-0.7,0c-0.2,0-0.4,0.1-0.7,0.2c-0.2,0.1-0.5,0.3-0.7,0.5l0.9,5.4
		l-2.4,0.4l-1.3-7.6l2.4-0.4l0.1,0.8c0.3-0.4,0.7-0.7,1.1-1c0.4-0.3,0.8-0.4,1.3-0.5c0.7-0.2,1.4,0,2,0.4c0.6,0.5,1,1.2,1.1,2
		L497.8,189.8z M504.8,188.4c-0.3,0.1-0.5,0.2-0.8,0.3c-0.3,0.1-0.7,0.2-1.1,0.2c-0.7,0.2-1.5,0.1-2.2-0.2c-0.6-0.4-1-1.1-1-1.8
		l-0.6-3.5l-1,0.2l-0.3-1.6l1-0.2l-0.4-2.2l2.4-0.4l0.4,2.2l2.3-0.4l0.3,1.6l-2.3,0.4l0.5,2.7c0,0.3,0.1,0.5,0.1,0.7
		c0,0.2,0.1,0.4,0.2,0.5c0.1,0.1,0.2,0.3,0.4,0.3c0.2,0.1,0.5,0.1,0.7,0c0.3-0.1,0.6-0.2,0.9-0.4l0.2,0L504.8,188.4z"/>
</g>
</svg>
