<svg xmlns="http://www.w3.org/2000/svg" width="389.508" height="152.649" viewBox="0 0 389.508 152.649">
  <g id="グループ_739" data-name="グループ 739" transform="translate(-304 -128)">
    <path id="合体_4" data-name="合体 4" d="M-4111.313,0-4093,44l-18.313,44Zm-343.373,88L-4473,44l18.314-44h343.373V88Z" transform="matrix(0.985, -0.174, 0.174, 0.985, 4709.045, -582.742)" fill="#d7515e"/>
    <path id="多角形_5" data-name="多角形 5" d="M18,0,36,31H0Z" transform="matrix(-0.966, 0.259, -0.259, -0.966, 619.398, 243.813)" fill="#d7515e"/>
    <path id="パス_674" data-name="パス 674" d="M-142.14-18.54h21.66v-3.39h-10.83v-3.45h-3.72v3.45h-10.68v7.56c0,4.32-.21,10.62-2.67,14.91a16.57,16.57,0,0,1,3.09,2.01c2.7-4.68,3.15-12.09,3.15-16.92Zm15.75,4.44a39.41,39.41,0,0,0-7.26-4.38l-2.37,2.37a34.608,34.608,0,0,1,7.05,4.68ZM-139.5,0c1.35-2.4,1.89-6.36,2.22-9.81l-3.21-.69c-.3,3.33-.93,6.81-2.19,9.09Zm7.77-1.14c-.84,0-.96-.15-.96-1.23V-12.81h-3.54V-2.34c0,3.33.75,4.38,3.93,4.38h3.33c2.79,0,3.69-1.44,4.02-6.57a9.39,9.39,0,0,1-3.15-1.44c-.12,4.14-.3,4.83-1.2,4.83Zm4.83-8.91A35.669,35.669,0,0,1-123.24-.03l3.51-1.44a35.742,35.742,0,0,0-3.99-9.81Zm16.68-9.9h3.48V-21h6.42v1.05h3.51V-21h6.33v-2.82h-6.33v-1.56h-3.51v1.56h-6.42v-1.56h-3.48v1.56h-6.3V-21h6.3Zm4.35,13.2c-.09.57-.18,1.08-.3,1.56h-3.69a15.494,15.494,0,0,0,2.34-2.01h8.04a16.723,16.723,0,0,0,2.1,2.01h-5.34a13.018,13.018,0,0,0,.27-1.56Zm-4.38-7.56h13.5v1.2h-13.5Zm0-3.12h13.5v1.17h-13.5ZM-90.06-7.2V-9.96h-15.36c.21-.36.39-.72.57-1.08h11.7V-19.5h-20.52v8.46h5.13a11.254,11.254,0,0,1-.72,1.08h-7.65V-7.2h4.68a20.4,20.4,0,0,1-5.61,2.52,7.953,7.953,0,0,1,2.04,2.52,30.581,30.581,0,0,0,3.45-1.5v1.02h4.8c-1.17,1.23-3.24,2.1-6.93,2.67a9.954,9.954,0,0,1,1.71,2.73c5.43-1.08,7.95-2.79,9.21-5.4h5.13a3.987,3.987,0,0,1-.63,2.16,1.314,1.314,0,0,1-.96.27c-.51,0-1.68-.03-2.88-.15a6.6,6.6,0,0,1,.87,2.79,33.8,33.8,0,0,0,3.6-.03,3.561,3.561,0,0,0,2.19-.87c.66-.69,1.02-2.13,1.29-5.04a18.909,18.909,0,0,0,3.63,1.68,14,14,0,0,1,2.28-2.85A20.182,20.182,0,0,1-95.13-7.2Zm4.17-.66A21.865,21.865,0,0,1-87.42-.9,15.924,15.924,0,0,1-84.93.3a26.27,26.27,0,0,0,1.8-7.71Zm6.21.57A22.167,22.167,0,0,1-78.3-1.77l2.49-.81a21.422,21.422,0,0,0-1.53-5.4Zm19.29-3.69h-5.67v-2.46h-3.21v2.46h-5.4V-.06h3.12V-8.1h2.28V2.61h3.21V-8.1h2.58v4.56c0,.24-.09.33-.36.33a17.9,17.9,0,0,1-1.83,0A10.921,10.921,0,0,1-64.8-.18a6.11,6.11,0,0,0,3.36-.57c.87-.51,1.05-1.38,1.05-2.73Zm-4.95-9c-.3.93-.69,2.01-1.05,2.88h-2.7a18.427,18.427,0,0,0-.9-2.88Zm-16.41,7.35c.54-.69,1.05-1.44,1.59-2.22a18.69,18.69,0,0,1,.9,2.07Zm18.81-4.47c.39-.84.84-1.83,1.32-2.88h2.13v-2.97h-6.39v-2.46h-3.57v2.46h-6.39v2.97h2.61l-.12.03a17.53,17.53,0,0,1,.9,2.85h-3.63v5.4a27.692,27.692,0,0,0-1.74-4.11l-2.34.96c1.32-1.89,2.61-3.9,3.72-5.73l-2.82-1.29c-.69,1.47-1.59,3.21-2.58,4.89a15.447,15.447,0,0,0-.96-1.23c1.05-1.68,2.28-4.05,3.36-6.12l-3.03-1.05a37.11,37.11,0,0,1-2.16,5.22c-.24-.24-.48-.48-.72-.69l-1.71,2.31a25.434,25.434,0,0,1,3.48,4.35c-.39.6-.81,1.2-1.2,1.74-.87.03-1.65.09-2.37.12l.36,3.09,3.96-.3V2.61h3V-9.78l1.53-.12a16.745,16.745,0,0,1,.39,1.71l2.49-1.08a17.035,17.035,0,0,0-.57-2.19h3.06v-2.76h10.56v2.76h3.33V-17.1Zm12.9,12.81c-1.08,0-1.68-.93-1.68-2.37a9.067,9.067,0,0,1,2.16-5.58,32.7,32.7,0,0,0,2.76,5.7C-47.88-5.19-48.99-4.29-50.04-4.29Zm8.13-11.91a35.4,35.4,0,0,1-2.64,6.36,29.767,29.767,0,0,1-2.1-4.71A11.583,11.583,0,0,1-41.91-16.2Zm4.83-4.23c.18-.75.45-2.19.69-3l-4.11-.39A16.033,16.033,0,0,1-40.71-21c-.09.45-.18.93-.3,1.44a15.488,15.488,0,0,0-6.72,1.77c-.21-.63-.39-1.26-.54-1.83-.24-.87-.48-1.86-.66-2.82l-3.9,1.2a21.856,21.856,0,0,1,1.2,3.09c.24.81.51,1.62.78,2.4a13.032,13.032,0,0,0-4.38,9.39c0,3.84,2.28,5.94,4.74,5.94,2.19,0,3.84-1.02,5.85-3.18.3.39.66.78,1.02,1.17l2.97-2.37c-.54-.54-1.08-1.14-1.62-1.77a36.167,36.167,0,0,0,4.02-9.45,6.364,6.364,0,0,1,4.8,6.54c0,3.72-2.55,7.05-9.09,7.62l2.28,3.42C-34.05.63-29.55-2.97-29.55-9.27a9.79,9.79,0,0,0-7.8-10.02Zm18.6,13.8c-.57,0-.63-.18-.63-1.38v-6.18l6.39-1.26-.54-3.24-5.85,1.11v-6.93h-3.51v7.62l-3.36.63.57,3.3,2.79-.54v5.49c0,3.66.69,4.77,3.51,4.77h2.49c2.37,0,3.24-1.44,3.57-5.85a8.882,8.882,0,0,1-3.15-1.44c-.09,3.18-.18,3.9-.75,3.9Zm3.78-16.56v3.42h4.5c-.12,8.46-.51,15.63-7.26,19.68a9.6,9.6,0,0,1,2.52,2.88c7.38-4.74,8.13-13.02,8.31-22.56h4.65C-2.22-7.65-2.58-2.85-3.39-1.8a1.258,1.258,0,0,1-1.17.57c-.69,0-2.1,0-3.66-.12A9.172,9.172,0,0,1-7.11,2.31a25.047,25.047,0,0,0,4.35-.09A3.855,3.855,0,0,0-.03.42C1.11-1.23,1.41-6.42,1.71-21.36c.03-.48.06-1.83.06-1.83Zm25.41-.99c-.03.84-.09,2.04-.24,3.12a72.047,72.047,0,0,0-.84,9.51A38.431,38.431,0,0,0,9.99-6.6l3.69-.24a17.84,17.84,0,0,1-.15-3.15c.15-3.9,3.21-9.18,6.72-9.18,2.46,0,3.99,2.55,3.99,7.14,0,7.2-4.62,9.36-11.22,10.38L15.27,1.8C23.13.36,28.29-3.66,28.29-12.06c0-6.54-3.21-10.59-7.35-10.59-3.36,0-5.94,2.52-7.35,4.8A48.506,48.506,0,0,1,14.79-24ZM48.81-3.93c0,1.71-1.02,2.19-2.61,2.19-2.04,0-3.09-.72-3.09-1.83,0-1.02,1.14-1.83,3.24-1.83a15.919,15.919,0,0,1,2.43.21C48.81-4.68,48.81-4.26,48.81-3.93Zm11.88.75a22.979,22.979,0,0,0-8.31-4.5c-.09-1.14-.15-2.34-.21-3.45,2.88-.09,5.19-.3,7.86-.6v-3.51c-2.43.3-4.92.57-7.92.69l.03-3.09c2.85-.15,5.25-.39,7.2-.57l-.09-3.42a62.25,62.25,0,0,1-7.08.72l.03-1.17a19.859,19.859,0,0,1,.21-2.1H48.36a11.892,11.892,0,0,1,.15,2.04v1.35H47.04a39.327,39.327,0,0,1-6.45-.57l.03,3.39a49.473,49.473,0,0,0,6.45.45h1.41v3.09H47.07a53.893,53.893,0,0,1-7.17-.54l-.03,3.51c1.98.24,5.4.39,7.14.39h1.53c.03.87.06,1.8.12,2.7a18.234,18.234,0,0,0-1.83-.09c-4.59,0-7.35,2.1-7.35,5.1,0,3.15,2.52,4.95,7.26,4.95,3.93,0,5.85-1.95,5.85-4.5,0-.3,0-.66-.03-1.05a22.5,22.5,0,0,1,6,4.11Zm10.8-20.58a18.653,18.653,0,0,1,.39,4.02c0,2.55-.3,10.35-.3,14.34,0,5.07,3.15,7.2,8.01,7.2a15.461,15.461,0,0,0,12.9-6.78l-2.7-3.33c-2.13,3.24-5.25,6.06-10.17,6.06-2.28,0-4.08-.96-4.08-3.96,0-3.69.21-10.35.36-13.53a30.488,30.488,0,0,1,.39-3.96Zm40.2,12.39a43.648,43.648,0,0,1,5.73-.33,42.912,42.912,0,0,1,5.1.36l.09-3.57a51.58,51.58,0,0,0-5.22-.27c-1.92,0-4.05.15-5.7.3Zm2.34-9.54c-1.62.39-3.3.72-4.98.99l.24-1.14c.15-.66.42-1.98.63-2.79l-4.53-.36a15.424,15.424,0,0,1-.12,3q-.09.72-.27,1.71c-.9.06-1.77.09-2.64.09a29.248,29.248,0,0,1-3.75-.24l.09,3.72c1.05.06,2.16.12,3.6.12.6,0,1.26-.03,1.95-.06-.21.84-.42,1.68-.63,2.46C102.51-9.24,100.26-3,98.49-.03l4.17,1.38a95.815,95.815,0,0,0,4.71-13.74c.33-1.2.63-2.52.9-3.81,1.98-.24,3.99-.57,5.76-.96ZM109.86-7.74a20.391,20.391,0,0,0-.51,3.96c0,3,2.55,4.74,7.56,4.74a47.54,47.54,0,0,0,6.06-.42l.15-3.81a34.442,34.442,0,0,1-6.18.6c-3.18,0-3.93-.96-3.93-2.25a10.278,10.278,0,0,1,.42-2.49Zm20.55.18h2.88l.63-11.07.15-4.17h-4.44l.15,4.17ZM131.85.42a2.781,2.781,0,0,0,2.76-2.88,2.781,2.781,0,0,0-2.76-2.88,2.757,2.757,0,0,0-2.73,2.88A2.757,2.757,0,0,0,131.85.42Zm10.26-7.98h2.88l.63-11.07.15-4.17h-4.44l.15,4.17ZM143.55.42a2.781,2.781,0,0,0,2.76-2.88,2.781,2.781,0,0,0-2.76-2.88,2.757,2.757,0,0,0-2.73,2.88A2.757,2.757,0,0,0,143.55.42Z" transform="matrix(0.985, -0.174, 0.174, 0.985, 500.814, 204.506)" fill="#fff"/>
    <path id="パス_673" data-name="パス 673" d="M-128.058-5.306a20.369,20.369,0,0,1,2.674-.154,20.026,20.026,0,0,1,2.38.168l.042-1.666a24.07,24.07,0,0,0-2.436-.126c-.9,0-1.89.07-2.66.14Zm1.092-4.452c-.756.182-1.54.336-2.324.462l.112-.532c.07-.308.2-.924.294-1.3L-131-11.3a7.2,7.2,0,0,1-.056,1.4q-.042.336-.126.8c-.42.028-.826.042-1.232.042a13.649,13.649,0,0,1-1.75-.112l.042,1.736c.49.028,1.008.056,1.68.056.28,0,.588-.014.91-.028-.1.392-.2.784-.294,1.148a30.568,30.568,0,0,1-2.394,6.244l1.946.644a44.714,44.714,0,0,0,2.2-6.412c.154-.56.294-1.176.42-1.778.924-.112,1.862-.266,2.688-.448Zm-1.946,6.146a9.516,9.516,0,0,0-.238,1.848c0,1.4,1.19,2.212,3.528,2.212a22.185,22.185,0,0,0,2.828-.2l.07-1.778a16.073,16.073,0,0,1-2.884.28c-1.484,0-1.834-.448-1.834-1.05a4.8,4.8,0,0,1,.2-1.162Zm16.3-7.882a9.576,9.576,0,0,1-1.064,1.162c-.938.924-2.842,2.464-3.92,3.346-1.386,1.148-1.5,1.918-.126,3.08,1.274,1.078,3.388,2.884,4.144,3.682.392.42.826.854,1.218,1.288l1.61-1.484c-1.372-1.33-4.046-3.444-5.082-4.326-.756-.644-.77-.8-.028-1.428.924-.8,2.758-2.212,3.654-2.94.322-.252.784-.616,1.218-.938ZM-104.3-4.55a9.4,9.4,0,0,0-.392,2.282c0,1.932,1.5,2.982,4.284,2.982A19.43,19.43,0,0,0-96.67.378l.042-1.834a15.329,15.329,0,0,1-3.78.406c-1.96,0-2.478-.686-2.478-1.694a6.222,6.222,0,0,1,.378-1.652ZM-95.256-10a20.282,20.282,0,0,1-2.716.7c-.308-.728-.574-1.386-.812-2.114l-1.96.378a10.762,10.762,0,0,1,.686,1.33c.084.21.182.434.294.658a23.621,23.621,0,0,1-5.18-.14l.056,1.778a31.149,31.149,0,0,0,5.838,0c.406.868.882,1.834,1.218,2.534-.42-.028-1.176-.112-1.638-.154L-99.624-3.6c1.022.126,2.394.35,3.15.5l.98-1.05c-.6-1.106-1.26-2.422-1.792-3.542.84-.168,1.652-.364,2.352-.56Zm10.738-.532-1.974-.8c-.252.588-.5,1.036-.686,1.414C-87.906-8.6-90.832-2.772-91.854,0l1.96.658a26.758,26.758,0,0,1,1.05-3.08c.49-1.134,1.26-2.086,2.212-2.086a.746.746,0,0,1,.812.77c.042.56.028,1.694.084,2.436A2.061,2.061,0,0,0-83.44.63C-81.3.63-80.01-.938-79.3-3.332l-1.5-1.218c-.392,1.722-1.148,3.276-2.338,3.276a.783.783,0,0,1-.882-.756c-.084-.574-.042-1.694-.07-2.31a1.674,1.674,0,0,0-1.722-1.82,3.155,3.155,0,0,0-1.582.42c.686-1.218,1.736-3.15,2.422-4.144C-84.812-10.108-84.658-10.36-84.518-10.528Zm9.94,8.008c-.518,0-1.078-.686-1.078-2.086a4.347,4.347,0,0,1,3.514-4.018,22.255,22.255,0,0,1-.742,3.36C-73.444-3.388-74-2.52-74.578-2.52ZM-70.77.574c3.5-.532,5.292-2.6,5.292-5.516a5.291,5.291,0,0,0-5.6-5.418,6.183,6.183,0,0,0-6.384,5.936c0,2.338,1.3,4.032,2.828,4.032S-71.918-2.1-71.092-4.9a30.13,30.13,0,0,0,.826-3.766A3.432,3.432,0,0,1-67.368-5a3.753,3.753,0,0,1-3.15,3.71c-.364.084-.756.154-1.288.224ZM-61.992-4.3a9.257,9.257,0,0,0-.266,2c0,1.9,1.582,2.968,4.76,2.968A22.115,22.115,0,0,0-52.682.21L-52.7-1.75a19.66,19.66,0,0,1-4.872.546c-2,0-2.828-.644-2.828-1.526a5.705,5.705,0,0,1,.224-1.4Zm7.742-6.734a10.653,10.653,0,0,1,.6,1.008c-1.064.1-2.59.182-3.92.182a35.86,35.86,0,0,1-3.766-.168v1.848c1.12.084,2.324.154,3.78.154,1.316,0,3.038-.1,4-.168V-9.842c.14.28.28.546.392.77l1.134-.49c-.266-.518-.77-1.4-1.12-1.918Zm1.652-.63A14.843,14.843,0,0,1-51.464-9.73l1.106-.476a15.454,15.454,0,0,0-1.134-1.9Zm6.006,3.01h10.108v-1.582h-5.054v-1.61h-1.736v1.61h-4.984v3.528c0,2.016-.1,4.956-1.246,6.958a7.733,7.733,0,0,1,1.442.938c1.26-2.184,1.47-5.642,1.47-7.9Zm7.35,2.072A18.391,18.391,0,0,0-42.63-8.624l-1.106,1.106a16.15,16.15,0,0,1,3.29,2.184ZM-45.36,0a12.892,12.892,0,0,0,1.036-4.578l-1.5-.322A11.589,11.589,0,0,1-46.844-.658Zm3.626-.532c-.392,0-.448-.07-.448-.574V-5.978h-1.652v4.886c0,1.554.35,2.044,1.834,2.044h1.554c1.3,0,1.722-.672,1.876-3.066a4.382,4.382,0,0,1-1.47-.672C-40.1-.854-40.18-.532-40.6-.532ZM-39.48-4.69A16.645,16.645,0,0,1-37.772-.014l1.638-.672A16.68,16.68,0,0,0-38-5.264ZM-31.7-9.31h1.624V-9.8h3v.49h1.638V-9.8h2.954v-1.316h-2.954v-.728h-1.638v.728h-3v-.728H-31.7v.728h-2.94V-9.8h2.94Zm2.03,6.16c-.042.266-.084.5-.14.728h-1.722a7.231,7.231,0,0,0,1.092-.938h3.752a7.8,7.8,0,0,0,.98.938H-28.2a6.075,6.075,0,0,0,.126-.728ZM-31.71-6.678h6.3v.56h-6.3Zm0-1.456h6.3v.546h-6.3Zm9.422,4.774V-4.648h-7.168c.1-.168.182-.336.266-.5h5.46V-9.1h-9.576v3.948h2.394a5.252,5.252,0,0,1-.336.5h-3.57V-3.36h2.184a9.519,9.519,0,0,1-2.618,1.176A3.711,3.711,0,0,1-34.3-1.008a14.271,14.271,0,0,0,1.61-.7v.476h2.24A5.526,5.526,0,0,1-33.684.014a4.645,4.645,0,0,1,.8,1.274c2.534-.5,3.71-1.3,4.3-2.52h2.394a1.861,1.861,0,0,1-.294,1.008.613.613,0,0,1-.448.126c-.238,0-.784-.014-1.344-.07a3.081,3.081,0,0,1,.406,1.3,15.774,15.774,0,0,0,1.68-.014A1.662,1.662,0,0,0-25.172.714a4.234,4.234,0,0,0,.6-2.352,8.824,8.824,0,0,0,1.694.784,6.532,6.532,0,0,1,1.064-1.33A9.418,9.418,0,0,1-24.654-3.36Zm7.266-2.156a6.77,6.77,0,0,1,1.9-.308,7.924,7.924,0,0,1-1.75,2.632,16.166,16.166,0,0,1-.154-2.3Zm-2.646,3.948c-.448,0-.644-.238-.644-.672a3.627,3.627,0,0,1,1.736-2.548,19.325,19.325,0,0,0,.294,2.772A2.946,2.946,0,0,1-17.668-1.568Zm5.138-6.5a8.019,8.019,0,0,1-.126.826h-.238a9.323,9.323,0,0,0-2.072.252c.014-.42.056-.84.1-1.246a40.283,40.283,0,0,0,4.928-.5l-.014-1.6a23.123,23.123,0,0,1-4.7.588c.042-.266.084-.518.14-.742a5.386,5.386,0,0,1,.2-.742l-1.82-.042a5.536,5.536,0,0,1-.042.826l-.084.742H-16.8a22.765,22.765,0,0,1-2.562-.182l.056,1.61c.644.028,1.722.084,2.45.084h.448c-.056.56-.1,1.148-.14,1.736-1.932.91-3.4,2.786-3.4,4.55A1.8,1.8,0,0,0-18.074.126a4.88,4.88,0,0,0,2.142-.56c.056.2.126.392.182.56l1.6-.476c-.112-.336-.224-.672-.322-1.036a10.78,10.78,0,0,0,2.926-4.2A2.062,2.062,0,0,1-10.122-3.64c0,1.358-1.092,2.7-3.766,3l.924,1.456C-9.562.308-8.4-1.61-8.4-3.556a3.579,3.579,0,0,0-2.674-3.4c.084-.266.182-.56.252-.714Zm8.708-3.22c-.014.392-.042.952-.112,1.456A33.622,33.622,0,0,0-4.326-5.39a17.935,17.935,0,0,0,.168,2.31l1.722-.112a8.326,8.326,0,0,1-.07-1.47c.07-1.82,1.5-4.284,3.136-4.284,1.148,0,1.862,1.19,1.862,3.332,0,3.36-2.156,4.368-5.236,4.844L-1.694.84C1.974.168,4.382-1.708,4.382-5.628c0-3.052-1.5-4.942-3.43-4.942a4.286,4.286,0,0,0-3.43,2.24,22.636,22.636,0,0,1,.56-2.87ZM21-10.22a16.567,16.567,0,0,0-1.134-1.9l-1.106.462A13.969,13.969,0,0,1,19.894-9.73Zm-9.408-.91A15.35,15.35,0,0,1,11.3-8.19c-.7.056-1.358.1-1.792.112a12.873,12.873,0,0,1-1.47,0L8.19-6.2c.434-.07,1.148-.168,1.54-.21.266-.042.7-.1,1.19-.154A20.564,20.564,0,0,1,8.134-.084L9.94.644a30.043,30.043,0,0,0,2.828-7.406c.392-.028.728-.056.952-.056.868,0,1.344.154,1.344,1.26a10.585,10.585,0,0,1-.56,3.794,1.019,1.019,0,0,1-1.036.6,8.09,8.09,0,0,1-1.708-.294L12.068.378a7.849,7.849,0,0,0,1.652.2A2.215,2.215,0,0,0,16-.7a13.553,13.553,0,0,0,.784-5.054c0-1.988-1.036-2.646-2.506-2.646-.28,0-.7.028-1.162.056.1-.5.21-1.008.294-1.428.07-.35.154-.784.238-1.148Zm7.742,1.554c-.28-.518-.77-1.4-1.12-1.918l-1.106.462A15.478,15.478,0,0,1,18.06-9.38l-1.288.546A15.7,15.7,0,0,1,19.11-3.612l1.764-.826a27.548,27.548,0,0,0-2.254-4.83Zm12.6-.182a9.572,9.572,0,0,1-1.274.84c-.658.364-1.862.98-3,1.638a32.5,32.5,0,0,1-1.736-3.836l-1.75.714c.63,1.47,1.3,2.94,1.946,4.13-1.33.98-2.3,2.114-2.3,3.654,0,2.38,2.086,3.15,4.844,3.15A27.115,27.115,0,0,0,33.124.2l.028-2a23.188,23.188,0,0,1-4.536.5c-1.918,0-2.884-.532-2.884-1.526,0-.966.77-1.764,1.932-2.52a42.459,42.459,0,0,1,3.864-2.058c.5-.252.952-.49,1.372-.742ZM45.388-4.606c0,2.17-2.2,3.29-5.642,3.682L40.754.812c3.85-.532,6.594-2.38,6.594-5.348,0-2.17-1.54-3.416-3.738-3.416a19.206,19.206,0,0,0-4.186.63,13.593,13.593,0,0,1-1.512.238L38.43-5.11c.406-.14.938-.35,1.344-.476a12.44,12.44,0,0,1,3.612-.672C44.688-6.272,45.388-5.516,45.388-4.606ZM39.956-11.27l-.28,1.68c1.6.28,4.606.546,6.23.658l.28-1.708A39.161,39.161,0,0,1,39.956-11.27ZM52.248-4.3a9.257,9.257,0,0,0-.266,2c0,1.9,1.582,2.968,4.76,2.968A22.115,22.115,0,0,0,61.558.21l-.014-1.96a19.66,19.66,0,0,1-4.872.546c-2,0-2.828-.644-2.828-1.526a5.705,5.705,0,0,1,.224-1.4Zm7.742-6.734a10.653,10.653,0,0,1,.6,1.008c-1.064.1-2.59.182-3.92.182a35.86,35.86,0,0,1-3.766-.168v1.848c1.12.084,2.324.154,3.78.154,1.316,0,3.038-.1,4-.168V-9.842c.14.28.28.546.392.77l1.134-.49c-.266-.518-.77-1.4-1.12-1.918Zm1.652-.63A14.843,14.843,0,0,1,62.776-9.73l1.106-.476a15.454,15.454,0,0,0-1.134-1.9Zm5.194,7.224a9.4,9.4,0,0,0-.392,2.282c0,1.932,1.5,2.982,4.284,2.982A19.3,19.3,0,0,0,74.466.49l.042-1.834a16.121,16.121,0,0,1-3.78.392c-1.96,0-2.478-.672-2.478-1.68A5.962,5.962,0,0,1,68.642-4.3Zm7.392-6.706a11.7,11.7,0,0,1,.868,1.5,19.5,19.5,0,0,1-1.932.462,21.669,21.669,0,0,1-.8-2.114l-1.974.378a9.131,9.131,0,0,1,.686,1.33l.294.658a23.621,23.621,0,0,1-5.18-.14l.056,1.778a31.306,31.306,0,0,0,5.852,0c.392.868.882,1.82,1.2,2.52-.42-.028-1.162-.1-1.638-.14l-.154,1.428c1.036.126,2.408.336,3.15.49l.98-1.036c-.6-1.106-1.26-2.422-1.778-3.542.826-.168,1.638-.364,2.352-.56l-.252-1.344.476-.21a19.258,19.258,0,0,0-1.106-1.918Zm1.666-.6a14.843,14.843,0,0,1,1.134,1.932l1.106-.49A21.9,21.9,0,0,0,77-12.208Zm6.454,1.778L80.22-10a8.035,8.035,0,0,1,.1,1.4c0,.854.028,2.464.154,3.738.392,3.724,1.722,5.1,3.234,5.1,1.12,0,1.988-.854,2.912-3.262l-1.4-1.68c-.266,1.092-.812,2.716-1.47,2.716-.868,0-1.288-1.358-1.484-3.36-.084-.994-.1-2.044-.084-2.94A10.986,10.986,0,0,1,82.348-9.968Zm6.93.294-1.764.588c1.512,1.708,2.254,4.97,2.464,7.2l1.834-.7A15.11,15.11,0,0,0,89.278-9.674Zm10.36,7.84c0,.8-.476,1.022-1.218,1.022-.952,0-1.442-.336-1.442-.854,0-.476.532-.854,1.512-.854a7.429,7.429,0,0,1,1.134.1C99.638-2.184,99.638-1.988,99.638-1.834Zm5.544.35a10.724,10.724,0,0,0-3.878-2.1c-.042-.532-.07-1.092-.1-1.61,1.344-.042,2.422-.14,3.668-.28V-7.112c-1.134.14-2.3.266-3.7.322l.014-1.442c1.33-.07,2.45-.182,3.36-.266l-.042-1.6a29.05,29.05,0,0,1-3.3.336l.014-.546a9.267,9.267,0,0,1,.1-.98h-1.89a5.55,5.55,0,0,1,.07.952v.63h-.686a18.352,18.352,0,0,1-3.01-.266l.014,1.582a23.087,23.087,0,0,0,3.01.21h.658v1.442h-.658a25.15,25.15,0,0,1-3.346-.252l-.014,1.638c.924.112,2.52.182,3.332.182h.714c.014.406.028.84.056,1.26a8.509,8.509,0,0,0-.854-.042c-2.142,0-3.43.98-3.43,2.38,0,1.47,1.176,2.31,3.388,2.31,1.834,0,2.73-.91,2.73-2.1,0-.14,0-.308-.014-.49a10.5,10.5,0,0,1,2.8,1.918Zm5.04-9.6a8.7,8.7,0,0,1,.182,1.876c0,1.19-.14,4.83-.14,6.692,0,2.366,1.47,3.36,3.738,3.36a7.215,7.215,0,0,0,6.02-3.164l-1.26-1.554a5.535,5.535,0,0,1-4.746,2.828,1.669,1.669,0,0,1-1.9-1.848c0-1.722.1-4.83.168-6.314a14.229,14.229,0,0,1,.182-1.848Zm18.76,5.782a20.369,20.369,0,0,1,2.674-.154,20.026,20.026,0,0,1,2.38.168l.042-1.666a24.07,24.07,0,0,0-2.436-.126c-.9,0-1.89.07-2.66.14Zm1.092-4.452c-.756.182-1.54.336-2.324.462l.112-.532c.07-.308.2-.924.294-1.3l-2.114-.168a7.2,7.2,0,0,1-.056,1.4q-.042.336-.126.8c-.42.028-.826.042-1.232.042a13.649,13.649,0,0,1-1.75-.112l.042,1.736c.49.028,1.008.056,1.68.056.28,0,.588-.014.91-.028-.1.392-.2.784-.294,1.148a30.568,30.568,0,0,1-2.394,6.244l1.946.644a44.714,44.714,0,0,0,2.2-6.412c.154-.56.294-1.176.42-1.778.924-.112,1.862-.266,2.688-.448Zm-1.946,6.146a9.516,9.516,0,0,0-.238,1.848c0,1.4,1.19,2.212,3.528,2.212a22.185,22.185,0,0,0,2.828-.2l.07-1.778a16.073,16.073,0,0,1-2.884.28c-1.484,0-1.834-.448-1.834-1.05a4.8,4.8,0,0,1,.2-1.162Z" transform="matrix(0.985, -0.174, 0.174, 0.985, 511.606, 229.229)" fill="#fff"/>
  </g>
</svg>
