<svg xmlns="http://www.w3.org/2000/svg" width="389.508" height="152.649" viewBox="0 0 389.508 152.649">
  <g id="グループ_739" data-name="グループ 739" transform="translate(-304 -128)">
    <path id="合体_4" data-name="合体 4" d="M-4111.313,0-4093,44l-18.313,44Zm-343.373,88L-4473,44l18.314-44h343.373V88Z" transform="matrix(0.985, -0.174, 0.174, 0.985, 4709.045, -582.742)" fill="#d7515e"/>
    <path id="多角形_5" data-name="多角形 5" d="M18,0,36,31H0Z" transform="matrix(-0.966, 0.259, -0.259, -0.966, 619.398, 243.813)" fill="#d7515e"/>
    <path id="パス_672" data-name="パス 672" d="M-101.977-18.766h-10.7v4.328h9.922v4.5h-9.922V0h-5.969V-23.266h16.672ZM-92.523,0h-5.625V-17.547h5.625Zm.156-20.047H-98.3v-4.266h5.938ZM-69.586,0h-5.656V-8.7a20.512,20.512,0,0,0-.109-2.117,4.46,4.46,0,0,0-.375-1.555,1.871,1.871,0,0,0-.914-.844,4.268,4.268,0,0,0-1.68-.266,5.128,5.128,0,0,0-1.555.25,8.352,8.352,0,0,0-1.711.8V0h-5.625V-17.547h5.625v1.938a14.352,14.352,0,0,1,2.883-1.8,7.37,7.37,0,0,1,3.07-.625,5.9,5.9,0,0,1,4.445,1.656,6.867,6.867,0,0,1,1.6,4.953Zm15.8-4.578V-8.234q-1.141.094-2.469.258a11.893,11.893,0,0,0-2.016.383,2.776,2.776,0,0,0-1.289.773,1.953,1.953,0,0,0-.445,1.336,3.477,3.477,0,0,0,.094.891,1.338,1.338,0,0,0,.469.656,2.278,2.278,0,0,0,.859.461,5.97,5.97,0,0,0,1.563.148,4.62,4.62,0,0,0,1.711-.344A5.345,5.345,0,0,0-53.789-4.578Zm0,2.719q-.453.344-1.125.828a8.192,8.192,0,0,1-1.266.766A7.979,7.979,0,0,1-57.9.289a9.889,9.889,0,0,1-1.953.18,5.964,5.964,0,0,1-4.187-1.547,5.124,5.124,0,0,1-1.687-3.953,5.328,5.328,0,0,1,.859-3.141,5.766,5.766,0,0,1,2.438-1.922,13.778,13.778,0,0,1,3.875-1q2.313-.3,4.8-.437v-.094a2.022,2.022,0,0,0-1.187-2.008,8.586,8.586,0,0,0-3.5-.555,9.991,9.991,0,0,0-2.969.492q-1.578.492-2.266.758H-64.2v-4.234q.891-.234,2.9-.555a25.5,25.5,0,0,1,4.023-.32q4.8,0,6.93,1.477a5.24,5.24,0,0,1,2.133,4.633V0h-5.578ZM-37.414,0h-5.625V-24.312h5.625ZM-7.8-16.141a2.961,2.961,0,0,0-.359-1.5A2.409,2.409,0,0,0-9.4-18.625a4.543,4.543,0,0,0-1.422-.3q-.813-.055-1.891-.055h-2.172v6.266h1.844a17.182,17.182,0,0,0,2.406-.141A3.447,3.447,0,0,0-9.008-13.5a3.114,3.114,0,0,0,.914-1.07A3.582,3.582,0,0,0-7.8-16.141ZM1.555,0H-5.773l-6.344-8.531h-2.766V0h-5.969V-23.266h10.063a23.118,23.118,0,0,1,3.547.234,7.656,7.656,0,0,1,2.781,1.016,6.067,6.067,0,0,1,2.086,2.023A5.8,5.8,0,0,1-1.6-16.875a6.916,6.916,0,0,1-1.2,4.2,9.019,9.019,0,0,1-3.414,2.7ZM21.148-7.734H8.273a4.047,4.047,0,0,0,1.57,3.156A6.985,6.985,0,0,0,14.1-3.484a9.572,9.572,0,0,0,3.453-.641A10.814,10.814,0,0,0,20.2-5.5h.625V-.984A20.891,20.891,0,0,1,17.227.125a18.751,18.751,0,0,1-3.734.344Q8.211.469,5.4-1.906A8.364,8.364,0,0,1,2.586-8.672,9.058,9.058,0,0,1,5.25-15.555a10.153,10.153,0,0,1,7.3-2.539q4.281,0,6.438,2.164A8.446,8.446,0,0,1,21.148-9.7Zm-5.594-3.3a3.937,3.937,0,0,0-.875-2.656,3.364,3.364,0,0,0-2.578-.891,4.123,4.123,0,0,0-2.672.844,3.6,3.6,0,0,0-1.172,2.7ZM40.367-5.562A5.086,5.086,0,0,1,37.93-1.18,11.687,11.687,0,0,1,31.258.484a19.035,19.035,0,0,1-4.25-.437,16.2,16.2,0,0,1-3.062-.969V-5.547h.516q.422.3.977.648a9.921,9.921,0,0,0,1.57.758,12.955,12.955,0,0,0,1.984.617,10.473,10.473,0,0,0,2.375.258,6.177,6.177,0,0,0,2.453-.367,1.169,1.169,0,0,0,.8-1.086,1.01,1.01,0,0,0-.469-.93A6.115,6.115,0,0,0,32.367-6.2q-.625-.141-1.7-.3a18.22,18.22,0,0,1-1.945-.4A6.9,6.9,0,0,1,25.18-8.852a4.813,4.813,0,0,1-1.156-3.289,4.991,4.991,0,0,1,2.4-4.211,11.257,11.257,0,0,1,6.555-1.68,17.458,17.458,0,0,1,3.773.4,15.267,15.267,0,0,1,2.82.852v4.438h-.484a11.447,11.447,0,0,0-2.852-1.4,10.1,10.1,0,0,0-3.242-.539,6.139,6.139,0,0,0-2.289.375q-.93.375-.93,1.063a1.135,1.135,0,0,0,.422.953,5.741,5.741,0,0,0,1.984.656q.859.172,1.852.336t1.992.414A6.26,6.26,0,0,1,39.3-8.664,4.6,4.6,0,0,1,40.367-5.562ZM61.586,0H55.961V-1.937A16.728,16.728,0,0,1,53.1-.133a7.142,7.142,0,0,1-3.094.617,5.844,5.844,0,0,1-4.477-1.672,6.964,6.964,0,0,1-1.57-4.937V-17.547h5.656v8.7q0,1.328.086,2.211a3.853,3.853,0,0,0,.4,1.461,1.8,1.8,0,0,0,.9.844,4.268,4.268,0,0,0,1.68.266,5.532,5.532,0,0,0,1.594-.266,6.861,6.861,0,0,0,1.688-.781V-17.547h5.625ZM72.523,0H66.9V-24.312h5.625ZM89.055-.156a15.921,15.921,0,0,1-1.922.367,19.6,19.6,0,0,1-2.484.133A7.538,7.538,0,0,1,79.766-.984q-1.6-1.328-1.6-4.547v-8.2H75.852v-3.812h2.313v-5.016h5.625v5.016h5.266v3.813H83.789v6.219q0,.922.016,1.609a3.3,3.3,0,0,0,.25,1.234,1.731,1.731,0,0,0,.773.867,3.287,3.287,0,0,0,1.617.32,4.74,4.74,0,0,0,1.148-.187,4.781,4.781,0,0,0,.992-.344h.469Zm18.609-5.406a5.086,5.086,0,0,1-2.437,4.383A11.687,11.687,0,0,1,98.555.484,19.035,19.035,0,0,1,94.3.047a16.2,16.2,0,0,1-3.062-.969V-5.547h.516q.422.3.977.648a9.921,9.921,0,0,0,1.57.758,12.955,12.955,0,0,0,1.984.617,10.473,10.473,0,0,0,2.375.258,6.177,6.177,0,0,0,2.453-.367,1.169,1.169,0,0,0,.8-1.086,1.01,1.01,0,0,0-.469-.93A6.115,6.115,0,0,0,99.664-6.2q-.625-.141-1.7-.3a18.22,18.22,0,0,1-1.945-.4,6.9,6.9,0,0,1-3.547-1.945,4.813,4.813,0,0,1-1.156-3.289,4.991,4.991,0,0,1,2.4-4.211,11.257,11.257,0,0,1,6.555-1.68,17.458,17.458,0,0,1,3.773.4,15.267,15.267,0,0,1,2.82.852v4.438h-.484a11.447,11.447,0,0,0-2.852-1.4,10.1,10.1,0,0,0-3.242-.539A6.139,6.139,0,0,0,98-13.906q-.93.375-.93,1.063a1.135,1.135,0,0,0,.422.953,5.741,5.741,0,0,0,1.984.656q.859.172,1.852.336t1.992.414a6.26,6.26,0,0,1,3.281,1.82A4.6,4.6,0,0,1,107.664-5.562Zm10.781-17.7L117.727-6.7h-5.094l-.719-16.562ZM118.336,0h-6.312V-4.125h6.313Z" transform="matrix(0.985, -0.174, 0.174, 0.985, 503.814, 216.506)" fill="#fff"/>
  </g>
</svg>
