<svg xmlns="http://www.w3.org/2000/svg" width="389.508" height="152.649" viewBox="0 0 389.508 152.649">
  <g id="グループ_740" data-name="グループ 740" transform="translate(-304 -128)">
    <path id="合体_4" data-name="合体 4" d="M-4111.313,0-4093,44l-18.313,44Zm-343.373,88L-4473,44l18.314-44h343.373V88Z" transform="matrix(0.985, -0.174, 0.174, 0.985, 4709.045, -582.742)" fill="#d7515e"/>
    <path id="多角形_5" data-name="多角形 5" d="M18,0,36,31H0Z" transform="matrix(-0.966, 0.259, -0.259, -0.966, 619.398, 243.813)" fill="#d7515e"/>
    <path id="パス_673" data-name="パス 673" d="M-149.3-11.142h-4.314V0h-3.562V-11.142h-4.314v-2.672h12.19ZM-136.878,0h-3.358V-5.167a12.18,12.18,0,0,0-.065-1.257,2.648,2.648,0,0,0-.223-.923,1.111,1.111,0,0,0-.543-.5,2.534,2.534,0,0,0-1-.158,3.045,3.045,0,0,0-.923.148A4.959,4.959,0,0,0-144-7.385V0h-3.34V-14.436H-144v5.167a8.521,8.521,0,0,1,1.712-1.067,4.376,4.376,0,0,1,1.823-.371,3.5,3.5,0,0,1,2.639.983,4.078,4.078,0,0,1,.951,2.941Zm9.379-2.718V-4.889q-.677.056-1.466.153a7.062,7.062,0,0,0-1.2.227,1.648,1.648,0,0,0-.765.459,1.159,1.159,0,0,0-.264.793,2.064,2.064,0,0,0,.056.529.8.8,0,0,0,.278.39,1.353,1.353,0,0,0,.51.274,3.545,3.545,0,0,0,.928.088,2.743,2.743,0,0,0,1.016-.2A3.174,3.174,0,0,0-127.5-2.718Zm0,1.614q-.269.2-.668.492a4.864,4.864,0,0,1-.751.455,4.737,4.737,0,0,1-1.021.329,5.872,5.872,0,0,1-1.16.107,3.541,3.541,0,0,1-2.486-.918,3.043,3.043,0,0,1-1-2.347,3.164,3.164,0,0,1,.51-1.865,3.423,3.423,0,0,1,1.447-1.141,8.181,8.181,0,0,1,2.3-.594q1.373-.176,2.848-.26V-6.9a1.2,1.2,0,0,0-.705-1.192,5.1,5.1,0,0,0-2.078-.329,5.932,5.932,0,0,0-1.763.292q-.937.292-1.345.45h-.306V-10.2q.529-.139,1.721-.329a15.141,15.141,0,0,1,2.389-.19,7.414,7.414,0,0,1,4.115.877,3.111,3.111,0,0,1,1.266,2.751V0H-127.5ZM-110.651,0h-3.358V-5.167a12.178,12.178,0,0,0-.065-1.257,2.649,2.649,0,0,0-.223-.923,1.111,1.111,0,0,0-.543-.5,2.534,2.534,0,0,0-1-.158,3.045,3.045,0,0,0-.923.148,4.959,4.959,0,0,0-1.016.473V0h-3.34V-10.418h3.34v1.15a8.521,8.521,0,0,1,1.712-1.067,4.376,4.376,0,0,1,1.823-.371,3.5,3.5,0,0,1,2.639.983,4.078,4.078,0,0,1,.951,2.941Zm14.129,0h-3.887l-2.922-4.537-.909,1.1V0h-3.34V-14.436h3.34v8.619l3.6-4.6h3.85l-3.748,4.49Zm12.886-3.683,2.375-6.735h3.433L-83.617,3.822h-3.618l1.651-3.9-4.054-10.344h3.507ZM-65.322-5.2a5.434,5.434,0,0,1-1.5,4.05A5.73,5.73,0,0,1-71.027.325a5.73,5.73,0,0,1-4.207-1.48,5.434,5.434,0,0,1-1.5-4.05,5.424,5.424,0,0,1,1.508-4.063,5.747,5.747,0,0,1,4.2-1.475,5.713,5.713,0,0,1,4.217,1.484A5.469,5.469,0,0,1-65.322-5.2Zm-4.11,2.533a2.68,2.68,0,0,0,.487-.96,5.84,5.84,0,0,0,.162-1.554,6.036,6.036,0,0,0-.167-1.54,2.7,2.7,0,0,0-.464-.993,1.628,1.628,0,0,0-.714-.538,2.526,2.526,0,0,0-.9-.158,2.62,2.62,0,0,0-.858.13,1.734,1.734,0,0,0-.719.52,2.657,2.657,0,0,0-.487.993,5.862,5.862,0,0,0-.181,1.586,6.113,6.113,0,0,0,.158,1.48A2.6,2.6,0,0,0-72.651-2.7a1.765,1.765,0,0,0,.71.529A2.494,2.494,0,0,0-71-2a2.475,2.475,0,0,0,.867-.153A1.589,1.589,0,0,0-69.432-2.672ZM-52.547,0h-3.34V-1.15a9.932,9.932,0,0,1-1.7,1.072,4.24,4.24,0,0,1-1.837.366,3.47,3.47,0,0,1-2.658-.993,4.135,4.135,0,0,1-.932-2.932v-6.782h3.358v5.167q0,.789.051,1.313a2.287,2.287,0,0,0,.237.867,1.066,1.066,0,0,0,.533.5,2.534,2.534,0,0,0,1,.158,3.285,3.285,0,0,0,.946-.158,4.074,4.074,0,0,0,1-.464v-7.385h3.34Zm16.4-11.986h-.25q-.223-.065-.58-.148a3.356,3.356,0,0,0-.765-.083,1.883,1.883,0,0,0-1.331.353,1.972,1.972,0,0,0-.348,1.364v.083h2.579v2.264h-2.468V0h-3.34V-8.155h-1.429v-2.264h1.429v-.288a3.754,3.754,0,0,1,1.016-2.867,4.347,4.347,0,0,1,3.075-.956q.742,0,1.345.051t1.067.135ZM-24.223-5.2a5.434,5.434,0,0,1-1.5,4.05A5.73,5.73,0,0,1-29.929.325a5.73,5.73,0,0,1-4.207-1.48,5.434,5.434,0,0,1-1.5-4.05,5.424,5.424,0,0,1,1.508-4.063,5.747,5.747,0,0,1,4.2-1.475,5.713,5.713,0,0,1,4.217,1.484A5.469,5.469,0,0,1-24.223-5.2Zm-4.11,2.533a2.68,2.68,0,0,0,.487-.96,5.84,5.84,0,0,0,.162-1.554,6.036,6.036,0,0,0-.167-1.54,2.7,2.7,0,0,0-.464-.993,1.628,1.628,0,0,0-.714-.538,2.526,2.526,0,0,0-.9-.158,2.62,2.62,0,0,0-.858.13,1.734,1.734,0,0,0-.719.52,2.657,2.657,0,0,0-.487.993,5.862,5.862,0,0,0-.181,1.586,6.113,6.113,0,0,0,.158,1.48A2.6,2.6,0,0,0-31.552-2.7a1.765,1.765,0,0,0,.71.529A2.494,2.494,0,0,0-29.9-2a2.475,2.475,0,0,0,.867-.153A1.589,1.589,0,0,0-28.333-2.672Zm14.055-4.564h-.3a3,3,0,0,0-.687-.111q-.473-.037-.789-.037a7.621,7.621,0,0,0-1.262.093,7.159,7.159,0,0,0-1.178.315V0h-3.34V-10.418h3.34v1.531a6.972,6.972,0,0,1,1.92-1.257,4.254,4.254,0,0,1,1.5-.311q.176,0,.4.009t.39.028ZM.417-2.718V-4.889q-.677.056-1.466.153a7.062,7.062,0,0,0-1.2.227,1.648,1.648,0,0,0-.765.459,1.159,1.159,0,0,0-.264.793,2.064,2.064,0,0,0,.056.529.8.8,0,0,0,.278.39,1.353,1.353,0,0,0,.51.274,3.545,3.545,0,0,0,.928.088,2.743,2.743,0,0,0,1.016-.2A3.174,3.174,0,0,0,.417-2.718Zm0,1.614Q.148-.9-.25-.612A4.864,4.864,0,0,1-1-.158,4.737,4.737,0,0,1-2.022.172a5.872,5.872,0,0,1-1.16.107A3.541,3.541,0,0,1-5.668-.64a3.043,3.043,0,0,1-1-2.347,3.164,3.164,0,0,1,.51-1.865A3.424,3.424,0,0,1-4.713-5.993a8.181,8.181,0,0,1,2.3-.594q1.373-.176,2.848-.26V-6.9A1.2,1.2,0,0,0-.269-8.094a5.1,5.1,0,0,0-2.078-.329,5.932,5.932,0,0,0-1.763.292q-.937.292-1.345.45h-.306V-10.2q.529-.139,1.721-.329a15.141,15.141,0,0,1,2.389-.19,7.414,7.414,0,0,1,4.115.877A3.111,3.111,0,0,1,3.729-7.088V0H.417ZM10.14,0H6.8V-14.436h3.34Zm6.494,0h-3.34V-14.436h3.34ZM30.986-3.683l2.375-6.735h3.433L31,3.822H27.387l1.651-3.9L24.984-10.418h3.507ZM49.3-5.2a5.434,5.434,0,0,1-1.5,4.05A5.73,5.73,0,0,1,43.594.325a5.73,5.73,0,0,1-4.207-1.48,5.434,5.434,0,0,1-1.5-4.05A5.424,5.424,0,0,1,39.4-9.268a5.747,5.747,0,0,1,4.2-1.475,5.713,5.713,0,0,1,4.217,1.484A5.469,5.469,0,0,1,49.3-5.2ZM45.19-2.672a2.68,2.68,0,0,0,.487-.96,5.84,5.84,0,0,0,.162-1.554,6.036,6.036,0,0,0-.167-1.54,2.7,2.7,0,0,0-.464-.993,1.628,1.628,0,0,0-.714-.538,2.526,2.526,0,0,0-.9-.158,2.62,2.62,0,0,0-.858.13,1.734,1.734,0,0,0-.719.52,2.657,2.657,0,0,0-.487.993,5.862,5.862,0,0,0-.181,1.586,6.113,6.113,0,0,0,.158,1.48A2.6,2.6,0,0,0,41.971-2.7a1.765,1.765,0,0,0,.71.529A2.494,2.494,0,0,0,43.622-2a2.475,2.475,0,0,0,.867-.153A1.589,1.589,0,0,0,45.19-2.672ZM62.075,0h-3.34V-1.15a9.932,9.932,0,0,1-1.7,1.072A4.24,4.24,0,0,1,55.2.288a3.47,3.47,0,0,1-2.658-.993,4.135,4.135,0,0,1-.932-2.932v-6.782h3.358v5.167q0,.789.051,1.313a2.287,2.287,0,0,0,.237.867,1.066,1.066,0,0,0,.533.5,2.534,2.534,0,0,0,1,.158,3.285,3.285,0,0,0,.946-.158,4.074,4.074,0,0,0,1-.464v-7.385h3.34ZM72.781-7.236h-.3a3,3,0,0,0-.687-.111q-.473-.037-.789-.037a7.621,7.621,0,0,0-1.262.093,7.159,7.159,0,0,0-1.178.315V0h-3.34V-10.418h3.34v1.531a6.972,6.972,0,0,1,1.92-1.257,4.254,4.254,0,0,1,1.5-.311q.176,0,.4.009t.39.028ZM91.428-4.592H83.784a2.4,2.4,0,0,0,.932,1.874,4.148,4.148,0,0,0,2.528.649,5.683,5.683,0,0,0,2.05-.38,6.421,6.421,0,0,0,1.568-.816h.371V-.584A12.4,12.4,0,0,1,89.1.074a11.133,11.133,0,0,1-2.217.2,7.255,7.255,0,0,1-4.806-1.41,4.966,4.966,0,0,1-1.67-4.017,5.378,5.378,0,0,1,1.582-4.087,6.029,6.029,0,0,1,4.337-1.508,5.177,5.177,0,0,1,3.822,1.285,5.015,5.015,0,0,1,1.28,3.7ZM88.107-6.55a2.338,2.338,0,0,0-.52-1.577,2,2,0,0,0-1.531-.529,2.448,2.448,0,0,0-1.586.5,2.137,2.137,0,0,0-.7,1.6ZM104.25,0h-3.358V-5.167a12.178,12.178,0,0,0-.065-1.257,2.649,2.649,0,0,0-.223-.923,1.111,1.111,0,0,0-.543-.5,2.534,2.534,0,0,0-1-.158,3.045,3.045,0,0,0-.923.148,4.959,4.959,0,0,0-1.016.473V0h-3.34V-10.418h3.34v1.15a8.521,8.521,0,0,1,1.712-1.067,4.376,4.376,0,0,1,1.823-.371,3.5,3.5,0,0,1,2.639.983,4.078,4.078,0,0,1,.951,2.941Zm9.732-.093a9.453,9.453,0,0,1-1.141.218A11.636,11.636,0,0,1,111.365.2a4.475,4.475,0,0,1-2.9-.789,3.335,3.335,0,0,1-.951-2.7V-8.155h-1.373v-2.264h1.373V-13.4h3.34v2.978h3.126v2.264h-3.126v3.692q0,.547.009.956a1.959,1.959,0,0,0,.148.733,1.028,1.028,0,0,0,.459.515,1.952,1.952,0,0,0,.96.19,2.815,2.815,0,0,0,.682-.111,2.839,2.839,0,0,0,.589-.2h.278Zm9.546-7.144h-.3a3,3,0,0,0-.687-.111q-.473-.037-.789-.037a7.621,7.621,0,0,0-1.262.093,7.159,7.159,0,0,0-1.178.315V0h-3.34V-10.418h3.34v1.531a6.972,6.972,0,0,1,1.92-1.257,4.254,4.254,0,0,1,1.5-.311q.176,0,.4.009t.39.028ZM128.76,0h-3.34V-10.418h3.34Zm.093-11.9h-3.525v-2.533h3.525Zm13.322,7.311h-7.645a2.4,2.4,0,0,0,.932,1.874,4.148,4.148,0,0,0,2.528.649,5.683,5.683,0,0,0,2.05-.38,6.421,6.421,0,0,0,1.568-.816h.371V-.584a12.4,12.4,0,0,1-2.134.659,11.133,11.133,0,0,1-2.217.2,7.255,7.255,0,0,1-4.806-1.41,4.966,4.966,0,0,1-1.67-4.017,5.378,5.378,0,0,1,1.582-4.087,6.029,6.029,0,0,1,4.337-1.508A5.177,5.177,0,0,1,140.9-9.458a5.015,5.015,0,0,1,1.28,3.7ZM138.854-6.55a2.338,2.338,0,0,0-.52-1.577,2,2,0,0,0-1.531-.529,2.448,2.448,0,0,0-1.586.5,2.137,2.137,0,0,0-.7,1.6ZM153.586-3.3a3.02,3.02,0,0,1-1.447,2.6,6.939,6.939,0,0,1-3.961.988,11.3,11.3,0,0,1-2.523-.26,9.619,9.619,0,0,1-1.818-.575V-3.293h.306q.25.176.58.385a5.89,5.89,0,0,0,.932.45,7.692,7.692,0,0,0,1.178.366,6.218,6.218,0,0,0,1.41.153,3.667,3.667,0,0,0,1.457-.218.694.694,0,0,0,.473-.645.6.6,0,0,0-.278-.552,3.631,3.631,0,0,0-1.058-.329q-.371-.083-1.007-.181a10.818,10.818,0,0,1-1.155-.237,4.094,4.094,0,0,1-2.106-1.155,2.857,2.857,0,0,1-.687-1.953,2.963,2.963,0,0,1,1.424-2.5,6.684,6.684,0,0,1,3.892-1,10.366,10.366,0,0,1,2.24.237,9.065,9.065,0,0,1,1.675.506v2.635h-.288a6.8,6.8,0,0,0-1.693-.83,6,6,0,0,0-1.925-.32,3.645,3.645,0,0,0-1.359.223q-.552.223-.552.631a.674.674,0,0,0,.25.566,3.409,3.409,0,0,0,1.178.39q.51.1,1.1.2t1.183.246a3.717,3.717,0,0,1,1.948,1.081A2.734,2.734,0,0,1,153.586-3.3Zm6.4-10.511-.427,9.834h-3.024l-.427-9.834ZM159.923,0h-3.748V-2.449h3.748Z" transform="matrix(0.985, -0.174, 0.174, 0.985, 497.838, 200.506)" fill="#fff"/>
    <path id="パス_672" data-name="パス 672" d="M-106.027-3.32a3.1,3.1,0,0,1-.316,1.344,3.2,3.2,0,0,1-.887,1.125,4.736,4.736,0,0,1-1.457.781,6.292,6.292,0,0,1-2,.281,9.977,9.977,0,0,1-2.262-.234A11.481,11.481,0,0,1-115-.719V-2.656h.109a6.431,6.431,0,0,0,2.039,1.133,6.682,6.682,0,0,0,2.172.4,3.978,3.978,0,0,0,2.238-.539,1.657,1.657,0,0,0,.8-1.437,1.525,1.525,0,0,0-.379-1.141,2.577,2.577,0,0,0-1.152-.57,11.487,11.487,0,0,0-1.27-.258q-.684-.1-1.449-.258a4.289,4.289,0,0,1-2.293-1.121,2.893,2.893,0,0,1-.746-2.066,2.877,2.877,0,0,1,1.234-2.395,5.048,5.048,0,0,1,3.133-.934,10.084,10.084,0,0,1,2.25.234,10.312,10.312,0,0,1,1.813.578V-9.2h-.109a5.377,5.377,0,0,0-1.746-.934,6.782,6.782,0,0,0-2.215-.371,3.475,3.475,0,0,0-2,.516,1.552,1.552,0,0,0-.754,1.328,1.637,1.637,0,0,0,.375,1.141,2.537,2.537,0,0,0,1.32.633q.5.109,1.422.266t1.563.32a4.048,4.048,0,0,1,1.953,1.039A2.723,2.723,0,0,1-106.027-3.32Zm9.6,3.32h-1.469V-.969a7.152,7.152,0,0,1-1.422.9,3.548,3.548,0,0,1-1.5.313,2.75,2.75,0,0,1-2.141-.84,3.542,3.542,0,0,1-.766-2.465V-8.727h1.469v4.969a8.837,8.837,0,0,0,.063,1.137,2.072,2.072,0,0,0,.266.809,1.26,1.26,0,0,0,.547.5,2.4,2.4,0,0,0,.977.156,3.123,3.123,0,0,0,1.246-.3,5.818,5.818,0,0,0,1.262-.758V-8.727h1.469Zm10.57-4.43a5.894,5.894,0,0,1-.309,1.969A4.41,4.41,0,0,1-87-.992a3.79,3.79,0,0,1-1.219.926,3.424,3.424,0,0,1-1.461.309,4.3,4.3,0,0,1-1.3-.176,6.062,6.062,0,0,1-1.094-.473L-92.16,0h-1.375V-12.156h1.469v4.344a6.157,6.157,0,0,1,1.313-.832,3.654,3.654,0,0,1,1.563-.324A2.892,2.892,0,0,1-86.75-7.781,5.476,5.476,0,0,1-85.855-4.43Zm-1.516.039a4.445,4.445,0,0,0-.516-2.371,1.825,1.825,0,0,0-1.664-.809,3.313,3.313,0,0,0-1.3.277,5.4,5.4,0,0,0-1.219.715v5a6.39,6.39,0,0,0,1.074.391,4.324,4.324,0,0,0,1.02.109,2.39,2.39,0,0,0,1.91-.8A3.788,3.788,0,0,0-87.371-4.391ZM-70.832,0H-72.3V-4.969q0-.562-.051-1.086a2.293,2.293,0,0,0-.215-.836,1.184,1.184,0,0,0-.516-.508,2.179,2.179,0,0,0-.969-.172,2.739,2.739,0,0,0-1.234.309,7.561,7.561,0,0,0-1.234.785q.023.18.039.418t.016.473V0h-1.469V-4.969q0-.578-.051-1.1A2.285,2.285,0,0,0-78.2-6.9a1.162,1.162,0,0,0-.516-.5,2.223,2.223,0,0,0-.969-.168,2.722,2.722,0,0,0-1.207.3,7.213,7.213,0,0,0-1.207.758V0h-1.469V-8.727H-82.1v.969a6.455,6.455,0,0,1,1.371-.891,3.392,3.392,0,0,1,1.457-.32,2.874,2.874,0,0,1,1.512.375,2.313,2.313,0,0,1,.926,1.039,7.264,7.264,0,0,1,1.625-1.082,3.767,3.767,0,0,1,1.57-.332,2.53,2.53,0,0,1,2.121.871,3.854,3.854,0,0,1,.684,2.434Zm4.406-10.187h-1.656v-1.523h1.656ZM-66.52,0h-1.469V-8.727h1.469Zm9.141-2.516a2.375,2.375,0,0,1-.988,1.961,4.3,4.3,0,0,1-2.7.766,6.469,6.469,0,0,1-1.777-.23,7.919,7.919,0,0,1-1.355-.5V-2.172h.078a5.893,5.893,0,0,0,1.547.832,4.788,4.788,0,0,0,1.633.309,3.071,3.071,0,0,0,1.516-.312,1.053,1.053,0,0,0,.547-.984.994.994,0,0,0-.3-.781,2.676,2.676,0,0,0-1.141-.453q-.312-.07-.816-.164t-.918-.2a3.051,3.051,0,0,1-1.629-.895,2.22,2.22,0,0,1-.48-1.449,2.37,2.37,0,0,1,.223-1.016,2.454,2.454,0,0,1,.676-.852,3.236,3.236,0,0,1,1.113-.582,4.976,4.976,0,0,1,1.512-.215,6.788,6.788,0,0,1,1.582.191,5.968,5.968,0,0,1,1.332.465v1.57H-57.8a5.254,5.254,0,0,0-1.367-.7A4.706,4.706,0,0,0-60.746-7.7a2.761,2.761,0,0,0-1.359.309.991.991,0,0,0-.555.918.986.986,0,0,0,.336.813,2.624,2.624,0,0,0,1.063.445q.406.094.91.188t.84.172a3.111,3.111,0,0,1,1.578.8A2.119,2.119,0,0,1-57.379-2.516Zm8.336,0a2.375,2.375,0,0,1-.988,1.961,4.3,4.3,0,0,1-2.7.766,6.469,6.469,0,0,1-1.777-.23,7.919,7.919,0,0,1-1.355-.5V-2.172h.078a5.893,5.893,0,0,0,1.547.832,4.788,4.788,0,0,0,1.633.309,3.071,3.071,0,0,0,1.516-.312,1.053,1.053,0,0,0,.547-.984.994.994,0,0,0-.3-.781,2.676,2.676,0,0,0-1.141-.453q-.312-.07-.816-.164t-.918-.2a3.051,3.051,0,0,1-1.629-.895,2.22,2.22,0,0,1-.48-1.449A2.37,2.37,0,0,1-55.6-7.289a2.454,2.454,0,0,1,.676-.852,3.236,3.236,0,0,1,1.113-.582A4.976,4.976,0,0,1-52.3-8.937a6.788,6.788,0,0,1,1.582.191,5.968,5.968,0,0,1,1.332.465v1.57h-.078a5.254,5.254,0,0,0-1.367-.7A4.706,4.706,0,0,0-52.41-7.7a2.761,2.761,0,0,0-1.359.309.991.991,0,0,0-.555.918.986.986,0,0,0,.336.813,2.624,2.624,0,0,0,1.063.445q.406.094.91.188t.84.172a3.111,3.111,0,0,1,1.578.8A2.119,2.119,0,0,1-49.043-2.516Zm3.68-7.672H-47.02v-1.523h1.656ZM-45.457,0h-1.469V-8.727h1.469Zm10.344-4.359A4.9,4.9,0,0,1-36.207-.992,3.719,3.719,0,0,1-39.137.242,3.726,3.726,0,0,1-42.078-.992a4.908,4.908,0,0,1-1.09-3.367,4.923,4.923,0,0,1,1.09-3.371,3.72,3.72,0,0,1,2.941-1.238,3.714,3.714,0,0,1,2.93,1.238A4.912,4.912,0,0,1-35.113-4.359Zm-1.516,0a3.974,3.974,0,0,0-.664-2.52A2.236,2.236,0,0,0-39.137-7.7a2.242,2.242,0,0,0-1.855.824,3.992,3.992,0,0,0-.66,2.52,3.976,3.976,0,0,0,.664,2.488,2.219,2.219,0,0,0,1.852.848,2.222,2.222,0,0,0,1.84-.84A3.953,3.953,0,0,0-36.629-4.359ZM-25.543,0h-1.469V-4.969a8.554,8.554,0,0,0-.07-1.129,2.064,2.064,0,0,0-.258-.824A1.188,1.188,0,0,0-27.9-7.41a2.407,2.407,0,0,0-.953-.16,3.05,3.05,0,0,0-1.258.3,6.409,6.409,0,0,0-1.258.758V0H-32.84V-8.727h1.469v.969a5.97,5.97,0,0,1,1.422-.891,3.736,3.736,0,0,1,1.508-.32,2.706,2.706,0,0,1,2.156.852,3.625,3.625,0,0,1,.742,2.453Zm9.063-2.516a2.375,2.375,0,0,1-.988,1.961,4.3,4.3,0,0,1-2.7.766,6.469,6.469,0,0,1-1.777-.23,7.919,7.919,0,0,1-1.355-.5V-2.172h.078a5.892,5.892,0,0,0,1.547.832,4.788,4.788,0,0,0,1.633.309,3.071,3.071,0,0,0,1.516-.312,1.053,1.053,0,0,0,.547-.984.994.994,0,0,0-.3-.781,2.676,2.676,0,0,0-1.141-.453q-.313-.07-.816-.164t-.918-.2a3.051,3.051,0,0,1-1.629-.895,2.22,2.22,0,0,1-.48-1.449,2.37,2.37,0,0,1,.223-1.016,2.454,2.454,0,0,1,.676-.852,3.236,3.236,0,0,1,1.113-.582,4.976,4.976,0,0,1,1.512-.215,6.788,6.788,0,0,1,1.582.191,5.968,5.968,0,0,1,1.332.465v1.57H-16.9a5.254,5.254,0,0,0-1.367-.7A4.706,4.706,0,0,0-19.848-7.7a2.761,2.761,0,0,0-1.359.309.991.991,0,0,0-.555.918.986.986,0,0,0,.336.813,2.624,2.624,0,0,0,1.063.445q.406.094.91.188t.84.172a3.111,3.111,0,0,1,1.578.8A2.119,2.119,0,0,1-16.48-2.516ZM-1.973,0H-3.434V-.93q-.2.133-.527.371a3.764,3.764,0,0,1-.645.379,4.367,4.367,0,0,1-.844.3A4.57,4.57,0,0,1-6.566.242a2.792,2.792,0,0,1-2-.781,2.631,2.631,0,0,1-.82-1.992,2.76,2.76,0,0,1,.426-1.605A2.843,2.843,0,0,1-7.746-5.1a6.555,6.555,0,0,1,1.914-.477q1.117-.125,2.4-.187v-.227a1.742,1.742,0,0,0-.176-.828,1.28,1.28,0,0,0-.5-.516,2.085,2.085,0,0,0-.75-.242,6.461,6.461,0,0,0-.914-.062,6.2,6.2,0,0,0-1.289.152,10.021,10.021,0,0,0-1.469.441h-.078V-8.539q.43-.117,1.242-.258a9.379,9.379,0,0,1,1.6-.141,7.452,7.452,0,0,1,1.605.152,3.119,3.119,0,0,1,1.184.52,2.305,2.305,0,0,1,.75.93,3.431,3.431,0,0,1,.258,1.414ZM-3.434-2.148v-2.43q-.672.039-1.582.117a8.185,8.185,0,0,0-1.441.227,2.367,2.367,0,0,0-1.023.559,1.385,1.385,0,0,0-.391,1.043A1.388,1.388,0,0,0-7.418-1.5a2.122,2.122,0,0,0,1.383.379,3.286,3.286,0,0,0,1.414-.3A6.368,6.368,0,0,0-3.434-2.148ZM6.3-7.125H6.223a5.381,5.381,0,0,0-.637-.113,6.56,6.56,0,0,0-.73-.035,3.023,3.023,0,0,0-1.312.3A6.045,6.045,0,0,0,2.324-6.2V0H.855V-8.727H2.324v1.289a7.205,7.205,0,0,1,1.543-1A3.363,3.363,0,0,1,5.23-8.727a5.516,5.516,0,0,1,.555.02q.172.02.516.074Zm8.688,2.914H8.559a3.72,3.72,0,0,0,.242,1.4,2.635,2.635,0,0,0,.664.98,2.642,2.642,0,0,0,.965.563,3.848,3.848,0,0,0,1.23.188,4.864,4.864,0,0,0,1.793-.355,4.416,4.416,0,0,0,1.285-.7h.078v1.6A12.118,12.118,0,0,1,13.3-.008,6.15,6.15,0,0,1,11.676.2,4.681,4.681,0,0,1,8.285-.973a4.425,4.425,0,0,1-1.219-3.34,4.8,4.8,0,0,1,1.168-3.4,4,4,0,0,1,3.074-1.258,3.531,3.531,0,0,1,2.723,1.031,4.148,4.148,0,0,1,.957,2.93Zm-1.43-1.125a2.6,2.6,0,0,0-.582-1.789,2.242,2.242,0,0,0-1.746-.633,2.547,2.547,0,0,0-1.879.7,2.7,2.7,0,0,0-.793,1.727ZM30.137,0H28.668V-4.969A8.554,8.554,0,0,0,28.6-6.1a2.064,2.064,0,0,0-.258-.824,1.188,1.188,0,0,0-.562-.488,2.407,2.407,0,0,0-.953-.16,3.05,3.05,0,0,0-1.258.3,6.409,6.409,0,0,0-1.258.758V0H22.84V-8.727h1.469v.969a5.97,5.97,0,0,1,1.422-.891,3.736,3.736,0,0,1,1.508-.32,2.706,2.706,0,0,1,2.156.852,3.625,3.625,0,0,1,.742,2.453ZM40.4-4.359A4.9,4.9,0,0,1,39.309-.992,3.719,3.719,0,0,1,36.379.242,3.726,3.726,0,0,1,33.438-.992a4.908,4.908,0,0,1-1.09-3.367,4.923,4.923,0,0,1,1.09-3.371,3.72,3.72,0,0,1,2.941-1.238,3.714,3.714,0,0,1,2.93,1.238A4.912,4.912,0,0,1,40.4-4.359Zm-1.516,0a3.974,3.974,0,0,0-.664-2.52A2.236,2.236,0,0,0,36.379-7.7a2.242,2.242,0,0,0-1.855.824,3.992,3.992,0,0,0-.66,2.52,3.976,3.976,0,0,0,.664,2.488,2.219,2.219,0,0,0,1.852.848,2.222,2.222,0,0,0,1.84-.84A3.953,3.953,0,0,0,38.887-4.359ZM53.652-8.727,51.379,0H50.02L47.777-6.727,45.551,0H44.2L41.9-8.727h1.531l1.6,6.758,2.18-6.758h1.211L50.66-1.969l1.516-6.758Zm14.2,8.18A9.476,9.476,0,0,1,66.453,0a4.919,4.919,0,0,1-1.4.2,5.2,5.2,0,0,1-1.734-.277,3.544,3.544,0,0,1-1.352-.84,3.771,3.771,0,0,1-.883-1.422,5.869,5.869,0,0,1-.312-2.008,4.636,4.636,0,0,1,1.176-3.359A4.118,4.118,0,0,1,65.051-8.93a5.23,5.23,0,0,1,1.473.211,7.7,7.7,0,0,1,1.324.516V-6.57H67.77a5.588,5.588,0,0,0-1.387-.8,3.8,3.8,0,0,0-1.395-.281,2.467,2.467,0,0,0-1.973.84,3.683,3.683,0,0,0-.723,2.465A3.691,3.691,0,0,0,63-1.926a2.446,2.446,0,0,0,1.988.848,3.669,3.669,0,0,0,.906-.117,3.965,3.965,0,0,0,.828-.3,6.624,6.624,0,0,0,.6-.348q.281-.184.445-.316h.078ZM71.215,0H69.746V-12.156h1.469ZM81.559-4.359A4.9,4.9,0,0,1,80.465-.992,3.719,3.719,0,0,1,77.535.242,3.726,3.726,0,0,1,74.594-.992,4.908,4.908,0,0,1,73.5-4.359a4.923,4.923,0,0,1,1.09-3.371,3.72,3.72,0,0,1,2.941-1.238,3.714,3.714,0,0,1,2.93,1.238A4.912,4.912,0,0,1,81.559-4.359Zm-1.516,0a3.974,3.974,0,0,0-.664-2.52A2.236,2.236,0,0,0,77.535-7.7a2.242,2.242,0,0,0-1.855.824,3.992,3.992,0,0,0-.66,2.52,3.976,3.976,0,0,0,.664,2.488,2.219,2.219,0,0,0,1.852.848,2.222,2.222,0,0,0,1.84-.84A3.953,3.953,0,0,0,80.043-4.359ZM90.066-2.516a2.375,2.375,0,0,1-.988,1.961,4.3,4.3,0,0,1-2.7.766A6.469,6.469,0,0,1,84.6-.02a7.919,7.919,0,0,1-1.355-.5V-2.172h.078a5.892,5.892,0,0,0,1.547.832,4.788,4.788,0,0,0,1.633.309,3.071,3.071,0,0,0,1.516-.312,1.053,1.053,0,0,0,.547-.984.994.994,0,0,0-.3-.781,2.676,2.676,0,0,0-1.141-.453q-.313-.07-.816-.164t-.918-.2a3.051,3.051,0,0,1-1.629-.895,2.22,2.22,0,0,1-.48-1.449,2.37,2.37,0,0,1,.223-1.016,2.454,2.454,0,0,1,.676-.852A3.236,3.236,0,0,1,85.3-8.723a4.976,4.976,0,0,1,1.512-.215,6.788,6.788,0,0,1,1.582.191,5.968,5.968,0,0,1,1.332.465v1.57h-.078a5.254,5.254,0,0,0-1.367-.7A4.706,4.706,0,0,0,86.7-7.7a2.761,2.761,0,0,0-1.359.309.991.991,0,0,0-.555.918.986.986,0,0,0,.336.813,2.624,2.624,0,0,0,1.063.445q.406.094.91.188t.84.172a3.111,3.111,0,0,1,1.578.8A2.119,2.119,0,0,1,90.066-2.516Zm9.406-1.7h-6.43a3.719,3.719,0,0,0,.242,1.4,2.635,2.635,0,0,0,.664.98,2.642,2.642,0,0,0,.965.563,3.848,3.848,0,0,0,1.23.188,4.864,4.864,0,0,0,1.793-.355,4.416,4.416,0,0,0,1.285-.7H99.3v1.6a12.118,12.118,0,0,1-1.516.523A6.15,6.15,0,0,1,96.16.2,4.681,4.681,0,0,1,92.77-.973a4.425,4.425,0,0,1-1.219-3.34,4.8,4.8,0,0,1,1.168-3.4,4,4,0,0,1,3.074-1.258,3.531,3.531,0,0,1,2.723,1.031,4.148,4.148,0,0,1,.957,2.93Zm-1.43-1.125a2.6,2.6,0,0,0-.582-1.789,2.242,2.242,0,0,0-1.746-.633,2.547,2.547,0,0,0-1.879.7,2.7,2.7,0,0,0-.793,1.727ZM108.777,0h-1.469V-.914a5.318,5.318,0,0,1-1.32.852,3.641,3.641,0,0,1-1.492.3,2.957,2.957,0,0,1-2.48-1.2A5.386,5.386,0,0,1,101.1-4.3a5.744,5.744,0,0,1,.316-1.977,4.559,4.559,0,0,1,.855-1.477,3.6,3.6,0,0,1,1.238-.906,3.587,3.587,0,0,1,1.465-.312,4.657,4.657,0,0,1,1.219.145,5.66,5.66,0,0,1,1.117.449v-3.781h1.469Zm-1.469-2.148V-7.156a5.514,5.514,0,0,0-1.062-.367,4.835,4.835,0,0,0-1.023-.1,2.323,2.323,0,0,0-1.922.859,3.815,3.815,0,0,0-.687,2.438,4.321,4.321,0,0,0,.531,2.363,1.888,1.888,0,0,0,1.7.809,3.168,3.168,0,0,0,1.266-.277A5.365,5.365,0,0,0,107.309-2.148ZM114.066,0H112.2V-2.227h1.867Z" transform="matrix(0.985, -0.174, 0.174, 0.985, 498.016, 227.229)" fill="#fff"/>
  </g>
</svg>
