<svg xmlns="http://www.w3.org/2000/svg" width="280" height="109.733" viewBox="0 0 280 109.733">
  <g id="グループ_739" data-name="グループ 739" transform="translate(-304 -128)">
    <path id="合体_4" data-name="合体 4" d="M260,0l13.164,31.63L260,63.259ZM13.165,63.259,0,31.63,13.165,0H260V63.259Z" transform="matrix(0.985, -0.174, 0.174, 0.985, 304, 175.435)" fill="#d7515e"/>
    <path id="多角形_5" data-name="多角形 5" d="M12.939,0,25.879,22.285H0Z" transform="matrix(-0.966, 0.259, -0.259, -0.966, 530.726, 211.253)" fill="#d7515e"/>
    <path id="パス_673" data-name="パス 673" d="M-70.47-7.86A21.812,21.812,0,0,1-72.06-.9,17.634,17.634,0,0,1-69.33.39a27.737,27.737,0,0,0,1.8-7.74Zm6.69.66a30.533,30.533,0,0,1,1.77,5.79l2.82-.99a34.212,34.212,0,0,0-1.95-5.64Zm-.51-7.47c.36.63.72,1.35,1.05,2.04l-3.03.15a96.581,96.581,0,0,0,5.73-8.13l-3.03-1.26a46.908,46.908,0,0,1-2.76,4.92c-.3-.39-.66-.84-1.05-1.26,1.08-1.68,2.31-3.99,3.39-6.06l-3.15-1.11a39.656,39.656,0,0,1-2.19,5.22l-.72-.63-1.68,2.46a28.263,28.263,0,0,1,3.6,4.11c-.45.66-.93,1.29-1.38,1.86l-2.22.09.3,3.12c1.32-.09,2.82-.21,4.44-.3V2.64h3.15V-9.69l1.71-.12a16.325,16.325,0,0,1,.42,1.62l2.7-1.26a24.467,24.467,0,0,0-2.76-6.33Zm15.87,8.58v4.23h-6.69V-6.09Zm-9.96,8.67h3.27V1.32h6.69V2.55h3.45V-9.27H-58.38ZM-43.62-18.3v-3.24h-6.57v-3.87h-3.63v3.87h-6.33v3.24h6.33v3.27h-5.49v3.24h15v-3.24h-5.88V-18.3Zm9.96,3.84v-1.92h4.83v1.92Zm0-6.6h4.83v1.92h-4.83Zm13.38,1.92h-4.77v-1.92h4.77Zm0,4.68h-4.77v-1.92h4.77Zm6.69,8.01V-9.72H-25.05v-1.77h8.7V-24.03H-37.41v12.54h8.58v1.77H-40.32v3.27h8.88a26.894,26.894,0,0,1-9.81,5.28A18.5,18.5,0,0,1-38.82,1.8a28.808,28.808,0,0,0,9.99-6.42V2.61h3.78V-4.77a30.1,30.1,0,0,0,9.93,6.39,14.419,14.419,0,0,1,2.4-3.03,29.4,29.4,0,0,1-9.72-5.04ZM5.31-8.52H1.62v-3.39H5.31Zm6.45-3.39v-.96a20.905,20.905,0,0,0,3.69,2.25,13.607,13.607,0,0,1,2.46-3.09,18.409,18.409,0,0,1-4.65-2.73,49.245,49.245,0,0,0,3.96-3.24l-2.61-1.86a29.059,29.059,0,0,1-3.36,3.24c-.48-.51-.93-1.02-1.35-1.56,1.23-.9,2.61-2.07,3.84-3.18l-2.7-1.92a28.33,28.33,0,0,1-2.67,2.79,20.839,20.839,0,0,1-1.5-3.21l-3.21.9A27.446,27.446,0,0,0,9.12-15.3H-1.74a20.562,20.562,0,0,0,4.89-7.98L.75-24.39l-.63.12H-7.71v3.06h6.12a16.781,16.781,0,0,1-1.89,2.7c-.84-.72-1.98-1.59-2.88-2.22l-2.25,1.86a32.019,32.019,0,0,1,2.97,2.55,18.561,18.561,0,0,1-4.98,3.09,15.513,15.513,0,0,1,2.16,2.7A24.521,24.521,0,0,0-4.47-12.9v.99h2.52v3.39H-8.37v3.27h5.94C-3.18-3.24-4.98-1.38-9.12-.12A13.6,13.6,0,0,1-6.84,2.73C-1.29.87.69-2.1,1.35-5.25H5.31v3.27c0,3.33.81,4.38,4.05,4.38h3.27c2.64,0,3.57-1.2,3.93-5.16a8.883,8.883,0,0,1-3.21-1.41c-.12,2.82-.27,3.42-1.05,3.42H9.99c-.84,0-.96-.18-.96-1.26V-5.25h6.39V-8.52H9.03v-3.39ZM44.4-10.89a39.413,39.413,0,0,1-4.71,3.6,18.829,18.829,0,0,1-1.8-4.02h9.54v-3.03H35.91v-1.68H45.3v-2.85H35.91V-20.4H46.47v-3.03H35.91v-1.98H32.34v1.98H22.02v3.03H32.34v1.53H23.43v2.85h8.91v1.68H20.91v3.03h9.12A34.082,34.082,0,0,1,19.8-6.72a18.471,18.471,0,0,1,2.28,2.88,34.386,34.386,0,0,0,4.98-1.98v4.29c-1.5.3-2.91.57-4.08.78l1.05,3.3C27.75,1.74,32.79.69,37.5-.42l-.33-3.24c-2.16.48-4.41.96-6.54,1.41V-7.83a27.227,27.227,0,0,0,3.93-3.03C36.54-4.2,39.84.36,46.17,2.52A14.391,14.391,0,0,1,48.48-.66a14.671,14.671,0,0,1-7.05-4.26,62.556,62.556,0,0,0,5.94-3.75Zm9.51,3.33h2.88l.63-11.07.15-4.17H53.13l.15,4.17ZM55.35.42a2.781,2.781,0,0,0,2.76-2.88,2.781,2.781,0,0,0-2.76-2.88,2.757,2.757,0,0,0-2.73,2.88A2.757,2.757,0,0,0,55.35.42ZM65.61-7.56h2.88l.63-11.07.15-4.17H64.83l.15,4.17ZM67.05.42a2.781,2.781,0,0,0,2.76-2.88,2.781,2.781,0,0,0-2.76-2.88,2.757,2.757,0,0,0-2.73,2.88A2.757,2.757,0,0,0,67.05.42Z" transform="matrix(0.985, -0.174, 0.174, 0.985, 449.217, 194.395)" fill="#fff"/>
  </g>
</svg>
