<?xml version="1.0" encoding="utf-8"?>
<!-- Generator: Adobe Illustrator 26.3.1, SVG Export Plug-In . SVG Version: 6.00 Build 0)  -->
<svg version="1.1" id="レイヤー_1" xmlns="http://www.w3.org/2000/svg" xmlns:xlink="http://www.w3.org/1999/xlink" x="0px"
	 y="0px" viewBox="0 0 389.5 152.6" style="enable-background:new 0 0 389.5 152.6;" xml:space="preserve">
<style type="text/css">
	.st0{fill:#D7515E;}
	.st1{fill:#FFFFFF;}
</style>
<g id="グループ_740" transform="translate(-304 -128)">
	<path id="合体_4" class="st0" d="M659.4,132.6l25.7,40.2l-10.4,46.5L659.4,132.6z M336.5,279.1l-25.7-40.2l10.4-46.5l338.2-59.7
		l15.3,86.7L336.5,279.1z"/>
	<path id="多角形_5" class="st0" d="M602,248.5l-25.4-25.3l34.8-9.3L602,248.5z"/>
	<path id="パス_672" class="st1" d="M406.3,204.1c0.1,0.6,0.1,1.2,0,1.8c-0.1,0.6-0.3,1.1-0.7,1.6c-0.4,0.6-1,1.1-1.6,1.5
		c-0.7,0.4-1.6,0.7-2.4,0.9l-2.2,0.4l0.8,4.4l-3.5,0.6l-2.4-13.6l5.8-1c0.7-0.1,1.5-0.2,2.2-0.2c0.6,0,1.2,0.2,1.7,0.4
		c0.6,0.2,1.1,0.6,1.5,1.2C405.9,202.7,406.2,203.4,406.3,204.1z M402.7,204.8c-0.1-0.4-0.2-0.7-0.5-0.9c-0.2-0.2-0.5-0.4-0.8-0.5
		c-0.4-0.1-0.7-0.1-1.1-0.1c-0.4,0-0.8,0.1-1.4,0.2l-0.6,0.1l0.7,4.1l1-0.2c0.5-0.1,1-0.2,1.5-0.4c0.3-0.1,0.7-0.3,0.9-0.6
		c0.2-0.2,0.3-0.5,0.4-0.8C402.8,205.5,402.8,205.1,402.7,204.8L402.7,204.8z M416.4,204.5l-0.3,0.1c-0.2,0-0.5,0-0.7,0
		c-0.3,0-0.6,0.1-0.8,0.1c-0.4,0.1-0.8,0.2-1.2,0.3c-0.4,0.1-0.8,0.3-1.1,0.5l1.2,6.9l-3.3,0.6l-1.8-10.3l3.3-0.6l0.3,1.5
		c0.5-0.6,1-1.1,1.7-1.6c0.4-0.3,0.9-0.5,1.4-0.6c0.1,0,0.2,0,0.4-0.1c0.1,0,0.3,0,0.4,0L416.4,204.5z M428.9,205l-7.5,1.3
		c0.1,0.7,0.6,1.3,1.2,1.7c0.8,0.3,1.7,0.4,2.6,0.2c0.7-0.1,1.4-0.4,2-0.7c0.5-0.3,1-0.7,1.4-1.1l0.4-0.1l0.5,2.6
		c-0.6,0.4-1.3,0.7-2,1c-0.7,0.3-1.4,0.5-2.1,0.6c-1.7,0.4-3.4,0.2-5-0.6c-1.3-0.8-2.2-2.1-2.3-3.7c-0.3-1.5,0-3.1,0.8-4.3
		c1-1.2,2.4-2.1,4-2.2c1.4-0.3,2.8-0.1,4,0.6c1.1,0.8,1.8,2.1,1.9,3.4L428.9,205z M425.3,203.7c-0.1-0.6-0.4-1.1-0.8-1.5
		c-0.5-0.3-1.1-0.4-1.6-0.3c-0.6,0.1-1.1,0.3-1.5,0.8c-0.4,0.5-0.5,1.1-0.4,1.7L425.3,203.7z M435.3,208.6l-3.3,0.6l-2.5-14.2
		l3.3-0.6L435.3,208.6z M441.7,207.4l-3.3,0.6l-1.8-10.3l3.3-0.6L441.7,207.4z M439.7,195.7l-3.5,0.6l-0.4-2.5l3.5-0.6L439.7,195.7z
		 M453.5,197.8l1.3,7.3l-3.3,0.6l-0.9-5.1c-0.1-0.5-0.2-0.9-0.3-1.3c-0.1-0.3-0.2-0.6-0.3-0.8c-0.1-0.2-0.3-0.3-0.6-0.4
		c-0.3-0.1-0.6-0.1-1,0c-0.3,0.1-0.6,0.2-0.9,0.4c-0.3,0.2-0.5,0.4-0.7,0.6l1.3,7.3l-3.3,0.6l-1.8-10.3l3.3-0.6l0.2,1.1
		c0.4-0.5,0.9-0.9,1.4-1.3c0.5-0.3,1.1-0.6,1.7-0.7c0.6-0.1,1.3-0.1,1.9,0.1c0.6,0.2,1.1,0.6,1.4,1.1c0.5-0.6,1.1-1.2,1.7-1.6
		c0.5-0.4,1.1-0.7,1.7-0.8c0.9-0.2,1.9,0,2.7,0.6c0.8,0.7,1.3,1.7,1.4,2.7l1.2,6.7l-3.3,0.6l-0.9-5.1c-0.1-0.5-0.2-0.9-0.3-1.3
		c-0.1-0.3-0.2-0.6-0.3-0.8c-0.1-0.2-0.3-0.3-0.6-0.4c-0.3-0.1-0.7-0.1-1,0c-0.3,0-0.5,0.1-0.8,0.3
		C454.1,197.4,453.8,197.6,453.5,197.8L453.5,197.8z M467.9,202.8l-3.3,0.6l-1.8-10.3l3.3-0.6L467.9,202.8z M465.9,191.1l-3.5,0.6
		l-0.4-2.5l3.5-0.6L465.9,191.1z M481.3,200.4L478,201l-0.9-5.1c-0.1-0.4-0.2-0.8-0.3-1.2c-0.1-0.3-0.2-0.6-0.4-0.9
		c-0.2-0.2-0.4-0.3-0.6-0.4c-0.3-0.1-0.7-0.1-1,0c-0.3,0.1-0.6,0.2-0.9,0.3c-0.3,0.2-0.6,0.4-0.9,0.6l1.3,7.3l-3.3,0.6l-1.8-10.3
		l3.3-0.6l0.2,1.1c0.4-0.5,0.9-1,1.5-1.3c0.5-0.3,1.1-0.6,1.7-0.7c1-0.2,2,0,2.8,0.5c0.8,0.7,1.3,1.7,1.4,2.7L481.3,200.4z
		 M490.1,196.1l-0.4-2.1c-0.4,0.1-0.9,0.3-1.4,0.4c-0.4,0.1-0.8,0.3-1.1,0.4c-0.3,0.1-0.5,0.3-0.7,0.6c-0.1,0.3-0.2,0.5-0.1,0.8
		c0,0.2,0.1,0.3,0.1,0.5c0.1,0.1,0.2,0.3,0.3,0.3c0.2,0.1,0.4,0.2,0.6,0.2c0.3,0,0.6,0,0.9-0.1c0.3-0.1,0.7-0.2,1-0.4
		C489.6,196.6,489.8,196.4,490.1,196.1z M490.3,197.7c-0.2,0.2-0.3,0.4-0.6,0.6c-0.2,0.2-0.4,0.4-0.7,0.6c-0.3,0.2-0.6,0.4-0.9,0.5
		c-0.4,0.1-0.7,0.2-1.1,0.3c-0.9,0.2-1.8,0-2.6-0.5c-0.8-0.5-1.3-1.3-1.4-2.1c-0.1-0.6-0.1-1.3,0.2-1.9c0.3-0.6,0.7-1,1.2-1.4
		c0.7-0.4,1.4-0.8,2.2-1c0.9-0.3,1.8-0.5,2.8-0.8l0-0.1c0-0.5-0.4-0.9-0.9-1.1c-0.7-0.1-1.4-0.1-2.1,0c-0.6,0.1-1.2,0.3-1.7,0.6
		c-0.6,0.3-1,0.5-1.2,0.7l-0.3,0.1l-0.4-2.5c0.3-0.2,0.9-0.4,1.6-0.6c0.8-0.3,1.5-0.5,2.3-0.6c1.4-0.4,2.8-0.3,4.2,0.1
		c1,0.5,1.6,1.4,1.7,2.5l1.2,7l-3.3,0.6L490.3,197.7z M503,189.2l-0.3,0.1c-0.2,0-0.5,0-0.7,0c-0.3,0-0.6,0.1-0.8,0.1
		c-0.4,0.1-0.8,0.2-1.2,0.3c-0.4,0.1-0.8,0.3-1.1,0.5l1.2,6.9l-3.3,0.6l-1.8-10.3l3.3-0.6l0.3,1.5c0.5-0.6,1-1.1,1.7-1.6
		c0.4-0.3,0.9-0.5,1.4-0.6c0.1,0,0.2,0,0.4-0.1c0.1,0,0.3,0,0.4,0L503,189.2z M510.1,191.6l1.2-7l3.4-0.6l-3.2,15l-3.6,0.6l0.9-4.1
		L503,186l3.5-0.6L510.1,191.6z M530.9,181.9c0-0.3-0.2-0.6-0.4-0.8c-0.2-0.2-0.5-0.4-0.8-0.4c-0.3-0.1-0.6-0.1-0.9,0
		c-0.3,0-0.7,0.1-1.1,0.2l-1.3,0.2l0.6,3.7l1.1-0.2c0.5-0.1,0.9-0.2,1.4-0.3c0.3-0.1,0.6-0.3,0.9-0.5c0.2-0.2,0.3-0.5,0.4-0.7
		C530.9,182.6,530.9,182.3,530.9,181.9L530.9,181.9z M538,190.4l-4.3,0.8l-4.6-4.3l-1.6,0.3l0.9,5l-3.5,0.6l-2.4-13.6l5.9-1
		c0.7-0.1,1.4-0.2,2.1-0.2c0.6,0,1.2,0.1,1.7,0.3c0.5,0.2,1,0.5,1.4,1c0.4,0.5,0.7,1.1,0.8,1.7c0.2,0.9,0.1,1.8-0.3,2.6
		c-0.4,0.8-1,1.4-1.7,1.9L538,190.4z M548.7,183.9l-7.5,1.3c0.1,0.7,0.6,1.3,1.2,1.7c0.8,0.3,1.7,0.4,2.6,0.2c0.7-0.1,1.4-0.4,2-0.7
		c0.5-0.3,1-0.7,1.4-1.1l0.4-0.1l0.5,2.6c-0.6,0.4-1.3,0.7-2,1c-0.7,0.3-1.4,0.5-2.1,0.6c-1.7,0.4-3.4,0.2-5-0.6
		c-1.3-0.8-2.2-2.1-2.3-3.7c-0.3-1.5,0-3.1,0.8-4.3c1-1.2,2.4-2,4-2.2c1.4-0.3,2.8-0.1,4,0.6c1.1,0.8,1.8,2.1,1.9,3.4L548.7,183.9z
		 M545,182.5c-0.1-0.6-0.4-1.1-0.8-1.5c-0.5-0.3-1.1-0.4-1.6-0.3c-0.6,0.1-1.1,0.3-1.5,0.8c-0.4,0.5-0.5,1.1-0.4,1.7L545,182.5z
		 M560.1,183.2c0.2,1-0.2,2.1-1,2.8c-1,0.9-2.3,1.5-3.7,1.7c-0.8,0.2-1.7,0.2-2.5,0.2c-0.6,0-1.3-0.1-1.9-0.3l-0.5-2.7l0.3-0.1
		c0.2,0.1,0.4,0.2,0.6,0.3c0.3,0.1,0.7,0.2,1,0.3c0.4,0.1,0.8,0.1,1.2,0.2c0.5,0,0.9,0,1.4-0.1c0.5-0.1,1-0.2,1.4-0.5
		c0.3-0.1,0.4-0.4,0.4-0.7c0-0.2-0.2-0.4-0.4-0.5c-0.4-0.1-0.7-0.1-1.1-0.1c-0.3,0-0.6,0-1,0c-0.4,0-0.8,0-1.2,0
		c-0.8,0-1.6-0.3-2.3-0.8c-0.6-0.5-0.9-1.1-1-1.8c-0.2-1,0.2-2,1-2.7c1-0.9,2.3-1.5,3.7-1.7c0.7-0.1,1.5-0.2,2.2-0.2
		c0.6,0,1.2,0.1,1.7,0.2l0.5,2.6l-0.3,0.1c-0.6-0.3-1.2-0.4-1.8-0.5c-0.6-0.1-1.3-0.1-2,0c-0.5,0.1-0.9,0.2-1.3,0.5
		c-0.3,0.2-0.5,0.4-0.4,0.7c0,0.2,0.2,0.4,0.3,0.5c0.4,0.1,0.8,0.2,1.2,0.2c0.3,0,0.7,0,1.1,0c0.4,0,0.8,0,1.2,0
		c0.8,0,1.5,0.3,2.1,0.7C559.7,181.9,560,182.5,560.1,183.2z M573.1,184.2l-3.3,0.6l-0.2-1.1c-0.4,0.5-0.9,1-1.5,1.4
		c-0.5,0.4-1.1,0.6-1.7,0.7c-1,0.2-2,0-2.8-0.5c-0.8-0.7-1.3-1.7-1.4-2.7l-1.2-6.7l3.3-0.6l0.9,5.1c0.1,0.5,0.2,0.9,0.3,1.3
		c0.1,0.3,0.2,0.6,0.4,0.8c0.2,0.2,0.4,0.3,0.6,0.4c0.3,0.1,0.7,0.1,1,0c0.3-0.1,0.6-0.2,0.9-0.3c0.3-0.2,0.6-0.4,0.9-0.6l-1.3-7.3
		l3.3-0.6L573.1,184.2z M579.5,183.1l-3.3,0.6l-2.5-14.2l3.3-0.6L579.5,183.1z M589.1,181.3c-0.4,0.2-0.7,0.3-1.1,0.4
		c-0.5,0.1-1,0.3-1.4,0.3c-1,0.3-2.1,0.2-3-0.3c-0.8-0.6-1.3-1.5-1.4-2.5l-0.8-4.8l-1.4,0.2l-0.4-2.2l1.4-0.2l-0.5-2.9l3.3-0.6
		l0.5,2.9l3.1-0.5l0.4,2.2l-3.1,0.5l0.6,3.6c0.1,0.4,0.1,0.7,0.2,0.9c0,0.2,0.1,0.5,0.3,0.7c0.1,0.2,0.3,0.4,0.5,0.4
		c0.3,0.1,0.7,0.1,1,0c0.2,0,0.4-0.1,0.7-0.2c0.2-0.1,0.4-0.2,0.5-0.3l0.3,0L589.1,181.3z M599.5,176.2c0.2,1-0.2,2.1-1,2.8
		c-1,0.9-2.3,1.5-3.7,1.7c-0.8,0.2-1.7,0.2-2.5,0.2c-0.6,0-1.3-0.1-1.9-0.3l-0.5-2.7l0.3-0.1c0.2,0.1,0.4,0.2,0.6,0.3
		c0.3,0.1,0.7,0.2,1,0.3c0.4,0.1,0.8,0.1,1.2,0.2c0.5,0,0.9,0,1.4-0.1c0.5-0.1,1-0.2,1.4-0.5c0.3-0.1,0.4-0.4,0.4-0.7
		c0-0.2-0.2-0.4-0.4-0.5c-0.4-0.1-0.7-0.1-1.1-0.1c-0.3,0-0.6,0-1,0c-0.4,0-0.8,0-1.2,0c-0.8,0-1.6-0.3-2.3-0.8
		c-0.6-0.5-0.9-1.1-1-1.8c-0.2-1,0.2-2,1-2.7c1-0.9,2.3-1.5,3.7-1.7c0.7-0.1,1.5-0.2,2.2-0.2c0.6,0,1.2,0.1,1.7,0.2l0.5,2.6
		l-0.3,0.1c-0.6-0.3-1.2-0.4-1.8-0.5c-0.6-0.1-1.3-0.1-2,0c-0.5,0.1-0.9,0.2-1.3,0.5c-0.3,0.2-0.5,0.4-0.4,0.7
		c0,0.2,0.2,0.4,0.3,0.5c0.4,0.1,0.8,0.2,1.2,0.2c0.3,0,0.7,0,1.1,0c0.4,0,0.8,0,1.2,0c0.8,0,1.5,0.3,2.1,0.7
		C599,174.9,599.4,175.5,599.5,176.2z M401.7,245l-3.6,0.6l-1.4-2.6l-5,0.9l-0.5,2.9l-3.5,0.6l2.6-14.5l4-0.7L401.7,245z
		 M395.3,240.7l-2.5-4.6l-0.8,5.2L395.3,240.7z M413.8,242.8l-3.3,0.6l-0.9-5.1c-0.1-0.4-0.2-0.8-0.3-1.2c-0.1-0.3-0.2-0.6-0.4-0.9
		c-0.2-0.2-0.4-0.3-0.6-0.4c-0.3-0.1-0.7-0.1-1,0c-0.3,0.1-0.6,0.2-0.9,0.3c-0.3,0.2-0.6,0.4-0.9,0.6l1.3,7.3l-3.3,0.6l-1.8-10.3
		l3.3-0.6l0.2,1.1c0.4-0.5,0.9-1,1.5-1.3c0.5-0.3,1.1-0.6,1.7-0.7c1-0.2,2,0,2.8,0.5c0.8,0.7,1.3,1.7,1.4,2.7L413.8,242.8z
		 M427.1,240.5l-3.3,0.6l-0.9-5.1c-0.1-0.4-0.2-0.8-0.3-1.2c-0.1-0.3-0.2-0.6-0.4-0.9c-0.2-0.2-0.4-0.3-0.6-0.4
		c-0.3-0.1-0.7-0.1-1,0c-0.3,0.1-0.6,0.2-0.9,0.3c-0.3,0.2-0.6,0.4-0.9,0.6l1.3,7.3l-3.3,0.6L415,232l3.3-0.6l0.2,1.1
		c0.4-0.5,0.9-1,1.5-1.3c0.5-0.3,1.1-0.6,1.7-0.7c1-0.2,2,0,2.8,0.5c0.8,0.7,1.3,1.7,1.4,2.7L427.1,240.5z M439.7,233
		c0.3,1.5,0.1,3-0.8,4.3c-0.9,1.2-2.3,2-3.9,2.2c-1.5,0.4-3.1,0.1-4.4-0.7c-1.2-0.9-2-2.2-2.2-3.7c-0.3-1.5-0.1-3,0.8-4.3
		c0.9-1.2,2.3-2,3.9-2.2c1.5-0.4,3.1-0.1,4.4,0.7C438.7,230.1,439.5,231.5,439.7,233L439.7,233z M436.1,236.2c0.2-0.3,0.3-0.7,0.3-1
		c0-0.5,0-1-0.1-1.6c-0.1-0.5-0.2-1-0.4-1.5c-0.1-0.3-0.4-0.6-0.6-0.9c-0.2-0.2-0.5-0.3-0.8-0.4c-0.3-0.1-0.6-0.1-0.9,0
		c-0.3,0-0.6,0.1-0.8,0.3c-0.3,0.2-0.5,0.4-0.6,0.6c-0.2,0.3-0.3,0.7-0.3,1.1c0,0.5,0,1.1,0.1,1.6c0.1,0.5,0.2,1,0.4,1.4
		c0.1,0.3,0.4,0.7,0.6,0.9c0.2,0.2,0.5,0.3,0.8,0.4c0.3,0.1,0.6,0.1,1,0c0.3-0.1,0.6-0.2,0.8-0.3
		C435.7,236.7,435.9,236.4,436.1,236.2L436.1,236.2z M453.2,235.9l-3.3,0.6l-0.2-1.1c-0.4,0.5-0.9,1-1.5,1.4
		c-0.5,0.4-1.1,0.6-1.7,0.7c-1,0.2-2,0-2.8-0.5c-0.8-0.7-1.3-1.7-1.4-2.7l-1.2-6.7l3.3-0.6l0.9,5.1c0.1,0.5,0.2,0.9,0.3,1.3
		c0.1,0.3,0.2,0.6,0.4,0.8c0.2,0.2,0.4,0.3,0.6,0.4c0.3,0.1,0.7,0.1,1,0c0.3-0.1,0.6-0.2,0.9-0.3c0.3-0.2,0.6-0.4,0.9-0.6l-1.3-7.3
		l3.3-0.6L453.2,235.9z M466.6,233.5l-3.3,0.6l-0.9-5.1c-0.1-0.4-0.2-0.8-0.3-1.2c-0.1-0.3-0.2-0.6-0.4-0.9
		c-0.2-0.2-0.4-0.3-0.6-0.4c-0.3-0.1-0.7-0.1-1,0c-0.3,0.1-0.6,0.2-0.9,0.3c-0.3,0.2-0.6,0.4-0.9,0.6l1.3,7.3l-3.3,0.6l-1.8-10.3
		l3.3-0.6l0.2,1.1c0.4-0.5,0.9-1,1.5-1.3c0.5-0.3,1.1-0.6,1.7-0.7c1-0.2,2,0,2.8,0.5c0.8,0.7,1.3,1.7,1.4,2.7L466.6,233.5z
		 M475,232.3c-0.8,0.2-1.7,0.2-2.5,0.1c-0.7-0.1-1.5-0.3-2.1-0.6c-0.6-0.4-1.2-0.9-1.6-1.5c-0.4-0.7-0.7-1.5-0.9-2.3
		c-0.2-0.8-0.2-1.7,0-2.6c0.2-0.7,0.5-1.4,1-2c0.5-0.5,1.1-1,1.8-1.3c0.7-0.3,1.4-0.6,2.2-0.7c0.7-0.1,1.3-0.2,2-0.1
		c0.6,0,1.2,0.1,1.8,0.3l0.5,2.8l-0.5,0.1c-0.1-0.1-0.3-0.2-0.5-0.3c-0.2-0.1-0.5-0.2-0.7-0.3c-0.3-0.1-0.6-0.2-0.9-0.2
		c-0.4,0-0.7,0-1.1,0.1c-0.8,0.1-1.5,0.5-1.9,1.2c-0.4,0.7-0.5,1.6-0.3,2.4c0.1,0.8,0.5,1.6,1.1,2.1c0.6,0.4,1.4,0.6,2.2,0.4
		c0.4-0.1,0.7-0.2,1.1-0.3c0.3-0.1,0.5-0.3,0.8-0.5c0.2-0.1,0.3-0.3,0.5-0.5c0.1-0.2,0.3-0.3,0.4-0.5l0.5-0.1l0.5,2.8
		c-0.5,0.3-1,0.6-1.5,0.9C476.3,232,475.6,232.2,475,232.3L475,232.3z M489.9,224.7l-7.5,1.3c0.1,0.7,0.6,1.3,1.2,1.7
		c0.8,0.3,1.7,0.4,2.6,0.2c0.7-0.1,1.4-0.4,2-0.7c0.5-0.3,1-0.7,1.4-1.1l0.4-0.1l0.5,2.6c-0.6,0.4-1.3,0.7-2,1
		c-0.7,0.3-1.4,0.5-2.1,0.6c-1.7,0.4-3.4,0.2-5-0.6c-1.3-0.8-2.2-2.1-2.3-3.7c-0.3-1.5,0-3.1,0.8-4.3c1-1.2,2.4-2.1,4-2.2
		c1.4-0.3,2.8-0.1,4,0.6c1.1,0.8,1.8,2.1,1.9,3.4L489.9,224.7z M486.3,223.4c-0.1-0.6-0.4-1.1-0.8-1.5c-0.5-0.3-1.1-0.4-1.6-0.3
		c-0.6,0.1-1.1,0.3-1.5,0.8c-0.4,0.5-0.5,1.1-0.4,1.7L486.3,223.4z M501.8,219.8l1.3,7.3l-3.3,0.6l-0.9-5.1
		c-0.1-0.5-0.2-0.9-0.3-1.3c-0.1-0.3-0.2-0.6-0.3-0.8c-0.1-0.2-0.3-0.3-0.6-0.4c-0.3-0.1-0.6-0.1-1,0c-0.3,0.1-0.6,0.2-0.9,0.4
		c-0.3,0.2-0.5,0.4-0.7,0.6l1.3,7.3l-3.3,0.6l-1.8-10.3l3.3-0.6l0.2,1.1c0.4-0.5,0.9-0.9,1.4-1.3c0.5-0.3,1.1-0.6,1.7-0.7
		c0.6-0.1,1.3-0.1,1.9,0.1c0.6,0.2,1.1,0.6,1.4,1.1c0.5-0.6,1.1-1.2,1.7-1.6c0.5-0.4,1.1-0.7,1.7-0.8c0.9-0.2,1.9,0,2.7,0.5
		c0.8,0.7,1.3,1.7,1.4,2.7l1.2,6.7l-3.3,0.6l-0.9-5.1c-0.1-0.5-0.2-0.9-0.3-1.3c-0.1-0.3-0.2-0.6-0.3-0.8c-0.1-0.2-0.3-0.3-0.6-0.4
		c-0.3-0.1-0.7-0.1-1,0c-0.3,0-0.5,0.1-0.8,0.3C502.4,219.3,502.1,219.5,501.8,219.8z M522.2,219l-7.5,1.3c0.1,0.7,0.6,1.3,1.2,1.7
		c0.8,0.3,1.7,0.4,2.6,0.2c0.7-0.1,1.4-0.4,2-0.7c0.5-0.3,1-0.7,1.4-1.1l0.4-0.1l0.5,2.6c-0.6,0.4-1.3,0.7-2,1
		c-0.7,0.3-1.4,0.5-2.1,0.6c-1.7,0.4-3.4,0.2-5-0.6c-1.3-0.8-2.2-2.1-2.3-3.7c-0.3-1.5,0-3.1,0.8-4.3c1-1.2,2.4-2.1,4-2.2
		c1.4-0.3,2.8-0.1,4,0.6c1.1,0.8,1.8,2.1,1.9,3.4L522.2,219z M518.6,217.7c-0.1-0.6-0.4-1.1-0.8-1.5c-0.5-0.3-1.1-0.4-1.6-0.3
		c-0.6,0.1-1.1,0.3-1.5,0.8c-0.4,0.5-0.5,1.1-0.4,1.7L518.6,217.7z M535.6,221.3l-3.3,0.6l-0.9-5.1c-0.1-0.4-0.2-0.8-0.3-1.2
		c-0.1-0.3-0.2-0.6-0.4-0.9c-0.2-0.2-0.4-0.3-0.6-0.4c-0.3-0.1-0.7-0.1-1,0c-0.3,0.1-0.6,0.2-0.9,0.3c-0.3,0.2-0.6,0.4-0.9,0.6
		l1.3,7.3l-3.3,0.6l-1.8-10.3l3.3-0.6l0.2,1.1c0.4-0.5,0.9-1,1.5-1.3c0.5-0.3,1.1-0.6,1.7-0.7c1-0.2,2,0,2.8,0.5
		c0.8,0.7,1.3,1.7,1.4,2.7L535.6,221.3z M545.2,219.5c-0.4,0.2-0.7,0.3-1.1,0.4c-0.5,0.1-1,0.3-1.4,0.3c-1,0.3-2.1,0.2-3-0.3
		c-0.8-0.6-1.3-1.5-1.4-2.5l-0.8-4.8l-1.4,0.2l-0.4-2.2l1.4-0.2l-0.5-2.9l3.3-0.6l0.5,2.9l3.1-0.5l0.4,2.2l-3.1,0.5l0.6,3.6
		c0.1,0.4,0.1,0.7,0.2,0.9c0,0.2,0.1,0.5,0.3,0.7c0.1,0.2,0.3,0.4,0.5,0.4c0.3,0.1,0.7,0.1,1,0c0.4-0.1,0.8-0.3,1.2-0.5l0.3,0
		L545.2,219.5z M563.6,216.4l-9.8,1.7l-2.4-13.6l9.8-1.7l0.5,2.6l-6.4,1.1l0.4,2.3l5.9-1l0.5,2.6l-5.9,1l0.6,3.4l6.4-1.1
		L563.6,216.4z M574.9,203.8l-2.1,11l-3.7,0.7l-5.7-9.6l3.5-0.6l3.6,6.6l1.1-7.5L574.9,203.8z M587.8,207.4l-7.5,1.3
		c0.1,0.7,0.6,1.3,1.2,1.7c0.8,0.3,1.7,0.4,2.6,0.2c0.7-0.1,1.4-0.4,2-0.7c0.5-0.3,1-0.7,1.4-1.1l0.4-0.1l0.5,2.6
		c-0.6,0.4-1.3,0.7-2,1c-0.7,0.3-1.4,0.5-2.1,0.6c-1.7,0.4-3.4,0.2-5-0.6c-1.3-0.8-2.2-2.1-2.3-3.7c-0.3-1.5,0-3.1,0.8-4.3
		c1-1.2,2.4-2.1,4-2.2c1.4-0.3,2.8-0.1,4,0.6c1.1,0.8,1.8,2.1,1.9,3.4L587.8,207.4z M584.2,206.1c-0.1-0.6-0.4-1.1-0.8-1.5
		c-0.5-0.3-1.1-0.4-1.6-0.3c-0.6,0.1-1.1,0.3-1.5,0.8c-0.4,0.5-0.5,1.1-0.4,1.7L584.2,206.1z M601.2,209.7l-3.3,0.6l-0.9-5.1
		c-0.1-0.4-0.2-0.8-0.3-1.2c-0.1-0.3-0.2-0.6-0.4-0.9c-0.2-0.2-0.4-0.3-0.6-0.4c-0.3-0.1-0.7-0.1-1,0c-0.3,0.1-0.6,0.2-0.9,0.3
		c-0.3,0.2-0.6,0.4-0.9,0.6l1.3,7.3l-3.3,0.6l-1.8-10.3l3.3-0.6l0.2,1.1c0.4-0.5,0.9-1,1.5-1.3c0.5-0.3,1.1-0.6,1.7-0.7
		c1-0.2,2,0,2.8,0.5c0.8,0.7,1.3,1.7,1.4,2.7L601.2,209.7z M610.8,207.9c-0.4,0.2-0.7,0.3-1.1,0.4c-0.5,0.1-1,0.3-1.4,0.3
		c-1,0.3-2.1,0.2-3-0.3c-0.8-0.6-1.3-1.5-1.4-2.5l-0.8-4.8l-1.4,0.2l-0.4-2.2l1.4-0.2l-0.5-2.9l3.3-0.6l0.5,2.9l3.1-0.5l0.4,2.2
		l-3.1,0.5l0.6,3.6c0.1,0.4,0.1,0.7,0.2,0.9c0,0.2,0.1,0.5,0.3,0.7c0.1,0.2,0.3,0.4,0.5,0.4c0.3,0.1,0.7,0.1,1,0
		c0.4-0.1,0.8-0.3,1.2-0.5l0.3,0L610.8,207.9z M614.5,193.3l1.3,9.8l-3,0.5l-2.1-9.6L614.5,193.3z M616.8,207l-3.7,0.7l-0.4-2.4
		l3.7-0.7L616.8,207z"/>
</g>
</svg>
