<svg xmlns="http://www.w3.org/2000/svg" width="280" height="109.733" viewBox="0 0 280 109.733">
  <g id="グループ_740" data-name="グループ 740" transform="translate(-304 -128)">
    <path id="合体_4" data-name="合体 4" d="M260,0l13.165,31.63L260,63.259ZM13.165,63.259,0,31.63,13.165,0H260V63.259Z" transform="matrix(0.985, -0.174, 0.174, 0.985, 304, 175.435)" fill="#d7515e"/>
    <path id="多角形_5" data-name="多角形 5" d="M12.939,0,25.879,22.285H0Z" transform="matrix(-0.966, 0.259, -0.259, -0.966, 530.726, 211.253)" fill="#d7515e"/>
    <path id="パス_674" data-name="パス 674" d="M-110.011-8.21h-3.179V0h-2.625V-8.21h-3.179v-1.969h8.982ZM-100.857,0h-2.475V-3.808a8.974,8.974,0,0,0-.048-.926,1.951,1.951,0,0,0-.164-.68.818.818,0,0,0-.4-.369,1.867,1.867,0,0,0-.735-.116,2.244,2.244,0,0,0-.68.109,3.654,3.654,0,0,0-.749.349V0h-2.461V-10.637h2.461v3.808a6.279,6.279,0,0,1,1.261-.786,3.224,3.224,0,0,1,1.343-.273,2.579,2.579,0,0,1,1.945.725,3,3,0,0,1,.7,2.167Zm6.911-2V-3.6q-.5.041-1.08.113a5.2,5.2,0,0,0-.882.167,1.214,1.214,0,0,0-.564.338.854.854,0,0,0-.195.584,1.521,1.521,0,0,0,.041.39.585.585,0,0,0,.205.287,1,1,0,0,0,.376.2,2.612,2.612,0,0,0,.684.065,2.021,2.021,0,0,0,.749-.15A2.339,2.339,0,0,0-93.946-2Zm0,1.189q-.2.15-.492.362a3.584,3.584,0,0,1-.554.335,3.491,3.491,0,0,1-.752.243A4.327,4.327,0,0,1-96.6.205a2.609,2.609,0,0,1-1.832-.677A2.242,2.242,0,0,1-99.169-2.2a2.331,2.331,0,0,1,.376-1.374,2.523,2.523,0,0,1,1.066-.841,6.028,6.028,0,0,1,1.7-.437q1.012-.13,2.1-.191v-.041a.885.885,0,0,0-.52-.878,3.756,3.756,0,0,0-1.531-.243,4.371,4.371,0,0,0-1.3.215q-.69.215-.991.332H-98.5V-7.513q.39-.1,1.268-.243a11.156,11.156,0,0,1,1.76-.14,5.463,5.463,0,0,1,3.032.646,2.293,2.293,0,0,1,.933,2.027V0h-2.44ZM-81.532,0h-2.475V-3.808a8.974,8.974,0,0,0-.048-.926,1.951,1.951,0,0,0-.164-.68.818.818,0,0,0-.4-.369,1.867,1.867,0,0,0-.735-.116,2.244,2.244,0,0,0-.68.109,3.654,3.654,0,0,0-.749.349V0h-2.461V-7.677h2.461v.848a6.279,6.279,0,0,1,1.261-.786,3.224,3.224,0,0,1,1.343-.273,2.579,2.579,0,0,1,1.945.725A3,3,0,0,1-81.532-5Zm10.411,0h-2.864l-2.153-3.343-.67.813V0H-79.27V-10.637h2.461v6.351l2.652-3.391h2.837l-2.762,3.309Zm9.5-2.714,1.75-4.963h2.529L-61.612,2.816h-2.666l1.217-2.871-2.987-7.622h2.584Zm13.494-1.121a4,4,0,0,1-1.1,2.984,4.222,4.222,0,0,1-3.1,1.09,4.222,4.222,0,0,1-3.1-1.09,4,4,0,0,1-1.1-2.984,4,4,0,0,1,1.111-2.994,4.235,4.235,0,0,1,3.093-1.087,4.21,4.21,0,0,1,3.107,1.094A4.029,4.029,0,0,1-48.132-3.835ZM-51.16-1.969a1.975,1.975,0,0,0,.359-.708,4.3,4.3,0,0,0,.12-1.145A4.447,4.447,0,0,0-50.8-4.956a1.986,1.986,0,0,0-.342-.731,1.2,1.2,0,0,0-.526-.4,1.861,1.861,0,0,0-.663-.116,1.931,1.931,0,0,0-.632.1,1.278,1.278,0,0,0-.53.383,1.958,1.958,0,0,0-.359.731,4.319,4.319,0,0,0-.133,1.169,4.5,4.5,0,0,0,.116,1.09,1.916,1.916,0,0,0,.342.742,1.3,1.3,0,0,0,.523.39,1.838,1.838,0,0,0,.694.123,1.824,1.824,0,0,0,.639-.113A1.171,1.171,0,0,0-51.16-1.969ZM-38.719,0H-41.18V-.848a7.319,7.319,0,0,1-1.251.79,3.125,3.125,0,0,1-1.354.27A2.557,2.557,0,0,1-45.743-.52a3.047,3.047,0,0,1-.687-2.16v-5h2.475v3.808q0,.581.038.967a1.686,1.686,0,0,0,.174.639.785.785,0,0,0,.393.369,1.867,1.867,0,0,0,.735.116,2.42,2.42,0,0,0,.7-.116,3,3,0,0,0,.738-.342V-7.677h2.461Zm12.086-8.832h-.185q-.164-.048-.427-.109A2.473,2.473,0,0,0-27.809-9a1.387,1.387,0,0,0-.981.26,1.453,1.453,0,0,0-.256,1v.062h1.9v1.668h-1.818V0h-2.461V-6.009h-1.053V-7.677h1.053v-.212A2.766,2.766,0,0,1-30.676-10a3.2,3.2,0,0,1,2.266-.7q.547,0,.991.038t.786.1Zm8.784,5a4,4,0,0,1-1.1,2.984,4.222,4.222,0,0,1-3.1,1.09,4.222,4.222,0,0,1-3.1-1.09,4,4,0,0,1-1.1-2.984,4,4,0,0,1,1.111-2.994,4.235,4.235,0,0,1,3.093-1.087,4.21,4.21,0,0,1,3.107,1.094A4.029,4.029,0,0,1-17.849-3.835Zm-3.028,1.866a1.975,1.975,0,0,0,.359-.708,4.3,4.3,0,0,0,.12-1.145,4.447,4.447,0,0,0-.123-1.135,1.986,1.986,0,0,0-.342-.731,1.2,1.2,0,0,0-.526-.4,1.861,1.861,0,0,0-.663-.116,1.931,1.931,0,0,0-.632.1,1.278,1.278,0,0,0-.53.383,1.958,1.958,0,0,0-.359.731,4.319,4.319,0,0,0-.133,1.169,4.5,4.5,0,0,0,.116,1.09,1.916,1.916,0,0,0,.342.742,1.3,1.3,0,0,0,.523.39,1.838,1.838,0,0,0,.694.123,1.824,1.824,0,0,0,.639-.113A1.171,1.171,0,0,0-20.877-1.969Zm10.356-3.363h-.219a2.212,2.212,0,0,0-.506-.082q-.349-.027-.581-.027a5.616,5.616,0,0,0-.93.068,5.275,5.275,0,0,0-.868.232V0h-2.461V-7.677h2.461v1.128a5.137,5.137,0,0,1,1.415-.926A3.135,3.135,0,0,1-11.1-7.7q.13,0,.294.007t.287.021ZM.308-2V-3.6q-.5.041-1.08.113a5.2,5.2,0,0,0-.882.167,1.214,1.214,0,0,0-.564.338.854.854,0,0,0-.195.584,1.521,1.521,0,0,0,.041.39.585.585,0,0,0,.205.287,1,1,0,0,0,.376.2,2.612,2.612,0,0,0,.684.065,2.021,2.021,0,0,0,.749-.15A2.339,2.339,0,0,0,.308-2Zm0,1.189q-.2.15-.492.362a3.584,3.584,0,0,1-.554.335A3.491,3.491,0,0,1-1.49.126a4.327,4.327,0,0,1-.854.079A2.609,2.609,0,0,1-4.177-.472,2.242,2.242,0,0,1-4.915-2.2a2.331,2.331,0,0,1,.376-1.374,2.523,2.523,0,0,1,1.066-.841,6.028,6.028,0,0,1,1.7-.437q1.012-.13,2.1-.191v-.041A.885.885,0,0,0-.2-5.964a3.756,3.756,0,0,0-1.531-.243,4.371,4.371,0,0,0-1.3.215q-.69.215-.991.332h-.226V-7.513q.39-.1,1.268-.243a11.156,11.156,0,0,1,1.76-.14,5.463,5.463,0,0,1,3.032.646,2.293,2.293,0,0,1,.933,2.027V0H.308ZM7.472,0H5.011V-10.637H7.472Zm4.785,0H9.8V-10.637h2.461ZM22.832-2.714l1.75-4.963h2.529L22.846,2.816H20.18L21.4-.055,18.409-7.677h2.584ZM36.326-3.835a4,4,0,0,1-1.1,2.984,4.222,4.222,0,0,1-3.1,1.09,4.222,4.222,0,0,1-3.1-1.09,4,4,0,0,1-1.1-2.984,4,4,0,0,1,1.111-2.994,4.235,4.235,0,0,1,3.093-1.087,4.21,4.21,0,0,1,3.107,1.094A4.029,4.029,0,0,1,36.326-3.835ZM33.3-1.969a1.975,1.975,0,0,0,.359-.708,4.3,4.3,0,0,0,.12-1.145,4.447,4.447,0,0,0-.123-1.135,1.986,1.986,0,0,0-.342-.731,1.2,1.2,0,0,0-.526-.4,1.861,1.861,0,0,0-.663-.116,1.931,1.931,0,0,0-.632.1,1.278,1.278,0,0,0-.53.383,1.958,1.958,0,0,0-.359.731,4.319,4.319,0,0,0-.133,1.169,4.5,4.5,0,0,0,.116,1.09,1.916,1.916,0,0,0,.342.742,1.3,1.3,0,0,0,.523.39,1.838,1.838,0,0,0,.694.123,1.824,1.824,0,0,0,.639-.113A1.171,1.171,0,0,0,33.3-1.969ZM45.739,0H43.278V-.848a7.319,7.319,0,0,1-1.251.79,3.125,3.125,0,0,1-1.354.27A2.557,2.557,0,0,1,38.715-.52a3.047,3.047,0,0,1-.687-2.16v-5H40.5v3.808q0,.581.038.967a1.686,1.686,0,0,0,.174.639.785.785,0,0,0,.393.369,1.867,1.867,0,0,0,.735.116,2.42,2.42,0,0,0,.7-.116,3,3,0,0,0,.738-.342V-7.677h2.461Zm7.889-5.332h-.219a2.212,2.212,0,0,0-.506-.082q-.349-.027-.581-.027a5.616,5.616,0,0,0-.93.068,5.275,5.275,0,0,0-.868.232V0H48.063V-7.677h2.461v1.128a5.137,5.137,0,0,1,1.415-.926A3.135,3.135,0,0,1,53.047-7.7q.13,0,.294.007t.287.021Zm13.74,1.948H61.735A1.771,1.771,0,0,0,62.422-2a3.056,3.056,0,0,0,1.863.479A4.188,4.188,0,0,0,65.8-1.8a4.731,4.731,0,0,0,1.155-.6h.273V-.431a9.14,9.14,0,0,1-1.572.485,8.2,8.2,0,0,1-1.634.15A5.346,5.346,0,0,1,60.478-.834a3.659,3.659,0,0,1-1.23-2.96,3.963,3.963,0,0,1,1.166-3.011,4.442,4.442,0,0,1,3.2-1.111,3.815,3.815,0,0,1,2.816.947,3.7,3.7,0,0,1,.943,2.724ZM64.921-4.826a1.723,1.723,0,0,0-.383-1.162,1.472,1.472,0,0,0-1.128-.39,1.8,1.8,0,0,0-1.169.369,1.575,1.575,0,0,0-.513,1.183ZM76.815,0H74.341V-3.808a8.974,8.974,0,0,0-.048-.926,1.951,1.951,0,0,0-.164-.68.818.818,0,0,0-.4-.369,1.867,1.867,0,0,0-.735-.116,2.244,2.244,0,0,0-.68.109,3.654,3.654,0,0,0-.749.349V0H69.1V-7.677h2.461v.848a6.279,6.279,0,0,1,1.261-.786,3.224,3.224,0,0,1,1.343-.273,2.579,2.579,0,0,1,1.945.725A3,3,0,0,1,76.815-5Zm7.171-.068a6.965,6.965,0,0,1-.841.161A8.574,8.574,0,0,1,82.059.15a3.3,3.3,0,0,1-2.136-.581,2.458,2.458,0,0,1-.7-1.989V-6.009H78.21V-7.677h1.012V-9.871h2.461v2.194h2.3v1.668h-2.3v2.721q0,.4.007.7a1.443,1.443,0,0,0,.109.54.757.757,0,0,0,.338.379,1.438,1.438,0,0,0,.708.14,2.074,2.074,0,0,0,.5-.082,2.092,2.092,0,0,0,.434-.15h.205Zm7.034-5.264H90.8a2.212,2.212,0,0,0-.506-.082q-.349-.027-.581-.027a5.616,5.616,0,0,0-.93.068,5.275,5.275,0,0,0-.868.232V0H85.456V-7.677h2.461v1.128a5.137,5.137,0,0,1,1.415-.926A3.135,3.135,0,0,1,90.439-7.7q.13,0,.294.007t.287.021ZM94.876,0H92.415V-7.677h2.461Zm.068-8.771h-2.6v-1.866h2.6Zm9.816,5.387H99.128A1.771,1.771,0,0,0,99.815-2a3.056,3.056,0,0,0,1.863.479,4.188,4.188,0,0,0,1.511-.28,4.731,4.731,0,0,0,1.155-.6h.273V-.431a9.14,9.14,0,0,1-1.572.485,8.2,8.2,0,0,1-1.634.15A5.346,5.346,0,0,1,97.87-.834a3.659,3.659,0,0,1-1.23-2.96,3.963,3.963,0,0,1,1.166-3.011A4.442,4.442,0,0,1,101-7.916a3.815,3.815,0,0,1,2.816.947,3.7,3.7,0,0,1,.943,2.724Zm-2.447-1.442a1.723,1.723,0,0,0-.383-1.162,1.472,1.472,0,0,0-1.128-.39,1.8,1.8,0,0,0-1.169.369,1.575,1.575,0,0,0-.513,1.183Zm10.855,2.393A2.225,2.225,0,0,1,112.1-.516a5.113,5.113,0,0,1-2.919.728,8.328,8.328,0,0,1-1.859-.191,7.088,7.088,0,0,1-1.34-.424V-2.427h.226q.185.13.427.284a4.34,4.34,0,0,0,.687.332,5.668,5.668,0,0,0,.868.27,4.582,4.582,0,0,0,1.039.113,2.7,2.7,0,0,0,1.073-.161.511.511,0,0,0,.349-.475.442.442,0,0,0-.205-.407,2.675,2.675,0,0,0-.779-.243q-.273-.062-.742-.133a7.971,7.971,0,0,1-.851-.174,3.017,3.017,0,0,1-1.552-.851,2.105,2.105,0,0,1-.506-1.439,2.184,2.184,0,0,1,1.049-1.842,4.925,4.925,0,0,1,2.868-.735,7.638,7.638,0,0,1,1.651.174,6.679,6.679,0,0,1,1.234.373V-5.4h-.212a5.008,5.008,0,0,0-1.248-.612,4.42,4.42,0,0,0-1.418-.236,2.686,2.686,0,0,0-1,.164q-.407.164-.407.465a.5.5,0,0,0,.185.417,2.512,2.512,0,0,0,.868.287q.376.075.81.147t.872.181a2.739,2.739,0,0,1,1.436.8A2.014,2.014,0,0,1,113.169-2.434Zm4.717-7.745-.314,7.246h-2.229l-.314-7.246ZM117.838,0h-2.762V-1.8h2.762Z" transform="matrix(0.985, -0.174, 0.174, 0.985, 441.819, 179.998)" fill="#fff"/>
    <path id="パス_675" data-name="パス 675" d="M-79.521-2.49a2.322,2.322,0,0,1-.237,1.008,2.4,2.4,0,0,1-.665.844,3.552,3.552,0,0,1-1.093.586,4.719,4.719,0,0,1-1.5.211,7.483,7.483,0,0,1-1.7-.176,8.611,8.611,0,0,1-1.532-.521V-1.992h.082a4.823,4.823,0,0,0,1.529.85,5.012,5.012,0,0,0,1.629.3,2.983,2.983,0,0,0,1.679-.4,1.243,1.243,0,0,0,.6-1.078,1.144,1.144,0,0,0-.284-.855,1.933,1.933,0,0,0-.864-.428,8.615,8.615,0,0,0-.952-.193q-.513-.076-1.087-.193a3.217,3.217,0,0,1-1.72-.841,2.17,2.17,0,0,1-.56-1.55,2.158,2.158,0,0,1,.926-1.8,3.786,3.786,0,0,1,2.35-.7,7.563,7.563,0,0,1,1.688.176,7.734,7.734,0,0,1,1.359.434V-6.9h-.082a4.033,4.033,0,0,0-1.31-.7,5.087,5.087,0,0,0-1.661-.278,2.606,2.606,0,0,0-1.5.387,1.164,1.164,0,0,0-.565,1,1.228,1.228,0,0,0,.281.855,1.9,1.9,0,0,0,.99.475q.375.082,1.066.2t1.172.24a3.036,3.036,0,0,1,1.465.779A2.042,2.042,0,0,1-79.521-2.49Zm7.2,2.49h-1.1V-.727a5.364,5.364,0,0,1-1.066.674,2.661,2.661,0,0,1-1.125.234,2.063,2.063,0,0,1-1.605-.63A2.657,2.657,0,0,1-77.792-2.3V-6.545h1.1v3.727a6.627,6.627,0,0,0,.047.853,1.554,1.554,0,0,0,.2.606.945.945,0,0,0,.41.375,1.8,1.8,0,0,0,.732.117,2.342,2.342,0,0,0,.935-.223,4.364,4.364,0,0,0,.946-.568V-6.545h1.1Zm7.928-3.322a4.42,4.42,0,0,1-.231,1.477,3.307,3.307,0,0,1-.624,1.1,2.843,2.843,0,0,1-.914.694,2.568,2.568,0,0,1-1.1.231A3.228,3.228,0,0,1-68.229.05,4.547,4.547,0,0,1-69.05-.3l-.07.3h-1.031V-9.117h1.1v3.258a4.617,4.617,0,0,1,.984-.624,2.74,2.74,0,0,1,1.172-.243,2.169,2.169,0,0,1,1.831.891A4.107,4.107,0,0,1-64.392-3.322Zm-1.137.029a3.334,3.334,0,0,0-.387-1.778,1.369,1.369,0,0,0-1.248-.606,2.485,2.485,0,0,0-.973.208,4.051,4.051,0,0,0-.914.536v3.75a4.793,4.793,0,0,0,.806.293,3.243,3.243,0,0,0,.765.082,1.793,1.793,0,0,0,1.433-.6A2.841,2.841,0,0,0-65.528-3.293ZM-53.124,0h-1.1V-3.727q0-.422-.038-.814a1.72,1.72,0,0,0-.161-.627.888.888,0,0,0-.387-.381,1.634,1.634,0,0,0-.727-.129,2.054,2.054,0,0,0-.926.231,5.671,5.671,0,0,0-.926.589q.018.135.029.313t.012.354V0h-1.1V-3.727q0-.434-.038-.823a1.713,1.713,0,0,0-.161-.624.871.871,0,0,0-.387-.378,1.667,1.667,0,0,0-.727-.126,2.042,2.042,0,0,0-.905.223,5.41,5.41,0,0,0-.905.568V0h-1.1V-6.545h1.1v.727a4.841,4.841,0,0,1,1.028-.668,2.544,2.544,0,0,1,1.093-.24,2.155,2.155,0,0,1,1.134.281,1.735,1.735,0,0,1,.694.779,5.448,5.448,0,0,1,1.219-.812,2.825,2.825,0,0,1,1.178-.249,1.9,1.9,0,0,1,1.591.653,2.89,2.89,0,0,1,.513,1.825Zm3.3-7.641h-1.242V-8.783h1.242ZM-49.89,0h-1.1V-6.545h1.1Zm6.855-1.887a1.781,1.781,0,0,1-.741,1.471A3.226,3.226,0,0,1-45.8.158a4.852,4.852,0,0,1-1.333-.173,5.939,5.939,0,0,1-1.017-.378V-1.629h.059A4.419,4.419,0,0,0-46.931-1a3.591,3.591,0,0,0,1.225.231,2.3,2.3,0,0,0,1.137-.234.79.79,0,0,0,.41-.738.746.746,0,0,0-.223-.586,2.007,2.007,0,0,0-.855-.34q-.234-.053-.612-.123t-.688-.152a2.288,2.288,0,0,1-1.222-.671,1.665,1.665,0,0,1-.36-1.087,1.778,1.778,0,0,1,.167-.762,1.84,1.84,0,0,1,.507-.639,2.427,2.427,0,0,1,.835-.437A3.732,3.732,0,0,1-45.478-6.7a5.091,5.091,0,0,1,1.187.144,4.476,4.476,0,0,1,1,.349v1.178h-.059a3.94,3.94,0,0,0-1.025-.524,3.53,3.53,0,0,0-1.184-.214,2.071,2.071,0,0,0-1.02.231A.743.743,0,0,0-47-4.852a.74.74,0,0,0,.252.609,1.968,1.968,0,0,0,.8.334q.3.07.683.141t.63.129a2.333,2.333,0,0,1,1.184.6A1.589,1.589,0,0,1-43.034-1.887Zm6.252,0a1.781,1.781,0,0,1-.741,1.471,3.226,3.226,0,0,1-2.024.574,4.852,4.852,0,0,1-1.333-.173A5.939,5.939,0,0,1-41.9-.393V-1.629h.059A4.419,4.419,0,0,0-40.679-1a3.591,3.591,0,0,0,1.225.231,2.3,2.3,0,0,0,1.137-.234.79.79,0,0,0,.41-.738.746.746,0,0,0-.223-.586,2.007,2.007,0,0,0-.855-.34q-.234-.053-.612-.123t-.688-.152a2.288,2.288,0,0,1-1.222-.671,1.665,1.665,0,0,1-.36-1.087,1.778,1.778,0,0,1,.167-.762,1.84,1.84,0,0,1,.507-.639,2.427,2.427,0,0,1,.835-.437A3.732,3.732,0,0,1-39.226-6.7a5.091,5.091,0,0,1,1.187.144,4.476,4.476,0,0,1,1,.349v1.178H-37.1a3.94,3.94,0,0,0-1.025-.524,3.53,3.53,0,0,0-1.184-.214,2.071,2.071,0,0,0-1.02.231.743.743,0,0,0-.416.688.74.74,0,0,0,.252.609,1.968,1.968,0,0,0,.8.334q.3.07.683.141t.63.129a2.333,2.333,0,0,1,1.184.6A1.589,1.589,0,0,1-36.782-1.887Zm2.76-5.754h-1.242V-8.783h1.242ZM-34.093,0h-1.1V-6.545h1.1Zm7.758-3.27a3.673,3.673,0,0,1-.82,2.525,2.79,2.79,0,0,1-2.2.926,2.794,2.794,0,0,1-2.206-.926,3.681,3.681,0,0,1-.817-2.525A3.692,3.692,0,0,1-31.559-5.8a2.79,2.79,0,0,1,2.206-.929,2.785,2.785,0,0,1,2.2.929A3.684,3.684,0,0,1-26.335-3.27Zm-1.137,0a2.981,2.981,0,0,0-.5-1.89,1.677,1.677,0,0,0-1.383-.618,1.682,1.682,0,0,0-1.392.618,2.994,2.994,0,0,0-.5,1.89,2.982,2.982,0,0,0,.5,1.866,1.664,1.664,0,0,0,1.389.636,1.666,1.666,0,0,0,1.38-.63A2.965,2.965,0,0,0-27.472-3.27ZM-19.157,0h-1.1V-3.727a6.416,6.416,0,0,0-.053-.847,1.548,1.548,0,0,0-.193-.618.891.891,0,0,0-.422-.366,1.805,1.805,0,0,0-.715-.12,2.287,2.287,0,0,0-.943.223,4.807,4.807,0,0,0-.943.568V0h-1.1V-6.545h1.1v.727a4.478,4.478,0,0,1,1.066-.668,2.8,2.8,0,0,1,1.131-.24,2.03,2.03,0,0,1,1.617.639,2.719,2.719,0,0,1,.557,1.84Zm6.8-1.887A1.781,1.781,0,0,1-13.1-.416a3.226,3.226,0,0,1-2.024.574,4.852,4.852,0,0,1-1.333-.173,5.939,5.939,0,0,1-1.017-.378V-1.629h.059A4.419,4.419,0,0,0-16.257-1a3.591,3.591,0,0,0,1.225.231A2.3,2.3,0,0,0-13.9-1.008a.79.79,0,0,0,.41-.738.746.746,0,0,0-.223-.586,2.007,2.007,0,0,0-.855-.34q-.234-.053-.612-.123t-.688-.152a2.288,2.288,0,0,1-1.222-.671,1.665,1.665,0,0,1-.36-1.087,1.778,1.778,0,0,1,.167-.762,1.84,1.84,0,0,1,.507-.639,2.427,2.427,0,0,1,.835-.437A3.732,3.732,0,0,1-14.8-6.7a5.091,5.091,0,0,1,1.187.144,4.476,4.476,0,0,1,1,.349v1.178h-.059A3.94,3.94,0,0,0-13.7-5.558a3.53,3.53,0,0,0-1.184-.214,2.071,2.071,0,0,0-1.02.231.743.743,0,0,0-.416.688.74.74,0,0,0,.252.609,1.968,1.968,0,0,0,.8.334q.3.07.683.141t.63.129a2.333,2.333,0,0,1,1.184.6A1.589,1.589,0,0,1-12.36-1.887ZM-1.479,0h-1.1V-.7q-.146.1-.4.278a2.823,2.823,0,0,1-.483.284,3.275,3.275,0,0,1-.633.226,3.428,3.428,0,0,1-.838.091A2.094,2.094,0,0,1-6.425-.4,1.973,1.973,0,0,1-7.04-1.9a2.07,2.07,0,0,1,.319-1.2,2.132,2.132,0,0,1,.911-.724,4.916,4.916,0,0,1,1.436-.357q.838-.094,1.8-.141v-.17a1.306,1.306,0,0,0-.132-.621A.96.96,0,0,0-3.085-5.5a1.563,1.563,0,0,0-.562-.182,4.846,4.846,0,0,0-.686-.047,4.653,4.653,0,0,0-.967.114,7.516,7.516,0,0,0-1.1.331H-6.46V-6.4q.322-.088.932-.193a7.034,7.034,0,0,1,1.2-.105,5.589,5.589,0,0,1,1.2.114,2.339,2.339,0,0,1,.888.39,1.729,1.729,0,0,1,.563.7,2.573,2.573,0,0,1,.193,1.061Zm-1.1-1.611V-3.434q-.5.029-1.187.088a6.139,6.139,0,0,0-1.081.17,1.775,1.775,0,0,0-.768.419,1.039,1.039,0,0,0-.293.782,1.041,1.041,0,0,0,.34.847,1.592,1.592,0,0,0,1.037.284,2.464,2.464,0,0,0,1.061-.226A4.776,4.776,0,0,0-2.575-1.611Zm7.3-3.732H4.667a4.036,4.036,0,0,0-.478-.085,4.92,4.92,0,0,0-.548-.026,2.267,2.267,0,0,0-.984.226,4.533,4.533,0,0,0-.914.583V0H.642V-6.545h1.1v.967A5.4,5.4,0,0,1,2.9-6.325a2.523,2.523,0,0,1,1.022-.22,4.137,4.137,0,0,1,.416.015q.129.015.387.056Zm6.516,2.186H6.419A2.79,2.79,0,0,0,6.6-2.106a1.976,1.976,0,0,0,.5.735,1.981,1.981,0,0,0,.724.422,2.886,2.886,0,0,0,.923.141,3.648,3.648,0,0,0,1.345-.267,3.312,3.312,0,0,0,.964-.524h.059V-.4a9.089,9.089,0,0,1-1.137.393A4.612,4.612,0,0,1,8.757.152,3.511,3.511,0,0,1,6.214-.729a3.319,3.319,0,0,1-.914-2.5,3.6,3.6,0,0,1,.876-2.549,3,3,0,0,1,2.306-.943,2.648,2.648,0,0,1,2.042.773,3.111,3.111,0,0,1,.718,2.2ZM10.169-4a1.947,1.947,0,0,0-.437-1.342,1.682,1.682,0,0,0-1.31-.475A1.91,1.91,0,0,0,7.014-5.3,2.025,2.025,0,0,0,6.419-4ZM22.6,0H21.5V-3.727a6.416,6.416,0,0,0-.053-.847,1.548,1.548,0,0,0-.193-.618.891.891,0,0,0-.422-.366,1.805,1.805,0,0,0-.715-.12,2.287,2.287,0,0,0-.943.223,4.807,4.807,0,0,0-.943.568V0h-1.1V-6.545h1.1v.727A4.478,4.478,0,0,1,19.3-6.486a2.8,2.8,0,0,1,1.131-.24,2.03,2.03,0,0,1,1.617.639,2.719,2.719,0,0,1,.557,1.84Zm7.7-3.27a3.673,3.673,0,0,1-.82,2.525,2.79,2.79,0,0,1-2.2.926,2.794,2.794,0,0,1-2.206-.926,3.681,3.681,0,0,1-.817-2.525A3.692,3.692,0,0,1,25.078-5.8a2.79,2.79,0,0,1,2.206-.929,2.785,2.785,0,0,1,2.2.929A3.684,3.684,0,0,1,30.3-3.27Zm-1.137,0a2.981,2.981,0,0,0-.5-1.89,1.677,1.677,0,0,0-1.383-.618,1.682,1.682,0,0,0-1.392.618,2.994,2.994,0,0,0-.5,1.89A2.982,2.982,0,0,0,25.9-1.4a1.664,1.664,0,0,0,1.389.636,1.666,1.666,0,0,0,1.38-.63A2.965,2.965,0,0,0,29.165-3.27ZM40.239-6.545,38.534,0h-1.02L35.833-5.045,34.163,0H33.149L31.427-6.545h1.148l1.2,5.068,1.635-5.068h.908L38-1.477l1.137-5.068ZM50.886-.41A7.107,7.107,0,0,1,49.84,0a3.689,3.689,0,0,1-1.052.146,3.9,3.9,0,0,1-1.3-.208,2.658,2.658,0,0,1-1.014-.63,2.828,2.828,0,0,1-.662-1.066,4.4,4.4,0,0,1-.234-1.506,3.477,3.477,0,0,1,.882-2.52A3.088,3.088,0,0,1,48.788-6.7a3.922,3.922,0,0,1,1.1.158,5.776,5.776,0,0,1,.993.387v1.225h-.059a4.191,4.191,0,0,0-1.04-.6,2.846,2.846,0,0,0-1.046-.211,1.85,1.85,0,0,0-1.479.63,2.762,2.762,0,0,0-.542,1.849,2.768,2.768,0,0,0,.53,1.819,1.834,1.834,0,0,0,1.491.636,2.752,2.752,0,0,0,.68-.088,2.974,2.974,0,0,0,.621-.229,4.968,4.968,0,0,0,.451-.261q.211-.138.334-.237h.059ZM53.411,0h-1.1V-9.117h1.1Zm7.758-3.27a3.673,3.673,0,0,1-.82,2.525,2.79,2.79,0,0,1-2.2.926,2.794,2.794,0,0,1-2.206-.926,3.681,3.681,0,0,1-.817-2.525A3.692,3.692,0,0,1,55.945-5.8a2.79,2.79,0,0,1,2.206-.929,2.785,2.785,0,0,1,2.2.929A3.684,3.684,0,0,1,61.169-3.27Zm-1.137,0a2.981,2.981,0,0,0-.5-1.89,1.677,1.677,0,0,0-1.383-.618,1.682,1.682,0,0,0-1.392.618,2.994,2.994,0,0,0-.5,1.89,2.982,2.982,0,0,0,.5,1.866,1.664,1.664,0,0,0,1.389.636,1.666,1.666,0,0,0,1.38-.63A2.965,2.965,0,0,0,60.032-3.27ZM67.55-1.887a1.781,1.781,0,0,1-.741,1.471,3.226,3.226,0,0,1-2.024.574,4.852,4.852,0,0,1-1.333-.173,5.939,5.939,0,0,1-1.017-.378V-1.629h.059A4.419,4.419,0,0,0,63.653-1a3.591,3.591,0,0,0,1.225.231,2.3,2.3,0,0,0,1.137-.234.79.79,0,0,0,.41-.738.746.746,0,0,0-.223-.586,2.007,2.007,0,0,0-.855-.34q-.234-.053-.612-.123t-.688-.152a2.288,2.288,0,0,1-1.222-.671,1.665,1.665,0,0,1-.36-1.087,1.778,1.778,0,0,1,.167-.762,1.84,1.84,0,0,1,.507-.639,2.427,2.427,0,0,1,.835-.437A3.732,3.732,0,0,1,65.106-6.7a5.091,5.091,0,0,1,1.187.144,4.476,4.476,0,0,1,1,.349v1.178h-.059a3.94,3.94,0,0,0-1.025-.524,3.53,3.53,0,0,0-1.184-.214A2.071,2.071,0,0,0,64-5.54a.743.743,0,0,0-.416.688.74.74,0,0,0,.252.609,1.968,1.968,0,0,0,.8.334q.3.07.683.141t.63.129a2.333,2.333,0,0,1,1.184.6A1.589,1.589,0,0,1,67.55-1.887ZM74.6-3.158H69.782a2.79,2.79,0,0,0,.182,1.052,1.976,1.976,0,0,0,.5.735,1.981,1.981,0,0,0,.724.422,2.886,2.886,0,0,0,.923.141,3.648,3.648,0,0,0,1.345-.267,3.312,3.312,0,0,0,.964-.524h.059V-.4a9.089,9.089,0,0,1-1.137.393A4.612,4.612,0,0,1,72.12.152a3.511,3.511,0,0,1-2.543-.882,3.319,3.319,0,0,1-.914-2.5,3.6,3.6,0,0,1,.876-2.549,3,3,0,0,1,2.306-.943,2.648,2.648,0,0,1,2.042.773,3.111,3.111,0,0,1,.718,2.2ZM73.532-4A1.947,1.947,0,0,0,73.1-5.344a1.682,1.682,0,0,0-1.31-.475,1.91,1.91,0,0,0-1.409.521A2.025,2.025,0,0,0,69.782-4Zm8.051,4h-1.1V-.686a3.989,3.989,0,0,1-.99.639,2.731,2.731,0,0,1-1.119.229,2.218,2.218,0,0,1-1.86-.9,4.039,4.039,0,0,1-.688-2.5,4.308,4.308,0,0,1,.237-1.482A3.419,3.419,0,0,1,76.7-5.812a2.7,2.7,0,0,1,.929-.68,2.69,2.69,0,0,1,1.1-.234,3.492,3.492,0,0,1,.914.108,4.245,4.245,0,0,1,.838.337V-9.117h1.1Zm-1.1-1.611V-5.367a4.135,4.135,0,0,0-.8-.275,3.626,3.626,0,0,0-.768-.076,1.742,1.742,0,0,0-1.441.645,2.861,2.861,0,0,0-.516,1.828,3.241,3.241,0,0,0,.4,1.772,1.416,1.416,0,0,0,1.277.606,2.376,2.376,0,0,0,.949-.208A4.023,4.023,0,0,0,80.481-1.611ZM85.55,0h-1.4V-1.67h1.4Z" transform="matrix(0.985, -0.174, 0.174, 0.985, 445.979, 198.656)" fill="#fff"/>
  </g>
</svg>
