<svg xmlns="http://www.w3.org/2000/svg" width="280" height="109.733" viewBox="0 0 280 109.733">
  <g id="グループ_739" data-name="グループ 739" transform="translate(-304 -128)">
    <path id="合体_4" data-name="合体 4" d="M260,0l13.164,31.63L260,63.259ZM13.165,63.259,0,31.63,13.165,0H260V63.259Z" transform="matrix(0.985, -0.174, 0.174, 0.985, 304, 175.435)" fill="#d7515e"/>
    <path id="多角形_5" data-name="多角形 5" d="M12.939,0,25.879,22.285H0Z" transform="matrix(-0.966, 0.259, -0.259, -0.966, 530.726, 211.253)" fill="#d7515e"/>
    <path id="パス_673" data-name="パス 673" d="M-99.5-12.978h15.162v-2.373h-7.581v-2.415h-2.6v2.415H-102v5.292c0,3.024-.147,7.434-1.869,10.437A11.6,11.6,0,0,1-101.7,1.785c1.89-3.276,2.205-8.463,2.205-11.844ZM-88.473-9.87a27.587,27.587,0,0,0-5.082-3.066l-1.659,1.659A24.225,24.225,0,0,1-90.279-8ZM-97.65,0c.945-1.68,1.323-4.452,1.554-6.867l-2.247-.483A17.384,17.384,0,0,1-99.876-.987Zm5.439-.8c-.588,0-.672-.105-.672-.861V-8.967h-2.478v7.329c0,2.331.525,3.066,2.751,3.066h2.331c1.953,0,2.583-1.008,2.814-4.6A6.573,6.573,0,0,1-89.67-4.179c-.084,2.9-.21,3.381-.84,3.381Zm3.381-6.237A24.968,24.968,0,0,1-86.268-.021l2.457-1.008A25.02,25.02,0,0,0-86.6-7.9Zm11.676-6.93h2.436V-14.7h4.494v.735h2.457V-14.7h4.431v-1.974h-4.431v-1.092h-2.457v1.092h-4.494v-1.092h-2.436v1.092h-4.41V-14.7h4.41Zm3.045,9.24c-.063.4-.126.756-.21,1.092H-76.9A10.845,10.845,0,0,0-75.264-5.04h5.628a11.7,11.7,0,0,0,1.47,1.407H-71.9a9.112,9.112,0,0,0,.189-1.092Zm-3.066-5.292h9.45v.84h-9.45Zm0-2.184h9.45v.819h-9.45ZM-63.042-5.04V-6.972H-73.794c.147-.252.273-.5.4-.756h8.19V-13.65H-79.569v5.922h3.591a7.88,7.88,0,0,1-.5.756h-5.355V-5.04h3.276a14.278,14.278,0,0,1-3.927,1.764A5.567,5.567,0,0,1-81.06-1.512a21.407,21.407,0,0,0,2.415-1.05v.714h3.36c-.819.861-2.268,1.47-4.851,1.869a6.968,6.968,0,0,1,1.2,1.911c3.8-.756,5.565-1.953,6.447-3.78H-68.9a2.791,2.791,0,0,1-.441,1.512.92.92,0,0,1-.672.189c-.357,0-1.176-.021-2.016-.105A4.621,4.621,0,0,1-71.421,1.7,23.661,23.661,0,0,0-68.9,1.68a2.493,2.493,0,0,0,1.533-.609c.462-.483.714-1.491.9-3.528a13.236,13.236,0,0,0,2.541,1.176,9.8,9.8,0,0,1,1.6-2A14.128,14.128,0,0,1-66.591-5.04Zm2.919-.462A15.306,15.306,0,0,1-61.194-.63a11.146,11.146,0,0,1,1.743.84,18.389,18.389,0,0,0,1.26-5.4Zm4.347.4a15.517,15.517,0,0,1,.966,3.864l1.743-.567a15,15,0,0,0-1.071-3.78Zm13.5-2.583h-3.969V-9.408h-2.247v1.722h-3.78V-.042h2.184V-5.67h1.6v7.5h2.247v-7.5h1.806v3.192c0,.168-.063.231-.252.231a12.528,12.528,0,0,1-1.281,0A7.645,7.645,0,0,1-45.36-.126a4.277,4.277,0,0,0,2.352-.4c.609-.357.735-.966.735-1.911Zm-3.465-6.3c-.21.651-.483,1.407-.735,2.016h-1.89a12.9,12.9,0,0,0-.63-2.016ZM-57.225-8.841c.378-.483.735-1.008,1.113-1.554a13.084,13.084,0,0,1,.63,1.449Zm13.167-3.129c.273-.588.588-1.281.924-2.016h1.491v-2.079h-4.473v-1.722h-2.5v1.722h-4.473v2.079h1.827l-.084.021a12.271,12.271,0,0,1,.63,1.995h-2.541v3.78a19.384,19.384,0,0,0-1.218-2.877l-1.638.672c.924-1.323,1.827-2.73,2.6-4.011l-1.974-.9c-.483,1.029-1.113,2.247-1.806,3.423a10.813,10.813,0,0,0-.672-.861c.735-1.176,1.6-2.835,2.352-4.284l-2.121-.735a25.977,25.977,0,0,1-1.512,3.654c-.168-.168-.336-.336-.5-.483l-1.2,1.617a17.8,17.8,0,0,1,2.436,3.045c-.273.42-.567.84-.84,1.218-.609.021-1.155.063-1.659.084l.252,2.163,2.772-.21v8.5h2.1V-6.846l1.071-.084a11.722,11.722,0,0,1,.273,1.2l1.743-.756a11.924,11.924,0,0,0-.4-1.533h2.142V-9.954h7.392v1.932h2.331V-11.97ZM-35.028-3c-.756,0-1.176-.651-1.176-1.659a6.347,6.347,0,0,1,1.512-3.906,22.888,22.888,0,0,0,1.932,3.99A3.4,3.4,0,0,1-35.028-3Zm5.691-8.337a24.778,24.778,0,0,1-1.848,4.452,20.837,20.837,0,0,1-1.47-3.3A8.108,8.108,0,0,1-29.337-11.34Zm3.381-2.961c.126-.525.315-1.533.483-2.1l-2.877-.273A11.223,11.223,0,0,1-28.5-14.7c-.063.315-.126.651-.21,1.008a10.841,10.841,0,0,0-4.7,1.239c-.147-.441-.273-.882-.378-1.281-.168-.609-.336-1.3-.462-1.974l-2.73.84a15.3,15.3,0,0,1,.84,2.163c.168.567.357,1.134.546,1.68a9.122,9.122,0,0,0-3.066,6.573c0,2.688,1.6,4.158,3.318,4.158,1.533,0,2.688-.714,4.1-2.226.21.273.462.546.714.819l2.079-1.659c-.378-.378-.756-.8-1.134-1.239a25.317,25.317,0,0,0,2.814-6.615,4.455,4.455,0,0,1,3.36,4.578c0,2.6-1.785,4.935-6.363,5.334l1.6,2.394c4.347-.651,7.5-3.171,7.5-7.581a6.853,6.853,0,0,0-5.46-7.014Zm13.02,9.66c-.4,0-.441-.126-.441-.966V-9.933l4.473-.882-.378-2.268-4.1.777v-4.851h-2.457v5.334l-2.352.441.4,2.31,1.953-.378v3.843c0,2.562.483,3.339,2.457,3.339h1.743c1.659,0,2.268-1.008,2.5-4.095a6.218,6.218,0,0,1-2.2-1.008c-.063,2.226-.126,2.73-.525,2.73Zm2.646-11.592v2.394h3.15C-7.224-7.917-7.5-2.9-12.222-.063a6.72,6.72,0,0,1,1.764,2.016c5.166-3.318,5.691-9.114,5.817-15.792h3.255C-1.554-5.355-1.806-2-2.373-1.26a.881.881,0,0,1-.819.4c-.483,0-1.47,0-2.562-.084a6.42,6.42,0,0,1,.777,2.562,17.533,17.533,0,0,0,3.045-.063A2.7,2.7,0,0,0-.021.294C.777-.861.987-4.494,1.2-14.952c.021-.336.042-1.281.042-1.281ZM7.5-16.926c-.021.588-.063,1.428-.168,2.184a50.433,50.433,0,0,0-.588,6.657A26.9,26.9,0,0,0,6.993-4.62l2.583-.168a12.488,12.488,0,0,1-.105-2.2c.105-2.73,2.247-6.426,4.7-6.426,1.722,0,2.793,1.785,2.793,5,0,5.04-3.234,6.552-7.854,7.266L10.689,1.26c5.5-1.008,9.114-3.822,9.114-9.7,0-4.578-2.247-7.413-5.145-7.413-2.352,0-4.158,1.764-5.145,3.36a33.954,33.954,0,0,1,.84-4.305ZM34.167-2.751c0,1.2-.714,1.533-1.827,1.533-1.428,0-2.163-.5-2.163-1.281,0-.714.8-1.281,2.268-1.281a11.144,11.144,0,0,1,1.7.147C34.167-3.276,34.167-2.982,34.167-2.751Zm8.316.525a16.085,16.085,0,0,0-5.817-3.15c-.063-.8-.1-1.638-.147-2.415,2.016-.063,3.633-.21,5.5-.42v-2.457c-1.7.21-3.444.4-5.544.483l.021-2.163c2-.105,3.675-.273,5.04-.4l-.063-2.394a43.574,43.574,0,0,1-4.956.5l.021-.819a13.9,13.9,0,0,1,.147-1.47H33.852a8.324,8.324,0,0,1,.1,1.428v.945H32.928a27.529,27.529,0,0,1-4.515-.4l.021,2.373a34.631,34.631,0,0,0,4.515.315h.987V-10.1h-.987a37.725,37.725,0,0,1-5.019-.378l-.021,2.457c1.386.168,3.78.273,5,.273h1.071c.021.609.042,1.26.084,1.89a12.764,12.764,0,0,0-1.281-.063c-3.213,0-5.145,1.47-5.145,3.57,0,2.2,1.764,3.465,5.082,3.465,2.751,0,4.1-1.365,4.1-3.15,0-.21,0-.462-.021-.735A15.752,15.752,0,0,1,40.992.1Zm7.56-14.406a13.057,13.057,0,0,1,.273,2.814c0,1.785-.21,7.245-.21,10.038,0,3.549,2.205,5.04,5.607,5.04a10.823,10.823,0,0,0,9.03-4.746l-1.89-2.331c-1.491,2.268-3.675,4.242-7.119,4.242-1.6,0-2.856-.672-2.856-2.772,0-2.583.147-7.245.252-9.471A21.343,21.343,0,0,1,53.4-16.59Zm28.14,8.673a30.554,30.554,0,0,1,4.011-.231,30.039,30.039,0,0,1,3.57.252l.063-2.5a36.106,36.106,0,0,0-3.654-.189c-1.344,0-2.835.1-3.99.21Zm1.638-6.678c-1.134.273-2.31.5-3.486.693l.168-.8c.105-.462.294-1.386.441-1.953l-3.171-.252a10.8,10.8,0,0,1-.084,2.1q-.063.5-.189,1.2c-.63.042-1.239.063-1.848.063a20.474,20.474,0,0,1-2.625-.168l.063,2.6c.735.042,1.512.084,2.52.084.42,0,.882-.021,1.365-.042-.147.588-.294,1.176-.441,1.722A45.852,45.852,0,0,1,68.943-.021l2.919.966a67.07,67.07,0,0,0,3.3-9.618c.231-.84.441-1.764.63-2.667,1.386-.168,2.793-.4,4.032-.672ZM76.9-5.418a14.273,14.273,0,0,0-.357,2.772c0,2.1,1.785,3.318,5.292,3.318A33.278,33.278,0,0,0,86.079.378l.105-2.667a24.11,24.11,0,0,1-4.326.42c-2.226,0-2.751-.672-2.751-1.575A7.2,7.2,0,0,1,79.4-5.187Zm14.385.126H93.3l.441-7.749.105-2.919H90.741l.1,2.919ZM92.295.294a1.947,1.947,0,0,0,1.932-2.016,1.947,1.947,0,0,0-1.932-2.016,1.93,1.93,0,0,0-1.911,2.016A1.93,1.93,0,0,0,92.295.294Zm7.182-5.586h2.016l.441-7.749.105-2.919H98.931l.1,2.919ZM100.485.294a1.947,1.947,0,0,0,1.932-2.016,1.947,1.947,0,0,0-1.932-2.016,1.93,1.93,0,0,0-1.911,2.016A1.93,1.93,0,0,0,100.485.294Z" transform="matrix(0.985, -0.174, 0.174, 0.985, 442.217, 182.395)" fill="#fff"/>
    <path id="パス_674" data-name="パス 674" d="M-82.323-3.411a13.1,13.1,0,0,1,1.719-.1,12.874,12.874,0,0,1,1.53.108l.027-1.071a15.474,15.474,0,0,0-1.566-.081c-.576,0-1.215.045-1.71.09Zm.7-2.862c-.486.117-.99.216-1.494.3l.072-.342c.045-.2.126-.594.189-.837l-1.359-.108a4.627,4.627,0,0,1-.036.9q-.027.216-.081.513c-.27.018-.531.027-.792.027a8.774,8.774,0,0,1-1.125-.072l.027,1.116c.315.018.648.036,1.08.036.18,0,.378-.009.585-.018-.063.252-.126.5-.189.738A19.651,19.651,0,0,1-86.283-.009l1.251.414a28.744,28.744,0,0,0,1.413-4.122c.1-.36.189-.756.27-1.143.594-.072,1.2-.171,1.728-.288Zm-1.251,3.951a6.117,6.117,0,0,0-.153,1.188c0,.9.765,1.422,2.268,1.422A14.262,14.262,0,0,0-78.939.162l.045-1.143a10.333,10.333,0,0,1-1.854.18c-.954,0-1.179-.288-1.179-.675a3.084,3.084,0,0,1,.126-.747ZM-72.4-7.389a6.156,6.156,0,0,1-.684.747c-.6.594-1.827,1.584-2.52,2.151-.891.738-.963,1.233-.081,1.98.819.693,2.178,1.854,2.664,2.367.252.27.531.549.783.828L-71.2-.27c-.882-.855-2.6-2.214-3.267-2.781-.486-.414-.495-.513-.018-.918.594-.513,1.773-1.422,2.349-1.89.207-.162.5-.4.783-.6Zm5.346,4.464A6.041,6.041,0,0,0-67.3-1.458c0,1.242.963,1.917,2.754,1.917a12.491,12.491,0,0,0,2.4-.216l.027-1.179a9.854,9.854,0,0,1-2.43.261c-1.26,0-1.593-.441-1.593-1.089A4,4,0,0,1-65.9-2.826Zm5.814-3.5a13.038,13.038,0,0,1-1.746.45c-.2-.468-.369-.891-.522-1.359l-1.26.243a6.918,6.918,0,0,1,.441.855c.054.135.117.279.189.423a15.185,15.185,0,0,1-3.33-.09l.036,1.143a20.024,20.024,0,0,0,3.753,0c.261.558.567,1.179.783,1.629-.27-.018-.756-.072-1.053-.1l-.1.918c.657.081,1.539.225,2.025.324l.63-.675c-.387-.711-.81-1.557-1.152-2.277.54-.108,1.062-.234,1.512-.36Zm6.9-.342L-55.6-7.281c-.162.378-.324.666-.441.909-.468.846-2.349,4.59-3.006,6.372l1.26.423a17.2,17.2,0,0,1,.675-1.98c.315-.729.81-1.341,1.422-1.341a.48.48,0,0,1,.522.5c.027.36.018,1.089.054,1.566A1.325,1.325,0,0,0-53.64.405c1.377,0,2.205-1.008,2.664-2.547l-.963-.783c-.252,1.107-.738,2.106-1.5,2.106a.5.5,0,0,1-.567-.486c-.054-.369-.027-1.089-.045-1.485a1.076,1.076,0,0,0-1.107-1.17,2.028,2.028,0,0,0-1.017.27c.441-.783,1.116-2.025,1.557-2.664C-54.522-6.5-54.423-6.66-54.333-6.768Zm6.39,5.148c-.333,0-.693-.441-.693-1.341a2.8,2.8,0,0,1,2.259-2.583,14.306,14.306,0,0,1-.477,2.16C-47.214-2.178-47.574-1.62-47.943-1.62ZM-45.5.369c2.25-.342,3.4-1.674,3.4-3.546a3.4,3.4,0,0,0-3.6-3.483,3.975,3.975,0,0,0-4.1,3.816c0,1.5.837,2.592,1.818,2.592s1.746-1.1,2.277-2.9a19.369,19.369,0,0,0,.531-2.421,2.206,2.206,0,0,1,1.863,2.358A2.413,2.413,0,0,1-45.333-.828c-.234.054-.486.1-.828.144Zm5.643-3.132a5.951,5.951,0,0,0-.171,1.287c0,1.224,1.017,1.908,3.06,1.908a14.217,14.217,0,0,0,3.1-.3l-.009-1.26a12.639,12.639,0,0,1-3.132.351c-1.287,0-1.818-.414-1.818-.981a3.668,3.668,0,0,1,.144-.9Zm4.977-4.329a6.85,6.85,0,0,1,.387.648c-.684.063-1.665.117-2.52.117a23.052,23.052,0,0,1-2.421-.108v1.188c.72.054,1.494.1,2.43.1.846,0,1.953-.063,2.574-.108V-6.327c.09.18.18.351.252.5l.729-.315c-.171-.333-.5-.9-.72-1.233Zm1.062-.405a9.542,9.542,0,0,1,.729,1.242l.711-.306A9.935,9.935,0,0,0-33.1-7.785Zm3.861,1.935h6.5V-6.579H-26.7V-7.614h-1.116v1.035h-3.2v2.268a9.587,9.587,0,0,1-.8,4.473,4.971,4.971,0,0,1,.927.6,11.193,11.193,0,0,0,.945-5.076Zm4.725,1.332a11.823,11.823,0,0,0-2.178-1.314l-.711.711A10.382,10.382,0,0,1-26-3.429ZM-29.16,0a8.288,8.288,0,0,0,.666-2.943l-.963-.207a7.45,7.45,0,0,1-.657,2.727Zm2.331-.342c-.252,0-.288-.045-.288-.369V-3.843h-1.062V-.7c0,1,.225,1.314,1.179,1.314h1c.837,0,1.107-.432,1.206-1.971a2.817,2.817,0,0,1-.945-.432c-.036,1.242-.09,1.449-.36,1.449Zm1.449-2.673a10.7,10.7,0,0,1,1.1,3.006l1.053-.432a10.723,10.723,0,0,0-1.2-2.943Zm5-2.97h1.044V-6.3h1.926v.315h1.053V-6.3h1.9v-.846h-1.9v-.468h-1.053v.468h-1.926v-.468h-1.044v.468h-1.89V-6.3h1.89Zm1.305,3.96c-.027.171-.054.324-.09.468h-1.107a4.648,4.648,0,0,0,.7-.6h2.412a5.017,5.017,0,0,0,.63.6h-1.6a3.905,3.905,0,0,0,.081-.468Zm-1.314-2.268h4.05v.36h-4.05Zm0-.936h4.05v.351h-4.05Zm6.057,3.069v-.828h-4.608c.063-.108.117-.216.171-.324h3.51V-5.85h-6.156v2.538h1.539a3.376,3.376,0,0,1-.216.324h-2.3v.828h1.4a6.119,6.119,0,0,1-1.683.756,2.386,2.386,0,0,1,.612.756,9.174,9.174,0,0,0,1.035-.45v.306h1.44a3.552,3.552,0,0,1-2.079.8,2.986,2.986,0,0,1,.513.819c1.629-.324,2.385-.837,2.763-1.62h1.539a1.2,1.2,0,0,1-.189.648.394.394,0,0,1-.288.081c-.153,0-.5-.009-.864-.045a1.98,1.98,0,0,1,.261.837A10.14,10.14,0,0,0-16.839.72a1.068,1.068,0,0,0,.657-.261A2.722,2.722,0,0,0-15.8-1.053a5.673,5.673,0,0,0,1.089.5,4.2,4.2,0,0,1,.684-.855,6.055,6.055,0,0,1-1.827-.756Zm4.671-1.386a4.352,4.352,0,0,1,1.224-.2A5.094,5.094,0,0,1-9.558-2.052a10.393,10.393,0,0,1-.1-1.476Zm-1.7,2.538c-.288,0-.414-.153-.414-.432a2.332,2.332,0,0,1,1.116-1.638A12.423,12.423,0,0,0-10.467-1.3,1.894,1.894,0,0,1-11.358-1.008Zm3.3-4.176a5.155,5.155,0,0,1-.081.531h-.153a5.994,5.994,0,0,0-1.332.162c.009-.27.036-.54.063-.8A25.9,25.9,0,0,0-6.39-5.616L-6.4-6.642a14.865,14.865,0,0,1-3.024.378c.027-.171.054-.333.09-.477a3.462,3.462,0,0,1,.126-.477l-1.17-.027a3.559,3.559,0,0,1-.027.531l-.054.477H-10.8a14.635,14.635,0,0,1-1.647-.117l.036,1.035c.414.018,1.107.054,1.575.054h.288c-.036.36-.063.738-.09,1.116a3.6,3.6,0,0,0-2.187,2.925A1.158,1.158,0,0,0-11.619.081a3.137,3.137,0,0,0,1.377-.36c.036.126.081.252.117.36L-9.1-.225c-.072-.216-.144-.432-.207-.666a6.93,6.93,0,0,0,1.881-2.7A1.325,1.325,0,0,1-6.507-2.34c0,.873-.7,1.737-2.421,1.926l.594.936C-6.147.2-5.4-1.035-5.4-2.286A2.3,2.3,0,0,0-7.119-4.473c.054-.171.117-.36.162-.459Zm5.6-2.07c-.009.252-.027.612-.072.936a21.614,21.614,0,0,0-.252,2.853A11.529,11.529,0,0,0-2.673-1.98l1.107-.072A5.352,5.352,0,0,1-1.611-3c.045-1.17.963-2.754,2.016-2.754.738,0,1.2.765,1.2,2.142C1.6-1.449.216-.8-1.764-.5L-1.089.54C1.269.108,2.817-1.1,2.817-3.618,2.817-5.58,1.854-6.8.612-6.8a2.755,2.755,0,0,0-2.2,1.44A14.552,14.552,0,0,1-1.233-7.2ZM13.5-6.57a10.651,10.651,0,0,0-.729-1.224l-.711.3a8.98,8.98,0,0,1,.729,1.242ZM7.452-7.155a9.868,9.868,0,0,1-.189,1.89c-.45.036-.873.063-1.152.072a8.275,8.275,0,0,1-.945,0l.1,1.206c.279-.045.738-.108.99-.135.171-.027.45-.063.765-.1A13.22,13.22,0,0,1,5.229-.054L6.39.414A19.314,19.314,0,0,0,8.208-4.347c.252-.018.468-.036.612-.036.558,0,.864.1.864.81a6.8,6.8,0,0,1-.36,2.439.655.655,0,0,1-.666.387,5.2,5.2,0,0,1-1.1-.189l.2,1.179A5.046,5.046,0,0,0,8.82.369,1.424,1.424,0,0,0,10.287-.45a8.713,8.713,0,0,0,.5-3.249c0-1.278-.666-1.7-1.611-1.7-.18,0-.45.018-.747.036.063-.324.135-.648.189-.918.045-.225.1-.5.153-.738Zm4.977,1c-.18-.333-.5-.9-.72-1.233l-.711.3A9.951,9.951,0,0,1,11.61-6.03l-.828.351a10.093,10.093,0,0,1,1.5,3.357l1.134-.531A17.709,17.709,0,0,0,11.97-5.958Zm8.1-.117a6.154,6.154,0,0,1-.819.54c-.423.234-1.2.63-1.926,1.053a20.9,20.9,0,0,1-1.116-2.466l-1.125.459c.4.945.837,1.89,1.251,2.655a2.97,2.97,0,0,0-1.476,2.349c0,1.53,1.341,2.025,3.114,2.025A17.431,17.431,0,0,0,21.294.126l.018-1.287A14.907,14.907,0,0,1,18.4-.837c-1.233,0-1.854-.342-1.854-.981,0-.621.5-1.134,1.242-1.62a27.3,27.3,0,0,1,2.484-1.323c.324-.162.612-.315.882-.477Zm8.649,3.312c0,1.395-1.413,2.115-3.627,2.367L26.2.522c2.475-.342,4.239-1.53,4.239-3.438a2.152,2.152,0,0,0-2.4-2.2,12.347,12.347,0,0,0-2.691.405,8.738,8.738,0,0,1-.972.153l.333,1.269c.261-.09.6-.225.864-.306a8,8,0,0,1,2.322-.432C28.728-4.032,29.178-3.546,29.178-2.961ZM25.686-7.245l-.18,1.08c1.026.18,2.961.351,4.005.423l.18-1.1A25.175,25.175,0,0,1,25.686-7.245Zm7.9,4.482a5.951,5.951,0,0,0-.171,1.287c0,1.224,1.017,1.908,3.06,1.908a14.217,14.217,0,0,0,3.1-.3l-.009-1.26a12.639,12.639,0,0,1-3.132.351c-1.287,0-1.818-.414-1.818-.981a3.668,3.668,0,0,1,.144-.9Zm4.977-4.329a6.85,6.85,0,0,1,.387.648c-.684.063-1.665.117-2.52.117a23.052,23.052,0,0,1-2.421-.108v1.188c.72.054,1.494.1,2.43.1.846,0,1.953-.063,2.574-.108V-6.327c.09.18.18.351.252.5L40-6.147c-.171-.333-.5-.9-.72-1.233ZM39.627-7.5a9.542,9.542,0,0,1,.729,1.242l.711-.306a9.935,9.935,0,0,0-.729-1.224Zm3.339,4.644a6.041,6.041,0,0,0-.252,1.467c0,1.242.963,1.917,2.754,1.917a12.409,12.409,0,0,0,2.4-.216L47.9-.864a10.363,10.363,0,0,1-2.43.252c-1.26,0-1.593-.432-1.593-1.08a3.833,3.833,0,0,1,.252-1.071Zm4.752-4.311a7.519,7.519,0,0,1,.558.963,12.534,12.534,0,0,1-1.242.3,13.93,13.93,0,0,1-.513-1.359l-1.269.243a5.87,5.87,0,0,1,.441.855l.189.423a15.185,15.185,0,0,1-3.33-.09l.036,1.143a20.125,20.125,0,0,0,3.762,0c.252.558.567,1.17.774,1.62-.27-.018-.747-.063-1.053-.09l-.1.918c.666.081,1.548.216,2.025.315l.63-.666c-.387-.711-.81-1.557-1.143-2.277.531-.108,1.053-.234,1.512-.36l-.162-.864.306-.135a12.381,12.381,0,0,0-.711-1.233Zm1.071-.387a9.542,9.542,0,0,1,.729,1.242l.711-.315A14.077,14.077,0,0,0,49.5-7.848Zm4.149,1.143L51.57-6.426a5.166,5.166,0,0,1,.063.9c0,.549.018,1.584.1,2.4C51.984-.729,52.839.153,53.811.153c.72,0,1.278-.549,1.872-2.1l-.9-1.08c-.171.7-.522,1.746-.945,1.746-.558,0-.828-.873-.954-2.16-.054-.639-.063-1.314-.054-1.89A7.062,7.062,0,0,1,52.938-6.408Zm4.455.189-1.134.378a9.026,9.026,0,0,1,1.584,4.626l1.179-.45A9.714,9.714,0,0,0,57.393-6.219Zm6.66,5.04c0,.513-.306.657-.783.657-.612,0-.927-.216-.927-.549,0-.306.342-.549.972-.549a4.776,4.776,0,0,1,.729.063C64.053-1.4,64.053-1.278,64.053-1.179Zm3.564.225A6.894,6.894,0,0,0,65.124-2.3c-.027-.342-.045-.7-.063-1.035.864-.027,1.557-.09,2.358-.18V-4.572c-.729.09-1.476.171-2.376.207l.009-.927c.855-.045,1.575-.117,2.16-.171l-.027-1.026a18.675,18.675,0,0,1-2.124.216l.009-.351a5.958,5.958,0,0,1,.063-.63H63.918a3.568,3.568,0,0,1,.045.612v.4h-.441a11.8,11.8,0,0,1-1.935-.171L61.6-5.391a14.842,14.842,0,0,0,1.935.135h.423v.927h-.423a16.168,16.168,0,0,1-2.151-.162l-.009,1.053c.594.072,1.62.117,2.142.117h.459c.009.261.018.54.036.81a5.47,5.47,0,0,0-.549-.027c-1.377,0-2.205.63-2.205,1.53,0,.945.756,1.485,2.178,1.485,1.179,0,1.755-.585,1.755-1.35,0-.09,0-.2-.009-.315a6.751,6.751,0,0,1,1.8,1.233Zm3.24-6.174a5.6,5.6,0,0,1,.117,1.206c0,.765-.09,3.105-.09,4.3,0,1.521.945,2.16,2.4,2.16a4.638,4.638,0,0,0,3.87-2.034l-.81-1A3.558,3.558,0,0,1,73.3-.675a1.073,1.073,0,0,1-1.224-1.188c0-1.107.063-3.1.108-4.059A9.147,9.147,0,0,1,72.3-7.11Zm12.06,3.717a13.1,13.1,0,0,1,1.719-.1,12.874,12.874,0,0,1,1.53.108l.027-1.071a15.474,15.474,0,0,0-1.566-.081c-.576,0-1.215.045-1.71.09Zm.7-2.862c-.486.117-.99.216-1.494.3l.072-.342c.045-.2.126-.594.189-.837l-1.359-.108a4.627,4.627,0,0,1-.036.9q-.027.216-.081.513c-.27.018-.531.027-.792.027a8.774,8.774,0,0,1-1.125-.072l.027,1.116c.315.018.648.036,1.08.036.18,0,.378-.009.585-.018-.063.252-.126.5-.189.738A19.651,19.651,0,0,1,78.957-.009l1.251.414a28.744,28.744,0,0,0,1.413-4.122c.1-.36.189-.756.27-1.143.594-.072,1.2-.171,1.728-.288ZM82.368-2.322a6.117,6.117,0,0,0-.153,1.188c0,.9.765,1.422,2.268,1.422A14.262,14.262,0,0,0,86.3.162l.045-1.143a10.333,10.333,0,0,1-1.854.18c-.954,0-1.179-.288-1.179-.675a3.084,3.084,0,0,1,.126-.747Z" transform="matrix(0.985, -0.174, 0.174, 0.985, 442.378, 201.16)" fill="#fff"/>
  </g>
</svg>
