<svg xmlns="http://www.w3.org/2000/svg" width="389.509" height="152.649" viewBox="0 0 389.509 152.649">
  <g id="グループ_739" data-name="グループ 739" transform="translate(-304 -128)">
    <path id="合体_4" data-name="合体 4" d="M-4111.313,0-4093,44l-18.314,44Zm-343.373,88L-4473,44l18.314-44h343.372V88Z" transform="matrix(0.985, -0.174, 0.174, 0.985, 4709.045, -582.742)" fill="#d7515e"/>
    <path id="多角形_5" data-name="多角形 5" d="M18,0,36,31H0Z" transform="matrix(-0.966, 0.259, -0.259, -0.966, 619.398, 243.813)" fill="#d7515e"/>
    <path id="パス_672" data-name="パス 672" d="M-110.352-12.576c-.384,4.032-1.152,8.3-2.544,11.136A28.214,28.214,0,0,1-108.528.624a44.379,44.379,0,0,0,2.88-12.384Zm10.7,1.056a48.853,48.853,0,0,1,2.832,9.264L-92.3-3.84a54.738,54.738,0,0,0-3.12-9.024Zm-.816-11.952c.576,1.008,1.152,2.16,1.68,3.264l-4.848.24a154.527,154.527,0,0,0,9.168-13.008l-4.848-2.016a75.053,75.053,0,0,1-4.416,7.872c-.48-.624-1.056-1.344-1.68-2.016,1.728-2.688,3.7-6.384,5.424-9.7l-5.04-1.776a63.451,63.451,0,0,1-3.5,8.352l-1.152-1.008-2.688,3.936a45.22,45.22,0,0,1,5.76,6.576c-.72,1.056-1.488,2.064-2.208,2.976l-3.552.144.48,4.992c2.112-.144,4.512-.336,7.1-.48V4.224h5.04V-15.5l2.736-.192a26.119,26.119,0,0,1,.672,2.592l4.32-2.016a39.147,39.147,0,0,0-4.416-10.128ZM-75.072-9.744v6.768h-10.7V-9.744ZM-91.008,4.128h5.232V2.112h10.7V4.08h5.52V-14.832H-91.008ZM-67.392-29.28v-5.184H-77.9v-6.192h-5.808v6.192H-93.84v5.184h10.128v5.232H-92.5v5.184h24v-5.184H-77.9V-29.28Zm14.976,6.144v-3.072h7.728v3.072Zm0-10.56h7.728v3.072h-7.728Zm21.408,3.072H-38.64V-33.7h7.632Zm0,7.488H-38.64v-3.072h7.632ZM-20.3-10.32v-5.232H-38.64v-2.832h13.92V-38.448h-33.7v20.064h13.728v2.832H-63.072v5.232h14.208a43.03,43.03,0,0,1-15.7,8.448A29.6,29.6,0,0,1-60.672,2.88,46.093,46.093,0,0,0-44.688-7.392V4.176h6.048V-7.632A48.16,48.16,0,0,0-22.752,2.592a23.071,23.071,0,0,1,3.84-4.848A47.037,47.037,0,0,1-34.464-10.32Zm29.28-3.312h-5.9v-5.424h5.9ZM19.3-19.056v-1.536a33.449,33.449,0,0,0,5.9,3.6,21.771,21.771,0,0,1,3.936-4.944A29.455,29.455,0,0,1,21.7-26.3a78.793,78.793,0,0,0,6.336-5.184l-4.176-2.976A46.494,46.494,0,0,1,18.48-29.28c-.768-.816-1.488-1.632-2.16-2.5,1.968-1.44,4.176-3.312,6.144-5.088l-4.32-3.072a45.327,45.327,0,0,1-4.272,4.464,33.342,33.342,0,0,1-2.4-5.136l-5.136,1.44A43.913,43.913,0,0,0,15.072-24.48H-2.3A32.9,32.9,0,0,0,5.52-37.248L1.68-39.024l-1.008.192H-11.856v4.9h9.792a26.851,26.851,0,0,1-3.024,4.32C-6.432-30.768-8.256-32.16-9.7-33.168l-3.6,2.976a51.231,51.231,0,0,1,4.752,4.08,29.7,29.7,0,0,1-7.968,4.944,24.822,24.822,0,0,1,3.456,4.32A39.234,39.234,0,0,0-6.672-20.64v1.584H-2.64v5.424H-12.912V-8.4h9.5c-1.2,3.216-4.08,6.192-10.7,8.208a21.756,21.756,0,0,1,3.648,4.56C-1.584,1.392,1.584-3.36,2.64-8.4H8.976v5.232c0,5.328,1.3,7.008,6.48,7.008h5.232c4.224,0,5.712-1.92,6.288-8.256A14.213,14.213,0,0,1,21.84-6.672C21.648-2.16,21.408-1.2,20.16-1.2h-3.7c-1.344,0-1.536-.288-1.536-2.016V-8.4H25.152v-5.232H14.928v-5.424ZM70.56-17.424a63.06,63.06,0,0,1-7.536,5.76,30.127,30.127,0,0,1-2.88-6.432H75.408v-4.848H56.976v-2.688H72v-4.56H56.976V-32.64h16.9v-4.848h-16.9v-3.168H51.264v3.168H34.752v4.848H51.264v2.448H37.008v4.56H51.264v2.688H32.976V-18.1H47.568A54.531,54.531,0,0,1,31.2-10.752a29.554,29.554,0,0,1,3.648,4.608,55.017,55.017,0,0,0,7.968-3.168v6.864c-2.4.48-4.656.912-6.528,1.248l1.68,5.28C43.92,2.784,51.984,1.1,59.52-.672l-.528-5.184C55.536-5.088,51.936-4.32,48.528-3.6v-8.928a43.564,43.564,0,0,0,6.288-4.848C57.984-6.72,63.264.576,73.392,4.032a23.025,23.025,0,0,1,3.7-5.088,23.473,23.473,0,0,1-11.28-6.816,100.089,100.089,0,0,0,9.5-6ZM84.816-12.1h4.608l1.008-17.712.24-6.672h-7.1l.24,6.672ZM87.12.672a4.45,4.45,0,0,0,4.416-4.608A4.45,4.45,0,0,0,87.12-8.544a4.411,4.411,0,0,0-4.368,4.608A4.411,4.411,0,0,0,87.12.672ZM102.576-12.1h4.608l1.008-17.712.24-6.672h-7.1l.24,6.672ZM104.88.672A4.45,4.45,0,0,0,109.3-3.936a4.45,4.45,0,0,0-4.416-4.608,4.411,4.411,0,0,0-4.368,4.608A4.411,4.411,0,0,0,104.88.672Z" transform="matrix(0.985, -0.174, 0.174, 0.985, 503.814, 221.506)" fill="#fff"/>
  </g>
</svg>
