<svg xmlns="http://www.w3.org/2000/svg" width="280" height="109.733" viewBox="0 0 280 109.733">
  <g id="グループ_739" data-name="グループ 739" transform="translate(-304 -128)">
    <path id="合体_4" data-name="合体 4" d="M260,0l13.164,31.63L260,63.259ZM13.165,63.259,0,31.63,13.165,0H260V63.259Z" transform="matrix(0.985, -0.174, 0.174, 0.985, 304, 175.435)" fill="#d7515e"/>
    <path id="多角形_5" data-name="多角形 5" d="M12.939,0,25.879,22.285H0Z" transform="matrix(-0.966, 0.259, -0.259, -0.966, 530.726, 211.253)" fill="#d7515e"/>
    <path id="パス_673" data-name="パス 673" d="M-113.589-5.5A15.268,15.268,0,0,1-114.7-.63a12.343,12.343,0,0,1,1.911.9,19.416,19.416,0,0,0,1.26-5.418Zm4.683.462a21.373,21.373,0,0,1,1.239,4.053l1.974-.693a23.949,23.949,0,0,0-1.365-3.948Zm-.357-5.229c.252.441.5.945.735,1.428l-2.121.1a67.606,67.606,0,0,0,4.011-5.691l-2.121-.882a32.836,32.836,0,0,1-1.932,3.444c-.21-.273-.462-.588-.735-.882.756-1.176,1.617-2.793,2.373-4.242l-2.205-.777a27.76,27.76,0,0,1-1.533,3.654l-.5-.441-1.176,1.722a19.784,19.784,0,0,1,2.52,2.877c-.315.462-.651.9-.966,1.3l-1.554.063.21,2.184c.924-.063,1.974-.147,3.108-.21V1.848h2.205V-6.783l1.2-.084a11.429,11.429,0,0,1,.294,1.134l1.89-.882a17.127,17.127,0,0,0-1.932-4.431Zm11.109,6.006V-1.3h-4.683V-4.263Zm-6.972,6.069h2.289V.924h4.683v.861h2.415V-6.489h-9.387ZM-94.794-12.81v-2.268h-4.6v-2.709h-2.541v2.709h-4.431v2.268h4.431v2.289h-3.843v2.268h10.5v-2.268h-4.116V-12.81Zm6.972,2.688v-1.344h3.381v1.344Zm0-4.62h3.381V-13.4h-3.381Zm9.366,1.344H-81.8v-1.344h3.339Zm0,3.276H-81.8v-1.344h3.339Zm4.683,5.607V-6.8H-81.8V-8.043h6.09v-8.778H-90.447v8.778h6.006V-6.8h-8.043v2.289h6.216a18.826,18.826,0,0,1-6.867,3.7,12.949,12.949,0,0,1,1.7,2.079,20.166,20.166,0,0,0,6.993-4.494V1.827H-81.8V-3.339a21.07,21.07,0,0,0,6.951,4.473,10.094,10.094,0,0,1,1.68-2.121,20.579,20.579,0,0,1-6.8-3.528Zm13.23-1.449h-2.583V-8.337h2.583Zm4.515-2.373v-.672a14.634,14.634,0,0,0,2.583,1.575A9.525,9.525,0,0,1-51.723-9.6a12.886,12.886,0,0,1-3.255-1.911,34.472,34.472,0,0,0,2.772-2.268l-1.827-1.3a20.342,20.342,0,0,1-2.352,2.268c-.336-.357-.651-.714-.945-1.092.861-.63,1.827-1.449,2.688-2.226l-1.89-1.344A19.831,19.831,0,0,1-58.4-15.519a14.587,14.587,0,0,1-1.05-2.247l-2.247.63a19.212,19.212,0,0,0,3.822,6.426h-7.6A14.394,14.394,0,0,0-62.055-16.3l-1.68-.777-.441.084h-5.481v2.142h4.284a11.747,11.747,0,0,1-1.323,1.89c-.588-.5-1.386-1.113-2.016-1.554l-1.575,1.3a22.413,22.413,0,0,1,2.079,1.785,12.993,12.993,0,0,1-3.486,2.163,10.859,10.859,0,0,1,1.512,1.89A17.164,17.164,0,0,0-67.389-9.03v.693h1.764v2.373h-4.494v2.289h4.158c-.525,1.407-1.785,2.709-4.683,3.591a9.518,9.518,0,0,1,1.6,2c3.885-1.3,5.271-3.381,5.733-5.586h2.772v2.289c0,2.331.567,3.066,2.835,3.066h2.289c1.848,0,2.5-.84,2.751-3.612a6.218,6.218,0,0,1-2.247-.987C-55-.945-55.1-.525-55.65-.525h-1.617c-.588,0-.672-.126-.672-.882V-3.675h4.473V-5.964h-4.473V-8.337Zm22.848.714a27.589,27.589,0,0,1-3.3,2.52,13.181,13.181,0,0,1-1.26-2.814h6.678v-2.121h-8.064v-1.176h6.573v-2h-6.573V-14.28h7.392V-16.4h-7.392v-1.386h-2.5V-16.4h-7.224v2.121h7.224v1.071h-6.237v2h6.237v1.176h-8v2.121h6.384A23.857,23.857,0,0,1-50.4-4.7a12.93,12.93,0,0,1,1.6,2.016,24.07,24.07,0,0,0,3.486-1.386v3c-1.05.21-2.037.4-2.856.546l.735,2.31c2.6-.567,6.132-1.3,9.429-2.079l-.231-2.268c-1.512.336-3.087.672-4.578.987V-5.481A19.059,19.059,0,0,0-40.068-7.6c1.386,4.662,3.7,7.854,8.127,9.366A10.074,10.074,0,0,1-30.324-.462a10.269,10.269,0,0,1-4.935-2.982A43.789,43.789,0,0,0-31.1-6.069Zm16.8-2.793a34.312,34.312,0,0,0,5.565-4.515l-2.247-2.037a22.164,22.164,0,0,1-5.481,4.746,32.262,32.262,0,0,1-9.555,3.8l1.512,2.562a41.058,41.058,0,0,0,7.224-2.856v6.888A23.518,23.518,0,0,1-19.509.924h3.318a14.438,14.438,0,0,1-.189-2.751ZM6.909-14.553,5.082-13.8a19.8,19.8,0,0,1,1.911,3.423l1.89-.819A33.51,33.51,0,0,0,6.909-14.553Zm2.814-1.155-1.806.819A21.971,21.971,0,0,1,9.933-11.55l1.827-.882A30.566,30.566,0,0,0,9.723-15.708ZM-7.224-5.964l2.478,2.541c.357-.546.861-1.3,1.344-1.953C-2.541-6.531-1.029-8.61-.21-9.66c.609-.756.966-.756,1.7-.126A45.868,45.868,0,0,1,5.355-5.628c1.239,1.449,3.15,3.78,4.494,5.5L12.1-2.562C10.584-4.3,8.337-6.7,6.93-8.232A54.654,54.654,0,0,0,2.646-12.5C.924-13.944-.21-13.8-1.47-12.306-2.9-10.584-4.536-8.526-5.5-7.56-6.132-6.93-6.594-6.489-7.224-5.964Zm25.725-10-1.974,2.1a43.664,43.664,0,0,1,5.25,4.536l2.142-2.2A44.1,44.1,0,0,0,18.5-15.96ZM15.876-1.974,17.64.8a22.742,22.742,0,0,0,7.791-2.961,22.33,22.33,0,0,0,7.77-7.77l-1.638-2.961a19.913,19.913,0,0,1-7.644,8.169A21.644,21.644,0,0,1,15.876-1.974ZM53.109-7.728a68.587,68.587,0,0,0-8.778-3.255V-14.07a22.838,22.838,0,0,1,.189-2.541H41.244a14.646,14.646,0,0,1,.21,2.541V-2.016A22.47,22.47,0,0,1,41.244.9H44.52c-.084-.84-.189-2.31-.189-2.919V-7.959A60.656,60.656,0,0,1,51.912-4.83Zm10.6-7.476v1.071h-3.3V-15.2Zm-3.3,3.843v-1.155h3.3v1.155Zm5.649,1.806v-7.434H57.981V1.827h2.436V-9.555Zm-.336,4.62V-6.51h1.953v1.575ZM72.177-2.9V-4.935h-2.31V-6.51h1.974V-8.484H61.7V-6.51h1.911v1.575H61.4V-2.9h2.121A4.921,4.921,0,0,1,61.383.378a9.451,9.451,0,0,1,1.6,1.428,6.84,6.84,0,0,0,2.688-4.7h2.016V1.428h2.184V-2.9Zm-2.352-8.421v-1.2h3.4v1.2Zm3.4-3.885v1.071h-3.4V-15.2Zm2.457-1.785H67.452v7.476h5.775v8.4c0,.294-.105.42-.441.42-.315.021-1.344.021-2.289-.021a8.88,8.88,0,0,1,.756,2.478A7.464,7.464,0,0,0,74.7,1.281c.756-.4.987-1.092.987-2.373ZM88.389-2.268h2.646V-.924H88.389ZM87.57-12.453h4.263a15.822,15.822,0,0,1-.609,2.058H88.536a14.952,14.952,0,0,0,.735-1.554ZM91.035-7.2H88.389v-1.26h2.646Zm0,3.129H88.389v-1.3h2.646Zm6.888,3.15H93.408V-2.268h3.7V-4.074h-3.7v-1.3h3.7V-7.2h-3.7v-1.26h4.263V-10.4H93.639l.777-1.512-2.394-.546h5.46v-4.6H95.088v2.5H92.526v-3.108H90.048v3.108H87.675v-2.5H85.386v4.6h1.449a13.564,13.564,0,0,1-3.759,5.124v-5.313a33.47,33.47,0,0,0,2.016-4.326l-2.373-.756a22.319,22.319,0,0,1-4.767,7.875,15.819,15.819,0,0,1,1.323,2.583A19.3,19.3,0,0,0,80.7-8.946V1.785h2.373V-7.161a16.975,16.975,0,0,1,1.764,1.68,15.811,15.811,0,0,0,1.155-1.2V1.764h2.394V1.008h9.534ZM102-5.292h2.016l.441-7.749.105-2.919h-3.108l.1,2.919ZM103,.294a1.947,1.947,0,0,0,1.932-2.016A1.947,1.947,0,0,0,103-3.738a1.93,1.93,0,0,0-1.911,2.016A1.93,1.93,0,0,0,103,.294Zm7.182-5.586H112.2l.441-7.749.105-2.919h-3.108l.1,2.919ZM111.195.294a1.947,1.947,0,0,0,1.932-2.016,1.947,1.947,0,0,0-1.932-2.016,1.93,1.93,0,0,0-1.911,2.016A1.93,1.93,0,0,0,111.195.294Z" transform="matrix(0.985, -0.174, 0.174, 0.985, 446.217, 190.395)" fill="#fff"/>
  </g>
</svg>
