<svg xmlns="http://www.w3.org/2000/svg" width="280" height="109.733" viewBox="0 0 280 109.733">
  <g id="グループ_740" data-name="グループ 740" transform="translate(-304 -128)">
    <path id="合体_4" data-name="合体 4" d="M260,0l13.165,31.63L260,63.259ZM13.165,63.259,0,31.63,13.165,0H260V63.259Z" transform="matrix(0.985, -0.174, 0.174, 0.985, 304, 175.435)" fill="#d7515e"/>
    <path id="多角形_5" data-name="多角形 5" d="M12.939,0,25.879,22.285H0Z" transform="matrix(-0.966, 0.259, -0.259, -0.966, 530.726, 211.253)" fill="#d7515e"/>
    <path id="パス_673" data-name="パス 673" d="M-67.231-6.966a3.855,3.855,0,0,1-.239,1.336,2.972,2.972,0,0,1-.684,1.1,4.18,4.18,0,0,1-1.357.909,4.921,4.921,0,0,1-1.863.308h-1.634V0h-2.625V-10.179h4.32a6.828,6.828,0,0,1,1.637.167,3.856,3.856,0,0,1,1.179.5,2.7,2.7,0,0,1,.94,1.032A3.257,3.257,0,0,1-67.231-6.966Zm-2.714.062a1.2,1.2,0,0,0-.232-.742,1.262,1.262,0,0,0-.54-.434,2.437,2.437,0,0,0-.8-.181q-.39-.017-1.039-.017h-.451v3.049h.752a6.119,6.119,0,0,0,1.1-.082,1.563,1.563,0,0,0,.728-.328,1.263,1.263,0,0,0,.366-.523A2.143,2.143,0,0,0-69.945-6.9Zm10,1.572h-.219a2.212,2.212,0,0,0-.506-.082q-.349-.027-.581-.027a5.616,5.616,0,0,0-.93.068,5.275,5.275,0,0,0-.868.232V0h-2.461V-7.677h2.461v1.128a5.137,5.137,0,0,1,1.415-.926A3.135,3.135,0,0,1-60.525-7.7q.13,0,.294.007t.287.021Zm8.955,1.948h-5.633A1.771,1.771,0,0,0-55.935-2a3.056,3.056,0,0,0,1.863.479,4.188,4.188,0,0,0,1.511-.28,4.731,4.731,0,0,0,1.155-.6h.273V-.431a9.14,9.14,0,0,1-1.572.485,8.2,8.2,0,0,1-1.634.15A5.346,5.346,0,0,1-57.88-.834a3.659,3.659,0,0,1-1.23-2.96,3.963,3.963,0,0,1,1.166-3.011,4.442,4.442,0,0,1,3.2-1.111,3.815,3.815,0,0,1,2.816.947,3.7,3.7,0,0,1,.943,2.724Zm-2.447-1.442a1.723,1.723,0,0,0-.383-1.162,1.472,1.472,0,0,0-1.128-.39,1.8,1.8,0,0,0-1.169.369,1.575,1.575,0,0,0-.513,1.183ZM-46.792,0h-2.461V-10.637h2.461Zm4.785,0h-2.461V-7.677h2.461Zm.068-8.771h-2.6v-1.866h2.6Zm9.762,3.329V0h-2.475V-3.835q0-.561-.027-.954a1.7,1.7,0,0,0-.15-.639.751.751,0,0,0-.373-.359,1.746,1.746,0,0,0-.7-.113,1.766,1.766,0,0,0-.7.147,5.154,5.154,0,0,0-.615.311V0h-2.461V-7.677h2.461v.848A6.745,6.745,0,0,1-36-7.608a2.919,2.919,0,0,1,1.285-.28,2.613,2.613,0,0,1,1.34.338,2.312,2.312,0,0,1,.909.995,7.648,7.648,0,0,1,1.436-.978,3,3,0,0,1,1.367-.355,2.366,2.366,0,0,1,1.89.745A3.183,3.183,0,0,1-27.132-5V0h-2.475V-3.835q0-.567-.024-.957a1.654,1.654,0,0,0-.147-.636.718.718,0,0,0-.369-.359,1.794,1.794,0,0,0-.711-.113,1.761,1.761,0,0,0-.6.106A4.608,4.608,0,0,0-32.177-5.441ZM-22.408,0h-2.461V-7.677h2.461Zm.068-8.771h-2.6v-1.866h2.6ZM-12.373,0h-2.475V-3.808a8.974,8.974,0,0,0-.048-.926,1.952,1.952,0,0,0-.164-.68.818.818,0,0,0-.4-.369,1.867,1.867,0,0,0-.735-.116,2.244,2.244,0,0,0-.68.109,3.654,3.654,0,0,0-.749.349V0h-2.461V-7.677h2.461v.848a6.279,6.279,0,0,1,1.261-.786,3.224,3.224,0,0,1,1.343-.273,2.579,2.579,0,0,1,1.945.725A3,3,0,0,1-12.373-5Zm6.911-2V-3.6q-.5.041-1.08.113a5.2,5.2,0,0,0-.882.167,1.214,1.214,0,0,0-.564.338.854.854,0,0,0-.195.584,1.521,1.521,0,0,0,.041.39.585.585,0,0,0,.205.287,1,1,0,0,0,.376.2,2.612,2.612,0,0,0,.684.065,2.021,2.021,0,0,0,.749-.15A2.339,2.339,0,0,0-5.462-2Zm0,1.189q-.2.15-.492.362a3.584,3.584,0,0,1-.554.335A3.491,3.491,0,0,1-7.26.126a4.327,4.327,0,0,1-.854.079A2.609,2.609,0,0,1-9.946-.472,2.242,2.242,0,0,1-10.685-2.2a2.331,2.331,0,0,1,.376-1.374,2.523,2.523,0,0,1,1.066-.841,6.028,6.028,0,0,1,1.7-.437q1.012-.13,2.1-.191v-.041a.885.885,0,0,0-.52-.878A3.756,3.756,0,0,0-7.5-6.207a4.371,4.371,0,0,0-1.3.215q-.69.215-.991.332h-.226V-7.513q.39-.1,1.268-.243a11.156,11.156,0,0,1,1.76-.14,5.463,5.463,0,0,1,3.032.646,2.293,2.293,0,0,1,.933,2.027V0h-2.44ZM4.806-5.332H4.587a2.212,2.212,0,0,0-.506-.082q-.349-.027-.581-.027a5.616,5.616,0,0,0-.93.068,5.275,5.275,0,0,0-.868.232V0H-.759V-7.677H1.7v1.128a5.137,5.137,0,0,1,1.415-.926A3.135,3.135,0,0,1,4.225-7.7q.13,0,.294.007t.287.021Zm4.86,2.618,1.75-4.963h2.529L9.68,2.816H7.014L8.23-.055,5.243-7.677H7.827ZM25.942-7.062a1.3,1.3,0,0,0-.157-.656,1.054,1.054,0,0,0-.54-.431,1.988,1.988,0,0,0-.622-.133q-.355-.024-.827-.024h-.95v2.741h.807a7.517,7.517,0,0,0,1.053-.062,1.508,1.508,0,0,0,.711-.28,1.363,1.363,0,0,0,.4-.468A1.567,1.567,0,0,0,25.942-7.062ZM30.037,0H26.831L24.056-3.732h-1.21V0H20.234V-10.179h4.4a10.114,10.114,0,0,1,1.552.1,3.349,3.349,0,0,1,1.217.444,2.654,2.654,0,0,1,.913.885,2.537,2.537,0,0,1,.338,1.364,3.026,3.026,0,0,1-.523,1.839A3.946,3.946,0,0,1,26.64-4.361Zm8.572-3.384H32.977A1.771,1.771,0,0,0,33.664-2a3.056,3.056,0,0,0,1.863.479,4.188,4.188,0,0,0,1.511-.28,4.731,4.731,0,0,0,1.155-.6h.273V-.431a9.14,9.14,0,0,1-1.572.485,8.2,8.2,0,0,1-1.634.15A5.346,5.346,0,0,1,31.719-.834a3.659,3.659,0,0,1-1.23-2.96,3.963,3.963,0,0,1,1.166-3.011,4.442,4.442,0,0,1,3.2-1.111,3.815,3.815,0,0,1,2.816.947,3.7,3.7,0,0,1,.943,2.724ZM36.162-4.826a1.723,1.723,0,0,0-.383-1.162,1.472,1.472,0,0,0-1.128-.39,1.8,1.8,0,0,0-1.169.369,1.575,1.575,0,0,0-.513,1.183ZM47.018-2.434A2.225,2.225,0,0,1,45.951-.516a5.113,5.113,0,0,1-2.919.728A8.328,8.328,0,0,1,41.173.021,7.088,7.088,0,0,1,39.833-.4V-2.427h.226q.185.13.427.284a4.341,4.341,0,0,0,.687.332,5.668,5.668,0,0,0,.868.27,4.582,4.582,0,0,0,1.039.113,2.7,2.7,0,0,0,1.073-.161.511.511,0,0,0,.349-.475.442.442,0,0,0-.205-.407,2.675,2.675,0,0,0-.779-.243q-.273-.062-.742-.133a7.971,7.971,0,0,1-.851-.174,3.017,3.017,0,0,1-1.552-.851,2.105,2.105,0,0,1-.506-1.439,2.184,2.184,0,0,1,1.049-1.842,4.925,4.925,0,0,1,2.868-.735,7.638,7.638,0,0,1,1.651.174,6.679,6.679,0,0,1,1.234.373V-5.4h-.212a5.008,5.008,0,0,0-1.248-.612,4.42,4.42,0,0,0-1.418-.236,2.686,2.686,0,0,0-1,.164q-.407.164-.407.465a.5.5,0,0,0,.185.417,2.512,2.512,0,0,0,.868.287q.376.075.81.147t.872.181a2.739,2.739,0,0,1,1.436.8A2.014,2.014,0,0,1,47.018-2.434ZM56.3,0H53.84V-.848a7.319,7.319,0,0,1-1.251.79,3.125,3.125,0,0,1-1.354.27A2.557,2.557,0,0,1,49.277-.52a3.047,3.047,0,0,1-.687-2.16v-5h2.475v3.808q0,.581.038.967a1.686,1.686,0,0,0,.174.639.785.785,0,0,0,.393.369,1.867,1.867,0,0,0,.735.116,2.42,2.42,0,0,0,.7-.116,3,3,0,0,0,.738-.342V-7.677H56.3Zm4.785,0H58.625V-10.637h2.461Zm7.232-.068a6.965,6.965,0,0,1-.841.161A8.574,8.574,0,0,1,66.391.15a3.3,3.3,0,0,1-2.136-.581,2.458,2.458,0,0,1-.7-1.989V-6.009H62.542V-7.677h1.012V-9.871h2.461v2.194h2.3v1.668h-2.3v2.721q0,.4.007.7a1.443,1.443,0,0,0,.109.54.757.757,0,0,0,.338.379,1.438,1.438,0,0,0,.708.14,2.074,2.074,0,0,0,.5-.082,2.092,2.092,0,0,0,.434-.15h.205ZM76.46-2.434A2.225,2.225,0,0,1,75.394-.516a5.113,5.113,0,0,1-2.919.728A8.328,8.328,0,0,1,70.615.021,7.088,7.088,0,0,1,69.275-.4V-2.427H69.5q.185.13.427.284a4.34,4.34,0,0,0,.687.332,5.668,5.668,0,0,0,.868.27,4.582,4.582,0,0,0,1.039.113A2.7,2.7,0,0,0,73.6-1.589a.511.511,0,0,0,.349-.475.442.442,0,0,0-.205-.407,2.675,2.675,0,0,0-.779-.243q-.273-.062-.742-.133a7.971,7.971,0,0,1-.851-.174,3.017,3.017,0,0,1-1.552-.851,2.105,2.105,0,0,1-.506-1.439,2.184,2.184,0,0,1,1.049-1.842,4.925,4.925,0,0,1,2.868-.735,7.638,7.638,0,0,1,1.651.174,6.679,6.679,0,0,1,1.234.373V-5.4H75.9a5.008,5.008,0,0,0-1.248-.612,4.42,4.42,0,0,0-1.418-.236,2.686,2.686,0,0,0-1,.164q-.407.164-.407.465a.5.5,0,0,0,.185.417,2.512,2.512,0,0,0,.868.287q.376.075.81.147t.872.181a2.739,2.739,0,0,1,1.436.8A2.014,2.014,0,0,1,76.46-2.434ZM-75.845,20h-2.714l-.7-2.058h-3.773L-83.74,20h-2.646l3.76-10.179H-79.6ZM-79.9,16.076l-1.251-3.65-1.251,3.65ZM-66.808,20h-2.475V16.192a8.974,8.974,0,0,0-.048-.926,1.951,1.951,0,0,0-.164-.68.818.818,0,0,0-.4-.369,1.867,1.867,0,0,0-.735-.116,2.244,2.244,0,0,0-.68.109,3.654,3.654,0,0,0-.749.349V20h-2.461V12.323h2.461v.848a6.279,6.279,0,0,1,1.261-.786,3.224,3.224,0,0,1,1.343-.273,2.579,2.579,0,0,1,1.945.725,3,3,0,0,1,.7,2.167Zm9.974,0h-2.475V16.192a8.973,8.973,0,0,0-.048-.926,1.952,1.952,0,0,0-.164-.68.818.818,0,0,0-.4-.369,1.867,1.867,0,0,0-.735-.116,2.244,2.244,0,0,0-.68.109,3.654,3.654,0,0,0-.749.349V20h-2.461V12.323h2.461v.848a6.279,6.279,0,0,1,1.261-.786,3.224,3.224,0,0,1,1.343-.273,2.579,2.579,0,0,1,1.945.725,3,3,0,0,1,.7,2.167Zm10.11-3.835a4,4,0,0,1-1.1,2.984,4.222,4.222,0,0,1-3.1,1.09,4.222,4.222,0,0,1-3.1-1.09,4,4,0,0,1-1.1-2.984,4,4,0,0,1,1.111-2.994,4.235,4.235,0,0,1,3.093-1.087,4.21,4.21,0,0,1,3.107,1.094A4.029,4.029,0,0,1-46.724,16.165Zm-3.028,1.866a1.975,1.975,0,0,0,.359-.708,4.3,4.3,0,0,0,.12-1.145,4.447,4.447,0,0,0-.123-1.135,1.986,1.986,0,0,0-.342-.731,1.2,1.2,0,0,0-.526-.4,1.861,1.861,0,0,0-.663-.116,1.931,1.931,0,0,0-.632.1,1.278,1.278,0,0,0-.53.383,1.958,1.958,0,0,0-.359.731,4.319,4.319,0,0,0-.133,1.169,4.5,4.5,0,0,0,.116,1.09,1.916,1.916,0,0,0,.342.742,1.3,1.3,0,0,0,.523.39,1.838,1.838,0,0,0,.694.123,1.824,1.824,0,0,0,.639-.113A1.171,1.171,0,0,0-49.752,18.031ZM-37.311,20h-2.461v-.848a7.319,7.319,0,0,1-1.251.79,3.125,3.125,0,0,1-1.354.27,2.557,2.557,0,0,1-1.958-.731,3.047,3.047,0,0,1-.687-2.16v-5h2.475v3.808q0,.581.038.967a1.686,1.686,0,0,0,.174.639.785.785,0,0,0,.393.369,1.867,1.867,0,0,0,.735.116,2.42,2.42,0,0,0,.7-.116,3,3,0,0,0,.738-.342V12.323h2.461Zm10.035,0H-29.75V16.192a8.974,8.974,0,0,0-.048-.926,1.951,1.951,0,0,0-.164-.68.818.818,0,0,0-.4-.369A1.867,1.867,0,0,0-31.1,14.1a2.244,2.244,0,0,0-.68.109,3.654,3.654,0,0,0-.749.349V20h-2.461V12.323h2.461v.848a6.279,6.279,0,0,1,1.261-.786,3.224,3.224,0,0,1,1.343-.273,2.579,2.579,0,0,1,1.945.725,3,3,0,0,1,.7,2.167Zm6.262.205a6.617,6.617,0,0,1-1.835-.239,4.041,4.041,0,0,1-1.446-.738,3.346,3.346,0,0,1-.943-1.258,4.37,4.37,0,0,1-.335-1.777,4.4,4.4,0,0,1,.359-1.853,3.5,3.5,0,0,1,1-1.292,4.077,4.077,0,0,1,1.436-.711,6.289,6.289,0,0,1,1.688-.226,5.8,5.8,0,0,1,1.449.171,6.843,6.843,0,0,1,1.237.444v2.1h-.349q-.144-.123-.345-.287a3.113,3.113,0,0,0-.5-.321,3.245,3.245,0,0,0-.615-.25,2.756,2.756,0,0,0-.779-.1,1.874,1.874,0,0,0-1.514.625,2.544,2.544,0,0,0-.53,1.7,2.358,2.358,0,0,0,.543,1.682,2.021,2.021,0,0,0,1.542.574,3.061,3.061,0,0,0,.837-.106,2.7,2.7,0,0,0,.619-.25,2.946,2.946,0,0,0,.41-.287q.178-.15.328-.294h.349v2.1a6.74,6.74,0,0,1-1.213.434A5.676,5.676,0,0,1-21.014,20.205Zm11.8-3.589h-5.633A1.771,1.771,0,0,0-14.161,18a3.056,3.056,0,0,0,1.863.479,4.188,4.188,0,0,0,1.511-.28,4.731,4.731,0,0,0,1.155-.6h.273v1.976a9.14,9.14,0,0,1-1.572.485,8.2,8.2,0,0,1-1.634.15,5.346,5.346,0,0,1-3.541-1.039,3.659,3.659,0,0,1-1.23-2.96,3.963,3.963,0,0,1,1.166-3.011,4.442,4.442,0,0,1,3.2-1.111,3.815,3.815,0,0,1,2.816.947,3.7,3.7,0,0,1,.943,2.724Zm-2.447-1.442a1.723,1.723,0,0,0-.383-1.162,1.472,1.472,0,0,0-1.128-.39,1.8,1.8,0,0,0-1.169.369,1.575,1.575,0,0,0-.513,1.183ZM.027,14.559V20H-2.447V16.165q0-.561-.027-.954a1.7,1.7,0,0,0-.15-.639A.751.751,0,0,0-3,14.213a1.746,1.746,0,0,0-.7-.113,1.766,1.766,0,0,0-.7.147,5.153,5.153,0,0,0-.615.311V20H-7.479V12.323h2.461v.848A6.745,6.745,0,0,1-3.8,12.392a2.919,2.919,0,0,1,1.285-.28,2.613,2.613,0,0,1,1.34.338,2.312,2.312,0,0,1,.909.995,7.648,7.648,0,0,1,1.436-.978,3,3,0,0,1,1.367-.355,2.366,2.366,0,0,1,1.89.745A3.183,3.183,0,0,1,5.072,15v5H2.6V16.165q0-.567-.024-.957a1.654,1.654,0,0,0-.147-.636.718.718,0,0,0-.369-.359,1.794,1.794,0,0,0-.711-.113,1.761,1.761,0,0,0-.6.106A4.608,4.608,0,0,0,.027,14.559ZM14.9,16.616H9.263A1.771,1.771,0,0,0,9.95,18a3.056,3.056,0,0,0,1.863.479,4.188,4.188,0,0,0,1.511-.28,4.731,4.731,0,0,0,1.155-.6h.273v1.976a9.14,9.14,0,0,1-1.572.485,8.2,8.2,0,0,1-1.634.15A5.346,5.346,0,0,1,8,19.166a3.659,3.659,0,0,1-1.23-2.96A3.963,3.963,0,0,1,7.94,13.195a4.442,4.442,0,0,1,3.2-1.111,3.815,3.815,0,0,1,2.816.947,3.7,3.7,0,0,1,.943,2.724Zm-2.447-1.442a1.723,1.723,0,0,0-.383-1.162,1.472,1.472,0,0,0-1.128-.39,1.8,1.8,0,0,0-1.169.369,1.575,1.575,0,0,0-.513,1.183ZM24.343,20H21.868V16.192a8.974,8.974,0,0,0-.048-.926,1.951,1.951,0,0,0-.164-.68.818.818,0,0,0-.4-.369,1.867,1.867,0,0,0-.735-.116,2.244,2.244,0,0,0-.68.109,3.654,3.654,0,0,0-.749.349V20H16.632V12.323h2.461v.848a6.279,6.279,0,0,1,1.261-.786,3.224,3.224,0,0,1,1.343-.273,2.579,2.579,0,0,1,1.945.725,3,3,0,0,1,.7,2.167Zm7.171-.068a6.965,6.965,0,0,1-.841.161,8.574,8.574,0,0,1-1.087.058,3.3,3.3,0,0,1-2.136-.581,2.458,2.458,0,0,1-.7-1.989V13.991H25.737V12.323h1.012V10.129H29.21v2.194h2.3v1.668h-2.3v2.721q0,.4.007.7a1.443,1.443,0,0,0,.109.54.757.757,0,0,0,.338.379,1.438,1.438,0,0,0,.708.14,2.824,2.824,0,0,0,.937-.232h.205ZM45.268,20H37.905V9.821h7.362V11.79H40.517v1.757h4.409v1.969H40.517v2.516h4.751Zm9.8-7.677L52.1,20H49.314l-2.939-7.677h2.6L50.757,17.6l1.757-5.277Zm8.928,4.293H58.358A1.771,1.771,0,0,0,59.045,18a3.056,3.056,0,0,0,1.863.479,4.188,4.188,0,0,0,1.511-.28,4.731,4.731,0,0,0,1.155-.6h.273v1.976a9.14,9.14,0,0,1-1.572.485,8.2,8.2,0,0,1-1.634.15A5.346,5.346,0,0,1,57.1,19.166a3.659,3.659,0,0,1-1.23-2.96,3.963,3.963,0,0,1,1.166-3.011,4.442,4.442,0,0,1,3.2-1.111,3.815,3.815,0,0,1,2.816.947,3.7,3.7,0,0,1,.943,2.724Zm-2.447-1.442a1.723,1.723,0,0,0-.383-1.162,1.472,1.472,0,0,0-1.128-.39,1.8,1.8,0,0,0-1.169.369,1.575,1.575,0,0,0-.513,1.183ZM73.438,20H70.964V16.192a8.974,8.974,0,0,0-.048-.926,1.951,1.951,0,0,0-.164-.68.818.818,0,0,0-.4-.369,1.867,1.867,0,0,0-.735-.116,2.244,2.244,0,0,0-.68.109,3.654,3.654,0,0,0-.749.349V20H65.728V12.323h2.461v.848a6.279,6.279,0,0,1,1.261-.786,3.224,3.224,0,0,1,1.343-.273,2.579,2.579,0,0,1,1.945.725,3,3,0,0,1,.7,2.167Zm7.171-.068a6.965,6.965,0,0,1-.841.161,8.574,8.574,0,0,1-1.087.058,3.3,3.3,0,0,1-2.136-.581,2.458,2.458,0,0,1-.7-1.989V13.991H74.833V12.323h1.012V10.129h2.461v2.194h2.3v1.668h-2.3v2.721q0,.4.007.7a1.443,1.443,0,0,0,.109.54.757.757,0,0,0,.338.379,1.438,1.438,0,0,0,.708.14,2.824,2.824,0,0,0,.937-.232h.205Zm4.553-10.11-.314,7.246H82.619L82.3,9.821ZM85.114,20H82.353V18.2h2.762Z" transform="matrix(0.985, -0.174, 0.174, 0.985, 441.819, 178.998)" fill="#fff"/>
  </g>
</svg>
