<svg xmlns="http://www.w3.org/2000/svg" width="818.664" height="56.401" viewBox="0 0 818.664 56.401">
  <path id="パス_671" data-name="パス 671" d="M52.3-35q.168,0,.168.336t-.168.336a5.414,5.414,0,0,0-3.248,1.008A7.8,7.8,0,0,0,46.648-29.9L34.72-.056q-.056.224-.616.224a.727.727,0,0,1-.616-.224L26.208-15.9,19.88-.056q-.056.224-.616.224a.727.727,0,0,1-.616-.224L4.7-30.352A9.067,9.067,0,0,0,2.688-33.46a4.065,4.065,0,0,0-2.744-.868q-.168,0-.168-.336T-.056-35l2.128.056q1.568.112,2.52.112,2.016,0,4.368-.112l2.3-.056q.168,0,.168.336t-.168.336a6.011,6.011,0,0,0-2.492.392,1.375,1.375,0,0,0-.812,1.344,4.863,4.863,0,0,0,.56,2.016L20.44-4.984l5.04-12.488-5.936-12.88a9.345,9.345,0,0,0-1.96-3.052,3.743,3.743,0,0,0-2.632-.924q-.168,0-.168-.336T14.952-35l2.072.056q1.568.112,2.408.112,1.624,0,3.3-.112L24.3-35q.168,0,.168.336t-.168.336a4.49,4.49,0,0,0-1.484.168.654.654,0,0,0-.42.672,9.275,9.275,0,0,0,1.008,2.912L27.5-21.84l3.3-8.344a8.2,8.2,0,0,0,.616-2.52,1.4,1.4,0,0,0-.56-1.232,3.186,3.186,0,0,0-1.792-.392q-.168,0-.168-.336T29.064-35l1.288.056q1.12.112,2.352.112,1.12,0,2.576-.112l2.3-.056q.112,0,.112.336t-.112.336a5.362,5.362,0,0,0-3.248.98,7.489,7.489,0,0,0-2.3,3.444l-3.808,9.576L35.336-4.984,45.36-30.072a5.747,5.747,0,0,0,.448-1.96A1.854,1.854,0,0,0,44.8-33.768a6.87,6.87,0,0,0-3.192-.56q-.168,0-.168-.336T41.608-35l2.352.056q1.792.112,3.36.112,1.176,0,2.632-.112ZM78.848-.672q.168,0,.168.336T78.848,0Q77.56,0,76.776-.056L73.752-.112l-3.024.056Q69.944,0,68.656,0q-.168,0-.168-.336t.168-.336A6.1,6.1,0,0,0,70.9-.98,1.777,1.777,0,0,0,71.9-2.1a7.952,7.952,0,0,0,.28-2.436v-8.9a7.854,7.854,0,0,0-1.26-4.9,4.655,4.655,0,0,0-3.892-1.6,7.659,7.659,0,0,0-3.528.924,11.329,11.329,0,0,0-3.248,2.548V-4.536a7.952,7.952,0,0,0,.28,2.436A1.777,1.777,0,0,0,61.544-.98a6.1,6.1,0,0,0,2.24.308q.168,0,.168.336T63.784,0Q62.5,0,61.712-.056L58.688-.112l-3.024.056Q54.88,0,53.592,0q-.168,0-.168-.336t.168-.336a6.1,6.1,0,0,0,2.24-.308A1.777,1.777,0,0,0,56.84-2.1a7.952,7.952,0,0,0,.28-2.436V-33.488a7.837,7.837,0,0,0-.392-2.912,1.407,1.407,0,0,0-1.4-.9,7.176,7.176,0,0,0-2.576.784H52.64q-.168,0-.28-.28t.112-.336L59.584-40.6h.168a.492.492,0,0,1,.364.14.428.428,0,0,1,.14.308v22.736a15.765,15.765,0,0,1,4.228-3.612,9.04,9.04,0,0,1,4.4-1.148,6.317,6.317,0,0,1,4.76,1.736,6.964,6.964,0,0,1,1.68,5.04V-4.536A7.952,7.952,0,0,0,75.6-2.1,1.777,1.777,0,0,0,76.608-.98,6.1,6.1,0,0,0,78.848-.672ZM103.32-3.024a.274.274,0,0,1,.28.252.3.3,0,0,1-.168.364L97.664.336a.994.994,0,0,1-.448.112q-.728,0-1.288-.98a6.755,6.755,0,0,1-.728-2.66l-2.912,1.9A13.2,13.2,0,0,1,89.824,0a6.428,6.428,0,0,1-2.24.392A4.486,4.486,0,0,1,84.364-.7a3.661,3.661,0,0,1-1.148-2.772A3.827,3.827,0,0,1,84.56-6.384a13.555,13.555,0,0,1,4.424-2.352l6.16-2.3V-14.84q0-6.272-3.528-6.272a3.431,3.431,0,0,0-2.884,1.26,6.909,6.909,0,0,0-1.316,2.884,4.02,4.02,0,0,1-.616,1.652,1.711,1.711,0,0,1-1.512.644,1.8,1.8,0,0,1-1.372-.5,1.659,1.659,0,0,1-.476-1.176,3.624,3.624,0,0,1,1.736-2.688,15.611,15.611,0,0,1,4.144-2.24,12.542,12.542,0,0,1,4.312-.9A4.2,4.2,0,0,1,97.1-20.72a6.545,6.545,0,0,1,1.176,4.2V-6.048a6.094,6.094,0,0,0,.5,2.856,1.773,1.773,0,0,0,1.68.9,7.315,7.315,0,0,0,2.744-.728Zm-8.176-.952v-6.272L89.936-8.232A5.718,5.718,0,0,0,87.668-6.8a2.862,2.862,0,0,0-.7,1.932A3.188,3.188,0,0,0,87.836-2.6,2.968,2.968,0,0,0,90.1-1.68a5.67,5.67,0,0,0,2.688-.9ZM120.96-2.912a.36.36,0,0,1,.336.252q.112.252-.056.364A16.141,16.141,0,0,1,117.516,0a9.055,9.055,0,0,1-3.444.672,6.561,6.561,0,0,1-3.864-1.064A4.01,4.01,0,0,1,108.7-3.92V-17.08a7.63,7.63,0,0,0-.2-2.072,1.182,1.182,0,0,0-.756-.812,6.43,6.43,0,0,0-1.9-.2q-.224,0-.224-.364t.224-.364a5.8,5.8,0,0,0,3.64-1.2,4.462,4.462,0,0,0,1.624-3.052q0-.168.448-.168.392,0,.392.168V-21q2.8-.056,7.784-.56.112,0,.252.42a2.908,2.908,0,0,1,.14.924,2.419,2.419,0,0,1-.2.924q-.2.476-.42.42a34.673,34.673,0,0,0-7.56-.9V-5.824a4.578,4.578,0,0,0,1.148,3.416,4.5,4.5,0,0,0,3.276,1.12,7.122,7.122,0,0,0,4.48-1.568Zm22.288-25.76a2.528,2.528,0,0,1-1.82-.616,2.289,2.289,0,0,1-.644-1.736,2.289,2.289,0,0,1,.644-1.736,2.528,2.528,0,0,1,1.82-.616,2.347,2.347,0,0,1,1.736.616,2.347,2.347,0,0,1,.616,1.736,2.347,2.347,0,0,1-.616,1.736A2.347,2.347,0,0,1,143.248-28.672ZM138.544,0q-.112,0-.112-.336t.112-.336a6.336,6.336,0,0,0,2.268-.308,1.769,1.769,0,0,0,1.036-1.12,7.952,7.952,0,0,0,.28-2.436V-15.008a7.357,7.357,0,0,0-.42-2.912,1.46,1.46,0,0,0-1.428-.9,5.786,5.786,0,0,0-2.52.784H137.7q-.224,0-.336-.28t.056-.392l7.28-3.36.224-.056a.487.487,0,0,1,.28.14.4.4,0,0,1,.168.308q0,.392-.056,2.24t-.056,4.368V-4.536a7.913,7.913,0,0,0,.28,2.464A1.775,1.775,0,0,0,146.552-.98a6.1,6.1,0,0,0,2.24.308q.168,0,.168.336T148.792,0Q147.5,0,146.72-.056L143.7-.112l-3.024.056Q139.888,0,138.544,0ZM156.52-18.2a3.954,3.954,0,0,0,1.288,3.108,18.93,18.93,0,0,0,3.752,2.436,32.668,32.668,0,0,1,3.052,1.736,6.756,6.756,0,0,1,1.876,1.9,5.032,5.032,0,0,1,.784,2.856,6.293,6.293,0,0,1-2.128,4.816,8.183,8.183,0,0,1-5.768,1.96A9.18,9.18,0,0,1,154-1.064a.754.754,0,0,1-.336-.672L153.552-6.1q0-.168.308-.2t.364.14A10.233,10.233,0,0,0,157-1.9a5.905,5.905,0,0,0,3.948,1.456,3.942,3.942,0,0,0,2.8-.9,3.146,3.146,0,0,0,.84-2.632,4.373,4.373,0,0,0-1.316-3.276,16.441,16.441,0,0,0-3.78-2.38,25.528,25.528,0,0,1-2.94-1.624,6.431,6.431,0,0,1-1.848-1.9,5.279,5.279,0,0,1-.756-2.912,5.3,5.3,0,0,1,2.268-4.62,9.054,9.054,0,0,1,5.348-1.6,9.764,9.764,0,0,1,4.088.84.768.768,0,0,1,.42.252.7.7,0,0,1,.084.364q0,1.12-.056,1.736l-.056,2.352q0,.112-.336.112t-.336-.112a3.33,3.33,0,0,0-.9-2.212,6.487,6.487,0,0,0-2.24-1.652,6.4,6.4,0,0,0-2.688-.616,3.118,3.118,0,0,0-2.212.756A2.953,2.953,0,0,0,156.52-18.2ZM200.312-2.912a.36.36,0,0,1,.336.252q.112.252-.056.364A16.141,16.141,0,0,1,196.868,0a9.055,9.055,0,0,1-3.444.672A6.561,6.561,0,0,1,189.56-.392a4.01,4.01,0,0,1-1.512-3.528V-17.08a7.63,7.63,0,0,0-.2-2.072,1.182,1.182,0,0,0-.756-.812,6.43,6.43,0,0,0-1.9-.2q-.224,0-.224-.364t.224-.364a5.8,5.8,0,0,0,3.64-1.2,4.462,4.462,0,0,0,1.624-3.052q0-.168.448-.168.392,0,.392.168V-21q2.8-.056,7.784-.56.112,0,.252.42a2.907,2.907,0,0,1,.14.924,2.42,2.42,0,0,1-.2.924q-.2.476-.42.42a34.673,34.673,0,0,0-7.56-.9V-5.824a4.578,4.578,0,0,0,1.148,3.416,4.5,4.5,0,0,0,3.276,1.12,7.122,7.122,0,0,0,4.48-1.568Zm28.224,2.24q.168,0,.168.336T228.536,0q-1.288,0-2.072-.056L223.44-.112l-3.024.056Q219.632,0,218.344,0q-.168,0-.168-.336t.168-.336a6.1,6.1,0,0,0,2.24-.308,1.777,1.777,0,0,0,1.008-1.12,7.952,7.952,0,0,0,.28-2.436v-8.9a7.854,7.854,0,0,0-1.26-4.9,4.655,4.655,0,0,0-3.892-1.6,7.659,7.659,0,0,0-3.528.924,11.33,11.33,0,0,0-3.248,2.548V-4.536a7.952,7.952,0,0,0,.28,2.436,1.777,1.777,0,0,0,1.008,1.12,6.1,6.1,0,0,0,2.24.308q.168,0,.168.336T213.472,0q-1.288,0-2.072-.056l-3.024-.056-3.024.056Q204.568,0,203.28,0q-.168,0-.168-.336t.168-.336a6.1,6.1,0,0,0,2.24-.308,1.777,1.777,0,0,0,1.008-1.12,7.952,7.952,0,0,0,.28-2.436V-33.488a7.836,7.836,0,0,0-.392-2.912,1.407,1.407,0,0,0-1.4-.9,7.176,7.176,0,0,0-2.576.784h-.112q-.168,0-.28-.28t.112-.336l7.112-3.472h.168a.492.492,0,0,1,.364.14.428.428,0,0,1,.14.308v22.736a15.765,15.765,0,0,1,4.228-3.612,9.04,9.04,0,0,1,4.4-1.148,6.317,6.317,0,0,1,4.76,1.736,6.964,6.964,0,0,1,1.68,5.04V-4.536a7.952,7.952,0,0,0,.28,2.436A1.777,1.777,0,0,0,226.3-.98,6.1,6.1,0,0,0,228.536-.672Zm21.336-2.464a.388.388,0,0,1,.308.2.3.3,0,0,1,.028.364A12.1,12.1,0,0,1,242.032.672,9.855,9.855,0,0,1,236.488-.84a9.865,9.865,0,0,1-3.5-3.976,11.833,11.833,0,0,1-1.2-5.264,12.129,12.129,0,0,1,1.568-6.076,11.6,11.6,0,0,1,4.284-4.368,11.558,11.558,0,0,1,5.964-1.6,6.517,6.517,0,0,1,4.816,1.68,6.359,6.359,0,0,1,1.68,4.7,3.184,3.184,0,0,1-.14,1.12.486.486,0,0,1-.476.336l-13.888.056q-.112,1.232-.112,2.016a12.711,12.711,0,0,0,2.3,7.9,7.62,7.62,0,0,0,6.44,3.024,8.284,8.284,0,0,0,2.884-.448,15.149,15.149,0,0,0,2.716-1.4ZM241.752-21a5.338,5.338,0,0,0-3.976,1.6,8.206,8.206,0,0,0-2.072,4.452l10.64-.224a6.646,6.646,0,0,0-1.232-4.34A4.135,4.135,0,0,0,241.752-21Zm42.56,1.288a11.172,11.172,0,0,1,7.14,2.94,8.6,8.6,0,0,1,2.716,6.468,10.187,10.187,0,0,1-1.456,5.376,10.274,10.274,0,0,1-4,3.78A11.8,11.8,0,0,1,283.024.224q-1.848,0-4.032-.168-.784-.056-1.848-.112t-2.352-.056l-3.808.056Q269.976,0,268.128,0q-.112,0-.112-.336t.112-.336a11.352,11.352,0,0,0,3.08-.308,2.179,2.179,0,0,0,1.4-1.092A5.805,5.805,0,0,0,273-4.536V-30.464a6.205,6.205,0,0,0-.364-2.464,2.068,2.068,0,0,0-1.344-1.092,11.027,11.027,0,0,0-3.052-.308q-.168,0-.168-.336T268.24-35l2.744.056q2.352.112,3.808.112,1.008,0,1.876-.056T278.152-35q1.736-.168,3.248-.168,4.7,0,7.056,2.044a6.746,6.746,0,0,1,2.352,5.348,7.306,7.306,0,0,1-1.736,4.788A11.357,11.357,0,0,1,284.312-19.712Zm-4.088-14.616a7.1,7.1,0,0,0-2.184.252,1.764,1.764,0,0,0-1.064,1.064,7.56,7.56,0,0,0-.336,2.66v10.64l2.52.056q4.088,0,6.048-2.1a7.838,7.838,0,0,0,1.96-5.572A7.369,7.369,0,0,0,285.46-32.4,6.631,6.631,0,0,0,280.224-34.328Zm1.96,33.544q4.088,0,6.076-2.1a8.424,8.424,0,0,0,1.988-6.02,9.608,9.608,0,0,0-2.492-6.888,9.166,9.166,0,0,0-6.86-2.688q-1.792-.056-4.256.112V-4.536a4.829,4.829,0,0,0,.42,2.24,2.563,2.563,0,0,0,1.624,1.148A12.807,12.807,0,0,0,282.184-.784ZM307.328-4.76a6.014,6.014,0,0,0,.336,2.352,1.805,1.805,0,0,0,1.232.98,11.9,11.9,0,0,0,2.912.252h6.1a6.778,6.778,0,0,0,5.1-1.96,10.115,10.115,0,0,0,2.52-5.432q0-.168.308-.14t.308.2a73.741,73.741,0,0,0-.5,7.672.986.986,0,0,1-.168.644.874.874,0,0,1-.672.2H298.928q-.112,0-.112-.336t.112-.336a12.392,12.392,0,0,0,3.108-.28,1.881,1.881,0,0,0,1.316-1.092,6.916,6.916,0,0,0,.336-2.492V-30.464a6.676,6.676,0,0,0-.336-2.464,1.972,1.972,0,0,0-1.316-1.092,11.308,11.308,0,0,0-3.108-.308q-.112,0-.112-.336t.112-.336l2.744.056q2.352.112,3.808.112,1.568,0,3.92-.112L312.088-35q.168,0,.168.336t-.168.336a11.028,11.028,0,0,0-3.052.308,2.053,2.053,0,0,0-1.344,1.12,6.427,6.427,0,0,0-.364,2.492Zm51.52-24.08q0-5.488-4.872-5.488-.168,0-.168-.336t.168-.336l2.408.056q2.016.112,3.192.112.952,0,2.744-.112L364.672-35q.112,0,.112.336t-.112.336q-4.48,0-4.48,5.488v15.9q0,6.44-3.584,10.052T346.976.728A15.445,15.445,0,0,1,339.724-.9a11.611,11.611,0,0,1-4.816-4.62,13.949,13.949,0,0,1-1.708-7.028v-17.92a6.676,6.676,0,0,0-.336-2.464,1.972,1.972,0,0,0-1.316-1.092,11.308,11.308,0,0,0-3.108-.308q-.112,0-.112-.336T328.44-35l2.744.056q2.352.112,3.808.112,1.568,0,3.92-.112L341.6-35q.168,0,.168.336t-.168.336a10.449,10.449,0,0,0-3.08.336,2.051,2.051,0,0,0-1.344,1.148,6.915,6.915,0,0,0-.336,2.492V-14.5q0,6.552,3,10.052a10.426,10.426,0,0,0,8.372,3.5,9.921,9.921,0,0,0,7.84-3.164q2.8-3.164,2.8-8.764ZM392.5-8.344q0-.112.224-.112a.822.822,0,0,1,.308.056q.14.056.14.168a52.258,52.258,0,0,0-.5,7.392.886.886,0,0,1-.2.644.981.981,0,0,1-.7.2H368.312q-.112,0-.112-.336t.112-.336a12.392,12.392,0,0,0,3.108-.28,1.968,1.968,0,0,0,1.344-1.092,6.427,6.427,0,0,0,.364-2.492V-30.464a6.205,6.205,0,0,0-.364-2.464,2.068,2.068,0,0,0-1.344-1.092,11.308,11.308,0,0,0-3.108-.308q-.112,0-.112-.336t.112-.336h22.512a.445.445,0,0,1,.5.5l.112,6.888q0,.168-.28.2t-.336-.14a6.9,6.9,0,0,0-1.792-4.62,5.774,5.774,0,0,0-4.312-1.652H381.3a9.861,9.861,0,0,0-2.884.308,2.072,2.072,0,0,0-1.288,1.064,5.445,5.445,0,0,0-.364,2.268v11.368H383.6a6.335,6.335,0,0,0,3.836-.9,3.611,3.611,0,0,0,1.148-3.024q0-.112.336-.112t.336.112L389.2-18.2q0,1.624.056,2.464l.056,2.688q0,.112-.336.112t-.336-.112a4.5,4.5,0,0,0-1.2-3.528,6.015,6.015,0,0,0-4-1.064h-6.664V-4.76a5.82,5.82,0,0,0,.336,2.3,1.891,1.891,0,0,0,1.232,1.008,10.185,10.185,0,0,0,2.8.28h4.48a5.9,5.9,0,0,0,4.48-1.9A10.161,10.161,0,0,0,392.5-8.344ZM449.512-.672q.168,0,.168.336T449.512,0q-1.736,0-2.744-.056L442.9-.112l-4.144.056Q437.808,0,436.128,0q-.168,0-.168-.336t.168-.336a13.07,13.07,0,0,0,3.192-.28,1.979,1.979,0,0,0,1.372-1.092,6.427,6.427,0,0,0,.364-2.492v-13.1h-21.5v13.1a6.427,6.427,0,0,0,.364,2.492,1.979,1.979,0,0,0,1.372,1.092,13.07,13.07,0,0,0,3.192.28q.112,0,.112.336T424.48,0q-1.736,0-2.744-.056L417.7-.112l-3.864.056Q412.832,0,411.04,0q-.112,0-.112-.336t.112-.336a13.119,13.119,0,0,0,3.164-.28,1.991,1.991,0,0,0,1.4-1.092,6.427,6.427,0,0,0,.364-2.492V-30.464a6.205,6.205,0,0,0-.364-2.464,2.078,2.078,0,0,0-1.372-1.092,11.636,11.636,0,0,0-3.136-.308q-.112,0-.112-.336T411.1-35l2.856.056q2.352.112,3.752.112,1.624,0,4.088-.112L424.48-35q.112,0,.112.336t-.112.336a11.015,11.015,0,0,0-3.164.336,2.156,2.156,0,0,0-1.4,1.148,6.427,6.427,0,0,0-.364,2.492v11.536h21.5V-30.352a6.427,6.427,0,0,0-.364-2.492,2.148,2.148,0,0,0-1.372-1.148,10.974,10.974,0,0,0-3.192-.336q-.168,0-.168-.336t.168-.336l2.632.056q2.464.112,4.144.112,1.512,0,3.864-.112L449.512-35q.168,0,.168.336t-.168.336a11.636,11.636,0,0,0-3.136.308A2.078,2.078,0,0,0,445-32.928a6.205,6.205,0,0,0-.364,2.464V-4.536A6.427,6.427,0,0,0,445-2.044a1.979,1.979,0,0,0,1.372,1.092A12.753,12.753,0,0,0,449.512-.672Zm34.1-28.168q0-5.488-4.872-5.488-.168,0-.168-.336t.168-.336l2.408.056q2.016.112,3.192.112.952,0,2.744-.112L489.44-35q.112,0,.112.336t-.112.336q-4.48,0-4.48,5.488v15.9q0,6.44-3.584,10.052T471.744.728A15.445,15.445,0,0,1,464.492-.9a11.611,11.611,0,0,1-4.816-4.62,13.949,13.949,0,0,1-1.708-7.028v-17.92a6.676,6.676,0,0,0-.336-2.464,1.972,1.972,0,0,0-1.316-1.092,11.308,11.308,0,0,0-3.108-.308q-.112,0-.112-.336t.112-.336l2.744.056q2.352.112,3.808.112,1.568,0,3.92-.112L466.368-35q.168,0,.168.336t-.168.336a10.449,10.449,0,0,0-3.08.336,2.051,2.051,0,0,0-1.344,1.148,6.915,6.915,0,0,0-.336,2.492V-14.5q0,6.552,3,10.052a10.426,10.426,0,0,0,8.372,3.5,9.921,9.921,0,0,0,7.84-3.164q2.8-3.164,2.8-8.764ZM530.1-35q.168,0,.168.336t-.168.336a4.185,4.185,0,0,0-3.416,1.288,6.6,6.6,0,0,0-1.064,4.2V.672q0,.112-.28.168a.424.424,0,0,1-.392-.056l-25.76-31.192-.5-.56V-6.1a6.6,6.6,0,0,0,1.036,4.172,4.072,4.072,0,0,0,3.332,1.26q.168,0,.168.336T503.048,0q-1.4,0-2.128-.056l-2.8-.056-2.856.056q-.784.056-2.3.056-.112,0-.112-.336t.112-.336a4.133,4.133,0,0,0,3.416-1.26A6.743,6.743,0,0,0,497.392-6.1V-32.312a6.555,6.555,0,0,0-4.424-2.016q-.168,0-.168-.336t.168-.336l2.072.056q.672.056,1.848.056,1.232,0,2.016-.056T500.136-35a.886.886,0,0,1,.644.2,6.768,6.768,0,0,1,.644.868q.672,1.008,1.344,1.848L524.328-5.6V-28.84a7.027,7.027,0,0,0-.98-4.2,3.86,3.86,0,0,0-3.276-1.288q-.112,0-.112-.336t.112-.336l2.184.056q1.68.112,2.744.112,1.008,0,2.8-.112Zm11.872,1.008a7.119,7.119,0,0,0-5.292,1.792q-1.764,1.792-2.548,6.1,0,.112-.308.112t-.308-.112q.224-2.016.5-5.264t.28-4.872q0-.28.308-.28t.308.28q0,1.232,3.024,1.232,4.76.168,11.256.168,3.3,0,7-.112L560-35a11.779,11.779,0,0,0,3-.28,1.716,1.716,0,0,0,1.26-1.12.3.3,0,0,1,.336-.224q.28,0,.28.224-.168,1.624-.336,4.928t-.168,5.376q0,.112-.336.112T563.7-26.1q-.168-4.368-1.792-6.132t-5.376-1.764a19.727,19.727,0,0,0-3.584.224,2,2,0,0,0-1.456.952,5.579,5.579,0,0,0-.392,2.464V-4.536a5.983,5.983,0,0,0,.392,2.52A2.147,2.147,0,0,0,553-.952a15.964,15.964,0,0,0,3.528.28q.168,0,.168.336T556.528,0q-1.848,0-2.968-.056l-4.368-.056-4.2.056q-1.12.056-3.08.056-.112,0-.112-.336t.112-.336a15.964,15.964,0,0,0,3.528-.28,2.22,2.22,0,0,0,1.54-1.092,5.654,5.654,0,0,0,.42-2.492V-30.464a5.384,5.384,0,0,0-.392-2.436,1.954,1.954,0,0,0-1.456-.9A22.5,22.5,0,0,0,541.968-33.992Zm51.52,25.648q0-.112.224-.112a.822.822,0,0,1,.308.056q.14.056.14.168a52.258,52.258,0,0,0-.5,7.392.886.886,0,0,1-.2.644.981.981,0,0,1-.7.2H569.3q-.112,0-.112-.336t.112-.336a12.392,12.392,0,0,0,3.108-.28,1.968,1.968,0,0,0,1.344-1.092,6.427,6.427,0,0,0,.364-2.492V-30.464a6.205,6.205,0,0,0-.364-2.464A2.068,2.068,0,0,0,572.4-34.02a11.308,11.308,0,0,0-3.108-.308q-.112,0-.112-.336T569.3-35h22.512a.445.445,0,0,1,.5.5l.112,6.888q0,.168-.28.2t-.336-.14a6.9,6.9,0,0,0-1.792-4.62,5.774,5.774,0,0,0-4.312-1.652h-3.416a9.861,9.861,0,0,0-2.884.308,2.072,2.072,0,0,0-1.288,1.064,5.444,5.444,0,0,0-.364,2.268v11.368h6.832a6.335,6.335,0,0,0,3.836-.9,3.611,3.611,0,0,0,1.148-3.024q0-.112.336-.112t.336.112l-.056,4.536q0,1.624.056,2.464l.056,2.688q0,.112-.336.112t-.336-.112a4.5,4.5,0,0,0-1.2-3.528,6.015,6.015,0,0,0-4-1.064h-6.664V-4.76a5.82,5.82,0,0,0,.336,2.3,1.89,1.89,0,0,0,1.232,1.008,10.185,10.185,0,0,0,2.8.28h4.48a5.9,5.9,0,0,0,4.48-1.9A10.161,10.161,0,0,0,593.488-8.344Zm41.72,7.672q.112,0,.112.336T635.208,0h-7.224q-1.4,0-5.264-4.648a144.425,144.425,0,0,1-9.184-12.768,14.415,14.415,0,0,1-3.136.336q-.336,0-2.52-.168V-4.536a6.883,6.883,0,0,0,.336,2.52,1.892,1.892,0,0,0,1.316,1.064,12.392,12.392,0,0,0,3.108.28q.168,0,.168.336T612.64,0Q610.9,0,609.9-.056l-3.864-.056-3.808.056Q601.216,0,599.368,0q-.112,0-.112-.336t.112-.336a12.753,12.753,0,0,0,3.136-.28,1.979,1.979,0,0,0,1.372-1.092,6.427,6.427,0,0,0,.364-2.492V-30.464a6.674,6.674,0,0,0-.336-2.464,1.972,1.972,0,0,0-1.316-1.092,11.308,11.308,0,0,0-3.108-.308q-.168,0-.168-.336T599.48-35l2.744.056q2.352.112,3.808.112,1.232,0,2.3-.056T610.12-35q2.072-.168,3.752-.168,4.424,0,6.832,2.016a6.657,6.657,0,0,1,2.408,5.376,9.086,9.086,0,0,1-1.764,5.46,12.148,12.148,0,0,1-4.676,3.836q4.7,6.776,7.924,10.612a29.81,29.81,0,0,0,5.712,5.516A8.755,8.755,0,0,0,635.208-.672ZM607.88-18.592a21.205,21.205,0,0,0,3.3.224q4.368,0,6.244-1.9t1.876-5.88q0-4.368-1.932-6.272a7.692,7.692,0,0,0-5.628-1.9,4.458,4.458,0,0,0-3.024.784q-.84.784-.84,3.192Zm57.736-3.752a7.847,7.847,0,0,1,4.256,1.232,8.7,8.7,0,0,1,3.136,3.584,12.124,12.124,0,0,1,1.176,5.488,12.579,12.579,0,0,1-1.9,7.084A12.166,12.166,0,0,1,667.6-.672a12.047,12.047,0,0,1-5.46,1.4,13.105,13.105,0,0,1-3.108-.336,12.026,12.026,0,0,1-2.828-1.12V10.864a5.462,5.462,0,0,0,.42,2.464,2.366,2.366,0,0,0,1.6,1.092,15.308,15.308,0,0,0,3.584.308q.112,0,.112.336t-.112.336q-1.9,0-3.024-.056l-4.088-.056-3.08.056q-.784.056-2.072.056-.168,0-.168-.336t.168-.336a6.1,6.1,0,0,0,2.24-.308,1.775,1.775,0,0,0,1.008-1.092,7.911,7.911,0,0,0,.28-2.464v-26.32a6.735,6.735,0,0,0-.448-2.884,1.613,1.613,0,0,0-1.568-.868,7.474,7.474,0,0,0-2.968.784l-.112.056q-.224,0-.308-.28t.084-.392l6.216-2.968a.961.961,0,0,1,.392-.056q.784,0,1.288,1.176a9.452,9.452,0,0,1,.56,3.36Q660.968-22.344,665.616-22.344Zm-1.792,21.9a5.8,5.8,0,0,0,4.872-2.6,12.09,12.09,0,0,0,1.9-7.252q0-4.7-2.072-7.308a6.445,6.445,0,0,0-5.264-2.6,7.26,7.26,0,0,0-3.64.952,16.26,16.26,0,0,0-3.416,2.688v12.6a11.624,11.624,0,0,0,3.332,2.632A9.375,9.375,0,0,0,663.824-.448ZM691.768-22.12a4.5,4.5,0,0,1,2.352.672,1.919,1.919,0,0,1,1.12,1.624,1.727,1.727,0,0,1-.476,1.232,1.8,1.8,0,0,1-1.372.5,1.806,1.806,0,0,1-.868-.2,6.5,6.5,0,0,1-.868-.588,4.5,4.5,0,0,0-.952-.672,2.354,2.354,0,0,0-1.064-.224,2.591,2.591,0,0,0-1.54.616,20.6,20.6,0,0,0-2.548,2.632V-4.536a5.462,5.462,0,0,0,.42,2.464,2.333,2.333,0,0,0,1.54,1.092,14.237,14.237,0,0,0,3.472.308q.224,0,.224.336T690.984,0q-1.792,0-2.856-.056l-4.144-.056-3.08.056Q680.176,0,678.888,0q-.168,0-.168-.336t.168-.336a6.1,6.1,0,0,0,2.24-.308,1.685,1.685,0,0,0,.98-1.092,8.743,8.743,0,0,0,.252-2.464V-15.624a6.186,6.186,0,0,0-.448-2.744,1.575,1.575,0,0,0-1.512-.84,9.815,9.815,0,0,0-3.024.84h-.112a.314.314,0,0,1-.308-.252.267.267,0,0,1,.14-.364l6.5-3.08.336-.056q.5,0,1.064,1.288a8.347,8.347,0,0,1,.56,3.3v.056a24.547,24.547,0,0,1,3.64-3.668A4.417,4.417,0,0,1,691.768-22.12ZM709.016.728a10.41,10.41,0,0,1-5.74-1.6A10.6,10.6,0,0,1,699.44-5.18a13.137,13.137,0,0,1-1.344-5.908,10.6,10.6,0,0,1,1.764-6.188,10.933,10.933,0,0,1,4.536-3.808,13.48,13.48,0,0,1,5.628-1.26,10.24,10.24,0,0,1,5.768,1.624,10.748,10.748,0,0,1,3.78,4.284,12.527,12.527,0,0,1,1.316,5.628,11.243,11.243,0,0,1-1.624,6.076A11.134,11.134,0,0,1,714.924-.7,12.5,12.5,0,0,1,709.016.728ZM710.64-.336A5.654,5.654,0,0,0,715.4-2.52q1.68-2.184,1.68-6.72a15.975,15.975,0,0,0-1.148-6.216,10.192,10.192,0,0,0-3.164-4.284,7.365,7.365,0,0,0-4.592-1.54A5.519,5.519,0,0,0,703.5-19.1a10.246,10.246,0,0,0-1.652,6.272,17.037,17.037,0,0,0,1.12,6.272A10.973,10.973,0,0,0,706.1-2.016,6.9,6.9,0,0,0,710.64-.336Zm19.432-28.336a2.528,2.528,0,0,1-1.82-.616,2.288,2.288,0,0,1-.644-1.736,2.288,2.288,0,0,1,.644-1.736,2.528,2.528,0,0,1,1.82-.616,2.347,2.347,0,0,1,1.736.616,2.347,2.347,0,0,1,.616,1.736,2.347,2.347,0,0,1-.616,1.736A2.347,2.347,0,0,1,730.072-28.672Zm2.184,7q0,.392-.056,2.24t-.056,4.368V2.688a21.5,21.5,0,0,1-.756,6.244,9.408,9.408,0,0,1-2.436,4.06,14.008,14.008,0,0,1-4.7,2.8q-.112.056-.252-.252t-.028-.364a7.056,7.056,0,0,0,3.864-3.752,19.382,19.382,0,0,0,1.12-7.448V-15.008a7.838,7.838,0,0,0-.392-2.912,1.367,1.367,0,0,0-1.344-.9,6.128,6.128,0,0,0-2.576.784h-.056a.4.4,0,0,1-.392-.28q-.112-.28.112-.392l7.28-3.36.168-.056a.492.492,0,0,1,.364.14A.428.428,0,0,1,732.256-21.672ZM757.4-3.136a.388.388,0,0,1,.308.2.3.3,0,0,1,.028.364A12.1,12.1,0,0,1,749.56.672,9.855,9.855,0,0,1,744.016-.84a9.865,9.865,0,0,1-3.5-3.976,11.832,11.832,0,0,1-1.2-5.264,12.129,12.129,0,0,1,1.568-6.076,11.6,11.6,0,0,1,4.284-4.368,11.558,11.558,0,0,1,5.964-1.6,6.518,6.518,0,0,1,4.816,1.68,6.359,6.359,0,0,1,1.68,4.7,3.184,3.184,0,0,1-.14,1.12.486.486,0,0,1-.476.336l-13.888.056q-.112,1.232-.112,2.016a12.711,12.711,0,0,0,2.3,7.9,7.62,7.62,0,0,0,6.44,3.024,8.284,8.284,0,0,0,2.884-.448,15.147,15.147,0,0,0,2.716-1.4ZM749.28-21a5.338,5.338,0,0,0-3.976,1.6,8.206,8.206,0,0,0-2.072,4.452l10.64-.224a6.646,6.646,0,0,0-1.232-4.34A4.135,4.135,0,0,0,749.28-21ZM772.744.672a11,11,0,0,1-6.1-1.6A9.768,9.768,0,0,1,763-5.04a12.431,12.431,0,0,1-1.176-5.32,10.908,10.908,0,0,1,1.792-6.244,12.026,12.026,0,0,1,4.62-4.088,12.72,12.72,0,0,1,5.8-1.428,10.291,10.291,0,0,1,4.508.98q2.044.98,2.044,2.436a1.722,1.722,0,0,1-.532,1.26,1.93,1.93,0,0,1-1.428.532,2.816,2.816,0,0,1-2.464-1.848,5.719,5.719,0,0,0-1.568-1.68,4.334,4.334,0,0,0-2.408-.56,5.71,5.71,0,0,0-4.9,2.436,10.9,10.9,0,0,0-1.764,6.524,12.216,12.216,0,0,0,2.352,7.728q2.352,3.024,7.056,3.024a8.818,8.818,0,0,0,5.712-1.848h.056a.4.4,0,0,1,.308.168q.14.168.028.28A14.011,14.011,0,0,1,777.084-.14,11.369,11.369,0,0,1,772.744.672Zm27.5-3.584a.36.36,0,0,1,.336.252q.112.252-.056.364A16.139,16.139,0,0,1,796.8,0a9.055,9.055,0,0,1-3.444.672,6.561,6.561,0,0,1-3.864-1.064,4.01,4.01,0,0,1-1.512-3.528V-17.08a7.63,7.63,0,0,0-.2-2.072,1.182,1.182,0,0,0-.756-.812,6.43,6.43,0,0,0-1.9-.2q-.224,0-.224-.364t.224-.364a5.8,5.8,0,0,0,3.64-1.2,4.462,4.462,0,0,0,1.624-3.052q0-.168.448-.168.392,0,.392.168V-21q2.8-.056,7.784-.56.112,0,.252.42a2.908,2.908,0,0,1,.14.924,2.419,2.419,0,0,1-.2.924q-.2.476-.42.42a34.673,34.673,0,0,0-7.56-.9V-5.824a4.578,4.578,0,0,0,1.148,3.416,4.5,4.5,0,0,0,3.276,1.12,7.122,7.122,0,0,0,4.48-1.568Zm10.416-31.36a2.055,2.055,0,0,0-1.82.7,4.077,4.077,0,0,0-.588,1.932,5,5,0,0,1-.672,1.792,1.681,1.681,0,0,1-1.512.672,1.745,1.745,0,0,1-1.4-.588,1.971,1.971,0,0,1-.5-1.316,3.276,3.276,0,0,1,1.96-2.772,9.15,9.15,0,0,1,4.7-1.148,8.428,8.428,0,0,1,5.46,1.736,6.027,6.027,0,0,1,2.156,4.984,6.988,6.988,0,0,1-.616,3,8.215,8.215,0,0,1-1.372,2.128q-.756.812-2.324,2.324a13.894,13.894,0,0,0-2.744,3.444,7.606,7.606,0,0,0-.784,3.5,17.8,17.8,0,0,0,.336,3.08q.056.168-.28.224t-.392-.112a18.931,18.931,0,0,1-1.036-3.444,16.334,16.334,0,0,1-.42-3.22,5.607,5.607,0,0,1,.7-2.912,13.309,13.309,0,0,1,2.044-2.52,14.478,14.478,0,0,0,2.268-2.8,6.586,6.586,0,0,0,.756-3.36,6.284,6.284,0,0,0-1.092-3.864A3.381,3.381,0,0,0,810.656-34.272ZM809.984.616a2.422,2.422,0,0,1-1.792-.672,2.422,2.422,0,0,1-.672-1.792,2.166,2.166,0,0,1,.672-1.68,2.549,2.549,0,0,1,1.792-.616,2.528,2.528,0,0,1,1.82.616,2.215,2.215,0,0,1,.644,1.68A2.482,2.482,0,0,1,811.8-.056,2.4,2.4,0,0,1,809.984.616Z" transform="translate(0.224 40.6)" fill="#fff"/>
</svg>
