<svg xmlns="http://www.w3.org/2000/svg" width="321.68" height="136.286" viewBox="0 0 321.68 136.286">
  <path id="パス_671" data-name="パス 671" d="M-27.96-25q.12,0,.12.24t-.12.24a3.867,3.867,0,0,0-2.32.72A5.572,5.572,0,0,0-32-21.36L-40.52-.04q-.04.16-.44.16a.519.519,0,0,1-.44-.16l-5.2-11.32L-51.12-.04q-.04.16-.44.16A.519.519,0,0,1-52-.04l-9.96-21.64A6.476,6.476,0,0,0-63.4-23.9a2.9,2.9,0,0,0-1.96-.62q-.12,0-.12-.24t.12-.24l1.52.04q1.12.08,1.8.08,1.44,0,3.12-.08l1.64-.04q.12,0,.12.24t-.12.24a4.293,4.293,0,0,0-1.78.28.982.982,0,0,0-.58.96,3.474,3.474,0,0,0,.4,1.44l8.52,18.28,3.6-8.92-4.24-9.2a6.675,6.675,0,0,0-1.4-2.18,2.673,2.673,0,0,0-1.88-.66q-.12,0-.12-.24t.12-.24l1.48.04q1.12.08,1.72.08,1.16,0,2.36-.08l1.12-.04q.12,0,.12.24t-.12.24a3.207,3.207,0,0,0-1.06.12.467.467,0,0,0-.3.48,6.625,6.625,0,0,0,.72,2.08l2.92,6.24,2.36-5.96a5.856,5.856,0,0,0,.44-1.8,1,1,0,0,0-.4-.88,2.276,2.276,0,0,0-1.28-.28q-.12,0-.12-.24t.12-.24l.92.04q.8.08,1.68.08.8,0,1.84-.08l1.64-.04q.08,0,.08.24t-.08.24a3.83,3.83,0,0,0-2.32.7,5.349,5.349,0,0,0-1.64,2.46l-2.72,6.84,5.08,10.96,7.16-17.92a4.1,4.1,0,0,0,.32-1.4,1.324,1.324,0,0,0-.72-1.24,4.907,4.907,0,0,0-2.28-.4q-.12,0-.12-.24t.12-.24l1.68.04q1.28.08,2.4.08.84,0,1.88-.08ZM-9-.48q.12,0,.12.24T-9,0q-.92,0-1.48-.04l-2.16-.04-2.16.04q-.56.04-1.48.04-.12,0-.12-.24t.12-.24a4.354,4.354,0,0,0,1.6-.22,1.269,1.269,0,0,0,.72-.8,5.68,5.68,0,0,0,.2-1.74V-9.6a5.61,5.61,0,0,0-.9-3.5,3.325,3.325,0,0,0-2.78-1.14,5.47,5.47,0,0,0-2.52.66,8.092,8.092,0,0,0-2.32,1.82v8.52a5.68,5.68,0,0,0,.2,1.74,1.269,1.269,0,0,0,.72.8,4.354,4.354,0,0,0,1.6.22q.12,0,.12.24t-.12.24q-.92,0-1.48-.04L-23.4-.08l-2.16.04q-.56.04-1.48.04-.12,0-.12-.24t.12-.24a4.354,4.354,0,0,0,1.6-.22,1.269,1.269,0,0,0,.72-.8,5.68,5.68,0,0,0,.2-1.74V-23.92A5.6,5.6,0,0,0-24.8-26a1,1,0,0,0-1-.64,5.126,5.126,0,0,0-1.84.56h-.08q-.12,0-.2-.2t.08-.24L-22.76-29h.12a.352.352,0,0,1,.26.1.306.306,0,0,1,.1.22v16.24a11.261,11.261,0,0,1,3.02-2.58,6.457,6.457,0,0,1,3.14-.82,4.512,4.512,0,0,1,3.4,1.24,4.974,4.974,0,0,1,1.2,3.6v7.76a5.68,5.68,0,0,0,.2,1.74,1.269,1.269,0,0,0,.72.8A4.354,4.354,0,0,0-9-.48ZM8.48-2.16a.2.2,0,0,1,.2.18.211.211,0,0,1-.12.26L4.44.24a.71.71,0,0,1-.32.08q-.52,0-.92-.7a4.825,4.825,0,0,1-.52-1.9L.6-.92A9.427,9.427,0,0,1-1.16,0a4.591,4.591,0,0,1-1.6.28A3.2,3.2,0,0,1-5.06-.5a2.615,2.615,0,0,1-.82-1.98,2.733,2.733,0,0,1,.96-2.08A9.682,9.682,0,0,1-1.76-6.24l4.4-1.64V-10.6q0-4.48-2.52-4.48a2.45,2.45,0,0,0-2.06.9,4.935,4.935,0,0,0-.94,2.06,2.872,2.872,0,0,1-.44,1.18,1.222,1.222,0,0,1-1.08.46,1.284,1.284,0,0,1-.98-.36,1.185,1.185,0,0,1-.34-.84A2.589,2.589,0,0,1-4.48-13.6a11.151,11.151,0,0,1,2.96-1.6,8.959,8.959,0,0,1,3.08-.64A3,3,0,0,1,4.04-14.8a4.675,4.675,0,0,1,.84,3v7.48a4.353,4.353,0,0,0,.36,2.04,1.267,1.267,0,0,0,1.2.64A5.225,5.225,0,0,0,8.4-2.16ZM2.64-2.84V-7.32L-1.08-5.88A4.084,4.084,0,0,0-2.7-4.86a2.044,2.044,0,0,0-.5,1.38,2.277,2.277,0,0,0,.62,1.62A2.12,2.12,0,0,0-.96-1.2,4.05,4.05,0,0,0,.96-1.84Zm18.44.76a.257.257,0,0,1,.24.18q.08.18-.04.26A11.529,11.529,0,0,1,18.62,0a6.468,6.468,0,0,1-2.46.48A4.686,4.686,0,0,1,13.4-.28,2.865,2.865,0,0,1,12.32-2.8v-9.4a5.45,5.45,0,0,0-.14-1.48.844.844,0,0,0-.54-.58,4.593,4.593,0,0,0-1.36-.14q-.16,0-.16-.26t.16-.26a4.139,4.139,0,0,0,2.6-.86,3.187,3.187,0,0,0,1.16-2.18q0-.12.32-.12.28,0,.28.12V-15q2-.04,5.56-.4.08,0,.18.3a2.077,2.077,0,0,1,.1.66,1.728,1.728,0,0,1-.14.66q-.14.34-.3.3a24.766,24.766,0,0,0-5.4-.64v9.96a3.27,3.27,0,0,0,.82,2.44,3.213,3.213,0,0,0,2.34.8A5.087,5.087,0,0,0,21-2.04ZM37-20.48a1.806,1.806,0,0,1-1.3-.44,1.635,1.635,0,0,1-.46-1.24,1.635,1.635,0,0,1,.46-1.24,1.806,1.806,0,0,1,1.3-.44,1.677,1.677,0,0,1,1.24.44,1.677,1.677,0,0,1,.44,1.24,1.677,1.677,0,0,1-.44,1.24A1.677,1.677,0,0,1,37-20.48ZM33.64,0q-.08,0-.08-.24t.08-.24A4.526,4.526,0,0,0,35.26-.7,1.263,1.263,0,0,0,36-1.5a5.68,5.68,0,0,0,.2-1.74v-7.48a5.255,5.255,0,0,0-.3-2.08,1.043,1.043,0,0,0-1.02-.64,4.133,4.133,0,0,0-1.8.56h-.04q-.16,0-.24-.2t.04-.28l5.2-2.4.16-.04a.348.348,0,0,1,.2.1.286.286,0,0,1,.12.22q0,.28-.04,1.6t-.04,3.12v7.52a5.652,5.652,0,0,0,.2,1.76,1.268,1.268,0,0,0,.72.78,4.354,4.354,0,0,0,1.6.22q.12,0,.12.24T40.96,0q-.92,0-1.48-.04L37.32-.08l-2.16.04Q34.6,0,33.64,0ZM46.48-13a2.824,2.824,0,0,0,.92,2.22,13.522,13.522,0,0,0,2.68,1.74A23.335,23.335,0,0,1,52.26-7.8,4.826,4.826,0,0,1,53.6-6.44a3.594,3.594,0,0,1,.56,2.04A4.5,4.5,0,0,1,52.64-.96,5.845,5.845,0,0,1,48.52.44a6.557,6.557,0,0,1-3.84-1.2.538.538,0,0,1-.24-.48l-.08-3.12q0-.12.22-.14t.26.1a7.31,7.31,0,0,0,1.98,3.04A4.218,4.218,0,0,0,49.64-.32a2.816,2.816,0,0,0,2-.64,2.247,2.247,0,0,0,.6-1.88,3.123,3.123,0,0,0-.94-2.34,11.743,11.743,0,0,0-2.7-1.7,18.235,18.235,0,0,1-2.1-1.16A4.594,4.594,0,0,1,45.18-9.4a3.771,3.771,0,0,1-.54-2.08,3.785,3.785,0,0,1,1.62-3.3,6.467,6.467,0,0,1,3.82-1.14,6.975,6.975,0,0,1,2.92.6.549.549,0,0,1,.3.18.5.5,0,0,1,.06.26q0,.8-.04,1.24l-.04,1.68q0,.08-.24.08t-.24-.08a2.379,2.379,0,0,0-.64-1.58,4.633,4.633,0,0,0-1.6-1.18,4.574,4.574,0,0,0-1.92-.44,2.227,2.227,0,0,0-1.58.54A2.109,2.109,0,0,0,46.48-13ZM-153.58,45.92a.257.257,0,0,1,.24.18q.08.18-.04.26A11.529,11.529,0,0,1-156.04,48a6.468,6.468,0,0,1-2.46.48,4.686,4.686,0,0,1-2.76-.76,2.865,2.865,0,0,1-1.08-2.52V35.8a5.45,5.45,0,0,0-.14-1.48.844.844,0,0,0-.54-.58,4.593,4.593,0,0,0-1.36-.14q-.16,0-.16-.26t.16-.26a4.139,4.139,0,0,0,2.6-.86,3.187,3.187,0,0,0,1.16-2.18q0-.12.32-.12.28,0,.28.12V33q2-.04,5.56-.4.08,0,.18.3a2.077,2.077,0,0,1,.1.66,1.728,1.728,0,0,1-.14.66q-.14.34-.3.3a24.766,24.766,0,0,0-5.4-.64v9.96a3.27,3.27,0,0,0,.82,2.44,3.213,3.213,0,0,0,2.34.8,5.087,5.087,0,0,0,3.2-1.12Zm20.16,1.6q.12,0,.12.24t-.12.24q-.92,0-1.48-.04l-2.16-.04-2.16.04q-.56.04-1.48.04-.12,0-.12-.24t.12-.24a4.354,4.354,0,0,0,1.6-.22,1.269,1.269,0,0,0,.72-.8,5.679,5.679,0,0,0,.2-1.74V38.4a5.61,5.61,0,0,0-.9-3.5,3.325,3.325,0,0,0-2.78-1.14,5.47,5.47,0,0,0-2.52.66,8.092,8.092,0,0,0-2.32,1.82v8.52a5.68,5.68,0,0,0,.2,1.74,1.269,1.269,0,0,0,.72.8,4.354,4.354,0,0,0,1.6.22q.12,0,.12.24t-.12.24q-.92,0-1.48-.04l-2.16-.04-2.16.04q-.56.04-1.48.04-.12,0-.12-.24t.12-.24a4.354,4.354,0,0,0,1.6-.22,1.269,1.269,0,0,0,.72-.8,5.68,5.68,0,0,0,.2-1.74V24.08a5.6,5.6,0,0,0-.28-2.08,1,1,0,0,0-1-.64,5.126,5.126,0,0,0-1.84.56h-.08q-.12,0-.2-.2t.08-.24l5.08-2.48h.12a.352.352,0,0,1,.26.1.306.306,0,0,1,.1.22V35.56a11.26,11.26,0,0,1,3.02-2.58,6.457,6.457,0,0,1,3.14-.82,4.512,4.512,0,0,1,3.4,1.24,4.974,4.974,0,0,1,1.2,3.6v7.76a5.68,5.68,0,0,0,.2,1.74,1.269,1.269,0,0,0,.72.8A4.354,4.354,0,0,0-133.42,47.52Zm15.24-1.76a.277.277,0,0,1,.22.14.213.213,0,0,1,.02.26,8.646,8.646,0,0,1-5.84,2.32,7.039,7.039,0,0,1-3.96-1.08,7.047,7.047,0,0,1-2.5-2.84,8.452,8.452,0,0,1-.86-3.76,8.664,8.664,0,0,1,1.12-4.34,8.283,8.283,0,0,1,3.06-3.12,8.256,8.256,0,0,1,4.26-1.14,4.655,4.655,0,0,1,3.44,1.2,4.542,4.542,0,0,1,1.2,3.36,2.274,2.274,0,0,1-.1.8.347.347,0,0,1-.34.24l-9.92.04q-.08.88-.08,1.44a9.079,9.079,0,0,0,1.64,5.64,5.443,5.443,0,0,0,4.6,2.16,5.917,5.917,0,0,0,2.06-.32,10.82,10.82,0,0,0,1.94-1ZM-123.98,33a3.813,3.813,0,0,0-2.84,1.14,5.862,5.862,0,0,0-1.48,3.18l7.6-.16a4.747,4.747,0,0,0-.88-3.1A2.954,2.954,0,0,0-123.98,33Zm30.4.92a7.98,7.98,0,0,1,5.1,2.1,6.141,6.141,0,0,1,1.94,4.62,7.277,7.277,0,0,1-1.04,3.84,7.339,7.339,0,0,1-2.86,2.7,8.425,8.425,0,0,1-4.06.98q-1.32,0-2.88-.12-.56-.04-1.32-.08t-1.68-.04l-2.72.04q-.72.04-2.04.04-.08,0-.08-.24t.08-.24a8.109,8.109,0,0,0,2.2-.22,1.556,1.556,0,0,0,1-.78,4.146,4.146,0,0,0,.28-1.76V26.24a4.432,4.432,0,0,0-.26-1.76,1.477,1.477,0,0,0-.96-.78,7.877,7.877,0,0,0-2.18-.22q-.12,0-.12-.24t.12-.24l1.96.04q1.68.08,2.72.08.72,0,1.34-.04t1.06-.08q1.24-.12,2.32-.12a7.5,7.5,0,0,1,5.04,1.46,4.819,4.819,0,0,1,1.68,3.82,5.219,5.219,0,0,1-1.24,3.42A8.112,8.112,0,0,1-93.58,33.92ZM-96.5,23.48a5.074,5.074,0,0,0-1.56.18,1.26,1.26,0,0,0-.76.76,5.4,5.4,0,0,0-.24,1.9v7.6l1.8.04a5.645,5.645,0,0,0,4.32-1.5,5.6,5.6,0,0,0,1.4-3.98,5.264,5.264,0,0,0-1.22-3.62A4.737,4.737,0,0,0-96.5,23.48Zm1.4,23.96a5.713,5.713,0,0,0,4.34-1.5,6.017,6.017,0,0,0,1.42-4.3,6.863,6.863,0,0,0-1.78-4.92,6.547,6.547,0,0,0-4.9-1.92q-1.28-.04-3.04.08v9.88a3.45,3.45,0,0,0,.3,1.6,1.83,1.83,0,0,0,1.16.82A9.148,9.148,0,0,0-95.1,47.44Zm17.96-2.84a4.3,4.3,0,0,0,.24,1.68,1.289,1.289,0,0,0,.88.7,8.5,8.5,0,0,0,2.08.18h4.36a4.841,4.841,0,0,0,3.64-1.4,7.225,7.225,0,0,0,1.8-3.88q0-.12.22-.1t.22.14a52.672,52.672,0,0,0-.36,5.48.7.7,0,0,1-.12.46.624.624,0,0,1-.48.14H-83.14q-.08,0-.08-.24t.08-.24a8.851,8.851,0,0,0,2.22-.2,1.344,1.344,0,0,0,.94-.78,4.94,4.94,0,0,0,.24-1.78V26.24a4.768,4.768,0,0,0-.24-1.76,1.409,1.409,0,0,0-.94-.78,8.077,8.077,0,0,0-2.22-.22q-.08,0-.08-.24t.08-.24l1.96.04q1.68.08,2.72.08,1.12,0,2.8-.08l1.92-.04q.12,0,.12.24t-.12.24a7.877,7.877,0,0,0-2.18.22,1.466,1.466,0,0,0-.96.8,4.591,4.591,0,0,0-.26,1.78Zm36.8-17.2q0-3.92-3.48-3.92-.12,0-.12-.24t.12-.24l1.72.04q1.44.08,2.28.08.68,0,1.96-.08l1.68-.04q.08,0,.08.24t-.08.24q-3.2,0-3.2,3.92V38.76a9.749,9.749,0,0,1-2.56,7.18,9.257,9.257,0,0,1-6.88,2.58A11.032,11.032,0,0,1-54,47.36a8.293,8.293,0,0,1-3.44-3.3,9.964,9.964,0,0,1-1.22-5.02V26.24a4.768,4.768,0,0,0-.24-1.76,1.409,1.409,0,0,0-.94-.78,8.077,8.077,0,0,0-2.22-.22q-.08,0-.08-.24t.08-.24l1.96.04q1.68.08,2.72.08,1.12,0,2.8-.08l1.92-.04q.12,0,.12.24t-.12.24a7.464,7.464,0,0,0-2.2.24,1.465,1.465,0,0,0-.96.82,4.94,4.94,0,0,0-.24,1.78V37.64q0,4.68,2.14,7.18a7.447,7.447,0,0,0,5.98,2.5,7.087,7.087,0,0,0,5.6-2.26,9.121,9.121,0,0,0,2-6.26ZM-16.3,42.04q0-.08.16-.08a.587.587,0,0,1,.22.04q.1.04.1.12a37.327,37.327,0,0,0-.36,5.28.633.633,0,0,1-.14.46.7.7,0,0,1-.5.14H-33.58q-.08,0-.08-.24t.08-.24a8.851,8.851,0,0,0,2.22-.2,1.406,1.406,0,0,0,.96-.78,4.591,4.591,0,0,0,.26-1.78V26.24a4.432,4.432,0,0,0-.26-1.76,1.477,1.477,0,0,0-.96-.78,8.077,8.077,0,0,0-2.22-.22q-.08,0-.08-.24t.08-.24H-17.5a.318.318,0,0,1,.36.36l.08,4.92q0,.12-.2.14t-.24-.1a4.925,4.925,0,0,0-1.28-3.3,4.124,4.124,0,0,0-3.08-1.18H-24.3a7.043,7.043,0,0,0-2.06.22,1.48,1.48,0,0,0-.92.76,3.889,3.889,0,0,0-.26,1.62v8.12h4.88a4.525,4.525,0,0,0,2.74-.64,2.579,2.579,0,0,0,.82-2.16q0-.08.24-.08t.24.08L-18.66,35q0,1.16.04,1.76l.04,1.92q0,.08-.24.08t-.24-.08a3.215,3.215,0,0,0-.86-2.52,4.3,4.3,0,0,0-2.86-.76h-4.76v9.2a4.157,4.157,0,0,0,.24,1.64,1.35,1.35,0,0,0,.88.72,7.275,7.275,0,0,0,2,.2h3.2a4.212,4.212,0,0,0,3.2-1.36A7.258,7.258,0,0,0-16.3,42.04Zm40.72,5.48q.12,0,.12.24t-.12.24q-1.24,0-1.96-.04l-2.76-.04-2.96.04q-.68.04-1.88.04-.12,0-.12-.24t.12-.24a9.335,9.335,0,0,0,2.28-.2,1.414,1.414,0,0,0,.98-.78,4.591,4.591,0,0,0,.26-1.78V35.4H3.02v9.36a4.591,4.591,0,0,0,.26,1.78,1.414,1.414,0,0,0,.98.78,9.335,9.335,0,0,0,2.28.2q.08,0,.08.24T6.54,48q-1.24,0-1.96-.04L1.7,47.92l-2.76.04q-.72.04-2,.04-.08,0-.08-.24t.08-.24a9.371,9.371,0,0,0,2.26-.2,1.422,1.422,0,0,0,1-.78,4.591,4.591,0,0,0,.26-1.78V26.24A4.432,4.432,0,0,0,.2,24.48a1.484,1.484,0,0,0-.98-.78,8.312,8.312,0,0,0-2.24-.22q-.08,0-.08-.24t.08-.24l2.04.04q1.68.08,2.68.08,1.16,0,2.92-.08L6.54,23q.08,0,.08.24t-.08.24a7.868,7.868,0,0,0-2.26.24,1.54,1.54,0,0,0-1,.82,4.591,4.591,0,0,0-.26,1.78v8.24H18.38V26.32a4.59,4.59,0,0,0-.26-1.78,1.534,1.534,0,0,0-.98-.82,7.838,7.838,0,0,0-2.28-.24q-.12,0-.12-.24t.12-.24l1.88.04q1.76.08,2.96.08,1.08,0,2.76-.08L24.42,23q.12,0,.12.24t-.12.24a8.312,8.312,0,0,0-2.24.22,1.484,1.484,0,0,0-.98.78,4.432,4.432,0,0,0-.26,1.76V44.76a4.591,4.591,0,0,0,.26,1.78,1.414,1.414,0,0,0,.98.78A9.109,9.109,0,0,0,24.42,47.52ZM48.78,27.4q0-3.92-3.48-3.92-.12,0-.12-.24T45.3,23l1.72.04q1.44.08,2.28.08.68,0,1.96-.08L52.94,23q.08,0,.08.24t-.08.24q-3.2,0-3.2,3.92V38.76a9.749,9.749,0,0,1-2.56,7.18,9.257,9.257,0,0,1-6.88,2.58,11.032,11.032,0,0,1-5.18-1.16,8.293,8.293,0,0,1-3.44-3.3,9.964,9.964,0,0,1-1.22-5.02V26.24a4.768,4.768,0,0,0-.24-1.76,1.409,1.409,0,0,0-.94-.78,8.077,8.077,0,0,0-2.22-.22q-.08,0-.08-.24t.08-.24l1.96.04q1.68.08,2.72.08,1.12,0,2.8-.08L36.46,23q.12,0,.12.24t-.12.24a7.464,7.464,0,0,0-2.2.24,1.465,1.465,0,0,0-.96.82,4.94,4.94,0,0,0-.24,1.78V37.64q0,4.68,2.14,7.18a7.447,7.447,0,0,0,5.98,2.5,7.087,7.087,0,0,0,5.6-2.26,9.121,9.121,0,0,0,2-6.26ZM81.98,23q.12,0,.12.24t-.12.24a2.989,2.989,0,0,0-2.44.92,4.713,4.713,0,0,0-.76,3V48.48q0,.08-.2.12a.3.3,0,0,1-.28-.04L59.9,26.28l-.36-.4V43.64a4.717,4.717,0,0,0,.74,2.98,2.909,2.909,0,0,0,2.38.9q.12,0,.12.24t-.12.24q-1,0-1.52-.04l-2-.04-2.04.04q-.56.04-1.64.04-.08,0-.08-.24t.08-.24a2.952,2.952,0,0,0,2.44-.9,4.816,4.816,0,0,0,.72-2.98V24.92a4.682,4.682,0,0,0-3.16-1.44q-.12,0-.12-.24t.12-.24l1.48.04q.48.04,1.32.04.88,0,1.44-.04t.88-.04a.633.633,0,0,1,.46.14,4.832,4.832,0,0,1,.46.62q.48.72.96,1.32L77.86,44V27.4a5.019,5.019,0,0,0-.7-3,2.757,2.757,0,0,0-2.34-.92q-.08,0-.08-.24t.08-.24l1.56.04q1.2.08,1.96.08.72,0,2-.08Zm8.48.72A5.085,5.085,0,0,0,86.68,25a8.327,8.327,0,0,0-1.82,4.36q0,.08-.22.08t-.22-.08q.16-1.44.36-3.76t.2-3.48q0-.2.22-.2t.22.2q0,.88,2.16.88,3.4.12,8.04.12,2.36,0,5-.08l2.72-.04a8.414,8.414,0,0,0,2.14-.2,1.226,1.226,0,0,0,.9-.8.214.214,0,0,1,.24-.16q.2,0,.2.16-.12,1.16-.24,3.52t-.12,3.84q0,.08-.24.08t-.24-.08q-.12-3.12-1.28-4.38a5.02,5.02,0,0,0-3.84-1.26,14.091,14.091,0,0,0-2.56.16,1.431,1.431,0,0,0-1.04.68,3.985,3.985,0,0,0-.28,1.76V44.76a4.273,4.273,0,0,0,.28,1.8,1.534,1.534,0,0,0,1.08.76,11.4,11.4,0,0,0,2.52.2q.12,0,.12.24t-.12.24q-1.32,0-2.12-.04l-3.12-.04-3,.04q-.8.04-2.2.04-.08,0-.08-.24t.08-.24a11.4,11.4,0,0,0,2.52-.2,1.586,1.586,0,0,0,1.1-.78,4.038,4.038,0,0,0,.3-1.78V26.24a3.845,3.845,0,0,0-.28-1.74,1.4,1.4,0,0,0-1.04-.64A16.07,16.07,0,0,0,90.46,23.72Zm36.8,18.32q0-.08.16-.08a.587.587,0,0,1,.22.04q.1.04.1.12a37.327,37.327,0,0,0-.36,5.28.633.633,0,0,1-.14.46.7.7,0,0,1-.5.14H109.98q-.08,0-.08-.24t.08-.24a8.851,8.851,0,0,0,2.22-.2,1.406,1.406,0,0,0,.96-.78,4.591,4.591,0,0,0,.26-1.78V26.24a4.432,4.432,0,0,0-.26-1.76,1.477,1.477,0,0,0-.96-.78,8.077,8.077,0,0,0-2.22-.22q-.08,0-.08-.24t.08-.24h16.08a.318.318,0,0,1,.36.36l.08,4.92q0,.12-.2.14t-.24-.1a4.925,4.925,0,0,0-1.28-3.3,4.124,4.124,0,0,0-3.08-1.18h-2.44a7.043,7.043,0,0,0-2.06.22,1.48,1.48,0,0,0-.92.76,3.889,3.889,0,0,0-.26,1.62v8.12h4.88a4.525,4.525,0,0,0,2.74-.64,2.579,2.579,0,0,0,.82-2.16q0-.08.24-.08t.24.08L124.9,35q0,1.16.04,1.76l.04,1.92q0,.08-.24.08t-.24-.08a3.215,3.215,0,0,0-.86-2.52,4.3,4.3,0,0,0-2.86-.76h-4.76v9.2a4.158,4.158,0,0,0,.24,1.64,1.35,1.35,0,0,0,.88.72,7.275,7.275,0,0,0,2,.2h3.2a4.212,4.212,0,0,0,3.2-1.36A7.258,7.258,0,0,0,127.26,42.04Zm29.8,5.48q.08,0,.08.24t-.08.24H151.9q-1,0-3.76-3.32a103.158,103.158,0,0,1-6.56-9.12,10.3,10.3,0,0,1-2.24.24q-.24,0-1.8-.12v9.08a4.917,4.917,0,0,0,.24,1.8,1.351,1.351,0,0,0,.94.76,8.851,8.851,0,0,0,2.22.2q.12,0,.12.24t-.12.24q-1.24,0-1.96-.04l-2.76-.04-2.72.04q-.72.04-2.04.04-.08,0-.08-.24t.08-.24a9.109,9.109,0,0,0,2.24-.2,1.414,1.414,0,0,0,.98-.78,4.591,4.591,0,0,0,.26-1.78V26.24a4.769,4.769,0,0,0-.24-1.76,1.409,1.409,0,0,0-.94-.78,8.077,8.077,0,0,0-2.22-.22q-.12,0-.12-.24t.12-.24l1.96.04q1.68.08,2.72.08.88,0,1.64-.04t1.28-.08q1.48-.12,2.68-.12a7.4,7.4,0,0,1,4.88,1.44,4.755,4.755,0,0,1,1.72,3.84,6.49,6.49,0,0,1-1.26,3.9,8.677,8.677,0,0,1-3.34,2.74q3.36,4.84,5.66,7.58a21.293,21.293,0,0,0,4.08,3.94A6.253,6.253,0,0,0,157.06,47.52Zm-19.52-12.8a15.147,15.147,0,0,0,2.36.16q3.12,0,4.46-1.36a5.777,5.777,0,0,0,1.34-4.2q0-3.12-1.38-4.48a5.494,5.494,0,0,0-4.02-1.36,3.184,3.184,0,0,0-2.16.56,3.159,3.159,0,0,0-.6,2.28ZM-48.82,80.04a5.605,5.605,0,0,1,3.04.88,6.213,6.213,0,0,1,2.24,2.56,8.66,8.66,0,0,1,.84,3.92,8.985,8.985,0,0,1-1.36,5.06,8.69,8.69,0,0,1-3.34,3.06,8.605,8.605,0,0,1-3.9,1,9.361,9.361,0,0,1-2.22-.24,8.59,8.59,0,0,1-2.02-.8v8.28a3.9,3.9,0,0,0,.3,1.76,1.69,1.69,0,0,0,1.14.78,10.934,10.934,0,0,0,2.56.22q.08,0,.08.24t-.08.24q-1.36,0-2.16-.04l-2.92-.04-2.2.04q-.56.04-1.48.04-.12,0-.12-.24t.12-.24a4.354,4.354,0,0,0,1.6-.22,1.268,1.268,0,0,0,.72-.78,5.652,5.652,0,0,0,.2-1.76V84.96a4.811,4.811,0,0,0-.32-2.06,1.152,1.152,0,0,0-1.12-.62,5.339,5.339,0,0,0-2.12.56l-.08.04q-.16,0-.22-.2t.06-.28l4.44-2.12a.687.687,0,0,1,.28-.04q.56,0,.92.84a6.752,6.752,0,0,1,.4,2.4Q-52.14,80.04-48.82,80.04ZM-50.1,95.68a4.143,4.143,0,0,0,3.48-1.86,8.636,8.636,0,0,0,1.36-5.18,8.19,8.19,0,0,0-1.48-5.22,4.6,4.6,0,0,0-3.76-1.86,5.186,5.186,0,0,0-2.6.68,11.614,11.614,0,0,0-2.44,1.92v9a8.3,8.3,0,0,0,2.38,1.88A6.7,6.7,0,0,0-50.1,95.68ZM-30.14,80.2a3.217,3.217,0,0,1,1.68.48,1.371,1.371,0,0,1,.8,1.16,1.234,1.234,0,0,1-.34.88,1.284,1.284,0,0,1-.98.36,1.29,1.29,0,0,1-.62-.14,4.64,4.64,0,0,1-.62-.42,3.213,3.213,0,0,0-.68-.48,1.682,1.682,0,0,0-.76-.16,1.851,1.851,0,0,0-1.1.44,14.713,14.713,0,0,0-1.82,1.88v8.56a3.9,3.9,0,0,0,.3,1.76,1.667,1.667,0,0,0,1.1.78,10.17,10.17,0,0,0,2.48.22q.16,0,.16.24t-.16.24q-1.28,0-2.04-.04l-2.96-.04-2.2.04q-.52.04-1.44.04-.12,0-.12-.24t.12-.24a4.354,4.354,0,0,0,1.6-.22,1.2,1.2,0,0,0,.7-.78,6.246,6.246,0,0,0,.18-1.76V84.84a4.419,4.419,0,0,0-.32-1.96,1.125,1.125,0,0,0-1.08-.6,7.011,7.011,0,0,0-2.16.6h-.08a.224.224,0,0,1-.22-.18.191.191,0,0,1,.1-.26l4.64-2.2.24-.04q.36,0,.76.92a5.962,5.962,0,0,1,.4,2.36v.04a17.535,17.535,0,0,1,2.6-2.62A3.155,3.155,0,0,1-30.14,80.2Zm12.32,16.32a7.436,7.436,0,0,1-4.1-1.14,7.568,7.568,0,0,1-2.74-3.08,9.383,9.383,0,0,1-.96-4.22,7.573,7.573,0,0,1,1.26-4.42,7.81,7.81,0,0,1,3.24-2.72,9.628,9.628,0,0,1,4.02-.9,7.314,7.314,0,0,1,4.12,1.16,7.677,7.677,0,0,1,2.7,3.06,8.948,8.948,0,0,1,.94,4.02,8.03,8.03,0,0,1-1.16,4.34,7.953,7.953,0,0,1-3.1,2.88A8.93,8.93,0,0,1-17.82,96.52Zm1.16-.76a4.039,4.039,0,0,0,3.4-1.56,7.849,7.849,0,0,0,1.2-4.8,11.41,11.41,0,0,0-.82-4.44,7.28,7.28,0,0,0-2.26-3.06,5.26,5.26,0,0,0-3.28-1.1,3.942,3.942,0,0,0-3.34,1.56,7.318,7.318,0,0,0-1.18,4.48,12.169,12.169,0,0,0,.8,4.48,7.838,7.838,0,0,0,2.24,3.24A4.929,4.929,0,0,0-16.66,95.76ZM-2.78,75.52a1.806,1.806,0,0,1-1.3-.44,1.635,1.635,0,0,1-.46-1.24,1.635,1.635,0,0,1,.46-1.24,1.806,1.806,0,0,1,1.3-.44,1.677,1.677,0,0,1,1.24.44,1.677,1.677,0,0,1,.44,1.24,1.677,1.677,0,0,1-.44,1.24A1.677,1.677,0,0,1-2.78,75.52Zm1.56,5q0,.28-.04,1.6t-.04,3.12V97.92a15.359,15.359,0,0,1-.54,4.46,6.721,6.721,0,0,1-1.74,2.9,10.006,10.006,0,0,1-3.36,2q-.08.04-.18-.18t-.02-.26a5.04,5.04,0,0,0,2.76-2.68,13.844,13.844,0,0,0,.8-5.32V85.28a5.6,5.6,0,0,0-.28-2.08.977.977,0,0,0-.96-.64,4.377,4.377,0,0,0-1.84.56H-6.7a.284.284,0,0,1-.28-.2q-.08-.2.08-.28l5.2-2.4.12-.04a.352.352,0,0,1,.26.1A.306.306,0,0,1-1.22,80.52ZM16.74,93.76a.277.277,0,0,1,.22.14.213.213,0,0,1,.02.26,8.646,8.646,0,0,1-5.84,2.32,6.866,6.866,0,0,1-6.46-3.92,8.452,8.452,0,0,1-.86-3.76,8.664,8.664,0,0,1,1.12-4.34,8.325,8.325,0,0,1,7.32-4.26,4.655,4.655,0,0,1,3.44,1.2,4.542,4.542,0,0,1,1.2,3.36,2.274,2.274,0,0,1-.1.8.347.347,0,0,1-.34.24l-9.92.04q-.08.88-.08,1.44A9.079,9.079,0,0,0,8.1,92.92a5.443,5.443,0,0,0,4.6,2.16,5.917,5.917,0,0,0,2.06-.32,10.82,10.82,0,0,0,1.94-1ZM10.94,81A3.813,3.813,0,0,0,8.1,82.14a5.862,5.862,0,0,0-1.48,3.18l7.6-.16a4.747,4.747,0,0,0-.88-3.1A2.954,2.954,0,0,0,10.94,81ZM27.7,96.48a7.859,7.859,0,0,1-4.36-1.14,6.977,6.977,0,0,1-2.6-2.94,8.879,8.879,0,0,1-.84-3.8,7.792,7.792,0,0,1,1.28-4.46,8.59,8.59,0,0,1,3.3-2.92,9.086,9.086,0,0,1,4.14-1.02,7.351,7.351,0,0,1,3.22.7q1.46.7,1.46,1.74a1.23,1.23,0,0,1-.38.9,1.378,1.378,0,0,1-1.02.38,2.011,2.011,0,0,1-1.76-1.32,4.086,4.086,0,0,0-1.12-1.2A3.1,3.1,0,0,0,27.3,81a4.079,4.079,0,0,0-3.5,1.74,7.783,7.783,0,0,0-1.26,4.66,8.726,8.726,0,0,0,1.68,5.52,5.99,5.99,0,0,0,5.04,2.16,6.3,6.3,0,0,0,4.08-1.32h.04a.286.286,0,0,1,.22.12q.1.12.02.2A10.007,10.007,0,0,1,30.8,95.9,8.121,8.121,0,0,1,27.7,96.48Zm19.64-2.56a.257.257,0,0,1,.24.18q.08.18-.04.26A11.53,11.53,0,0,1,44.88,96a6.468,6.468,0,0,1-2.46.48,4.686,4.686,0,0,1-2.76-.76,2.865,2.865,0,0,1-1.08-2.52V83.8a5.45,5.45,0,0,0-.14-1.48.844.844,0,0,0-.54-.58,4.593,4.593,0,0,0-1.36-.14q-.16,0-.16-.26t.16-.26a4.139,4.139,0,0,0,2.6-.86,3.187,3.187,0,0,0,1.16-2.18q0-.12.32-.12.28,0,.28.12V81q2-.04,5.56-.4.08,0,.18.3a2.077,2.077,0,0,1,.1.66,1.728,1.728,0,0,1-.14.66q-.14.34-.3.3a24.766,24.766,0,0,0-5.4-.64v9.96a3.27,3.27,0,0,0,.82,2.44,3.213,3.213,0,0,0,2.34.8,5.087,5.087,0,0,0,3.2-1.12Zm7.44-22.4a1.468,1.468,0,0,0-1.3.5,2.912,2.912,0,0,0-.42,1.38,3.569,3.569,0,0,1-.48,1.28,1.2,1.2,0,0,1-1.08.48,1.247,1.247,0,0,1-1-.42,1.408,1.408,0,0,1-.36-.94,2.34,2.34,0,0,1,1.4-1.98A6.536,6.536,0,0,1,54.9,71a6.02,6.02,0,0,1,3.9,1.24,4.3,4.3,0,0,1,1.54,3.56,4.991,4.991,0,0,1-.44,2.14,5.867,5.867,0,0,1-.98,1.52q-.54.58-1.66,1.66a9.924,9.924,0,0,0-1.96,2.46,5.433,5.433,0,0,0-.56,2.5,12.714,12.714,0,0,0,.24,2.2q.04.12-.2.16t-.28-.08a13.526,13.526,0,0,1-.74-2.46,11.665,11.665,0,0,1-.3-2.3,4,4,0,0,1,.5-2.08,9.506,9.506,0,0,1,1.46-1.8,10.342,10.342,0,0,0,1.62-2,4.7,4.7,0,0,0,.54-2.4,4.489,4.489,0,0,0-.78-2.76A2.415,2.415,0,0,0,54.78,71.52ZM54.3,96.44a1.652,1.652,0,0,1-1.76-1.76,1.547,1.547,0,0,1,.48-1.2,2.111,2.111,0,0,1,2.58,0,1.582,1.582,0,0,1,.46,1.2,1.773,1.773,0,0,1-.46,1.28A1.716,1.716,0,0,1,54.3,96.44Z" transform="translate(164.54 29)" fill="#fff"/>
</svg>
