<svg xmlns="http://www.w3.org/2000/svg" xmlns:xlink="http://www.w3.org/1999/xlink" width="210" height="80" viewBox="0 0 210 80">
  <defs>
    <clipPath id="clip-path">
      <rect id="長方形_537" data-name="長方形 537" width="210" height="80" fill="none"/>
    </clipPath>
  </defs>
  <g id="グループ_707" data-name="グループ 707" transform="translate(-10 -10)">
    <g id="グループ_706" data-name="グループ 706" transform="translate(10 10)" clip-path="url(#clip-path)">
      <path id="パス_556" data-name="パス 556" d="M2.309,1.194a.615.615,0,0,0-.264-.011.124.124,0,0,0-.086.106.188.188,0,0,1-.088.043c-.056.009-.089.111-.107.148a.89.89,0,0,1-.06.1l-.118.148s-.03.036-.022.064a.236.236,0,0,1-.038.132c-.015.022-.175.268-.2.325s-.161.412-.175.449a2.756,2.756,0,0,0-.084.312C1.04,3.1.7,4.424.7,4.527s-.037.163-.054.5S.611,5.511.6,5.613.465,8.057.476,8.2s0,.231.009.32S.5,8.752.5,8.9s.025,2.552.022,2.642-.153.2.031.309c0,0,.034.013.034.082s-.061.125-.024.152a.061.061,0,0,1,.008.094c-.025.035-.035.074.016.105s.015.1,0,.136-.024.09.009.115a.514.514,0,0,1,0,.327c-.043.094-.081.278-.033.335s.008.082-.017.1-.128.073-.023.248a.534.534,0,0,1,0,.349.041.041,0,0,0,0,.072c.049.046-.022.13-.022.172s.022.041,0,.074-.15.1,0,.237c0,0-.016.146-.016.177s-.17.149-.012.154a.291.291,0,0,1-.031.166c-.035.064-.078.088-.03.113a.08.08,0,0,1,.021.113c-.055.076-.07.139-.027.164s-.01.081-.01.081a.077.077,0,0,0,.037.131,1.155,1.155,0,0,1,0,.19c-.021.1-.106,1.619-.111,1.727S.19,19.04.2,19.193s-.009.17-.009.17.052.069-.006.112l-.014.136L.105,20.688s.065.1.03.155-.085.131-.009.138l.009.359L.126,21.4s-.121.084.022.113l-.013.058s-.144.089.015.139c0,0,0,.124-.045.139s.043,2.325.043,2.325a21.365,21.365,0,0,0,.411,3.235s0,.1.056.1c0,0,.025.131.035.195S.886,28.754,1,29.087v.134s-.03.084.075.214a1.067,1.067,0,0,1,.059.3.728.728,0,0,0,.09.4.458.458,0,0,1,.115.24c.014.1-.044.125.064.153,0,0,.033.25.033.386a.6.6,0,0,0,.116.4c.093.1.03.278.148.44a1.535,1.535,0,0,1,.2.395c.067.135.291.656.363.747a.263.263,0,0,1,.074.146.281.281,0,0,0,.038.116c.035.04.206.261.247.307s.017.112.093.168-.014.15.088.164c0,0,0,.068.049.074a.157.157,0,0,1,.072.031l.089.149c.015.025-.035.145.091.154a2.139,2.139,0,0,0,.122.251,1.184,1.184,0,0,0,.106.132c.027.026.015.133.058.133s.041.07.041.07a4.348,4.348,0,0,0,.5.752c.155.126.065.073.065.073s.012.133.114.156c0,0,.01.042.018.068a2,2,0,0,0,.166.195s.065,0,.065.105c0,0,.343.433.445.57a14.761,14.761,0,0,0,1.5,1.626s.072.056.072.1.128.1.128.1.074-.082.09.029a.188.188,0,0,0,.078.149l.072.029a3.273,3.273,0,0,0,.315.232c.045.014.112.048.117.1s.055.052.111.075a.3.3,0,0,1,.1.112.4.4,0,0,0,.156.092,1.535,1.535,0,0,1,.309.2c.043.033.065.022.077.061s.008.081.032.081a1.686,1.686,0,0,1,.239.089,1.721,1.721,0,0,1,.32.211c.04.058.14.05.18.075a.3.3,0,0,1,.1.084,3.245,3.245,0,0,0,.34.211,3.336,3.336,0,0,0,.352.13,1.409,1.409,0,0,1,.3.152.251.251,0,0,0,.165.082s.044.034.081.069a.587.587,0,0,0,.165.053.947.947,0,0,1,.315.125c.078.064.117.13.2.113s.154-.03.183.017.193.047.212.047.033.054.08.074a.124.124,0,0,0,.093-.007.963.963,0,0,0,.254.08c.138.029.2.029.211.07s.1.015.147.03.522.163.691.2.662.152.771.187a3.107,3.107,0,0,0,.365.039c.051.009.15.084.231.108s.085-.063.12-.05a.669.669,0,0,1,.116.05c.059.025.964.071,1.275.089a1.89,1.89,0,0,1,.517.066.2.2,0,0,0,.133.031c.09,0,.411.019.411.019s.026.12.183.015h.059c.056,0,.311.009.341.015a.2.2,0,0,0,.182.008h.133c.031,0,.794-.038.924-.045l1.571-.133a6.68,6.68,0,0,0,.869-.123,23.108,23.108,0,0,0,3.136-1.026s.08-.067.131-.035.209-.1.5-.224a.237.237,0,0,1,.151-.017c.077.017.171-.13.188-.223s.134,0,.184-.023a2.4,2.4,0,0,0,.28-.245s.135-.064.225-.113a5.262,5.262,0,0,0,.6-.5s.215-.085.215-.18l1.885-1.616s.015-.128.114-.115.346-.325.393-.325.455-.278.489-.488a5.189,5.189,0,0,1,.36-.4,32.691,32.691,0,0,0,2.4-3.186,1.627,1.627,0,0,0,.207-.378,7,7,0,0,1,.442-.614.349.349,0,0,1,.1-.167c.047-.029.845-1.905.993-2.3s.8-2.215.848-2.527.083-.23.1-.243.339-.882.4-1.046.387-1.788.387-1.788a.866.866,0,0,0,.082-.118c.046-.078,0-.309.033-.373s.082-.2.082-.2a.748.748,0,0,1,0-.209c.014-.066.309-1.751.34-1.828s.066-.327.1-.477.324-2.54.356-2.627a.745.745,0,0,0,.067-.209c.017-.1.117-2.119.161-2.448s.184-1.35.214-1.517a.628.628,0,0,1,.08-.224c.008-.019,0-.045,0-.087,0-.017.035-.031.035-.048s-.027-.05-.023-.071a1.183,1.183,0,0,1,.04-.284c.025-.084.114-.348.114-.348s.015-.168.033-.289.178-.8.23-1,.081-.405.112-.472a.237.237,0,0,0,.073-.116c.019-.071-.054-.109-.025-.158a.739.739,0,0,0,.065-.148c.033-.065,0-.079.017-.165a3.258,3.258,0,0,0,.131-.476,1.652,1.652,0,0,1,.034-.387c.035-.122.075-.325.161-.392s.017-.113.049-.213.051-.5.08-.568a.727.727,0,0,0,.117-.328,4.3,4.3,0,0,1,.014-.637c.033-.1.115-.161.115-.208a.74.74,0,0,1,0-.3,10.227,10.227,0,0,0,.148-1.16,8.241,8.241,0,0,0,.013-1.256c-.035-.274-.063-.455-.063-.455a.788.788,0,0,1-.051-.132c-.033-.134-.063-.308-.086-.357a5.948,5.948,0,0,0-.254-.734c-.064-.1-.259-.486-.294-.568s-.2-.213-.212-.261c0,0,0-.085-.044-.115a.367.367,0,0,1-.076-.045c-.023-.018-.151-.122-.227-.169a.454.454,0,0,0-.232-.063s-.248-.082-.425.245a1.954,1.954,0,0,0,.049.825,3.894,3.894,0,0,1,.1.663.08.08,0,0,1-.008.046.126.126,0,0,0,.02.189s.051.036-.012.09-.048.088-.041.123-.007.089-.1.131-.09.033-.2-.012-.249-.243-.335-.365-.03-.156-.05-.245a.478.478,0,0,0-.123-.214.221.221,0,0,1-.1-.119c-.026-.069-.283-.575-.352-.7a.7.7,0,0,1-.111-.25c-.012-.054-.046-.062-.059-.087s-.335-.514-.385-.56a1.114,1.114,0,0,1-.178-.27.525.525,0,0,0-.1-.142c-.02-.032-.549-.545-.595-.581s-.041-.051-.061-.063S33.64.322,33.585.292a.875.875,0,0,0-.312-.058.54.54,0,0,0-.4.153s-.055.064-.038.309a.186.186,0,0,0-.006.115c.03.054.09.249.115.3a1.978,1.978,0,0,1,.115.194,1.946,1.946,0,0,1,.051.294c0,.086.022.086.031.1a.926.926,0,0,1,.173.239c.07.135.154.453.2.546s.162.3.2.4a3.33,3.33,0,0,1,.168.54c0,.108.052.4.044.469s.009.164-.165.2a.291.291,0,0,1-.273-.055,6.484,6.484,0,0,1-.5-.463c-.048-.07-.466-.467-.51-.516s-.251-.3-.336-.387-.435-.412-.51-.49-.3-.342-.325-.384,0-.041-.157-.138-.1-.13-.144-.181a2.647,2.647,0,0,0-.387-.348C30.472,1.037,30.3.9,30.268.882S30.236.8,30.215.79s-.06-.018-.081-.042S30.09.693,30.066.666A.28.28,0,0,0,29.96.609c-.023-.011-.088,0-.125-.015a2.2,2.2,0,0,1-.168-.152.7.7,0,0,0-.1-.04c-.039-.008-.122-.092-.2-.1a.6.6,0,0,0-.378.02C28.83.4,28.823.42,28.823.42a.519.519,0,0,1-.081.022c-.014.007-.007.087-.025.112s-.081.069-.037.121-.011.085-.038.1a.216.216,0,0,0-.08.15.636.636,0,0,0,.136.2c.048.076,0,.075.038.124s.412.573.441.638a3.914,3.914,0,0,0,.261.363c.08.09.236.282.259.3s.04.075.067.108.071.03.1.079.025.105.052.143.039.025.085.039a.3.3,0,0,1,.149.113c.036.052.273.366.327.447s.122.229.149.27.109.019.109.131a.829.829,0,0,0,.1.115c.031.025.07.108.1.136s.149.209.2.262a.41.41,0,0,1,.094.187c.031.082.1.249.123.308a1.265,1.265,0,0,1,.021.366.235.235,0,0,1-.177.173c-.084.007-.209-.086-.247-.087a.231.231,0,0,1-.107,0c-.031-.013-.031-.1-.062-.123s-.12-.016-.164-.031-.129-.113-.154-.141a3.519,3.519,0,0,1-.3-.25c-.026-.038-.026-.073-.069-.109s-.041-.092-.075-.113a.836.836,0,0,0-.127-.052.411.411,0,0,1-.085-.118,1.459,1.459,0,0,0-.2-.225c-.029-.02-.161-.163-.187-.188s-.327-.284-.361-.322-.015-.05-.049-.075-.064-.019-.086-.032a.858.858,0,0,1-.141-.136c-.018-.028-.03-.073-.064-.093a.181.181,0,0,0-.1-.026c-.056,0-.111-.063-.132-.084a1.774,1.774,0,0,0-.165-.143c-.019-.017-.019-.057-.044-.092s-.111-.052-.111-.052-.333-.172-.367-.2l-.1-.082c-.024-.02-.056-.015-.086-.027a1.886,1.886,0,0,1-.233-.165.605.605,0,0,0-.171-.044A1.646,1.646,0,0,1,27,2.373a.293.293,0,0,0-.259.05.6.6,0,0,0-.175.174,1.453,1.453,0,0,1-.064.146c-.014.02-.073.1-.038.147s.026.1.038.139.03.265.041.328.043.089.043.108a.219.219,0,0,0,.049.126c.03.042.251.355.31.421s.193.28.267.353.116.115.112.132a.145.145,0,0,0,.064.111c.028.011.051.05.069.077s.042.017.075.044.07.141.106.176a.388.388,0,0,1,.083.121c.012.032.162.154.2.2s.035.127.053.158a.146.146,0,0,0,.1.092.3.3,0,0,1,.108.073c.03.033.03.1.053.129a1.464,1.464,0,0,0,.219.268c.083.074.262.342.323.408s.018.1.052.121a.24.24,0,0,1,.078.059,1.341,1.341,0,0,1,.186.337.747.747,0,0,1,.021.353.927.927,0,0,1-.161.192.186.186,0,0,1-.136.051.766.766,0,0,1-.2,0,.363.363,0,0,1-.082-.041c-.035-.019-.227-.03-.273-.047s-.47-.2-.515-.223-.152-.027-.226-.051-.4-.214-.46-.232a3.563,3.563,0,0,0-.478-.148.949.949,0,0,0-.346,0,.626.626,0,0,0-.2.108c-.025.027-.086.12-.1.136a.17.17,0,0,1-.076.032c-.025,0-.06.074-.064.132s-.035.133-.037.179a.7.7,0,0,0,.041.246.5.5,0,0,1,.069.2.377.377,0,0,0,.035.167.524.524,0,0,0,.088.111c.035.032.209.315.259.375a.3.3,0,0,1,.06.115,2.286,2.286,0,0,0,.236.25A5.076,5.076,0,0,1,27,9.245c.064.079.135.156.171.2s.43.387.548.5.555.478.655.568.359.418.443.514a6.955,6.955,0,0,1,.383.6,2.23,2.23,0,0,1,.115.231c.028.045.067.063.086.1s.243.493.277.58.1.252.1.284.069.119.084.168.234.545.256.6a.661.661,0,0,1,.049.167.305.305,0,0,0,.052.11,3.716,3.716,0,0,1,.185.474c.036.136.036.242.054.281a1.75,1.75,0,0,1,.068.224c.007.066.172.62.18.757s.085.671.1.734,0,.193.012.237a1.329,1.329,0,0,1,.043.214c0,.085.036.591.048.672s.03.76.028.809a.1.1,0,0,1-.028.077c0,.018-.058.047.009.106a.691.691,0,0,1,.02.114c0,.033-.02.606-.024.676s-.031.465-.037.571-.041.384-.049.437-.022.055-.031.158-.016.259-.022.309-.047.212-.049.267-.012.19-.027.235-.077.107-.086.134a.786.786,0,0,1-.046.11.114.114,0,0,0,.019.132c.046.037.031.087,0,.1s-.071.1-.028.151.027.081.017.1-.071.047-.023.1a.132.132,0,0,1,.013.16c-.013.017-.06,0-.077.034s.039.062.063.107,0,.075-.022.1-.11.059-.086.079.031.022.031.063a.1.1,0,0,1-.031.09c-.013.015-.042.026-.042.062a.733.733,0,0,1-.008.1c-.006.029.02.063.014.089s-.006.042-.03.05a.055.055,0,0,0-.058.041,1.112,1.112,0,0,0-.028.185c-.017.043-.017.057-.031.066s-.031.012-.038.034a.5.5,0,0,1-.015.093.193.193,0,0,0-.014.133c.007.061.014.077.049.106a.1.1,0,0,1,.006.1c-.02.011-.071.037-.079.058s0,.154-.01.175-.067.068-.067.084,0,.03.022.042,0,.082-.009.094a.2.2,0,0,1-.041.06c-.016.011-.075.032-.027.063s.03.038.025.06-.049.206-.064.253-.148.5-.2.617-.258.658-.294.746-.18.423-.2.48a1.494,1.494,0,0,1-.116.182c-.014.03-.249.493-.279.549s-.206.436-.231.467a.744.744,0,0,0-.048.181.661.661,0,0,1-.075.169,3.217,3.217,0,0,0-.2.3,1.2,1.2,0,0,0-.08.152c-.014.038,0,.077-.022.1s-.025.036-.041.073a.442.442,0,0,0-.064.164,2,2,0,0,1-.173.264.325.325,0,0,0-.039.112c-.014.022-.061.061-.075.087s-.017.06-.03.092-.093.131-.107.165-.027.078-.054.131-.374.583-.422.668-.181.26-.217.309c0,0-.215.273-.251.338a2.078,2.078,0,0,0-.222.325c-.009.075-.048.1-.067.138s-.441.389-.495.449a1.624,1.624,0,0,1-.143.149.49.49,0,0,0-.118.079c-.025.027-1.233,1.023-1.311,1.076s-.656.519-.711.549a1.454,1.454,0,0,1-.167.139c-.066.042-.275.164-.353.214s-.567.282-.663.328-.79.26-.9.3a1.8,1.8,0,0,1-.321.087,1.429,1.429,0,0,1-.158.012,1.054,1.054,0,0,0-.233.081c-.071.022-.75.166-.9.184s-.649.089-.743.1-2.367.049-2.486.041-.459-.016-.508-.03-.093-.041-.123-.048-.809-.023-.858-.03-.613-.083-.705-.1a3.406,3.406,0,0,0-.372-.075,4.024,4.024,0,0,0-.409-.087A3.869,3.869,0,0,1,13.4,34.8c-.048-.02-.052-.05-.1-.058s-.165-.044-.233-.059-.42-.174-.491-.211-.329-.191-.394-.208a1.293,1.293,0,0,1-.207-.089,3.546,3.546,0,0,0-.421-.2,1.1,1.1,0,0,1-.172-.092,1.988,1.988,0,0,0-.279-.129,1.14,1.14,0,0,1-.221-.133c-.01-.014-.031-.069-.057-.075s-.117-.038-.117-.038a.318.318,0,0,0-.115-.1.308.308,0,0,1-.135-.095c-.033-.022-.644-.489-.77-.592s-.724-.647-.812-.759c-.07-.108-.486-.63-.54-.707a.5.5,0,0,1-.069-.169.2.2,0,0,0-.07-.112c-.037-.041-.3-.5-.323-.533s-.024-.13-.043-.143a1.315,1.315,0,0,1-.112-.125.39.39,0,0,1-.064-.149c-.007-.043-.06-.056-.06-.123a.176.176,0,0,0-.076-.162s-.056-.073-.056-.1-.037-.058-.061-.082a.35.35,0,0,1-.083-.148.825.825,0,0,0-.066-.2,1.015,1.015,0,0,0-.127-.2.258.258,0,0,1-.086-.141.977.977,0,0,0-.012-.195c-.012-.035-.059-.121-.07-.16s-.267-.641-.316-.813S6.3,26.525,6.28,26.407s-.152-.805-.152-.847-.028-.183-.022-.219a1.482,1.482,0,0,0-.015-.3.721.721,0,0,1-.041-.185,1.394,1.394,0,0,0-.05-.23,1.446,1.446,0,0,1-.059-.165c-.006-.032-.027-.288-.027-.288s.045-.02.04-.035a.2.2,0,0,0-.04-.045,1.306,1.306,0,0,1-.015-.144c0-.037-.05-.421-.056-.491s-.007-.783-.007-.818-.015-.043.012-.058.018-.117,0-.167A.814.814,0,0,1,5.8,22.2c.009-.052,0-.293,0-.33s-.019-.956-.013-1.072.043-.578.043-.6a.078.078,0,0,1,.03-.063c.025-.016-.023.007-.023-.04s.023-.423.033-.514.115-.62.131-.73a1.219,1.219,0,0,1,.069-.329c.031-.048.059,0,.059-.182,0,0,.07-.061.056-.123a.163.163,0,0,1,.033-.123.22.22,0,0,0,.047-.081c.027-.06,0-.236.017-.278s.311-1.08.369-1.249.256-.6.3-.728a1.41,1.41,0,0,1,.061-.24.442.442,0,0,1,.086-.076c.042-.024,0-.084.017-.105a.783.783,0,0,1,.1-.161c.046-.036.012-.049.006-.077a.715.715,0,0,1,.062-.173s.039.006.052-.084.2-.57.229-.617a6.686,6.686,0,0,1,.317-.616,4.132,4.132,0,0,0,.216-.362c.046-.066.194-.341.25-.413a3.53,3.53,0,0,1,.343-.451c.093-.086.238-.268.3-.317s.172-.148.217-.179a1.5,1.5,0,0,1,.283-.22,1.139,1.139,0,0,0,.261-.255s.148-.17.194-.179.161.028.132-.088A.035.035,0,0,1,10.1,11.1c.043-.007.141-.128.182-.128s.1-.011.112-.037-.092-.079.024-.112a.865.865,0,0,0,.256-.149s-.02-.1.019-.108a1.283,1.283,0,0,1,.176-.023c.059,0,.1.023.116-.022s-.059-.13.026-.12.13-.009.185-.123.071-.035.1-.073.059-.122.114-.148a.425.425,0,0,1,.166-.067c.062,0,.1,0,.133-.108a.186.186,0,0,0,.067-.014c.03-.012.036-.012.059-.079a.2.2,0,0,1,.121-.129c.058-.03.577-.43.67-.49s.37-.292.409-.3.056-.024.1-.034.082-.1.12-.1a.247.247,0,0,0,.086-.024s.02-.053.06-.06.072.007.085-.017.006-.1.056-.123.135-.113.17-.117.059,0,.065-.03a.823.823,0,0,1,0-.124,1.252,1.252,0,0,1,.171-.165A.119.119,0,0,0,14.009,8c.006-.024,0-.08.026-.113a.649.649,0,0,0,.1-.279.81.81,0,0,0-.056-.375.489.489,0,0,0-.285-.224c-.133-.022-.238-.044-.252-.048s-.03-.031-.081-.024a.645.645,0,0,0-.109.029c-.045.014-.188.05-.291.072s-.186.053-.223.056-.063,0-.1.032a.636.636,0,0,1-.108.09c-.024.012-.117.007-.171.018a.2.2,0,0,0-.108.047.192.192,0,0,1-.1.046c-.03.007-.217.014-.275.028s-.121.059-.176.061c0,0-.142.029-.19.04s-.144.061-.2.064a.447.447,0,0,1-.279-.043c-.158-.067-.226-.1-.238-.133a1.734,1.734,0,0,1-.038-.3c.014-.056.014-.043,0-.064a.068.068,0,0,1,0-.086,1.669,1.669,0,0,0,.131-.2,1.154,1.154,0,0,1,.152-.221c.04-.055.036-.116.131-.183s.05-.131.05-.131a.326.326,0,0,1,.047-.084c.027-.035.277-.421.359-.525s.261-.365.3-.41.007-.087.043-.125.09-.109.108-.135,0-.076.033-.115.027-.037.1-.107a1.249,1.249,0,0,0,.229-.315c.051-.09.14-.244.186-.329a.407.407,0,0,0,.064-.2.2.2,0,0,1,.033-.115c.019-.033,0-.092,0-.134s-.007-.13-.07-.178a.571.571,0,0,0-.245-.158,1.112,1.112,0,0,0-.4-.043.293.293,0,0,0-.209.091c-.049.029-.217.157-.262.187s-.344.315-.391.349a.746.746,0,0,0-.114.09c-.015.03-.015.057-.035.077s-.346.278-.428.346a4.126,4.126,0,0,1-.327.267c-.05.031-.065.031-.122.065a1.5,1.5,0,0,0-.154.193.173.173,0,0,1-.1.03c-.035-.006-.056-.04-.055.025s-.114.137-.131.157-.435.308-.469.332a.34.34,0,0,1-.128.053.9.9,0,0,1-.238-.018c-.03-.018-.077-.146-.088-.058,0,0,.013.024-.035.024a.172.172,0,0,1-.12-.036A.43.43,0,0,1,8.6,5.2a.492.492,0,0,1,.02-.272c.034-.091.037-.141.066-.2s.122-.2.18-.294.123-.227.143-.252.031-.078.039-.105.059-.056.107-.122.18-.276.211-.34.061-.177.117-.2.049-.052.068-.1.161-.257.2-.319.067-.143.1-.217a1.725,1.725,0,0,1,.157-.294,3.328,3.328,0,0,1,.245-.352A.348.348,0,0,0,10.342,2c.01-.026,0-.123.03-.136s.041-.064.043-.11-.015-.171.011-.2.069-.064.077-.112a.508.508,0,0,0-.016-.223,1.065,1.065,0,0,0-.161-.261A.618.618,0,0,0,9.994.744,1.731,1.731,0,0,1,9.727.692.243.243,0,0,0,9.581.7a.447.447,0,0,1-.135.068A.331.331,0,0,0,9.307.83c-.035.034-.307.315-.336.358a2.189,2.189,0,0,0-.142.189A7.293,7.293,0,0,1,8.3,2a.328.328,0,0,0-.094.148c-.028.088-.01.064-.044.1s-.094.027-.137.108a2.407,2.407,0,0,1-.177.275s-.287.28-.323.325a.59.59,0,0,0-.057.122c-.027.038-.232.228-.269.288s-.02.1-.048.134-.348.423-.411.493a1.009,1.009,0,0,1-.286.251A.216.216,0,0,1,6.2,4.171a.472.472,0,0,1-.136-.307,2.632,2.632,0,0,1,.067-.452c.034-.128.211-.674.249-.762s.321-.706.367-.8.1-.18.119-.244a1.971,1.971,0,0,0,.07-.206,1.2,1.2,0,0,1,.117-.225c.014-.019.055,0,.073-.1A.808.808,0,0,1,7.243.846l.1-.174c.019-.042.061-.136.033-.2a.134.134,0,0,1,0-.122c.012-.032.006-.113-.087-.2A.408.408,0,0,0,6.891,0a.87.87,0,0,0-.333.06.127.127,0,0,0-.1.089A.862.862,0,0,1,6.28.318c-.064.042-.414.376-.459.426s-.247.254-.277.288-.039.071-.062.1-.382.423-.426.483-.049.128-.078.165-.261.392-.3.449a1.522,1.522,0,0,0-.177.266.181.181,0,0,0-.028.086c0,.043-.029.064-.062.112s-.243.407-.271.454-.036.073-.062.083a.181.181,0,0,0-.058.1c-.018.035-.24.382-.275.431a.921.921,0,0,1-.293.235,1,1,0,0,1-.343-.07.986.986,0,0,1-.254-.245c-.041-.063-.1-.17-.131-.2s-.03-.063-.023-.121a.313.313,0,0,0-.007-.173.82.82,0,0,1-.025-.242,5.362,5.362,0,0,1,.05-.549,3.077,3.077,0,0,0,.02-.376c0-.04.028-.04.032-.084a.926.926,0,0,0-.018-.162c-.008-.032-.023-.055-.008-.079s.035-.037.026-.084a.943.943,0,0,0-.07-.148A.611.611,0,0,0,2.5,1.275a.981.981,0,0,0-.2-.081" transform="translate(-0.029 0)" fill="#0068b6"/>
      <path id="パス_557" data-name="パス 557" d="M17.635,23.642s-.561.276-.6.293a.783.783,0,0,0-.14.048s-.353.237-.441.293a4.646,4.646,0,0,0-.393.285.476.476,0,0,0-.12.146c-.013.036-.033.046-.084.082a.512.512,0,0,0-.126.1,3.938,3.938,0,0,0-.368.456,1.7,1.7,0,0,0-.1.219c0,.033,0,.1-.017.13a.527.527,0,0,0-.109.232.972.972,0,0,0,.019.262,1.04,1.04,0,0,0,.145.365.252.252,0,0,0,.117.07c.043.011.055.042.089.073a.268.268,0,0,0,.17.068.6.6,0,0,0,.2-.026c.058-.021.156-.046.2-.06a2.821,2.821,0,0,0,.262-.136.721.721,0,0,0,.169-.131,3.906,3.906,0,0,0,.254-.3c.064-.07.232-.265.307-.328s.238-.217.3-.257a2.086,2.086,0,0,1,.307-.182c.048-.014.111-.063.183-.1a1.965,1.965,0,0,1,.43-.13.856.856,0,0,0,.173-.04,2.856,2.856,0,0,1,.436-.051c.119,0,.29-.042.414-.034a1.041,1.041,0,0,1,.309.065c.075.025.107.068.156.081s.157.037.232.068a2.677,2.677,0,0,1,.3.146c.106.069.317.172.385.221a.558.558,0,0,0,.191.1,1.506,1.506,0,0,0,.4.024.529.529,0,0,0,.378-.25s.064-.006.019-.366-.019-.286-.059-.4a.374.374,0,0,0-.133-.178,2.181,2.181,0,0,1-.277-.255.42.42,0,0,0-.1-.119c-.055-.035-.146-.127-.18-.127a.127.127,0,0,1-.074-.013c-.02-.011-.023-.056-.076-.079s-.122-.073-.167-.091-.036-.048-.093-.048a.265.265,0,0,1-.133-.018c-.048-.02-.162-.113-.2-.113a.31.31,0,0,1-.107-.011c-.019-.016-.05-.065-.091-.076s-.311-.02-.379-.036-.149-.044-.225-.046a3.386,3.386,0,0,0-.412.013.708.708,0,0,1-.177-.013,2.248,2.248,0,0,0-.479.027.822.822,0,0,1-.165.077c-.052.007-.275.018-.346.03s-.108.015-.176.035" transform="translate(-5.789 -8.923)" fill="#0068b6"/>
      <path id="パス_558" data-name="パス 558" d="M20.225,28.663a.371.371,0,0,0-.223,0,1.618,1.618,0,0,1-.192.056c-.049,0-.064.057-.1.078s-.047.048-.091.053a.21.21,0,0,0-.13.045.9.9,0,0,0-.107.152c-.025.045-.1.209-.135.315a.767.767,0,0,0-.062.209c0,.053-.02.188-.02.267a.81.81,0,0,0,.055.351.759.759,0,0,0,.2.218c.085.066.2.152.248.185a.26.26,0,0,0,.094.042.248.248,0,0,0,.135,0c.044-.019.089.011.125.031a.2.2,0,0,0,.138.042c.056-.006.14-.056.2-.069a.422.422,0,0,1,.148-.018.113.113,0,0,0,.1-.029.616.616,0,0,1,.135-.092c.043-.015.1-.031.114-.073s.075-.133.093-.157.038-.084.07-.109a.862.862,0,0,0,.091-.141.369.369,0,0,0,.025-.1c0-.025.02-.121.02-.194s.019-.145-.02-.192a1.606,1.606,0,0,0-.074-.175.991.991,0,0,1-.079-.138.554.554,0,0,1-.031-.132.185.185,0,0,0-.064-.154.9.9,0,0,0-.226-.1c-.073-.027-.136-.055-.191-.077a.548.548,0,0,0-.137-.058.212.212,0,0,1-.069-.007.124.124,0,0,0-.043-.032" transform="translate(-7.332 -10.892)" fill="#0068b6"/>
      <path id="パス_559" data-name="パス 559" d="M36.458,23.2a2.7,2.7,0,0,1-.3-.019c-.093-.02-.594.009-.651.009a.339.339,0,0,1-.161-.021.2.2,0,0,0-.159.021,1.75,1.75,0,0,1-.341.032.974.974,0,0,1-.237.012.234.234,0,0,0-.156.01c-.081.032-.514.113-.593.139s-.094.011-.183.034-.152.03-.2.048-.547.188-.606.227-.111.017-.162.069a.745.745,0,0,1-.153.1s-.154.064-.221.084-.052-.006-.128.042a1.307,1.307,0,0,0-.207.141.825.825,0,0,1-.081.09c-.025.025-.287.162-.376.227s-.244.177-.3.215-.321.276-.411.355-.258.231-.307.287-.135.162-.161.182-.083.013-.074.042.04.07-.009.07a.107.107,0,0,0-.091.043,1.573,1.573,0,0,0-.1.123c-.016.034-.121.172-.147.218s-.047.091-.075.091-.054,0-.054.052a.136.136,0,0,1-.043.105c-.018.022-.107.152-.133.175a.527.527,0,0,0-.1.117.759.759,0,0,1-.058.148c-.038.071-.291.466-.319.533s-.093.135-.094.156.007.1-.038.119a.157.157,0,0,0-.1.09c-.015.037-.015.079-.032.119s-.054.053-.067.074a.484.484,0,0,0-.064.123.746.746,0,0,1-.106.214c-.022.039-.073.084-.081.108a.361.361,0,0,1,0,.11c-.021.038-.1.059-.1.1s.012.089,0,.118-.064.077-.1.13a.461.461,0,0,0-.037.231.179.179,0,0,1-.052.147.832.832,0,0,0-.086.211c-.039.109-.178.575-.2.705a1.012,1.012,0,0,1-.062.254c-.033.05-.048.056-.056.1a1.083,1.083,0,0,0-.056.179.576.576,0,0,1,.016.095c0,.035-.042.092-.057.137a.408.408,0,0,0-.02.185.458.458,0,0,1-.019.19.824.824,0,0,0-.061.165.435.435,0,0,1,.021.156c-.01.09-.048.263-.056.331s-.057.525-.051.6.051.462.065.588a.823.823,0,0,1,0,.168c.012.035.049.073.037.1s-.09.084.023.1a.272.272,0,0,1,.071.082.406.406,0,0,0,.1.1c.048.032.137.1.194.134a.277.277,0,0,0,.145.058c.058.007.088-.027.141-.027a.339.339,0,0,0,.127,0,.534.534,0,0,0,.24-.142,1.08,1.08,0,0,0,.146-.221c.041-.077.1-.206.138-.278a.961.961,0,0,1,.092-.184.521.521,0,0,0,.076-.206c.016-.067.1-.4.133-.531s.059-.338.067-.4.044-.2.052-.237.022-.066.049-.179.035-.3.057-.382.043-.094.062-.182a1.641,1.641,0,0,1,.029-.273c.031-.068.15-.393.177-.482s.091-.279.11-.381a3.844,3.844,0,0,1,.168-.554.437.437,0,0,0,.068-.169.853.853,0,0,1,.071-.206c.033-.051.09-.148.11-.189s.011-.139.074-.177.068-.089.091-.141.1-.154.132-.221a2.021,2.021,0,0,1,.142-.307.621.621,0,0,0,.069-.115.236.236,0,0,1,.063-.116s.055-.081.077-.12a.779.779,0,0,0,.091-.125c.036-.037.057-.109.083-.129s.033-.049.047-.049.081-.039.071-.094.047-.1.069-.126a1.387,1.387,0,0,1,.136-.206,1.159,1.159,0,0,1,.173-.194c.039-.024.056-.066.09-.076s.06,0,.081-.017a.252.252,0,0,1,.054-.072c.049-.042.14-.146.181-.187s.12-.161.157-.164.028.024.086.01.085-.045.129-.055a1.176,1.176,0,0,0,.157-.1c.046-.031.456-.315.55-.371a3.846,3.846,0,0,1,.422-.219,1.708,1.708,0,0,1,.219-.076c.062-.009.048-.037.093-.037a.312.312,0,0,0,.126-.014.313.313,0,0,1,.1-.082c.054-.015.339-.094.462-.118a5.54,5.54,0,0,1,.637-.133c.122,0,.435-.018.488-.019s.035,0,.066.011.369.006.474.006.438-.017.5-.022a.189.189,0,0,1,.115.028c.033.017.04.017.121.017a3.851,3.851,0,0,0,.445-.01.827.827,0,0,0,.385-.154.422.422,0,0,0,.116-.216c.006-.028.02-.045.025-.078a.167.167,0,0,0-.025-.082c-.01-.022,0-.19-.01-.218s-.067-.079-.106-.134-.09-.121-.112-.149-.136-.128-.173-.157-.109-.025-.13-.038a.3.3,0,0,1-.1-.087.138.138,0,0,0-.089-.032,2.062,2.062,0,0,1-.237-.026.993.993,0,0,1-.148-.069c-.031-.011-.1-.033-.121-.007s-.01.033-.063.037-.059.011-.086-.01a.251.251,0,0,0-.1-.033" transform="translate(-10.56 -8.806)" fill="#0068b6"/>
      <path id="パス_560" data-name="パス 560" d="M37.655,28.811a.562.562,0,0,0-.091.129,1.3,1.3,0,0,1-.082.121.514.514,0,0,0-.083.149c-.019.064-.061.167-.072.2s-.067.11-.088.145a.436.436,0,0,0-.04.171.9.9,0,0,0,.061.271,1.031,1.031,0,0,0,.1.2c.039.041.014.055.049.084a1.254,1.254,0,0,1,.1.117c.029.038.059.1.078.13a.117.117,0,0,0,.063.047c.036.011.078.011.114.02a.962.962,0,0,0,.117.056.641.641,0,0,0,.161.041c.033.006.062.009.091.017a.754.754,0,0,0,.192.018.667.667,0,0,0,.235-.058c.077-.026.134-.082.168-.087a.612.612,0,0,0,.139-.076c.046-.027.067-.076.1-.1s.08-.031.111-.065a.263.263,0,0,0,.062-.1c.01-.019.01-.136.017-.158a1.2,1.2,0,0,0,.051-.112c.02-.045.043-.126.052-.136s0-.045.03-.055.068-.046.007-.082c0,0-.02-.1-.007-.11a.181.181,0,0,0,.007-.129c-.035-.069-.035-.1-.051-.123a.408.408,0,0,1-.073-.109.491.491,0,0,0-.059-.118c-.017-.024-.2-.2-.23-.226a.437.437,0,0,0-.082-.086c-.031-.01-.079-.01-.119-.024s-.035-.028-.077-.037a.633.633,0,0,0-.115-.011c-.046-.013-.1-.04-.154-.058a.642.642,0,0,0-.151-.051.306.306,0,0,0-.13.025.671.671,0,0,0-.145.033c-.033.02-.073.051-.111.08s-.074.006-.152.052" transform="translate(-14.234 -10.882)" fill="#0068b6"/>
      <path id="パス_561" data-name="パス 561" d="M22.725,45a1.845,1.845,0,0,0-.33,0c-.069.019-.061.055-.093.063a.609.609,0,0,0-.181.029c-.038.026-.183.107-.23.139a.32.32,0,0,0-.09.086.931.931,0,0,0-.067.368,2.3,2.3,0,0,1,.038.317.076.076,0,0,0,.036.1c.035.036.046.088.1.1s.064-.009.111.019a.253.253,0,0,1,.081.083,2.577,2.577,0,0,0,.329.243,4.821,4.821,0,0,0,.452.216,2.574,2.574,0,0,0,.362.131c.061.023.054.054.1.054a.469.469,0,0,1,.175.013c.049.027.119.087.167.09s.076-.024.115.008.033.075.093.079.227-.026.287-.017a2.569,2.569,0,0,1,.273.03.359.359,0,0,1,.115.043c.04.013.838.013.968.013a1.6,1.6,0,0,0,.28-.007.98.98,0,0,1,.164-.045c.051,0,.112.024.186.024s.088,0,.128-.029a.185.185,0,0,1,.121-.03.235.235,0,0,1,.106.017c.045.012.131-.026.173-.032s.522-.065.623-.086.2,0,.233-.033a.159.159,0,0,1,.122-.071.156.156,0,0,0,.115-.055c.035-.024.112-.024.183-.056s.289-.121.451-.181.332-.159.466-.226a1.594,1.594,0,0,1,.2-.11.3.3,0,0,1,.113-.046.54.54,0,0,0,.2-.1,1.054,1.054,0,0,0,.21-.208.9.9,0,0,1,.182-.227c.033-.024.073-.043.09-.092s0-.112.019-.134.046-.055.051-.142a.665.665,0,0,0-.022-.26.655.655,0,0,0-.093-.179.614.614,0,0,0-.136-.094c-.017-.011-.049-.032-.072-.015s-.054.042-.074.028a.074.074,0,0,1-.033-.055.081.081,0,0,0-.09-.056.707.707,0,0,1-.136,0c-.038-.007-.038-.02-.091-.02a.728.728,0,0,0-.149.024c-.052.017-.253.017-.309.025a1.518,1.518,0,0,0-.179.053c-.079.028-.315.117-.429.169s-.27.118-.382.179-.355.165-.446.214a1.908,1.908,0,0,1-.194.092c-.051.006-.152.02-.222.035s-.325.076-.4.088a3.657,3.657,0,0,1-.5.059c-.1,0-.624-.007-.759-.007a2.869,2.869,0,0,1-.48-.055c-.1-.022-.42-.071-.543-.1s-.446-.119-.616-.172-.362-.094-.488-.144-.261-.1-.381-.146" transform="translate(-8.316 -16.991)" fill="#0068b6"/>
      <path id="長方形_492" data-name="長方形 492" d="M.855,0H8.49a.852.852,0,0,1,.852.852V1.5a.849.849,0,0,1-.849.849H.852A.852.852,0,0,1,0,1.493V.855A.855.855,0,0,1,.855,0Z" transform="translate(47.908 8.203)" fill="#0068b6"/>
      <path id="パス_562" data-name="パス 562" d="M88.194,0H70.562a.526.526,0,0,0-.525.528v17.7a.527.527,0,0,0,.525.527H88.194a.526.526,0,0,0,.522-.527V.529A.525.525,0,0,0,88.194,0M86.382,16.145a.264.264,0,0,1-.263.264H72.635a.266.266,0,0,1-.265-.264V2.61a.265.265,0,0,1,.265-.263H86.119a.263.263,0,0,1,.263.263Z" transform="translate(-26.799 0)" fill="#0068b6"/>
      <path id="パス_563" data-name="パス 563" d="M124.762,54.231a.528.528,0,0,1-.528.528h-1.286a.523.523,0,0,1-.52-.528V47.99a.268.268,0,0,0-.266-.264h-6.215a.527.527,0,0,1-.527-.526V45.909a.527.527,0,0,1,.527-.527h8.287a.529.529,0,0,1,.528.527Z" transform="translate(-44.164 -17.254)" fill="#0068b6"/>
      <path id="パス_564" data-name="パス 564" d="M118.532,57.031a1.555,1.555,0,1,1-1.554-1.564,1.561,1.561,0,0,1,1.554,1.564" transform="translate(-44.164 -21.089)" fill="#0068b6"/>
      <path id="パス_565" data-name="パス 565" d="M126.011,37.821H108.383a.525.525,0,0,0-.524.527v17.7a.525.525,0,0,0,.524.525h17.628a.525.525,0,0,0,.525-.525v-17.7a.524.524,0,0,0-.525-.527M124.2,53.964a.26.26,0,0,1-.263.263H110.454a.262.262,0,0,1-.262-.263V40.427a.261.261,0,0,1,.262-.262h13.482a.259.259,0,0,1,.263.262Z" transform="translate(-41.271 -14.38)" fill="#0068b6"/>
      <path id="パス_566" data-name="パス 566" d="M79.376,49.013a.523.523,0,0,1-.523.526H77.569a.526.526,0,0,1-.525-.526V40.426a.262.262,0,0,0-.264-.261H70.562a.529.529,0,0,1-.525-.529V38.348a.525.525,0,0,1,.525-.527h8.292a.523.523,0,0,1,.523.527Z" transform="translate(-26.799 -14.38)" fill="#0068b6"/>
      <path id="パス_567" data-name="パス 567" d="M95.954,38.348a.523.523,0,0,0-.522-.527H94.146a.523.523,0,0,0-.527.527V39.9a.262.262,0,0,1-.263.263H89.474a.522.522,0,0,0-.522.527V41.98a.523.523,0,0,0,.522.527h5.958a.525.525,0,0,0,.522-.527Z" transform="translate(-34.036 -14.38)" fill="#0068b6"/>
      <path id="パス_568" data-name="パス 568" d="M73.124,59.446a.522.522,0,0,0,.37-.152l4.215-4.234a.179.179,0,0,0,.052-.125.174.174,0,0,0-.177-.175H72.635a.266.266,0,0,1-.265-.264V52.679a.266.266,0,0,1,.265-.265h1.548a.526.526,0,0,0,.523-.526V50.6a.526.526,0,0,0-.523-.524H72.635a.268.268,0,0,1-.265-.265V47.99a.266.266,0,0,1,.265-.263h1.548a.528.528,0,0,0,.523-.526V45.91a.528.528,0,0,0-.523-.527H70.562a.527.527,0,0,0-.525.527V56.573a.526.526,0,0,0,.525.529H71.95a.175.175,0,0,1,.174.178.186.186,0,0,1-.049.123L70.34,59.147a.176.176,0,0,0,.125.3Z" transform="translate(-26.799 -17.255)" fill="#0068b6"/>
      <path id="パス_569" data-name="パス 569" d="M97.04,64.856a.523.523,0,0,1-.527-.525v-2.4a.513.513,0,0,1,.157-.374l1.878-1.889a.166.166,0,0,1,.124-.054.175.175,0,0,1,.175.179v4.541a.524.524,0,0,1-.523.525Z" transform="translate(-36.93 -22.665)" fill="#0068b6"/>
      <path id="パス_570" data-name="パス 570" d="M92.81,52.231a.516.516,0,0,0,.153-.374V49.691a.527.527,0,0,0-.522-.527H91.156a.526.526,0,0,0-.527.527v1.2a.524.524,0,0,1-.155.372l-9.287,9.325a.171.171,0,0,0-.051.123.174.174,0,0,0,.175.177h2.661a.522.522,0,0,0,.372-.153Z" transform="translate(-31.046 -18.692)" fill="#0068b6"/>
      <path id="パス_571" data-name="パス 571" d="M121.869,14.588a.526.526,0,0,0-.528-.524h-2.713a.265.265,0,0,1-.264-.266V4.949a.265.265,0,0,1,.264-.263h7.384a.524.524,0,0,0,.525-.526V2.872a.526.526,0,0,0-.525-.527h-7.384a.264.264,0,0,1-.264-.265V.528A.527.527,0,0,0,117.837,0h-1.284a.524.524,0,0,0-.522.528V2.081a.264.264,0,0,1-.262.265h-7.386a.526.526,0,0,0-.524.527V4.16a.524.524,0,0,0,.524.526h7.386a.265.265,0,0,1,.262.263V13.8a.274.274,0,0,1-.262.266h-2.716a.526.526,0,0,0-.527.526v1.289a.527.527,0,0,0,.527.529h2.716a.268.268,0,0,1,.262.262v1.554a.525.525,0,0,0,.522.527h1.284a.528.528,0,0,0,.526-.527V16.671a.261.261,0,0,1,.264-.262h2.713v0a.529.529,0,0,0,.528-.528Z" transform="translate(-41.271)" fill="#0068b6"/>
      <path id="パス_572" data-name="パス 572" d="M113.541,15.294a.527.527,0,0,0,.152-.373V12.249a.171.171,0,0,0-.171-.174.181.181,0,0,0-.126.049l-5.383,5.4a.542.542,0,0,0-.154.375v2.672a.174.174,0,0,0,.3.123Z" transform="translate(-41.271 -4.591)" fill="#0068b6"/>
      <path id="パス_573" data-name="パス 573" d="M128.811,15.294a.523.523,0,0,1-.158-.373l0-2.672a.172.172,0,0,1,.174-.174.158.158,0,0,1,.119.049l5.388,5.4a.542.542,0,0,1,.154.375v2.672a.173.173,0,0,1-.175.175.161.161,0,0,1-.122-.051Z" transform="translate(-49.228 -4.591)" fill="#0068b6"/>
      <path id="パス_574" data-name="パス 574" d="M61.4,107.568s-3.151,0-3.2,0a3.149,3.149,0,0,1,.145-6.294H61.4a.821.821,0,0,1,0,1.642H58.342a1.507,1.507,0,0,0-.067,3.012c.027,0,3.122,0,3.122,0a.821.821,0,0,1,0,1.642" transform="translate(-21.124 -38.503)" fill="#0068b6"/>
      <path id="パス_575" data-name="パス 575" d="M109.26,91.3l-7.03,7.459h0a1.635,1.635,0,0,0,.246,2.475,1.63,1.63,0,0,0,2.277-.4,1.684,1.684,0,0,0,.173-.319h0Z" transform="translate(-38.945 -34.712)" fill="#0068b6"/>
      <path id="パス_576" data-name="パス 576" d="M133.188,98.947a1.657,1.657,0,0,0-.156-.189h0L126,91.3l4.332,9.213h0a1.666,1.666,0,0,0,.172.319,1.637,1.637,0,1,0,2.679-1.883" transform="translate(-48.214 -34.712)" fill="#0068b6"/>
      <path id="パス_577" data-name="パス 577" d="M8.456,85.555A2.336,2.336,0,1,1,6.121,83.21a2.34,2.34,0,0,1,2.335,2.345" transform="translate(-1.448 -31.636)" fill="#0068b6"/>
      <path id="パス_578" data-name="パス 578" d="M4.672,98.835A2.336,2.336,0,1,1,2.337,96.49a2.34,2.34,0,0,1,2.335,2.345" transform="translate(0 -36.686)" fill="#0068b6"/>
      <path id="パス_579" data-name="パス 579" d="M21.127,73.718A2.335,2.335,0,0,0,18.278,75.4a2.365,2.365,0,0,0-.073.493h0v9.185l4.427-8.028h0a2.351,2.351,0,0,0-1.5-3.327" transform="translate(-6.964 -27.999)" fill="#0068b6"/>
      <path id="パス_580" data-name="パス 580" d="M7.8,116.94h0l0-11.278-5.433,9.871a2.923,2.923,0,1,0,5.345,2.218,2.972,2.972,0,0,0,.091-.811" transform="translate(-0.751 -40.173)" fill="#0068b6"/>
      <path id="パス_581" data-name="パス 581" d="M40.3,86.275A1.17,1.17,0,0,0,39.136,85.1H26.52a1.173,1.173,0,0,0,0,2.345H39.136A1.17,1.17,0,0,0,40.3,86.275" transform="translate(-9.701 -32.356)" fill="#0068b6"/>
      <path id="パス_582" data-name="パス 582" d="M61.326,91.951a1.168,1.168,0,1,0-2.336,0,1.2,1.2,0,0,0,.035.28h0L60.158,96.7l1.135-4.472h0a1.164,1.164,0,0,0,.035-.28" transform="translate(-22.572 -34.514)" fill="#0068b6"/>
      <path id="パス_583" data-name="パス 583" d="M85.63,94.882a2.336,2.336,0,1,1-2.335-2.345,2.34,2.34,0,0,1,2.335,2.345" transform="translate(-30.978 -35.183)" fill="#e50012"/>
      <path id="パス_584" data-name="パス 584" d="M35.368,107.9a1.207,1.207,0,0,0-.151.011H33.995a.263.263,0,0,1-.262-.263V103.04a.263.263,0,0,1,.262-.263h1.374a1.173,1.173,0,0,0,0-2.345H33.995a.263.263,0,0,1-.262-.263V94.078a1.405,1.405,0,0,0-1.4-1.408H25.787a1.173,1.173,0,0,0,0,2.345h4.879a.264.264,0,0,1,.263.265v4.888a.264.264,0,0,1-.263.263H27.685a.263.263,0,0,1-.263-.263V98.792h0a1.4,1.4,0,1,0-2.8,0v1.378a.264.264,0,0,1-.264.263H21.38a.263.263,0,0,1-.262-.263h0V94.481a1.4,1.4,0,1,0-2.8,0v5.687a.264.264,0,0,1-.263.263H16.673a1.173,1.173,0,0,0,0,2.345h1.378a.264.264,0,0,1,.263.263v5.812a1.4,1.4,0,0,0,1.4,1.407h10.95a.264.264,0,0,1,.263.264v3.02a1.4,1.4,0,1,0,2.8,0v-3.02a.263.263,0,0,1,.262-.264h1.373v-.011a1.173,1.173,0,0,0,0-2.345m-7.945-3.485V103.04a.263.263,0,0,1,.263-.263h2.981a.264.264,0,0,1,.263.263v4.611a.263.263,0,0,1-.263.263H21.38a.263.263,0,0,1-.262-.263h0v-4.609h0a.263.263,0,0,1,.262-.263h2.976a.264.264,0,0,1,.264.263v1.378h0a1.4,1.4,0,1,0,2.8,0" transform="translate(-5.933 -35.233)" fill="#0068b6"/>
      <path id="パス_585" data-name="パス 585" d="M91,82.738v-.012a1.4,1.4,0,0,0-1.4-1.408H82.125a1.17,1.17,0,0,0-1.167,1.173,1.1,1.1,0,0,0,1.088,1.173c.027,0,.052,0,.079,0v0h5.822a.264.264,0,0,1,.263.264V98.674a1.4,1.4,0,1,0,2.8,0V82.738Z" transform="translate(-30.978 -30.917)" fill="#0068b6"/>
      <path id="パス_586" data-name="パス 586" d="M81.132,97.735H75.321a.264.264,0,0,1-.263-.264V82.726a1.4,1.4,0,1,0-2.8,0V98.674a1.4,1.4,0,0,0,1.4,1.407h7.476a1.173,1.173,0,0,0,0-2.345" transform="translate(-27.648 -30.917)" fill="#0068b6"/>
      <path id="パス_587" data-name="パス 587" d="M122.513,82.943H115.5a.263.263,0,0,1-.23-.261V80.959a1.4,1.4,0,1,0-2.8,0v1.724a.263.263,0,0,1-.229.261h-7.013a1.173,1.173,0,0,0,0,2.345H112.2a.263.263,0,0,1,.263.263v8.9a.263.263,0,0,1-.247.262h-2.79a1.173,1.173,0,0,0,0,2.345h2.79a.262.262,0,0,1,.246.262v1.848h0a1.4,1.4,0,1,0,2.8,0h0V97.326a.263.263,0,0,1,.246-.262h2.791a1.173,1.173,0,0,0,0-2.345h-2.79a.263.263,0,0,1-.247-.262v-8.9a.263.263,0,0,1,.264-.263h6.979a1.173,1.173,0,0,0,0-2.345" transform="translate(-39.817 -30.245)" fill="#0068b6"/>
      <path id="パス_588" data-name="パス 588" d="M98.076,117.948h0a.7.7,0,1,0-1.4,0v4.23a.7.7,0,0,1-1.308.359h0a.7.7,0,0,0-1.313.346.683.683,0,0,0,.091.348v.006a2.106,2.106,0,0,0,3.933-1.059Z" transform="translate(-35.987 -44.575)" fill="#0068b6"/>
      <path id="パス_589" data-name="パス 589" d="M82.805,116.787A3.808,3.808,0,1,0,86.6,120.6a3.8,3.8,0,0,0-3.792-3.808m0,6.205a2.4,2.4,0,1,1,2.386-2.4,2.394,2.394,0,0,1-2.386,2.4" transform="translate(-30.233 -44.402)" fill="#0068b6"/>
      <path id="パス_590" data-name="パス 590" d="M123.233,122a.7.7,0,0,0-.544.257,2.368,2.368,0,0,1-1.714.731,2.4,2.4,0,1,1,1.711-4.071v0a.7.7,0,1,0,1.051-.932v0a3.808,3.808,0,1,0,.04,5.173l0,0a.706.706,0,0,0-.543-1.153" transform="translate(-44.838 -44.402)" fill="#0068b6"/>
      <path id="パス_591" data-name="パス 591" d="M58.014,117.242H55.906a.7.7,0,0,0-.7.705v5.639a.7.7,0,1,0,1.4,0v-4.652a.288.288,0,0,1,.285-.282h1.121a.7.7,0,0,1,0,1.409.705.705,0,0,0,0,1.411,2.115,2.115,0,0,0,0-4.23" transform="translate(-21.124 -44.575)" fill="#0068b6"/>
      <path id="パス_592" data-name="パス 592" d="M134.793,117.242h-2.81a.705.705,0,0,0,0,1.41h.415a.289.289,0,0,1,.286.289v4.647a.7.7,0,1,0,1.4,0h0v-4.637l0-.007a.289.289,0,0,1,.288-.289h.414a.705.705,0,0,0,0-1.41" transform="translate(-50.233 -44.575)" fill="#0068b6"/>
      <path id="パス_593" data-name="パス 593" d="M107.709,121.472h1.751a.549.549,0,0,0,.077,0,.7.7,0,0,0,0-1.409v0h-1.823a.289.289,0,0,1-.282-.289v-.833a.288.288,0,0,1,.288-.288h1.818a.705.705,0,0,0,0-1.411h-2.807a.7.7,0,0,0-.7.705v5.64h0a.7.7,0,0,0,.7.705h2.807a.7.7,0,0,0,0-1.409h-1.819a.289.289,0,0,1-.287-.282v-.847a.288.288,0,0,1,.279-.281" transform="translate(-40.569 -44.575)" fill="#0068b6"/>
      <path id="パス_594" data-name="パス 594" d="M71.625,123.325l0-.007,0-.008-.732-1.773,0,0a.29.29,0,0,1,.093-.348,2.114,2.114,0,0,0-1.058-3.941H67.811a.7.7,0,0,0-.7.705v5.639a.7.7,0,1,0,1.4,0v-4.652a.287.287,0,0,1,.285-.282h1.121a.7.7,0,0,1,0,1.409h-.114a.7.7,0,0,0-.7.705.689.689,0,0,0,.058.281h0l1.152,2.791a.277.277,0,0,0,.016.038l0,.01h0a.7.7,0,0,0,1.337-.3.728.728,0,0,0-.051-.262Z" transform="translate(-25.678 -44.576)" fill="#0068b6"/>
      <path id="パス_595" data-name="パス 595" d="M157.167,120.635a19,19,0,0,0,.561-2.63.21.21,0,0,0-.206-.242h-.206l.035.024a17.387,17.387,0,0,1-1.974,3.947.21.21,0,0,1-.341,0l-.877-1.2a.2.2,0,0,1,0-.249,16.6,16.6,0,0,0,1.808-3.362.208.208,0,0,1,.331-.076l.6.532a.208.208,0,0,0,.347-.157v-.754a.21.21,0,0,1,.209-.209h.309a.212.212,0,0,0,.209-.19c.057-.572.089-.985.109-1.37-.081.082-.093.106-.258.271l-1.062-1.118a.209.209,0,0,1,.015-.3,6.755,6.755,0,0,0,1.769-2.663.207.207,0,0,1,.213-.134l1.314.126a.21.21,0,0,1,.18.275c-.016.045-.032.092-.051.142-.049.136-.092.281.052.281h4.931a.209.209,0,0,1,.209.21v1.153a.209.209,0,0,1-.209.209h-5.765a.209.209,0,0,0-.175.1c-.049.075-.1.154-.177.26a.188.188,0,0,0,.153.3h5.439a.271.271,0,0,1,.272.274c0,.514-.017,1.49-.02,1.975,0,.117.032.209.149.209h.124a.209.209,0,0,1,.209.209v1.082a.209.209,0,0,1-.209.21h-.167c-.112,0-.145.088-.151.2-.007.18-.016.365-.032.579-.009.121.009.226.13.226h.078a.209.209,0,0,1,.208.209v1.093a.209.209,0,0,1-.208.21h-.232c-.1,0-.134.076-.147.18-.083.609-.289,1.51-1.344,1.51h-1.656a.209.209,0,0,1-.2-.164l-.178-.81a.21.21,0,0,1,.2-.255h1.058c.412,0,.459-.26.5-.461h-3.818a.21.21,0,0,0-.2.168,6.166,6.166,0,0,1-.145.6.209.209,0,0,1-.248.144l-1.3-.3a.21.21,0,0,1-.154-.263m-1.989-6.761a8.155,8.155,0,0,1,1.729,1.07.213.213,0,0,1,.04.283l-.741,1.073a.208.208,0,0,1-.3.043,8,8,0,0,0-1.593-1.085.211.211,0,0,1-.076-.3l.687-1.007a.208.208,0,0,1,.257-.074m.34-3.01a8.727,8.727,0,0,1,1.784,1.007.209.209,0,0,1,.04.285l-.758,1.074a.207.207,0,0,1-.3.039,10.648,10.648,0,0,0-1.631-1.026.209.209,0,0,1-.075-.3l.687-1a.208.208,0,0,1,.253-.074m4.867,7.759c.046-.319.07-.514.088-.672a.168.168,0,0,0-.167-.187h-.737a.169.169,0,0,0-.167.146c-.019.142-.049.379-.086.668a.171.171,0,0,0,.168.191h.735a.169.169,0,0,0,.167-.145m-.747-3.157c-.014.279-.023.452-.036.615a.169.169,0,0,0,.168.182h.707a.169.169,0,0,0,.167-.159c.02-.3.031-.475.035-.625a.168.168,0,0,0-.168-.174h-.705a.169.169,0,0,0-.168.161m2.44,2.448c-.022.223-.046.457-.069.667a.17.17,0,0,0,.168.187h.832a.167.167,0,0,0,.167-.157c.024-.351.032-.542.039-.672a.168.168,0,0,0-.168-.175h-.8a.168.168,0,0,0-.168.151m.173-2.449c-.009.183-.02.439-.029.62a.169.169,0,0,0,.169.177h.717a.169.169,0,0,0,.168-.165c.006-.252.007-.435.007-.623a.168.168,0,0,0-.168-.169h-.7a.168.168,0,0,0-.168.16" transform="translate(-58.971 -42.11)" fill="#0068b6"/>
      <path id="パス_596" data-name="パス 596" d="M178.628,121.757a.393.393,0,0,1,.317-.526,2.825,2.825,0,0,0,2.792-2.989,2.2,2.2,0,0,0-1.731-2.4.274.274,0,0,0-.329.247c-.093,1.259-.615,6.059-3.264,6.059-1.724,0-2.277-1.926-2.277-3.224a4.733,4.733,0,0,1,5.017-4.861c2.965,0,4.493,1.864,4.493,4.295a4.666,4.666,0,0,1-1.477,3.533,5.549,5.549,0,0,1-2.763,1.091.39.39,0,0,1-.423-.255Zm-2.759-2.793c0,.257.062,1.2.616,1.2.662,0,1.223-1.662,1.463-3.918a.225.225,0,0,0-.312-.232,3.145,3.145,0,0,0-1.766,2.945" transform="translate(-66.631 -43.366)" fill="#0068b6"/>
      <path id="パス_597" data-name="パス 597" d="M196.073,111.729v-.593a.383.383,0,0,1,.382-.383h1.038a.383.383,0,0,1,.382.383v.593a.253.253,0,0,0,.252.253h3.334a.383.383,0,0,1,.382.383v.9a.382.382,0,0,1-.382.382h-3.334a.253.253,0,0,0-.252.253v.865a.253.253,0,0,0,.252.253h4.017a.383.383,0,0,1,.382.383v.9a.382.382,0,0,1-.382.382h-2.809a.255.255,0,0,0-.185.426,9.408,9.408,0,0,0,3.18,2.292.382.382,0,0,1,.173.544l-.632,1.077a.378.378,0,0,1-.522.136,12.562,12.562,0,0,1-3.025-2.543.252.252,0,0,0-.449.157V121.6a.383.383,0,0,1-.382.383h-1.038a.383.383,0,0,1-.382-.383V118.77a.251.251,0,0,0-.448-.158,10.76,10.76,0,0,1-3.02,2.554.38.38,0,0,1-.522-.147l-.6-1.083a.381.381,0,0,1,.167-.531,9.978,9.978,0,0,0,3.216-2.3.253.253,0,0,0-.187-.423h-2.853a.382.382,0,0,1-.382-.382v-.9a.383.383,0,0,1,.382-.383h3.994a.253.253,0,0,0,.252-.253V113.9a.253.253,0,0,0-.252-.253h-3.276a.381.381,0,0,1-.381-.382v-.9a.382.382,0,0,1,.381-.383h3.276a.253.253,0,0,0,.252-.253" transform="translate(-73.25 -42.108)" fill="#0068b6"/>
      <path id="パス_598" data-name="パス 598" d="M214.136,113.439h-1.843a.265.265,0,0,1-.265-.266V112.05a.265.265,0,0,1,.265-.266h3.781a.157.157,0,0,0,.157-.157v-.57a.265.265,0,0,1,.265-.266h1.225a.265.265,0,0,1,.265.266v.57a.157.157,0,0,0,.157.157h3.852a.265.265,0,0,1,.265.266v1.122a.265.265,0,0,1-.265.266h-1.866l.953.2a.265.265,0,0,1,.2.332,13.831,13.831,0,0,1-.564,1.6.163.163,0,0,0,.15.227h1.561a.265.265,0,0,1,.265.266v1.147a.265.265,0,0,1-.265.266H219.5a.161.161,0,0,0-.112.276,10.393,10.393,0,0,0,3.21,2.122.267.267,0,0,1,.125.377l-.716,1.241a.266.266,0,0,1-.348.106,10.62,10.62,0,0,1-3.373-2.65.171.171,0,0,0-.3.114v2.651a.265.265,0,0,1-.265.266H216.5a.265.265,0,0,1-.265-.266v-2.6a.172.172,0,0,0-.3-.119,11.68,11.68,0,0,1-3.319,2.6.263.263,0,0,1-.348-.1l-.734-1.269a.267.267,0,0,1,.129-.38,9.851,9.851,0,0,0,3.2-2.092.161.161,0,0,0-.114-.275h-2.908a.265.265,0,0,1-.265-.266v-1.147a.265.265,0,0,1,.265-.266h1.561a.164.164,0,0,0,.157-.206,11.345,11.345,0,0,0-.5-1.582.264.264,0,0,1,.182-.358Zm-.047,2.365h1.93a.213.213,0,0,0,.212-.213v-1.938a.213.213,0,0,0-.212-.213H215a.192.192,0,0,0-.178.265,10.586,10.586,0,0,1,.507,1.548.266.266,0,0,1-.2.324Zm4.935-.648c.192-.483.386-1.106.493-1.47a.192.192,0,0,0-.184-.247H218.2a.213.213,0,0,0-.212.213v1.938a.213.213,0,0,0,.212.213h2.19l-1.182-.292a.265.265,0,0,1-.182-.356" transform="translate(-80.927 -42.123)" fill="#0068b6"/>
      <path id="パス_599" data-name="パス 599" d="M236.273,113.444c-.034.149-.065.268-.107.41a.117.117,0,0,0,.111.151h3.473a.239.239,0,0,1,.239.24v1.173a.239.239,0,0,1-.239.239h-4.117a.125.125,0,0,0-.116.082,4.4,4.4,0,0,1-.309.671,2.909,2.909,0,0,1,1.272-.319,1.728,1.728,0,0,1,1.632.873,16.369,16.369,0,0,1,2.2-.684.239.239,0,0,1,.3.191l.243,1.277a.237.237,0,0,1-.186.276c-.453.09-1.132.3-2.063.6a.156.156,0,0,0-.107.158c.033.451.033.842.033,1.008,0,.116,0,.214,0,.3a.24.24,0,0,1-.241.237H236.97a.24.24,0,0,1-.241-.25c0-.112.007-.255.011-.5a.15.15,0,0,0-.218-.138c-.375.2-.764.477-.764.911,0,.6.741.628,1.822.628.73,0,1.656-.034,2.419-.11a.24.24,0,0,1,.264.237l.007,1.3a.239.239,0,0,1-.233.241c-.857.019-1.995.037-2.15.037a8.307,8.307,0,0,1-2.915-.372,1.86,1.86,0,0,1-1.208-1.735c0-1.479,1.6-2.33,2.65-2.862a.854.854,0,0,0-.541-.181,2.842,2.842,0,0,0-1.77.947,12.47,12.47,0,0,1-1.212,1.621.24.24,0,0,1-.346,0l-.948-.967a.24.24,0,0,1,0-.335,9.482,9.482,0,0,0,2-2.976.126.126,0,0,0-.114-.175H232.15a.239.239,0,0,1-.238-.239v-1.173a.239.239,0,0,1,.238-.24H234.1a.118.118,0,0,0,.114-.094c.048-.226.082-.415.117-.638a.239.239,0,0,1,.249-.2l1.477.08a.241.241,0,0,1,.22.294" transform="translate(-88.592 -42.989)" fill="#0068b6"/>
      <path id="パス_600" data-name="パス 600" d="M292.638,114.345v.971a.29.29,0,0,1-.114.234c-.539.407-1.58.982-2.139,1.4a.059.059,0,0,0,.04.108,3.438,3.438,0,0,1,.7-.053,2.7,2.7,0,0,1,2.891,2.919c0,2.117-1.577,3.426-4.131,3.426-2.237,0-2.894-1.181-2.894-2a2,2,0,0,1,2.173-1.8,1.737,1.737,0,0,1,1.916,1.66,1.821,1.821,0,0,1-.053.4,1.548,1.548,0,0,0,1.156-1.479c0-.181-.029-1.585-1.937-1.585a4.14,4.14,0,0,0-2.459.84,17.228,17.228,0,0,0-1.8,1.466.176.176,0,0,1-.278-.043l-.656-1.214a.288.288,0,0,1,.068-.36c.741-.618,3.263-2.522,4.084-3.212.082-.069.031-.26-.077-.258l-3.014.071a.278.278,0,0,1-.284-.279v-1.178a.278.278,0,0,1,.275-.279l6.232-.053a.3.3,0,0,1,.3.3m-2.891,7.246a.653.653,0,0,0-.678-.7c-.371,0-.636.181-.636.478,0,.448.541.5.859.5a1.608,1.608,0,0,0,.424-.053.771.771,0,0,0,.031-.224" transform="translate(-109.06 -43.361)" fill="#0068b6"/>
      <path id="パス_601" data-name="パス 601" d="M304.648,120.415a4.181,4.181,0,0,0,1.738-1.8.1.1,0,0,0-.133-.128c-.407.23-.732.389-1,.514a.245.245,0,0,1-.341-.161l-.291-1.116c-.029-.113-.2-.069-.277-.04a.139.139,0,0,0-.088.128v3.144A.942.942,0,0,1,303.3,122h-1.209a.263.263,0,0,1-.26-.227l-.173-1.233a.263.263,0,0,1,.26-.3h.357c.177,0,.33-.024.33-.331v-1.43a.156.156,0,0,0-.2-.148c-.195.061-.344.107-.5.154a.247.247,0,0,1-.317-.212l-.135-1.342a.246.246,0,0,1,.2-.268c.172-.034.357-.076.822-.195a.181.181,0,0,0,.136-.175v-1.771a.169.169,0,0,0-.169-.169H301.8a.247.247,0,0,1-.246-.247v-1.148a.247.247,0,0,1,.246-.248h.633a.169.169,0,0,0,.169-.169v-1.5a.247.247,0,0,1,.247-.248h1.154a.247.247,0,0,1,.247.248v1.5a.168.168,0,0,0,.168.169h.538l.767-.723a.247.247,0,0,1,.37.038,6.208,6.208,0,0,1,.583.987.061.061,0,0,0,.116-.029v-1.957a.2.2,0,0,1,.2-.2h1.2a.2.2,0,0,1,.2.2v5.088c0,3.724-1.553,5.068-2.6,5.806a.263.263,0,0,1-.356-.049l-.863-1.055a.264.264,0,0,1,.07-.4m1.434-5.137a.2.2,0,0,1-.323-.1,8.929,8.929,0,0,0-.693-1.79v.691a.266.266,0,0,1-.265.267h-.379a.169.169,0,0,0-.168.169v1.263a.138.138,0,0,0,.179.131c.165-.053.262-.086.359-.12a.21.21,0,0,1,.28.2l.019,1.067c.918-.388,1.257-.537,1.531-.669a.312.312,0,0,0,.176-.281v-1.153a.13.13,0,0,0-.215-.1Zm5.391,3.221A8.919,8.919,0,0,0,310.7,117a.081.081,0,0,0-.15.044v2.7c0,.154.012.284.153.284h.412c.179,0,.32,0,.348-.862a.257.257,0,0,1,.333-.24l.911.287a.261.261,0,0,1,.18.255c-.057,1.832-.446,2.439-1.22,2.439h-1.684c-.588,0-1.059-.26-1.059-.969v-9.922a.2.2,0,0,1,.2-.2h1.229a.2.2,0,0,1,.2.2l.022,2.4c0,.111.125.15.176.051a11.269,11.269,0,0,0,.633-1.4.193.193,0,0,1,.288-.1l1.053.7a.2.2,0,0,1,.072.237,10.425,10.425,0,0,1-1.363,2.345l-.669-.555a.131.131,0,0,0-.214.1v1.015a.112.112,0,0,0,.177.092l.54-.388a.2.2,0,0,1,.273.043,12.011,12.011,0,0,1,1.279,2.1.2.2,0,0,1-.061.239l-.91.707a.243.243,0,0,1-.376-.1" transform="translate(-115.346 -42.122)" fill="#0068b6"/>
      <path id="パス_602" data-name="パス 602" d="M332.934,116.27a11.5,11.5,0,0,1-1.572,2.74c.153.425.248.685.424.685.2,0,.439-.372.643-.747a.174.174,0,0,1,.318.033l.383,1.21a.5.5,0,0,1-.012.351c-.331.775-.962,1.411-1.533,1.411-.859,0-1.33-1.028-1.542-1.489a9.042,9.042,0,0,1-1.581,1.24.317.317,0,0,1-.437-.1l-.832-1.316h-1.008a.17.17,0,0,0-.17.17V121.7a.257.257,0,0,1-.256.258h-1.182a.257.257,0,0,1-.257-.258v-1.238a.17.17,0,0,0-.17-.17h-2.017a.275.275,0,0,1-.274-.275v-1.07a.275.275,0,0,1,.274-.275h1.992a.2.2,0,0,0,.2-.2v-.211a.2.2,0,0,0-.2-.2h-1.618a.283.283,0,0,1-.283-.283v-4.64a.155.155,0,0,1,.165-.159h.188a9.616,9.616,0,0,0-.656-1.585.18.18,0,0,1,.109-.26l1.187-.327a.176.176,0,0,1,.2.086,13.909,13.909,0,0,1,.656,1.448.178.178,0,0,1-.114.234l-1.28.4h3.285a9.747,9.747,0,0,0,.9-2.129.173.173,0,0,1,.209-.122l1.409.358a.174.174,0,0,1,.115.24c-.25.56-.846,1.579-.887,1.652h.248a.142.142,0,0,1,.152.149v4.65a.283.283,0,0,1-.282.283h-1.618a.2.2,0,0,0-.2.2v.211a.2.2,0,0,0,.2.2h1.9a.274.274,0,0,1,.273.275v.612a11.212,11.212,0,0,0,1.107-.91,23.946,23.946,0,0,1-.412-3.25l-.535.032a.228.228,0,0,1-.241-.228v-1.237a.228.228,0,0,1,.209-.227l.52-.042c-.012-.379-.047-2.092-.047-2.435v-.289a.231.231,0,0,1,.23-.231h1.208a.23.23,0,0,1,.23.234c0,.128,0,.28-.007.392a.08.08,0,0,0,.12.07l.954-.563a.266.266,0,0,1,.352.074,12.629,12.629,0,0,1,.921,1.563.268.268,0,0,1-.109.348l-1.1.635.949-.064a.262.262,0,0,1,.279.258l.017,1.166a.262.262,0,0,1-.243.266l-2.038.148c.047.8.094,1.241.141,1.62a5.587,5.587,0,0,0,.6-1.347.238.238,0,0,1,.349-.138l.988.578a.238.238,0,0,1,.1.3m-9.26-1.338h.8v-.7h-.8Zm0,1.844h.8v-.71h-.8Zm2.15-5.971a9.937,9.937,0,0,1,.291,1.545.179.179,0,0,1-.151.2l-1.187.182a.179.179,0,0,1-.2-.159,8.477,8.477,0,0,0-.317-1.551.18.18,0,0,1,.154-.231l1.226-.11a.18.18,0,0,1,.188.127m.1,4.127h.765v-.7h-.765Zm0,1.844h.765v-.71h-.765Zm5.774-3.348a8.56,8.56,0,0,0-.938-1.727.062.062,0,0,0-.114.034c0,.641.024,1.453.035,1.838l.969-.066a.058.058,0,0,0,.049-.079" transform="translate(-123.156 -42.079)" fill="#0068b6"/>
      <path id="パス_603" data-name="パス 603" d="M276.249,116.1v1.111a.2.2,0,0,1-.1.174,25.426,25.426,0,0,0-2.176,1.532,1.769,1.769,0,0,1,.684-.158c.945,0,.978.747.978,1.252v.347c0,.557,0,.768.891.768.109,0,.851,0,1.582-.064a.2.2,0,0,1,.217.194l.042,1.383a.2.2,0,0,1-.191.208c-.343.011-.794.025-1.335.025-1.173,0-2.173-.032-2.586-.568a1.7,1.7,0,0,1-.358-1.041v-.505c0-.273-.011-.62-.511-.62-.7,0-1.227.4-3.3,2.662a.2.2,0,0,1-.3,0l-.961-1.119a.2.2,0,0,1,.02-.286c.775-.674,3.108-2.665,3.592-3.075.222-.187.4-.337.563-.462a.156.156,0,0,0-.1-.279l-3.407.114a.2.2,0,0,1-.2-.2v-1.348a.2.2,0,0,1,.2-.2l6.559-.04a.2.2,0,0,1,.2.2m-.7-.7-4.147-.685a.2.2,0,0,1-.163-.244l.259-1.2a.2.2,0,0,1,.227-.154l4.133.718a.2.2,0,0,1,.16.244l-.245,1.166a.2.2,0,0,1-.224.154" transform="translate(-102.846 -43.007)" fill="#0068b6"/>
      <path id="パス_604" data-name="パス 604" d="M250.015,117.941a9.581,9.581,0,0,0,1.506-2.255.256.256,0,0,0-.134-.351l-1.006-.4a.256.256,0,0,0-.321.119,7.256,7.256,0,0,1-1.227,1.763.256.256,0,0,0,.008.359l.806.784a.255.255,0,0,0,.369-.014" transform="translate(-95.186 -43.689)" fill="#0068b6"/>
      <path id="パス_605" data-name="パス 605" d="M257.2,113.88a.3.3,0,0,0-.1.412,10.335,10.335,0,0,0,1.593,2.167.354.354,0,0,0,.5-.008l.72-.738a.3.3,0,0,0,0-.415,10.217,10.217,0,0,1-1.492-1.907.089.089,0,0,1,.079-.131h1.111a.367.367,0,0,0,.367-.368v-.876a.367.367,0,0,0-.367-.368h-4.222a.088.088,0,0,1-.088-.088v-.291a.367.367,0,0,0-.367-.368h-1.121a.367.367,0,0,0-.367.368v.291a.088.088,0,0,1-.088.088h-4.233a.367.367,0,0,0-.367.368v.876a.367.367,0,0,0,.367.368h3.005a.236.236,0,0,1,.228.286,3.226,3.226,0,0,1-1.379,2.06.342.342,0,0,0-.052.507l.691.749a.091.091,0,0,1-.015.134,8.873,8.873,0,0,1-2.353,1.2.374.374,0,0,0-.2.529l.464.845a.369.369,0,0,0,.452.17,12.9,12.9,0,0,0,1.262-.544.242.242,0,0,1,.283.05,6.463,6.463,0,0,0,.532.508.2.2,0,0,1-.087.343,19.308,19.308,0,0,1-2.641.427.37.37,0,0,0-.317.485l.27.831a.368.368,0,0,0,.389.255,18.661,18.661,0,0,0,4.537-1.038h.062a20.612,20.612,0,0,0,4.78,1.048.368.368,0,0,0,.384-.232l.4-.974a.371.371,0,0,0-.326-.509,18.406,18.406,0,0,1-2.881-.364.092.092,0,0,1-.03-.167,7.714,7.714,0,0,0,1.563-1.362.372.372,0,0,0,.1-.25v-.957a.369.369,0,0,0-.368-.369h-3.612c.054-.065.136-.175.207-.272a.139.139,0,0,0-.091-.227l-1.327-.368a.087.087,0,0,1-.043-.142,4.877,4.877,0,0,0,1.025-2.459.231.231,0,0,1,.23-.2h.593a.233.233,0,0,1,.233.234v.9c0,.356,0,.392-.319.392H254.5a.339.339,0,0,0-.334.395l.2,1.06a.272.272,0,0,0,.268.228h1.107a.887.887,0,0,0,.992-.878v-2.1a.233.233,0,0,1,.233-.234h.975a.088.088,0,0,1,.044.165Zm-3.946,4.454h2.262a.162.162,0,0,1,.089.3,8.214,8.214,0,0,1-1.095.622.337.337,0,0,1-.287,0,8.05,8.05,0,0,1-1.061-.62.163.163,0,0,1,.091-.3" transform="translate(-95.185 -42.165)" fill="#0068b6"/>
      <path id="パス_625" data-name="パス 625" d="M0,0,1,0,1,1,0,1Z" transform="translate(124.048 27.855) rotate(-45.025)" fill="#009fc9"/>
      <path id="パス_626" data-name="パス 626" d="M0,0,2,0,2,2,0,2Z" transform="translate(126.872 31.398) rotate(-45)" fill="#009fc9"/>
      <path id="パス_627" data-name="パス 627" d="M0,0,3-.006l-.006,3L-.006,3Z" transform="translate(129.695 34.942) rotate(-45)" fill="#009fc9"/>
      <path id="パス_628" data-name="パス 628" d="M0,0,2,0,2,2,0,2Z" transform="translate(126.872 38.485) rotate(-45)" fill="#009fc9"/>
      <path id="パス_629" data-name="パス 629" d="M0,0,4-.008l-.008,4L-.008,4Z" transform="translate(132.519 38.485) rotate(-45)" fill="#009fc9"/>
      <path id="パス_630" data-name="パス 630" d="M0,0,3-.006l-.006,3L-.006,3Z" transform="translate(129.696 42.029) rotate(-45)" fill="#009fc9"/>
      <path id="パス_631" data-name="パス 631" d="M0,0,4-.008l-.008,4L-.008,4Z" transform="translate(132.519 45.572) rotate(-45)" fill="#009fc9"/>
      <path id="パス_632" data-name="パス 632" d="M0,0,3-.006l-.006,3L-.006,3Z" transform="translate(129.696 49.116) rotate(-45)" fill="#009fc9"/>
      <path id="パス_633" data-name="パス 633" d="M0,0,2,0,2,2,0,2Z" transform="matrix(0.707, -0.707, 0.707, 0.707, 126.872, 52.659)" fill="#009fc9"/>
      <path id="パス_634" data-name="パス 634" d="M0,0,4-.008l-.008,4L-.008,4Z" transform="translate(132.519 52.659) rotate(-45)" fill="#009fc9"/>
      <path id="パス_635" data-name="パス 635" d="M0,0,3-.006l-.006,3L-.006,3Z" transform="translate(129.696 56.203) rotate(-45)" fill="#009fc9"/>
      <path id="パス_636" data-name="パス 636" d="M0,0,2,0,2,2,0,2Z" transform="translate(126.872 59.746) rotate(-45)" fill="#009fc9"/>
      <path id="パス_637" data-name="パス 637" d="M0,0,1,0,1,1,0,1Z" transform="translate(124.048 63.29) rotate(-45)" fill="#009fc9"/>
      <path id="パス_638" data-name="パス 638" d="M0,0,1,0,1,1,0,1Z" transform="matrix(0.707, -0.707, 0.707, 0.707, 109.93, 27.855)" fill="#009fc9"/>
      <path id="パス_639" data-name="パス 639" d="M0,0,2,0,2,2,0,2Z" transform="translate(112.753 31.398) rotate(-45)" fill="#009fc9"/>
      <path id="パス_640" data-name="パス 640" d="M0,0,3-.006l-.006,3L-.006,3Z" transform="translate(115.577 34.942) rotate(-45)" fill="#009fc9"/>
      <path id="パス_641" data-name="パス 641" d="M0,0,2,0,2,2,0,2Z" transform="translate(112.753 38.485) rotate(-45)" fill="#009fc9"/>
      <path id="パス_642" data-name="パス 642" d="M0,0,4-.008l-.008,4L-.008,4Z" transform="translate(118.401 38.485) rotate(-45)" fill="#009fc9"/>
      <path id="パス_643" data-name="パス 643" d="M0,0,3-.006l-.006,3L-.006,3Z" transform="translate(115.577 42.029) rotate(-45)" fill="#009fc9"/>
      <path id="パス_644" data-name="パス 644" d="M0,0,4-.008l-.008,4L-.008,4Z" transform="translate(118.401 45.572) rotate(-45)" fill="#009fc9"/>
      <path id="パス_645" data-name="パス 645" d="M0,0,3-.006l-.006,3L-.006,3Z" transform="translate(115.577 49.116) rotate(-45)" fill="#009fc9"/>
      <path id="パス_646" data-name="パス 646" d="M0,0,2,0,2,2,0,2Z" transform="matrix(0.707, -0.707, 0.707, 0.707, 112.754, 52.659)" fill="#009fc9"/>
      <path id="パス_606" data-name="パス 606" d="M203.418,65.637l-3.529-3.543-3.529,3.543,3.529,3.543-3.529,3.543,3.529,3.543,3.529-3.543,3.529-3.543Z" transform="translate(-75.135 -23.608)" fill="#009fc9"/>
      <path id="パス_647" data-name="パス 647" d="M0,0,4-.008l-.008,4L-.008,4Z" transform="translate(118.401 52.659) rotate(-45)" fill="#009fc9"/>
      <path id="パス_648" data-name="パス 648" d="M0,0,3-.006l-.006,3L-.006,3Z" transform="translate(115.577 56.203) rotate(-45)" fill="#009fc9"/>
      <path id="パス_649" data-name="パス 649" d="M0,0,2,0,2,2,0,2Z" transform="translate(112.754 59.746) rotate(-45)" fill="#009fc9"/>
      <path id="パス_650" data-name="パス 650" d="M0,0,1,0,1,1,0,1Z" transform="translate(109.93 63.29) rotate(-45)" fill="#009fc9"/>
      <path id="パス_651" data-name="パス 651" d="M0,0,1,0,1,1,0,1Z" transform="translate(95.812 27.855) rotate(-45.025)" fill="#009fc9"/>
      <path id="パス_652" data-name="パス 652" d="M0,0,2,0,2,2,0,2Z" transform="translate(98.635 31.398) rotate(-45)" fill="#009fc9"/>
      <path id="パス_653" data-name="パス 653" d="M0,0,1,0,1,1,0,1Z" transform="translate(95.812 34.942) rotate(-45.025)" fill="#009fc9"/>
      <path id="パス_654" data-name="パス 654" d="M0,0,3-.006l-.006,3L-.006,3Z" transform="translate(101.459 34.942) rotate(-45)" fill="#009fc9"/>
      <path id="パス_655" data-name="パス 655" d="M0,0,2,0,2,2,0,2Z" transform="translate(98.635 38.485) rotate(-45)" fill="#009fc9"/>
      <path id="パス_656" data-name="パス 656" d="M0,0,1,0,1,1,0,1Z" transform="translate(95.812 42.029) rotate(-45.025)" fill="#009fc9"/>
      <path id="パス_657" data-name="パス 657" d="M0,0,4-.008l-.008,4L-.008,4Z" transform="translate(104.283 38.485) rotate(-45)" fill="#009fc9"/>
      <path id="パス_658" data-name="パス 658" d="M0,0,3-.006l-.006,3L-.006,3Z" transform="translate(101.459 42.029) rotate(-45)" fill="#009fc9"/>
      <path id="パス_659" data-name="パス 659" d="M0,0,2,0,2,2,0,2Z" transform="matrix(0.707, -0.707, 0.707, 0.707, 98.635, 45.572)" fill="#009fc9"/>
      <path id="パス_660" data-name="パス 660" d="M0,0,1,0,1,1,0,1Z" transform="translate(95.812 49.116) rotate(-45.025)" fill="#009fc9"/>
      <path id="パス_661" data-name="パス 661" d="M0,0,4-.008l-.008,4L-.008,4Z" transform="translate(104.283 45.572) rotate(-45)" fill="#009fc9"/>
      <path id="パス_662" data-name="パス 662" d="M0,0,3-.006l-.006,3L-.006,3Z" transform="translate(101.459 49.116) rotate(-45)" fill="#009fc9"/>
      <path id="パス_663" data-name="パス 663" d="M0,0,2,0,2,2,0,2Z" transform="matrix(0.707, -0.707, 0.707, 0.707, 98.635, 52.659)" fill="#009fc9"/>
      <path id="パス_664" data-name="パス 664" d="M0,0,1,0,1,1,0,1Z" transform="translate(95.812 56.203) rotate(-45.025)" fill="#009fc9"/>
      <path id="パス_607" data-name="パス 607" d="M180.55,65.637l-3.529-3.543-3.529,3.543,3.529,3.543-3.529,3.543,3.529,3.543,3.529-3.543,3.529-3.543Z" transform="translate(-66.384 -23.608)" fill="#009fc9"/>
      <path id="パス_665" data-name="パス 665" d="M0,0,4-.008l-.008,4L-.008,4Z" transform="translate(104.283 52.659) rotate(-45)" fill="#009fc9"/>
      <path id="パス_666" data-name="パス 666" d="M0,0,3-.006l-.006,3L-.006,3Z" transform="translate(101.459 56.203) rotate(-45)" fill="#009fc9"/>
      <path id="パス_667" data-name="パス 667" d="M0,0,2,0,2,2,0,2Z" transform="translate(98.635 59.746) rotate(-45)" fill="#009fc9"/>
      <path id="パス_668" data-name="パス 668" d="M0,0,1,0,1,1,0,1Z" transform="matrix(0.707, -0.707, 0.707, 0.707, 95.812, 63.29)" fill="#009fc9"/>
      <path id="パス_608" data-name="パス 608" d="M226.7,66.051h0l-3.942-3.958-3.529,3.543,3.529,3.543-3.529,3.543,3.529,3.543,3.529-3.543,3.529-3.543Z" transform="translate(-83.885 -23.608)" fill="#009fc9"/>
      <path id="パス_609" data-name="パス 609" d="M174.059,13.922a.536.536,0,0,1,.5.728,10.224,10.224,0,0,1-9.675,6.48,10.523,10.523,0,0,1-10.633-10.592A10.543,10.543,0,0,1,174.569,6.6a.534.534,0,0,1-.5.719H170.83a.52.52,0,0,1-.464-.274,6.283,6.283,0,0,0-5.54-3.441c-3.946,0-6.495,3.329-6.495,6.933,0,3.714,2.658,6.988,6.522,6.988a6.312,6.312,0,0,0,5.5-3.332.533.533,0,0,1,.462-.271Z" transform="translate(-59.022 0)" fill="#0068b6"/>
      <path id="パス_610" data-name="パス 610" d="M190.7,20.449V1.156a.532.532,0,0,1,.531-.533h3.021a.532.532,0,0,1,.531.533V8.483a.31.31,0,0,0,.309.311h7.19a.31.31,0,0,0,.31-.311V1.156a.532.532,0,0,1,.531-.533h3.021a.532.532,0,0,1,.531.533V20.449a.532.532,0,0,1-.531.533H203.12a.532.532,0,0,1-.531-.533V12.709a.311.311,0,0,0-.31-.311h-7.19a.31.31,0,0,0-.309.311v7.739a.532.532,0,0,1-.531.533h-3.021a.532.532,0,0,1-.531-.533" transform="translate(-72.968 -0.237)" fill="#0068b6"/>
      <path id="パス_611" data-name="パス 611" d="M223.336,20.982h-3.523a.421.421,0,0,1-.388-.58L227.293.917a.469.469,0,0,1,.435-.294h2.954a.469.469,0,0,1,.436.3L238.8,20.405a.421.421,0,0,1-.39.576h-3.558a.419.419,0,0,1-.393-.274l-1.324-3.571a.221.221,0,0,0-.207-.144h-7.695a.221.221,0,0,0-.207.145l-1.3,3.568a.419.419,0,0,1-.394.276m5.438-14.79-2.5,7.162a.274.274,0,0,0,.257.364H231.6a.273.273,0,0,0,.256-.366l-2.568-7.163a.272.272,0,0,0-.514,0" transform="translate(-83.948 -0.237)" fill="#0068b6"/>
      <path id="パス_612" data-name="パス 612" d="M266.694,14.029l-.075-12.85a.552.552,0,0,1,.55-.555h2.815a.552.552,0,0,1,.551.552V20.424a.558.558,0,0,1-.556.558h-2.764a.555.555,0,0,1-.463-.249l-8.79-13.251a.211.211,0,0,0-.386.118l.075,12.824a.552.552,0,0,1-.551.557h-2.813a.553.553,0,0,1-.551-.553V1.108a.485.485,0,0,1,.484-.485h2.9a.481.481,0,0,1,.4.218l8.786,13.306a.209.209,0,0,0,.385-.118" transform="translate(-97.089 -0.237)" fill="#0068b6"/>
      <path id="パス_613" data-name="パス 613" d="M300.292,6.631a.589.589,0,0,1-.481-.256,6.572,6.572,0,0,0-1.335-1.422A6.117,6.117,0,0,0,294.585,3.6a6.59,6.59,0,0,0-6.577,6.905,6.6,6.6,0,0,0,6.577,7.016,6.69,6.69,0,0,0,4.028-1.237,5.382,5.382,0,0,0,1.937-2.6.362.362,0,0,0-.337-.487h-6.493a.589.589,0,0,1-.588-.59V10.494a.589.589,0,0,1,.588-.59h11.129a.567.567,0,0,1,.569.571,11.913,11.913,0,0,1-.912,4.546,10.784,10.784,0,0,1-9.893,6.108,10.527,10.527,0,0,1-10.688-10.62A10.463,10.463,0,0,1,294.668,0a10.721,10.721,0,0,1,9.572,5.794.59.59,0,0,1-.536.837Z" transform="translate(-108.641)" fill="#0068b6"/>
      <path id="パス_614" data-name="パス 614" d="M322.044.623h10.248a.564.564,0,0,1,.562.564V3.663a.563.563,0,0,1-.562.564h-6.4a.33.33,0,0,0-.33.331v3.96a.33.33,0,0,0,.33.331h6.26a.563.563,0,0,1,.562.564v2.476a.563.563,0,0,1-.562.564h-6.26a.33.33,0,0,0-.33.331v4.262a.33.33,0,0,0,.33.331h6.4a.564.564,0,0,1,.562.564v2.476a.563.563,0,0,1-.562.564H322.044a.563.563,0,0,1-.562-.564V1.187a.563.563,0,0,1,.562-.564" transform="translate(-123.011 -0.237)" fill="#0068b6"/>
      <path id="パス_615" data-name="パス 615" d="M242.464,70.639a.522.522,0,0,1,.52-.522h5.729a7.414,7.414,0,0,1,4.44,1.135,5.137,5.137,0,0,1-.536,8.659,5.211,5.211,0,0,1,3.817,5.2,5.482,5.482,0,0,1-2.545,4.8c-1.471,1.021-2.715,1.22-5.288,1.22h-5.617a.522.522,0,0,1-.52-.522Zm3.337,7.93a.263.263,0,0,0,.263.263h2.481a5.069,5.069,0,0,0,2.121-.34,2.679,2.679,0,0,0,1.414-2.585,2.625,2.625,0,0,0-1.414-2.47,4.837,4.837,0,0,0-2.206-.369h-2.4a.263.263,0,0,0-.263.263Zm0,9.341a.263.263,0,0,0,.263.263h3.1a6.224,6.224,0,0,0,2.235-.34,3.223,3.223,0,0,0,0-5.821,5.954,5.954,0,0,0-2.517-.369h-2.82a.263.263,0,0,0-.263.264Z" transform="translate(-92.776 -26.659)" fill="#0068b6"/>
      <path id="パス_616" data-name="パス 616" d="M270.563,70.116h2.3a.521.521,0,0,1,.52.522V87.91a.263.263,0,0,0,.263.263h6.6a.522.522,0,0,1,.521.522V90.6a.522.522,0,0,1-.521.522h-9.7a.5.5,0,0,1-.495-.5V70.639a.521.521,0,0,1,.52-.522" transform="translate(-103.329 -26.658)" fill="#0068b6"/>
      <path id="パス_617" data-name="パス 617" d="M293.656,70.116a.521.521,0,0,1,.52.522V83.233a6.242,6.242,0,0,0,.764,3.663,3.72,3.72,0,0,0,3.224,1.675,3.571,3.571,0,0,0,3.167-1.618,6.1,6.1,0,0,0,.793-3.72V70.639a.521.521,0,0,1,.52-.522h2.268a.522.522,0,0,1,.52.522V83.233c.028,2.783-.424,4.912-2.262,6.445a7.2,7.2,0,0,1-4.978,1.845,7.435,7.435,0,0,1-5.062-1.817c-2.064-1.846-2.319-3.918-2.291-6.474V70.639a.522.522,0,0,1,.52-.522Z" transform="translate(-111.285 -26.658)" fill="#0068b6"/>
      <path id="パス_618" data-name="パス 618" d="M321.458,70.116h10.667a.521.521,0,0,1,.52.522v1.908a.522.522,0,0,1-.52.522h-7.589a.263.263,0,0,0-.262.263v5.435a.263.263,0,0,0,.262.263h7.476a.522.522,0,0,1,.52.523v1.879a.522.522,0,0,1-.52.523h-7.476a.263.263,0,0,0-.262.263V87.91a.263.263,0,0,0,.262.263h7.589a.522.522,0,0,1,.52.522V90.6a.521.521,0,0,1-.52.522H321.458a.521.521,0,0,1-.52-.522V70.639a.521.521,0,0,1,.52-.522" transform="translate(-122.803 -26.658)" fill="#0068b6"/>
      <path id="パス_619" data-name="パス 619" d="M242.726,42.871H248.3a.262.262,0,0,1,.262.262v1.126a.262.262,0,0,1-.262.262h-3.839a.134.134,0,0,0-.134.134v3.157a.135.135,0,0,0,.134.134h3.776a.261.261,0,0,1,.261.262v1.109a.262.262,0,0,1-.261.263h-3.776a.134.134,0,0,0-.134.134v4.631a.262.262,0,0,1-.262.263h-1.342a.262.262,0,0,1-.261-.263V43.133a.261.261,0,0,1,.261-.262" transform="translate(-92.776 -16.3)" fill="#0068b6"/>
      <path id="パス_620" data-name="パス 620" d="M254.491,48.667a6.02,6.02,0,1,1,0,.015Zm1.849-.064a4.436,4.436,0,1,0,0-.015Z" transform="translate(-97.378 -16.163)" fill="#0068b6"/>
      <path id="パス_621" data-name="パス 621" d="M276.751,43.132a.26.26,0,0,1,.26-.261h3.042a5.853,5.853,0,0,1,3.4.682A3.776,3.776,0,0,1,285,46.726a3.97,3.97,0,0,1-.664,2.237,3.1,3.1,0,0,1-2.123,1.259.094.094,0,0,0-.062.143l2.423,3.844a.261.261,0,0,1-.219.4H283a.259.259,0,0,1-.222-.126s-2.932-4.847-2.989-4.938.016-.234.1-.234h.165a3.769,3.769,0,0,0,2.339-.508,2.5,2.5,0,0,0,.806-1.92,2.408,2.408,0,0,0-1-1.983,3.7,3.7,0,0,0-1.991-.381h-1.451a.145.145,0,0,0-.145.146v9.682a.261.261,0,0,1-.26.261h-1.345a.261.261,0,0,1-.26-.261Z" transform="translate(-105.895 -16.3)" fill="#0068b6"/>
      <path id="パス_622" data-name="パス 622" d="M300.248,44.521h-2.274a.267.267,0,0,1-.266-.268V43.139a.267.267,0,0,1,.266-.268h6.7a.268.268,0,0,1,.267.268v1.113a.268.268,0,0,1-.267.268H302.4a.145.145,0,0,0-.146.146v9.674a.268.268,0,0,1-.267.268h-1.33a.268.268,0,0,1-.267-.268V44.667a.146.146,0,0,0-.146-.146" transform="translate(-113.914 -16.3)" fill="#0068b6"/>
      <path id="パス_623" data-name="パス 623" d="M311.7,54.341v-11.2a.268.268,0,0,1,.267-.268h1.33a.268.268,0,0,1,.267.268v4.538a.143.143,0,0,0,.143.143h4.755a.142.142,0,0,0,.142-.143V43.139a.268.268,0,0,1,.267-.268h1.331a.267.267,0,0,1,.267.268v11.2a.267.267,0,0,1-.267.268h-1.331a.268.268,0,0,1-.267-.268V49.613a.143.143,0,0,0-.142-.143h-4.755a.143.143,0,0,0-.143.143v4.728a.268.268,0,0,1-.267.268h-1.33a.268.268,0,0,1-.267-.268" transform="translate(-119.27 -16.3)" fill="#0068b6"/>
      <path id="パス_624" data-name="パス 624" d="M329.575,42.871h6.006a.268.268,0,0,1,.267.268v1.113a.268.268,0,0,1-.267.268h-4.267a.143.143,0,0,0-.143.143v3.045a.143.143,0,0,0,.143.143h4.2a.267.267,0,0,1,.267.268v1.1a.267.267,0,0,1-.267.268h-4.2a.143.143,0,0,0-.143.143v3.188a.143.143,0,0,0,.143.143h4.267a.268.268,0,0,1,.267.268v1.113a.268.268,0,0,1-.267.268h-6.006a.268.268,0,0,1-.267-.268v-11.2a.268.268,0,0,1,.267-.268" transform="translate(-126.006 -16.3)" fill="#0068b6"/>
    </g>
  </g>
</svg>
