<svg xmlns="http://www.w3.org/2000/svg" xmlns:xlink="http://www.w3.org/1999/xlink" width="200" height="342" viewBox="0 0 200 342">
  <defs>
    <clipPath id="clip-path">
      <rect id="長方形_223" data-name="長方形 223" width="200" height="342" fill="none"/>
    </clipPath>
  </defs>
  <g id="グループ_405" data-name="グループ 405" clip-path="url(#clip-path)">
    <path id="パス_1" data-name="パス 1" d="M5.435,258.531a32.933,32.933,0,0,0,.975-4.544.366.366,0,0,0-.36-.419H5.692l.062.041a29.884,29.884,0,0,1-3.436,6.822.364.364,0,0,1-.592,0L.2,258.362a.356.356,0,0,1,.005-.43,28.464,28.464,0,0,0,3.144-5.811.364.364,0,0,1,.578-.132l1.038.92a.364.364,0,0,0,.605-.271v-1.3a.364.364,0,0,1,.364-.363H6.47a.365.365,0,0,0,.361-.328c.1-.989.155-1.7.191-2.367-.143.143-.163.184-.45.47l-1.848-1.933a.359.359,0,0,1,.027-.521,11.652,11.652,0,0,0,3.078-4.6.357.357,0,0,1,.371-.232l2.287.218a.362.362,0,0,1,.312.475c-.027.077-.055.159-.087.246-.086.235-.161.486.09.486h8.578a.363.363,0,0,1,.363.362v1.992a.363.363,0,0,1-.363.363H9.351a.361.361,0,0,0-.3.164c-.086.13-.178.267-.307.449a.324.324,0,0,0,.265.51h9.463a.471.471,0,0,1,.474.474c-.008.887-.031,2.574-.037,3.413,0,.2.058.362.26.362h.216a.363.363,0,0,1,.363.363v1.869a.362.362,0,0,1-.363.362H19.09c-.194,0-.253.154-.261.347-.013.311-.029.632-.058,1-.015.21.016.39.226.39h.137a.363.363,0,0,1,.364.362v1.889a.363.363,0,0,1-.364.363h-.4c-.182,0-.233.131-.257.311-.142,1.052-.5,2.61-2.338,2.61H13.255a.363.363,0,0,1-.355-.284l-.311-1.4a.364.364,0,0,1,.355-.441h1.842c.716,0,.8-.45.861-.8H9a.363.363,0,0,0-.356.291,10.4,10.4,0,0,1-.254,1.042.364.364,0,0,1-.428.248L5.7,258.986a.361.361,0,0,1-.268-.455M1.974,246.847A14.2,14.2,0,0,1,4.982,248.7a.366.366,0,0,1,.068.49l-1.287,1.856a.367.367,0,0,1-.529.075,13.933,13.933,0,0,0-2.77-1.876.362.362,0,0,1-.133-.526l1.194-1.74a.361.361,0,0,1,.447-.127m.593-5.2a15.193,15.193,0,0,1,3.1,1.74.358.358,0,0,1,.068.493l-1.317,1.857a.364.364,0,0,1-.524.068,18.308,18.308,0,0,0-2.837-1.775.361.361,0,0,1-.13-.527l1.2-1.728a.364.364,0,0,1,.44-.128m8.467,13.408c.08-.55.123-.888.154-1.162a.293.293,0,0,0-.292-.324H9.614a.29.29,0,0,0-.289.252c-.033.246-.087.654-.15,1.155a.293.293,0,0,0,.291.33h1.28a.3.3,0,0,0,.289-.251m-1.3-5.457c-.023.483-.04.782-.063,1.064a.292.292,0,0,0,.292.312h1.23a.294.294,0,0,0,.293-.274c.033-.514.052-.821.059-1.08a.291.291,0,0,0-.293-.3H10.027a.294.294,0,0,0-.293.278m4.247,4.233c-.04.383-.08.789-.119,1.152a.291.291,0,0,0,.291.323H15.6a.293.293,0,0,0,.293-.272c.04-.606.055-.937.066-1.162a.29.29,0,0,0-.292-.3H14.272a.293.293,0,0,0-.291.262m.3-4.234c-.015.316-.035.76-.05,1.072a.291.291,0,0,0,.292.306h1.248a.293.293,0,0,0,.293-.284c.009-.437.012-.753.013-1.078a.293.293,0,0,0-.293-.292H14.573a.291.291,0,0,0-.292.276" transform="translate(0.044 80.947)" fill="#0068b6"/>
    <path id="パス_2" data-name="パス 2" d="M24,257.409a.68.68,0,0,1,.552-.908c1.854-.244,4.857-1.111,4.857-5.165,0-2.27-1.1-3.745-3.011-4.153a.475.475,0,0,0-.573.427c-.162,2.175-1.07,10.471-5.678,10.471-3,0-3.963-3.329-3.963-5.571,0-5.519,4.212-8.4,8.728-8.4,5.159,0,7.818,3.222,7.818,7.423a8.038,8.038,0,0,1-2.571,6.106,9.69,9.69,0,0,1-4.807,1.885.681.681,0,0,1-.736-.441Zm-4.8-4.827c0,.445.107,2.083,1.071,2.083,1.153,0,2.127-2.872,2.544-6.772a.39.39,0,0,0-.544-.4,5.426,5.426,0,0,0-3.071,5.09" transform="translate(5.486 81.836)" fill="#0068b6"/>
    <path id="パス_3" data-name="パス 3" d="M38.137,243.142v-1.025a.663.663,0,0,1,.664-.662h1.806a.663.663,0,0,1,.664.662v1.025a.437.437,0,0,0,.438.437h5.8a.663.663,0,0,1,.664.662V245.8a.663.663,0,0,1-.664.662h-5.8a.437.437,0,0,0-.438.437v1.5a.437.437,0,0,0,.438.437H48.7a.663.663,0,0,1,.663.662v1.557a.663.663,0,0,1-.663.662H43.812a.44.44,0,0,0-.324.737,16.372,16.372,0,0,0,5.534,3.96.658.658,0,0,1,.3.94l-1.1,1.861a.662.662,0,0,1-.909.235,21.844,21.844,0,0,1-5.263-4.4.438.438,0,0,0-.781.271v4.88a.663.663,0,0,1-.664.662H38.8a.663.663,0,0,1-.664-.662v-4.89a.438.438,0,0,0-.778-.274A18.69,18.69,0,0,1,32.1,259.45a.662.662,0,0,1-.908-.255l-1.044-1.871a.657.657,0,0,1,.292-.917,17.354,17.354,0,0,0,5.6-3.967.436.436,0,0,0-.325-.73H30.75a.663.663,0,0,1-.664-.662v-1.557a.663.663,0,0,1,.664-.662H37.7a.437.437,0,0,0,.438-.437v-1.5a.437.437,0,0,0-.438-.437H32a.663.663,0,0,1-.663-.662v-1.557a.663.663,0,0,1,.663-.662h5.7a.437.437,0,0,0,.438-.437" transform="translate(10.189 80.946)" fill="#0068b6"/>
    <path id="パス_4" data-name="パス 4" d="M50.751,246.061H47.545a.46.46,0,0,1-.461-.459V243.66a.46.46,0,0,1,.461-.459h6.579a.273.273,0,0,0,.273-.272v-.984a.46.46,0,0,1,.461-.459h2.13a.46.46,0,0,1,.461.459v.984a.273.273,0,0,0,.273.272h6.7a.46.46,0,0,1,.461.459V245.6a.46.46,0,0,1-.461.459H61.178l1.659.35a.459.459,0,0,1,.349.575,23.82,23.82,0,0,1-.98,2.769.282.282,0,0,0,.261.391h2.715a.46.46,0,0,1,.461.459v1.982a.46.46,0,0,1-.461.459h-5.1a.279.279,0,0,0-.2.479,18.151,18.151,0,0,0,5.586,3.668.46.46,0,0,1,.217.652l-1.245,2.144a.463.463,0,0,1-.6.183,18.48,18.48,0,0,1-5.87-4.58.3.3,0,0,0-.522.2v4.581a.46.46,0,0,1-.461.459h-2.13a.46.46,0,0,1-.461-.459v-4.49a.3.3,0,0,0-.517-.2,20.37,20.37,0,0,1-5.775,4.492.461.461,0,0,1-.605-.18L46.224,257.8a.461.461,0,0,1,.225-.657,17.151,17.151,0,0,0,5.575-3.616.279.279,0,0,0-.2-.475h-5.06a.46.46,0,0,1-.461-.459v-1.982a.46.46,0,0,1,.461-.459h2.717a.282.282,0,0,0,.273-.355,19.463,19.463,0,0,0-.866-2.736.454.454,0,0,1,.316-.617Zm-.082,4.086h3.359a.37.37,0,0,0,.37-.369v-3.349a.369.369,0,0,0-.37-.369H52.249a.331.331,0,0,0-.309.458,18.116,18.116,0,0,1,.882,2.674.46.46,0,0,1-.349.561Zm8.586-1.12c.333-.835.671-1.912.857-2.54a.331.331,0,0,0-.32-.426H57.819a.369.369,0,0,0-.37.369v3.349a.37.37,0,0,0,.37.369h3.809l-2.055-.5a.456.456,0,0,1-.317-.616" transform="translate(15.643 80.956)" fill="#0068b6"/>
    <path id="パス_5" data-name="パス 5" d="M70.483,243.959c-.059.258-.114.462-.187.709a.2.2,0,0,0,.194.262h6.042a.415.415,0,0,1,.415.414v2.027a.415.415,0,0,1-.415.414H69.369a.22.22,0,0,0-.2.142,7.713,7.713,0,0,1-.537,1.16,5.08,5.08,0,0,1,2.213-.553,3.014,3.014,0,0,1,2.84,1.509,28.62,28.62,0,0,1,3.823-1.183.416.416,0,0,1,.515.33l.423,2.208a.41.41,0,0,1-.324.477c-.789.156-1.968.525-3.588,1.045a.271.271,0,0,0-.187.274c.058.778.058,1.454.058,1.741,0,.2,0,.371,0,.527a.418.418,0,0,1-.419.41H71.7a.417.417,0,0,1-.419-.433c.008-.194.012-.441.019-.867a.262.262,0,0,0-.379-.239c-.652.343-1.33.825-1.33,1.576,0,1.029,1.291,1.084,3.172,1.084,1.271,0,2.881-.059,4.209-.19a.416.416,0,0,1,.459.41l.013,2.242a.415.415,0,0,1-.406.417c-1.493.033-3.472.064-3.741.064a14.519,14.519,0,0,1-5.072-.644,3.216,3.216,0,0,1-2.1-3c0-2.557,2.785-4.027,4.61-4.947a1.5,1.5,0,0,0-.94-.312,4.946,4.946,0,0,0-3.079,1.637,21.646,21.646,0,0,1-2.11,2.8.417.417,0,0,1-.6.008l-1.65-1.672a.41.41,0,0,1,0-.577,16.429,16.429,0,0,0,3.478-5.145.218.218,0,0,0-.2-.3H63.311a.415.415,0,0,1-.415-.414v-2.027a.415.415,0,0,1,.415-.414H66.7a.206.206,0,0,0,.2-.163c.083-.39.143-.717.2-1.1a.418.418,0,0,1,.432-.351l2.569.139a.415.415,0,0,1,.383.507" transform="translate(21.09 81.569)" fill="#0068b6"/>
    <path id="パス_6" data-name="パス 6" d="M118.4,244.61v1.678a.5.5,0,0,1-.2.4c-.94.7-2.75,1.7-3.722,2.414a.1.1,0,0,0,.068.187,6.066,6.066,0,0,1,1.218-.092c4.112,0,5.03,3.076,5.03,5.043,0,3.661-2.743,5.922-7.188,5.922-3.889,0-5.034-2.042-5.034-3.457,0-2,1.974-3.108,3.781-3.108a3.015,3.015,0,0,1,3.334,2.869,3.1,3.1,0,0,1-.092.7,2.677,2.677,0,0,0,2.01-2.556c0-.312-.051-2.74-3.37-2.74a7.227,7.227,0,0,0-4.278,1.453,29.716,29.716,0,0,0-3.124,2.534.307.307,0,0,1-.485-.075l-1.143-2.1a.5.5,0,0,1,.119-.622c1.291-1.068,5.678-4.358,7.107-5.552.141-.119.051-.451-.135-.446l-5.243.122a.482.482,0,0,1-.494-.481v-2.036a.482.482,0,0,1,.479-.482l10.844-.092a.512.512,0,0,1,.517.511m-5.032,12.523a1.131,1.131,0,0,0-1.181-1.214c-.643,0-1.106.312-1.106.828,0,.772.943.864,1.494.864a2.789,2.789,0,0,0,.738-.092,1.324,1.324,0,0,0,.055-.386" transform="translate(35.632 81.833)" fill="#0068b6"/>
    <path id="パス_7" data-name="パス 7" d="M123.891,258.119a7.266,7.266,0,0,0,3.026-3.111.168.168,0,0,0-.233-.22c-.71.4-1.273.672-1.743.888a.428.428,0,0,1-.594-.278s-.455-1.734-.506-1.931-.356-.119-.482-.068a.239.239,0,0,0-.154.222v5.433a1.635,1.635,0,0,1-1.659,1.8h-2.1a.455.455,0,0,1-.453-.393l-.3-2.131a.455.455,0,0,1,.453-.519h.623c.307,0,.572-.041.572-.573v-2.472a.27.27,0,0,0-.353-.255c-.337.107-.6.184-.868.266a.428.428,0,0,1-.552-.366l-.237-2.321a.43.43,0,0,1,.344-.462c.3-.059.62-.13,1.429-.336a.311.311,0,0,0,.237-.3v-3.062a.292.292,0,0,0-.292-.292h-1.1a.429.429,0,0,1-.43-.427v-1.984a.429.429,0,0,1,.43-.427h1.1a.292.292,0,0,0,.292-.292v-2.59a.428.428,0,0,1,.428-.427h2.01a.428.428,0,0,1,.43.427v2.59a.294.294,0,0,0,.293.292h.936l1.335-1.251a.435.435,0,0,1,.645.065,10.5,10.5,0,0,1,1.012,1.706.107.107,0,0,0,.2-.048v-3.383a.346.346,0,0,1,.347-.344h2.094a.345.345,0,0,1,.344.344v8.794c0,6.436-2.7,8.759-4.523,10.034a.46.46,0,0,1-.62-.085l-1.5-1.823a.455.455,0,0,1,.122-.685m2.5-8.878a.351.351,0,0,1-.564-.168,15.325,15.325,0,0,0-1.205-3.094v1.2a.461.461,0,0,1-.461.459h-.66a.294.294,0,0,0-.293.292v2.184a.239.239,0,0,0,.311.226c.291-.091.458-.147.627-.206a.365.365,0,0,1,.486.336l.032,1.845c1.6-.67,2.185-.928,2.664-1.158a.538.538,0,0,0,.305-.485v-1.994a.227.227,0,0,0-.375-.172Zm9.38,5.567a15.661,15.661,0,0,0-1.342-2.584.143.143,0,0,0-.262.077v4.668c0,.266.02.49.268.49h.716c.312,0,.557,0,.607-1.489a.446.446,0,0,1,.58-.415l1.584.5a.454.454,0,0,1,.315.442c-.1,3.166-.777,4.215-2.123,4.215h-2.929c-1.024,0-1.841-.45-1.841-1.676V241.884a.345.345,0,0,1,.344-.344h2.138a.344.344,0,0,1,.345.342l.037,4.142a.163.163,0,0,0,.309.089,19.812,19.812,0,0,0,1.1-2.421.336.336,0,0,1,.5-.172l1.833,1.2a.337.337,0,0,1,.126.41,17.984,17.984,0,0,1-2.374,4.054l-1.163-.959a.227.227,0,0,0-.372.175v1.754a.2.2,0,0,0,.309.158l.937-.67a.344.344,0,0,1,.474.073,20.8,20.8,0,0,1,2.227,3.635.342.342,0,0,1-.106.413l-1.584,1.22a.424.424,0,0,1-.653-.178" transform="translate(40.098 80.956)" fill="#0068b6"/>
    <path id="パス_8" data-name="パス 8" d="M153.965,251.06a19.851,19.851,0,0,1-2.735,4.735c.266.736.431,1.186.738,1.186.353,0,.765-.644,1.119-1.293a.3.3,0,0,1,.554.057l.667,2.092a.867.867,0,0,1-.021.606c-.576,1.339-1.675,2.438-2.667,2.438-1.5,0-2.315-1.777-2.683-2.574a15.674,15.674,0,0,1-2.75,2.142.551.551,0,0,1-.76-.174L143.978,258h-1.753a.3.3,0,0,0-.3.3v2.14a.445.445,0,0,1-.446.446h-2.057a.446.446,0,0,1-.447-.446V258.3a.3.3,0,0,0-.3-.3h-3.509a.475.475,0,0,1-.475-.474v-1.849a.475.475,0,0,1,.475-.474h3.466a.339.339,0,0,0,.339-.339V254.5a.339.339,0,0,0-.339-.339h-2.816a.49.49,0,0,1-.491-.489v-8.019a.267.267,0,0,1,.287-.275h.328a16.539,16.539,0,0,0-1.141-2.741.311.311,0,0,1,.19-.449l2.065-.566a.31.31,0,0,1,.355.15,24.229,24.229,0,0,1,1.141,2.5.309.309,0,0,1-.2.4l-2.227.7h5.714a16.807,16.807,0,0,0,1.561-3.681.3.3,0,0,1,.363-.21l2.453.618a.3.3,0,0,1,.2.417c-.435.968-1.471,2.729-1.544,2.856h.432a.245.245,0,0,1,.264.256v8.038a.49.49,0,0,1-.491.489H142.27a.34.34,0,0,0-.34.339v.365a.34.34,0,0,0,.34.339h3.3a.476.476,0,0,1,.477.474v1.058a19.549,19.549,0,0,0,1.925-1.573,40.93,40.93,0,0,1-.718-5.617l-.931.056a.4.4,0,0,1-.42-.394v-2.138a.4.4,0,0,1,.364-.394l.905-.072c-.02-.654-.082-3.617-.082-4.209v-.5a.4.4,0,0,1,.4-.4h2.1a.4.4,0,0,1,.4.4c0,.222-.009.483-.012.678a.139.139,0,0,0,.21.12l1.66-.972a.463.463,0,0,1,.612.127,21.349,21.349,0,0,1,1.6,2.7.463.463,0,0,1-.187.6l-1.912,1.1,1.652-.112a.454.454,0,0,1,.485.447l.028,2.015a.452.452,0,0,1-.422.458l-3.545.256c.082,1.389.163,2.144.245,2.8a9.622,9.622,0,0,0,1.051-2.327.414.414,0,0,1,.605-.24l1.72,1a.411.411,0,0,1,.178.511m-16.111-2.313h1.394v-1.206h-1.394Zm0,3.187h1.394v-1.226h-1.394Zm3.741-10.32a17.022,17.022,0,0,1,.5,2.671.308.308,0,0,1-.261.34l-2.065.314a.312.312,0,0,1-.356-.274,14.383,14.383,0,0,0-.55-2.681.311.311,0,0,1,.268-.4l2.133-.188a.31.31,0,0,1,.327.219m.171,7.133H143.1v-1.206h-1.331Zm0,3.187H143.1v-1.226h-1.331Zm10.046-5.787a14.771,14.771,0,0,0-1.633-2.986.108.108,0,0,0-.2.06c.007,1.108.042,2.51.06,3.175l1.686-.112a.1.1,0,0,0,.084-.138" transform="translate(45.648 80.926)" fill="#0068b6"/>
    <path id="パス_9" data-name="パス 9" d="M105.111,248.5v1.92a.346.346,0,0,1-.173.3,44.014,44.014,0,0,0-3.785,2.646,3.111,3.111,0,0,1,1.19-.272c1.644,0,1.7,1.291,1.7,2.163v.6c0,.963,0,1.327,1.55,1.327.19,0,1.481,0,2.753-.111a.347.347,0,0,1,.378.335l.072,2.39a.346.346,0,0,1-.332.359c-.6.019-1.382.044-2.323.044-2.04,0-3.78-.055-4.5-.983a2.927,2.927,0,0,1-.624-1.8v-.873c0-.473-.019-1.072-.888-1.072-1.22,0-2.136.693-5.744,4.6a.347.347,0,0,1-.515-.005L92.2,258.139a.349.349,0,0,1,.035-.493c1.35-1.166,5.409-4.605,6.251-5.314.386-.323.7-.582.979-.8a.27.27,0,0,0-.174-.482l-5.927.2a.345.345,0,0,1-.356-.347v-2.331a.345.345,0,0,1,.343-.347l11.411-.069a.347.347,0,0,1,.348.348m-1.21-1.2-7.215-1.184a.349.349,0,0,1-.284-.423l.451-2.071a.346.346,0,0,1,.395-.266l7.191,1.242a.349.349,0,0,1,.278.422l-.427,2.015a.347.347,0,0,1-.39.266" transform="translate(31.217 81.582)" fill="#0068b6"/>
    <path id="パス_10" data-name="パス 10" d="M78.235,250.027a16.55,16.55,0,0,0,2.62-3.9.441.441,0,0,0-.233-.608l-1.751-.7a.446.446,0,0,0-.558.206,12.537,12.537,0,0,1-2.134,3.046.439.439,0,0,0,.013.621l1.4,1.355a.446.446,0,0,0,.641-.023" transform="translate(25.775 82.065)" fill="#0068b6"/>
    <path id="パス_11" data-name="パス 11" d="M90.745,246.722a.514.514,0,0,0-.181.712,17.836,17.836,0,0,0,2.773,3.744.617.617,0,0,0,.87-.013l1.253-1.274a.51.51,0,0,0,0-.717,17.727,17.727,0,0,1-2.595-3.3.154.154,0,0,1,.138-.227h1.932a.638.638,0,0,0,.639-.637V243.5a.637.637,0,0,0-.639-.636H87.592a.153.153,0,0,1-.154-.154v-.5a.637.637,0,0,0-.637-.637H84.85a.637.637,0,0,0-.637.637v.5a.153.153,0,0,1-.154.154H76.693a.636.636,0,0,0-.637.636v1.514a.637.637,0,0,0,.637.637h5.228a.409.409,0,0,1,.4.494,5.572,5.572,0,0,1-2.4,3.56.586.586,0,0,0-.091.876l1.2,1.294a.155.155,0,0,1-.027.231,15.445,15.445,0,0,1-4.094,2.08.645.645,0,0,0-.347.915l.807,1.461a.645.645,0,0,0,.787.294,22.411,22.411,0,0,0,2.194-.94.425.425,0,0,1,.494.085,11.038,11.038,0,0,0,.924.877.343.343,0,0,1-.151.594,33.788,33.788,0,0,1-4.6.738.639.639,0,0,0-.55.839l.469,1.437a.642.642,0,0,0,.676.441,32.647,32.647,0,0,0,7.9-1.793h.107a36.061,36.061,0,0,0,8.316,1.811.641.641,0,0,0,.669-.4l.692-1.684a.64.64,0,0,0-.566-.88,32.486,32.486,0,0,1-5.013-.629.159.159,0,0,1-.051-.288,13.346,13.346,0,0,0,2.718-2.355.634.634,0,0,0,.167-.431v-1.654a.639.639,0,0,0-.64-.638H85.63c.092-.112.237-.3.361-.47a.241.241,0,0,0-.159-.391l-2.31-.637a.15.15,0,0,1-.075-.244,8.4,8.4,0,0,0,1.783-4.25.4.4,0,0,1,.4-.339h1.032a.4.4,0,0,1,.406.4v1.564c0,.616,0,.677-.556.677h-.478a.588.588,0,0,0-.581.682l.353,1.832a.471.471,0,0,0,.466.4H88.2a1.539,1.539,0,0,0,1.726-1.517v-3.633a.4.4,0,0,1,.406-.4h1.7a.152.152,0,0,1,.076.284Zm-6.866,7.7h3.935a.278.278,0,0,1,.157.51,14.22,14.22,0,0,1-1.905,1.075.586.586,0,0,1-.5,0,13.893,13.893,0,0,1-1.848-1.072.281.281,0,0,1,.159-.511" transform="translate(25.774 80.986)" fill="#0068b6"/>
    <path id="パス_266" data-name="パス 266" d="M0,0,1.735,0l0,1.735L0,1.735Z" transform="translate(50.457 251.904) rotate(-45)" fill="#009fc9"/>
    <path id="パス_267" data-name="パス 267" d="M0,0,3.471,0l0,3.471L0,3.471Z" transform="translate(55.369 258.028) rotate(-45)" fill="#009fc9"/>
    <path id="パス_268" data-name="パス 268" d="M0,0,5.206.005l.005,5.206L.005,5.206Z" transform="translate(60.282 264.152) rotate(-45)" fill="#009fc9"/>
    <path id="パス_269" data-name="パス 269" d="M0,0,3.471,0l0,3.471L0,3.471Z" transform="translate(55.369 270.277) rotate(-45)" fill="#009fc9"/>
    <path id="パス_270" data-name="パス 270" d="M0,0,6.941.007l.007,6.941L.007,6.941Z" transform="translate(65.195 270.277) rotate(-45)" fill="#009fc9"/>
    <path id="パス_271" data-name="パス 271" d="M0,0,5.206.005l.005,5.206L.005,5.206Z" transform="translate(60.282 276.401) rotate(-45)" fill="#009fc9"/>
    <path id="パス_272" data-name="パス 272" d="M0,0,6.941.007l.007,6.941L.007,6.941Z" transform="translate(65.195 282.525) rotate(-45)" fill="#009fc9"/>
    <path id="パス_273" data-name="パス 273" d="M0,0,5.206.005l.005,5.206L.005,5.206Z" transform="translate(60.282 288.649) rotate(-45)" fill="#009fc9"/>
    <path id="パス_274" data-name="パス 274" d="M0,0,3.471,0l0,3.471L0,3.471Z" transform="translate(55.369 294.773) rotate(-45)" fill="#009fc9"/>
    <path id="パス_275" data-name="パス 275" d="M0,0,6.941.007l.007,6.941L.007,6.941Z" transform="translate(65.195 294.773) rotate(-45)" fill="#009fc9"/>
    <path id="パス_276" data-name="パス 276" d="M0,0,5.206.005l.005,5.206L.005,5.206Z" transform="matrix(0.707, -0.707, 0.707, 0.707, 60.282, 300.898)" fill="#009fc9"/>
    <path id="パス_277" data-name="パス 277" d="M0,0,3.471,0l0,3.471L0,3.471Z" transform="translate(55.369 307.022) rotate(-45)" fill="#009fc9"/>
    <path id="パス_278" data-name="パス 278" d="M0,0,1.735,0l0,1.735L0,1.735Z" transform="translate(50.457 313.146) rotate(-45)" fill="#009fc9"/>
    <path id="パス_279" data-name="パス 279" d="M0,0,1.735,0l0,1.735L0,1.735Z" transform="translate(25.894 251.904) rotate(-45)" fill="#009fc9"/>
    <path id="パス_280" data-name="パス 280" d="M0,0,3.471,0l0,3.471L0,3.471Z" transform="translate(30.806 258.028) rotate(-45)" fill="#009fc9"/>
    <path id="パス_281" data-name="パス 281" d="M0,0,5.206.005l.005,5.206L.005,5.206Z" transform="matrix(0.707, -0.707, 0.707, 0.707, 35.719, 264.152)" fill="#009fc9"/>
    <path id="パス_282" data-name="パス 282" d="M0,0,3.471,0l0,3.471L0,3.471Z" transform="translate(30.806 270.277) rotate(-45)" fill="#009fc9"/>
    <path id="パス_283" data-name="パス 283" d="M0,0,6.941.007l.007,6.941L.007,6.941Z" transform="translate(40.631 270.277) rotate(-45)" fill="#009fc9"/>
    <path id="パス_284" data-name="パス 284" d="M0,0,5.206.005l.005,5.206L.005,5.206Z" transform="matrix(0.707, -0.707, 0.707, 0.707, 35.719, 276.401)" fill="#009fc9"/>
    <path id="パス_285" data-name="パス 285" d="M0,0,6.941.007l.007,6.941L.007,6.941Z" transform="translate(40.631 282.525) rotate(-45)" fill="#009fc9"/>
    <path id="パス_286" data-name="パス 286" d="M0,0,5.206.005l.005,5.206L.005,5.206Z" transform="matrix(0.707, -0.707, 0.707, 0.707, 35.719, 288.649)" fill="#009fc9"/>
    <path id="パス_287" data-name="パス 287" d="M0,0,3.471,0l0,3.471L0,3.471Z" transform="translate(30.806 294.773) rotate(-45)" fill="#009fc9"/>
    <path id="パス_12" data-name="パス 12" d="M46.3,208.542l-6.141-6.125-6.14,6.125,6.14,6.125-6.14,6.123,6.14,6.125L46.3,220.79l6.141-6.123Z" transform="translate(11.528 67.859)" fill="#009fc9"/>
    <path id="パス_288" data-name="パス 288" d="M0,0,6.941.007l.007,6.941L.007,6.941Z" transform="translate(40.631 294.773) rotate(-45)" fill="#009fc9"/>
    <path id="パス_289" data-name="パス 289" d="M0,0,5.206.005l.005,5.206L.005,5.206Z" transform="translate(35.719 300.898) rotate(-45)" fill="#009fc9"/>
    <path id="パス_290" data-name="パス 290" d="M0,0,3.471,0l0,3.471L0,3.471Z" transform="translate(30.806 307.022) rotate(-45)" fill="#009fc9"/>
    <path id="パス_291" data-name="パス 291" d="M0,0,1.735,0l0,1.735L0,1.735Z" transform="translate(25.893 313.146) rotate(-45)" fill="#009fc9"/>
    <path id="パス_292" data-name="パス 292" d="M0,0,1.735,0l0,1.735L0,1.735Z" transform="translate(1.33 251.904) rotate(-45)" fill="#009fc9"/>
    <path id="パス_293" data-name="パス 293" d="M0,0,3.471,0l0,3.471L0,3.471Z" transform="matrix(0.707, -0.707, 0.707, 0.707, 6.242, 258.028)" fill="#009fc9"/>
    <path id="パス_294" data-name="パス 294" d="M0,0,1.735,0l0,1.735L0,1.735Z" transform="translate(1.33 264.153) rotate(-45)" fill="#009fc9"/>
    <path id="パス_295" data-name="パス 295" d="M0,0,5.206.005l.005,5.206L.005,5.206Z" transform="translate(11.155 264.152) rotate(-45)" fill="#009fc9"/>
    <path id="パス_296" data-name="パス 296" d="M0,0,3.471,0l0,3.471L0,3.471Z" transform="translate(6.242 270.277) rotate(-45)" fill="#009fc9"/>
    <path id="パス_297" data-name="パス 297" d="M0,0,1.735,0l0,1.735L0,1.735Z" transform="translate(1.33 276.401) rotate(-45)" fill="#009fc9"/>
    <path id="パス_298" data-name="パス 298" d="M0,0,6.941.007l.007,6.941L.007,6.941Z" transform="translate(16.068 270.277) rotate(-45)" fill="#009fc9"/>
    <path id="パス_299" data-name="パス 299" d="M0,0,5.206.005l.005,5.206L.005,5.206Z" transform="translate(11.155 276.401) rotate(-45)" fill="#009fc9"/>
    <path id="パス_300" data-name="パス 300" d="M0,0,3.471,0l0,3.471L0,3.471Z" transform="translate(6.242 282.525) rotate(-45)" fill="#009fc9"/>
    <path id="パス_301" data-name="パス 301" d="M0,0,1.735,0l0,1.735L0,1.735Z" transform="translate(1.33 288.649) rotate(-45)" fill="#009fc9"/>
    <path id="パス_302" data-name="パス 302" d="M0,0,6.941.007l.007,6.941L.007,6.941Z" transform="translate(16.068 282.525) rotate(-45)" fill="#009fc9"/>
    <path id="パス_303" data-name="パス 303" d="M0,0,5.206.005l.005,5.206L.005,5.206Z" transform="translate(11.155 288.649) rotate(-45)" fill="#009fc9"/>
    <path id="パス_304" data-name="パス 304" d="M0,0,3.471,0l0,3.471L0,3.471Z" transform="translate(6.242 294.773) rotate(-45)" fill="#009fc9"/>
    <path id="パス_305" data-name="パス 305" d="M0,0,1.735,0l0,1.735L0,1.735Z" transform="translate(1.33 300.898) rotate(-45)" fill="#009fc9"/>
    <path id="パス_13" data-name="パス 13" d="M27.952,208.542l-6.141-6.125-6.14,6.125,6.14,6.125-6.14,6.123,6.14,6.125,6.141-6.125,6.141-6.123Z" transform="translate(5.31 67.859)" fill="#009fc9"/>
    <path id="パス_306" data-name="パス 306" d="M0,0,6.941.007l.007,6.941L.007,6.941Z" transform="translate(16.068 294.773) rotate(-45)" fill="#009fc9"/>
    <path id="パス_307" data-name="パス 307" d="M0,0,5.206.005l.005,5.206L.005,5.206Z" transform="translate(11.155 300.898) rotate(-45)" fill="#009fc9"/>
    <path id="パス_308" data-name="パス 308" d="M0,0,3.471,0l0,3.471L0,3.471Z" transform="translate(6.243 307.022) rotate(-45)" fill="#009fc9"/>
    <path id="パス_309" data-name="パス 309" d="M0,0,1.735,0l0,1.735L0,1.735Z" transform="translate(1.33 313.146) rotate(-45)" fill="#009fc9"/>
    <path id="パス_14" data-name="パス 14" d="M65.363,209.258h0l-6.859-6.84-6.141,6.123,6.141,6.125-6.141,6.123,6.141,6.125,6.14-6.125,6.141-6.123Z" transform="translate(17.745 67.859)" fill="#009fc9"/>
    <path id="パス_15" data-name="パス 15" d="M34.7,176.664a.928.928,0,0,1,.868,1.258,17.789,17.789,0,0,1-16.835,11.2,18.259,18.259,0,1,1-.047-36.516,18.056,18.056,0,0,1,16.9,11.406.923.923,0,0,1-.873,1.242H29.083a.905.905,0,0,1-.807-.473,10.931,10.931,0,0,0-9.639-5.944c-6.866,0-11.3,5.752-11.3,11.981,0,6.419,4.626,12.076,11.348,12.076a10.985,10.985,0,0,0,9.564-5.759.931.931,0,0,1,.8-.469Z" transform="translate(0.079 51.16)" fill="#0068b6"/>
    <path id="パス_16" data-name="パス 16" d="M29.474,187.368V154.025a.923.923,0,0,1,.924-.921h5.256a.923.923,0,0,1,.924.921v12.662a.538.538,0,0,0,.538.538H49.627a.538.538,0,0,0,.538-.538V154.025a.923.923,0,0,1,.924-.921h5.256a.923.923,0,0,1,.924.921v33.342a.923.923,0,0,1-.924.921H51.089a.923.923,0,0,1-.924-.921V173.991a.538.538,0,0,0-.538-.537H37.116a.538.538,0,0,0-.538.537v13.376a.923.923,0,0,1-.924.921H30.4a.923.923,0,0,1-.924-.921" transform="translate(9.988 51.327)" fill="#0068b6"/>
    <path id="パス_17" data-name="パス 17" d="M59.356,188.288H53.227a.727.727,0,0,1-.676-1L66.24,153.612A.815.815,0,0,1,67,153.1h5.139a.819.819,0,0,1,.76.514l13.37,33.675a.728.728,0,0,1-.679,1H79.4a.729.729,0,0,1-.684-.474l-2.3-6.172a.384.384,0,0,0-.359-.248H62.662a.383.383,0,0,0-.36.251l-2.26,6.165a.73.73,0,0,1-.686.478m9.462-25.561-4.345,12.379a.473.473,0,0,0,.447.629h8.814a.473.473,0,0,0,.446-.633l-4.469-12.379a.474.474,0,0,0-.893,0" transform="translate(17.79 51.327)" fill="#0068b6"/>
    <path id="パス_18" data-name="パス 18" d="M102.591,176.272l-.13-22.209a.955.955,0,0,1,.957-.96h4.9a.957.957,0,0,1,.957.955v33.266a.967.967,0,0,1-.968.965H103.5a.97.97,0,0,1-.807-.43L87.4,164.959a.366.366,0,0,0-.671.2l.13,22.164a.958.958,0,0,1-.959.963H81.005a.957.957,0,0,1-.957-.957V153.943a.839.839,0,0,1,.84-.84h5.048a.841.841,0,0,1,.7.377l15.283,23a.366.366,0,0,0,.671-.2" transform="translate(27.127 51.327)" fill="#0068b6"/>
    <path id="パス_19" data-name="パス 19" d="M132.741,164.063a1.028,1.028,0,0,1-.837-.442,11.337,11.337,0,0,0-2.322-2.458,10.683,10.683,0,0,0-6.771-2.33c-5.673,0-11.442,4.279-11.442,11.934,0,7.941,5.817,12.124,11.442,12.124a11.69,11.69,0,0,0,7.009-2.139,9.314,9.314,0,0,0,3.371-4.484.628.628,0,0,0-.588-.841h-11.3a1.021,1.021,0,0,1-1.023-1.02v-3.667a1.021,1.021,0,0,1,1.023-1.02H140.67a.984.984,0,0,1,.989.988,20.46,20.46,0,0,1-1.588,7.857c-3.29,7.324-10.87,10.555-17.211,10.555a18.253,18.253,0,0,1-18.594-18.353c0-10.508,8.391-18.163,18.689-18.163a18.67,18.67,0,0,1,16.654,10.013,1.02,1.02,0,0,1-.933,1.446Z" transform="translate(35.334 51.16)" fill="#0068b6"/>
    <path id="パス_20" data-name="パス 20" d="M135.373,153.1H153.2a.976.976,0,0,1,.977.975v4.279a.976.976,0,0,1-.977.975h-11.13a.574.574,0,0,0-.574.573v6.843a.573.573,0,0,0,.574.571h10.891a.977.977,0,0,1,.979.976v4.278a.977.977,0,0,1-.979.976H142.074a.573.573,0,0,0-.574.571v7.367a.573.573,0,0,0,.574.572H153.2a.977.977,0,0,1,.977.976v4.278a.976.976,0,0,1-.977.975H135.373a.976.976,0,0,1-.977-.975V154.078a.976.976,0,0,1,.977-.975" transform="translate(45.545 51.327)" fill="#0068b6"/>
    <path id="パス_21" data-name="パス 21" d="M71,209.757a.9.9,0,0,1,.905-.9h9.968c3.445,0,5.954.686,7.725,1.963,2.658,1.62,3.691,4.465,3.691,7.36a8.17,8.17,0,0,1-4.626,7.606,9.007,9.007,0,0,1,6.642,8.981,9.459,9.459,0,0,1-4.429,8.293c-2.557,1.765-4.722,2.11-9.2,2.11H71.909a.9.9,0,0,1-.905-.9Zm5.805,13.706a.457.457,0,0,0,.457.457h4.317a8.845,8.845,0,0,0,3.691-.59,4.619,4.619,0,0,0,2.458-4.465,4.532,4.532,0,0,0-2.458-4.269,8.463,8.463,0,0,0-3.84-.638H77.266a.456.456,0,0,0-.457.455Zm0,16.144a.456.456,0,0,0,.457.455h5.4a10.883,10.883,0,0,0,3.888-.589,5.554,5.554,0,0,0,0-10.06,10.426,10.426,0,0,0-4.38-.637H77.266a.456.456,0,0,0-.457.455Z" transform="translate(24.062 70.017)" fill="#0068b6"/>
    <path id="パス_22" data-name="パス 22" d="M94.034,208.854h4a.9.9,0,0,1,.906.9v29.851a.456.456,0,0,0,.457.455h11.48a.9.9,0,0,1,.905.9v3.3a.9.9,0,0,1-.905.9H93.99a.859.859,0,0,1-.861-.859V209.757a.9.9,0,0,1,.905-.9" transform="translate(31.56 70.017)" fill="#0068b6"/>
    <path id="パス_23" data-name="パス 23" d="M114.715,208.854a.9.9,0,0,1,.905.9v21.767c0,2.258,0,4.221,1.328,6.33a6.485,6.485,0,0,0,5.61,2.895,6.227,6.227,0,0,0,5.511-2.8c1.378-2.062,1.378-4.074,1.378-6.429V209.757a.9.9,0,0,1,.905-.9H134.3a.9.9,0,0,1,.906.9v21.767c.05,4.81-.738,8.489-3.936,11.14a12.571,12.571,0,0,1-8.66,3.189c-2.608,0-6.348-.736-8.809-3.141-3.591-3.189-4.034-6.771-3.985-11.188V209.757a.9.9,0,0,1,.905-.9Z" transform="translate(37.213 70.017)" fill="#0068b6"/>
    <path id="パス_24" data-name="パス 24" d="M134.865,208.854h18.56a.9.9,0,0,1,.905.9v3.3a.9.9,0,0,1-.905.9h-13.2a.456.456,0,0,0-.457.455v9.393a.457.457,0,0,0,.457.455h13.006a.9.9,0,0,1,.905.9v3.249a.9.9,0,0,1-.905.9H140.222a.457.457,0,0,0-.457.457v9.835a.456.456,0,0,0,.457.455h13.2a.9.9,0,0,1,.905.9v3.3a.9.9,0,0,1-.905.9h-18.56a.9.9,0,0,1-.905-.9V209.757a.9.9,0,0,1,.905-.9" transform="translate(45.397 70.017)" fill="#0068b6"/>
    <path id="パス_25" data-name="パス 25" d="M71.459,187h9.7a.454.454,0,0,1,.455.454V189.4a.454.454,0,0,1-.455.454h-6.68a.233.233,0,0,0-.233.232v5.456a.233.233,0,0,0,.233.232h6.57a.454.454,0,0,1,.454.454v1.916a.454.454,0,0,1-.454.454h-6.57a.233.233,0,0,0-.233.232v8a.454.454,0,0,1-.455.454H71.459a.455.455,0,0,1-.455-.454v-19.38a.455.455,0,0,1,.455-.454" transform="translate(24.062 62.69)" fill="#0068b6"/>
    <path id="パス_26" data-name="パス 26" d="M80.653,197.347a10.4,10.4,0,1,1,0,.027Zm3.216-.111a7.666,7.666,0,1,0,0-.027Z" transform="translate(27.332 62.593)" fill="#0068b6"/>
    <path id="パス_27" data-name="パス 27" d="M98.511,187.448a.451.451,0,0,1,.453-.451h5.293c3.189,0,4.839.438,5.911,1.179a6.515,6.515,0,0,1,2.694,5.483,6.82,6.82,0,0,1-1.154,3.866,5.4,5.4,0,0,1-3.694,2.178.162.162,0,0,0-.11.246l4.216,6.644a.452.452,0,0,1-.383.693h-2.36a.451.451,0,0,1-.386-.218s-5.1-8.377-5.2-8.534.028-.406.178-.406h.288c1.4,0,3.106-.055,4.069-.877a4.3,4.3,0,0,0,1.4-3.317A4.157,4.157,0,0,0,108,190.506a6.473,6.473,0,0,0-3.464-.657h-2.525a.251.251,0,0,0-.252.251v16.733a.453.453,0,0,1-.453.451H98.964a.452.452,0,0,1-.453-.451Z" transform="translate(33.384 62.69)" fill="#0068b6"/>
    <path id="パス_28" data-name="パス 28" d="M119.743,189.848h-3.955a.465.465,0,0,1-.466-.463v-1.924a.466.466,0,0,1,.466-.465h11.66a.464.464,0,0,1,.465.465v1.924a.464.464,0,0,1-.465.463h-3.955a.253.253,0,0,0-.253.252v16.72a.465.465,0,0,1-.465.463h-2.315a.465.465,0,0,1-.465-.463V190.1a.253.253,0,0,0-.253-.252" transform="translate(39.081 62.689)" fill="#0068b6"/>
    <path id="パス_29" data-name="パス 29" d="M126.551,206.82V187.46a.464.464,0,0,1,.465-.463h2.314a.465.465,0,0,1,.466.463V195.3a.248.248,0,0,0,.248.247h8.273a.248.248,0,0,0,.248-.247V187.46a.463.463,0,0,1,.465-.463h2.315a.463.463,0,0,1,.465.463v19.36a.463.463,0,0,1-.465.463h-2.315a.463.463,0,0,1-.465-.463v-8.172a.248.248,0,0,0-.248-.247h-8.273a.248.248,0,0,0-.248.247v8.172a.464.464,0,0,1-.466.463h-2.314a.464.464,0,0,1-.465-.463" transform="translate(42.886 62.69)" fill="#0068b6"/>
    <path id="パス_30" data-name="パス 30" d="M141.139,187h10.45a.464.464,0,0,1,.465.463v1.924a.464.464,0,0,1-.465.465h-7.421a.249.249,0,0,0-.25.247v5.262a.249.249,0,0,0,.25.247h7.313a.465.465,0,0,1,.465.465v1.9a.465.465,0,0,1-.465.463h-7.313a.249.249,0,0,0-.25.247v5.509a.249.249,0,0,0,.25.247h7.421a.463.463,0,0,1,.465.463v1.924a.464.464,0,0,1-.465.465h-10.45a.464.464,0,0,1-.465-.465V187.46a.464.464,0,0,1,.465-.463" transform="translate(47.672 62.69)" fill="#0068b6"/>
    <path id="パス_31" data-name="パス 31" d="M5.31,2.776a1.435,1.435,0,0,0-.619-.025.288.288,0,0,0-.2.246.43.43,0,0,1-.206.1c-.131.02-.209.259-.252.343a2.132,2.132,0,0,1-.141.235l-.276.344s-.07.083-.052.151a.574.574,0,0,1-.087.307c-.037.051-.411.622-.473.754s-.376.957-.41,1.044A6.008,6.008,0,0,0,2.4,7c-.056.2-.845,3.287-.845,3.528s-.087.379-.126,1.168-.091,1.122-.12,1.355c-.013.227-.313,5.684-.284,6.021.037.359,0,.537.02.745s.025.534.025.872.06,5.934.052,6.145-.359.473.072.718c0,0,.079.029.079.191s-.143.291-.056.355a.142.142,0,0,1,.019.218c-.059.08-.08.171.037.244s.035.226,0,.318-.056.21.021.266a1.184,1.184,0,0,1,0,.762c-.1.218-.189.645-.078.78s.019.19-.04.239-.3.17-.055.578a1.234,1.234,0,0,1,.008.81.1.1,0,0,0-.008.168c.114.105-.052.3-.052.4s.052.1,0,.174c-.025.077-.349.228-.008.55,0,0-.037.34-.037.411s-.4.347-.029.359a.656.656,0,0,1-.071.385c-.083.151-.185.206-.07.264a.184.184,0,0,1,.05.263c-.13.175-.165.323-.063.381.083.061-.024.187-.024.187a.179.179,0,0,0,.087.3,2.7,2.7,0,0,1,0,.443c-.05.244-.248,3.764-.26,4.015S.35,44.275.373,44.629s-.023.4-.023.4.122.16-.013.259L.3,45.6l-.153,2.5s.153.231.068.361c-.068.132-.2.3-.02.322l.02.835-.02.134s-.285.194.051.264l-.031.134s-.339.206.036.323c0,0,0,.287-.1.324-.125.039.1,5.405.1,5.405s.427,6.35.963,7.523c0,0,0,.226.13.243,0,0,.059.3.082.453s.553,2.438.827,3.211v.311s-.071.2.175.5a2.458,2.458,0,0,1,.139.692,1.684,1.684,0,0,0,.21.924,1.064,1.064,0,0,1,.269.558c.031.24-.1.29.149.357,0,0,.076.581.076.9a1.384,1.384,0,0,0,.272.943c.218.24.07.645.345,1.023a3.544,3.544,0,0,1,.475.917c.158.315.681,1.526.85,1.738a.609.609,0,0,1,.173.34.646.646,0,0,0,.088.268c.083.093.483.608.578.716s.039.26.216.39c.175.146-.031.349.208.382,0,0,0,.159.114.174a.365.365,0,0,1,.17.072l.208.347c.037.06-.08.338.213.359a4.974,4.974,0,0,0,.284.584,2.845,2.845,0,0,0,.249.307c.06.06.035.31.134.31s.1.163.1.163a10.054,10.054,0,0,0,1.18,1.749c.361.291.151.168.151.168s.028.308.266.362c0,0,.023.1.042.156a4.558,4.558,0,0,0,.388.453s.153,0,.153.246c0,0,.8,1.007,1.042,1.323a34.169,34.169,0,0,0,3.523,3.78s.167.132.167.242.3.236.3.236.173-.191.212.067a.44.44,0,0,0,.182.346l.169.067a7.869,7.869,0,0,0,.736.541c.106.031.262.111.273.22s.13.123.26.175a.694.694,0,0,1,.244.259.935.935,0,0,0,.364.214,3.612,3.612,0,0,1,.723.47c.1.077.153.052.181.142.019.069.019.188.075.188a3.98,3.98,0,0,1,.56.206,4.158,4.158,0,0,1,.748.493c.091.135.327.118.42.174a.705.705,0,0,1,.228.195,7.211,7.211,0,0,0,.8.49,7.863,7.863,0,0,0,.823.3,3.28,3.28,0,0,1,.714.353.587.587,0,0,0,.387.191s.1.079.189.16a1.424,1.424,0,0,0,.388.123,2.221,2.221,0,0,1,.738.29c.183.148.274.3.474.263.183-.039.36-.069.427.039s.453.111.5.111.078.126.189.171a.29.29,0,0,0,.217-.017,2.26,2.26,0,0,0,.6.187c.324.067.461.067.493.163s.226.035.344.071c.1.017,1.222.378,1.617.457s1.549.355,1.8.434a6.72,6.72,0,0,0,.856.091c.12.023.351.195.541.254s.2-.147.281-.116a1.494,1.494,0,0,1,.272.116c.138.056,2.257.164,2.986.206a4.443,4.443,0,0,1,1.21.152.471.471,0,0,0,.309.072c.212,0,.961.043.961.043s.06.28.428.036h.139c.13,0,.727.021.8.033a.462.462,0,0,0,.424.02h.312c.074,0,1.858-.089,2.162-.105s3.231-.272,3.677-.308a15.673,15.673,0,0,0,2.036-.287,54.7,54.7,0,0,0,7.34-2.386s.187-.156.308-.083.49-.24,1.18-.522a.548.548,0,0,1,.353-.04c.181.04.4-.3.439-.519.042-.242.313,0,.431-.052a5.735,5.735,0,0,0,.655-.571s.316-.15.525-.263a12.235,12.235,0,0,0,1.41-1.171s.5-.2.5-.418l4.413-3.757s.036-.3.266-.267.809-.756.92-.756,1.064-.646,1.143-1.136a12.187,12.187,0,0,1,.842-.939,76.266,76.266,0,0,0,5.607-7.409,3.764,3.764,0,0,0,.486-.879,16.623,16.623,0,0,1,1.035-1.426.8.8,0,0,1,.234-.389c.11-.068,1.978-4.43,2.324-5.348.345-.9,1.869-5.15,1.983-5.875s.194-.535.233-.566.791-2.051.924-2.433c.106-.367.906-4.158.906-4.158a2.12,2.12,0,0,0,.193-.275c.108-.182,0-.717.075-.867s.193-.459.193-.459a1.751,1.751,0,0,1,0-.486c.032-.155.723-4.071.8-4.25.084-.2.154-.761.233-1.11s.76-5.906.834-6.107a1.72,1.72,0,0,0,.157-.489c.039-.223.273-4.927.376-5.691s.43-3.139.5-3.528a1.44,1.44,0,0,1,.185-.522c.02-.043,0-.1,0-.2,0-.039.082-.072.082-.113s-.062-.115-.055-.163a2.706,2.706,0,0,1,.1-.662c.058-.2.264-.808.264-.808s.037-.391.078-.673c.037-.254.416-1.855.538-2.318a11.126,11.126,0,0,1,.262-1.1.55.55,0,0,0,.171-.27c.043-.164-.129-.252-.059-.367a1.6,1.6,0,0,0,.151-.343c.078-.151-.007-.184.042-.383a7.581,7.581,0,0,0,.305-1.107,3.772,3.772,0,0,1,.08-.9c.083-.284.175-.757.376-.913s.042-.262.115-.494.119-1.167.186-1.321a1.7,1.7,0,0,0,.274-.762,9.93,9.93,0,0,1,.032-1.481c.076-.228.27-.374.27-.485a1.71,1.71,0,0,1,0-.688,23.87,23.87,0,0,0,.347-2.7,19.088,19.088,0,0,0,.031-2.919c-.08-.637-.149-1.059-.149-1.059a1.812,1.812,0,0,1-.119-.306c-.076-.312-.147-.717-.2-.831a14.006,14.006,0,0,0-.6-1.708c-.15-.23-.607-1.13-.688-1.321s-.458-.5-.5-.608c0,0,0-.2-.1-.266a.849.849,0,0,1-.179-.1c-.052-.041-.352-.283-.53-.394a1.09,1.09,0,0,0-.545-.146s-.578-.19-.993.569a4.512,4.512,0,0,0,.115,1.92,8.864,8.864,0,0,1,.232,1.541.192.192,0,0,1-.019.107.29.29,0,0,0,.046.438s.121.084-.027.212-.111.2-.1.284-.015.208-.237.3-.21.075-.459-.028-.582-.565-.783-.848-.071-.363-.116-.571a1.111,1.111,0,0,0-.288-.5.52.52,0,0,1-.233-.276c-.06-.163-.663-1.338-.823-1.634a1.567,1.567,0,0,1-.26-.579c-.028-.126-.11-.146-.139-.2s-.785-1.194-.9-1.3a2.488,2.488,0,0,1-.418-.629,1.23,1.23,0,0,0-.245-.33c-.046-.072-1.285-1.267-1.392-1.351s-.094-.119-.141-.147-.774-.541-.9-.609a2.045,2.045,0,0,0-.731-.135A1.272,1.272,0,0,0,76.856.9s-.13.151-.088.721a.427.427,0,0,0-.012.267c.068.123.21.578.268.693a4.4,4.4,0,0,1,.269.451,4.325,4.325,0,0,1,.12.684c.009.2.051.2.072.223a2.16,2.16,0,0,1,.406.555c.165.315.361,1.055.457,1.27s.38.7.479.927a7.661,7.661,0,0,1,.392,1.255c.008.252.123.929.1,1.091-.036.18.019.381-.388.457a.692.692,0,0,1-.639-.127,15.184,15.184,0,0,1-1.162-1.078c-.111-.163-1.09-1.087-1.193-1.2s-.589-.71-.787-.9-1.018-.957-1.194-1.14-.708-.8-.76-.893,0-.095-.368-.322-.225-.3-.337-.421a6.247,6.247,0,0,0-.906-.81c-.349-.191-.744-.507-.827-.551s-.076-.192-.123-.215-.142-.041-.189-.1c-.042-.04-.1-.127-.159-.191a.657.657,0,0,0-.25-.131c-.052-.024-.2,0-.293-.036-.064-.044-.357-.311-.394-.353a1.458,1.458,0,0,0-.224-.095c-.091-.019-.287-.212-.47-.224a1.421,1.421,0,0,0-.884.048c-.38.17-.4.219-.4.219a1.2,1.2,0,0,1-.19.052c-.032.017-.015.2-.059.26s-.189.159-.086.282-.027.2-.088.228a.511.511,0,0,0-.189.348,1.492,1.492,0,0,0,.319.462c.112.178,0,.175.088.29.106.107.965,1.333,1.034,1.482a8.639,8.639,0,0,0,.609.844c.187.208.553.656.605.688.05.049.092.175.158.251s.166.071.246.186c.063.1.058.244.122.331s.091.057.2.091a.709.709,0,0,1,.348.263c.084.123.639.852.765,1.04.134.2.287.533.351.628s.256.044.256.3a1.912,1.912,0,0,0,.228.267c.074.057.165.251.232.318s.348.486.478.608a.948.948,0,0,1,.22.435c.074.19.229.578.287.716a2.852,2.852,0,0,1,.051.851.546.546,0,0,1-.414.4c-.2.017-.487-.2-.578-.2a.546.546,0,0,1-.252.007c-.072-.029-.072-.239-.145-.286-.076-.067-.281-.037-.384-.072s-.3-.262-.361-.327a8.345,8.345,0,0,1-.691-.581c-.062-.089-.062-.17-.163-.254s-.1-.214-.174-.263a2.111,2.111,0,0,0-.3-.12.952.952,0,0,1-.2-.276,3.389,3.389,0,0,0-.474-.522c-.068-.047-.376-.379-.439-.438s-.765-.661-.845-.749c-.071-.071-.035-.118-.115-.174s-.15-.045-.2-.076a1.985,1.985,0,0,1-.332-.316c-.042-.064-.068-.17-.15-.215a.411.411,0,0,0-.233-.06c-.13,0-.261-.147-.309-.2a4.263,4.263,0,0,0-.388-.332c-.043-.04-.043-.132-.1-.215s-.261-.12-.261-.12-.779-.4-.86-.459c0,0-.173-.146-.229-.191s-.13-.035-.2-.061a4.408,4.408,0,0,1-.546-.383,1.4,1.4,0,0,0-.4-.1,3.8,3.8,0,0,1-.5-.1.691.691,0,0,0-.608.115,1.411,1.411,0,0,0-.411.406,2.842,2.842,0,0,1-.15.339c-.032.047-.171.235-.088.342s.06.224.088.323c0,.1.071.616.1.764s.1.207.1.251a.5.5,0,0,0,.115.292c.068.1.586.827.724.98s.451.65.624.823.273.267.264.307a.332.332,0,0,0,.149.256c.067.025.12.115.161.18s.1.039.177.1.165.328.246.41a.9.9,0,0,1,.2.28c.028.075.38.359.458.458s.08.3.125.369a.345.345,0,0,0,.232.214.675.675,0,0,1,.253.168c.071.077.071.23.125.3a3.423,3.423,0,0,0,.511.625c.194.172.613.793.756.949s.042.224.123.282a.538.538,0,0,1,.182.138,3.119,3.119,0,0,1,.435.784,1.7,1.7,0,0,1,.048.821,2.121,2.121,0,0,1-.376.447.441.441,0,0,1-.319.119,1.82,1.82,0,0,1-.471.008.947.947,0,0,1-.191-.095c-.082-.045-.53-.071-.639-.109s-1.1-.462-1.2-.518-.356-.065-.53-.12-.925-.5-1.076-.539a8.457,8.457,0,0,0-1.118-.343,2.219,2.219,0,0,0-.811,0,1.461,1.461,0,0,0-.455.252c-.059.061-.2.279-.236.316a.388.388,0,0,1-.177.076c-.058,0-.141.172-.15.307s-.082.308-.087.414a1.669,1.669,0,0,0,.1.571,1.164,1.164,0,0,1,.161.475.869.869,0,0,0,.08.387,1.221,1.221,0,0,0,.208.258c.08.075.49.733.607.872a.718.718,0,0,1,.142.267,5.181,5.181,0,0,0,.554.584A12,12,0,0,1,63.112,21.5c.149.186.316.363.4.466s1.006.9,1.283,1.151c.277.226,1.3,1.114,1.533,1.321s.841.971,1.038,1.2a16.537,16.537,0,0,1,.9,1.391,5.034,5.034,0,0,1,.269.538c.067.1.157.146.2.235.058.108.57,1.147.649,1.349s.222.585.232.661.161.276.2.39.549,1.268.6,1.394a1.51,1.51,0,0,1,.115.39.749.749,0,0,0,.122.256,8.342,8.342,0,0,1,.432,1.1c.086.316.086.562.126.652a3.885,3.885,0,0,1,.159.522c.016.152.4,1.442.42,1.76.044.33.2,1.56.232,1.708s0,.449.028.55a2.98,2.98,0,0,1,.1.5c.011.2.084,1.373.112,1.562,0,.195.07,1.767.067,1.881a.228.228,0,0,1-.067.182c0,.041-.135.109.02.246a1.576,1.576,0,0,1,.047.266c0,.075-.047,1.407-.056,1.572s-.072,1.083-.087,1.329-.1.891-.115,1.015-.051.128-.072.369c0,.238-.036.6-.05.718s-.11.493-.116.621c-.027.12-.027.441-.062.547s-.179.248-.2.311a1.8,1.8,0,0,1-.108.256.261.261,0,0,0,.044.307.131.131,0,0,1,0,.231c-.066.036-.166.239-.066.351s.063.188.039.227-.166.108-.054.236a.311.311,0,0,1,.029.374c-.029.037-.142,0-.181.077s.09.144.146.251.005.174-.051.238-.257.138-.2.186.074.049.074.147a.246.246,0,0,1-.074.21c-.031.035-.1.06-.1.143a1.811,1.811,0,0,1-.019.24c-.016.065.047.146.031.207s-.012.1-.07.116a.129.129,0,0,0-.137.095,2.493,2.493,0,0,0-.066.43c-.04.1-.04.132-.071.155s-.075.027-.09.079a1.174,1.174,0,0,1-.033.215.452.452,0,0,0-.033.311c.017.14.033.18.116.246a.219.219,0,0,1,.013.242c-.048.025-.166.085-.185.135s.011.359-.024.409-.157.156-.157.194c0,.053,0,.071.051.1.031.035,0,.192-.023.219a.419.419,0,0,1-.1.14c-.036.027-.174.076-.063.146.094.048.071.091.058.142-.031.056-.114.479-.151.586s-.347,1.154-.465,1.435c-.1.279-.6,1.529-.688,1.736-.1.212-.422.984-.477,1.116a3.583,3.583,0,0,1-.27.422c-.033.068-.585,1.147-.653,1.277s-.482,1.013-.541,1.086a1.7,1.7,0,0,0-.112.422,1.51,1.51,0,0,1-.178.393,7.971,7.971,0,0,0-.471.693,2.906,2.906,0,0,0-.186.355c-.031.089,0,.179-.05.242-.042.083-.058.083-.1.17a1.046,1.046,0,0,0-.15.382,4.513,4.513,0,0,1-.406.614.8.8,0,0,0-.091.26c-.033.053-.143.142-.175.2s-.039.139-.07.215-.218.3-.25.385c-.056.088-.063.18-.127.306s-.877,1.354-.987,1.552-.424.6-.509.718c0,0-.5.636-.589.786a4.726,4.726,0,0,0-.518.757c-.023.174-.114.226-.158.319-.068.077-1.034.905-1.157,1.044a3.727,3.727,0,0,1-.336.344,1.2,1.2,0,0,0-.276.184c-.059.061-2.888,2.378-3.069,2.5S55.53,78.4,55.4,78.472a3.477,3.477,0,0,1-.392.324c-.154.1-.644.381-.826.5s-1.327.656-1.552.765-1.848.6-2.1.692a4.086,4.086,0,0,1-.752.2,3.02,3.02,0,0,1-.37.028,2.508,2.508,0,0,0-.545.188c-.166.051-1.755.386-2.107.427s-1.521.208-1.741.226-5.54.113-5.819.095-1.075-.037-1.19-.069-.217-.1-.288-.112-1.9-.053-2.01-.069-1.434-.195-1.651-.236a8.157,8.157,0,0,0-.87-.175c-.157-.035-.762-.191-.959-.2a8.789,8.789,0,0,1-.952-.124c-.112-.048-.122-.115-.226-.134s-.387-.1-.548-.138c-.145-.04-.983-.4-1.149-.491s-.77-.443-.921-.482a3.093,3.093,0,0,1-.485-.207,8.406,8.406,0,0,0-.985-.467,2.655,2.655,0,0,1-.4-.214,4.553,4.553,0,0,0-.653-.3,2.613,2.613,0,0,1-.517-.31c-.025-.032-.074-.16-.135-.174s-.273-.089-.273-.089a.746.746,0,0,0-.269-.239.735.735,0,0,1-.317-.22c-.075-.051-1.506-1.138-1.8-1.378s-1.7-1.5-1.9-1.763c-.166-.251-1.138-1.465-1.264-1.644a1.152,1.152,0,0,1-.161-.393.46.46,0,0,0-.163-.26c-.086-.095-.7-1.174-.758-1.239s-.056-.3-.1-.332a2.946,2.946,0,0,1-.261-.29.879.879,0,0,1-.15-.346c-.017-.1-.141-.131-.141-.286a.406.406,0,0,0-.178-.378s-.13-.168-.13-.24-.087-.134-.143-.19a.8.8,0,0,1-.194-.343,1.928,1.928,0,0,0-.157-.458,2.321,2.321,0,0,0-.3-.473.6.6,0,0,1-.2-.328,2.118,2.118,0,0,0-.031-.453c-.028-.081-.137-.282-.163-.371-.023-.119-.625-1.491-.739-1.892s-.811-2.731-.864-3c-.058-.3-.357-1.872-.357-1.969s-.067-.426-.052-.511a3.3,3.3,0,0,0-.035-.7,1.659,1.659,0,0,1-.1-.431,3.249,3.249,0,0,0-.116-.535,3.264,3.264,0,0,1-.139-.382c-.015-.076-.062-.672-.062-.672s.1-.045.092-.081a.48.48,0,0,0-.092-.105,2.9,2.9,0,0,1-.037-.334c0-.087-.116-.98-.129-1.142s-.017-1.82-.017-1.9-.035-.1.029-.134c.048-.021.043-.271,0-.39a1.91,1.91,0,0,1-.11-.506c.021-.123-.005-.681-.005-.766s-.043-2.225-.031-2.493.1-1.346.1-1.391a.173.173,0,0,1,.071-.144c.059-.039-.056.016-.056-.095s.056-.984.078-1.194c.037-.218.27-1.442.307-1.7a2.839,2.839,0,0,1,.161-.766c.072-.109.139,0,.139-.422,0,0,.163-.142.131-.287a.373.373,0,0,1,.076-.286.5.5,0,0,0,.11-.188c.063-.142,0-.55.04-.648s.726-2.512.864-2.9.6-1.385.707-1.694a3.2,3.2,0,0,1,.142-.557,1.1,1.1,0,0,1,.2-.178c.1-.056-.008-.194.04-.244a1.832,1.832,0,0,1,.222-.375c.108-.083.029-.115.015-.179a1.658,1.658,0,0,1,.145-.4s.091.012.122-.195a15.184,15.184,0,0,1,.536-1.435,15.713,15.713,0,0,1,.743-1.433,9.385,9.385,0,0,0,.506-.841c.108-.154.455-.793.585-.961a8.183,8.183,0,0,1,.8-1.048c.22-.2.56-.624.694-.736.151-.112.4-.346.507-.417a3.468,3.468,0,0,1,.661-.511,2.653,2.653,0,0,0,.609-.593s.347-.4.454-.417.378.064.311-.206a.081.081,0,0,1,.067-.107c.1-.016.331-.3.424-.3a.356.356,0,0,0,.265-.085c.062-.084-.216-.183.056-.26a2.033,2.033,0,0,0,.6-.346s-.047-.235.046-.251a3.173,3.173,0,0,1,.412-.052c.137,0,.242.052.27-.052s-.139-.3.06-.28.305-.021.434-.286c.107-.251.166-.081.244-.168s.137-.284.268-.344A1,1,0,0,1,27,23.229c.146,0,.244,0,.312-.252a.436.436,0,0,0,.157-.033c.068-.027.084-.027.137-.183a.473.473,0,0,1,.284-.3c.135-.069,1.35-1,1.568-1.138s.866-.678.957-.7c.064-.015.129-.055.222-.079s.191-.236.281-.236a.579.579,0,0,0,.2-.056s.048-.124.139-.14.17.016.2-.039.012-.234.129-.286.319-.262.4-.27c.1-.011.139-.011.154-.071a1.877,1.877,0,0,1,.011-.288,2.91,2.91,0,0,1,.4-.383.278.278,0,0,0,.146-.186c.015-.053,0-.187.06-.262A1.489,1.489,0,0,0,33,17.681a1.869,1.869,0,0,0-.131-.872,1.149,1.149,0,0,0-.668-.519c-.312-.052-.557-.1-.589-.113-.048-.017-.071-.071-.191-.056a1.358,1.358,0,0,0-.254.067c-.1.032-.439.115-.68.167-.225.036-.436.123-.524.13s-.147-.007-.245.075a1.653,1.653,0,0,1-.253.21c-.056.028-.274.017-.4.041a.486.486,0,0,0-.252.108.476.476,0,0,1-.229.111c-.071.016-.507.032-.645.063s-.284.138-.412.143c0,0-.332.067-.443.095-.107.012-.336.14-.47.15a1.053,1.053,0,0,1-.653-.1c-.371-.156-.529-.236-.557-.311a4.135,4.135,0,0,1-.091-.688c.035-.13.035-.1,0-.151a.154.154,0,0,1,0-.2,4.121,4.121,0,0,0,.307-.474,2.65,2.65,0,0,1,.357-.513c.094-.13.084-.27.308-.426s.116-.3.116-.3a.714.714,0,0,1,.111-.195c.063-.081.645-.979.839-1.22.177-.242.612-.849.71-.953.1-.12.017-.2.1-.29.088-.105.209-.254.253-.314s.009-.178.078-.268.064-.085.245-.25a2.827,2.827,0,0,0,.537-.732c.121-.208.328-.567.436-.765a.934.934,0,0,0,.149-.47c.023-.178.023-.178.078-.266s.005-.216,0-.312c-.017-.08-.017-.3-.163-.414a1.332,1.332,0,0,0-.573-.367,2.6,2.6,0,0,0-.941-.1.7.7,0,0,0-.489.211c-.115.068-.507.366-.615.435s-.8.733-.916.812a1.914,1.914,0,0,0-.265.21c-.036.071-.036.134-.083.179-.029.045-.81.645-1,.806a9.032,9.032,0,0,1-.766.62c-.116.073-.154.073-.284.152a3.366,3.366,0,0,0-.361.449.419.419,0,0,1-.246.069c-.08-.013-.13-.095-.127.057s-.266.319-.309.366-1.018.714-1.1.769a.785.785,0,0,1-.3.123,2.139,2.139,0,0,1-.556-.041c-.07-.041-.181-.339-.208-.136,0,0,.031.055-.08.056a.4.4,0,0,1-.28-.083,1,1,0,0,1-.218-.369,1.121,1.121,0,0,1,.047-.633c.078-.211.084-.328.154-.475.08-.124.285-.47.422-.685s.288-.529.335-.585.074-.182.092-.246c.035-.067.137-.13.252-.283s.42-.642.493-.789c.1-.15.143-.413.274-.473.114-.064.114-.12.158-.228s.376-.6.473-.744.157-.33.245-.5a4.008,4.008,0,0,1,.366-.685,8.267,8.267,0,0,1,.574-.82.794.794,0,0,0,.183-.29c.025-.06.005-.287.071-.318s.1-.15.1-.255c.025-.088-.035-.4.025-.463s.159-.148.179-.259a1.175,1.175,0,0,0-.037-.517,2.559,2.559,0,0,0-.376-.609,1.464,1.464,0,0,0-.779-.5,4.138,4.138,0,0,1-.625-.12.56.56,0,0,0-.343.027,1.065,1.065,0,0,1-.316.159.769.769,0,0,0-.324.136c-.08.079-.719.733-.787.832a5.209,5.209,0,0,0-.333.439,17.107,17.107,0,0,1-1.242,1.457A.764.764,0,0,0,19.108,5c-.067.206-.023.15-.1.223-.075.093-.218.063-.321.251a5.42,5.42,0,0,1-.412.64s-.672.649-.756.757a1.359,1.359,0,0,0-.134.284c-.063.087-.542.53-.629.668-.067.128-.047.238-.112.311s-.817.984-.963,1.146a2.358,2.358,0,0,1-.671.585.505.505,0,0,1-.6-.167,1.093,1.093,0,0,1-.317-.713,5.985,5.985,0,0,1,.157-1.051c.079-.3.493-1.568.584-1.772s.751-1.641.861-1.852.229-.418.278-.566a4.376,4.376,0,0,0,.162-.479,2.67,2.67,0,0,1,.274-.522c.035-.045.13.007.174-.231a1.867,1.867,0,0,1,.278-.547s.175-.307.23-.406.143-.315.078-.454a.307.307,0,0,1,0-.284c.028-.075.015-.263-.2-.461A.959.959,0,0,0,16.037,0a2.069,2.069,0,0,0-.778.14.3.3,0,0,0-.241.207,2.014,2.014,0,0,1-.411.39c-.15.1-.969.873-1.076.991s-.577.592-.647.672c-.05.065-.091.163-.146.226s-.894.983-1,1.124-.116.3-.183.383-.611.911-.712,1.045a3.543,3.543,0,0,0-.414.617.4.4,0,0,0-.066.2c0,.1-.068.15-.146.259-.062.115-.569.948-.635,1.058s-.086.17-.145.194a.4.4,0,0,0-.135.227c-.043.08-.561.889-.645,1a2.136,2.136,0,0,1-.684.545,2.356,2.356,0,0,1-.8-.162,2.3,2.3,0,0,1-.594-.57c-.1-.148-.24-.394-.309-.475s-.067-.147-.052-.282a.728.728,0,0,0-.015-.4,1.863,1.863,0,0,1-.059-.562,12.537,12.537,0,0,1,.118-1.275,7.51,7.51,0,0,0,.046-.875c.009-.092.064-.092.075-.2A2.173,2.173,0,0,0,6.341,4.1c-.017-.073-.052-.127-.017-.182s.082-.087.06-.195a2.383,2.383,0,0,0-.165-.346,1.467,1.467,0,0,0-.45-.417,2.324,2.324,0,0,0-.459-.187" transform="translate(0.027 0)" fill="#0068b6"/>
    <path id="パス_32" data-name="パス 32" d="M22.2,25.735s-1.312.641-1.409.681a1.839,1.839,0,0,0-.328.113s-.826.551-1.034.681a10.513,10.513,0,0,0-.918.664,1.118,1.118,0,0,0-.281.338c-.031.084-.078.109-.2.191a1.25,1.25,0,0,0-.293.224,9.186,9.186,0,0,0-.861,1.06,4.15,4.15,0,0,0-.245.511c-.012.076.012.227-.04.3a1.24,1.24,0,0,0-.254.539,2.25,2.25,0,0,0,.043.61,2.385,2.385,0,0,0,.34.848.579.579,0,0,0,.273.164c.1.024.129.095.208.168a.618.618,0,0,0,.4.16,1.4,1.4,0,0,0,.477-.061c.137-.048.366-.108.473-.139s.44-.222.612-.318a1.638,1.638,0,0,0,.394-.306,8.913,8.913,0,0,0,.594-.7c.151-.163.542-.617.72-.762s.558-.5.7-.6a5.054,5.054,0,0,1,.719-.423c.111-.031.258-.147.428-.222a4.564,4.564,0,0,1,1.007-.3,1.956,1.956,0,0,0,.407-.092,6.691,6.691,0,0,1,1.022-.12c.28,0,.679-.1.969-.079a2.473,2.473,0,0,1,.722.151c.175.059.25.158.366.19s.367.084.542.158a6.091,6.091,0,0,1,.71.342c.249.16.743.4.9.514a1.3,1.3,0,0,0,.447.235,3.636,3.636,0,0,0,.937.053,1.235,1.235,0,0,0,.885-.582s.15-.015.046-.851-.046-.665-.138-.927a.859.859,0,0,0-.311-.413,5.2,5.2,0,0,1-.649-.593.985.985,0,0,0-.237-.276c-.13-.081-.343-.3-.423-.3a.294.294,0,0,1-.173-.031c-.05-.025-.055-.132-.179-.184s-.284-.168-.391-.212c-.084-.047-.084-.113-.217-.113A.616.616,0,0,1,28.648,26c-.111-.047-.379-.262-.462-.262a.743.743,0,0,1-.252-.024c-.044-.039-.116-.151-.214-.176s-.727-.047-.886-.084c-.173-.015-.351-.1-.526-.108a7.773,7.773,0,0,0-.965.031,1.715,1.715,0,0,1-.414-.031,5.271,5.271,0,0,0-1.122.063,1.884,1.884,0,0,1-.387.179c-.123.017-.645.041-.81.069s-.252.036-.411.081" transform="translate(5.534 8.493)" fill="#0068b6"/>
    <path id="パス_33" data-name="パス 33" d="M23.175,30.957a.873.873,0,0,0-.522.009,3.607,3.607,0,0,1-.45.131c-.114.007-.149.132-.241.18s-.11.113-.213.123a.491.491,0,0,0-.305.1,2.144,2.144,0,0,0-.252.353c-.058.105-.224.487-.316.733a1.775,1.775,0,0,0-.145.487c-.008.123-.048.438-.048.621a1.854,1.854,0,0,0,.13.816,1.747,1.747,0,0,0,.475.506c.2.152.461.354.582.429a.659.659,0,0,0,.534.1c.1-.045.208.025.293.072a.464.464,0,0,0,.323.1c.133-.013.329-.13.465-.16a.945.945,0,0,1,.348-.04.262.262,0,0,0,.241-.068,1.46,1.46,0,0,1,.317-.215c.1-.035.23-.071.265-.167.059-.091.175-.31.218-.367s.088-.2.165-.254a2.164,2.164,0,0,0,.214-.327.923.923,0,0,0,.058-.224c0-.059.047-.283.047-.451s.043-.336-.047-.446a3.477,3.477,0,0,0-.173-.407,2.43,2.43,0,0,1-.185-.319,1.273,1.273,0,0,1-.072-.308.426.426,0,0,0-.15-.357,2.067,2.067,0,0,0-.528-.244c-.171-.061-.317-.127-.449-.18a1.307,1.307,0,0,0-.321-.134.5.5,0,0,1-.161-.017.294.294,0,0,0-.1-.073" transform="translate(7.009 10.366)" fill="#0068b6"/>
    <path id="パス_34" data-name="パス 34" d="M50.53,25.094a6.319,6.319,0,0,1-.7-.044c-.22-.048-1.391.02-1.525.02a.794.794,0,0,1-.378-.049.458.458,0,0,0-.372.049,4.19,4.19,0,0,1-.8.075,2.276,2.276,0,0,1-.556.027.56.56,0,0,0-.364.024c-.189.073-1.2.263-1.388.324s-.221.025-.427.077-.356.072-.457.113-1.281.438-1.421.529-.258.039-.378.162a1.814,1.814,0,0,1-.359.239s-.361.148-.517.194-.123-.015-.3.1a2.966,2.966,0,0,0-.483.327,2.094,2.094,0,0,1-.19.21c-.06.059-.673.378-.882.529s-.568.411-.708.5-.751.644-.963.825c-.191.187-.605.538-.719.668s-.316.378-.378.423c-.05.065-.193.031-.173.1.028.043.094.162-.02.162a.253.253,0,0,0-.214.1,3.2,3.2,0,0,0-.234.286c-.039.079-.283.4-.345.5-.059.122-.11.212-.175.212-.056.021-.126,0-.126.122a.315.315,0,0,1-.1.244c-.043.051-.253.354-.313.407a1.327,1.327,0,0,0-.234.271,1.784,1.784,0,0,1-.135.346c-.09.164-.68,1.084-.748,1.239s-.216.314-.22.363c-.028.06.017.23-.09.276a.375.375,0,0,0-.24.211c-.035.084-.035.184-.075.278-.035.109-.127.122-.158.172a1.154,1.154,0,0,0-.149.284,1.735,1.735,0,0,1-.248.5c-.052.092-.171.2-.19.254a.85.85,0,0,1,0,.255c-.05.088-.234.136-.241.239s.029.206,0,.274-.151.179-.232.3a1.044,1.044,0,0,0-.088.535.417.417,0,0,1-.122.342,1.905,1.905,0,0,0-.2.49c-.091.254-.418,1.337-.471,1.64a2.37,2.37,0,0,1-.146.592c-.076.115-.111.13-.13.228a2.518,2.518,0,0,0-.131.417,1.357,1.357,0,0,1,.037.22c0,.081-.1.214-.134.319a.968.968,0,0,0-.048.43,1.036,1.036,0,0,1-.043.442,1.934,1.934,0,0,0-.142.385,1.042,1.042,0,0,1,.05.362c-.024.21-.114.612-.131.77s-.135,1.22-.118,1.406c0,.183.118,1.074.153,1.369a1.979,1.979,0,0,1,.009.39c.027.08.115.168.087.243s-.21.195.054.236a.668.668,0,0,1,.166.19.932.932,0,0,0,.245.24c.111.075.321.234.455.312a.657.657,0,0,0,.34.136c.135.017.206-.063.328-.063a.8.8,0,0,0,.3,0,1.256,1.256,0,0,0,.562-.33,2.526,2.526,0,0,0,.341-.514c.1-.179.246-.479.321-.646a2.324,2.324,0,0,1,.216-.429,1.18,1.18,0,0,0,.178-.479c.037-.156.24-.932.312-1.235.063-.326.137-.786.157-.929.031-.164.1-.469.123-.553.007-.067.05-.152.115-.414s.082-.7.133-.889.1-.219.145-.425a3.741,3.741,0,0,1,.068-.636c.072-.158.351-.913.414-1.12s.213-.649.258-.885a8.81,8.81,0,0,1,.392-1.289,1,1,0,0,0,.159-.393,1.99,1.99,0,0,1,.166-.479,5.1,5.1,0,0,0,.257-.441c.052-.093.025-.322.174-.41s.158-.206.213-.328.242-.357.308-.515a4.991,4.991,0,0,1,.332-.713,1.308,1.308,0,0,0,.162-.266.567.567,0,0,1,.147-.27s.13-.19.181-.28a1.883,1.883,0,0,0,.213-.29c.086-.084.134-.254.194-.3s.078-.112.11-.112.191-.091.166-.219.11-.236.162-.292a3.282,3.282,0,0,1,.317-.481,2.8,2.8,0,0,1,.406-.45c.091-.055.13-.152.212-.175s.141.007.193-.041a.544.544,0,0,1,.126-.167c.116-.1.327-.338.422-.434s.281-.374.368-.381.067.056.2.024.2-.105.3-.128a2.835,2.835,0,0,0,.367-.238c.108-.071,1.068-.733,1.287-.863a9.626,9.626,0,0,1,.988-.51,4.49,4.49,0,0,1,.511-.175c.145-.02.114-.084.217-.084a.727.727,0,0,0,.295-.032.71.71,0,0,1,.238-.191c.127-.035.794-.219,1.084-.275a13.061,13.061,0,0,1,1.49-.31c.287,0,1.018-.041,1.142-.045s.083,0,.155.025.866.015,1.11.015,1.024-.04,1.177-.051a.449.449,0,0,1,.272.065c.076.037.091.037.281.037a9.116,9.116,0,0,0,1.042-.021,1.949,1.949,0,0,0,.9-.358.984.984,0,0,0,.273-.5c.012-.064.047-.105.058-.183a.375.375,0,0,0-.058-.19c-.023-.053,0-.442-.023-.506s-.158-.186-.25-.314-.21-.282-.262-.347c-.062-.044-.319-.3-.406-.366s-.253-.057-.3-.088a.715.715,0,0,1-.226-.2.312.312,0,0,0-.209-.075,5,5,0,0,1-.554-.06,2.376,2.376,0,0,1-.347-.16c-.072-.025-.225-.076-.283-.016s-.024.076-.147.085-.138.024-.2-.024a.6.6,0,0,0-.236-.077" transform="translate(10.095 8.382)" fill="#0068b6"/>
    <path id="パス_35" data-name="パス 35" d="M41.22,31.335a1.28,1.28,0,0,0-.212.3,3.36,3.36,0,0,1-.193.282,1.193,1.193,0,0,0-.194.346c-.046.151-.145.39-.17.457s-.157.256-.2.336a.989.989,0,0,0-.1.4,2.107,2.107,0,0,0,.143.63,2.4,2.4,0,0,0,.234.473c.092.095.032.126.115.2a2.629,2.629,0,0,1,.246.27c.068.088.138.239.182.3a.282.282,0,0,0,.147.109c.084.024.185.024.265.045a2.58,2.58,0,0,0,.274.131,1.537,1.537,0,0,0,.376.093c.078.013.145.023.213.04a1.754,1.754,0,0,0,.45.041,1.558,1.558,0,0,0,.549-.136c.181-.06.313-.191.394-.2a1.433,1.433,0,0,0,.324-.178c.107-.061.157-.176.246-.226s.189-.071.26-.151a.625.625,0,0,0,.145-.224c.024-.044.024-.318.04-.369a2.773,2.773,0,0,0,.118-.26c.048-.105.1-.292.122-.315.042-.035.007-.1.071-.128.039-.02.159-.107.017-.191,0,0-.047-.223-.017-.256a.416.416,0,0,0,.017-.3c-.082-.159-.082-.228-.12-.284a.944.944,0,0,1-.171-.254,1.136,1.136,0,0,0-.138-.275c-.04-.053-.461-.463-.538-.525a1.023,1.023,0,0,0-.191-.2c-.075-.023-.186-.023-.28-.053s-.082-.065-.181-.085a1.585,1.585,0,0,0-.268-.024c-.11-.031-.232-.093-.361-.135a1.519,1.519,0,0,0-.355-.119.727.727,0,0,0-.3.059,1.524,1.524,0,0,0-.34.076c-.078.048-.171.119-.26.186s-.173.013-.357.122" transform="translate(13.607 10.357)" fill="#0068b6"/>
    <path id="パス_36" data-name="パス 36" d="M25.783,48.968a4.275,4.275,0,0,0-.771,0c-.162.044-.142.131-.22.146a1.364,1.364,0,0,0-.422.068c-.088.06-.43.248-.54.324a.706.706,0,0,0-.21.2,2.133,2.133,0,0,0-.158.855,5.233,5.233,0,0,1,.09.738c-.043.1,0,.168.084.228.08.084.106.2.226.226s.15-.021.26.043a.616.616,0,0,1,.19.195,6.226,6.226,0,0,0,.771.565,11.183,11.183,0,0,0,1.058.5,5.971,5.971,0,0,0,.848.306c.143.053.127.126.234.126a1.1,1.1,0,0,1,.408.029c.114.064.278.2.391.21.1.019.178-.056.27.019s.078.175.218.186.53-.061.672-.041.491.041.639.069a.759.759,0,0,1,.268.1c.094.029,1.963.029,2.268.029a3.732,3.732,0,0,0,.655-.016,2.635,2.635,0,0,1,.386-.1c.119,0,.262.055.436.055s.2,0,.3-.065a.432.432,0,0,1,.283-.069.552.552,0,0,1,.248.041c.106.028.307-.061.407-.076s1.221-.151,1.458-.2.47-.008.546-.076a.367.367,0,0,1,.284-.166.368.368,0,0,0,.269-.127c.08-.055.261-.055.43-.13s.675-.283,1.054-.422c.359-.142.778-.369,1.093-.525a4,4,0,0,1,.479-.258.762.762,0,0,1,.264-.105,1.31,1.31,0,0,0,.467-.238,2.429,2.429,0,0,0,.491-.483,2.1,2.1,0,0,1,.424-.527c.078-.057.173-.1.212-.214s.011-.259.046-.31a.438.438,0,0,0,.119-.331,1.539,1.539,0,0,0-.052-.6,1.49,1.49,0,0,0-.217-.417,1.456,1.456,0,0,0-.319-.216c-.037-.027-.115-.073-.167-.036s-.126.1-.173.065a.171.171,0,0,1-.078-.128.191.191,0,0,0-.209-.13,1.583,1.583,0,0,1-.32,0c-.088-.015-.088-.044-.212-.044a1.741,1.741,0,0,0-.348.055c-.123.037-.592.037-.723.059a3.628,3.628,0,0,0-.419.123c-.185.065-.738.271-1,.393-.285.126-.633.276-.893.417s-.831.383-1.044.5a4.9,4.9,0,0,1-.454.216c-.121.012-.357.045-.521.08-.179.031-.76.176-.943.2a8.6,8.6,0,0,1-1.178.138c-.229,0-1.459-.017-1.778-.017a6.9,6.9,0,0,1-1.123-.128c-.232-.052-.983-.166-1.272-.231-.278-.045-1.046-.276-1.443-.4s-.846-.219-1.142-.336-.609-.236-.892-.339" transform="translate(7.949 16.171)" fill="#0068b6"/>
    <path id="パス_37" data-name="パス 37" d="M104.4,19.74a1.226,1.226,0,0,0,1.234-1.227v-3a1.228,1.228,0,0,0-1.234-1.228H84.989a1.231,1.231,0,0,0-1.226,1.228v3a1.229,1.229,0,0,0,1.226,1.227Z" transform="translate(28.386 4.789)" fill="#0068b6"/>
    <path id="パス_38" data-name="パス 38" d="M118.1,0H76.826A1.227,1.227,0,0,0,75.6,1.228V42.38a1.229,1.229,0,0,0,1.228,1.226H118.1a1.226,1.226,0,0,0,1.224-1.226V1.228A1.225,1.225,0,0,0,118.1,0m-4.239,37.54a.617.617,0,0,1-.616.614H81.681a.622.622,0,0,1-.621-.614V6.067a.62.62,0,0,1,.621-.613h31.564a.615.615,0,0,1,.616.613Z" transform="translate(25.619 0)" fill="#0068b6"/>
    <path id="パス_39" data-name="パス 39" d="M146.453,69.562a1.233,1.233,0,0,1-1.236,1.227H142.2a1.22,1.22,0,0,1-1.216-1.227V55.049a.624.624,0,0,0-.623-.613h-14.55a1.228,1.228,0,0,1-1.232-1.223v-3a1.229,1.229,0,0,1,1.232-1.226h19.4a1.234,1.234,0,0,1,1.236,1.226Z" transform="translate(42.22 16.422)" fill="#0068b6"/>
    <path id="パス_40" data-name="パス 40" d="M131.867,63.508a3.641,3.641,0,1,1-3.638-3.637,3.642,3.642,0,0,1,3.638,3.637" transform="translate(42.22 20.071)" fill="#0068b6"/>
    <path id="パス_41" data-name="パス 41" d="M158.915,40.824H117.65a1.224,1.224,0,0,0-1.226,1.226V83.2a1.225,1.225,0,0,0,1.226,1.22h41.264a1.224,1.224,0,0,0,1.229-1.22V42.05a1.223,1.223,0,0,0-1.229-1.226m-4.24,37.538a.606.606,0,0,1-.616.613H122.5a.612.612,0,0,1-.613-.613V46.882a.611.611,0,0,1,.613-.608h31.56a.605.605,0,0,1,.616.608Z" transform="translate(39.454 13.686)" fill="#0068b6"/>
    <path id="パス_42" data-name="パス 42" d="M97.461,66.849a1.219,1.219,0,0,1-1.224,1.223H93.23A1.225,1.225,0,0,1,92,66.849V46.883a.611.611,0,0,0-.619-.608H76.827a1.233,1.233,0,0,1-1.229-1.23v-3a1.225,1.225,0,0,1,1.229-1.226h19.41a1.22,1.22,0,0,1,1.224,1.226Z" transform="translate(25.619 13.686)" fill="#0068b6"/>
    <path id="パス_43" data-name="パス 43" d="M112.4,42.048a1.22,1.22,0,0,0-1.222-1.224h-3.007a1.22,1.22,0,0,0-1.233,1.224v3.613a.612.612,0,0,1-.615.613H97.236A1.216,1.216,0,0,0,96.015,47.5V50.5a1.22,1.22,0,0,0,1.221,1.227h13.946A1.225,1.225,0,0,0,112.4,50.5Z" transform="translate(32.538 13.686)" fill="#0068b6"/>
    <path id="パス_44" data-name="パス 44" d="M82.825,81.689a1.228,1.228,0,0,0,.866-.355l9.866-9.845a.416.416,0,0,0,.123-.29.406.406,0,0,0-.414-.409H81.681a.621.621,0,0,1-.621-.614V65.953a.62.62,0,0,1,.621-.617H85.3a1.227,1.227,0,0,0,1.225-1.223v-3A1.23,1.23,0,0,0,85.3,59.894H81.681a.624.624,0,0,1-.621-.616V55.049a.622.622,0,0,1,.621-.613H85.3a1.232,1.232,0,0,0,1.225-1.222v-3A1.234,1.234,0,0,0,85.3,48.986H76.826A1.23,1.23,0,0,0,75.6,50.212v24.8a1.226,1.226,0,0,0,1.228,1.23h3.249a.409.409,0,0,1,.41.414.436.436,0,0,1-.115.287l-4.064,4.054a.409.409,0,0,0,.292.7Z" transform="translate(25.619 16.422)" fill="#0068b6"/>
    <path id="パス_45" data-name="パス 45" d="M105.409,76.539a1.221,1.221,0,0,1-1.233-1.22V69.731a1.183,1.183,0,0,1,.367-.868l4.4-4.393a.391.391,0,0,1,.291-.124.406.406,0,0,1,.408.415V75.319a1.223,1.223,0,0,1-1.224,1.22Z" transform="translate(35.304 21.572)" fill="#0068b6"/>
    <path id="パス_46" data-name="パス 46" d="M114.9,60.2a1.2,1.2,0,0,0,.357-.869V54.3a1.227,1.227,0,0,0-1.222-1.227h-3.007A1.228,1.228,0,0,0,109.8,54.3v2.781a1.211,1.211,0,0,1-.361.864L87.7,79.625a.4.4,0,0,0-.118.286.407.407,0,0,0,.408.41h6.229a1.23,1.23,0,0,0,.873-.355Z" transform="translate(29.679 17.791)" fill="#0068b6"/>
    <path id="パス_47" data-name="パス 47" d="M149.219,33.923a1.227,1.227,0,0,0-1.236-1.219H141.63a.616.616,0,0,1-.616-.618V11.508a.615.615,0,0,1,.616-.612h17.285a1.221,1.221,0,0,0,1.229-1.222v-3a1.227,1.227,0,0,0-1.229-1.224H141.63a.615.615,0,0,1-.616-.616V1.228A1.229,1.229,0,0,0,139.781,0h-3.006a1.222,1.222,0,0,0-1.222,1.227v3.61a.617.617,0,0,1-.613.616H117.651a1.229,1.229,0,0,0-1.228,1.224v3a1.223,1.223,0,0,0,1.228,1.222H134.94a.617.617,0,0,1,.613.612V32.086a.638.638,0,0,1-.613.618h-6.357a1.225,1.225,0,0,0-1.232,1.223v3a1.227,1.227,0,0,0,1.232,1.231h6.357a.624.624,0,0,1,.613.609V42.38a1.225,1.225,0,0,0,1.222,1.226h3.006a1.232,1.232,0,0,0,1.233-1.226V38.764a.607.607,0,0,1,.616-.609h6.353v-.008a1.235,1.235,0,0,0,1.236-1.23Z" transform="translate(39.454 0)" fill="#0068b6"/>
    <path id="パス_48" data-name="パス 48" d="M129.723,20.518a1.219,1.219,0,0,0,.356-.868V13.437a.4.4,0,0,0-.4-.4.422.422,0,0,0-.295.113l-12.6,12.567a1.251,1.251,0,0,0-.357.871V32.8a.4.4,0,0,0,.408.406.409.409,0,0,0,.287-.119Z" transform="translate(39.454 4.37)" fill="#0068b6"/>
    <path id="パス_49" data-name="パス 49" d="M139.238,20.518a1.215,1.215,0,0,1-.37-.868l.011-6.213a.4.4,0,0,1,.408-.4.368.368,0,0,1,.279.113l12.612,12.567a1.254,1.254,0,0,1,.36.871V32.8a.4.4,0,0,1-.411.406.376.376,0,0,1-.284-.119Z" transform="translate(47.06 4.37)" fill="#0068b6"/>
    <path id="パス_50" data-name="パス 50" d="M74.083,123.955s-7.376,0-7.491-.009a7.321,7.321,0,0,1,.34-14.636h7.151a1.909,1.909,0,1,1,0,3.819H66.932a3.5,3.5,0,0,0-.158,7c.064,0,7.309,0,7.309,0a1.909,1.909,0,1,1,0,3.817" transform="translate(20.193 36.646)" fill="#0068b6"/>
    <path id="パス_51" data-name="パス 51" d="M127.371,98.547l-16.456,17.345h0a3.881,3.881,0,0,0-.366.439,3.825,3.825,0,0,0,6.271,4.38,3.937,3.937,0,0,0,.4-.742h0Z" transform="translate(37.23 33.037)" fill="#0068b6"/>
    <path id="パス_52" data-name="パス 52" d="M152.826,116.332a3.769,3.769,0,0,0-.366-.439h0L136.008,98.547l10.141,21.424h0a3.823,3.823,0,0,0,5.734,1.68,3.812,3.812,0,0,0,.941-5.317" transform="translate(46.091 33.037)" fill="#0068b6"/>
    <path id="パス_53" data-name="パス 53" d="M15.021,95.27a5.469,5.469,0,1,1-5.468-5.453,5.462,5.462,0,0,1,5.468,5.453" transform="translate(1.384 30.111)" fill="#0068b6"/>
    <path id="パス_54" data-name="パス 54" d="M10.937,109.605a5.469,5.469,0,1,1-5.468-5.454,5.46,5.46,0,0,1,5.468,5.454" transform="translate(0 34.916)" fill="#0068b6"/>
    <path id="パス_55" data-name="パス 55" d="M26.5,79.665a5.471,5.471,0,0,0-6.67,3.9,5.4,5.4,0,0,0-.17,1.146h-.011v21.357L30.01,87.4,30,87.4a5.441,5.441,0,0,0-3.5-7.736" transform="translate(6.658 26.648)" fill="#0068b6"/>
    <path id="パス_56" data-name="パス 56" d="M15.787,140.279h0l-.005-26.227L3.064,137a6.831,6.831,0,1,0,12.723,3.274" transform="translate(0.717 38.235)" fill="#0068b6"/>
    <path id="パス_57" data-name="パス 57" d="M62.363,94.586a2.732,2.732,0,0,0-2.73-2.727H30.1a2.727,2.727,0,1,0,0,5.453H59.633a2.73,2.73,0,0,0,2.73-2.727" transform="translate(9.274 30.795)" fill="#0068b6"/>
    <path id="パス_58" data-name="パス 58" d="M69.142,100.713a2.735,2.735,0,1,0-5.388.652h0l2.656,10.4,2.659-10.4h-.005a2.681,2.681,0,0,0,.082-.652" transform="translate(21.578 32.849)" fill="#0068b6"/>
    <path id="パス_59" data-name="パス 59" d="M98.322,105.337a5.468,5.468,0,1,1-5.467-5.453,5.461,5.461,0,0,1,5.467,5.453" transform="translate(29.614 33.486)" fill="#e50012"/>
    <path id="パス_60" data-name="パス 60" d="M63.23,135.452a2.726,2.726,0,0,0-.349.025H60.018a.614.614,0,0,1-.615-.613V124.144a.613.613,0,0,1,.615-.613h3.216a2.727,2.727,0,1,0,0-5.454H60.018a.614.614,0,0,1-.615-.613V103.3a3.278,3.278,0,0,0-3.282-3.273H40.8a2.727,2.727,0,1,0,0,5.454H52.226a.615.615,0,0,1,.615.614v11.367a.615.615,0,0,1-.615.613h-6.98a.615.615,0,0,1-.615-.613v-3.2a3.281,3.281,0,0,0-6.562,0v3.2a.614.614,0,0,1-.616.613H30.488a.613.613,0,0,1-.613-.613h0V104.239a3.281,3.281,0,0,0-6.562,0v13.224a.616.616,0,0,1-.616.613H19.47a2.727,2.727,0,1,0,0,5.454H22.7a.615.615,0,0,1,.616.613v13.515a3.276,3.276,0,0,0,3.28,3.271H52.226a.615.615,0,0,1,.615.614v7.022a3.282,3.282,0,0,0,6.563,0v-7.022a.614.614,0,0,1,.615-.614H63.23v-.024a2.727,2.727,0,1,0,0-5.454m-18.6-8.1v-3.2a.615.615,0,0,1,.615-.613h6.98a.614.614,0,0,1,.615.613v10.721a.615.615,0,0,1-.615.613H30.488a.613.613,0,0,1-.613-.613h0V124.145h0a.612.612,0,0,1,.613-.613h6.966a.613.613,0,0,1,.616.613v3.2h0a3.281,3.281,0,0,0,6.562,0" transform="translate(5.672 33.534)" fill="#0068b6"/>
    <path id="パス_61" data-name="パス 61" d="M110.9,91.076v-.029a3.276,3.276,0,0,0-3.28-3.271H90.12A2.729,2.729,0,0,0,87.386,90.5a2.577,2.577,0,0,0,2.548,2.727c.062,0,.123-.005.186-.009v.009h13.629a.615.615,0,0,1,.616.613v34.29a3.28,3.28,0,0,0,6.561,0V91.076Z" transform="translate(29.614 29.426)" fill="#0068b6"/>
    <path id="パス_62" data-name="パス 62" d="M98.772,125.951h-13.6a.615.615,0,0,1-.616-.614V91.048a3.281,3.281,0,0,0-6.562,0v37.085a3.276,3.276,0,0,0,3.282,3.271h17.5a2.727,2.727,0,1,0,0-5.453" transform="translate(26.43 29.426)" fill="#0068b6"/>
    <path id="パス_63" data-name="パス 63" d="M155.521,93.756H139.1a.613.613,0,0,1-.537-.606V89.14a3.281,3.281,0,0,0-6.562,0v4.01a.612.612,0,0,1-.537.606H115.054a2.727,2.727,0,1,0,0,5.453H131.39a.615.615,0,0,1,.616.614v20.7a.613.613,0,0,1-.577.61H124.9a2.727,2.727,0,1,0,0,5.453h6.534a.612.612,0,0,1,.576.609v4.3h0a3.281,3.281,0,0,0,6.562,0h0v-4.3a.612.612,0,0,1,.576-.609h6.535a2.727,2.727,0,1,0,0-5.453h-6.532a.613.613,0,0,1-.578-.61v-20.7a.615.615,0,0,1,.616-.614h16.337a2.727,2.727,0,1,0,0-5.453" transform="translate(38.063 28.786)" fill="#0068b6"/>
    <path id="パス_64" data-name="パス 64" d="M110.939,128.192h0a1.642,1.642,0,0,0-3.284,0v9.837a1.647,1.647,0,0,1-3.063.835h0a1.641,1.641,0,0,0-3.071.805,1.583,1.583,0,0,0,.213.808v.013a4.937,4.937,0,0,0,9.206-2.461Z" transform="translate(34.403 42.425)" fill="#0068b6"/>
    <path id="パス_65" data-name="パス 65" d="M94.168,126.059a8.855,8.855,0,1,0,8.877,8.854,8.867,8.867,0,0,0-8.877-8.854m0,14.43a5.575,5.575,0,1,1,5.584-5.576,5.586,5.586,0,0,1-5.584,5.576" transform="translate(28.901 42.261)" fill="#0068b6"/>
    <path id="パス_66" data-name="パス 66" d="M140.651,138.192a1.649,1.649,0,0,0-1.273.6,5.571,5.571,0,1,1-.005-7.767v0a1.641,1.641,0,1,0,2.46-2.167v0a8.854,8.854,0,1,0,.092,12.029l0,0a1.64,1.64,0,0,0-1.271-2.683" transform="translate(42.864 42.261)" fill="#0068b6"/>
    <path id="パス_67" data-name="パス 67" d="M66.163,126.551H61.227a1.637,1.637,0,0,0-1.639,1.641V141.3a1.642,1.642,0,1,0,3.284,0V130.486a.671.671,0,0,1,.668-.656h2.623a1.638,1.638,0,1,1,0,3.277,1.64,1.64,0,1,0,0,3.281,4.918,4.918,0,1,0,0-9.837" transform="translate(20.193 42.425)" fill="#0068b6"/>
    <path id="パス_68" data-name="パス 68" d="M149.929,126.551h-6.579a1.64,1.64,0,1,0,0,3.279h.972a.672.672,0,0,1,.671.672l0,.013v10.791a1.644,1.644,0,0,0,3.288,0V130.521l0-.016a.673.673,0,0,1,.673-.673h.968a1.64,1.64,0,1,0,0-3.279" transform="translate(48.021 42.425)" fill="#0068b6"/>
    <path id="パス_69" data-name="パス 69" d="M118.386,136.388h4.1a1.372,1.372,0,0,0,.178.009,1.638,1.638,0,1,0,0-3.277v-.012H118.4a.672.672,0,0,1-.66-.67l0-.011V130.5a.673.673,0,0,1,.675-.669h4.256a1.64,1.64,0,1,0,0-3.281h-6.571a1.645,1.645,0,0,0-1.65,1.641v13.113h0a1.643,1.643,0,0,0,1.65,1.64h6.571a1.638,1.638,0,1,0,0-3.277h-4.25l-.009,0a.673.673,0,0,1-.672-.656v-1.969a.673.673,0,0,1,.653-.654" transform="translate(38.783 42.425)" fill="#0068b6"/>
    <path id="パス_70" data-name="パス 70" d="M83.009,140.7,83,140.679l-.007-.019-1.714-4.123,0-.012a.669.669,0,0,1,.216-.809,4.912,4.912,0,0,0-2.476-9.165H74.081a1.643,1.643,0,0,0-1.646,1.641v13.113a1.643,1.643,0,0,0,3.286,0V130.486a.67.67,0,0,1,.668-.654h2.624a1.638,1.638,0,1,1,.008,3.277h-.265a1.642,1.642,0,0,0-1.641,1.641,1.6,1.6,0,0,0,.137.654h0l2.7,6.489a.543.543,0,0,0,.037.088l.007.024h0a1.645,1.645,0,0,0,3.132-.7,1.663,1.663,0,0,0-.12-.61Z" transform="translate(24.547 42.425)" fill="#0068b6"/>
  </g>
</svg>
