<svg xmlns="http://www.w3.org/2000/svg" width="289.76" height="25.6" viewBox="0 0 289.76 25.6">
  <g id="グループ_509" data-name="グループ 509" transform="translate(-456 -1419.88)">
    <rect id="長方形_367" data-name="長方形 367" width="80" height="1" transform="translate(665.76 1432)" fill="#017a94"/>
    <path id="パス_672" data-name="パス 672" d="M-38.9-3.4a3.837,3.837,0,0,0,.34,1.86,1.981,1.981,0,0,0,1.32.82,14.336,14.336,0,0,0,3.1.24q.12,0,.12.24t-.12.24q-1.64,0-2.56-.04l-3.48-.04-2.68.04Q-43.62,0-44.9,0q-.08,0-.08-.24t.08-.24a8.851,8.851,0,0,0,2.22-.2,1.344,1.344,0,0,0,.94-.78,4.94,4.94,0,0,0,.24-1.78V-21.76a4.768,4.768,0,0,0-.24-1.76,1.409,1.409,0,0,0-.94-.78,8.077,8.077,0,0,0-2.22-.22q-.08,0-.08-.24t.08-.24l2,.04q1.68.08,2.68.08t2.24-.12q.48,0,1.52-.06t1.8-.06a9.7,9.7,0,0,1,5.9,1.64,5.81,5.81,0,0,1,2.22,5,7.383,7.383,0,0,1-1.3,4.44,7.938,7.938,0,0,1-3.32,2.68,10.362,10.362,0,0,1-4.18.88,7.908,7.908,0,0,1-1.96-.2q-.12,0-.12-.2a.533.533,0,0,1,.06-.24q.06-.12.14-.08a5.948,5.948,0,0,0,1.44.16,6.25,6.25,0,0,0,4.46-1.72,6.5,6.5,0,0,0,1.82-4.96,6.957,6.957,0,0,0-1.72-4.98,5.787,5.787,0,0,0-4.4-1.82,9.532,9.532,0,0,0-2.08.16,1.33,1.33,0,0,0-.92.74,4.824,4.824,0,0,0-.28,1.94Zm24.96-12.4a3.217,3.217,0,0,1,1.68.48,1.371,1.371,0,0,1,.8,1.16,1.234,1.234,0,0,1-.34.88,1.284,1.284,0,0,1-.98.36,1.29,1.29,0,0,1-.62-.14,4.641,4.641,0,0,1-.62-.42,3.213,3.213,0,0,0-.68-.48,1.682,1.682,0,0,0-.76-.16,1.851,1.851,0,0,0-1.1.44,14.713,14.713,0,0,0-1.82,1.88v8.56a3.9,3.9,0,0,0,.3,1.76,1.667,1.667,0,0,0,1.1.78,10.169,10.169,0,0,0,2.48.22q.16,0,.16.24T-14.5,0q-1.28,0-2.04-.04L-19.5-.08l-2.2.04q-.52.04-1.44.04-.12,0-.12-.24t.12-.24a4.354,4.354,0,0,0,1.6-.22,1.2,1.2,0,0,0,.7-.78,6.246,6.246,0,0,0,.18-1.76v-7.92a4.418,4.418,0,0,0-.32-1.96,1.125,1.125,0,0,0-1.08-.6,7.011,7.011,0,0,0-2.16.6h-.08a.224.224,0,0,1-.22-.18.191.191,0,0,1,.1-.26l4.64-2.2.24-.04q.36,0,.76.92a5.962,5.962,0,0,1,.4,2.36v.04a17.535,17.535,0,0,1,2.6-2.62A3.155,3.155,0,0,1-13.94-15.8Zm9.04-4.68a1.806,1.806,0,0,1-1.3-.44,1.635,1.635,0,0,1-.46-1.24A1.635,1.635,0,0,1-6.2-23.4a1.806,1.806,0,0,1,1.3-.44,1.677,1.677,0,0,1,1.24.44,1.677,1.677,0,0,1,.44,1.24,1.677,1.677,0,0,1-.44,1.24A1.677,1.677,0,0,1-4.9-20.48ZM-8.26,0q-.08,0-.08-.24t.08-.24A4.526,4.526,0,0,0-6.64-.7a1.263,1.263,0,0,0,.74-.8,5.68,5.68,0,0,0,.2-1.74v-7.48A5.255,5.255,0,0,0-6-12.8a1.043,1.043,0,0,0-1.02-.64,4.133,4.133,0,0,0-1.8.56h-.04q-.16,0-.24-.2t.04-.28l5.2-2.4.16-.04a.348.348,0,0,1,.2.1.286.286,0,0,1,.12.22q0,.28-.04,1.6t-.04,3.12v7.52a5.652,5.652,0,0,0,.2,1.76,1.268,1.268,0,0,0,.72.78,4.354,4.354,0,0,0,1.6.22q.12,0,.12.24T-.94,0q-.92,0-1.48-.04L-4.58-.08l-2.16.04Q-7.3,0-8.26,0ZM11.78-14.64q.16-.28-.2-.28a31.643,31.643,0,0,0-4.8.28A5.907,5.907,0,0,0,4.1-13.62a4.438,4.438,0,0,0-1.44,2.26q0,.08-.16.08a.42.42,0,0,1-.22-.06q-.1-.06-.06-.1L3.58-16.6q.04-.08.26-.06t.18.1a1.041,1.041,0,0,0-.04.32.622.622,0,0,0,.44.64,4.984,4.984,0,0,0,1.52.16h8.48a.346.346,0,0,1,.28.16.287.287,0,0,1,.04.32L5.3-.88q-.16.28.2.28a44.468,44.468,0,0,0,5.58-.24A4.123,4.123,0,0,0,13.5-1.86a6.884,6.884,0,0,0,1.36-2.7q.04-.08.24-.08t.2.08L15.22-.44a.507.507,0,0,1-.1.3.306.306,0,0,1-.26.14H2.5a.3.3,0,0,1-.26-.16.308.308,0,0,1-.02-.32ZM31.1-2.24a.277.277,0,0,1,.22.14.213.213,0,0,1,.02.26A8.646,8.646,0,0,1,25.5.48,7.039,7.039,0,0,1,21.54-.6a7.047,7.047,0,0,1-2.5-2.84,8.452,8.452,0,0,1-.86-3.76,8.664,8.664,0,0,1,1.12-4.34,8.283,8.283,0,0,1,3.06-3.12,8.256,8.256,0,0,1,4.26-1.14,4.655,4.655,0,0,1,3.44,1.2,4.542,4.542,0,0,1,1.2,3.36,2.274,2.274,0,0,1-.1.8.347.347,0,0,1-.34.24l-9.92.04q-.08.88-.08,1.44a9.079,9.079,0,0,0,1.64,5.64,5.443,5.443,0,0,0,4.6,2.16,5.917,5.917,0,0,0,2.06-.32,10.82,10.82,0,0,0,1.94-1ZM25.3-15a3.813,3.813,0,0,0-2.84,1.14,5.862,5.862,0,0,0-1.48,3.18l7.6-.16a4.747,4.747,0,0,0-.88-3.1A2.954,2.954,0,0,0,25.3-15Zm11.8,2a2.824,2.824,0,0,0,.92,2.22A13.522,13.522,0,0,0,40.7-9.04,23.335,23.335,0,0,1,42.88-7.8a4.826,4.826,0,0,1,1.34,1.36,3.594,3.594,0,0,1,.56,2.04A4.5,4.5,0,0,1,43.26-.96,5.845,5.845,0,0,1,39.14.44,6.557,6.557,0,0,1,35.3-.76a.538.538,0,0,1-.24-.48l-.08-3.12q0-.12.22-.14t.26.1a7.31,7.31,0,0,0,1.98,3.04A4.218,4.218,0,0,0,40.26-.32a2.816,2.816,0,0,0,2-.64,2.247,2.247,0,0,0,.6-1.88,3.123,3.123,0,0,0-.94-2.34,11.743,11.743,0,0,0-2.7-1.7,18.235,18.235,0,0,1-2.1-1.16A4.594,4.594,0,0,1,35.8-9.4a3.771,3.771,0,0,1-.54-2.08,3.785,3.785,0,0,1,1.62-3.3,6.467,6.467,0,0,1,3.82-1.14,6.975,6.975,0,0,1,2.92.6.549.549,0,0,1,.3.18.5.5,0,0,1,.06.26q0,.8-.04,1.24l-.04,1.68q0,.08-.24.08t-.24-.08a2.379,2.379,0,0,0-.64-1.58,4.633,4.633,0,0,0-1.6-1.18,4.574,4.574,0,0,0-1.92-.44,2.227,2.227,0,0,0-1.58.54A2.109,2.109,0,0,0,37.1-13Z" transform="translate(600.98 1445)" fill="#017a94"/>
    <rect id="長方形_366" data-name="長方形 366" width="80" height="1" transform="translate(456 1432)" fill="#017a94"/>
  </g>
</svg>
