<?xml version="1.0" encoding="utf-8"?>
<!-- Generator: Adobe Illustrator 26.3.1, SVG Export Plug-In . SVG Version: 6.00 Build 0)  -->
<svg version="1.1" id="レイヤー_1" xmlns="http://www.w3.org/2000/svg" xmlns:xlink="http://www.w3.org/1999/xlink" x="0px"
	 y="0px" viewBox="0 0 582.7 104.4" style="enable-background:new 0 0 582.7 104.4;" xml:space="preserve">
<style type="text/css">
	.st0{fill:none;stroke:#FFFFFF;stroke-width:3;}
	.st1{fill:#FFFFFF;}
</style>
<g id="グループ_751" transform="translate(-487.666 -923.814)">
	<line id="線_1" class="st0" x1="469" y1="924.5" x2="522" y2="1027.5"/>
	<g>
		<path class="st1" d="M516.9,941.9c0,1.3-0.2,2.5-0.7,3.6c-0.4,1.1-1.1,2.1-1.9,2.9c-1,1-2.2,1.8-3.6,2.3c-1.4,0.5-3.1,0.8-5.2,0.8
			h-3.9v10.8h-3.9v-29.1h7.9c1.7,0,3.2,0.1,4.4,0.4s2.3,0.8,3.2,1.4c1.1,0.7,2,1.7,2.6,2.8C516.6,938.8,516.9,940.2,516.9,941.9z
			 M512.9,942c0-1-0.2-1.9-0.5-2.6c-0.4-0.7-0.9-1.3-1.6-1.8c-0.6-0.4-1.3-0.7-2.1-0.9s-1.8-0.3-3-0.3h-3.8v11.6h3.3
			c1.6,0,2.8-0.1,3.8-0.4c1-0.3,1.8-0.7,2.4-1.3c0.6-0.6,1-1.3,1.3-2C512.8,943.6,512.9,942.9,512.9,942z"/>
		<path class="st1" d="M535.3,944.4h-0.2c-0.5-0.1-1.1-0.2-1.6-0.3c-0.5-0.1-1.1-0.1-1.8-0.1c-1.1,0-2.2,0.3-3.3,0.8
			c-1.1,0.5-2.1,1.1-3,1.9v15.5h-3.7v-21.8h3.7v3.2c1.5-1.2,2.7-2,3.9-2.5s2.2-0.7,3.4-0.7c0.6,0,1.1,0,1.4,0c0.3,0,0.7,0.1,1.3,0.2
			V944.4z"/>
		<path class="st1" d="M557,951.7H541c0,1.3,0.2,2.5,0.6,3.5c0.4,1,1,1.8,1.7,2.5c0.7,0.6,1.5,1.1,2.4,1.4c0.9,0.3,2,0.5,3.1,0.5
			c1.5,0,3-0.3,4.5-0.9c1.5-0.6,2.6-1.2,3.2-1.7h0.2v4c-1.2,0.5-2.5,1-3.8,1.3s-2.6,0.5-4.1,0.5c-3.6,0-6.4-1-8.5-2.9
			c-2-2-3-4.7-3-8.3c0-3.6,1-6.4,2.9-8.5c1.9-2.1,4.5-3.1,7.7-3.1c2.9,0,5.2,0.9,6.8,2.6c1.6,1.7,2.4,4.2,2.4,7.3V951.7z
			 M553.5,948.9c0-1.9-0.5-3.4-1.5-4.5s-2.4-1.6-4.4-1.6c-2,0-3.5,0.6-4.7,1.7c-1.2,1.2-1.8,2.6-2,4.3H553.5z"/>
		<path class="st1" d="M566.3,962.2h-3.7v-30.4h3.7V962.2z"/>
		<path class="st1" d="M577.5,936.7h-4.1v-3.8h4.1V936.7z M577.3,962.2h-3.7v-21.8h3.7V962.2z"/>
		<path class="st1" d="M616.4,962.2h-3.7v-12.4c0-0.9,0-1.8-0.1-2.7c-0.1-0.9-0.3-1.6-0.5-2.1c-0.3-0.6-0.7-1-1.3-1.3
			c-0.6-0.3-1.4-0.4-2.4-0.4c-1,0-2.1,0.3-3.1,0.8c-1,0.5-2.1,1.2-3.1,2c0,0.3,0.1,0.6,0.1,1c0,0.4,0,0.8,0,1.2v14h-3.7v-12.4
			c0-1,0-1.9-0.1-2.7c-0.1-0.9-0.3-1.6-0.5-2.1c-0.3-0.6-0.7-1-1.3-1.3c-0.6-0.3-1.4-0.4-2.4-0.4c-1,0-2,0.2-3,0.7
			c-1,0.5-2,1.1-3,1.9v16.3h-3.7v-21.8h3.7v2.4c1.1-1,2.3-1.7,3.4-2.2c1.1-0.5,2.4-0.8,3.6-0.8c1.5,0,2.7,0.3,3.8,0.9
			s1.8,1.5,2.3,2.6c1.5-1.2,2.8-2.2,4.1-2.7c1.2-0.6,2.5-0.8,3.9-0.8c2.4,0,4.2,0.7,5.3,2.2c1.1,1.5,1.7,3.5,1.7,6.1V962.2z"/>
		<path class="st1" d="M627.4,936.7h-4.1v-3.8h4.1V936.7z M627.2,962.2h-3.7v-21.8h3.7V962.2z"/>
		<path class="st1" d="M652.7,962.2H649v-12.4c0-1-0.1-1.9-0.2-2.8s-0.3-1.6-0.6-2.1c-0.3-0.5-0.8-1-1.4-1.2
			c-0.6-0.3-1.4-0.4-2.4-0.4c-1,0-2.1,0.2-3.1,0.7c-1.1,0.5-2.1,1.1-3.1,1.9v16.3h-3.7v-21.8h3.7v2.4c1.1-1,2.3-1.7,3.6-2.2
			c1.2-0.5,2.5-0.8,3.8-0.8c2.4,0,4.2,0.7,5.4,2.1c1.2,1.4,1.9,3.5,1.9,6.1V962.2z"/>
		<path class="st1" d="M676.7,962.2h-3.7v-2.3c-0.3,0.2-0.8,0.5-1.3,0.9c-0.6,0.4-1.1,0.7-1.6,0.9c-0.6,0.3-1.3,0.5-2.1,0.8
			c-0.8,0.2-1.7,0.3-2.8,0.3c-2,0-3.6-0.7-5-2c-1.4-1.3-2.1-3-2.1-5c0-1.7,0.4-3,1.1-4c0.7-1,1.7-1.8,3-2.4c1.3-0.6,2.9-1,4.8-1.2
			c1.9-0.2,3.9-0.4,6-0.5v-0.6c0-0.8-0.1-1.5-0.4-2.1s-0.7-1-1.3-1.3c-0.5-0.3-1.1-0.5-1.9-0.6c-0.7-0.1-1.5-0.2-2.3-0.2
			c-1,0-2,0.1-3.2,0.4c-1.2,0.3-2.4,0.6-3.7,1.1h-0.2v-3.7c0.7-0.2,1.8-0.4,3.1-0.6c1.4-0.2,2.7-0.4,4-0.4c1.5,0,2.9,0.1,4,0.4
			c1.1,0.3,2.1,0.7,3,1.3c0.8,0.6,1.4,1.4,1.9,2.3c0.4,1,0.6,2.1,0.6,3.5V962.2z M673.1,956.8v-6.1c-1.1,0.1-2.4,0.2-4,0.3
			c-1.5,0.1-2.7,0.3-3.6,0.6c-1.1,0.3-1.9,0.8-2.6,1.4c-0.7,0.6-1,1.5-1,2.6c0,1.2,0.4,2.2,1.1,2.8c0.8,0.6,1.9,0.9,3.5,0.9
			c1.3,0,2.5-0.3,3.5-0.8C671.2,958.1,672.1,957.5,673.1,956.8z"/>
		<path class="st1" d="M697.4,944.4h-0.2c-0.5-0.1-1.1-0.2-1.6-0.3c-0.5-0.1-1.1-0.1-1.8-0.1c-1.1,0-2.2,0.3-3.3,0.8
			c-1.1,0.5-2.1,1.1-3,1.9v15.5h-3.7v-21.8h3.7v3.2c1.5-1.2,2.7-2,3.9-2.5s2.2-0.7,3.4-0.7c0.6,0,1.1,0,1.4,0c0.3,0,0.7,0.1,1.3,0.2
			V944.4z"/>
		<path class="st1" d="M719.7,940.4L707,970.3h-3.9l4.1-9.1l-8.7-20.8h4l6.7,16.2l6.8-16.2H719.7z"/>
		<path class="st1" d="M762.9,962.2h-5l-9.7-11.6h-5.4v11.6h-3.9v-29.1h8.1c1.8,0,3.2,0.1,4.4,0.3c1.2,0.2,2.2,0.6,3.2,1.2
			c1.1,0.7,1.9,1.5,2.5,2.5c0.6,1,0.9,2.3,0.9,3.8c0,2.1-0.5,3.9-1.6,5.3c-1.1,1.4-2.5,2.5-4.4,3.2L762.9,962.2z M753.9,941.3
			c0-0.8-0.1-1.6-0.4-2.2s-0.8-1.2-1.5-1.6c-0.6-0.4-1.2-0.6-2-0.8c-0.8-0.1-1.7-0.2-2.7-0.2h-4.6v11h3.9c1.2,0,2.3-0.1,3.2-0.3
			c0.9-0.2,1.7-0.6,2.3-1.2c0.6-0.5,1-1.2,1.3-1.9C753.8,943.3,753.9,942.4,753.9,941.3z"/>
		<path class="st1" d="M783.7,951.7h-16.1c0,1.3,0.2,2.5,0.6,3.5c0.4,1,1,1.8,1.7,2.5c0.7,0.6,1.5,1.1,2.4,1.4
			c0.9,0.3,2,0.5,3.1,0.5c1.5,0,3-0.3,4.5-0.9c1.5-0.6,2.6-1.2,3.2-1.7h0.2v4c-1.2,0.5-2.5,1-3.8,1.3c-1.3,0.4-2.6,0.5-4.1,0.5
			c-3.6,0-6.4-1-8.5-2.9c-2-2-3-4.7-3-8.3c0-3.6,1-6.4,2.9-8.5c1.9-2.1,4.5-3.1,7.7-3.1c2.9,0,5.2,0.9,6.8,2.6
			c1.6,1.7,2.4,4.2,2.4,7.3V951.7z M780.1,948.9c0-1.9-0.5-3.4-1.5-4.5s-2.4-1.6-4.4-1.6c-2,0-3.5,0.6-4.7,1.7
			c-1.2,1.2-1.8,2.6-2,4.3H780.1z"/>
		<path class="st1" d="M804.8,955.9c0,2-0.8,3.6-2.5,4.9c-1.6,1.3-3.9,1.9-6.7,1.9c-1.6,0-3.1-0.2-4.4-0.6s-2.5-0.8-3.4-1.3v-4.1
			h0.2c1.2,0.9,2.4,1.6,3.9,2.1c1.4,0.5,2.8,0.8,4.1,0.8c1.6,0,2.9-0.3,3.8-0.8c0.9-0.5,1.4-1.3,1.4-2.5c0-0.9-0.2-1.5-0.7-2
			c-0.5-0.4-1.4-0.8-2.9-1.1c-0.5-0.1-1.2-0.3-2-0.4s-1.6-0.3-2.3-0.5c-1.9-0.5-3.3-1.3-4.1-2.2c-0.8-1-1.2-2.2-1.2-3.6
			c0-0.9,0.2-1.7,0.6-2.5c0.4-0.8,0.9-1.5,1.7-2.1c0.7-0.6,1.7-1.1,2.8-1.5c1.1-0.4,2.4-0.5,3.8-0.5c1.3,0,2.6,0.2,4,0.5
			c1.3,0.3,2.4,0.7,3.3,1.2v3.9h-0.2c-0.9-0.7-2.1-1.3-3.4-1.7c-1.3-0.5-2.7-0.7-3.9-0.7c-1.3,0-2.5,0.3-3.4,0.8
			c-0.9,0.5-1.4,1.3-1.4,2.3c0,0.9,0.3,1.6,0.8,2c0.5,0.5,1.4,0.8,2.7,1.1c0.7,0.2,1.4,0.3,2.3,0.5s1.5,0.3,2.1,0.4
			c1.7,0.4,3,1.1,3.9,2C804.4,953.1,804.8,954.3,804.8,955.9z"/>
		<path class="st1" d="M828.2,962.2h-3.7v-2.4c-1.2,1-2.4,1.7-3.6,2.2s-2.4,0.8-3.8,0.8c-2.3,0-4.1-0.7-5.4-2.1
			c-1.3-1.4-1.9-3.5-1.9-6.2v-14.2h3.7v12.4c0,1.1,0.1,2.1,0.2,2.8c0.1,0.8,0.3,1.5,0.7,2c0.4,0.6,0.8,1,1.4,1.2
			c0.6,0.3,1.4,0.4,2.4,0.4c1,0,2-0.2,3.1-0.7c1.1-0.5,2.2-1.1,3.2-1.9v-16.3h3.7V962.2z"/>
		<path class="st1" d="M839.1,962.2h-3.7v-30.4h3.7V962.2z"/>
		<path class="st1" d="M857.7,962c-0.7,0.2-1.4,0.3-2.3,0.4s-1.5,0.2-2.2,0.2c-2.2,0-3.9-0.6-5.1-1.8c-1.2-1.2-1.7-3.1-1.7-5.8
			v-11.6H844v-3.1h2.5v-6.3h3.7v6.3h7.6v3.1h-7.6v9.9c0,1.1,0,2,0.1,2.7s0.2,1.2,0.5,1.8c0.3,0.5,0.7,0.9,1.2,1.1
			c0.5,0.2,1.3,0.4,2.3,0.4c0.6,0,1.2-0.1,1.9-0.3s1.1-0.3,1.4-0.4h0.2V962z"/>
		<path class="st1" d="M877.7,955.9c0,2-0.8,3.6-2.5,4.9c-1.6,1.3-3.9,1.9-6.7,1.9c-1.6,0-3.1-0.2-4.4-0.6s-2.5-0.8-3.4-1.3v-4.1
			h0.2c1.2,0.9,2.4,1.6,3.9,2.1c1.4,0.5,2.8,0.8,4.1,0.8c1.6,0,2.9-0.3,3.8-0.8c0.9-0.5,1.4-1.3,1.4-2.5c0-0.9-0.2-1.5-0.7-2
			c-0.5-0.4-1.4-0.8-2.9-1.1c-0.5-0.1-1.2-0.3-2-0.4s-1.6-0.3-2.3-0.5c-1.9-0.5-3.3-1.3-4.1-2.2c-0.8-1-1.2-2.2-1.2-3.6
			c0-0.9,0.2-1.7,0.6-2.5c0.4-0.8,0.9-1.5,1.7-2.1c0.7-0.6,1.7-1.1,2.8-1.5c1.1-0.4,2.4-0.5,3.8-0.5c1.3,0,2.6,0.2,4,0.5
			c1.3,0.3,2.4,0.7,3.3,1.2v3.9h-0.2c-0.9-0.7-2.1-1.3-3.4-1.7c-1.3-0.5-2.7-0.7-3.9-0.7c-1.3,0-2.5,0.3-3.4,0.8
			c-0.9,0.5-1.4,1.3-1.4,2.3c0,0.9,0.3,1.6,0.8,2c0.5,0.5,1.4,0.8,2.7,1.1c0.7,0.2,1.4,0.3,2.3,0.5s1.5,0.3,2.1,0.4
			c1.7,0.4,3,1.1,3.9,2C877.3,953.1,877.7,954.3,877.7,955.9z"/>
		<path class="st1" d="M920.3,962.2h-4.1l-2.9-8.1h-12.6l-2.9,8.1h-3.9l10.6-29.1h5.2L920.3,962.2z M912.1,950.8l-5.1-14.3
			l-5.1,14.3H912.1z"/>
		<path class="st1" d="M938,944.4h-0.2c-0.5-0.1-1.1-0.2-1.6-0.3s-1.1-0.1-1.8-0.1c-1.1,0-2.2,0.3-3.3,0.8c-1.1,0.5-2.1,1.1-3,1.9
			v15.5h-3.7v-21.8h3.7v3.2c1.5-1.2,2.7-2,3.9-2.5s2.2-0.7,3.4-0.7c0.6,0,1.1,0,1.4,0c0.3,0,0.7,0.1,1.3,0.2V944.4z"/>
		<path class="st1" d="M959.7,951.7h-16.1c0,1.3,0.2,2.5,0.6,3.5s1,1.8,1.7,2.5c0.7,0.6,1.5,1.1,2.4,1.4s2,0.5,3.1,0.5
			c1.5,0,3-0.3,4.5-0.9c1.5-0.6,2.6-1.2,3.2-1.7h0.2v4c-1.2,0.5-2.5,1-3.8,1.3s-2.6,0.5-4.1,0.5c-3.6,0-6.4-1-8.5-2.9
			c-2-2-3-4.7-3-8.3c0-3.6,1-6.4,2.9-8.5c1.9-2.1,4.5-3.1,7.7-3.1c2.9,0,5.2,0.9,6.8,2.6s2.4,4.2,2.4,7.3V951.7z M956.1,948.9
			c0-1.9-0.5-3.4-1.5-4.5s-2.4-1.6-4.4-1.6c-2,0-3.5,0.6-4.7,1.7c-1.2,1.2-1.8,2.6-2,4.3H956.1z"/>
		<path class="st1" d="M1001.3,936.5c1.2,1.3,2.1,2.9,2.7,4.8c0.6,1.9,0.9,4,0.9,6.4c0,2.4-0.3,4.5-1,6.4s-1.5,3.5-2.7,4.7
			c-1.2,1.3-2.6,2.3-4.2,3s-3.5,1-5.6,1c-2,0-3.9-0.3-5.6-1s-3.1-1.7-4.3-2.9s-2.1-2.9-2.7-4.7s-0.9-4-0.9-6.4
			c0-2.4,0.3-4.5,0.9-6.4c0.6-1.9,1.5-3.5,2.7-4.8c1.1-1.3,2.6-2.3,4.3-2.9c1.7-0.7,3.6-1,5.6-1c2.1,0,4,0.3,5.6,1
			S1000.2,935.2,1001.3,936.5z M1001,947.7c0-3.8-0.8-6.7-2.5-8.7s-4-3.1-6.9-3.1c-3,0-5.3,1-7,3.1s-2.5,5-2.5,8.7
			c0,3.8,0.9,6.7,2.6,8.8c1.7,2,4,3,6.9,3s5.2-1,6.9-3C1000.1,954.4,1001,951.5,1001,947.7z"/>
		<path class="st1" d="M1028.9,962.2h-3.7v-2.4c-1.2,1-2.4,1.7-3.6,2.2s-2.4,0.8-3.8,0.8c-2.3,0-4.1-0.7-5.4-2.1
			c-1.3-1.4-1.9-3.5-1.9-6.2v-14.2h3.7v12.4c0,1.1,0.1,2.1,0.2,2.8c0.1,0.8,0.3,1.5,0.7,2c0.4,0.6,0.8,1,1.4,1.2
			c0.6,0.3,1.4,0.4,2.4,0.4c1,0,2-0.2,3.1-0.7c1.1-0.5,2.2-1.1,3.2-1.9v-16.3h3.7V962.2z"/>
		<path class="st1" d="M1047.5,962c-0.7,0.2-1.4,0.3-2.3,0.4s-1.5,0.2-2.2,0.2c-2.2,0-3.9-0.6-5.1-1.8c-1.2-1.2-1.7-3.1-1.7-5.8
			v-11.6h-2.5v-3.1h2.5v-6.3h3.7v6.3h7.6v3.1h-7.6v9.9c0,1.1,0,2,0.1,2.7s0.2,1.2,0.5,1.8c0.3,0.5,0.7,0.9,1.2,1.1
			c0.5,0.2,1.3,0.4,2.3,0.4c0.6,0,1.2-0.1,1.9-0.3s1.1-0.3,1.4-0.4h0.2V962z"/>
		<path class="st1" d="M1058.3,933.1l-0.5,21.1h-3.3l-0.5-21.1H1058.3z M1058.2,962.2h-4v-4.1h4V962.2z"/>
		<path class="st1" d="M634,1012.2h-4.1l-2.9-8.1h-12.6l-2.9,8.1h-3.9l10.6-29.1h5.2L634,1012.2z M625.9,1000.8l-5.1-14.3l-5.1,14.3
			H625.9z"/>
		<path class="st1" d="M665,990.4l-5.7,21.8h-3.4l-5.6-16.8l-5.6,16.8h-3.4l-5.7-21.8h3.8l4,16.9l5.4-16.9h3l5.6,16.9l3.8-16.9H665z
			"/>
		<path class="st1" d="M686.9,1012.2h-3.7v-2.3c-0.3,0.2-0.8,0.5-1.3,0.9c-0.6,0.4-1.1,0.7-1.6,0.9c-0.6,0.3-1.3,0.5-2.1,0.8
			c-0.8,0.2-1.7,0.3-2.8,0.3c-2,0-3.6-0.7-5-2s-2.1-3-2.1-5c0-1.7,0.4-3,1.1-4c0.7-1,1.7-1.8,3-2.4c1.3-0.6,2.9-1,4.8-1.2
			c1.9-0.2,3.9-0.4,6-0.5v-0.6c0-0.8-0.1-1.5-0.4-2.1s-0.7-1-1.3-1.3c-0.5-0.3-1.1-0.5-1.9-0.6c-0.7-0.1-1.5-0.2-2.3-0.2
			c-1,0-2,0.1-3.2,0.4c-1.2,0.3-2.4,0.6-3.7,1.1h-0.2v-3.7c0.7-0.2,1.8-0.4,3.1-0.6c1.4-0.2,2.7-0.4,4-0.4c1.5,0,2.9,0.1,4,0.4
			c1.1,0.3,2.1,0.7,3,1.3c0.8,0.6,1.4,1.4,1.9,2.3s0.6,2.1,0.6,3.5V1012.2z M683.2,1006.8v-6.1c-1.1,0.1-2.4,0.2-4,0.3
			c-1.5,0.1-2.7,0.3-3.6,0.6c-1.1,0.3-1.9,0.8-2.6,1.4c-0.7,0.6-1,1.5-1,2.6c0,1.2,0.4,2.2,1.1,2.8c0.8,0.6,1.9,0.9,3.5,0.9
			c1.3,0,2.5-0.3,3.5-0.8C681.3,1008.1,682.3,1007.5,683.2,1006.8z"/>
		<path class="st1" d="M707.5,994.4h-0.2c-0.5-0.1-1.1-0.2-1.6-0.3c-0.5-0.1-1.1-0.1-1.8-0.1c-1.1,0-2.2,0.3-3.3,0.8s-2.1,1.1-3,1.9
			v15.5h-3.7v-21.8h3.7v3.2c1.5-1.2,2.7-2,3.9-2.5s2.2-0.7,3.4-0.7c0.6,0,1.1,0,1.4,0c0.3,0,0.7,0.1,1.3,0.2V994.4z"/>
		<path class="st1" d="M728.7,1012.2H725v-2.3c-1.1,0.9-2.2,1.6-3.3,2.1c-1.1,0.5-2.4,0.8-3.7,0.8c-2.6,0-4.7-1-6.2-3
			c-1.5-2-2.3-4.8-2.3-8.3c0-1.8,0.3-3.5,0.8-4.9s1.2-2.7,2.1-3.7c0.9-1,1.9-1.7,3.1-2.3c1.2-0.5,2.4-0.8,3.7-0.8
			c1.1,0,2.2,0.1,3,0.4c0.9,0.2,1.8,0.6,2.8,1.1v-9.5h3.7V1012.2z M725,1006.8v-12.5c-1-0.4-1.9-0.7-2.7-0.9s-1.6-0.3-2.6-0.3
			c-2.1,0-3.7,0.7-4.8,2.1c-1.1,1.4-1.7,3.5-1.7,6.1c0,2.6,0.4,4.6,1.3,5.9c0.9,1.3,2.3,2,4.3,2c1,0,2.1-0.2,3.2-0.7
			C723.1,1008.2,724.1,1007.6,725,1006.8z"/>
		<path class="st1" d="M772.7,1010.1c-0.7,0.3-1.4,0.6-1.9,0.9c-0.6,0.3-1.3,0.6-2.3,0.9c-0.8,0.2-1.7,0.5-2.6,0.6
			c-0.9,0.2-2,0.3-3.1,0.3c-2.1,0-4-0.3-5.8-0.9c-1.7-0.6-3.2-1.5-4.5-2.8c-1.2-1.2-2.2-2.8-2.9-4.7s-1.1-4.1-1.1-6.7
			c0-2.4,0.3-4.5,1-6.4c0.7-1.9,1.7-3.5,2.9-4.8c1.2-1.3,2.7-2.2,4.5-2.9c1.8-0.7,3.7-1,5.8-1c1.6,0,3.1,0.2,4.7,0.6
			c1.6,0.4,3.3,1,5.2,2v4.6h-0.3c-1.6-1.3-3.2-2.3-4.8-2.9c-1.6-0.6-3.3-0.9-5.1-0.9c-1.5,0-2.8,0.2-4,0.7c-1.2,0.5-2.2,1.2-3.2,2.2
			c-0.9,1-1.6,2.2-2.1,3.7c-0.5,1.5-0.8,3.2-0.8,5.2c0,2,0.3,3.8,0.8,5.3c0.6,1.5,1.3,2.7,2.1,3.6c0.9,1,2,1.7,3.2,2.1
			c1.2,0.5,2.5,0.7,3.9,0.7c1.9,0,3.6-0.3,5.2-1c1.6-0.6,3.2-1.6,4.6-2.9h0.3V1010.1z"/>
		<path class="st1" d="M796.2,1001.7h-16.1c0,1.3,0.2,2.5,0.6,3.5s1,1.8,1.7,2.5c0.7,0.6,1.5,1.1,2.4,1.4s2,0.5,3.1,0.5
			c1.5,0,3-0.3,4.5-0.9s2.6-1.2,3.2-1.7h0.2v4c-1.2,0.5-2.5,1-3.8,1.3s-2.6,0.5-4.1,0.5c-3.6,0-6.4-1-8.5-2.9c-2-2-3-4.7-3-8.3
			c0-3.6,1-6.4,2.9-8.5c1.9-2.1,4.5-3.1,7.7-3.1c2.9,0,5.2,0.9,6.8,2.6s2.4,4.2,2.4,7.3V1001.7z M792.6,998.9c0-1.9-0.5-3.4-1.5-4.5
			s-2.4-1.6-4.4-1.6c-2,0-3.5,0.6-4.7,1.7s-1.8,2.6-2,4.3H792.6z"/>
		<path class="st1" d="M815.4,994.4h-0.2c-0.5-0.1-1.1-0.2-1.6-0.3s-1.1-0.1-1.8-0.1c-1.1,0-2.2,0.3-3.3,0.8s-2.1,1.1-3,1.9v15.5
			h-3.7v-21.8h3.7v3.2c1.5-1.2,2.7-2,3.9-2.5s2.2-0.7,3.4-0.7c0.6,0,1.1,0,1.4,0s0.7,0.1,1.3,0.2V994.4z"/>
		<path class="st1" d="M837.1,1001.7H821c0,1.3,0.2,2.5,0.6,3.5s1,1.8,1.7,2.5c0.7,0.6,1.5,1.1,2.4,1.4s2,0.5,3.1,0.5
			c1.5,0,3-0.3,4.5-0.9s2.6-1.2,3.2-1.7h0.2v4c-1.2,0.5-2.5,1-3.8,1.3s-2.6,0.5-4.1,0.5c-3.6,0-6.4-1-8.5-2.9s-3-4.7-3-8.3
			c0-3.6,1-6.4,2.9-8.5s4.5-3.1,7.7-3.1c2.9,0,5.2,0.9,6.8,2.6s2.4,4.2,2.4,7.3V1001.7z M833.5,998.9c0-1.9-0.5-3.4-1.5-4.5
			s-2.4-1.6-4.4-1.6c-2,0-3.5,0.6-4.7,1.7s-1.8,2.6-2,4.3H833.5z"/>
		<path class="st1" d="M874.5,1012.2h-3.7v-12.4c0-0.9,0-1.8-0.1-2.7s-0.3-1.6-0.5-2.1c-0.3-0.6-0.7-1-1.3-1.3s-1.4-0.4-2.4-0.4
			c-1,0-2.1,0.3-3.1,0.8s-2.1,1.2-3.1,2c0,0.3,0.1,0.6,0.1,1s0,0.8,0,1.2v14h-3.7v-12.4c0-1,0-1.9-0.1-2.7s-0.3-1.6-0.5-2.1
			c-0.3-0.6-0.7-1-1.3-1.3s-1.4-0.4-2.4-0.4c-1,0-2,0.2-3,0.7s-2,1.1-3,1.9v16.3h-3.7v-21.8h3.7v2.4c1.1-1,2.3-1.7,3.4-2.2
			s2.4-0.8,3.6-0.8c1.5,0,2.7,0.3,3.8,0.9s1.8,1.5,2.3,2.6c1.5-1.2,2.8-2.2,4.1-2.7s2.5-0.8,3.9-0.8c2.4,0,4.2,0.7,5.3,2.2
			s1.7,3.5,1.7,6.1V1012.2z"/>
		<path class="st1" d="M900.1,1001.3c0,3.6-0.9,6.4-2.7,8.4s-4.3,3.1-7.3,3.1c-3.1,0-5.5-1-7.4-3.1s-2.7-4.9-2.7-8.4
			s0.9-6.4,2.7-8.4s4.3-3.1,7.4-3.1c3.1,0,5.5,1,7.3,3.1S900.1,997.8,900.1,1001.3z M896.4,1001.3c0-2.8-0.6-4.9-1.7-6.3
			s-2.6-2.1-4.6-2.1c-2,0-3.5,0.7-4.6,2.1s-1.7,3.5-1.7,6.3c0,2.7,0.6,4.8,1.7,6.2s2.6,2.1,4.6,2.1c2,0,3.5-0.7,4.6-2.1
			S896.4,1004.1,896.4,1001.3z"/>
		<path class="st1" d="M924.1,1012.2h-3.7v-12.4c0-1-0.1-1.9-0.2-2.8s-0.3-1.6-0.6-2.1c-0.3-0.5-0.8-1-1.4-1.2s-1.4-0.4-2.4-0.4
			c-1,0-2.1,0.2-3.1,0.7s-2.1,1.1-3.1,1.9v16.3h-3.7v-21.8h3.7v2.4c1.1-1,2.3-1.7,3.6-2.2s2.5-0.8,3.8-0.8c2.4,0,4.2,0.7,5.4,2.1
			s1.9,3.5,1.9,6.1V1012.2z"/>
		<path class="st1" d="M949.6,990.4l-12.7,29.9H933l4.1-9.1l-8.7-20.8h4l6.7,16.2l6.8-16.2H949.6z"/>
	</g>
	<line id="線_2" class="st0" x1="1089" y1="924.5" x2="1036" y2="1027.5"/>
</g>
</svg>
