<svg xmlns="http://www.w3.org/2000/svg" width="746.298" height="57.373" viewBox="0 0 746.298 57.373">
  <g id="グループ_508" data-name="グループ 508" transform="translate(-405.851 -923.814)">
    <path id="パス_673" data-name="パス 673" d="M-312.54,0h3.72V-26.2h8.88v-3.12h-21.48v3.12h8.88Zm17.52,0h3.64V-15.76c2.2-2.2,3.72-3.32,5.96-3.32,2.88,0,4.12,1.72,4.12,5.8V0h3.64V-13.76c0-5.56-2.08-8.52-6.64-8.52-2.96,0-5.2,1.64-7.2,3.64l.12-4.48v-8.72h-3.64Zm29.28.52c2.68,0,5.12-1.4,7.2-3.12h.12l.32,2.6h3V-13.36c0-5.36-2.24-8.92-7.52-8.92a16.337,16.337,0,0,0-8.56,2.84l1.44,2.52a11.967,11.967,0,0,1,6.52-2.32c3.56,0,4.48,2.68,4.48,5.48-9.24,1.04-13.36,3.4-13.36,8.12C-272.1-1.72-269.38.52-265.74.52Zm1.04-2.92c-2.16,0-3.84-1-3.84-3.48,0-2.8,2.48-4.6,9.8-5.48v6.08C-260.86-3.4-262.58-2.4-264.7-2.4ZM-248.18,0h3.64V-15.76c2.2-2.2,3.72-3.32,5.96-3.32,2.88,0,4.12,1.72,4.12,5.8V0h3.64V-13.76c0-5.56-2.08-8.52-6.64-8.52-2.96,0-5.2,1.64-7.28,3.68h-.12l-.32-3.12h-3Zm24.44,0h3.6V-5.72l4.08-4.76L-209.7,0h3.96l-8.24-13,7.28-8.72h-4.04l-9.32,11.48h-.08v-21.6h-3.6Zm31.4,9.36c4.32,0,6.56-3.28,8.08-7.56l8.2-23.52h-3.56L-183.5-9.64c-.6,1.92-1.24,4.12-1.84,6.08h-.2c-.68-1.96-1.44-4.2-2.08-6.08l-4.44-12.08h-3.8L-187.14.04l-.48,1.64c-.88,2.68-2.44,4.68-4.92,4.68A5.19,5.19,0,0,1-194.18,6l-.72,2.92A6.687,6.687,0,0,0-192.34,9.36ZM-163.58.52c5.32,0,10.08-4.16,10.08-11.36,0-7.24-4.76-11.44-10.08-11.44s-10.08,4.2-10.08,11.44C-173.66-3.64-168.9.52-163.58.52Zm0-3.04c-3.76,0-6.28-3.32-6.28-8.32s2.52-8.4,6.28-8.4,6.32,3.4,6.32,8.4S-159.82-2.52-163.58-2.52ZM-141.46.52c3,0,5.16-1.56,7.2-3.92h.12l.28,3.4h3.04V-21.72h-3.64v15.4c-2.08,2.6-3.64,3.68-5.88,3.68-2.88,0-4.08-1.72-4.08-5.76V-21.72h-3.64V-7.96C-148.06-2.44-146.02.52-141.46.52Zm37.48-32.16a9.521,9.521,0,0,0-3.64-.72c-4.32,0-6.32,2.76-6.32,7.16v3.48l-2.96.2v2.76h2.96V0h3.64V-18.76h4.6v-2.96h-4.6v-3.44c0-2.8,1-4.28,3.08-4.28a6.166,6.166,0,0,1,2.44.56ZM-93.54.52c5.32,0,10.08-4.16,10.08-11.36,0-7.24-4.76-11.44-10.08-11.44s-10.08,4.2-10.08,11.44C-103.62-3.64-98.86.52-93.54.52Zm0-3.04c-3.76,0-6.28-3.32-6.28-8.32s2.52-8.4,6.28-8.4,6.32,3.4,6.32,8.4S-89.78-2.52-93.54-2.52ZM-77.74,0h3.64V-13.96c1.44-3.72,3.68-5,5.48-5a5.139,5.139,0,0,1,2.12.36l.68-3.2a4.63,4.63,0,0,0-2.32-.48c-2.44,0-4.64,1.76-6.16,4.52h-.12l-.32-3.96h-3Zm29.48.52c2.68,0,5.12-1.4,7.2-3.12h.12l.32,2.6h3V-13.36c0-5.36-2.24-8.92-7.52-8.92a16.337,16.337,0,0,0-8.56,2.84l1.44,2.52a11.967,11.967,0,0,1,6.52-2.32c3.56,0,4.48,2.68,4.48,5.48-9.24,1.04-13.36,3.4-13.36,8.12C-54.62-1.72-51.9.52-48.26.52Zm1.04-2.92c-2.16,0-3.84-1-3.84-3.48,0-2.8,2.48-4.6,9.8-5.48v6.08C-43.38-3.4-45.1-2.4-47.22-2.4ZM-26.86.52A5.751,5.751,0,0,0-24.74.2l-.52-2.8a3.2,3.2,0,0,1-.76.08c-.56,0-1.04-.44-1.04-1.56V-31.84H-30.7V-4.32C-30.7-1.24-29.58.52-26.86.52Zm11.4,0A5.751,5.751,0,0,0-13.34.2l-.52-2.8a3.2,3.2,0,0,1-.76.08c-.56,0-1.04-.44-1.04-1.56V-31.84H-19.3V-4.32C-19.3-1.24-18.18.52-15.46.52ZM1.42,9.36c4.32,0,6.56-3.28,8.08-7.56l8.2-23.52H14.14L10.26-9.64c-.6,1.92-1.24,4.12-1.84,6.08h-.2c-.68-1.96-1.44-4.2-2.08-6.08L1.7-21.72H-2.1L6.62.04,6.14,1.68C5.26,4.36,3.7,6.36,1.22,6.36A5.19,5.19,0,0,1-.42,6l-.72,2.92A6.687,6.687,0,0,0,1.42,9.36ZM30.18.52c5.32,0,10.08-4.16,10.08-11.36,0-7.24-4.76-11.44-10.08-11.44S20.1-18.08,20.1-10.84C20.1-3.64,24.86.52,30.18.52Zm0-3.04c-3.76,0-6.28-3.32-6.28-8.32s2.52-8.4,6.28-8.4,6.32,3.4,6.32,8.4S33.94-2.52,30.18-2.52ZM52.3.52c3,0,5.16-1.56,7.2-3.92h.12L59.9,0h3.04V-21.72H59.3v15.4c-2.08,2.6-3.64,3.68-5.88,3.68-2.88,0-4.08-1.72-4.08-5.76V-21.72H45.7V-7.96C45.7-2.44,47.74.52,52.3.52ZM70.26,0H73.9V-13.96c1.44-3.72,3.68-5,5.48-5a5.139,5.139,0,0,1,2.12.36l.68-3.2a4.63,4.63,0,0,0-2.32-.48c-2.44,0-4.64,1.76-6.16,4.52h-.12l-.32-3.96h-3Zm30.16.52c5.12,0,7.92-2.92,7.92-6.44,0-4.12-3.48-5.4-6.64-6.6-2.44-.92-4.8-1.68-4.8-3.76,0-1.68,1.24-3.12,3.96-3.12a8.172,8.172,0,0,1,5,1.92l1.76-2.36a11.254,11.254,0,0,0-6.76-2.44c-4.72,0-7.48,2.72-7.48,6.16,0,3.68,3.44,5.16,6.48,6.28,2.4.92,4.96,1.92,4.96,4.12,0,1.88-1.4,3.4-4.28,3.4A9.851,9.851,0,0,1,94.1-4.88l-1.8,2.4A13.1,13.1,0,0,0,100.42.52Zm19.36,0c3,0,5.16-1.56,7.2-3.92h.12l.28,3.4h3.04V-21.72h-3.64v15.4c-2.08,2.6-3.64,3.68-5.88,3.68-2.88,0-4.08-1.72-4.08-5.76V-21.72h-3.64V-7.96C113.18-2.44,115.22.52,119.78.52Zm27.52,0c5,0,9.44-4.28,9.44-11.76,0-6.64-3.04-11.04-8.68-11.04-2.4,0-4.84,1.36-6.8,3.08l.12-3.92v-8.72h-3.64V0h2.92l.32-2.24h.12A9.622,9.622,0,0,0,147.3.52Zm-.6-3.04a8.337,8.337,0,0,1-5.32-2.28V-16.2c2.08-1.96,4-3,5.84-3,4.12,0,5.72,3.24,5.72,8.04C152.94-5.76,150.3-2.52,146.7-2.52ZM162.46,0h3.64V-15.76c2-2.24,3.84-3.32,5.48-3.32,2.76,0,4.04,1.72,4.04,5.8V0h3.64V-15.76c2.04-2.24,3.8-3.32,5.48-3.32,2.76,0,4.04,1.72,4.04,5.8V0h3.64V-13.76c0-5.56-2.12-8.52-6.6-8.52-2.64,0-4.92,1.72-7.16,4.16a5.728,5.728,0,0,0-6-4.16c-2.6,0-4.88,1.64-6.76,3.72h-.12l-.32-3.16h-3ZM199.5,0h3.64V-21.72H199.5Zm1.84-26.2a2.38,2.38,0,0,0,2.52-2.36,2.312,2.312,0,0,0-2.52-2.36,2.312,2.312,0,0,0-2.52,2.36A2.38,2.38,0,0,0,201.34-26.2ZM216.18.52c5.12,0,7.92-2.92,7.92-6.44,0-4.12-3.48-5.4-6.64-6.6-2.44-.92-4.8-1.68-4.8-3.76,0-1.68,1.24-3.12,3.96-3.12a8.172,8.172,0,0,1,5,1.92l1.76-2.36a11.254,11.254,0,0,0-6.76-2.44c-4.72,0-7.48,2.72-7.48,6.16,0,3.68,3.44,5.16,6.48,6.28,2.4.92,4.96,1.92,4.96,4.12,0,1.88-1.4,3.4-4.28,3.4a9.851,9.851,0,0,1-6.44-2.56l-1.8,2.4A13.1,13.1,0,0,0,216.18.52Zm18.72,0c5.12,0,7.92-2.92,7.92-6.44,0-4.12-3.48-5.4-6.64-6.6-2.44-.92-4.8-1.68-4.8-3.76,0-1.68,1.24-3.12,3.96-3.12a8.172,8.172,0,0,1,5,1.92l1.76-2.36a11.254,11.254,0,0,0-6.76-2.44c-4.72,0-7.48,2.72-7.48,6.16,0,3.68,3.44,5.16,6.48,6.28,2.4.92,4.96,1.92,4.96,4.12,0,1.88-1.4,3.4-4.28,3.4a9.851,9.851,0,0,1-6.44-2.56l-1.8,2.4A13.1,13.1,0,0,0,234.9.52ZM247.94,0h3.64V-21.72h-3.64Zm1.84-26.2a2.38,2.38,0,0,0,2.52-2.36,2.312,2.312,0,0,0-2.52-2.36,2.312,2.312,0,0,0-2.52,2.36A2.38,2.38,0,0,0,249.78-26.2ZM267.38.52c5.32,0,10.08-4.16,10.08-11.36,0-7.24-4.76-11.44-10.08-11.44s-10.08,4.2-10.08,11.44C257.3-3.64,262.06.52,267.38.52Zm0-3.04c-3.76,0-6.28-3.32-6.28-8.32s2.52-8.4,6.28-8.4,6.32,3.4,6.32,8.4S271.14-2.52,267.38-2.52ZM283.18,0h3.64V-15.76c2.2-2.2,3.72-3.32,5.96-3.32,2.88,0,4.12,1.72,4.12,5.8V0h3.64V-13.76c0-5.56-2.08-8.52-6.64-8.52-2.96,0-5.2,1.64-7.28,3.68h-.12l-.32-3.12h-3ZM313.3.52c5.12,0,7.92-2.92,7.92-6.44,0-4.12-3.48-5.4-6.64-6.6-2.44-.92-4.8-1.68-4.8-3.76,0-1.68,1.24-3.12,3.96-3.12a8.172,8.172,0,0,1,5,1.92l1.76-2.36a11.254,11.254,0,0,0-6.76-2.44c-4.72,0-7.48,2.72-7.48,6.16,0,3.68,3.44,5.16,6.48,6.28,2.4.92,4.96,1.92,4.96,4.12,0,1.88-1.4,3.4-4.28,3.4a9.851,9.851,0,0,1-6.44-2.56l-1.8,2.4A13.1,13.1,0,0,0,313.3.52Z" transform="translate(779 960)" fill="#fff"/>
    <line id="線_1" data-name="線 1" x2="28.816" y2="56" transform="translate(407.185 924.5)" fill="none" stroke="#fff" stroke-width="3"/>
    <line id="線_2" data-name="線 2" x1="28.816" y2="56" transform="translate(1122 924.5)" fill="none" stroke="#fff" stroke-width="3"/>
  </g>
</svg>
