<svg xmlns="http://www.w3.org/2000/svg" width="241.912" height="61.52" viewBox="0 0 241.912 61.52">
  <path id="パス_673" data-name="パス 673" d="M-27.16-.48q.08,0,.08.24t-.08.24h-5.16q-1,0-3.76-3.32a103.155,103.155,0,0,1-6.56-9.12,10.3,10.3,0,0,1-2.24.24q-.24,0-1.8-.12v9.08a4.917,4.917,0,0,0,.24,1.8,1.351,1.351,0,0,0,.94.76,8.851,8.851,0,0,0,2.22.2q.12,0,.12.24t-.12.24q-1.24,0-1.96-.04L-48-.08l-2.72.04q-.72.04-2.04.04-.08,0-.08-.24t.08-.24a9.109,9.109,0,0,0,2.24-.2,1.414,1.414,0,0,0,.98-.78,4.59,4.59,0,0,0,.26-1.78V-21.76a4.768,4.768,0,0,0-.24-1.76,1.409,1.409,0,0,0-.94-.78,8.077,8.077,0,0,0-2.22-.22q-.12,0-.12-.24t.12-.24l1.96.04q1.68.08,2.72.08.88,0,1.64-.04t1.28-.08q1.48-.12,2.68-.12a7.4,7.4,0,0,1,4.88,1.44,4.755,4.755,0,0,1,1.72,3.84,6.49,6.49,0,0,1-1.26,3.9A8.677,8.677,0,0,1-40.4-13.2q3.36,4.84,5.66,7.58a21.293,21.293,0,0,0,4.08,3.94A6.253,6.253,0,0,0-27.16-.48Zm-19.52-12.8a15.147,15.147,0,0,0,2.36.16q3.12,0,4.46-1.36a5.777,5.777,0,0,0,1.34-4.2q0-3.12-1.38-4.48a5.494,5.494,0,0,0-4.02-1.36,3.184,3.184,0,0,0-2.16.56,3.159,3.159,0,0,0-.6,2.28ZM-13.92-2.24a.277.277,0,0,1,.22.14.213.213,0,0,1,.02.26A8.646,8.646,0,0,1-19.52.48,7.039,7.039,0,0,1-23.48-.6a7.047,7.047,0,0,1-2.5-2.84,8.452,8.452,0,0,1-.86-3.76,8.664,8.664,0,0,1,1.12-4.34,8.283,8.283,0,0,1,3.06-3.12A8.256,8.256,0,0,1-18.4-15.8a4.655,4.655,0,0,1,3.44,1.2,4.542,4.542,0,0,1,1.2,3.36,2.274,2.274,0,0,1-.1.8.347.347,0,0,1-.34.24l-9.92.04q-.08.88-.08,1.44a9.079,9.079,0,0,0,1.64,5.64,5.443,5.443,0,0,0,4.6,2.16,5.917,5.917,0,0,0,2.06-.32,10.82,10.82,0,0,0,1.94-1ZM-19.72-15a3.813,3.813,0,0,0-2.84,1.14,5.862,5.862,0,0,0-1.48,3.18l7.6-.16a4.747,4.747,0,0,0-.88-3.1A2.954,2.954,0,0,0-19.72-15Zm11.8,2A2.824,2.824,0,0,0-7-10.78,13.522,13.522,0,0,0-4.32-9.04,23.335,23.335,0,0,1-2.14-7.8,4.826,4.826,0,0,1-.8-6.44,3.594,3.594,0,0,1-.24-4.4,4.5,4.5,0,0,1-1.76-.96,5.845,5.845,0,0,1-5.88.44,6.557,6.557,0,0,1-9.72-.76a.538.538,0,0,1-.24-.48l-.08-3.12q0-.12.22-.14t.26.1A7.31,7.31,0,0,0-7.58-1.36,4.218,4.218,0,0,0-4.76-.32a2.816,2.816,0,0,0,2-.64,2.247,2.247,0,0,0,.6-1.88A3.123,3.123,0,0,0-3.1-5.18a11.743,11.743,0,0,0-2.7-1.7A18.235,18.235,0,0,1-7.9-8.04,4.594,4.594,0,0,1-9.22-9.4a3.771,3.771,0,0,1-.54-2.08,3.785,3.785,0,0,1,1.62-3.3,6.467,6.467,0,0,1,3.82-1.14,6.975,6.975,0,0,1,2.92.6.549.549,0,0,1,.3.18.5.5,0,0,1,.06.26q0,.8-.04,1.24l-.04,1.68q0,.08-.24.08t-.24-.08a2.379,2.379,0,0,0-.64-1.58,4.633,4.633,0,0,0-1.6-1.18,4.574,4.574,0,0,0-1.92-.44,2.227,2.227,0,0,0-1.58.54A2.109,2.109,0,0,0-7.92-13ZM21.04-2.28a.224.224,0,0,1,.22.18.191.191,0,0,1-.1.26L16.48.36,16.32.4q-.4,0-.76-.92a6.691,6.691,0,0,1-.36-2.4v-.16A11.343,11.343,0,0,1,12.08-.5,6.877,6.877,0,0,1,8.84.32,3.958,3.958,0,0,1,5.72-.94,5.342,5.342,0,0,1,4.6-4.6v-6.12a6.592,6.592,0,0,0-.28-2.26.957.957,0,0,0-.92-.7,3.174,3.174,0,0,0-1.36.4H2q-.16,0-.24-.22t.08-.26l4.44-2,.16-.04a.457.457,0,0,1,.26.1.277.277,0,0,1,.14.22v9.56q0,4.64,3.36,4.64a5.783,5.783,0,0,0,2.6-.66,8.413,8.413,0,0,0,2.4-1.82v-6.96A7.041,7.041,0,0,0,14.94-13a.944.944,0,0,0-.94-.68,3.174,3.174,0,0,0-1.36.4H12.6q-.16,0-.22-.22t.1-.26l4.44-2,.12-.04a.457.457,0,0,1,.26.1.277.277,0,0,1,.14.22v11.2a4.419,4.419,0,0,0,.32,1.96,1.125,1.125,0,0,0,1.08.6,6.691,6.691,0,0,0,2.12-.56ZM22.88,0q-.12,0-.12-.24t.12-.24a4.354,4.354,0,0,0,1.6-.22,1.269,1.269,0,0,0,.72-.8,5.68,5.68,0,0,0,.2-1.74V-23.92A5.6,5.6,0,0,0,25.12-26a1,1,0,0,0-1-.64,5.126,5.126,0,0,0-1.84.56H22.2q-.12,0-.18-.2t.06-.24l5.12-2.44a.445.445,0,0,1,.2-.04.433.433,0,0,1,.22.1.277.277,0,0,1,.14.22V-3.24a6.052,6.052,0,0,0,.18,1.72,1.269,1.269,0,0,0,.7.8,4.022,4.022,0,0,0,1.6.24q.12,0,.12.24T30.24,0q-.88,0-1.44-.04L26.56-.08,24.4-.04Q23.84,0,22.88,0ZM44.04-2.08a.257.257,0,0,1,.24.18q.08.18-.04.26A11.53,11.53,0,0,1,41.58,0a6.468,6.468,0,0,1-2.46.48,4.686,4.686,0,0,1-2.76-.76A2.865,2.865,0,0,1,35.28-2.8v-9.4a5.45,5.45,0,0,0-.14-1.48.844.844,0,0,0-.54-.58,4.593,4.593,0,0,0-1.36-.14q-.16,0-.16-.26t.16-.26a4.139,4.139,0,0,0,2.6-.86A3.187,3.187,0,0,0,37-17.96q0-.12.32-.12.28,0,.28.12V-15q2-.04,5.56-.4.08,0,.18.3a2.077,2.077,0,0,1,.1.66,1.728,1.728,0,0,1-.14.66q-.14.34-.3.3a24.766,24.766,0,0,0-5.4-.64v9.96a3.27,3.27,0,0,0,.82,2.44,3.213,3.213,0,0,0,2.34.8,5.087,5.087,0,0,0,3.2-1.12ZM-93.32,31.52q.16,0,.16.24t-.16.24q-.76,0-2.36-.08T-98,31.84q-.88,0-2.24.08-1.28.08-1.96.08-.16,0-.16-.24t.16-.24a6.1,6.1,0,0,0,2.16-.28.978.978,0,0,0,.68-.96,4.822,4.822,0,0,0-.52-1.72L-103.44,21h-9.52l-2.52,5.92a6.147,6.147,0,0,0-.56,2.2,1.963,1.963,0,0,0,.98,1.82,5.9,5.9,0,0,0,2.94.58q.2,0,.2.24t-.2.24q-.72,0-2.08-.08-1.52-.08-2.64-.08-1.04,0-2.4.08-1.2.08-2,.08-.2,0-.2-.24t.2-.24a3.962,3.962,0,0,0,1.9-.42,4.329,4.329,0,0,0,1.48-1.48,19.418,19.418,0,0,0,1.54-3.06l8.44-19.92a.311.311,0,0,1,.28-.12q.2,0,.24.12l9.44,19.88A16.194,16.194,0,0,0-95.6,30.5,3.027,3.027,0,0,0-93.32,31.52ZM-112.64,20.2h8.84l-4.68-9.88ZM-73.4,31.52q.12,0,.12.24t-.12.24q-.92,0-1.44-.04L-77,31.92l-2.2.04q-.52.04-1.44.04-.12,0-.12-.24t.12-.24a4.354,4.354,0,0,0,1.6-.22,1.2,1.2,0,0,0,.7-.78,6.246,6.246,0,0,0,.18-1.76V22.28a5.519,5.519,0,0,0-.9-3.48,3.353,3.353,0,0,0-2.78-1.12,5.353,5.353,0,0,0-2.5.66,8.2,8.2,0,0,0-2.3,1.82v8.6a6.246,6.246,0,0,0,.18,1.76,1.2,1.2,0,0,0,.7.78,4.354,4.354,0,0,0,1.6.22q.12,0,.12.24t-.12.24q-.92,0-1.44-.04l-2.16-.04-2.2.04q-.52.04-1.44.04-.12,0-.12-.24t.12-.24a4.354,4.354,0,0,0,1.6-.22,1.2,1.2,0,0,0,.7-.78,6.246,6.246,0,0,0,.18-1.76V20.84a4.419,4.419,0,0,0-.32-1.96,1.125,1.125,0,0,0-1.08-.6,7.011,7.011,0,0,0-2.16.6h-.08a.224.224,0,0,1-.22-.18.191.191,0,0,1,.1-.26l4.64-2.2.24-.04q.36,0,.76.92a5.962,5.962,0,0,1,.4,2.36,11.623,11.623,0,0,1,3.02-2.6,6.265,6.265,0,0,1,3.1-.84,4.567,4.567,0,0,1,3.44,1.24,5.035,5.035,0,0,1,1.2,3.64v7.84a6.246,6.246,0,0,0,.18,1.76,1.2,1.2,0,0,0,.7.78A4.354,4.354,0,0,0-73.4,31.52Zm20.68,0q.12,0,.12.24t-.12.24q-.92,0-1.44-.04l-2.16-.04-2.2.04q-.52.04-1.44.04-.12,0-.12-.24t.12-.24a4.354,4.354,0,0,0,1.6-.22,1.2,1.2,0,0,0,.7-.78,6.246,6.246,0,0,0,.18-1.76V22.28a5.519,5.519,0,0,0-.9-3.48,3.353,3.353,0,0,0-2.78-1.12,5.353,5.353,0,0,0-2.5.66,8.2,8.2,0,0,0-2.3,1.82v8.6a6.246,6.246,0,0,0,.18,1.76,1.2,1.2,0,0,0,.7.78,4.354,4.354,0,0,0,1.6.22q.12,0,.12.24t-.12.24q-.92,0-1.44-.04l-2.16-.04-2.2.04q-.52.04-1.44.04-.12,0-.12-.24t.12-.24a4.354,4.354,0,0,0,1.6-.22,1.2,1.2,0,0,0,.7-.78,6.246,6.246,0,0,0,.18-1.76V20.84a4.419,4.419,0,0,0-.32-1.96,1.125,1.125,0,0,0-1.08-.6,7.011,7.011,0,0,0-2.16.6h-.08a.224.224,0,0,1-.22-.18.191.191,0,0,1,.1-.26l4.64-2.2.24-.04q.36,0,.76.92a5.962,5.962,0,0,1,.4,2.36,11.623,11.623,0,0,1,3.02-2.6,6.265,6.265,0,0,1,3.1-.84,4.567,4.567,0,0,1,3.44,1.24,5.035,5.035,0,0,1,1.2,3.64v7.84a6.246,6.246,0,0,0,.18,1.76,1.2,1.2,0,0,0,.7.78A4.354,4.354,0,0,0-52.72,31.52Zm10.12,1a7.436,7.436,0,0,1-4.1-1.14,7.568,7.568,0,0,1-2.74-3.08,9.383,9.383,0,0,1-.96-4.22,7.574,7.574,0,0,1,1.26-4.42,7.81,7.81,0,0,1,3.24-2.72,9.628,9.628,0,0,1,4.02-.9,7.314,7.314,0,0,1,4.12,1.16,7.677,7.677,0,0,1,2.7,3.06,8.948,8.948,0,0,1,.94,4.02,8.03,8.03,0,0,1-1.16,4.34,7.953,7.953,0,0,1-3.1,2.88A8.93,8.93,0,0,1-42.6,32.52Zm1.16-.76a4.039,4.039,0,0,0,3.4-1.56,7.849,7.849,0,0,0,1.2-4.8,11.41,11.41,0,0,0-.82-4.44,7.28,7.28,0,0,0-2.26-3.06,5.26,5.26,0,0,0-3.28-1.1,3.942,3.942,0,0,0-3.34,1.56,7.318,7.318,0,0,0-1.18,4.48,12.169,12.169,0,0,0,.8,4.48,7.838,7.838,0,0,0,2.24,3.24A4.929,4.929,0,0,0-41.44,31.76Zm28.24-2.04a.224.224,0,0,1,.22.18.191.191,0,0,1-.1.26l-4.68,2.2-.16.04q-.4,0-.76-.92a6.691,6.691,0,0,1-.36-2.4v-.16a11.343,11.343,0,0,1-3.12,2.58,6.877,6.877,0,0,1-3.24.82,3.958,3.958,0,0,1-3.12-1.26,5.342,5.342,0,0,1-1.12-3.66V21.28a6.592,6.592,0,0,0-.28-2.26.957.957,0,0,0-.92-.7,3.174,3.174,0,0,0-1.36.4h-.04q-.16,0-.24-.22t.08-.26l4.44-2,.16-.04a.457.457,0,0,1,.26.1.277.277,0,0,1,.14.22v9.56q0,4.64,3.36,4.64a5.783,5.783,0,0,0,2.6-.66,8.413,8.413,0,0,0,2.4-1.82V21.28A7.041,7.041,0,0,0-19.3,19a.944.944,0,0,0-.94-.68,3.174,3.174,0,0,0-1.36.4h-.04q-.16,0-.22-.22t.1-.26l4.44-2,.12-.04a.457.457,0,0,1,.26.1.277.277,0,0,1,.14.22v11.2a4.419,4.419,0,0,0,.32,1.96,1.125,1.125,0,0,0,1.08.6,6.691,6.691,0,0,0,2.12-.56Zm20.04,1.8q.12,0,.12.24T6.84,32q-.92,0-1.44-.04l-2.16-.04-2.2.04Q.52,32-.4,32q-.12,0-.12-.24t.12-.24a4.354,4.354,0,0,0,1.6-.22,1.2,1.2,0,0,0,.7-.78,6.246,6.246,0,0,0,.18-1.76V22.28a5.519,5.519,0,0,0-.9-3.48A3.353,3.353,0,0,0-1.6,17.68a5.353,5.353,0,0,0-2.5.66,8.2,8.2,0,0,0-2.3,1.82v8.6a6.246,6.246,0,0,0,.18,1.76,1.2,1.2,0,0,0,.7.78,4.354,4.354,0,0,0,1.6.22q.12,0,.12.24t-.12.24q-.92,0-1.44-.04l-2.16-.04-2.2.04q-.52.04-1.44.04-.12,0-.12-.24t.12-.24a4.354,4.354,0,0,0,1.6-.22,1.2,1.2,0,0,0,.7-.78,6.246,6.246,0,0,0,.18-1.76V20.84A4.418,4.418,0,0,0-9,18.88a1.125,1.125,0,0,0-1.08-.6,7.011,7.011,0,0,0-2.16.6h-.08a.224.224,0,0,1-.22-.18.191.191,0,0,1,.1-.26l4.64-2.2.24-.04q.36,0,.76.92a5.962,5.962,0,0,1,.4,2.36,11.623,11.623,0,0,1,3.02-2.6,6.265,6.265,0,0,1,3.1-.84,4.567,4.567,0,0,1,3.44,1.24,5.035,5.035,0,0,1,1.2,3.64v7.84a6.246,6.246,0,0,0,.18,1.76,1.2,1.2,0,0,0,.7.78A4.354,4.354,0,0,0,6.84,31.52Zm10.12.96a7.859,7.859,0,0,1-4.36-1.14A6.977,6.977,0,0,1,10,28.4a8.879,8.879,0,0,1-.84-3.8,7.792,7.792,0,0,1,1.28-4.46,8.59,8.59,0,0,1,3.3-2.92,9.086,9.086,0,0,1,4.14-1.02,7.351,7.351,0,0,1,3.22.7q1.46.7,1.46,1.74a1.23,1.23,0,0,1-.38.9,1.378,1.378,0,0,1-1.02.38A2.011,2.011,0,0,1,19.4,18.6a4.086,4.086,0,0,0-1.12-1.2,3.1,3.1,0,0,0-1.72-.4,4.079,4.079,0,0,0-3.5,1.74A7.783,7.783,0,0,0,11.8,23.4a8.726,8.726,0,0,0,1.68,5.52,5.99,5.99,0,0,0,5.04,2.16,6.3,6.3,0,0,0,4.08-1.32h.04a.286.286,0,0,1,.22.12q.1.12.02.2a10.007,10.007,0,0,1-2.82,1.82A8.121,8.121,0,0,1,16.96,32.48Zm21.32-2.72a.277.277,0,0,1,.22.14.213.213,0,0,1,.02.26,8.646,8.646,0,0,1-5.84,2.32,6.866,6.866,0,0,1-6.46-3.92,8.452,8.452,0,0,1-.86-3.76,8.664,8.664,0,0,1,1.12-4.34A8.325,8.325,0,0,1,33.8,16.2a4.655,4.655,0,0,1,3.44,1.2,4.542,4.542,0,0,1,1.2,3.36,2.274,2.274,0,0,1-.1.8.347.347,0,0,1-.34.24l-9.92.04q-.08.88-.08,1.44a9.079,9.079,0,0,0,1.64,5.64,5.443,5.443,0,0,0,4.6,2.16,5.917,5.917,0,0,0,2.06-.32,10.82,10.82,0,0,0,1.94-1ZM32.48,17a3.813,3.813,0,0,0-2.84,1.14,5.862,5.862,0,0,0-1.48,3.18l7.6-.16a4.747,4.747,0,0,0-.88-3.1A2.954,2.954,0,0,0,32.48,17ZM69.92,31.52q.16,0,.16.24t-.16.24q-.92,0-1.48-.04l-2.16-.04-2.16.04q-.56.04-1.48.04-.12,0-.12-.24t.12-.24a4.354,4.354,0,0,0,1.6-.22,1.269,1.269,0,0,0,.72-.8,5.68,5.68,0,0,0,.2-1.74V22.4a5.912,5.912,0,0,0-.84-3.5,3.016,3.016,0,0,0-2.6-1.14,5.054,5.054,0,0,0-2.42.66,8.119,8.119,0,0,0-2.26,1.86,3.625,3.625,0,0,1,.04.64v7.84a5.652,5.652,0,0,0,.2,1.76,1.268,1.268,0,0,0,.72.78,4.354,4.354,0,0,0,1.6.22q.12,0,.12.24T59.6,32q-.92,0-1.48-.04l-2.16-.04-2.2.04q-.52.04-1.44.04-.12,0-.12-.24t.12-.24a4.354,4.354,0,0,0,1.6-.22,1.2,1.2,0,0,0,.7-.78,6.246,6.246,0,0,0,.18-1.76V22.4a5.912,5.912,0,0,0-.84-3.5,2.972,2.972,0,0,0-2.56-1.14,5.06,5.06,0,0,0-2.4.64,7.7,7.7,0,0,0-2.2,1.8v8.56a6.246,6.246,0,0,0,.18,1.76,1.2,1.2,0,0,0,.7.78,4.354,4.354,0,0,0,1.6.22q.12,0,.12.24t-.12.24q-.92,0-1.44-.04l-2.16-.04-2.2.04q-.52.04-1.44.04-.12,0-.12-.24t.12-.24a4.354,4.354,0,0,0,1.6-.22,1.2,1.2,0,0,0,.7-.78,6.246,6.246,0,0,0,.18-1.76V20.84a4.419,4.419,0,0,0-.32-1.96,1.125,1.125,0,0,0-1.08-.6,7.011,7.011,0,0,0-2.16.6h-.08a.224.224,0,0,1-.22-.18.191.191,0,0,1,.1-.26l4.64-2.2.24-.04q.36,0,.76.92a5.962,5.962,0,0,1,.4,2.36v.04a10.367,10.367,0,0,1,2.88-2.56,6.1,6.1,0,0,1,3-.8,4.589,4.589,0,0,1,2.92.88A4,4,0,0,1,57,19.68a11.344,11.344,0,0,1,2.96-2.66,6.047,6.047,0,0,1,3.08-.86,4.244,4.244,0,0,1,3.26,1.22A5.126,5.126,0,0,1,67.44,21v7.76a6.246,6.246,0,0,0,.18,1.76,1.2,1.2,0,0,0,.7.78A4.354,4.354,0,0,0,69.92,31.52Zm15.2-1.76a.277.277,0,0,1,.22.14.213.213,0,0,1,.02.26,8.646,8.646,0,0,1-5.84,2.32,6.866,6.866,0,0,1-6.46-3.92,8.452,8.452,0,0,1-.86-3.76,8.664,8.664,0,0,1,1.12-4.34,8.325,8.325,0,0,1,7.32-4.26,4.655,4.655,0,0,1,3.44,1.2,4.542,4.542,0,0,1,1.2,3.36,2.274,2.274,0,0,1-.1.8.347.347,0,0,1-.34.24l-9.92.04q-.08.88-.08,1.44a9.079,9.079,0,0,0,1.64,5.64,5.443,5.443,0,0,0,4.6,2.16,5.917,5.917,0,0,0,2.06-.32,10.82,10.82,0,0,0,1.94-1ZM79.32,17a3.813,3.813,0,0,0-2.84,1.14A5.862,5.862,0,0,0,75,21.32l7.6-.16a4.747,4.747,0,0,0-.88-3.1A2.954,2.954,0,0,0,79.32,17Zm27.56,14.52q.12,0,.12.24t-.12.24q-.92,0-1.44-.04l-2.16-.04-2.2.04q-.52.04-1.44.04-.12,0-.12-.24t.12-.24a4.354,4.354,0,0,0,1.6-.22,1.2,1.2,0,0,0,.7-.78,6.246,6.246,0,0,0,.18-1.76V22.28a5.519,5.519,0,0,0-.9-3.48,3.353,3.353,0,0,0-2.78-1.12,5.353,5.353,0,0,0-2.5.66,8.2,8.2,0,0,0-2.3,1.82v8.6a6.246,6.246,0,0,0,.18,1.76,1.2,1.2,0,0,0,.7.78,4.354,4.354,0,0,0,1.6.22q.12,0,.12.24t-.12.24q-.92,0-1.44-.04l-2.16-.04-2.2.04q-.52.04-1.44.04-.12,0-.12-.24t.12-.24a4.354,4.354,0,0,0,1.6-.22,1.2,1.2,0,0,0,.7-.78,6.246,6.246,0,0,0,.18-1.76V20.84a4.419,4.419,0,0,0-.32-1.96,1.125,1.125,0,0,0-1.08-.6,7.011,7.011,0,0,0-2.16.6h-.08a.224.224,0,0,1-.22-.18.191.191,0,0,1,.1-.26l4.64-2.2.24-.04q.36,0,.76.92a5.962,5.962,0,0,1,.4,2.36,11.623,11.623,0,0,1,3.02-2.6,6.265,6.265,0,0,1,3.1-.84,4.567,4.567,0,0,1,3.44,1.24,5.035,5.035,0,0,1,1.2,3.64v7.84a6.246,6.246,0,0,0,.18,1.76,1.2,1.2,0,0,0,.7.78A4.354,4.354,0,0,0,106.88,31.52Zm13.32-1.6a.257.257,0,0,1,.24.18q.08.18-.04.26A11.529,11.529,0,0,1,117.74,32a6.468,6.468,0,0,1-2.46.48,4.686,4.686,0,0,1-2.76-.76,2.865,2.865,0,0,1-1.08-2.52V19.8a5.45,5.45,0,0,0-.14-1.48.844.844,0,0,0-.54-.58,4.593,4.593,0,0,0-1.36-.14q-.16,0-.16-.26t.16-.26a4.139,4.139,0,0,0,2.6-.86,3.187,3.187,0,0,0,1.16-2.18q0-.12.32-.12.28,0,.28.12V17q2-.04,5.56-.4.08,0,.18.3a2.077,2.077,0,0,1,.1.66,1.728,1.728,0,0,1-.14.66q-.14.34-.3.3a24.766,24.766,0,0,0-5.4-.64v9.96a3.27,3.27,0,0,0,.82,2.44,3.213,3.213,0,0,0,2.34.8,5.087,5.087,0,0,0,3.2-1.12Z" transform="translate(121.44 29)" fill="#017a94"/>
</svg>
