<svg xmlns="http://www.w3.org/2000/svg" width="504.16" height="40" viewBox="0 0 504.16 40">
  <g id="グループ_509" data-name="グループ 509" transform="translate(-356 -1416)">
    <rect id="長方形_367" data-name="長方形 367" width="80" height="1" transform="translate(780.16 1432)" fill="#017a94"/>
    <path id="パス_674" data-name="パス 674" d="M-124.94-.48q.16,0,.16.24t-.16.24q-.76,0-2.36-.08t-2.32-.08q-.88,0-2.24.08-1.28.08-1.96.08-.16,0-.16-.24t.16-.24a6.1,6.1,0,0,0,2.16-.28.978.978,0,0,0,.68-.96,4.822,4.822,0,0,0-.52-1.72L-135.06-11h-9.52l-2.52,5.92a6.147,6.147,0,0,0-.56,2.2,1.963,1.963,0,0,0,.98,1.82,5.9,5.9,0,0,0,2.94.58q.2,0,.2.24t-.2.24q-.72,0-2.08-.08-1.52-.08-2.64-.08-1.04,0-2.4.08-1.2.08-2,.08-.2,0-.2-.24t.2-.24a3.962,3.962,0,0,0,1.9-.42,4.329,4.329,0,0,0,1.48-1.48,19.42,19.42,0,0,0,1.54-3.06l8.44-19.92a.311.311,0,0,1,.28-.12q.2,0,.24.12l9.44,19.88a16.194,16.194,0,0,0,2.32,3.98A3.027,3.027,0,0,0-124.94-.48ZM-144.26-11.8h8.84l-4.68-9.88Zm32.2-4.16a5.605,5.605,0,0,1,3.04.88,6.213,6.213,0,0,1,2.24,2.56,8.66,8.66,0,0,1,.84,3.92,8.985,8.985,0,0,1-1.36,5.06,8.69,8.69,0,0,1-3.34,3.06,8.605,8.605,0,0,1-3.9,1,9.361,9.361,0,0,1-2.22-.24,8.59,8.59,0,0,1-2.02-.8V7.76a3.9,3.9,0,0,0,.3,1.76,1.69,1.69,0,0,0,1.14.78,10.934,10.934,0,0,0,2.56.22q.08,0,.08.24t-.08.24q-1.36,0-2.16-.04l-2.92-.04-2.2.04q-.56.04-1.48.04-.12,0-.12-.24t.12-.24a4.354,4.354,0,0,0,1.6-.22,1.268,1.268,0,0,0,.72-.78,5.652,5.652,0,0,0,.2-1.76v-18.8a4.811,4.811,0,0,0-.32-2.06,1.152,1.152,0,0,0-1.12-.62,5.339,5.339,0,0,0-2.12.56l-.08.04q-.16,0-.22-.2t.06-.28l4.44-2.12a.686.686,0,0,1,.28-.04q.56,0,.92.84a6.752,6.752,0,0,1,.4,2.4Q-115.38-15.96-112.06-15.96ZM-113.34-.32a4.143,4.143,0,0,0,3.48-1.86,8.636,8.636,0,0,0,1.36-5.18,8.19,8.19,0,0,0-1.48-5.22,4.6,4.6,0,0,0-3.76-1.86,5.186,5.186,0,0,0-2.6.68,11.614,11.614,0,0,0-2.44,1.92v9A8.3,8.3,0,0,0-116.4-.96,6.7,6.7,0,0,0-113.34-.32Zm21.72-15.64a5.605,5.605,0,0,1,3.04.88,6.213,6.213,0,0,1,2.24,2.56A8.66,8.66,0,0,1-85.5-8.6a8.985,8.985,0,0,1-1.36,5.06A8.69,8.69,0,0,1-90.2-.48a8.605,8.605,0,0,1-3.9,1A9.361,9.361,0,0,1-96.32.28a8.59,8.59,0,0,1-2.02-.8V7.76a3.9,3.9,0,0,0,.3,1.76,1.69,1.69,0,0,0,1.14.78,10.934,10.934,0,0,0,2.56.22q.08,0,.08.24t-.08.24q-1.36,0-2.16-.04l-2.92-.04-2.2.04q-.56.04-1.48.04-.12,0-.12-.24t.12-.24a4.354,4.354,0,0,0,1.6-.22,1.268,1.268,0,0,0,.72-.78,5.652,5.652,0,0,0,.2-1.76v-18.8a4.811,4.811,0,0,0-.32-2.06,1.152,1.152,0,0,0-1.12-.62,5.339,5.339,0,0,0-2.12.56l-.08.04q-.16,0-.22-.2t.06-.28l4.44-2.12a.686.686,0,0,1,.28-.04q.56,0,.92.84a6.752,6.752,0,0,1,.4,2.4Q-94.94-15.96-91.62-15.96ZM-92.9-.32a4.143,4.143,0,0,0,3.48-1.86,8.636,8.636,0,0,0,1.36-5.18,8.19,8.19,0,0,0-1.48-5.22,4.6,4.6,0,0,0-3.76-1.86,5.186,5.186,0,0,0-2.6.68,11.614,11.614,0,0,0-2.44,1.92v9A8.3,8.3,0,0,0-95.96-.96,6.7,6.7,0,0,0-92.9-.32ZM-82.34,0q-.12,0-.12-.24t.12-.24a4.354,4.354,0,0,0,1.6-.22,1.269,1.269,0,0,0,.72-.8,5.68,5.68,0,0,0,.2-1.74V-23.92A5.6,5.6,0,0,0-80.1-26a1,1,0,0,0-1-.64,5.126,5.126,0,0,0-1.84.56h-.08q-.12,0-.18-.2t.06-.24l5.12-2.44a.445.445,0,0,1,.2-.04.433.433,0,0,1,.22.1.277.277,0,0,1,.14.22V-3.24a6.052,6.052,0,0,0,.18,1.72,1.269,1.269,0,0,0,.7.8,4.022,4.022,0,0,0,1.6.24q.12,0,.12.24t-.12.24q-.88,0-1.44-.04l-2.24-.04-2.16.04Q-81.38,0-82.34,0Zm14.2-20.48a1.806,1.806,0,0,1-1.3-.44,1.635,1.635,0,0,1-.46-1.24,1.635,1.635,0,0,1,.46-1.24,1.806,1.806,0,0,1,1.3-.44,1.677,1.677,0,0,1,1.24.44,1.677,1.677,0,0,1,.44,1.24,1.677,1.677,0,0,1-.44,1.24A1.677,1.677,0,0,1-68.14-20.48ZM-71.5,0q-.08,0-.08-.24t.08-.24A4.526,4.526,0,0,0-69.88-.7a1.263,1.263,0,0,0,.74-.8,5.68,5.68,0,0,0,.2-1.74v-7.48a5.255,5.255,0,0,0-.3-2.08,1.043,1.043,0,0,0-1.02-.64,4.133,4.133,0,0,0-1.8.56h-.04q-.16,0-.24-.2t.04-.28l5.2-2.4.16-.04a.348.348,0,0,1,.2.1.286.286,0,0,1,.12.22q0,.28-.04,1.6t-.04,3.12v7.52a5.652,5.652,0,0,0,.2,1.76,1.268,1.268,0,0,0,.72.78,4.354,4.354,0,0,0,1.6.22q.12,0,.12.24t-.12.24q-.92,0-1.48-.04l-2.16-.04-2.16.04Q-70.54,0-71.5,0Zm18.04.48A7.859,7.859,0,0,1-57.82-.66a6.977,6.977,0,0,1-2.6-2.94,8.879,8.879,0,0,1-.84-3.8,7.792,7.792,0,0,1,1.28-4.46,8.59,8.59,0,0,1,3.3-2.92,9.086,9.086,0,0,1,4.14-1.02,7.351,7.351,0,0,1,3.22.7q1.46.7,1.46,1.74a1.23,1.23,0,0,1-.38.9,1.378,1.378,0,0,1-1.02.38,2.011,2.011,0,0,1-1.76-1.32,4.086,4.086,0,0,0-1.12-1.2,3.1,3.1,0,0,0-1.72-.4,4.079,4.079,0,0,0-3.5,1.74A7.783,7.783,0,0,0-58.62-8.6a8.726,8.726,0,0,0,1.68,5.52A5.99,5.99,0,0,0-51.9-.92a6.3,6.3,0,0,0,4.08-1.32h.04a.286.286,0,0,1,.22.12q.1.12.02.2A10.007,10.007,0,0,1-50.36-.1,8.121,8.121,0,0,1-53.46.48Zm23.6-2.64a.2.2,0,0,1,.2.18.211.211,0,0,1-.12.26L-33.9.24a.71.71,0,0,1-.32.08q-.52,0-.92-.7a4.825,4.825,0,0,1-.52-1.9L-37.74-.92A9.427,9.427,0,0,1-39.5,0a4.591,4.591,0,0,1-1.6.28A3.2,3.2,0,0,1-43.4-.5a2.615,2.615,0,0,1-.82-1.98,2.733,2.733,0,0,1,.96-2.08A9.682,9.682,0,0,1-40.1-6.24l4.4-1.64V-10.6q0-4.48-2.52-4.48a2.45,2.45,0,0,0-2.06.9,4.935,4.935,0,0,0-.94,2.06,2.872,2.872,0,0,1-.44,1.18,1.222,1.222,0,0,1-1.08.46,1.284,1.284,0,0,1-.98-.36,1.185,1.185,0,0,1-.34-.84,2.589,2.589,0,0,1,1.24-1.92,11.151,11.151,0,0,1,2.96-1.6,8.959,8.959,0,0,1,3.08-.64A3,3,0,0,1-34.3-14.8a4.675,4.675,0,0,1,.84,3v7.48a4.353,4.353,0,0,0,.36,2.04,1.267,1.267,0,0,0,1.2.64,5.225,5.225,0,0,0,1.96-.52Zm-5.84-.68V-7.32l-3.72,1.44a4.084,4.084,0,0,0-1.62,1.02,2.044,2.044,0,0,0-.5,1.38,2.277,2.277,0,0,0,.62,1.62,2.12,2.12,0,0,0,1.62.66,4.05,4.05,0,0,0,1.92-.64Zm18.44.76a.257.257,0,0,1,.24.18q.08.18-.04.26A11.529,11.529,0,0,1-19.72,0a6.468,6.468,0,0,1-2.46.48,4.686,4.686,0,0,1-2.76-.76A2.865,2.865,0,0,1-26.02-2.8v-9.4a5.45,5.45,0,0,0-.14-1.48.844.844,0,0,0-.54-.58,4.593,4.593,0,0,0-1.36-.14q-.16,0-.16-.26t.16-.26a4.139,4.139,0,0,0,2.6-.86,3.187,3.187,0,0,0,1.16-2.18q0-.12.32-.12.28,0,.28.12V-15q2-.04,5.56-.4.08,0,.18.3a2.077,2.077,0,0,1,.1.66,1.728,1.728,0,0,1-.14.66q-.14.34-.3.3a24.766,24.766,0,0,0-5.4-.64v9.96a3.27,3.27,0,0,0,.82,2.44,3.213,3.213,0,0,0,2.34.8,5.087,5.087,0,0,0,3.2-1.12Zm6.56-18.4a1.806,1.806,0,0,1-1.3-.44,1.635,1.635,0,0,1-.46-1.24A1.635,1.635,0,0,1-12-23.4a1.806,1.806,0,0,1,1.3-.44,1.677,1.677,0,0,1,1.24.44,1.677,1.677,0,0,1,.44,1.24,1.677,1.677,0,0,1-.44,1.24A1.677,1.677,0,0,1-10.7-20.48ZM-14.06,0q-.08,0-.08-.24t.08-.24A4.526,4.526,0,0,0-12.44-.7a1.263,1.263,0,0,0,.74-.8,5.68,5.68,0,0,0,.2-1.74v-7.48a5.255,5.255,0,0,0-.3-2.08,1.043,1.043,0,0,0-1.02-.64,4.133,4.133,0,0,0-1.8.56h-.04q-.16,0-.24-.2t.04-.28l5.2-2.4.16-.04a.348.348,0,0,1,.2.1.286.286,0,0,1,.12.22q0,.28-.04,1.6t-.04,3.12v7.52a5.652,5.652,0,0,0,.2,1.76,1.268,1.268,0,0,0,.72.78,4.354,4.354,0,0,0,1.6.22q.12,0,.12.24T-6.74,0q-.92,0-1.48-.04l-2.16-.04-2.16.04Q-13.1,0-14.06,0ZM3.98.52A7.436,7.436,0,0,1-.12-.62,7.568,7.568,0,0,1-2.86-3.7a9.383,9.383,0,0,1-.96-4.22,7.574,7.574,0,0,1,1.26-4.42A7.81,7.81,0,0,1,.68-15.06a9.628,9.628,0,0,1,4.02-.9A7.314,7.314,0,0,1,8.82-14.8a7.677,7.677,0,0,1,2.7,3.06,8.948,8.948,0,0,1,.94,4.02A8.03,8.03,0,0,1,11.3-3.38,7.953,7.953,0,0,1,8.2-.5,8.93,8.93,0,0,1,3.98.52ZM5.14-.24A4.039,4.039,0,0,0,8.54-1.8a7.849,7.849,0,0,0,1.2-4.8,11.41,11.41,0,0,0-.82-4.44A7.28,7.28,0,0,0,6.66-14.1a5.26,5.26,0,0,0-3.28-1.1A3.942,3.942,0,0,0,.04-13.64,7.318,7.318,0,0,0-1.14-9.16a12.169,12.169,0,0,0,.8,4.48A7.838,7.838,0,0,0,1.9-1.44,4.929,4.929,0,0,0,5.14-.24ZM33.7-.48q.12,0,.12.24T33.7,0q-.92,0-1.44-.04L30.1-.08l-2.2.04Q27.38,0,26.46,0q-.12,0-.12-.24t.12-.24a4.354,4.354,0,0,0,1.6-.22,1.2,1.2,0,0,0,.7-.78,6.246,6.246,0,0,0,.18-1.76V-9.72a5.519,5.519,0,0,0-.9-3.48,3.353,3.353,0,0,0-2.78-1.12,5.353,5.353,0,0,0-2.5.66,8.2,8.2,0,0,0-2.3,1.82v8.6a6.246,6.246,0,0,0,.18,1.76,1.2,1.2,0,0,0,.7.78,4.354,4.354,0,0,0,1.6.22q.12,0,.12.24T22.94,0q-.92,0-1.44-.04L19.34-.08l-2.2.04Q16.62,0,15.7,0q-.12,0-.12-.24t.12-.24A4.354,4.354,0,0,0,17.3-.7a1.2,1.2,0,0,0,.7-.78,6.246,6.246,0,0,0,.18-1.76v-7.92a4.418,4.418,0,0,0-.32-1.96,1.125,1.125,0,0,0-1.08-.6,7.011,7.011,0,0,0-2.16.6h-.08a.224.224,0,0,1-.22-.18.191.191,0,0,1,.1-.26l4.64-2.2.24-.04q.36,0,.76.92a5.962,5.962,0,0,1,.4,2.36,11.623,11.623,0,0,1,3.02-2.6,6.265,6.265,0,0,1,3.1-.84,4.567,4.567,0,0,1,3.44,1.24,5.035,5.035,0,0,1,1.2,3.64v7.84a6.246,6.246,0,0,0,.18,1.76,1.2,1.2,0,0,0,.7.78A4.354,4.354,0,0,0,33.7-.48ZM56.06.16Q54.9.16,53.38.04,52.82,0,51.96-.04t-1.9-.04l-2.72.04q-.72.04-2,.04-.08,0-.08-.24t.08-.24a8.851,8.851,0,0,0,2.22-.2,1.406,1.406,0,0,0,.96-.78,4.591,4.591,0,0,0,.26-1.78V-21.76a4.768,4.768,0,0,0-.24-1.76,1.409,1.409,0,0,0-.94-.78,8.077,8.077,0,0,0-2.22-.22q-.08,0-.08-.24t.08-.24l2,.04q1.68.08,2.68.08,1.52,0,3-.12,1.76-.08,2.44-.08a16.371,16.371,0,0,1,7.38,1.6,12.163,12.163,0,0,1,4.98,4.36,11.287,11.287,0,0,1,1.76,6.2A12.9,12.9,0,0,1,67.8-6.06a12.345,12.345,0,0,1-4.94,4.6A14.535,14.535,0,0,1,56.06.16Zm-.4-.6a11.759,11.759,0,0,0,5.68-1.34A9.3,9.3,0,0,0,65.2-5.74a13.36,13.36,0,0,0,1.38-6.3,14.814,14.814,0,0,0-1.32-6.32,10.7,10.7,0,0,0-3.76-4.48,9.871,9.871,0,0,0-5.64-1.64,13.546,13.546,0,0,0-2.66.2,2.2,2.2,0,0,0-1.38.8,3.036,3.036,0,0,0-.44,1.8v18a4.268,4.268,0,0,0,.34,1.88A2.161,2.161,0,0,0,53-.78,8.148,8.148,0,0,0,55.66-.44ZM85.9-2.24a.277.277,0,0,1,.22.14.213.213,0,0,1,.02.26A8.646,8.646,0,0,1,80.3.48,7.039,7.039,0,0,1,76.34-.6a7.047,7.047,0,0,1-2.5-2.84,8.452,8.452,0,0,1-.86-3.76,8.664,8.664,0,0,1,1.12-4.34,8.283,8.283,0,0,1,3.06-3.12,8.256,8.256,0,0,1,4.26-1.14,4.655,4.655,0,0,1,3.44,1.2,4.542,4.542,0,0,1,1.2,3.36,2.274,2.274,0,0,1-.1.8.347.347,0,0,1-.34.24l-9.92.04q-.08.88-.08,1.44a9.079,9.079,0,0,0,1.64,5.64,5.443,5.443,0,0,0,4.6,2.16,5.917,5.917,0,0,0,2.06-.32,10.82,10.82,0,0,0,1.94-1ZM80.1-15a3.813,3.813,0,0,0-2.84,1.14,5.862,5.862,0,0,0-1.48,3.18l7.6-.16a4.747,4.747,0,0,0-.88-3.1A2.954,2.954,0,0,0,80.1-15ZM100.3-2.08a.257.257,0,0,1,.24.18q.08.18-.04.26A11.529,11.529,0,0,1,97.84,0a6.468,6.468,0,0,1-2.46.48,4.686,4.686,0,0,1-2.76-.76A2.865,2.865,0,0,1,91.54-2.8v-9.4a5.45,5.45,0,0,0-.14-1.48.844.844,0,0,0-.54-.58,4.593,4.593,0,0,0-1.36-.14q-.16,0-.16-.26t.16-.26a4.139,4.139,0,0,0,2.6-.86,3.187,3.187,0,0,0,1.16-2.18q0-.12.32-.12.28,0,.28.12V-15q2-.04,5.56-.4.08,0,.18.3a2.077,2.077,0,0,1,.1.66,1.728,1.728,0,0,1-.14.66q-.14.34-.3.3a24.766,24.766,0,0,0-5.4-.64v9.96a3.27,3.27,0,0,0,.82,2.44,3.213,3.213,0,0,0,2.34.8,5.087,5.087,0,0,0,3.2-1.12Zm17.68-.08a.2.2,0,0,1,.2.18.211.211,0,0,1-.12.26L113.94.24a.71.71,0,0,1-.32.08q-.52,0-.92-.7a4.825,4.825,0,0,1-.52-1.9L110.1-.92a9.427,9.427,0,0,1-1.76.92,4.591,4.591,0,0,1-1.6.28,3.2,3.2,0,0,1-2.3-.78,2.615,2.615,0,0,1-.82-1.98,2.733,2.733,0,0,1,.96-2.08,9.682,9.682,0,0,1,3.16-1.68l4.4-1.64V-10.6q0-4.48-2.52-4.48a2.45,2.45,0,0,0-2.06.9,4.935,4.935,0,0,0-.94,2.06,2.872,2.872,0,0,1-.44,1.18,1.222,1.222,0,0,1-1.08.46,1.284,1.284,0,0,1-.98-.36,1.185,1.185,0,0,1-.34-.84,2.589,2.589,0,0,1,1.24-1.92,11.151,11.151,0,0,1,2.96-1.6,8.959,8.959,0,0,1,3.08-.64,3,3,0,0,1,2.48,1.04,4.675,4.675,0,0,1,.84,3v7.48a4.353,4.353,0,0,0,.36,2.04,1.267,1.267,0,0,0,1.2.64,5.225,5.225,0,0,0,1.96-.52Zm-5.84-.68V-7.32l-3.72,1.44a4.084,4.084,0,0,0-1.62,1.02,2.044,2.044,0,0,0-.5,1.38,2.277,2.277,0,0,0,.62,1.62,2.12,2.12,0,0,0,1.62.66,4.05,4.05,0,0,0,1.92-.64Zm11.48-17.64a1.806,1.806,0,0,1-1.3-.44,1.635,1.635,0,0,1-.46-1.24,1.635,1.635,0,0,1,.46-1.24,1.806,1.806,0,0,1,1.3-.44,1.677,1.677,0,0,1,1.24.44,1.677,1.677,0,0,1,.44,1.24,1.677,1.677,0,0,1-.44,1.24A1.677,1.677,0,0,1,123.62-20.48ZM120.26,0q-.08,0-.08-.24t.08-.24a4.526,4.526,0,0,0,1.62-.22,1.263,1.263,0,0,0,.74-.8,5.68,5.68,0,0,0,.2-1.74v-7.48a5.255,5.255,0,0,0-.3-2.08,1.043,1.043,0,0,0-1.02-.64,4.133,4.133,0,0,0-1.8.56h-.04q-.16,0-.24-.2t.04-.28l5.2-2.4.16-.04a.348.348,0,0,1,.2.1.286.286,0,0,1,.12.22q0,.28-.04,1.6t-.04,3.12v7.52a5.652,5.652,0,0,0,.2,1.76,1.268,1.268,0,0,0,.72.78,4.354,4.354,0,0,0,1.6.22q.12,0,.12.24t-.12.24q-.92,0-1.48-.04l-2.16-.04-2.16.04Q121.22,0,120.26,0Zm10.4,0q-.12,0-.12-.24t.12-.24a4.354,4.354,0,0,0,1.6-.22,1.269,1.269,0,0,0,.72-.8,5.68,5.68,0,0,0,.2-1.74V-23.92A5.6,5.6,0,0,0,132.9-26a1,1,0,0,0-1-.64,5.126,5.126,0,0,0-1.84.56h-.08q-.12,0-.18-.2t.06-.24l5.12-2.44a.445.445,0,0,1,.2-.04.433.433,0,0,1,.22.1.277.277,0,0,1,.14.22V-3.24a6.051,6.051,0,0,0,.18,1.72,1.269,1.269,0,0,0,.7.8,4.022,4.022,0,0,0,1.6.24q.12,0,.12.24t-.12.24q-.88,0-1.44-.04l-2.24-.04-2.16.04Q131.62,0,130.66,0Zm12.76-13a2.824,2.824,0,0,0,.92,2.22,13.522,13.522,0,0,0,2.68,1.74A23.336,23.336,0,0,1,149.2-7.8a4.826,4.826,0,0,1,1.34,1.36,3.594,3.594,0,0,1,.56,2.04,4.5,4.5,0,0,1-1.52,3.44,5.845,5.845,0,0,1-4.12,1.4,6.557,6.557,0,0,1-3.84-1.2.538.538,0,0,1-.24-.48l-.08-3.12q0-.12.22-.14t.26.1a7.31,7.31,0,0,0,1.98,3.04,4.218,4.218,0,0,0,2.82,1.04,2.816,2.816,0,0,0,2-.64,2.247,2.247,0,0,0,.6-1.88,3.123,3.123,0,0,0-.94-2.34,11.743,11.743,0,0,0-2.7-1.7,18.235,18.235,0,0,1-2.1-1.16,4.594,4.594,0,0,1-1.32-1.36,3.771,3.771,0,0,1-.54-2.08,3.785,3.785,0,0,1,1.62-3.3,6.467,6.467,0,0,1,3.82-1.14,6.975,6.975,0,0,1,2.92.6.549.549,0,0,1,.3.18.5.5,0,0,1,.06.26q0,.8-.04,1.24l-.04,1.68q0,.08-.24.08t-.24-.08a2.379,2.379,0,0,0-.64-1.58,4.633,4.633,0,0,0-1.6-1.18,4.574,4.574,0,0,0-1.92-.44,2.227,2.227,0,0,0-1.58.54A2.109,2.109,0,0,0,143.42-13Z" transform="translate(609 1445)" fill="#017a94"/>
    <rect id="長方形_366" data-name="長方形 366" width="80" height="1" transform="translate(356 1432)" fill="#017a94"/>
  </g>
</svg>
