<svg xmlns="http://www.w3.org/2000/svg" width="339.556" height="25.613" viewBox="0 0 339.556 25.613">
  <g id="グループ_509" data-name="グループ 509" transform="translate(-438 -1420)">
    <rect id="長方形_367" data-name="長方形 367" width="80" height="1" transform="translate(697.556 1432)" fill="#017a94"/>
    <path id="パス_673" data-name="パス 673" d="M-43.22-25q.12,0,.12.24t-.12.24a2.989,2.989,0,0,0-2.44.92,4.713,4.713,0,0,0-.76,3V.48q0,.08-.2.12A.3.3,0,0,1-46.9.56L-65.3-21.72l-.36-.4V-4.36a4.717,4.717,0,0,0,.74,2.98,2.909,2.909,0,0,0,2.38.9q.12,0,.12.24t-.12.24q-1,0-1.52-.04l-2-.04-2.04.04q-.56.04-1.64.04-.08,0-.08-.24t.08-.24a2.952,2.952,0,0,0,2.44-.9,4.816,4.816,0,0,0,.72-2.98V-23.08a4.682,4.682,0,0,0-3.16-1.44q-.12,0-.12-.24t.12-.24l1.48.04q.48.04,1.32.04.88,0,1.44-.04t.88-.04a.633.633,0,0,1,.46.14,4.832,4.832,0,0,1,.46.62q.48.72.96,1.32L-47.34-4V-20.6a5.019,5.019,0,0,0-.7-3,2.757,2.757,0,0,0-2.34-.92q-.08,0-.08-.24t.08-.24l1.56.04q1.2.08,1.96.08.72,0,2-.08ZM-33.06.52a7.436,7.436,0,0,1-4.1-1.14A7.568,7.568,0,0,1-39.9-3.7a9.383,9.383,0,0,1-.96-4.22,7.574,7.574,0,0,1,1.26-4.42,7.81,7.81,0,0,1,3.24-2.72,9.628,9.628,0,0,1,4.02-.9,7.314,7.314,0,0,1,4.12,1.16,7.677,7.677,0,0,1,2.7,3.06,8.948,8.948,0,0,1,.94,4.02,8.03,8.03,0,0,1-1.16,4.34A7.953,7.953,0,0,1-28.84-.5,8.93,8.93,0,0,1-33.06.52Zm1.16-.76A4.039,4.039,0,0,0-28.5-1.8a7.849,7.849,0,0,0,1.2-4.8,11.41,11.41,0,0,0-.82-4.44,7.28,7.28,0,0,0-2.26-3.06,5.26,5.26,0,0,0-3.28-1.1A3.942,3.942,0,0,0-37-13.64a7.318,7.318,0,0,0-1.18,4.48,12.169,12.169,0,0,0,.8,4.48,7.838,7.838,0,0,0,2.24,3.24A4.929,4.929,0,0,0-31.9-.24ZM6.54-.48q.16,0,.16.24T6.54,0Q5.62,0,5.06-.04L2.9-.08.74-.04Q.18,0-.74,0-.86,0-.86-.24t.12-.24A4.354,4.354,0,0,0,.86-.7a1.269,1.269,0,0,0,.72-.8,5.68,5.68,0,0,0,.2-1.74V-9.6a5.912,5.912,0,0,0-.84-3.5,3.016,3.016,0,0,0-2.6-1.14,5.054,5.054,0,0,0-2.42.66,8.119,8.119,0,0,0-2.26,1.86,3.625,3.625,0,0,1,.04.64v7.84a5.652,5.652,0,0,0,.2,1.76,1.268,1.268,0,0,0,.72.78,4.354,4.354,0,0,0,1.6.22q.12,0,.12.24T-3.78,0Q-4.7,0-5.26-.04L-7.42-.08l-2.2.04q-.52.04-1.44.04-.12,0-.12-.24t.12-.24A4.354,4.354,0,0,0-9.46-.7a1.2,1.2,0,0,0,.7-.78,6.246,6.246,0,0,0,.18-1.76V-9.6a5.912,5.912,0,0,0-.84-3.5,2.972,2.972,0,0,0-2.56-1.14,5.06,5.06,0,0,0-2.4.64,7.7,7.7,0,0,0-2.2,1.8v8.56a6.246,6.246,0,0,0,.18,1.76,1.2,1.2,0,0,0,.7.78,4.354,4.354,0,0,0,1.6.22q.12,0,.12.24T-14.1,0q-.92,0-1.44-.04L-17.7-.08l-2.2.04q-.52.04-1.44.04-.12,0-.12-.24t.12-.24a4.354,4.354,0,0,0,1.6-.22,1.2,1.2,0,0,0,.7-.78,6.246,6.246,0,0,0,.18-1.76v-7.92a4.418,4.418,0,0,0-.32-1.96,1.125,1.125,0,0,0-1.08-.6,7.011,7.011,0,0,0-2.16.6h-.08a.224.224,0,0,1-.22-.18.191.191,0,0,1,.1-.26l4.64-2.2.24-.04q.36,0,.76.92a5.962,5.962,0,0,1,.4,2.36v.04a10.367,10.367,0,0,1,2.88-2.56,6.1,6.1,0,0,1,3-.8,4.589,4.589,0,0,1,2.92.88,4,4,0,0,1,1.4,2.64,11.344,11.344,0,0,1,2.96-2.66,6.047,6.047,0,0,1,3.08-.86,4.244,4.244,0,0,1,3.26,1.22A5.126,5.126,0,0,1,4.06-11v7.76a6.246,6.246,0,0,0,.18,1.76,1.2,1.2,0,0,0,.7.78A4.354,4.354,0,0,0,6.54-.48Zm6.32-20a1.806,1.806,0,0,1-1.3-.44,1.635,1.635,0,0,1-.46-1.24,1.635,1.635,0,0,1,.46-1.24,1.806,1.806,0,0,1,1.3-.44,1.677,1.677,0,0,1,1.24.44,1.677,1.677,0,0,1,.44,1.24,1.677,1.677,0,0,1-.44,1.24A1.677,1.677,0,0,1,12.86-20.48ZM9.5,0q-.08,0-.08-.24T9.5-.48A4.526,4.526,0,0,0,11.12-.7a1.263,1.263,0,0,0,.74-.8,5.68,5.68,0,0,0,.2-1.74v-7.48a5.255,5.255,0,0,0-.3-2.08,1.043,1.043,0,0,0-1.02-.64,4.133,4.133,0,0,0-1.8.56H8.9q-.16,0-.24-.2t.04-.28l5.2-2.4.16-.04a.348.348,0,0,1,.2.1.286.286,0,0,1,.12.22q0,.28-.04,1.6t-.04,3.12v7.52a5.652,5.652,0,0,0,.2,1.76,1.268,1.268,0,0,0,.72.78,4.354,4.354,0,0,0,1.6.22q.12,0,.12.24T16.82,0q-.92,0-1.48-.04L13.18-.08l-2.16.04Q10.46,0,9.5,0ZM38.1-.48q.12,0,.12.24T38.1,0q-.92,0-1.44-.04L34.5-.08l-2.2.04Q31.78,0,30.86,0q-.12,0-.12-.24t.12-.24a4.354,4.354,0,0,0,1.6-.22,1.2,1.2,0,0,0,.7-.78,6.246,6.246,0,0,0,.18-1.76V-9.72a5.519,5.519,0,0,0-.9-3.48,3.353,3.353,0,0,0-2.78-1.12,5.353,5.353,0,0,0-2.5.66,8.2,8.2,0,0,0-2.3,1.82v8.6a6.246,6.246,0,0,0,.18,1.76,1.2,1.2,0,0,0,.7.78,4.354,4.354,0,0,0,1.6.22q.12,0,.12.24T27.34,0q-.92,0-1.44-.04L23.74-.08l-2.2.04Q21.02,0,20.1,0q-.12,0-.12-.24t.12-.24A4.354,4.354,0,0,0,21.7-.7a1.2,1.2,0,0,0,.7-.78,6.246,6.246,0,0,0,.18-1.76v-7.92a4.418,4.418,0,0,0-.32-1.96,1.125,1.125,0,0,0-1.08-.6,7.011,7.011,0,0,0-2.16.6h-.08a.224.224,0,0,1-.22-.18.191.191,0,0,1,.1-.26l4.64-2.2.24-.04q.36,0,.76.92a5.962,5.962,0,0,1,.4,2.36,11.623,11.623,0,0,1,3.02-2.6,6.265,6.265,0,0,1,3.1-.84,4.567,4.567,0,0,1,3.44,1.24,5.035,5.035,0,0,1,1.2,3.64v7.84a6.246,6.246,0,0,0,.18,1.76,1.2,1.2,0,0,0,.7.78A4.354,4.354,0,0,0,38.1-.48ZM53.34-2.24a.277.277,0,0,1,.22.14.213.213,0,0,1,.02.26A8.646,8.646,0,0,1,47.74.48,7.039,7.039,0,0,1,43.78-.6a7.047,7.047,0,0,1-2.5-2.84,8.452,8.452,0,0,1-.86-3.76,8.663,8.663,0,0,1,1.12-4.34,8.283,8.283,0,0,1,3.06-3.12,8.256,8.256,0,0,1,4.26-1.14,4.655,4.655,0,0,1,3.44,1.2,4.542,4.542,0,0,1,1.2,3.36,2.274,2.274,0,0,1-.1.8.347.347,0,0,1-.34.24l-9.92.04q-.08.88-.08,1.44A9.079,9.079,0,0,0,44.7-3.08,5.443,5.443,0,0,0,49.3-.92a5.917,5.917,0,0,0,2.06-.32,10.82,10.82,0,0,0,1.94-1ZM47.54-15a3.813,3.813,0,0,0-2.84,1.14,5.862,5.862,0,0,0-1.48,3.18l7.6-.16a4.747,4.747,0,0,0-.88-3.1A2.954,2.954,0,0,0,47.54-15ZM69.42-2.24a.277.277,0,0,1,.22.14.213.213,0,0,1,.02.26A8.646,8.646,0,0,1,63.82.48,7.039,7.039,0,0,1,59.86-.6a7.047,7.047,0,0,1-2.5-2.84A8.452,8.452,0,0,1,56.5-7.2a8.663,8.663,0,0,1,1.12-4.34,8.283,8.283,0,0,1,3.06-3.12,8.256,8.256,0,0,1,4.26-1.14,4.655,4.655,0,0,1,3.44,1.2,4.542,4.542,0,0,1,1.2,3.36,2.274,2.274,0,0,1-.1.8.347.347,0,0,1-.34.24l-9.92.04q-.08.88-.08,1.44a9.079,9.079,0,0,0,1.64,5.64,5.443,5.443,0,0,0,4.6,2.16,5.917,5.917,0,0,0,2.06-.32,10.82,10.82,0,0,0,1.94-1ZM63.62-15a3.813,3.813,0,0,0-2.84,1.14,5.862,5.862,0,0,0-1.48,3.18l7.6-.16a4.747,4.747,0,0,0-.88-3.1A2.954,2.954,0,0,0,63.62-15Z" transform="translate(607.86 1445)" fill="#017a94"/>
    <rect id="長方形_366" data-name="長方形 366" width="80" height="1" transform="translate(438 1432)" fill="#017a94"/>
  </g>
</svg>
