<svg xmlns="http://www.w3.org/2000/svg" width="337.231" height="115.511" viewBox="0 0 337.231 115.511">
  <g id="グループ_732" data-name="グループ 732" transform="translate(-988.103 -720.676)">
    <path id="パス_673" data-name="パス 673" d="M-131.544-20.132l-2.688-.728A28.742,28.742,0,0,1-139.5-8.988a24.322,24.322,0,0,1-10.584,7.42l1.96,2.044A28.1,28.1,0,0,0-137.564-7.5,38.273,38.273,0,0,0-132.44-17.7C-132.216-18.4-131.88-19.376-131.544-20.132Zm13.58-1.064-.812,2.072a92.688,92.688,0,0,1,14.616,3.332l.9-2.156A99.238,99.238,0,0,0-117.964-21.2Zm-1.26,7.392-.84,2.1a81.946,81.946,0,0,1,14.056,3.416l.9-2.156A99.719,99.719,0,0,0-119.224-13.8Zm-1.54,8.148-.868,2.128C-117.1-2.8-108.78-.924-105.056.7l.952-2.156A98.553,98.553,0,0,0-120.764-5.656ZM-76.3-18.34a6.74,6.74,0,0,1-1.764.168h-4.62v-1.792a16.492,16.492,0,0,1,.168-2.464h-2.576a16.49,16.49,0,0,1,.168,2.464v1.792h-5.488a33.231,33.231,0,0,1-3.388-.14v2.352c.84-.056,2.436-.112,3.416-.112h11.62a24.059,24.059,0,0,1-5.684,5.124,34.952,34.952,0,0,1-11.34,4.76l1.344,2.072A44.459,44.459,0,0,0-84.98-8.008c0,1.9-.028,4.48-.028,6.1a26.2,26.2,0,0,1-.168,3.08h2.548c-.056-.868-.14-2.1-.14-3.08,0-1.876.028-5.236.028-7.532a34.434,34.434,0,0,0,6.328-5.824c.448-.5,1.064-1.148,1.568-1.68ZM-80.276-8.064a49.125,49.125,0,0,1,6.748,4.312l1.456-1.9a68.42,68.42,0,0,0-6.748-4.06ZM-67.144-9.38c.868-.084,2.352-.14,3.892-.14H-47.88c1.26,0,2.436.112,3,.14v-2.744c-.616.056-1.624.14-3.024.14H-63.252c-1.568,0-3.052-.084-3.892-.14Zm48.86-.2A91,91,0,0,0-30.24-14.2V-18.76c0-.84.112-2.044.2-2.912h-2.744a17.672,17.672,0,0,1,.224,2.912v16.3a30.659,30.659,0,0,1-.168,3.3h2.688a33.054,33.054,0,0,1-.168-3.3l-.028-9.24a73.408,73.408,0,0,1,11,4.508Zm12.32-13.748A31.171,31.171,0,0,1-12.88-12.208a10.459,10.459,0,0,1,1.2,2.072A27.766,27.766,0,0,0-8.9-13.468V2.1h2.072V-16.688A43.328,43.328,0,0,0-3.976-22.68Zm18.788,6.552V-18.76H1.176c.56-1.232,1.092-2.492,1.54-3.78L.728-23.072a29.663,29.663,0,0,1-6.16,10.724,13.616,13.616,0,0,1,1.624,1.4A30.686,30.686,0,0,0,.168-16.772H2.1v18.9H4.2V-4.648h8.372v-1.96H4.2v-4.228h7.98v-1.932H4.2v-4ZM33.6-14.952H22.484v-5.292H33.6Zm2.1-7.28H20.468v9.268H35.7ZM24.248-8.008v6.636H18.4V-8.008ZM16.408,2.156H18.4V.644h5.852V1.9h2.044V-10.024H16.408ZM31.36-1.372V-8.008h6.356v6.636Zm-2.016-8.652V2.156H31.36V.644h6.356V1.96H39.76V-10.024ZM58.576-3.78c-.028-1.344-.056-3.7-.084-5.292,2.1-.98,4.088-1.792,5.656-2.408.728-.28,1.736-.672,2.436-.868l-.9-2.1c-.784.392-1.456.728-2.3,1.092-1.456.672-3.136,1.344-5.04,2.24a3.485,3.485,0,0,0-3.668-2.52A7.865,7.865,0,0,0,50.848-12.6a19.9,19.9,0,0,0,2.492-4.256,85.664,85.664,0,0,0,9.184-.784l.028-2.072a74.407,74.407,0,0,1-8.484.84c.392-1.26.644-2.408.84-3.192l-2.3-.2a15.025,15.025,0,0,1-.7,3.444c-.644.028-1.232.028-1.82.028-1.26,0-3.192-.112-4.676-.28v2.1c1.512.112,3.388.168,4.564.168h1.148a29.339,29.339,0,0,1-6.384,8.456l1.9,1.428c.952-1.12,1.736-2.156,2.52-2.912a7.38,7.38,0,0,1,4.788-2.044,2.345,2.345,0,0,1,2.492,1.708c-3.22,1.68-6.524,3.752-6.524,7.028,0,3.388,3.192,4.228,7.168,4.228A71.4,71.4,0,0,0,64.68.644l.056-2.268a48.816,48.816,0,0,1-7.56.672c-2.856,0-5.012-.308-5.012-2.492,0-1.82,1.792-3.248,4.368-4.648,0,1.456-.028,3.248-.112,4.312ZM78.932-22.624a27.63,27.63,0,0,1-7.448,10.64A13.6,13.6,0,0,1,73.472-10.5,34.325,34.325,0,0,0,81.2-21.98ZM87.08-7.28c1.316,1.568,2.744,3.472,4,5.292-4.228.2-8.54.392-12.32.532A119.569,119.569,0,0,0,84.14-12.74l-2.408-.588A82.57,82.57,0,0,1,76.44-1.344c-1.4.028-2.688.084-3.836.112l.28,2.184C77.868.7,85.316.364,92.372-.056,92.9.784,93.38,1.6,93.744,2.268L95.788,1.12a62.6,62.6,0,0,0-6.776-9.3Zm-.28-14.5A59.806,59.806,0,0,0,95-10.5a9.423,9.423,0,0,1,1.736-1.764,43.275,43.275,0,0,1-7.924-10.36Zm21.952,1.148v2.268H102.62v-2.268Zm-6.132,6.16v-2.408h6.132v2.408Zm8.092,1.6v-9.352H100.576V2.156h2.044V-12.88Zm-.784,6.5V-9.408h3.92v3.024ZM119.5-4.62V-6.384H115.7V-9.408h3.192v-1.708h-13.8v1.708h3.024v3.024h-3.556V-4.62h3.5a7.047,7.047,0,0,1-3.3,5.376,7.29,7.29,0,0,1,1.372,1.232,8.98,8.98,0,0,0,3.752-6.608h3.976V1.624H115.7V-4.62Zm-4.34-9.828v-2.436h6.356v2.436Zm6.356-6.188v2.268h-6.356v-2.268Zm2.044-1.6H113.176v9.38h8.344V-.588c0,.448-.14.616-.588.616C120.512.056,119,.056,117.46,0a6.879,6.879,0,0,1,.672,2.072,13,13,0,0,0,4.34-.364c.812-.364,1.092-1.036,1.092-2.268ZM139.076-6.776h1.848l.7-10.864.056-3.3h-3.36l.084,3.3ZM140,.14a2.138,2.138,0,0,0,2.24-2.212A2.148,2.148,0,0,0,140-4.256a2.148,2.148,0,0,0-2.24,2.184A2.138,2.138,0,0,0,140,.14Zm-263.368,33.3a20.123,20.123,0,0,1-1.82,6.664,7.273,7.273,0,0,1,1.624.784,24.642,24.642,0,0,0,1.988-7.112Zm6.076.392a27.887,27.887,0,0,1,1.792,5.432l1.652-.56a24.256,24.256,0,0,0-1.876-5.376Zm-.7-6.636c.476.756.952,1.624,1.372,2.464-1.54.084-3.08.14-4.48.2a81.676,81.676,0,0,0,5.8-8.316l-1.792-.784c-.784,1.512-1.848,3.332-3,5.1A19.7,19.7,0,0,0-121.8,23.92a50.382,50.382,0,0,0,3.192-5.628l-1.848-.7a38.218,38.218,0,0,1-2.492,5.208c-.28-.252-.56-.5-.84-.728l-1.064,1.344a24.283,24.283,0,0,1,3.668,4.032c-.616.9-1.26,1.764-1.876,2.492-.644.028-1.288.056-1.848.056l.168,1.876c1.344-.056,2.884-.14,4.564-.224V43.184h1.9V31.536l2.408-.168a10.833,10.833,0,0,1,.532,1.624l1.652-.784a22.9,22.9,0,0,0-2.772-5.684Zm15.372,7.224v5.4h-8.064v-5.4Zm-10,8.68h1.932V41.7h8.064v1.316h2.016V32.544h-12.012ZM-99.2,23.416v-1.9h-6.636V17.564h-2.1v3.948h-6.44v1.9h6.44v4.2h-5.572v1.876H-99.82V27.616h-6.02v-4.2Zm7.84,4.76V25.292h6.3v2.884Zm0-7.448h6.3v2.856h-6.3Zm14.812,2.856h-6.356V20.728h6.356Zm0,4.592h-6.356V25.292h6.356Zm4.76,6.076V32.32H-82.908V29.968h8.568V18.908H-93.464v11.06h8.4V32.32H-96.18v1.932h9.38A25.265,25.265,0,0,1-96.88,40.5a9.854,9.854,0,0,1,1.4,1.708A27.841,27.841,0,0,0-85.064,35.12v8.036h2.156V34.98a30.976,30.976,0,0,0,10.416,7.112,9.231,9.231,0,0,1,1.428-1.736,27.808,27.808,0,0,1-10.108-6.1Zm18.06-.672H-58.6V29.408h4.872Zm5.376-4.172V28.344a17.813,17.813,0,0,0,4,2.436,9.632,9.632,0,0,1,1.428-1.736A18.2,18.2,0,0,1-48.16,25.8a41.521,41.521,0,0,0,4.4-3.64l-1.568-1.092a36.48,36.48,0,0,1-3.976,3.612,19.011,19.011,0,0,1-1.82-2.156,43.337,43.337,0,0,0,4.088-3.528l-1.568-1.12a32.735,32.735,0,0,1-3.444,3.3,20.494,20.494,0,0,1-1.764-3.5l-1.792.532a24.13,24.13,0,0,0,6.244,9.268h-13.16a19.537,19.537,0,0,0,5.824-8.12l-1.372-.672-.364.084h-7.98v1.848h6.944a19.614,19.614,0,0,1-2.6,3.7,38.936,38.936,0,0,0-3.388-2.744l-1.288,1.092a29.682,29.682,0,0,1,3.36,2.94,19.365,19.365,0,0,1-5.684,3.64,11.263,11.263,0,0,1,1.288,1.568,22.943,22.943,0,0,0,4.172-2.464v1.064h2.94V33.58h-6.44v1.932H-60.9c-.5,2.324-2.1,4.536-6.776,6.1a8.125,8.125,0,0,1,1.316,1.652c5.488-1.9,7.14-4.76,7.588-7.756h5.04v4.48c0,2.3.616,2.912,2.968,2.912H-47.1c2.044,0,2.632-.98,2.828-4.536a5.737,5.737,0,0,1-1.876-.868c-.112,3-.252,3.556-1.12,3.556h-3.192c-.952,0-1.12-.168-1.12-1.036V35.512h6.636V33.58h-6.636V29.408Zm30.1,1.568a40.745,40.745,0,0,1-5.292,3.976,18.884,18.884,0,0,1-2.352-4.9h10.024v-1.82H-27.02v-2.52h9.128V23.976H-27.02V21.708h10.192v-1.82H-27.02V17.564h-2.072v2.324H-39.116v1.82h10.024v2.268h-8.764v1.736h8.764v2.52h-11.06v1.82h9.688a30.756,30.756,0,0,1-10.612,5.432,13.37,13.37,0,0,1,1.344,1.708A35.874,35.874,0,0,0-34.1,34.728V40.3c-1.456.364-2.8.672-3.92.924l.672,1.9c3.332-.84,8.092-2.016,12.488-3.192l-.224-1.848c-2.324.588-4.7,1.176-6.916,1.708V33.468a25.16,25.16,0,0,0,4.144-3.276c1.96,6.328,5.544,10.836,11.508,12.852a6.675,6.675,0,0,1,1.344-1.82A15.213,15.213,0,0,1-22.54,36.3,50.413,50.413,0,0,0-16.6,32.264ZM8.26,19.132A30.893,30.893,0,0,1,.9,25.32,44.194,44.194,0,0,1-11.62,30.472l1.288,2.184A56,56,0,0,0,.2,28.288V38.872a25.973,25.973,0,0,1-.168,3H2.772a21.129,21.129,0,0,1-.168-3V26.888a43.921,43.921,0,0,0,7.5-6.076Zm25.088,2.884-1.6.7a29.281,29.281,0,0,1,2.6,4.48l1.624-.756A42.95,42.95,0,0,0,33.348,22.016Zm3.584-1.428-1.568.728a29.079,29.079,0,0,1,2.688,4.424l1.624-.784A41.977,41.977,0,0,0,36.932,20.588ZM15.512,33.636l2.044,2.072c.42-.56,1.036-1.428,1.624-2.156,1.26-1.54,3.612-4.62,4.956-6.244.952-1.176,1.344-1.2,2.52-.224a75.436,75.436,0,0,1,5.46,5.684c1.792,2.044,4.34,4.928,6.3,7.448l1.82-1.988c-2.044-2.408-4.9-5.46-6.776-7.476a70.645,70.645,0,0,0-5.8-5.8c-2.016-1.68-3.164-1.484-4.648.28-1.764,2.072-4.2,5.18-5.544,6.552C16.744,32.516,16.212,33.02,15.512,33.636Zm32.844-13.16-1.6,1.708a58.152,58.152,0,0,1,6.972,5.852L55.5,26.272A61.312,61.312,0,0,0,48.356,20.476Zm-2.408,18.76,1.484,2.3a30.183,30.183,0,0,0,11-4.368,27.929,27.929,0,0,0,9.408-9.94L66.5,24.844a26.377,26.377,0,0,1-9.352,10.3A28.911,28.911,0,0,1,45.948,39.236Zm47.768-7.812A91,91,0,0,0,81.76,26.8V22.24c0-.84.112-2.044.2-2.912H79.212a17.673,17.673,0,0,1,.224,2.912v16.3a30.66,30.66,0,0,1-.168,3.3h2.688a33.054,33.054,0,0,1-.168-3.3L81.76,29.3a73.408,73.408,0,0,1,11,4.508Zm20.86,5.8c-.028-1.344-.056-3.7-.084-5.292,2.1-.98,4.088-1.792,5.656-2.408.728-.28,1.736-.672,2.436-.868l-.9-2.1c-.784.392-1.456.728-2.3,1.092-1.456.672-3.136,1.344-5.04,2.24a3.485,3.485,0,0,0-3.668-2.52,7.865,7.865,0,0,0-3.836,1.036,19.9,19.9,0,0,0,2.492-4.256,85.664,85.664,0,0,0,9.184-.784l.028-2.072a74.407,74.407,0,0,1-8.484.84c.392-1.26.644-2.408.84-3.192l-2.3-.2a15.025,15.025,0,0,1-.7,3.444c-.644.028-1.232.028-1.82.028-1.26,0-3.192-.112-4.676-.28v2.1c1.512.112,3.388.168,4.564.168h1.148a29.339,29.339,0,0,1-6.384,8.456l1.9,1.428c.952-1.12,1.736-2.156,2.52-2.912a7.38,7.38,0,0,1,4.788-2.044,2.345,2.345,0,0,1,2.492,1.708c-3.22,1.68-6.524,3.752-6.524,7.028,0,3.388,3.192,4.228,7.168,4.228a71.4,71.4,0,0,0,7.588-.448l.056-2.268a48.816,48.816,0,0,1-7.56.672c-2.856,0-5.012-.308-5.012-2.492,0-1.82,1.792-3.248,4.368-4.648,0,1.456-.028,3.248-.112,4.312ZM-59.248,61.364v2.268H-65.38V61.364Zm-6.132,6.16V65.116h6.132v2.408Zm8.092,1.6V59.768H-67.424V84.156h2.044V69.12Zm-.784,6.5V72.592h3.92v3.024ZM-48.5,77.38V75.616H-52.3V72.592h3.192V70.884h-13.8v1.708h3.024v3.024h-3.556V77.38h3.5a7.047,7.047,0,0,1-3.3,5.376,7.29,7.29,0,0,1,1.372,1.232,8.98,8.98,0,0,0,3.752-6.608h3.976v6.244H-52.3V77.38Zm-4.34-9.828V65.116h6.356v2.436Zm6.356-6.188v2.268h-6.356V61.364Zm2.044-1.6H-54.824v9.38h8.344V81.412c0,.448-.14.616-.588.616-.42.028-1.932.028-3.472-.028a6.879,6.879,0,0,1,.672,2.072,13,13,0,0,0,4.34-.364c.812-.364,1.092-1.036,1.092-2.268Zm28.2,0H-18.2v3.808h-4.956v-4.76h-2.016v4.76H-29.82V59.768h-1.9v5.6H-16.24Zm-18.284-1.092A31.566,31.566,0,0,1-41.44,69.792a11.429,11.429,0,0,1,1.176,2.016,27.31,27.31,0,0,0,2.828-3.444V84.072h1.96V65.312a41.233,41.233,0,0,0,2.884-6.048Zm5.432,19.936h4.872v2.52h-4.872Zm4.872-5.656h-4.872V70.548h4.872Zm0,4.06h-4.872V74.552h4.872Zm8.848,4.116h-6.86v-2.52h5.684v-1.6h-5.684V74.552h5.684v-1.6h-5.684V70.548h6.58v-1.68h-6.524c.42-.84.9-1.82,1.344-2.716l-2.184-.532a20.707,20.707,0,0,1-1.148,3.248h-4.9a30.026,30.026,0,0,0,1.456-2.828l-2.016-.56a19.724,19.724,0,0,1-5.348,7.364A13.05,13.05,0,0,1-33.4,74.272a21.841,21.841,0,0,0,2.3-2.464V84.044h2.016V82.812h13.72Zm8.12-20.888A14.251,14.251,0,0,1-7,63.044c0,2.94-.28,9.94-.28,14.056,0,4.508,2.744,6.188,6.72,6.188A13.815,13.815,0,0,0,11,77.184l-1.54-1.932c-1.988,2.884-4.872,5.74-9.968,5.74-2.576,0-4.536-1.064-4.536-4.116,0-4.144.224-10.7.336-13.832.056-.9.14-1.876.28-2.772Zm35.28,18.508c0,1.9-1.344,2.38-2.94,2.38-2.744,0-3.836-.952-3.836-2.24,0-1.26,1.428-2.268,4.06-2.268A14.116,14.116,0,0,1,28,76.876C28,77.632,28.028,78.276,28.028,78.752Zm10.108.952a22.762,22.762,0,0,0-8.064-4.312c-.056-1.316-.14-2.772-.2-4.2,2.632-.112,5.1-.308,7.7-.644l-.028-2.1a74.805,74.805,0,0,1-7.7.728V65.2c2.6-.14,4.984-.364,7.168-.588l-.028-2.044a61.655,61.655,0,0,1-7.112.672c0-.672,0-1.2.028-1.54a14.27,14.27,0,0,1,.14-1.848h-2.38a15.521,15.521,0,0,1,.084,1.652v1.82H26.32a44.205,44.205,0,0,1-6.5-.532v2.072c1.652.2,4.592.42,6.524.42H27.72V69.26H26.236a49.33,49.33,0,0,1-6.972-.532v2.128c1.988.224,5.068.392,6.972.392h1.54c.028,1.148.084,2.464.14,3.7a15.653,15.653,0,0,0-2.324-.168c-4,0-6.44,1.708-6.44,4.228,0,2.688,2.212,4.116,6.188,4.116,3.612,0,4.9-1.988,4.9-3.892,0-.42-.028-1.036-.056-1.736a20.593,20.593,0,0,1,6.692,4.172Zm17.3-4.256A2.667,2.667,0,0,1,52.612,72.7a2.816,2.816,0,0,1,2.8-2.912A2.461,2.461,0,0,1,57.876,71.5C58.128,74.132,57.064,75.448,55.44,75.448Zm4.284-10.024c4.06,0,6.58.056,8.148.14l.028-2.1c-1.344,0-4.76-.028-8.12-.028h-.42c0-.728.028-1.372.028-1.792l.14-1.736H56.98c.056.336.14,1.148.168,1.736.028.392.056,1.036.056,1.82-4.116.056-9.324.224-12.4.28l.056,2.184c3.472-.252,8.176-.448,12.376-.476.028.952.028,1.932.028,2.744a5.56,5.56,0,0,0-1.848-.308,4.875,4.875,0,0,0-4.9,4.844A4.467,4.467,0,0,0,55.1,77.38a3.982,3.982,0,0,0,2.38-.7c-1.148,2.464-3.724,3.976-7.364,4.816l1.932,1.876c6.44-1.932,8.26-6.1,8.26-9.856a6.77,6.77,0,0,0-.9-3.556c-.028-1.26-.056-2.968-.056-4.536Z" transform="translate(1157 744)" fill="#fff"/>
    <line id="線_2" data-name="線 2" x1="37.563" y2="73" transform="translate(1286.437 762.5)" fill="none" stroke="#fff" stroke-width="3"/>
    <line id="線_3" data-name="線 3" x2="37.563" y2="73.001" transform="translate(989.437 762.5)" fill="none" stroke="#fff" stroke-width="3"/>
  </g>
</svg>
