<svg xmlns="http://www.w3.org/2000/svg" width="908.668" height="104.373" viewBox="0 0 908.668 104.373">
  <g id="グループ_508" data-name="グループ 508" transform="translate(-324.666 -923.814)">
    <path id="パス_674" data-name="パス 674" d="M-166.04.36c-.04-.64-.16-2.44-.16-3.88V-24.16c0-.96.08-2.2.12-3.12-.8.04-2,.08-2.96.08h-19.72a40.365,40.365,0,0,1-4.36-.24v3.56c.96-.04,2.92-.12,4.4-.12h19.16V-5.12H-189.2c-1.68,0-3.4-.12-4.44-.2v3.6c1.08-.08,2.88-.16,4.52-.16h19.56c-.04.96-.04,1.8-.08,2.24Zm15.12-29.68-2.28,2.44a83.075,83.075,0,0,1,9.96,8.36l2.52-2.52A87.589,87.589,0,0,0-150.92-29.32Zm-3.44,26.8,2.12,3.28a43.118,43.118,0,0,0,15.72-6.24,39.9,39.9,0,0,0,13.44-14.2l-1.92-3.4A37.681,37.681,0,0,1-138.36-8.36,41.3,41.3,0,0,1-154.36-2.52ZM-91.84-24a2.92,2.92,0,0,1,2.96-2.92A2.911,2.911,0,0,1-85.96-24a2.936,2.936,0,0,1-2.92,2.92A2.945,2.945,0,0,1-91.84-24Zm-1.92,0a4.84,4.84,0,0,0,4.88,4.84A4.831,4.831,0,0,0-84.04-24a4.865,4.865,0,0,0-4.84-4.88A4.874,4.874,0,0,0-93.76-24Zm-24.08,13.48,2.92,2.96c.6-.8,1.48-2.04,2.32-3.08,1.8-2.2,5.16-6.6,7.08-8.92,1.36-1.68,1.92-1.72,3.6-.32a107.766,107.766,0,0,1,7.8,8.12c2.56,2.92,6.2,7.04,9,10.64l2.6-2.84c-2.92-3.44-7-7.8-9.68-10.68a100.922,100.922,0,0,0-8.28-8.28c-2.88-2.4-4.52-2.12-6.64.4-2.52,2.96-6,7.4-7.92,9.36C-116.08-12.12-116.84-11.4-117.84-10.52Zm44.64-20.2a17.468,17.468,0,0,1-.28,2.8c-.48,3.28-1.8,10.84-1.8,16.64A47.864,47.864,0,0,0-73.76,1.28l2.84-.24c-.04-.4-.12-.96-.12-1.36a6.8,6.8,0,0,1,.2-1.76,85.517,85.517,0,0,1,2.8-8.76l-1.68-1.32c-.68,1.6-1.6,3.96-2.24,5.76a35,35,0,0,1-.36-5.4,97.279,97.279,0,0,1,1.96-15.96,18.762,18.762,0,0,1,.68-2.68ZM-53-6.16c0,2.64-.96,4.28-4.32,4.28-2.84,0-4.76-1.12-4.76-3.08,0-1.84,2.04-3.16,5-3.16a12.386,12.386,0,0,1,4.04.64C-53-7-53-6.52-53-6.16ZM-42.2-4.2A27.008,27.008,0,0,0-50-9.36c-.16-3.32-.44-7.28-.48-11.24,2.36-.16,4.68-.4,6.84-.76v-3.12a50.457,50.457,0,0,1-6.84.92c.04-1.84.08-3.68.12-4.76a22.442,22.442,0,0,1,.24-2.36h-3.64a16.189,16.189,0,0,1,.2,2.4v4.92c-1.24.04-2.48.08-3.72.08A61.927,61.927,0,0,1-64-23.64v3.04c2.32.12,4.4.24,6.64.24,1.28,0,2.52-.04,3.8-.08.04,3.28.28,7.08.4,10.12a17.668,17.668,0,0,0-3.68-.36c-5.2,0-8.16,2.72-8.16,6.04,0,3.52,2.92,5.72,8.24,5.72,5.36,0,6.88-3.2,6.88-6.48v-.72A30.059,30.059,0,0,1-43.92-1.6Zm5.96-6.6a28.747,28.747,0,0,1-2.6,9.52A10.39,10.39,0,0,1-36.52-.16a35.2,35.2,0,0,0,2.84-10.16Zm8.24.44a39.223,39.223,0,0,1,2.44,7.32l2.28-.76a37.084,37.084,0,0,0-2.56-7.28Zm6.2,7.28A73.591,73.591,0,0,1-6.4,3.24L-4.64.88A85.79,85.79,0,0,0-20.04-5.2Zm4.32-7.56A40.968,40.968,0,0,1-9.4-6l1.84-2.04a43.776,43.776,0,0,0-8.12-4.44Zm.24-16.08H-8.2a26.63,26.63,0,0,1-4.68,6.36,31.2,31.2,0,0,1-4.56-6.12Zm11.08-2.72-.52.16h-8.96a35.61,35.61,0,0,0,1.88-3.68l-2.92-.52a28.726,28.726,0,0,1-8.64,11.52,8.447,8.447,0,0,1,2.04,1.92,32.29,32.29,0,0,0,4.2-4.24,36.17,36.17,0,0,0,4.24,5.68,33.877,33.877,0,0,1-8.64,5.28,33.058,33.058,0,0,0-3.48-7.24l-2.08.84c.64,1.12,1.28,2.36,1.84,3.6l-5.88.24A137.245,137.245,0,0,0-25.12-27.8l-2.52-1.12a81.467,81.467,0,0,1-4.04,7.16A32.123,32.123,0,0,0-34-24.36c1.48-2.24,3.16-5.4,4.52-8.04l-2.6-1.04A50.584,50.584,0,0,1-35.68-26c-.4-.36-.76-.72-1.16-1.04l-1.52,1.92a35.656,35.656,0,0,1,5.16,5.68c-.88,1.32-1.8,2.6-2.64,3.68l-2.64.12.24,2.64c1.84-.12,4-.24,6.28-.36V3.12h2.64V-13.52l3.12-.2c.28.76.52,1.52.68,2.12l1.88-.84a17.239,17.239,0,0,1,1.28,1.76,35.818,35.818,0,0,0,9.48-5.96,32.541,32.541,0,0,0,9.72,6.48A14.343,14.343,0,0,1-1.24-12.6a30.4,30.4,0,0,1-9.68-5.88A30.655,30.655,0,0,0-4.36-28.4Zm39.28-1.12-.64.2H4.04v2.92H29.8a49.488,49.488,0,0,1-9.32,7.52H18.52V-.84c0,.72-.28.96-1.16,1s-4,.04-7.28-.08a10.245,10.245,0,0,1,1.2,2.96c4.08,0,6.72,0,8.24-.44,1.52-.48,2.08-1.4,2.08-3.4V-17.32A56.2,56.2,0,0,0,35.44-28.88Zm16.52-.52a20.358,20.358,0,0,1,.36,4c0,4.2-.4,14.2-.4,20.08,0,6.44,3.92,8.84,9.6,8.84A19.735,19.735,0,0,0,75.72-6.88l-2.2-2.76c-2.84,4.12-6.96,8.2-14.24,8.2-3.68,0-6.48-1.52-6.48-5.88,0-5.92.32-15.28.48-19.76.08-1.28.2-2.68.4-3.96Zm50.4,26.44c0,2.72-1.92,3.4-4.2,3.4-3.92,0-5.48-1.36-5.48-3.2,0-1.8,2.04-3.24,5.8-3.24a20.165,20.165,0,0,1,3.84.36C100-6.24,100.04-5.32,100.04-4.64Zm14.44,1.36a32.517,32.517,0,0,0-11.52-6.16c-.08-1.88-.2-3.96-.28-6,3.76-.16,7.28-.44,11-.92l-.04-3a106.861,106.861,0,0,1-11,1.04V-24c3.72-.2,7.12-.52,10.24-.84l-.04-2.92a88.078,88.078,0,0,1-10.16.96c0-.96,0-1.72.04-2.2a20.388,20.388,0,0,1,.2-2.64h-3.4a22.174,22.174,0,0,1,.12,2.36v2.6H97.6a63.15,63.15,0,0,1-9.28-.76v2.96c2.36.28,6.56.6,9.32.6H99.6v5.68H97.48a70.471,70.471,0,0,1-9.96-.76v3.04c2.84.32,7.24.56,9.96.56h2.2c.04,1.64.12,3.52.2,5.28a22.362,22.362,0,0,0-3.32-.24c-5.72,0-9.2,2.44-9.2,6.04,0,3.84,3.16,5.88,8.84,5.88,5.16,0,7-2.84,7-5.56,0-.6-.04-1.48-.08-2.48a29.419,29.419,0,0,1,9.56,5.96Zm15.16-27.8a20.358,20.358,0,0,1,.36,4c0,4.2-.4,14.2-.4,20.08,0,6.44,3.92,8.84,9.6,8.84a19.735,19.735,0,0,0,16.52-8.72l-2.2-2.76c-2.84,4.12-6.96,8.2-14.24,8.2-3.68,0-6.48-1.52-6.48-5.88,0-5.92.32-15.28.48-19.76.08-1.28.2-2.68.4-3.96Zm51.84,14.76a63.641,63.641,0,0,1,7.32-.44,56.98,56.98,0,0,1,6.68.48l.08-3.04a63.251,63.251,0,0,0-6.84-.32c-2.56,0-5.16.12-7.24.32Zm2.56-10.4a57.4,57.4,0,0,1-7.56,1.44l.6-2.92c.16-.8.44-2.28.72-3.16l-3.88-.32a18.891,18.891,0,0,1-.12,3.28c-.12.8-.32,2.04-.6,3.48-1.52.08-2.92.16-4.24.16a35.316,35.316,0,0,1-4.76-.28l.12,3.12c1.4.08,2.84.16,4.6.16q1.68,0,3.6-.12c-.32,1.44-.64,2.88-1,4.2-1.48,5.6-4.28,13.64-6.64,17.72L168.4,1.2a117.434,117.434,0,0,0,6.2-18.16c.44-1.68.88-3.52,1.24-5.24a76.2,76.2,0,0,0,8.2-1.36ZM179.48-9.96a22.078,22.078,0,0,0-.6,4.68c0,3.92,3.28,5.84,9.52,5.84a58.814,58.814,0,0,0,7.64-.52l.12-3.24a44.3,44.3,0,0,1-7.72.76c-5.64,0-6.52-1.8-6.52-3.68a14.125,14.125,0,0,1,.56-3.56Zm-538,52.64a63.641,63.641,0,0,1,7.32-.44,56.98,56.98,0,0,1,6.68.48l.08-3.04a63.252,63.252,0,0,0-6.84-.32c-2.56,0-5.16.12-7.24.32Zm2.56-10.4a57.4,57.4,0,0,1-7.56,1.44l.6-2.92c.16-.8.44-2.28.72-3.16l-3.88-.32a18.89,18.89,0,0,1-.12,3.28c-.12.8-.32,2.04-.6,3.48-1.52.08-2.92.16-4.24.16a35.315,35.315,0,0,1-4.76-.28l.12,3.12c1.4.08,2.84.16,4.6.16q1.68,0,3.6-.12c-.32,1.44-.64,2.88-1,4.2-1.48,5.6-4.28,13.64-6.64,17.72l3.52,1.16a117.432,117.432,0,0,0,6.2-18.16c.44-1.68.88-3.52,1.24-5.24a76.2,76.2,0,0,0,8.2-1.36Zm-4.56,16.76a22.077,22.077,0,0,0-.6,4.68c0,3.92,3.28,5.84,9.52,5.84a58.814,58.814,0,0,0,7.64-.52l.12-3.24a44.3,44.3,0,0,1-7.72.76c-5.64,0-6.52-1.8-6.52-3.68a14.124,14.124,0,0,1,.56-3.56Zm45.64-22.08a18.388,18.388,0,0,1-2.28,2.64c-2.68,2.72-8.68,7.44-11.64,9.96-3.6,3-4,4.8-.28,7.92,3.72,3.04,10.32,8.68,12.48,11,.84.92,1.92,1.92,2.72,2.88l2.88-2.6c-3.88-3.84-11.2-9.92-14.8-12.8-2.56-2.12-2.56-2.72-.16-4.8,2.92-2.4,8.6-6.96,11.36-9.32.64-.56,1.84-1.6,2.72-2.24Zm23.12,19.56a22.982,22.982,0,0,0-1.08,6.08c0,4.96,4.08,7.92,11.44,7.92A51.434,51.434,0,0,0-271,59.6l.04-3.32a41.866,41.866,0,0,1-10.4,1.08c-5.92,0-8.28-2.08-8.28-5.56a15.816,15.816,0,0,1,1.12-5Zm25-14.76a60.089,60.089,0,0,1-8.12,2c-.88-2.12-1.6-3.88-2.56-6.52l-3.56.68a31.688,31.688,0,0,1,1.68,3.32l1.32,2.92a67.452,67.452,0,0,1-15.72-.24l.12,3.2a84.148,84.148,0,0,0,16.84-.08c1.2,2.76,3.2,6.88,4.32,9.32-1.32-.12-4.08-.44-5.6-.56l-.32,2.6c2.56.24,6.48.8,8.2,1.16l1.84-1.92c-1.72-3.32-3.88-7.92-5.32-11.08,2.44-.4,5.04-1,7.48-1.64Zm28.92-2.84-3.56-1.44c-.48,1.16-1,2.12-1.44,3.08-2.16,3.8-11.08,20.56-14,28.56l3.48,1.16a62.311,62.311,0,0,1,3.4-9c1.56-3.12,4.48-6.32,7.68-6.32a2.617,2.617,0,0,1,2.88,2.76c.12,2.12.04,5.2.2,7.52.12,2.32,1.52,5.04,5.72,5.04,5.76,0,9.12-4.44,11.2-10.84l-2.64-2.12c-1.04,4.2-3.64,9.64-8.04,9.64a2.824,2.824,0,0,1-3.16-2.8c-.16-1.92-.08-4.96-.16-7.32-.12-3.12-2.04-4.84-4.68-4.84a8.585,8.585,0,0,0-5.8,2.4c2.04-3.84,5.88-10.84,7.64-13.56A15.857,15.857,0,0,1-237.84,28.92Zm28.68,24.48c-1.72,0-4.04-2.2-4.04-7.2,0-5.32,4.64-11.84,12.24-12.8a63.911,63.911,0,0,1-2.2,10.68C-205.2,50.76-207.4,53.4-209.16,53.4Zm10.44,6.64c9.44-1.24,14.92-6.8,14.92-15.12,0-8-5.92-14.56-15.2-14.56-9.68,0-17.36,7.52-17.36,16.12,0,6.52,3.56,10.6,7.08,10.6,3.68,0,6.84-4.2,9.28-12.32a83.713,83.713,0,0,0,2.36-11.4c6.72.56,10.52,5.48,10.52,11.48,0,6.84-4.96,10.6-10.04,11.72a24.83,24.83,0,0,1-3.4.48Zm49.88-33.12-2.16.88a41.75,41.75,0,0,1,3.28,5.6l2.16-1A56.688,56.688,0,0,0-148.84,26.92Zm4.4-1.64-2.12.92a36.729,36.729,0,0,1,3.32,5.52l2.2-.96A58.293,58.293,0,0,0-144.44,25.28Zm-26.8,9.4c3.16.28,6.52.44,10.48.44,3.68,0,8-.28,10.68-.48V31.36c-2.84.28-6.88.56-10.68.56a88.413,88.413,0,0,1-10.48-.52Zm-1.6,12.4a22.24,22.24,0,0,0-.84,5.52c0,4.96,4.68,7.64,12.72,7.64a55.753,55.753,0,0,0,13.52-1.4l-.04-3.4a51.481,51.481,0,0,1-13.56,1.52c-6.32,0-9.36-2.08-9.36-5.08a15.133,15.133,0,0,1,.8-4.48Zm70.76-13.56V30.68h-15.24V25.56h-3.04v5.12h-14.68V41c0,5.68-.32,13.68-3.56,19.4a11.074,11.074,0,0,1,2.52,1.68c3.4-6.04,3.96-15,3.96-21.08V33.52Zm-9.12,7.2a48.839,48.839,0,0,0-9.28-5.88l-2.04,1.92a47.63,47.63,0,0,1,9.2,6.16Zm-18.24,17.52c2.04-3.16,3.04-8.36,3.6-12.72l-2.72-.6c-.48,4.2-1.52,9.08-3.52,12.12Zm11.08.32c-1.52,0-1.84-.24-1.84-1.6V41.52h-2.92V56.96c0,3.32.92,4.32,4.4,4.32h5.84c3.4,0,4.16-1.76,4.48-8.36a9.493,9.493,0,0,1-2.68-1.2c-.12,5.84-.36,6.84-2,6.84Zm8.52-13.44a45.236,45.236,0,0,1,5.64,13.16l2.84-1.24c-.68-3.56-3.2-8.92-5.84-13Zm21.68-12.44h2.88v-2h10.4v2h2.92v-2h9.08V28.24h-9.08V25.56h-2.92v2.68h-10.4V25.56h-2.88v2.68h-8.96v2.44h8.96Zm8.08,19.8c.24-.92.44-1.84.6-2.84H-82.4a19.71,19.71,0,0,1-.64,2.84H-90.4a23.412,23.412,0,0,0,4.68-3.64h11.36a22.185,22.185,0,0,0,4.2,3.64ZM-90.12,39.64h20.36V42.2H-90.12Zm0-4.44h20.36v2.56H-90.12Zm27.8,13.64v-2.4H-83.68c.52-.76.96-1.48,1.4-2.28h15.44V33.24H-92.96V44.16h7.48a13.881,13.881,0,0,1-1.6,2.28H-97.64v2.4h8.04a28.579,28.579,0,0,1-8.92,4.56,6.808,6.808,0,0,1,1.72,2.12,43.272,43.272,0,0,0,4.92-2.16v1.36h7.8c-1.56,2.48-4.56,4.2-10.32,5.24a7.41,7.41,0,0,1,1.48,2.32c6.96-1.44,10.28-3.84,12-7.56h9c-.28,2.84-.64,4.08-1.08,4.52a1.8,1.8,0,0,1-1.32.32,40.938,40.938,0,0,1-4.32-.2,6.548,6.548,0,0,1,.68,2.44c2,.08,3.84.12,4.8.04a3.171,3.171,0,0,0,2.4-.88c.88-.8,1.32-2.8,1.76-7.36l.04-.32a28.076,28.076,0,0,0,5.72,2.6,10.59,10.59,0,0,1,1.92-2.32A26.668,26.668,0,0,1-71,48.84Zm26.76-7.44a27.02,27.02,0,0,1-6.68,10,41.492,41.492,0,0,1-.68-7.2V42.64A19.73,19.73,0,0,1-36.2,41.4Zm-10.16,3.16a47.6,47.6,0,0,0,.92,8.96,10.022,10.022,0,0,1-5.44,2.08c-1.48,0-2.24-.8-2.24-2.4,0-3.2,2.92-7.12,6.76-9.32ZM-31.8,39.2c.24-.6.56-1.68.8-2.2l-3.2-.8a14.3,14.3,0,0,1-.4,2.28l-.12.36c-.48-.04-.96-.04-1.44-.04a23.589,23.589,0,0,0-6.64,1.04c.12-1.68.24-3.36.4-4.88a135.643,135.643,0,0,0,14.28-1.44l-.04-3A82.922,82.922,0,0,1-42.04,32.2q.24-1.74.48-3a14.386,14.386,0,0,1,.48-1.76l-3.36-.08a16.925,16.925,0,0,1-.12,1.88c-.08.84-.2,1.88-.32,3.04-.88.04-1.76.04-2.64.04a63.864,63.864,0,0,1-6.52-.48l.08,3c1.6.08,4.68.24,6.4.24.76,0,1.56,0,2.4-.04-.16,1.84-.36,3.84-.44,5.84-5.44,2.48-9.88,7.72-9.88,12.8,0,3.4,2.04,5,4.72,5a13.28,13.28,0,0,0,6.64-2.16c.2.8.44,1.52.64,2.2l2.92-.88c-.32-1-.64-2.08-.96-3.2a32.153,32.153,0,0,0,8.76-12.8c3.72,1,5.68,3.72,5.68,6.72,0,5.12-4.4,8.8-11.52,9.56l1.72,2.68c9.2-1.44,12.96-6.4,12.96-12.08,0-4.36-2.96-8.04-7.92-9.36ZM-9.88,27.44c-.04.96-.16,2.16-.32,3.4a103.922,103.922,0,0,0-1.2,12.8,48.465,48.465,0,0,0,.4,6.28l3.12-.24a16.535,16.535,0,0,1-.08-4.84c.48-5.2,5.04-12.36,9.96-12.36,4.2,0,6.28,4.48,6.28,10.72,0,9.96-6.72,13.4-15.32,14.72l1.88,2.88C4.68,59,11.6,54.16,11.6,43.16c0-8.32-3.8-13.6-9.08-13.6-5,0-9.16,4.92-10.72,9a73.419,73.419,0,0,1,1.84-11ZM58.96,30.6a52.606,52.606,0,0,0-3.36-5.44l-2.12.88a44.853,44.853,0,0,1,3.32,5.52Zm-4.48,1.64a56.943,56.943,0,0,0-3.32-5.48l-2.12.88a48.964,48.964,0,0,1,3.24,5.56Zm-21.2-4.56a43.358,43.358,0,0,1-1,8.6c-2.4.2-4.68.4-6,.44-1.28.04-2.28.04-3.52,0l.32,3.48c1-.2,2.6-.36,3.56-.48,1.04-.12,2.92-.32,5-.52-1.36,5.28-4.28,14.2-8.32,19.6l3.24,1.32c4.16-6.64,6.88-15.56,8.32-21.24,1.72-.16,3.28-.28,4.24-.28,2.56,0,4.2.64,4.2,4.24,0,4.28-.6,9.44-1.88,12.08A3.31,3.31,0,0,1,38,56.96a18.055,18.055,0,0,1-4.88-.88l.52,3.4a24.19,24.19,0,0,0,4.68.56c2.56,0,4.52-.64,5.8-3.28,1.64-3.32,2.28-9.56,2.28-14.28,0-5.36-2.88-6.76-6.44-6.76-.96,0-2.6.12-4.44.28.44-2.12.8-4.44,1.04-5.6.12-.8.32-1.6.48-2.36Zm14.44,6.24c2.76,3.24,5.88,10.16,7.08,14.24l3.08-1.52c-1.32-3.68-4.76-10.88-7.24-14.08Zm42.2-1.64a15.9,15.9,0,0,1-2.84,1.88c-2.16,1.24-6.44,3.32-10.16,5.56A91.009,91.009,0,0,1,71.6,28l-3.16,1.28a131.283,131.283,0,0,0,5.76,12.2c-4.24,2.96-6.84,6.2-6.84,10.28,0,5.92,5.4,8.16,12.84,8.16a77.741,77.741,0,0,0,12.52-.96v-3.6a58.346,58.346,0,0,1-12.68,1.36c-6.24,0-9.36-2.04-9.36-5.32,0-3,2.2-5.6,5.88-8A133.439,133.439,0,0,1,88.6,36.88c1.16-.6,2.16-1.12,3.04-1.68ZM128.68,45.6c0,7.12-6.8,10.88-16.4,12.08l1.88,3.04c10.28-1.52,17.92-6.4,17.92-15,0-5.64-4.2-8.8-9.84-8.8-4.52,0-9.04,1.28-11.84,1.92-1.16.24-2.52.48-3.6.6l1,3.68c.96-.36,2.12-.84,3.32-1.16a36.893,36.893,0,0,1,10.8-2.04C126,39.92,128.68,42.28,128.68,45.6Zm-16.6-17.84-.52,3.04c4.48.8,12.48,1.6,16.88,1.88l.48-3.08A106.127,106.127,0,0,1,112.08,27.76Zm59.08-.84L169,27.8a41.75,41.75,0,0,1,3.28,5.6l2.16-1A56.688,56.688,0,0,0,171.16,26.92Zm4.4-1.64-2.12.92a36.729,36.729,0,0,1,3.32,5.52l2.2-.96A58.293,58.293,0,0,0,175.56,25.28Zm-26.8,9.4c3.16.28,6.52.44,10.48.44,3.68,0,8-.28,10.68-.48V31.36c-2.84.28-6.88.56-10.68.56a88.413,88.413,0,0,1-10.48-.52Zm-1.6,12.4a22.24,22.24,0,0,0-.84,5.52c0,4.96,4.68,7.64,12.72,7.64a55.753,55.753,0,0,0,13.52-1.4l-.04-3.4a51.481,51.481,0,0,1-13.56,1.52c-6.32,0-9.36-2.08-9.36-5.08a15.133,15.133,0,0,1,.8-4.48ZM188,46.84a22.715,22.715,0,0,0-1.08,6.04c0,5,4.04,7.92,11.44,7.92a51.434,51.434,0,0,0,10.4-.92l.04-3.28a42.11,42.11,0,0,1-10.4,1.08c-5.92,0-8.28-2.08-8.28-5.6a15.6,15.6,0,0,1,1.12-4.96Zm20.76-19.8a41.679,41.679,0,0,1,3.12,5.36,63.25,63.25,0,0,1-7,1.64c-.88-2.08-1.64-3.84-2.56-6.52l-3.6.72a18.207,18.207,0,0,1,1.68,3.32l1.32,2.92a67.13,67.13,0,0,1-15.68-.24l.12,3.2A81.124,81.124,0,0,0,203,37.32c1.2,2.8,3.16,6.88,4.32,9.36-1.32-.16-4.12-.44-5.6-.6l-.36,2.6c2.6.24,6.52.8,8.24,1.16l1.84-1.92c-1.8-3.36-3.92-7.96-5.32-11.08a66.619,66.619,0,0,0,7.44-1.64L213,32.16l1.16-.52a49.938,49.938,0,0,0-3.24-5.52Zm4.44-1.6A38.528,38.528,0,0,1,216.52,31l2.16-.96a46.938,46.938,0,0,0-3.36-5.48Zm15.84,5.72-3.84-.08a21.117,21.117,0,0,1,.24,3.52,104.855,104.855,0,0,0,.44,10.56c1.08,10.28,4.68,14,8.4,14,2.72,0,5.16-2.28,7.52-9l-2.52-2.88c-1.04,4-2.88,8.08-4.92,8.08-2.8,0-4.72-4.36-5.36-11-.28-3.24-.32-6.88-.28-9.36C228.76,33.96,228.88,32.12,229.04,31.16Zm20.64,1.08-3.12,1.08c3.76,4.64,6.16,12.48,6.84,19.6l3.24-1.28C256.08,44.96,253.24,36.84,249.68,32.24Zm30.36,22.12c0,2.72-1.92,3.4-4.2,3.4-3.92,0-5.48-1.36-5.48-3.2,0-1.8,2.04-3.24,5.8-3.24a20.165,20.165,0,0,1,3.84.36C280,52.76,280.04,53.68,280.04,54.36Zm14.44,1.36a32.517,32.517,0,0,0-11.52-6.16c-.08-1.88-.2-3.96-.28-6,3.76-.16,7.28-.44,11-.92l-.04-3a106.862,106.862,0,0,1-11,1.04V35c3.72-.2,7.12-.52,10.24-.84l-.04-2.92a88.078,88.078,0,0,1-10.16.96c0-.96,0-1.72.04-2.2a20.383,20.383,0,0,1,.2-2.64h-3.4a22.168,22.168,0,0,1,.12,2.36v2.6H277.6a63.15,63.15,0,0,1-9.28-.76v2.96c2.36.28,6.56.6,9.32.6h1.96V40.8h-2.12a70.472,70.472,0,0,1-9.96-.76v3.04c2.84.32,7.24.56,9.96.56h2.2c.04,1.64.12,3.52.2,5.28a22.362,22.362,0,0,0-3.32-.24c-5.72,0-9.2,2.44-9.2,6.04,0,3.84,3.16,5.88,8.84,5.88,5.16,0,7-2.84,7-5.56,0-.6-.04-1.48-.08-2.48a29.419,29.419,0,0,1,9.56,5.96Zm15.16-27.8a20.359,20.359,0,0,1,.36,4c0,4.2-.4,14.2-.4,20.08,0,6.44,3.92,8.84,9.6,8.84a19.735,19.735,0,0,0,16.52-8.72l-2.2-2.76c-2.84,4.12-6.96,8.2-14.24,8.2-3.68,0-6.48-1.52-6.48-5.88,0-5.92.32-15.28.48-19.76.08-1.28.2-2.68.4-3.96Zm51.84,14.76a63.641,63.641,0,0,1,7.32-.44,56.98,56.98,0,0,1,6.68.48l.08-3.04a63.252,63.252,0,0,0-6.84-.32c-2.56,0-5.16.12-7.24.32Zm2.56-10.4a57.4,57.4,0,0,1-7.56,1.44l.6-2.92c.16-.8.44-2.28.72-3.16l-3.88-.32a18.89,18.89,0,0,1-.12,3.28c-.12.8-.32,2.04-.6,3.48-1.52.08-2.92.16-4.24.16a35.315,35.315,0,0,1-4.76-.28l.12,3.12c1.4.08,2.84.16,4.6.16q1.68,0,3.6-.12c-.32,1.44-.64,2.88-1,4.2-1.48,5.6-4.28,13.64-6.64,17.72l3.52,1.16a117.432,117.432,0,0,0,6.2-18.16c.44-1.68.88-3.52,1.24-5.24a76.2,76.2,0,0,0,8.2-1.36Zm-4.56,16.76a22.077,22.077,0,0,0-.6,4.68c0,3.92,3.28,5.84,9.52,5.84a58.814,58.814,0,0,0,7.64-.52l.12-3.24a44.3,44.3,0,0,1-7.72.76c-5.64,0-6.52-1.8-6.52-3.68a14.124,14.124,0,0,1,.56-3.56Z" transform="translate(779 960)" fill="#fff"/>
    <line id="線_1" data-name="線 1" x2="53" y2="103" transform="translate(326 924.5)" fill="none" stroke="#fff" stroke-width="3"/>
    <line id="線_2" data-name="線 2" x1="53" y2="103" transform="translate(1179 924.5)" fill="none" stroke="#fff" stroke-width="3"/>
  </g>
</svg>
