<svg xmlns="http://www.w3.org/2000/svg" width="314.48" height="29.56" viewBox="0 0 314.48 29.56">
  <g id="グループ_509" data-name="グループ 509" transform="translate(-450 -1415.92)">
    <rect id="長方形_367" data-name="長方形 367" width="80" height="1" transform="translate(684.48 1432)" fill="#017a94"/>
    <path id="パス_671" data-name="パス 671" d="M-18.66-.48q.12,0,.12.24t-.12.24q-.92,0-1.44-.04l-2.2-.04-2.16.04q-.56.04-1.52.04-.08,0-.08-.24t.08-.24A4.526,4.526,0,0,0-24.36-.7a1.263,1.263,0,0,0,.74-.78,5.652,5.652,0,0,0,.2-1.76V-9.6a5.61,5.61,0,0,0-.9-3.5,3.325,3.325,0,0,0-2.78-1.14,5.589,5.589,0,0,0-2.54.66,7.509,7.509,0,0,0-2.3,1.82v8.52a5.652,5.652,0,0,0,.2,1.76,1.268,1.268,0,0,0,.72.78,4.354,4.354,0,0,0,1.6.22q.12,0,.12.24t-.12.24q-.92,0-1.44-.04l-2.2-.04-2.16.04q-.56.04-1.52.04-.08,0-.08-.24t.08-.24A4.526,4.526,0,0,0-35.12-.7a1.263,1.263,0,0,0,.74-.78,5.652,5.652,0,0,0,.2-1.76V-23.8q0-.52-.56-.52h-6.2a14.091,14.091,0,0,0-2.56.16,1.413,1.413,0,0,0-1.04.7,4.128,4.128,0,0,0-.28,1.78V-3.24a4.273,4.273,0,0,0,.28,1.8,1.534,1.534,0,0,0,1.08.76,11.4,11.4,0,0,0,2.52.2q.12,0,.12.24t-.12.24q-1.32,0-2.12-.04l-3.12-.04-3,.04q-.8.04-2.2.04-.08,0-.08-.24t.08-.24a11.4,11.4,0,0,0,2.52-.2,1.586,1.586,0,0,0,1.1-.78,4.038,4.038,0,0,0,.3-1.78V-21.76a3.985,3.985,0,0,0-.28-1.76,1.377,1.377,0,0,0-1.04-.66,16.07,16.07,0,0,0-2.56-.14,5.038,5.038,0,0,0-3.78,1.3,8.456,8.456,0,0,0-1.82,4.38q0,.08-.22.08t-.22-.08q.16-1.44.36-3.76t.2-3.48q0-.2.22-.2t.22.2q0,.88,2.16.88,2.28.08,8.04.08t7.72-.08a7.666,7.666,0,0,0,3.98-1.08A4.691,4.691,0,0,0-32.46-29q0-.08.2-.08.32,0,.32.12v16.52q2.92-3.4,6.16-3.4a4.58,4.58,0,0,1,3.42,1.24A4.924,4.924,0,0,1-21.14-11v7.76a6.246,6.246,0,0,0,.18,1.76,1.2,1.2,0,0,0,.7.78A4.354,4.354,0,0,0-18.66-.48ZM-3.42-2.24a.277.277,0,0,1,.22.14.213.213,0,0,1,.02.26A8.646,8.646,0,0,1-9.02.48,7.039,7.039,0,0,1-12.98-.6a7.047,7.047,0,0,1-2.5-2.84,8.452,8.452,0,0,1-.86-3.76,8.664,8.664,0,0,1,1.12-4.34,8.283,8.283,0,0,1,3.06-3.12A8.256,8.256,0,0,1-7.9-15.8a4.655,4.655,0,0,1,3.44,1.2,4.542,4.542,0,0,1,1.2,3.36,2.274,2.274,0,0,1-.1.8.347.347,0,0,1-.34.24l-9.92.04q-.08.88-.08,1.44a9.079,9.079,0,0,0,1.64,5.64A5.443,5.443,0,0,0-7.46-.92,5.917,5.917,0,0,0-5.4-1.24a10.82,10.82,0,0,0,1.94-1ZM-9.22-15a3.813,3.813,0,0,0-2.84,1.14,5.862,5.862,0,0,0-1.48,3.18l7.6-.16a4.747,4.747,0,0,0-.88-3.1A2.954,2.954,0,0,0-9.22-15ZM28.22-.48q.16,0,.16.24T28.22,0q-.92,0-1.48-.04L24.58-.08l-2.16.04Q21.86,0,20.94,0q-.12,0-.12-.24t.12-.24a4.354,4.354,0,0,0,1.6-.22,1.269,1.269,0,0,0,.72-.8,5.68,5.68,0,0,0,.2-1.74V-9.6a5.912,5.912,0,0,0-.84-3.5,3.016,3.016,0,0,0-2.6-1.14,5.054,5.054,0,0,0-2.42.66,8.119,8.119,0,0,0-2.26,1.86,3.625,3.625,0,0,1,.04.64v7.84a5.652,5.652,0,0,0,.2,1.76,1.268,1.268,0,0,0,.72.78,4.354,4.354,0,0,0,1.6.22q.12,0,.12.24T17.9,0q-.92,0-1.48-.04L14.26-.08l-2.2.04Q11.54,0,10.62,0q-.12,0-.12-.24t.12-.24a4.354,4.354,0,0,0,1.6-.22,1.2,1.2,0,0,0,.7-.78,6.246,6.246,0,0,0,.18-1.76V-9.6a5.912,5.912,0,0,0-.84-3.5A2.972,2.972,0,0,0,9.7-14.24a5.06,5.06,0,0,0-2.4.64,7.7,7.7,0,0,0-2.2,1.8v8.56a6.246,6.246,0,0,0,.18,1.76,1.2,1.2,0,0,0,.7.78,4.354,4.354,0,0,0,1.6.22q.12,0,.12.24T7.58,0Q6.66,0,6.14-.04L3.98-.08l-2.2.04Q1.26,0,.34,0,.22,0,.22-.24T.34-.48A4.354,4.354,0,0,0,1.94-.7a1.2,1.2,0,0,0,.7-.78,6.246,6.246,0,0,0,.18-1.76v-7.92a4.419,4.419,0,0,0-.32-1.96,1.125,1.125,0,0,0-1.08-.6,7.011,7.011,0,0,0-2.16.6H-.82a.224.224,0,0,1-.22-.18.191.191,0,0,1,.1-.26l4.64-2.2.24-.04q.36,0,.76.92a5.962,5.962,0,0,1,.4,2.36v.04a10.367,10.367,0,0,1,2.88-2.56,6.1,6.1,0,0,1,3-.8,4.589,4.589,0,0,1,2.92.88,4,4,0,0,1,1.4,2.64,11.344,11.344,0,0,1,2.96-2.66,6.047,6.047,0,0,1,3.08-.86,4.244,4.244,0,0,1,3.26,1.22A5.126,5.126,0,0,1,25.74-11v7.76a6.246,6.246,0,0,0,.18,1.76,1.2,1.2,0,0,0,.7.78A4.354,4.354,0,0,0,28.22-.48Zm15.2-1.76a.277.277,0,0,1,.22.14.213.213,0,0,1,.02.26A8.646,8.646,0,0,1,37.82.48,7.039,7.039,0,0,1,33.86-.6a7.047,7.047,0,0,1-2.5-2.84A8.452,8.452,0,0,1,30.5-7.2a8.664,8.664,0,0,1,1.12-4.34,8.283,8.283,0,0,1,3.06-3.12,8.256,8.256,0,0,1,4.26-1.14,4.655,4.655,0,0,1,3.44,1.2,4.542,4.542,0,0,1,1.2,3.36,2.274,2.274,0,0,1-.1.8.347.347,0,0,1-.34.24l-9.92.04q-.08.88-.08,1.44a9.079,9.079,0,0,0,1.64,5.64,5.443,5.443,0,0,0,4.6,2.16,5.917,5.917,0,0,0,2.06-.32,10.82,10.82,0,0,0,1.94-1ZM37.62-15a3.813,3.813,0,0,0-2.84,1.14,5.862,5.862,0,0,0-1.48,3.18l7.6-.16a4.747,4.747,0,0,0-.88-3.1A2.954,2.954,0,0,0,37.62-15Zm11.8,2a2.824,2.824,0,0,0,.92,2.22,13.522,13.522,0,0,0,2.68,1.74A23.335,23.335,0,0,1,55.2-7.8a4.826,4.826,0,0,1,1.34,1.36A3.594,3.594,0,0,1,57.1-4.4,4.5,4.5,0,0,1,55.58-.96,5.845,5.845,0,0,1,51.46.44a6.557,6.557,0,0,1-3.84-1.2.538.538,0,0,1-.24-.48L47.3-4.36q0-.12.22-.14t.26.1a7.31,7.31,0,0,0,1.98,3.04A4.218,4.218,0,0,0,52.58-.32a2.816,2.816,0,0,0,2-.64,2.247,2.247,0,0,0,.6-1.88,3.123,3.123,0,0,0-.94-2.34,11.743,11.743,0,0,0-2.7-1.7,18.235,18.235,0,0,1-2.1-1.16A4.594,4.594,0,0,1,48.12-9.4a3.771,3.771,0,0,1-.54-2.08,3.785,3.785,0,0,1,1.62-3.3,6.467,6.467,0,0,1,3.82-1.14,6.975,6.975,0,0,1,2.92.6.549.549,0,0,1,.3.18.5.5,0,0,1,.06.26q0,.8-.04,1.24l-.04,1.68q0,.08-.24.08t-.24-.08a2.379,2.379,0,0,0-.64-1.58,4.633,4.633,0,0,0-1.6-1.18,4.574,4.574,0,0,0-1.92-.44,2.227,2.227,0,0,0-1.58.54A2.109,2.109,0,0,0,49.42-13Z" transform="translate(607.38 1445)" fill="#017a94"/>
    <rect id="長方形_366" data-name="長方形 366" width="80" height="1" transform="translate(450 1432)" fill="#017a94"/>
  </g>
</svg>
