<?xml version="1.0" encoding="utf-8"?>
<!-- Generator: Adobe Illustrator 26.3.1, SVG Export Plug-In . SVG Version: 6.00 Build 0)  -->
<svg version="1.1" id="レイヤー_1" xmlns="http://www.w3.org/2000/svg" xmlns:xlink="http://www.w3.org/1999/xlink" x="0px"
	 y="0px" viewBox="0 0 582.7 104.4" style="enable-background:new 0 0 582.7 104.4;" xml:space="preserve">
<style type="text/css">
	.st0{fill:none;stroke:#FFFFFF;stroke-width:2.8129;}
	.st1{fill:#FFFFFF;}
</style>
<g id="グループ_751" transform="translate(-487.666 -923.814)">
	<line id="線_1" class="st0" x1="488.3" y1="927.7" x2="538" y2="1024.3"/>
	<g>
		<path class="st1" d="M533.2,944c0,1.2-0.2,2.3-0.7,3.4c-0.4,1-1,2-1.8,2.7c-0.9,0.9-2.1,1.7-3.4,2.2c-1.3,0.5-2.9,0.8-4.9,0.8
			h-3.7v10.1h-3.7v-27.3h7.4c1.6,0,3,0.1,4.1,0.4c1.1,0.3,2.2,0.8,3,1.3c1,0.7,1.9,1.6,2.4,2.6C533,941.1,533.2,942.4,533.2,944z
			 M529.5,944.1c0-0.9-0.2-1.8-0.5-2.4c-0.4-0.7-0.8-1.2-1.5-1.7c-0.6-0.4-1.2-0.7-2-0.8s-1.7-0.3-2.8-0.3h-3.6v10.9h3.1
			c1.5,0,2.6-0.1,3.6-0.4c0.9-0.3,1.7-0.7,2.3-1.2c0.6-0.6,0.9-1.2,1.2-1.9C529.4,945.6,529.5,945,529.5,944.1z"/>
		<path class="st1" d="M550.5,946.4h-0.2c-0.5-0.1-1-0.2-1.5-0.3c-0.5-0.1-1-0.1-1.7-0.1c-1,0-2.1,0.3-3.1,0.8s-2,1-2.8,1.8v14.5
			h-3.5v-20.4h3.5v3c1.4-1.1,2.5-1.9,3.7-2.3s2.1-0.7,3.2-0.7c0.6,0,1,0,1.3,0c0.3,0,0.7,0.1,1.2,0.2L550.5,946.4L550.5,946.4z"/>
		<path class="st1" d="M570.8,953.2h-15c0,1.2,0.2,2.3,0.6,3.3c0.4,0.9,0.9,1.7,1.6,2.3c0.7,0.6,1.4,1,2.3,1.3
			c0.8,0.3,1.9,0.5,2.9,0.5c1.4,0,2.8-0.3,4.2-0.8c1.4-0.6,2.4-1.1,3-1.6h0.2v3.8c-1.1,0.5-2.3,0.9-3.6,1.2
			c-1.2,0.3-2.4,0.5-3.8,0.5c-3.4,0-6-0.9-8-2.7c-1.9-1.9-2.8-4.4-2.8-7.8c0-3.4,0.9-6,2.7-8c1.8-2,4.2-2.9,7.2-2.9
			c2.7,0,4.9,0.8,6.4,2.4c1.5,1.6,2.3,3.9,2.3,6.8L570.8,953.2L570.8,953.2z M567.6,950.6c0-1.8-0.5-3.2-1.4-4.2s-2.3-1.5-4.1-1.5
			c-1.9,0-3.3,0.6-4.4,1.6c-1.1,1.1-1.7,2.4-1.9,4L567.6,950.6L567.6,950.6z"/>
		<path class="st1" d="M579.6,963.1h-3.5v-28.5h3.5V963.1z"/>
		<path class="st1" d="M590.1,939.2h-3.8v-3.6h3.8V939.2z M589.9,963.1h-3.5v-20.4h3.5V963.1z"/>
		<path class="st1" d="M626.5,963.1h-3.5v-11.6c0-0.8,0-1.7-0.1-2.5s-0.3-1.5-0.5-2c-0.3-0.6-0.7-0.9-1.2-1.2
			c-0.6-0.3-1.3-0.4-2.3-0.4s-2,0.3-2.9,0.8c-0.9,0.5-2,1.1-2.9,1.9c0,0.3,0.1,0.6,0.1,0.9s0,0.8,0,1.1v13.1h-3.5v-11.6
			c0-0.9,0-1.8-0.1-2.5c-0.1-0.8-0.3-1.5-0.5-2c-0.3-0.6-0.7-0.9-1.2-1.2c-0.6-0.3-1.3-0.4-2.3-0.4c-0.9,0-1.9,0.2-2.8,0.7
			c-0.9,0.5-1.9,1-2.8,1.8v15.3h-3.5v-20.4h3.5v2.3c1-0.9,2.2-1.6,3.2-2.1c1-0.5,2.3-0.8,3.4-0.8c1.4,0,2.5,0.3,3.6,0.8
			c1,0.6,1.7,1.4,2.2,2.4c1.4-1.1,2.6-2.1,3.8-2.5c1.1-0.6,2.3-0.8,3.7-0.8c2.3,0,3.9,0.7,5,2.1s1.6,3.3,1.6,5.7V963.1z"/>
		<path class="st1" d="M636.9,939.2H633v-3.6h3.8V939.2z M636.7,963.1h-3.5v-20.4h3.5V963.1z"/>
		<path class="st1" d="M660.6,963.1h-3.5v-11.6c0-0.9-0.1-1.8-0.2-2.6c-0.1-0.8-0.3-1.5-0.6-2c-0.3-0.5-0.8-0.9-1.3-1.1
			c-0.6-0.3-1.3-0.4-2.3-0.4s-2,0.2-2.9,0.7c-1,0.5-2,1-2.9,1.8v15.3h-3.5v-20.4h3.5v2.3c1-0.9,2.2-1.6,3.4-2.1
			c1.1-0.5,2.3-0.8,3.6-0.8c2.3,0,3.9,0.7,5.1,2s1.8,3.3,1.8,5.7v13.3H660.6z"/>
		<path class="st1" d="M683.1,963.1h-3.5v-2.2c-0.3,0.2-0.8,0.5-1.2,0.8c-0.6,0.4-1,0.7-1.5,0.8c-0.6,0.3-1.2,0.5-2,0.8
			c-0.8,0.2-1.6,0.3-2.6,0.3c-1.9,0-3.4-0.7-4.7-1.9c-1.3-1.2-2-2.8-2-4.7c0-1.6,0.4-2.8,1-3.8s1.6-1.7,2.8-2.3
			c1.2-0.6,2.7-0.9,4.5-1.1c1.8-0.2,3.7-0.4,5.6-0.5v-0.6c0-0.8-0.1-1.4-0.4-2s-0.7-0.9-1.2-1.2c-0.5-0.3-1-0.5-1.8-0.6
			c-0.7-0.1-1.4-0.2-2.2-0.2c-0.9,0-1.9,0.1-3,0.4c-1.1,0.3-2.3,0.6-3.5,1h-0.2v-3.5c0.7-0.2,1.7-0.4,2.9-0.6
			c1.3-0.2,2.5-0.4,3.8-0.4c1.4,0,2.7,0.1,3.8,0.4c1,0.3,2,0.7,2.8,1.2c0.8,0.6,1.3,1.3,1.8,2.2c0.4,0.9,0.6,2,0.6,3.3L683.1,963.1
			L683.1,963.1z M679.7,958v-5.7c-1,0.1-2.3,0.2-3.8,0.3c-1.4,0.1-2.5,0.3-3.4,0.6c-1,0.3-1.8,0.8-2.4,1.3c-0.7,0.6-0.9,1.4-0.9,2.4
			c0,1.1,0.4,2.1,1,2.6c0.8,0.6,1.8,0.8,3.3,0.8c1.2,0,2.3-0.3,3.3-0.8C677.9,959.2,678.8,958.7,679.7,958z"/>
		<path class="st1" d="M702.5,946.4h-0.2c-0.5-0.1-1-0.2-1.5-0.3c-0.5-0.1-1-0.1-1.7-0.1c-1,0-2.1,0.3-3.1,0.8s-2,1-2.8,1.8v14.5
			h-3.5v-20.4h3.5v3c1.4-1.1,2.5-1.9,3.7-2.3c1.1-0.5,2.1-0.7,3.2-0.7c0.6,0,1,0,1.3,0c0.3,0,0.7,0.1,1.2,0.2L702.5,946.4
			L702.5,946.4z"/>
		<path class="st1" d="M723.4,942.6l-11.9,28h-3.7l3.8-8.5l-8.2-19.5h3.8l6.3,15.2l6.4-15.2H723.4z"/>
		<path class="st1" d="M763.9,963.1h-4.7l-9.1-10.9h-5.1v10.9h-3.7v-27.3h7.6c1.7,0,3,0.1,4.1,0.3c1.1,0.2,2.1,0.6,3,1.1
			c1,0.7,1.8,1.4,2.3,2.3s0.8,2.2,0.8,3.6c0,2-0.5,3.7-1.5,5s-2.3,2.3-4.1,3L763.9,963.1z M755.5,943.5c0-0.8-0.1-1.5-0.4-2.1
			c-0.3-0.6-0.8-1.1-1.4-1.5c-0.6-0.4-1.1-0.6-1.9-0.8c-0.8-0.1-1.6-0.2-2.5-0.2H745v10.3h3.7c1.1,0,2.2-0.1,3-0.3
			c0.8-0.2,1.6-0.6,2.2-1.1c0.6-0.5,0.9-1.1,1.2-1.8C755.4,945.3,755.5,944.5,755.5,943.5z"/>
		<path class="st1" d="M783.4,953.2h-15.1c0,1.2,0.2,2.3,0.6,3.3s0.9,1.7,1.6,2.3c0.7,0.6,1.4,1,2.3,1.3c0.8,0.3,1.9,0.5,2.9,0.5
			c1.4,0,2.8-0.3,4.2-0.8c1.4-0.6,2.4-1.1,3-1.6h0.2v3.8c-1.1,0.5-2.3,0.9-3.6,1.2c-1.2,0.4-2.4,0.5-3.8,0.5c-3.4,0-6-0.9-8-2.7
			c-1.9-1.9-2.8-4.4-2.8-7.8c0-3.4,0.9-6,2.7-8c1.8-2,4.2-2.9,7.2-2.9c2.7,0,4.9,0.8,6.4,2.4c1.5,1.6,2.3,3.9,2.3,6.8L783.4,953.2
			L783.4,953.2z M780,950.6c0-1.8-0.5-3.2-1.4-4.2s-2.3-1.5-4.1-1.5s-3.3,0.6-4.4,1.6c-1.1,1.1-1.7,2.4-1.9,4L780,950.6L780,950.6z"
			/>
		<path class="st1" d="M803.2,957.2c0,1.9-0.8,3.4-2.3,4.6c-1.5,1.2-3.7,1.8-6.3,1.8c-1.5,0-2.9-0.2-4.1-0.6
			c-1.2-0.4-2.3-0.8-3.2-1.2v-3.8h0.2c1.1,0.8,2.3,1.5,3.7,2c1.3,0.5,2.6,0.8,3.8,0.8c1.5,0,2.7-0.3,3.6-0.8
			c0.8-0.5,1.3-1.2,1.3-2.3c0-0.8-0.2-1.4-0.7-1.9c-0.5-0.4-1.3-0.8-2.7-1c-0.5-0.1-1.1-0.3-1.9-0.4c-0.8-0.1-1.5-0.3-2.2-0.5
			c-1.8-0.5-3.1-1.2-3.8-2.1c-0.8-0.9-1.1-2.1-1.1-3.4c0-0.8,0.2-1.6,0.6-2.3c0.4-0.8,0.8-1.4,1.6-2c0.7-0.6,1.6-1,2.6-1.4
			s2.3-0.5,3.6-0.5c1.2,0,2.4,0.2,3.8,0.5c1.2,0.3,2.3,0.7,3.1,1.1v3.7h-0.2c-0.8-0.7-2-1.2-3.2-1.6c-1.2-0.5-2.5-0.7-3.7-0.7
			c-1.2,0-2.3,0.3-3.2,0.8s-1.3,1.2-1.3,2.2c0,0.8,0.3,1.5,0.8,1.9c0.5,0.5,1.3,0.8,2.5,1c0.7,0.2,1.3,0.3,2.2,0.5s1.4,0.3,2,0.4
			c1.6,0.4,2.8,1,3.7,1.9C802.8,954.5,803.2,955.7,803.2,957.2z"/>
		<path class="st1" d="M825.1,963.1h-3.5v-2.3c-1.1,0.9-2.3,1.6-3.4,2.1s-2.3,0.8-3.6,0.8c-2.2,0-3.8-0.7-5.1-2
			c-1.2-1.3-1.8-3.3-1.8-5.8v-13.3h3.5v11.6c0,1,0.1,2,0.2,2.6c0.1,0.8,0.3,1.4,0.7,1.9c0.4,0.6,0.8,0.9,1.3,1.1
			c0.6,0.3,1.3,0.4,2.3,0.4s1.9-0.2,2.9-0.7s2.1-1,3-1.8v-15.3h3.5L825.1,963.1L825.1,963.1z"/>
		<path class="st1" d="M835.4,963.1h-3.5v-28.5h3.5V963.1z"/>
		<path class="st1" d="M852.8,962.9c-0.7,0.2-1.3,0.3-2.2,0.4c-0.8,0.1-1.4,0.2-2.1,0.2c-2.1,0-3.7-0.6-4.8-1.7
			c-1.1-1.1-1.6-2.9-1.6-5.4v-10.9h-2.3v-2.9h2.3v-5.9h3.5v5.9h7.1v2.9h-7.1v9.3c0,1,0,1.9,0.1,2.5c0.1,0.7,0.2,1.1,0.5,1.7
			c0.3,0.5,0.7,0.8,1.1,1c0.5,0.2,1.2,0.4,2.2,0.4c0.6,0,1.1-0.1,1.8-0.3c0.7-0.2,1-0.3,1.3-0.4h0.2L852.8,962.9L852.8,962.9z"/>
		<path class="st1" d="M871.5,957.2c0,1.9-0.8,3.4-2.3,4.6c-1.5,1.2-3.7,1.8-6.3,1.8c-1.5,0-2.9-0.2-4.1-0.6
			c-1.2-0.4-2.3-0.8-3.2-1.2v-3.8h0.2c1.1,0.8,2.3,1.5,3.7,2c1.3,0.5,2.6,0.8,3.8,0.8c1.5,0,2.7-0.3,3.6-0.8
			c0.8-0.5,1.3-1.2,1.3-2.3c0-0.8-0.2-1.4-0.7-1.9c-0.5-0.4-1.3-0.8-2.7-1c-0.5-0.1-1.1-0.3-1.9-0.4c-0.8-0.1-1.5-0.3-2.2-0.5
			c-1.8-0.5-3.1-1.2-3.8-2.1c-0.8-0.9-1.1-2.1-1.1-3.4c0-0.8,0.2-1.6,0.6-2.3c0.4-0.8,0.8-1.4,1.6-2c0.7-0.6,1.6-1,2.6-1.4
			s2.3-0.5,3.6-0.5c1.2,0,2.4,0.2,3.8,0.5c1.2,0.3,2.3,0.7,3.1,1.1v3.7h-0.2c-0.8-0.7-2-1.2-3.2-1.6c-1.2-0.5-2.5-0.7-3.7-0.7
			c-1.2,0-2.3,0.3-3.2,0.8c-0.8,0.5-1.3,1.2-1.3,2.2c0,0.8,0.3,1.5,0.8,1.9c0.5,0.5,1.3,0.8,2.5,1c0.7,0.2,1.3,0.3,2.2,0.5
			c0.8,0.2,1.4,0.3,2,0.4c1.6,0.4,2.8,1,3.7,1.9C871.2,954.5,871.5,955.7,871.5,957.2z"/>
		<path class="st1" d="M911.5,963.1h-3.8l-2.7-7.6h-11.8l-2.7,7.6h-3.7l9.9-27.3h4.9L911.5,963.1z M903.8,952.4L899,939l-4.8,13.4
			H903.8z"/>
		<path class="st1" d="M928.1,946.4h-0.2c-0.5-0.1-1-0.2-1.5-0.3c-0.5-0.1-1-0.1-1.7-0.1c-1,0-2.1,0.3-3.1,0.8s-2,1-2.8,1.8v14.5
			h-3.5v-20.4h3.5v3c1.4-1.1,2.5-1.9,3.7-2.3c1.1-0.5,2.1-0.7,3.2-0.7c0.6,0,1,0,1.3,0c0.3,0,0.7,0.1,1.2,0.2L928.1,946.4
			L928.1,946.4z"/>
		<path class="st1" d="M948.4,953.2h-15.1c0,1.2,0.2,2.3,0.6,3.3s0.9,1.7,1.6,2.3c0.7,0.6,1.4,1,2.3,1.3c0.8,0.3,1.9,0.5,2.9,0.5
			c1.4,0,2.8-0.3,4.2-0.8c1.4-0.6,2.4-1.1,3-1.6h0.2v3.8c-1.1,0.5-2.3,0.9-3.6,1.2c-1.2,0.3-2.4,0.5-3.8,0.5c-3.4,0-6-0.9-8-2.7
			c-1.9-1.9-2.8-4.4-2.8-7.8c0-3.4,0.9-6,2.7-8c1.8-2,4.2-2.9,7.2-2.9c2.7,0,4.9,0.8,6.4,2.4s2.3,3.9,2.3,6.8L948.4,953.2
			L948.4,953.2z M945.1,950.6c0-1.8-0.5-3.2-1.4-4.2s-2.3-1.5-4.1-1.5s-3.3,0.6-4.4,1.6c-1.1,1.1-1.7,2.4-1.9,4L945.1,950.6
			L945.1,950.6z"/>
		<path class="st1" d="M987.4,939c1.1,1.2,2,2.7,2.5,4.5s0.8,3.8,0.8,6c0,2.3-0.3,4.2-0.9,6c-0.7,1.8-1.4,3.3-2.5,4.4
			c-1.1,1.2-2.4,2.2-3.9,2.8s-3.3,0.9-5.3,0.9c-1.9,0-3.7-0.3-5.3-0.9s-2.9-1.6-4-2.7c-1.1-1.1-2-2.7-2.5-4.4
			c-0.6-1.7-0.8-3.8-0.8-6c0-2.3,0.3-4.2,0.8-6c0.6-1.8,1.4-3.3,2.5-4.5c1-1.2,2.4-2.2,4-2.7c1.6-0.7,3.4-0.9,5.3-0.9
			c2,0,3.8,0.3,5.3,0.9C984.9,937,986.4,937.7,987.4,939z M987.2,949.5c0-3.6-0.8-6.3-2.3-8.2c-1.6-1.9-3.8-2.9-6.5-2.9
			c-2.8,0-5,0.9-6.6,2.9s-2.3,4.7-2.3,8.2c0,3.6,0.8,6.3,2.4,8.3c1.6,1.9,3.8,2.8,6.5,2.8s4.9-0.9,6.5-2.8
			C986.3,955.7,987.2,953,987.2,949.5z"/>
		<path class="st1" d="M1013.3,963.1h-3.5v-2.3c-1.1,0.9-2.3,1.6-3.4,2.1s-2.3,0.8-3.6,0.8c-2.2,0-3.8-0.7-5.1-2s-1.8-3.3-1.8-5.8
			v-13.3h3.5v11.6c0,1,0.1,2,0.2,2.6c0.1,0.8,0.3,1.4,0.7,1.9c0.4,0.6,0.8,0.9,1.3,1.1c0.6,0.3,1.3,0.4,2.3,0.4s1.9-0.2,2.9-0.7
			s2.1-1,3-1.8v-15.3h3.5V963.1z"/>
		<path class="st1" d="M1030.8,962.9c-0.7,0.2-1.3,0.3-2.2,0.4s-1.4,0.2-2.1,0.2c-2.1,0-3.7-0.6-4.8-1.7s-1.6-2.9-1.6-5.4v-10.9
			h-2.3v-2.9h2.3v-5.9h3.5v5.9h7.1v2.9h-7.1v9.3c0,1,0,1.9,0.1,2.5c0.1,0.7,0.2,1.1,0.5,1.7c0.3,0.5,0.7,0.8,1.1,1
			c0.5,0.2,1.2,0.4,2.2,0.4c0.6,0,1.1-0.1,1.8-0.3c0.7-0.2,1-0.3,1.3-0.4h0.2V962.9z"/>
		<path class="st1" d="M1040.9,935.8l-0.5,19.8h-3.1l-0.5-19.8H1040.9z M1040.8,963.1h-3.8v-3.8h3.8V963.1z"/>
		<path class="st1" d="M643,1009.9h-3.8l-2.7-7.6h-11.8l-2.7,7.6h-3.7l9.9-27.3h4.9L643,1009.9z M635.4,999.3l-4.8-13.4l-4.8,13.4
			H635.4z"/>
		<path class="st1" d="M672.1,989.5l-5.3,20.4h-3.2l-5.3-15.8l-5.3,15.8h-3.2l-5.3-20.4h3.6l3.8,15.8l5.1-15.8h2.8l5.3,15.8
			l3.6-15.8H672.1z"/>
		<path class="st1" d="M692.6,1009.9h-3.5v-2.2c-0.3,0.2-0.8,0.5-1.2,0.8c-0.6,0.4-1,0.7-1.5,0.8c-0.6,0.3-1.2,0.5-2,0.8
			c-0.8,0.2-1.6,0.3-2.6,0.3c-1.9,0-3.4-0.7-4.7-1.9c-1.3-1.2-2-2.8-2-4.7c0-1.6,0.4-2.8,1-3.8c0.7-0.9,1.6-1.7,2.8-2.3
			c1.2-0.6,2.7-0.9,4.5-1.1c1.8-0.2,3.7-0.4,5.6-0.5v-0.6c0-0.8-0.1-1.4-0.4-2c-0.3-0.6-0.7-0.9-1.2-1.2c-0.5-0.3-1-0.5-1.8-0.6
			c-0.7-0.1-1.4-0.2-2.2-0.2c-0.9,0-1.9,0.1-3,0.4c-1.1,0.3-2.3,0.6-3.5,1H677v-3.5c0.7-0.2,1.7-0.4,2.9-0.6
			c1.3-0.2,2.5-0.4,3.8-0.4c1.4,0,2.7,0.1,3.8,0.4s2,0.7,2.8,1.2c0.8,0.6,1.3,1.3,1.8,2.2c0.5,0.8,0.6,2,0.6,3.3L692.6,1009.9
			L692.6,1009.9z M689.2,1004.9v-5.7c-1,0.1-2.3,0.2-3.8,0.3c-1.4,0.1-2.5,0.3-3.4,0.6c-1,0.3-1.8,0.8-2.4,1.3s-0.9,1.4-0.9,2.4
			c0,1.1,0.4,2.1,1,2.6c0.8,0.6,1.8,0.8,3.3,0.8c1.2,0,2.3-0.3,3.3-0.8C687.4,1006.1,688.3,1005.5,689.2,1004.9z"/>
		<path class="st1" d="M712,993.3h-0.2c-0.5-0.1-1-0.2-1.5-0.3s-1-0.1-1.7-0.1c-1,0-2.1,0.3-3.1,0.8c-1,0.5-2,1-2.8,1.8v14.5h-3.5
			v-20.4h3.5v3c1.4-1.1,2.5-1.9,3.7-2.3s2.1-0.7,3.2-0.7c0.6,0,1,0,1.3,0s0.7,0.1,1.2,0.2L712,993.3L712,993.3z"/>
		<path class="st1" d="M731.8,1009.9h-3.5v-2.2c-1,0.8-2.1,1.5-3.1,2s-2.3,0.8-3.5,0.8c-2.4,0-4.4-0.9-5.8-2.8s-2.2-4.5-2.2-7.8
			c0-1.7,0.3-3.3,0.8-4.6c0.5-1.3,1.1-2.5,2-3.5c0.8-0.9,1.8-1.6,2.9-2.2c1.1-0.5,2.3-0.8,3.5-0.8c1,0,2.1,0.1,2.8,0.4
			c0.8,0.2,1.7,0.6,2.6,1v-8.9h3.5L731.8,1009.9L731.8,1009.9z M728.4,1004.9v-11.7c-0.9-0.4-1.8-0.7-2.5-0.8
			c-0.8-0.2-1.5-0.3-2.4-0.3c-2,0-3.5,0.7-4.5,2s-1.6,3.3-1.6,5.7c0,2.4,0.4,4.3,1.2,5.5c0.8,1.2,2.2,1.9,4,1.9c0.9,0,2-0.2,3-0.7
			C726.6,1006.2,727.5,1005.6,728.4,1004.9z"/>
		<path class="st1" d="M773.1,1008c-0.7,0.3-1.3,0.6-1.8,0.8c-0.6,0.3-1.2,0.6-2.2,0.8c-0.8,0.2-1.6,0.5-2.4,0.6
			c-0.8,0.2-1.9,0.3-2.9,0.3c-2,0-3.8-0.3-5.4-0.8c-1.6-0.6-3-1.4-4.2-2.6c-1.1-1.1-2.1-2.6-2.7-4.4c-0.7-1.8-1-3.8-1-6.3
			c0-2.3,0.3-4.2,0.9-6c0.7-1.8,1.6-3.3,2.7-4.5c1.1-1.2,2.5-2.1,4.2-2.7c1.7-0.7,3.5-0.9,5.4-0.9c1.5,0,2.9,0.2,4.4,0.6
			c1.5,0.4,3.1,0.9,4.9,1.9v4.3h-0.3c-1.5-1.2-3-2.2-4.5-2.7c-1.5-0.6-3.1-0.8-4.8-0.8c-1.4,0-2.6,0.2-3.8,0.7
			c-1.1,0.5-2.1,1.1-3,2.1c-0.8,0.9-1.5,2.1-2,3.5c-0.5,1.4-0.8,3-0.8,4.9s0.3,3.6,0.8,5c0.6,1.4,1.2,2.5,2,3.4c0.8,0.9,1.9,1.6,3,2
			c1.1,0.5,2.3,0.7,3.7,0.7c1.8,0,3.4-0.3,4.9-0.9c1.5-0.6,3-1.5,4.3-2.7h0.3v4.2H773.1z"/>
		<path class="st1" d="M795.1,1000.1H780c0,1.2,0.2,2.3,0.6,3.3c0.4,0.9,0.9,1.7,1.6,2.3c0.7,0.6,1.4,1,2.3,1.3
			c0.8,0.3,1.9,0.5,2.9,0.5c1.4,0,2.8-0.3,4.2-0.8c1.4-0.6,2.4-1.1,3-1.6h0.2v3.8c-1.1,0.5-2.3,0.9-3.6,1.2
			c-1.2,0.3-2.4,0.5-3.8,0.5c-3.4,0-6-0.9-8-2.7c-1.9-1.9-2.8-4.4-2.8-7.8c0-3.4,0.9-6,2.7-8c1.8-2,4.2-2.9,7.2-2.9
			c2.7,0,4.9,0.8,6.4,2.4s2.3,3.9,2.3,6.8L795.1,1000.1L795.1,1000.1z M791.8,997.5c0-1.8-0.5-3.2-1.4-4.2s-2.3-1.5-4.1-1.5
			s-3.3,0.6-4.4,1.6c-1.1,1-1.7,2.4-1.9,4L791.8,997.5L791.8,997.5z"/>
		<path class="st1" d="M813.1,993.3h-0.2c-0.5-0.1-1-0.2-1.5-0.3c-0.5-0.1-1-0.1-1.7-0.1c-1,0-2.1,0.3-3.1,0.8c-1,0.5-2,1-2.8,1.8
			v14.5h-3.5v-20.4h3.5v3c1.4-1.1,2.5-1.9,3.7-2.3s2.1-0.7,3.2-0.7c0.6,0,1,0,1.3,0c0.3,0,0.7,0.1,1.2,0.2L813.1,993.3L813.1,993.3z
			"/>
		<path class="st1" d="M833.5,1000.1h-15.1c0,1.2,0.2,2.3,0.6,3.3c0.4,0.9,0.9,1.7,1.6,2.3c0.7,0.6,1.4,1,2.3,1.3
			c0.8,0.3,1.9,0.5,2.9,0.5c1.4,0,2.8-0.3,4.2-0.8c1.4-0.6,2.4-1.1,3-1.6h0.2v3.8c-1.1,0.5-2.3,0.9-3.6,1.2
			c-1.2,0.3-2.4,0.5-3.8,0.5c-3.4,0-6-0.9-8-2.7c-2-1.8-2.8-4.4-2.8-7.8c0-3.4,0.9-6,2.7-8c1.8-2,4.2-2.9,7.2-2.9
			c2.7,0,4.9,0.8,6.4,2.4s2.3,3.9,2.3,6.8L833.5,1000.1L833.5,1000.1z M830.1,997.5c0-1.8-0.5-3.2-1.4-4.2s-2.3-1.5-4.1-1.5
			s-3.3,0.6-4.4,1.6c-1.1,1-1.7,2.4-1.9,4L830.1,997.5L830.1,997.5z"/>
		<path class="st1" d="M868.5,1009.9h-3.5v-11.6c0-0.8,0-1.7-0.1-2.5c-0.1-0.8-0.3-1.5-0.5-2c-0.3-0.6-0.7-0.9-1.2-1.2
			c-0.6-0.3-1.3-0.4-2.3-0.4c-0.9,0-2,0.3-2.9,0.8s-2,1.1-2.9,1.9c0,0.3,0.1,0.6,0.1,0.9c0,0.4,0,0.8,0,1.1v13.1h-3.5v-11.6
			c0-0.9,0-1.8-0.1-2.5c-0.1-0.8-0.3-1.5-0.5-2c-0.3-0.6-0.7-0.9-1.2-1.2c-0.6-0.3-1.3-0.4-2.3-0.4c-0.9,0-1.9,0.2-2.8,0.7
			s-1.9,1-2.8,1.8v15.3h-3.5v-20.4h3.5v2.3c1-0.9,2.2-1.6,3.2-2.1s2.3-0.8,3.4-0.8c1.4,0,2.5,0.3,3.6,0.8s1.7,1.4,2.2,2.4
			c1.4-1.1,2.6-2.1,3.8-2.5s2.3-0.8,3.7-0.8c2.3,0,3.9,0.7,5,2.1c1,1.4,1.6,3.3,1.6,5.7V1009.9z"/>
		<path class="st1" d="M892.5,999.7c0,3.4-0.8,6-2.5,7.9c-1.7,1.9-4,2.9-6.8,2.9c-2.9,0-5.2-0.9-6.9-2.9c-1.8-2-2.5-4.6-2.5-7.9
			c0-3.3,0.8-6,2.5-7.9s4-2.9,6.9-2.9s5.2,0.9,6.8,2.9S892.5,996.4,892.5,999.7z M889.1,999.7c0-2.6-0.6-4.6-1.6-5.9
			c-1-1.3-2.4-2-4.3-2c-1.9,0-3.3,0.7-4.3,2c-1,1.3-1.6,3.3-1.6,5.9c0,2.5,0.6,4.5,1.6,5.8c1,1.3,2.4,2,4.3,2c1.9,0,3.3-0.7,4.3-2
			C888.5,1004.2,889.1,1002.3,889.1,999.7z"/>
		<path class="st1" d="M915.1,1009.9h-3.5v-11.6c0-0.9-0.1-1.8-0.2-2.6c-0.1-0.8-0.3-1.5-0.6-2c-0.3-0.5-0.8-0.9-1.3-1.1
			c-0.6-0.2-1.3-0.4-2.3-0.4s-2,0.2-2.9,0.7s-2,1-2.9,1.8v15.3H898v-20.4h3.5v2.3c1-0.9,2.2-1.6,3.4-2.1s2.3-0.8,3.6-0.8
			c2.3,0,3.9,0.7,5.1,2c1.1,1.3,1.8,3.3,1.8,5.7v13.3H915.1z"/>
		<path class="st1" d="M939,989.5l-11.9,28h-3.7l3.8-8.5l-8.2-19.5h3.8l6.3,15.2l6.4-15.2L939,989.5L939,989.5z"/>
	</g>
	<line id="線_2" class="st0" x1="1069.7" y1="927.7" x2="1020" y2="1024.3"/>
</g>
</svg>
