<svg xmlns="http://www.w3.org/2000/svg" width="377.231" height="82.975" viewBox="0 0 377.231 82.975">
  <g id="グループ_732" data-name="グループ 732" transform="translate(-968.103 -721.712)">
    <path id="パス_673" data-name="パス 673" d="M-123.662,0h2.6V-8.148h3.388c4.48,0,7.56-2.016,7.56-6.356,0-4.48-3.08-6.02-7.7-6.02h-5.852Zm2.6-10.248v-8.176h2.94c3.612,0,5.432.952,5.432,3.92,0,2.94-1.708,4.256-5.32,4.256ZM-106.19,0h2.548V-9.772c1.008-2.6,2.576-3.5,3.836-3.5a3.6,3.6,0,0,1,1.484.252l.476-2.24A3.241,3.241,0,0,0-99.47-15.6c-1.708,0-3.248,1.232-4.312,3.164h-.084l-.224-2.772h-2.1ZM-89.5.364A9.049,9.049,0,0,0-84.462-1.2l-.924-1.68a6.554,6.554,0,0,1-3.808,1.2c-2.884,0-4.872-2.072-5.04-5.32h10.248a9.947,9.947,0,0,0,.112-1.456c0-4.34-2.184-7.14-6.048-7.14-3.528,0-6.86,3.08-6.86,8.008C-96.782-2.576-93.534.364-89.5.364Zm-4.76-9.184c.308-3,2.212-4.732,4.368-4.732,2.38,0,3.78,1.652,3.78,4.732ZM-77.434.364A4.026,4.026,0,0,0-75.95.14l-.364-1.96a2.237,2.237,0,0,1-.532.056c-.392,0-.728-.308-.728-1.092V-22.288h-2.548V-3.024C-80.122-.868-79.338.364-77.434.364ZM-72.142,0h2.548V-15.2h-2.548Zm1.288-18.34a1.666,1.666,0,0,0,1.764-1.652,1.618,1.618,0,0,0-1.764-1.652,1.618,1.618,0,0,0-1.764,1.652A1.666,1.666,0,0,0-70.854-18.34ZM-64.442,0h2.548V-11.032c1.4-1.568,2.688-2.324,3.836-2.324,1.932,0,2.828,1.2,2.828,4.06V0h2.548V-11.032c1.428-1.568,2.66-2.324,3.836-2.324,1.932,0,2.828,1.2,2.828,4.06V0h2.548V-9.632c0-3.892-1.484-5.964-4.62-5.964-1.848,0-3.444,1.2-5.012,2.912A4.01,4.01,0,0,0-57.3-15.6a6.68,6.68,0,0,0-4.732,2.6h-.084l-.224-2.212h-2.1Zm25.928,0h2.548V-15.2h-2.548Zm1.288-18.34a1.666,1.666,0,0,0,1.764-1.652,1.618,1.618,0,0,0-1.764-1.652,1.618,1.618,0,0,0-1.764,1.652A1.666,1.666,0,0,0-37.226-18.34ZM-30.814,0h2.548V-11.032c1.54-1.54,2.6-2.324,4.172-2.324,2.016,0,2.884,1.2,2.884,4.06V0h2.548V-9.632c0-3.892-1.456-5.964-4.648-5.964-2.072,0-3.64,1.148-5.1,2.576h-.084l-.224-2.184h-2.1Zm20.608.364A8.145,8.145,0,0,0-5.166-1.82h.084L-4.858,0h2.1V-9.352c0-3.752-1.568-6.244-5.264-6.244a11.436,11.436,0,0,0-5.992,1.988l1.008,1.764a8.377,8.377,0,0,1,4.564-1.624c2.492,0,3.136,1.876,3.136,3.836-6.468.728-9.352,2.38-9.352,5.684A4.122,4.122,0,0,0-10.206.364Zm.728-2.044c-1.512,0-2.688-.7-2.688-2.436,0-1.96,1.736-3.22,6.86-3.836V-3.7C-6.79-2.38-7.994-1.68-9.478-1.68ZM2.086,0H4.634V-9.772c1.008-2.6,2.576-3.5,3.836-3.5a3.6,3.6,0,0,1,1.484.252l.476-2.24A3.241,3.241,0,0,0,8.806-15.6c-1.708,0-3.248,1.232-4.312,3.164H4.41L4.186-15.2h-2.1ZM14.014,6.552c3.024,0,4.592-2.3,5.656-5.292L25.41-15.2H22.918L20.2-6.748c-.42,1.344-.868,2.884-1.288,4.256h-.14c-.476-1.372-1.008-2.94-1.456-4.256L14.21-15.2H11.55L17.654.028l-.336,1.148C16.7,3.052,15.61,4.452,13.874,4.452A3.633,3.633,0,0,1,12.726,4.2l-.5,2.044A4.681,4.681,0,0,0,14.014,6.552ZM37.45-18.424h3.444c3.22,0,4.984.952,4.984,3.668,0,2.66-1.764,3.948-4.984,3.948H37.45ZM49.07,0,43.806-8.988a5.567,5.567,0,0,0,4.648-5.768c0-4.284-3-5.768-7.168-5.768h-6.44V0h2.6V-8.708h3.7L46.13,0Zm9.156.364A9.049,9.049,0,0,0,63.266-1.2l-.924-1.68a6.554,6.554,0,0,1-3.808,1.2c-2.884,0-4.872-2.072-5.04-5.32H63.742a9.947,9.947,0,0,0,.112-1.456c0-4.34-2.184-7.14-6.048-7.14-3.528,0-6.86,3.08-6.86,8.008C50.946-2.576,54.194.364,58.226.364ZM53.466-8.82c.308-3,2.212-4.732,4.368-4.732,2.38,0,3.78,1.652,3.78,4.732ZM71.582.364c3.584,0,5.544-2.044,5.544-4.508,0-2.884-2.436-3.78-4.648-4.62-1.708-.644-3.36-1.176-3.36-2.632,0-1.176.868-2.184,2.772-2.184a5.721,5.721,0,0,1,3.5,1.344l1.232-1.652A7.878,7.878,0,0,0,71.89-15.6c-3.3,0-5.236,1.9-5.236,4.312,0,2.576,2.408,3.612,4.536,4.4,1.68.644,3.472,1.344,3.472,2.884,0,1.316-.98,2.38-3,2.38a6.9,6.9,0,0,1-4.508-1.792L65.9-1.736A9.171,9.171,0,0,0,71.582.364Zm13.552,0c2.1,0,3.612-1.092,5.04-2.744h.084l.2,2.38h2.128V-15.2H90.034v10.78c-1.456,1.82-2.548,2.576-4.116,2.576-2.016,0-2.856-1.2-2.856-4.032V-15.2H80.514v9.632C80.514-1.708,81.942.364,85.134.364Zm15.26,0A4.026,4.026,0,0,0,101.878.14l-.364-1.96a2.237,2.237,0,0,1-.532.056c-.392,0-.728-.308-.728-1.092V-22.288H97.706V-3.024C97.706-.868,98.49.364,100.394.364Zm10.08,0a9.572,9.572,0,0,0,2.8-.56l-.5-1.9a5.387,5.387,0,0,1-1.736.392c-1.764,0-2.352-1.064-2.352-2.94v-8.484H112.8V-15.2h-4.116V-19.46h-2.128l-.308,4.256-2.38.14v1.932h2.268V-4.7C106.134-1.652,107.226.364,110.474.364Zm9.436,0c3.584,0,5.544-2.044,5.544-4.508,0-2.884-2.436-3.78-4.648-4.62-1.708-.644-3.36-1.176-3.36-2.632,0-1.176.868-2.184,2.772-2.184a5.721,5.721,0,0,1,3.5,1.344l1.232-1.652a7.878,7.878,0,0,0-4.732-1.708c-3.3,0-5.236,1.9-5.236,4.312,0,2.576,2.408,3.612,4.536,4.4,1.68.644,3.472,1.344,3.472,2.884,0,1.316-.98,2.38-3,2.38a6.9,6.9,0,0,1-4.508-1.792l-1.26,1.68A9.171,9.171,0,0,0,119.91.364ZM-139.454,32.656l1.008-3.136c.728-2.324,1.4-4.536,2.044-6.944h.112c.672,2.38,1.316,4.62,2.072,6.944l.98,3.136Zm8.82,8.344h2.744l-6.972-20.524h-2.884L-144.718,41h2.632l1.988-6.272h7.5Zm5.4,0h2.548V29.968c1.54-1.54,2.6-2.324,4.172-2.324,2.016,0,2.884,1.2,2.884,4.06V41h2.548V31.368c0-3.892-1.456-5.964-4.648-5.964-2.072,0-3.64,1.148-5.1,2.576h-.084l-.224-2.184h-2.1Zm17.108,0h2.548V29.968c1.54-1.54,2.6-2.324,4.172-2.324,2.016,0,2.884,1.2,2.884,4.06V41h2.548V31.368c0-3.892-1.456-5.964-4.648-5.964-2.072,0-3.64,1.148-5.1,2.576h-.084l-.224-2.184h-2.1Zm23.016.364c3.724,0,7.056-2.912,7.056-7.952,0-5.068-3.332-8.008-7.056-8.008s-7.056,2.94-7.056,8.008C-92.162,38.452-88.83,41.364-85.106,41.364Zm0-2.128c-2.632,0-4.4-2.324-4.4-5.824s1.764-5.88,4.4-5.88,4.424,2.38,4.424,5.88S-82.474,39.236-85.106,39.236Zm15.484,2.128c2.1,0,3.612-1.092,5.04-2.744h.084l.2,2.38h2.128V25.8h-2.548v10.78c-1.456,1.82-2.548,2.576-4.116,2.576-2.016,0-2.856-1.2-2.856-4.032V25.8h-2.548v9.632C-74.242,39.292-72.814,41.364-69.622,41.364ZM-57.05,41H-54.5V29.968c1.54-1.54,2.6-2.324,4.172-2.324,2.016,0,2.884,1.2,2.884,4.06V41H-44.9V31.368c0-3.892-1.456-5.964-4.648-5.964-2.072,0-3.64,1.148-5.1,2.576h-.084L-54.95,25.8h-2.1Zm23.1.364a7.249,7.249,0,0,0,4.9-1.932l-1.092-1.708a5.361,5.361,0,0,1-3.584,1.512c-2.8,0-4.7-2.324-4.7-5.824s2.016-5.88,4.76-5.88A4.414,4.414,0,0,1-30.618,28.9L-29.3,27.2A6.5,6.5,0,0,0-33.754,25.4c-3.892,0-7.336,2.94-7.336,8.008C-41.09,38.452-37.982,41.364-33.95,41.364Zm13.72,0A9.049,9.049,0,0,0-15.19,39.8l-.924-1.68a6.554,6.554,0,0,1-3.808,1.2c-2.884,0-4.872-2.072-5.04-5.32h10.248a9.947,9.947,0,0,0,.112-1.456c0-4.34-2.184-7.14-6.048-7.14-3.528,0-6.86,3.08-6.86,8.008C-27.51,38.424-24.262,41.364-20.23,41.364Zm-4.76-9.184c.308-3,2.212-4.732,4.368-4.732,2.38,0,3.78,1.652,3.78,4.732ZM-10.85,41H-8.3V29.968c1.4-1.568,2.688-2.324,3.836-2.324,1.932,0,2.828,1.2,2.828,4.06V41H.91V29.968c1.428-1.568,2.66-2.324,3.836-2.324,1.932,0,2.828,1.2,2.828,4.06V41h2.548V31.368c0-3.892-1.484-5.964-4.62-5.964-1.848,0-3.444,1.2-5.012,2.912A4.01,4.01,0,0,0-3.71,25.4a6.68,6.68,0,0,0-4.732,2.6h-.084L-8.75,25.8h-2.1Zm32.06.364A9.049,9.049,0,0,0,26.25,39.8l-.924-1.68a6.554,6.554,0,0,1-3.808,1.2c-2.884,0-4.872-2.072-5.04-5.32H26.726a9.948,9.948,0,0,0,.112-1.456c0-4.34-2.184-7.14-6.048-7.14-3.528,0-6.86,3.08-6.86,8.008C13.93,38.424,17.178,41.364,21.21,41.364ZM16.45,32.18c.308-3,2.212-4.732,4.368-4.732,2.38,0,3.78,1.652,3.78,4.732ZM30.59,41h2.548V29.968c1.54-1.54,2.6-2.324,4.172-2.324,2.016,0,2.884,1.2,2.884,4.06V41h2.548V31.368c0-3.892-1.456-5.964-4.648-5.964-2.072,0-3.64,1.148-5.1,2.576h-.084L32.69,25.8h-2.1Zm21.9.364a9.572,9.572,0,0,0,2.8-.56l-.5-1.9a5.387,5.387,0,0,1-1.736.392c-1.764,0-2.352-1.064-2.352-2.94V27.868H54.81V25.8H50.694V21.54H48.566L48.258,25.8l-2.38.14v1.932h2.268V36.3C48.146,39.348,49.238,41.364,52.486,41.364ZM64.75,41H76.9V38.788H67.354V31.312h7.784V29.1H67.354V22.66h9.24V20.476H64.75Zm19.208,0h2.968l5.4-15.2H89.81l-2.884,8.652c-.448,1.484-.952,3.052-1.4,4.48h-.112c-.476-1.428-.952-3-1.428-4.48L81.13,25.8H78.47Zm17.332.364a9.049,9.049,0,0,0,5.04-1.568l-.924-1.68a6.554,6.554,0,0,1-3.808,1.2c-2.884,0-4.872-2.072-5.04-5.32h10.248a9.947,9.947,0,0,0,.112-1.456c0-4.34-2.184-7.14-6.048-7.14-3.528,0-6.86,3.08-6.86,8.008C94.01,38.424,97.258,41.364,101.29,41.364ZM96.53,32.18c.308-3,2.212-4.732,4.368-4.732,2.38,0,3.78,1.652,3.78,4.732ZM110.67,41h2.548V29.968c1.54-1.54,2.6-2.324,4.172-2.324,2.016,0,2.884,1.2,2.884,4.06V41h2.548V31.368c0-3.892-1.456-5.964-4.648-5.964-2.072,0-3.64,1.148-5.1,2.576h-.084L112.77,25.8h-2.1Zm21.9.364a9.572,9.572,0,0,0,2.8-.56l-.5-1.9a5.387,5.387,0,0,1-1.736.392c-1.764,0-2.352-1.064-2.352-2.94V27.868h4.116V25.8h-4.116V21.54h-2.128l-.308,4.256-2.38.14v1.932h2.268V36.3C128.226,39.348,129.318,41.364,132.566,41.364Zm6.832-6.552h1.764L141.5,22.94l.084-2.912h-2.6l.084,2.912Zm.868,6.552a1.833,1.833,0,0,0,1.848-1.932,1.853,1.853,0,1,0-3.7,0A1.849,1.849,0,0,0,140.266,41.364Z" transform="translate(1157 744)" fill="#fff"/>
    <line id="線_2" data-name="線 2" x1="37.563" y2="73" transform="translate(1306.437 731)" fill="none" stroke="#fff" stroke-width="3"/>
    <line id="線_3" data-name="線 3" x2="37.563" y2="73.001" transform="translate(969.437 731)" fill="none" stroke="#fff" stroke-width="3"/>
  </g>
</svg>
