<svg xmlns="http://www.w3.org/2000/svg" width="377.231" height="74.373" viewBox="0 0 377.231 74.373">
  <g id="グループ_751" data-name="グループ 751" transform="translate(0.897 -896.313)">
    <g id="グループ_508" data-name="グループ 508" transform="translate(-474 100)">
      <g id="グループ_732" data-name="グループ 732" transform="translate(-495 76)">
        <path id="パス_674" data-name="パス 674" d="M-82.782,0h2.6V-18.34h6.216v-2.184H-89v2.184h6.216Zm12.264,0h2.548V-11.032c1.54-1.54,2.6-2.324,4.172-2.324,2.016,0,2.884,1.2,2.884,4.06V0h2.548V-9.632c0-3.892-1.456-5.964-4.648-5.964-2.072,0-3.64,1.148-5.04,2.548l.084-3.136v-6.1h-2.548Zm20.5.364a8.145,8.145,0,0,0,5.04-2.184h.084L-44.674,0h2.1V-9.352c0-3.752-1.568-6.244-5.264-6.244a11.436,11.436,0,0,0-5.992,1.988l1.008,1.764a8.377,8.377,0,0,1,4.564-1.624c2.492,0,3.136,1.876,3.136,3.836-6.468.728-9.352,2.38-9.352,5.684A4.122,4.122,0,0,0-50.022.364Zm.728-2.044c-1.512,0-2.688-.7-2.688-2.436,0-1.96,1.736-3.22,6.86-3.836V-3.7C-46.606-2.38-47.81-1.68-49.294-1.68ZM-37.73,0h2.548V-11.032c1.54-1.54,2.6-2.324,4.172-2.324,2.016,0,2.884,1.2,2.884,4.06V0h2.548V-9.632c0-3.892-1.456-5.964-4.648-5.964-2.072,0-3.64,1.148-5.1,2.576h-.084L-35.63-15.2h-2.1Zm17.108,0h2.52V-4l2.856-3.332L-10.794,0h2.772L-13.79-9.1l5.1-6.1h-2.828l-6.524,8.036H-18.1v-15.12h-2.52ZM1.358,6.552c3.024,0,4.592-2.3,5.656-5.292L12.754-15.2H10.262L7.546-6.748C7.126-5.4,6.678-3.864,6.258-2.492h-.14C5.642-3.864,5.11-5.432,4.662-6.748L1.554-15.2h-2.66L5,.028,4.662,1.176C4.046,3.052,2.954,4.452,1.218,4.452A3.633,3.633,0,0,1,.07,4.2l-.5,2.044A4.681,4.681,0,0,0,1.358,6.552ZM21.49.364c3.724,0,7.056-2.912,7.056-7.952,0-5.068-3.332-8.008-7.056-8.008s-7.056,2.94-7.056,8.008C14.434-2.548,17.766.364,21.49.364Zm0-2.128c-2.632,0-4.4-2.324-4.4-5.824s1.764-5.88,4.4-5.88,4.424,2.38,4.424,5.88S24.122-1.764,21.49-1.764ZM36.974.364c2.1,0,3.612-1.092,5.04-2.744H42.1l.2,2.38h2.128V-15.2H41.874v10.78c-1.456,1.82-2.548,2.576-4.116,2.576-2.016,0-2.856-1.2-2.856-4.032V-15.2H32.354v9.632C32.354-1.708,33.782.364,36.974.364ZM63.21-22.148a6.665,6.665,0,0,0-2.548-.5c-3.024,0-4.424,1.932-4.424,5.012V-15.2l-2.072.14v1.932h2.072V0h2.548V-13.132h3.22V-15.2h-3.22v-2.408c0-1.96.7-3,2.156-3a4.316,4.316,0,0,1,1.708.392ZM70.518.364c3.724,0,7.056-2.912,7.056-7.952,0-5.068-3.332-8.008-7.056-8.008s-7.056,2.94-7.056,8.008C63.462-2.548,66.794.364,70.518.364Zm0-2.128c-2.632,0-4.4-2.324-4.4-5.824s1.764-5.88,4.4-5.88,4.424,2.38,4.424,5.88S73.15-1.764,70.518-1.764ZM81.578,0h2.548V-9.772c1.008-2.6,2.576-3.5,3.836-3.5a3.6,3.6,0,0,1,1.484.252l.476-2.24A3.241,3.241,0,0,0,88.3-15.6c-1.708,0-3.248,1.232-4.312,3.164H83.9L83.678-15.2h-2.1ZM-126.784,41.364a8.145,8.145,0,0,0,5.04-2.184h.084l.224,1.82h2.1V31.648c0-3.752-1.568-6.244-5.264-6.244a11.436,11.436,0,0,0-5.992,1.988l1.008,1.764a8.377,8.377,0,0,1,4.564-1.624c2.492,0,3.136,1.876,3.136,3.836-6.468.728-9.352,2.38-9.352,5.684A4.122,4.122,0,0,0-126.784,41.364Zm.728-2.044c-1.512,0-2.688-.7-2.688-2.436,0-1.96,1.736-3.22,6.86-3.836V37.3C-123.368,38.62-124.572,39.32-126.056,39.32Zm14.252,2.044a4.026,4.026,0,0,0,1.484-.224l-.364-1.96a2.237,2.237,0,0,1-.532.056c-.392,0-.728-.308-.728-1.092V18.712h-2.548V37.976C-114.492,40.132-113.708,41.364-111.8,41.364Zm7.98,0a4.026,4.026,0,0,0,1.484-.224l-.364-1.96a2.237,2.237,0,0,1-.532.056c-.392,0-.728-.308-.728-1.092V18.712h-2.548V37.976C-106.512,40.132-105.728,41.364-103.824,41.364Zm11.816,6.188c3.024,0,4.592-2.3,5.656-5.292l5.74-16.464H-83.1l-2.716,8.456c-.42,1.344-.868,2.884-1.288,4.256h-.14c-.476-1.372-1.008-2.94-1.456-4.256L-91.812,25.8h-2.66l6.1,15.232-.336,1.148c-.616,1.876-1.708,3.276-3.444,3.276A3.633,3.633,0,0,1-93.3,45.2l-.5,2.044A4.681,4.681,0,0,0-92.008,47.552Zm20.132-6.188c3.724,0,7.056-2.912,7.056-7.952,0-5.068-3.332-8.008-7.056-8.008s-7.056,2.94-7.056,8.008C-78.932,38.452-75.6,41.364-71.876,41.364Zm0-2.128c-2.632,0-4.4-2.324-4.4-5.824s1.764-5.88,4.4-5.88,4.424,2.38,4.424,5.88S-69.244,39.236-71.876,39.236Zm15.484,2.128c2.1,0,3.612-1.092,5.04-2.744h.084l.2,2.38h2.128V25.8h-2.548v10.78c-1.456,1.82-2.548,2.576-4.116,2.576-2.016,0-2.856-1.2-2.856-4.032V25.8h-2.548v9.632C-61.012,39.292-59.584,41.364-56.392,41.364ZM-43.82,41h2.548V31.228c1.008-2.6,2.576-3.5,3.836-3.5a3.6,3.6,0,0,1,1.484.252l.476-2.24A3.241,3.241,0,0,0-37.1,25.4c-1.708,0-3.248,1.232-4.312,3.164H-41.5L-41.72,25.8h-2.1Zm21.112.364c3.584,0,5.544-2.044,5.544-4.508,0-2.884-2.436-3.78-4.648-4.62-1.708-.644-3.36-1.176-3.36-2.632,0-1.176.868-2.184,2.772-2.184a5.721,5.721,0,0,1,3.5,1.344l1.232-1.652A7.878,7.878,0,0,0-22.4,25.4c-3.3,0-5.236,1.9-5.236,4.312,0,2.576,2.408,3.612,4.536,4.4,1.68.644,3.472,1.344,3.472,2.884,0,1.316-.98,2.38-3,2.38a6.9,6.9,0,0,1-4.508-1.792l-1.26,1.68A9.171,9.171,0,0,0-22.708,41.364Zm13.552,0c2.1,0,3.612-1.092,5.04-2.744h.084l.2,2.38h2.128V25.8H-4.256v10.78C-5.712,38.4-6.8,39.152-8.372,39.152c-2.016,0-2.856-1.2-2.856-4.032V25.8h-2.548v9.632C-13.776,39.292-12.348,41.364-9.156,41.364Zm19.264,0c3.5,0,6.608-3,6.608-8.232,0-4.648-2.128-7.728-6.076-7.728A7.66,7.66,0,0,0,5.88,27.56l.084-2.744v-6.1H3.416V41H5.46l.224-1.568h.084A6.736,6.736,0,0,0,10.108,41.364Zm-.42-2.128a5.836,5.836,0,0,1-3.724-1.6V29.66c1.456-1.372,2.8-2.1,4.088-2.1,2.884,0,4,2.268,4,5.628C14.056,36.968,12.208,39.236,9.688,39.236ZM20.72,41h2.548V29.968c1.4-1.568,2.688-2.324,3.836-2.324,1.932,0,2.828,1.2,2.828,4.06V41H32.48V29.968c1.428-1.568,2.66-2.324,3.836-2.324,1.932,0,2.828,1.2,2.828,4.06V41h2.548V31.368c0-3.892-1.484-5.964-4.62-5.964-1.848,0-3.444,1.2-5.012,2.912a4.01,4.01,0,0,0-4.2-2.912,6.68,6.68,0,0,0-4.732,2.6h-.084L22.82,25.8h-2.1Zm25.928,0H49.2V25.8H46.648Zm1.288-18.34A1.666,1.666,0,0,0,49.7,21.008a1.768,1.768,0,0,0-3.528,0A1.666,1.666,0,0,0,47.936,22.66Zm10.388,18.7c3.584,0,5.544-2.044,5.544-4.508,0-2.884-2.436-3.78-4.648-4.62-1.708-.644-3.36-1.176-3.36-2.632,0-1.176.868-2.184,2.772-2.184a5.721,5.721,0,0,1,3.5,1.344l1.232-1.652A7.878,7.878,0,0,0,58.632,25.4c-3.3,0-5.236,1.9-5.236,4.312,0,2.576,2.408,3.612,4.536,4.4,1.68.644,3.472,1.344,3.472,2.884,0,1.316-.98,2.38-3,2.38A6.9,6.9,0,0,1,53.9,37.584l-1.26,1.68A9.171,9.171,0,0,0,58.324,41.364Zm13.1,0c3.584,0,5.544-2.044,5.544-4.508,0-2.884-2.436-3.78-4.648-4.62-1.708-.644-3.36-1.176-3.36-2.632,0-1.176.868-2.184,2.772-2.184a5.721,5.721,0,0,1,3.5,1.344l1.232-1.652A7.878,7.878,0,0,0,71.736,25.4c-3.3,0-5.236,1.9-5.236,4.312,0,2.576,2.408,3.612,4.536,4.4,1.68.644,3.472,1.344,3.472,2.884,0,1.316-.98,2.38-3,2.38A6.9,6.9,0,0,1,67,37.584l-1.26,1.68A9.171,9.171,0,0,0,71.428,41.364ZM80.556,41H83.1V25.8H80.556Zm1.288-18.34a1.666,1.666,0,0,0,1.764-1.652,1.768,1.768,0,0,0-3.528,0A1.666,1.666,0,0,0,81.844,22.66Zm12.32,18.7c3.724,0,7.056-2.912,7.056-7.952,0-5.068-3.332-8.008-7.056-8.008s-7.056,2.94-7.056,8.008C87.108,38.452,90.44,41.364,94.164,41.364Zm0-2.128c-2.632,0-4.4-2.324-4.4-5.824s1.764-5.88,4.4-5.88,4.424,2.38,4.424,5.88S96.8,39.236,94.164,39.236ZM105.224,41h2.548V29.968c1.54-1.54,2.6-2.324,4.172-2.324,2.016,0,2.884,1.2,2.884,4.06V41h2.548V31.368c0-3.892-1.456-5.964-4.648-5.964-2.072,0-3.64,1.148-5.1,2.576h-.084l-.224-2.184h-2.1Zm21.084.364c3.584,0,5.544-2.044,5.544-4.508,0-2.884-2.436-3.78-4.648-4.62-1.708-.644-3.36-1.176-3.36-2.632,0-1.176.868-2.184,2.772-2.184a5.721,5.721,0,0,1,3.5,1.344l1.232-1.652a7.878,7.878,0,0,0-4.732-1.708c-3.3,0-5.236,1.9-5.236,4.312,0,2.576,2.408,3.612,4.536,4.4,1.68.644,3.472,1.344,3.472,2.884,0,1.316-.98,2.38-3,2.38a6.9,6.9,0,0,1-4.508-1.792l-1.26,1.68A9.171,9.171,0,0,0,126.308,41.364Z" transform="translate(1157 744)" fill="#fff"/>
      </g>
    </g>
    <g id="グループ_732-2" data-name="グループ 732" transform="translate(-969 166)">
      <line id="線_2" data-name="線 2" x1="37.563" y2="73" transform="translate(1306.437 731)" fill="none" stroke="#fff" stroke-width="3"/>
      <line id="線_3" data-name="線 3" x2="37.563" y2="73.001" transform="translate(969.437 731)" fill="none" stroke="#fff" stroke-width="3"/>
    </g>
  </g>
</svg>
