<svg xmlns="http://www.w3.org/2000/svg" width="708.667" height="104.373" viewBox="0 0 708.667 104.373">
  <g id="グループ_751" data-name="グループ 751" transform="translate(-424.666 -923.814)">
    <path id="パス_672" data-name="パス 672" d="M-187.92-28.76l-3.84-1.04a41.06,41.06,0,0,1-7.52,16.96A34.745,34.745,0,0,1-214.4-2.24l2.8,2.92a40.142,40.142,0,0,0,15.08-11.4c3.36-4.32,5.76-10.2,7.32-14.56C-188.88-26.28-188.4-27.68-187.92-28.76Zm19.4-1.52-1.16,2.96a132.412,132.412,0,0,1,20.88,4.76l1.28-3.08A141.768,141.768,0,0,0-168.52-30.28Zm-1.8,10.56-1.2,3c5.68.84,15.44,3.04,20.08,4.88l1.28-3.08C-155.16-16.76-164.84-18.8-170.32-19.72Zm-2.2,11.64-1.24,3.04C-167.28-4-155.4-1.32-150.08,1l1.36-3.08C-154.2-4.28-165.8-7.04-172.52-8.08ZM-109-26.2a9.629,9.629,0,0,1-2.52.24h-6.6v-2.56a23.56,23.56,0,0,1,.24-3.52h-3.68a23.56,23.56,0,0,1,.24,3.52v2.56h-7.84a47.474,47.474,0,0,1-4.84-.2v3.36c1.2-.08,3.48-.16,4.88-.16h16.6a34.37,34.37,0,0,1-8.12,7.32,49.931,49.931,0,0,1-16.2,6.8l1.92,2.96a63.513,63.513,0,0,0,13.52-5.56c0,2.72-.04,6.4-.04,8.72a37.425,37.425,0,0,1-.24,4.4h3.64c-.08-1.24-.2-3-.2-4.4,0-2.68.04-7.48.04-10.76a49.191,49.191,0,0,0,9.04-8.32c.64-.72,1.52-1.64,2.24-2.4Zm-5.68,14.68a70.179,70.179,0,0,1,9.64,6.16l2.08-2.72a97.742,97.742,0,0,0-9.64-5.8Zm18.76-1.88c1.24-.12,3.36-.2,5.56-.2H-68.4c1.8,0,3.48.16,4.28.2v-3.92c-.88.08-2.32.2-4.32.2H-90.36c-2.24,0-4.36-.12-5.56-.2Zm69.8-.28a130,130,0,0,0-17.08-6.6V-26.8c0-1.2.16-2.92.28-4.16h-3.92a25.247,25.247,0,0,1,.32,4.16V-3.52a43.8,43.8,0,0,1-.24,4.72h3.84a47.219,47.219,0,0,1-.24-4.72l-.04-13.2a104.869,104.869,0,0,1,15.72,6.44Zm17.6-19.64A44.53,44.53,0,0,1-18.4-17.44a14.941,14.941,0,0,1,1.72,2.96,39.666,39.666,0,0,0,3.96-4.76V3h2.96V-23.84A61.9,61.9,0,0,0-5.68-32.4Zm26.84,9.36V-26.8H1.68c.8-1.76,1.56-3.56,2.2-5.4l-2.84-.76c-1.96,5.84-5.2,11.6-8.8,15.32a19.451,19.451,0,0,1,2.32,2A43.837,43.837,0,0,0,.24-23.96H3v27H6V-6.64H17.96v-2.8H6v-6.04H17.4v-2.76H6v-5.72ZM48-21.36H32.12v-7.56H48Zm3-10.4H29.24v13.24H51ZM34.64-11.44v9.48H26.28v-9.48ZM23.44,3.08h2.84V.92h8.36v1.8h2.92V-14.32H23.44ZM44.8-1.96v-9.48h9.08v9.48ZM41.92-14.32V3.08H44.8V.92h9.08V2.8H56.8V-14.32ZM83.68-5.4c-.04-1.92-.08-5.28-.12-7.56,3-1.4,5.84-2.56,8.08-3.44,1.04-.4,2.48-.96,3.48-1.24l-1.28-3c-1.12.56-2.08,1.04-3.28,1.56-2.08.96-4.48,1.92-7.2,3.2-.6-2.36-2.68-3.6-5.24-3.6A11.235,11.235,0,0,0,72.64-18a28.424,28.424,0,0,0,3.56-6.08A122.375,122.375,0,0,0,89.32-25.2l.04-2.96a106.3,106.3,0,0,1-12.12,1.2c.56-1.8.92-3.44,1.2-4.56l-3.28-.28a21.465,21.465,0,0,1-1,4.92c-.92.04-1.76.04-2.6.04-1.8,0-4.56-.16-6.68-.4v3c2.16.16,4.84.24,6.52.24h1.64a41.913,41.913,0,0,1-9.12,12.08l2.72,2.04c1.36-1.6,2.48-3.08,3.6-4.16a10.543,10.543,0,0,1,6.84-2.92,3.35,3.35,0,0,1,3.56,2.44c-4.6,2.4-9.32,5.36-9.32,10.04,0,4.84,4.56,6.04,10.24,6.04A102,102,0,0,0,92.4.92l.08-3.24a69.737,69.737,0,0,1-10.8.96c-4.08,0-7.16-.44-7.16-3.56,0-2.6,2.56-4.64,6.24-6.64,0,2.08-.04,4.64-.16,6.16Zm29.08-26.92a39.472,39.472,0,0,1-10.64,15.2A19.435,19.435,0,0,1,104.96-15,49.036,49.036,0,0,0,116-31.4ZM124.4-10.4c1.88,2.24,3.92,4.96,5.72,7.56-6.04.28-12.2.56-17.6.76A170.81,170.81,0,0,0,120.2-18.2l-3.44-.84A117.957,117.957,0,0,1,109.2-1.92c-2,.04-3.84.12-5.48.16l.4,3.12C111.24,1,121.88.52,131.96-.08c.76,1.2,1.44,2.36,1.96,3.32l2.92-1.64a89.428,89.428,0,0,0-9.68-13.28ZM124-31.12A85.438,85.438,0,0,0,135.72-15a13.461,13.461,0,0,1,2.48-2.52,61.821,61.821,0,0,1-11.32-14.8Zm31.36,1.64v3.24H146.6v-3.24Zm-8.76,8.8v-3.44h8.76v3.44Zm11.56,2.28V-31.76H143.68V3.08h2.92V-18.4Zm-1.12,9.28v-4.32h5.6v4.32ZM170.72-6.6V-9.12h-5.44v-4.32h4.56v-2.44H150.12v2.44h4.32v4.32h-5.08V-6.6h5a10.067,10.067,0,0,1-4.72,7.68,10.415,10.415,0,0,1,1.96,1.76,12.829,12.829,0,0,0,5.36-9.44h5.68V2.32h2.64V-6.6Zm-6.2-14.04v-3.48h9.08v3.48Zm9.08-8.84v3.24h-9.08v-3.24Zm2.92-2.28H161.68v13.4H173.6V-.84c0,.64-.2.88-.84.88-.6.04-2.76.04-4.96-.04a9.828,9.828,0,0,1,.96,2.96c3,.04,5-.04,6.2-.52,1.16-.52,1.56-1.48,1.56-3.24ZM198.68-9.68h2.64l1-15.52.08-4.72h-4.8l.12,4.72ZM200,.2a3.055,3.055,0,0,0,3.2-3.16A3.069,3.069,0,0,0,200-6.08a3.069,3.069,0,0,0-3.2,3.12A3.055,3.055,0,0,0,200,.2Zm-476.24,48a28.747,28.747,0,0,1-2.6,9.52,10.39,10.39,0,0,1,2.32,1.12,35.2,35.2,0,0,0,2.84-10.16Zm8.68.56A39.838,39.838,0,0,1-265,56.52l2.36-.8a34.65,34.65,0,0,0-2.68-7.68Zm-1-9.48c.68,1.08,1.36,2.32,1.96,3.52-2.2.12-4.4.2-6.4.28a116.682,116.682,0,0,0,8.28-11.88l-2.56-1.12c-1.12,2.16-2.64,4.76-4.28,7.28A28.153,28.153,0,0,0-274,34.6a71.975,71.975,0,0,0,4.56-8.04l-2.64-1A54.6,54.6,0,0,1-275.64,33c-.4-.36-.8-.72-1.2-1.04l-1.52,1.92a34.691,34.691,0,0,1,5.24,5.76c-.88,1.28-1.8,2.52-2.68,3.56-.92.04-1.84.08-2.64.08l.24,2.68c1.92-.08,4.12-.2,6.52-.32V62.12h2.72V45.48l3.44-.24a15.478,15.478,0,0,1,.76,2.32l2.36-1.12a32.719,32.719,0,0,0-3.96-8.12ZM-246.6,49.6v7.72h-11.52V49.6ZM-260.88,62h2.76V60h11.52v1.88h2.88V46.92h-17.16Zm19.16-28.12V31.16h-9.48V25.52h-3v5.64h-9.2v2.72h9.2v6h-7.96v2.68h19.56V39.88h-8.6v-6Zm11.2,6.8V36.56h9v4.12Zm0-10.64h9v4.08h-9Zm21.16,4.08h-9.08V30.04h9.08Zm0,6.56h-9.08V36.56h9.08Zm6.8,8.68V46.6h-15.88V43.24h12.24V27.44h-27.32v15.8h12V46.6H-237.4v2.76H-224a36.093,36.093,0,0,1-14.4,8.92,14.078,14.078,0,0,1,2,2.44A39.773,39.773,0,0,0-221.52,50.6V62.08h3.08V50.4a44.251,44.251,0,0,0,14.88,10.16,13.187,13.187,0,0,1,2.04-2.48,39.726,39.726,0,0,1-14.44-8.72Zm25.8-.96h-6.96V42.44h6.96Zm7.68-5.96V40.92a25.447,25.447,0,0,0,5.72,3.48,13.761,13.761,0,0,1,2.04-2.48,25.992,25.992,0,0,1-7.48-4.64,59.315,59.315,0,0,0,6.28-5.2l-2.24-1.56a52.113,52.113,0,0,1-5.68,5.16,27.159,27.159,0,0,1-2.6-3.08,61.911,61.911,0,0,0,5.84-5.04l-2.24-1.6a46.765,46.765,0,0,1-4.92,4.72,29.277,29.277,0,0,1-2.52-5l-2.56.76a34.471,34.471,0,0,0,8.92,13.24h-18.8A27.91,27.91,0,0,0-181,28.08l-1.96-.96-.52.12h-11.4v2.64h9.92a28.019,28.019,0,0,1-3.72,5.28,55.624,55.624,0,0,0-4.84-3.92l-1.84,1.56a42.4,42.4,0,0,1,4.8,4.2,27.665,27.665,0,0,1-8.12,5.2,16.091,16.091,0,0,1,1.84,2.24,32.775,32.775,0,0,0,5.96-3.52v1.52h4.2V48.4h-9.2v2.76H-187c-.72,3.32-3,6.48-9.68,8.72a11.608,11.608,0,0,1,1.88,2.36c7.84-2.72,10.2-6.8,10.84-11.08h7.2v6.4c0,3.28.88,4.16,4.24,4.16h5.24c2.92,0,3.76-1.4,4.04-6.48A8.2,8.2,0,0,1-165.92,54c-.16,4.28-.36,5.08-1.6,5.08h-4.56c-1.36,0-1.6-.24-1.6-1.48V51.16h9.48V48.4h-9.48V42.44Zm43,2.24a58.207,58.207,0,0,1-7.56,5.68,26.977,26.977,0,0,1-3.36-7h14.32v-2.6H-138.6v-3.6h13.04V34.68H-138.6V31.44h14.56v-2.6H-138.6V25.52h-2.96v3.32h-14.32v2.6h14.32v3.24h-12.52v2.48h12.52v3.6h-15.8v2.6h13.84a43.937,43.937,0,0,1-15.16,7.76,19.1,19.1,0,0,1,1.92,2.44,51.248,51.248,0,0,0,8.04-3.52V58c-2.08.52-4,.96-5.6,1.32l.96,2.72c4.76-1.2,11.56-2.88,17.84-4.56l-.32-2.64c-3.32.84-6.72,1.68-9.88,2.44V48.24a35.941,35.941,0,0,0,5.92-4.68c2.8,9.04,7.92,15.48,16.44,18.36a9.536,9.536,0,0,1,1.92-2.6,21.733,21.733,0,0,1-10.76-7.04,72.019,72.019,0,0,0,8.48-5.76ZM-88.2,27.76A44.133,44.133,0,0,1-98.72,36.6a63.134,63.134,0,0,1-17.88,7.36l1.84,3.12a80,80,0,0,0,15.04-6.24V55.96a37.1,37.1,0,0,1-.24,4.28h3.92a30.185,30.185,0,0,1-.24-4.28V38.84a62.744,62.744,0,0,0,10.72-8.68Zm35.84,4.12-2.28,1a41.831,41.831,0,0,1,3.72,6.4l2.32-1.08A61.355,61.355,0,0,0-52.36,31.88Zm5.12-2.04-2.24,1.04a41.542,41.542,0,0,1,3.84,6.32l2.32-1.12A59.966,59.966,0,0,0-47.24,29.84Zm-30.6,18.64,2.92,2.96c.6-.8,1.48-2.04,2.32-3.08,1.8-2.2,5.16-6.6,7.08-8.92,1.36-1.68,1.92-1.72,3.6-.32a107.766,107.766,0,0,1,7.8,8.12c2.56,2.92,6.2,7.04,9,10.64l2.6-2.84c-2.92-3.44-7-7.8-9.68-10.68a100.921,100.921,0,0,0-8.28-8.28c-2.88-2.4-4.52-2.12-6.64.4-2.52,2.96-6,7.4-7.92,9.36C-76.08,46.88-76.84,47.6-77.84,48.48Zm46.92-18.8-2.28,2.44a83.074,83.074,0,0,1,9.96,8.36l2.52-2.52A87.589,87.589,0,0,0-30.92,29.68Zm-3.44,26.8,2.12,3.28a43.118,43.118,0,0,0,15.72-6.24A39.9,39.9,0,0,0-3.08,39.32L-5,35.92A37.681,37.681,0,0,1-18.36,50.64,41.3,41.3,0,0,1-34.36,56.48ZM33.88,45.32a130,130,0,0,0-17.08-6.6V32.2c0-1.2.16-2.92.28-4.16H13.16a25.247,25.247,0,0,1,.32,4.16V55.48a43.8,43.8,0,0,1-.24,4.72h3.84a47.22,47.22,0,0,1-.24-4.72l-.04-13.2a104.869,104.869,0,0,1,15.72,6.44Zm29.8,8.28c-.04-1.92-.08-5.28-.12-7.56,3-1.4,5.84-2.56,8.08-3.44,1.04-.4,2.48-.96,3.48-1.24l-1.28-3c-1.12.56-2.08,1.04-3.28,1.56-2.08.96-4.48,1.92-7.2,3.2-.6-2.36-2.68-3.6-5.24-3.6A11.235,11.235,0,0,0,52.64,41a28.424,28.424,0,0,0,3.56-6.08A122.374,122.374,0,0,0,69.32,33.8l.04-2.96a106.3,106.3,0,0,1-12.12,1.2c.56-1.8.92-3.44,1.2-4.56l-3.28-.28a21.465,21.465,0,0,1-1,4.92c-.92.04-1.76.04-2.6.04-1.8,0-4.56-.16-6.68-.4v3c2.16.16,4.84.24,6.52.24h1.64a41.913,41.913,0,0,1-9.12,12.08l2.72,2.04c1.36-1.6,2.48-3.08,3.6-4.16a10.543,10.543,0,0,1,6.84-2.92,3.35,3.35,0,0,1,3.56,2.44c-4.6,2.4-9.32,5.36-9.32,10.04,0,4.84,4.56,6.04,10.24,6.04a102,102,0,0,0,10.84-.64l.08-3.24a69.738,69.738,0,0,1-10.8.96c-4.08,0-7.16-.44-7.16-3.56,0-2.6,2.56-4.64,6.24-6.64,0,2.08-.04,4.64-.16,6.16ZM95.36,29.52v3.24H86.6V29.52Zm-8.76,8.8V34.88h8.76v3.44ZM98.16,40.6V27.24H83.68V62.08H86.6V40.6Zm-1.12,9.28V45.56h5.6v4.32Zm13.68,2.52V49.88h-5.44V45.56h4.56V43.12H90.12v2.44h4.32v4.32H89.36V52.4h5a10.067,10.067,0,0,1-4.72,7.68,10.414,10.414,0,0,1,1.96,1.76,12.829,12.829,0,0,0,5.36-9.44h5.68v8.92h2.64V52.4Zm-6.2-14.04V34.88h9.08v3.48Zm9.08-8.84v3.24h-9.08V29.52Zm2.92-2.28H101.68v13.4H113.6V58.16c0,.64-.2.88-.84.88-.6.04-2.76.04-4.96-.04a9.827,9.827,0,0,1,.96,2.96c3,.04,5-.04,6.2-.52,1.16-.52,1.56-1.48,1.56-3.24Zm40.28,0H154v5.44h-7.08v-6.8h-2.88v6.8H137.4V27.24h-2.72v8H156.8Zm-26.12-1.56a45.094,45.094,0,0,1-9.88,15.88,16.328,16.328,0,0,1,1.68,2.88,39.015,39.015,0,0,0,4.04-4.92V61.96h2.8V35.16a58.9,58.9,0,0,0,4.12-8.64Zm7.76,28.48h6.96v3.6h-6.96Zm6.96-8.08h-6.96V42.64h6.96Zm0,5.8h-6.96V48.36h6.96Zm12.64,5.88h-9.8v-3.6h8.12V51.88h-8.12V48.36h8.12V46.08h-8.12V42.64h9.4v-2.4h-9.32c.6-1.2,1.28-2.6,1.92-3.88l-3.12-.76a29.58,29.58,0,0,1-1.64,4.64h-7a42.89,42.89,0,0,0,2.08-4.04l-2.88-.8a28.177,28.177,0,0,1-7.64,10.52,18.643,18.643,0,0,1,2.24,2.04,31.2,31.2,0,0,0,3.28-3.52V61.92h2.88V60.16h19.6Zm11.6-29.84a20.358,20.358,0,0,1,.36,4c0,4.2-.4,14.2-.4,20.08,0,6.44,3.92,8.84,9.6,8.84a19.735,19.735,0,0,0,16.52-8.72l-2.2-2.76c-2.84,4.12-6.96,8.2-14.24,8.2-3.68,0-6.48-1.52-6.48-5.88,0-5.92.32-15.28.48-19.76.08-1.28.2-2.68.4-3.96Zm50.4,26.44c0,2.72-1.92,3.4-4.2,3.4-3.92,0-5.48-1.36-5.48-3.2,0-1.8,2.04-3.24,5.8-3.24a20.165,20.165,0,0,1,3.84.36C220,52.76,220.04,53.68,220.04,54.36Zm14.44,1.36a32.517,32.517,0,0,0-11.52-6.16c-.08-1.88-.2-3.96-.28-6,3.76-.16,7.28-.44,11-.92l-.04-3a106.861,106.861,0,0,1-11,1.04V35c3.72-.2,7.12-.52,10.24-.84l-.04-2.92a88.077,88.077,0,0,1-10.16.96c0-.96,0-1.72.04-2.2a20.386,20.386,0,0,1,.2-2.64h-3.4a22.172,22.172,0,0,1,.12,2.36v2.6H217.6a63.15,63.15,0,0,1-9.28-.76v2.96c2.36.28,6.56.6,9.32.6h1.96V40.8h-2.12a70.471,70.471,0,0,1-9.96-.76v3.04c2.84.32,7.24.56,9.96.56h2.2c.04,1.64.12,3.52.2,5.28a22.362,22.362,0,0,0-3.32-.24c-5.72,0-9.2,2.44-9.2,6.04,0,3.84,3.16,5.88,8.84,5.88,5.16,0,7-2.84,7-5.56,0-.6-.04-1.48-.08-2.48a29.419,29.419,0,0,1,9.56,5.96Zm24.72-6.08a3.809,3.809,0,0,1-4.04-3.92,4.022,4.022,0,0,1,4-4.16A3.515,3.515,0,0,1,262.68,44C263.04,47.76,261.52,49.64,259.2,49.64Zm6.12-14.32c5.8,0,9.4.08,11.64.2l.04-3c-1.92,0-6.8-.04-11.6-.04h-.6c0-1.04.04-1.96.04-2.56l.2-2.48H261.4c.08.48.2,1.64.24,2.48.04.56.08,1.48.08,2.6-5.88.08-13.32.32-17.72.4l.08,3.12c4.96-.36,11.68-.64,17.68-.68.04,1.36.04,2.76.04,3.92a7.942,7.942,0,0,0-2.64-.44,6.965,6.965,0,0,0-7,6.92,6.381,6.381,0,0,0,6.56,6.64,5.689,5.689,0,0,0,3.4-1c-1.64,3.52-5.32,5.68-10.52,6.88l2.76,2.68c9.2-2.76,11.8-8.72,11.8-14.08a9.672,9.672,0,0,0-1.28-5.08c-.04-1.8-.08-4.24-.08-6.48Z" transform="translate(779 960)" fill="#fff"/>
    <line id="線_1" data-name="線 1" x2="53" y2="103" transform="translate(426 924.5)" fill="none" stroke="#fff" stroke-width="3"/>
    <line id="線_2" data-name="線 2" x1="53" y2="103" transform="translate(1079 924.5)" fill="none" stroke="#fff" stroke-width="3"/>
  </g>
</svg>
