<?xml version="1.0" encoding="utf-8"?>
<!-- Generator: Adobe Illustrator 26.3.1, SVG Export Plug-In . SVG Version: 6.00 Build 0)  -->
<svg version="1.1" id="レイヤー_1" xmlns="http://www.w3.org/2000/svg" xmlns:xlink="http://www.w3.org/1999/xlink" x="0px"
	 y="0px" viewBox="0 0 377.2 83" style="enable-background:new 0 0 377.2 83;" xml:space="preserve">
<style type="text/css">
	.st0{fill:none;stroke:#FFFFFF;stroke-width:3;}
	.st1{fill:#FFFFFF;}
</style>
<g id="グループ_732" transform="translate(-968.103 -721.712)">
	<line id="線_2" class="st0" x1="1344" y1="731" x2="1306.4" y2="804"/>
	<line id="線_3" class="st0" x1="969.4" y1="731" x2="1007" y2="804"/>
	<g>
		<path class="st1" d="M1005.3,743c0,0.7-0.1,1.4-0.4,2.1c-0.2,0.6-0.6,1.2-1.1,1.7c-0.6,0.6-1.3,1-2.1,1.4c-0.8,0.3-1.8,0.5-3,0.5
			h-2.3v6.2h-2.3V738h4.6c1,0,1.8,0.1,2.5,0.2c0.7,0.2,1.4,0.5,1.8,0.8c0.6,0.4,1.2,1,1.5,1.6C1005.2,741.2,1005.3,742,1005.3,743z
			 M1003,743c0-0.6-0.1-1.1-0.3-1.5c-0.2-0.4-0.5-0.7-0.9-1c-0.4-0.2-0.7-0.4-1.2-0.5s-1-0.2-1.7-0.2h-2.2v6.7h1.9
			c0.9,0,1.6-0.1,2.2-0.2c0.6-0.2,1-0.4,1.4-0.7c0.4-0.4,0.6-0.7,0.7-1.2C1003,744,1003,743.6,1003,743z"/>
		<path class="st1" d="M1016,744.4h-0.1c-0.3-0.1-0.6-0.1-0.9-0.2s-0.6-0.1-1-0.1c-0.6,0-1.3,0.2-1.9,0.5s-1.2,0.6-1.7,1.1v8.9h-2.2
			v-12.6h2.2v1.8c0.9-0.7,1.5-1.2,2.3-1.4c0.7-0.2,1.3-0.4,2-0.4c0.4,0,0.6,0,0.8,0s0.4,0.1,0.7,0.1L1016,744.4L1016,744.4z"/>
		<path class="st1" d="M1028.5,748.6h-9.2c0,0.7,0.1,1.4,0.4,2c0.2,0.6,0.6,1,1,1.4c0.4,0.4,0.9,0.6,1.4,0.8
			c0.5,0.2,1.2,0.3,1.8,0.3c0.9,0,1.7-0.2,2.6-0.5c0.9-0.4,1.5-0.7,1.8-1h0.1v2.3c-0.7,0.3-1.4,0.6-2.2,0.7
			c-0.7,0.2-1.5,0.3-2.3,0.3c-2.1,0-3.7-0.6-4.9-1.7c-1.2-1.2-1.7-2.7-1.7-4.8c0-2.1,0.6-3.7,1.7-4.9c1.1-1.2,2.6-1.8,4.4-1.8
			c1.7,0,3,0.5,3.9,1.5c0.9,1,1.4,2.4,1.4,4.2L1028.5,748.6L1028.5,748.6z M1026.5,747c0-1.1-0.3-2-0.9-2.6
			c-0.6-0.6-1.4-0.9-2.5-0.9c-1.2,0-2,0.4-2.7,1c-0.7,0.7-1,1.5-1.2,2.5L1026.5,747L1026.5,747z"/>
		<path class="st1" d="M1033.9,754.7h-2.2v-17.6h2.2V754.7z"/>
		<path class="st1" d="M1040.4,740h-2.3v-2.2h2.3V740z M1040.2,754.7h-2.2v-12.6h2.2V754.7z"/>
		<path class="st1" d="M1062.8,754.7h-2.2v-7.1c0-0.5,0-1-0.1-1.5c-0.1-0.5-0.2-0.9-0.3-1.2c-0.2-0.4-0.4-0.6-0.7-0.7
			c-0.4-0.2-0.8-0.2-1.4-0.2s-1.2,0.2-1.8,0.5c-0.6,0.3-1.2,0.7-1.8,1.2c0,0.2,0.1,0.4,0.1,0.6c0,0.2,0,0.5,0,0.7v8.1h-2.2v-7.1
			c0-0.6,0-1.1-0.1-1.5c-0.1-0.5-0.2-0.9-0.3-1.2c-0.2-0.4-0.4-0.6-0.7-0.7c-0.4-0.2-0.8-0.2-1.4-0.2c-0.6,0-1.2,0.1-1.7,0.4
			s-1.2,0.6-1.7,1.1v9.4h-2.2v-12.6h2.2v1.4c0.6-0.6,1.4-1,2-1.3s1.4-0.5,2.1-0.5c0.9,0,1.5,0.2,2.2,0.5c0.6,0.4,1,0.9,1.4,1.5
			c0.9-0.7,1.6-1.3,2.3-1.5c0.7-0.4,1.4-0.5,2.3-0.5c1.4,0,2.4,0.4,3.1,1.3c0.7,0.9,1,2,1,3.5V754.7z"/>
		<path class="st1" d="M1069.2,740h-2.4v-2.2h2.3L1069.2,740L1069.2,740z M1069.1,754.7h-2.2v-12.6h2.2V754.7z"/>
		<path class="st1" d="M1083.8,754.7h-2.2v-7.1c0-0.6-0.1-1.1-0.1-1.6s-0.2-0.9-0.4-1.2s-0.5-0.6-0.8-0.7c-0.4-0.2-0.8-0.2-1.4-0.2
			s-1.2,0.1-1.8,0.4c-0.6,0.3-1.2,0.6-1.8,1.1v9.4h-2.2v-12.6h2.2v1.4c0.6-0.6,1.4-1,2.1-1.3c0.7-0.3,1.4-0.5,2.2-0.5
			c1.4,0,2.4,0.4,3.1,1.2c0.7,0.8,1.1,2,1.1,3.5v8.2L1083.8,754.7L1083.8,754.7z"/>
		<path class="st1" d="M1097.7,754.7h-2.2v-1.4c-0.2,0.1-0.5,0.3-0.7,0.5c-0.4,0.2-0.6,0.4-0.9,0.5c-0.4,0.2-0.7,0.3-1.2,0.5
			c-0.5,0.1-1,0.2-1.6,0.2c-1.2,0-2.1-0.4-2.9-1.2s-1.2-1.7-1.2-2.9c0-1,0.2-1.7,0.6-2.3s1-1,1.7-1.4c0.7-0.4,1.7-0.6,2.8-0.7
			c1.1-0.1,2.3-0.2,3.5-0.3v-0.4c0-0.5-0.1-0.9-0.2-1.2c-0.2-0.4-0.4-0.6-0.7-0.7c-0.3-0.2-0.6-0.3-1.1-0.4
			c-0.4-0.1-0.9-0.1-1.4-0.1c-0.6,0-1.2,0.1-1.8,0.2c-0.7,0.2-1.4,0.4-2.2,0.6h-0.1v-2.2c0.4-0.1,1-0.2,1.8-0.4
			c0.8-0.1,1.5-0.2,2.3-0.2c0.9,0,1.7,0.1,2.3,0.2c0.6,0.2,1.2,0.4,1.7,0.7c0.5,0.4,0.8,0.8,1.1,1.4c0.2,0.6,0.4,1.2,0.4,2
			L1097.7,754.7L1097.7,754.7z M1095.6,751.6v-3.5c-0.6,0.1-1.4,0.1-2.3,0.2c-0.9,0.1-1.5,0.2-2.1,0.4c-0.6,0.2-1.1,0.5-1.5,0.8
			c-0.4,0.4-0.6,0.9-0.6,1.5c0,0.7,0.2,1.3,0.6,1.6c0.5,0.4,1.1,0.5,2,0.5c0.7,0,1.4-0.2,2-0.5C1094.5,752.3,1095,752,1095.6,751.6z
			"/>
		<path class="st1" d="M1109.6,744.4h-0.1c-0.3-0.1-0.6-0.1-0.9-0.2c-0.3-0.1-0.6-0.1-1-0.1c-0.6,0-1.3,0.2-1.9,0.5
			s-1.2,0.6-1.7,1.1v8.9h-2.2v-12.6h2.2v1.8c0.9-0.7,1.5-1.2,2.3-1.4c0.7-0.3,1.3-0.4,2-0.4c0.4,0,0.6,0,0.8,0s0.4,0.1,0.7,0.1
			L1109.6,744.4L1109.6,744.4z"/>
		<path class="st1" d="M1122.5,742.1l-7.3,17.3h-2.3l2.3-5.2l-5.1-12h2.3l3.9,9.4l3.9-9.4H1122.5z"/>
		<path class="st1" d="M1147.4,754.7h-2.9l-5.6-6.7h-3.1v6.7h-2.3v-16.8h4.7c1,0,1.8,0.1,2.5,0.2c0.7,0.1,1.3,0.4,1.8,0.7
			c0.6,0.4,1.1,0.9,1.4,1.4c0.3,0.6,0.5,1.4,0.5,2.2c0,1.2-0.3,2.3-0.9,3.1s-1.4,1.4-2.5,1.8L1147.4,754.7z M1142.3,742.7
			c0-0.5-0.1-0.9-0.2-1.3c-0.2-0.4-0.5-0.7-0.9-0.9c-0.4-0.2-0.7-0.4-1.2-0.5c-0.5-0.1-1-0.1-1.5-0.1h-2.6v6.3h2.3
			c0.7,0,1.4-0.1,1.8-0.2c0.5-0.1,1-0.4,1.4-0.7s0.6-0.7,0.7-1.1S1142.3,743.3,1142.3,742.7z"/>
		<path class="st1" d="M1159.5,748.6h-9.3c0,0.7,0.1,1.4,0.4,2s0.6,1,1,1.4s0.9,0.6,1.4,0.8c0.5,0.2,1.2,0.3,1.8,0.3
			c0.9,0,1.7-0.2,2.6-0.5c0.9-0.4,1.5-0.7,1.8-1h0.1v2.3c-0.7,0.3-1.4,0.6-2.2,0.7c-0.7,0.2-1.5,0.3-2.3,0.3c-2.1,0-3.7-0.6-4.9-1.7
			c-1.2-1.2-1.7-2.7-1.7-4.8c0-2.1,0.6-3.7,1.7-4.9c1.1-1.2,2.6-1.8,4.4-1.8c1.7,0,3,0.5,3.9,1.5c0.9,1,1.4,2.4,1.4,4.2
			L1159.5,748.6L1159.5,748.6z M1157.4,747c0-1.1-0.3-2-0.9-2.6c-0.6-0.6-1.4-0.9-2.5-0.9s-2,0.4-2.7,1c-0.7,0.7-1,1.5-1.2,2.5
			L1157.4,747L1157.4,747z"/>
		<path class="st1" d="M1171.7,751.1c0,1.2-0.5,2.1-1.4,2.8c-0.9,0.7-2.3,1.1-3.9,1.1c-0.9,0-1.8-0.1-2.5-0.4
			c-0.7-0.2-1.4-0.5-2-0.7v-2.3h0.1c0.7,0.5,1.4,0.9,2.3,1.2c0.8,0.3,1.6,0.5,2.3,0.5c0.9,0,1.7-0.2,2.2-0.5
			c0.5-0.3,0.8-0.7,0.8-1.4c0-0.5-0.1-0.9-0.4-1.2c-0.3-0.2-0.8-0.5-1.7-0.6c-0.3-0.1-0.7-0.2-1.2-0.2c-0.5-0.1-0.9-0.2-1.4-0.3
			c-1.1-0.3-1.9-0.7-2.3-1.3c-0.5-0.6-0.7-1.3-0.7-2.1c0-0.5,0.1-1,0.4-1.4c0.2-0.5,0.5-0.9,1-1.2c0.4-0.4,1-0.6,1.6-0.9
			s1.4-0.3,2.2-0.3c0.7,0,1.5,0.1,2.3,0.3c0.7,0.2,1.4,0.4,1.9,0.7v2.3h-0.1c-0.5-0.4-1.2-0.7-2-1c-0.7-0.3-1.5-0.4-2.3-0.4
			c-0.7,0-1.4,0.2-2,0.5c-0.6,0.3-0.8,0.7-0.8,1.4c0,0.5,0.2,0.9,0.5,1.2c0.3,0.3,0.8,0.5,1.5,0.6c0.4,0.1,0.8,0.2,1.4,0.3
			c0.6,0.1,0.9,0.2,1.2,0.2c1,0.2,1.7,0.6,2.3,1.2C1171.4,749.4,1171.7,750.2,1171.7,751.1z"/>
		<path class="st1" d="M1185.2,754.7h-2.2v-1.4c-0.7,0.6-1.4,1-2.1,1.3s-1.4,0.5-2.2,0.5c-1.4,0-2.3-0.4-3.1-1.2
			c-0.7-0.8-1.1-2-1.1-3.6v-8.2h2.2v7.1c0,0.6,0.1,1.2,0.1,1.6c0.1,0.5,0.2,0.9,0.4,1.2c0.2,0.4,0.5,0.6,0.8,0.7
			c0.4,0.2,0.8,0.2,1.4,0.2s1.2-0.1,1.8-0.4s1.3-0.6,1.8-1.1V742h2.2V754.7L1185.2,754.7z"/>
		<path class="st1" d="M1191.5,754.7h-2.2v-17.6h2.2V754.7z"/>
		<path class="st1" d="M1202.2,754.6c-0.4,0.1-0.8,0.2-1.4,0.2c-0.5,0.1-0.9,0.1-1.3,0.1c-1.3,0-2.3-0.4-3-1c-0.7-0.7-1-1.8-1-3.3
			v-6.7h-1.4v-1.8h1.4v-3.6h2.2v3.6h4.4v1.8h-4.4v5.7c0,0.6,0,1.2,0.1,1.5c0.1,0.4,0.1,0.7,0.3,1c0.2,0.3,0.4,0.5,0.7,0.6
			c0.3,0.1,0.7,0.2,1.4,0.2c0.4,0,0.7-0.1,1.1-0.2s0.6-0.2,0.8-0.2h0.1V754.6L1202.2,754.6z"/>
		<path class="st1" d="M1213.7,751.1c0,1.2-0.5,2.1-1.4,2.8c-0.9,0.7-2.3,1.1-3.9,1.1c-0.9,0-1.8-0.1-2.5-0.4
			c-0.7-0.2-1.4-0.5-2-0.7v-2.3h0.1c0.7,0.5,1.4,0.9,2.3,1.2c0.8,0.3,1.6,0.5,2.3,0.5c0.9,0,1.7-0.2,2.2-0.5
			c0.5-0.3,0.8-0.7,0.8-1.4c0-0.5-0.1-0.9-0.4-1.2c-0.3-0.2-0.8-0.5-1.7-0.6c-0.3-0.1-0.7-0.2-1.2-0.2c-0.5-0.1-0.9-0.2-1.4-0.3
			c-1.1-0.3-1.9-0.7-2.3-1.3c-0.5-0.6-0.7-1.3-0.7-2.1c0-0.5,0.1-1,0.4-1.4c0.2-0.5,0.5-0.9,1-1.2c0.4-0.4,1-0.6,1.6-0.9
			s1.4-0.3,2.2-0.3c0.7,0,1.5,0.1,2.3,0.3c0.7,0.2,1.4,0.4,1.9,0.7v2.3h-0.1c-0.5-0.4-1.2-0.7-2-1c-0.7-0.3-1.5-0.4-2.3-0.4
			c-0.7,0-1.4,0.2-2,0.5c-0.5,0.3-0.8,0.7-0.8,1.4c0,0.5,0.2,0.9,0.5,1.2c0.3,0.3,0.8,0.5,1.5,0.6c0.4,0.1,0.8,0.2,1.4,0.3
			c0.5,0.1,0.9,0.2,1.2,0.2c1,0.2,1.7,0.6,2.3,1.2C1213.6,749.4,1213.7,750.2,1213.7,751.1z"/>
		<path class="st1" d="M1238.4,754.7h-2.3l-1.7-4.7h-7.3l-1.7,4.7h-2.3l6.1-16.8h3L1238.4,754.7z M1233.6,748.1l-3-8.3l-3,8.3
			H1233.6z"/>
		<path class="st1" d="M1248.6,744.4h-0.1c-0.3-0.1-0.6-0.1-0.9-0.2c-0.3-0.1-0.6-0.1-1-0.1c-0.6,0-1.3,0.2-1.9,0.5
			s-1.2,0.6-1.7,1.1v8.9h-2.2v-12.6h2.2v1.8c0.9-0.7,1.5-1.2,2.3-1.4c0.7-0.3,1.3-0.4,2-0.4c0.4,0,0.6,0,0.8,0s0.4,0.1,0.7,0.1
			L1248.6,744.4L1248.6,744.4z"/>
		<path class="st1" d="M1261.1,748.6h-9.3c0,0.7,0.1,1.4,0.4,2s0.6,1,1,1.4s0.9,0.6,1.4,0.8c0.5,0.2,1.2,0.3,1.8,0.3
			c0.9,0,1.7-0.2,2.6-0.5c0.9-0.4,1.5-0.7,1.8-1h0.1v2.3c-0.7,0.3-1.4,0.6-2.2,0.7c-0.7,0.2-1.5,0.3-2.3,0.3c-2.1,0-3.7-0.6-4.9-1.7
			c-1.2-1.2-1.7-2.7-1.7-4.8c0-2.1,0.6-3.7,1.7-4.9c1.1-1.2,2.6-1.8,4.4-1.8c1.7,0,3,0.5,3.9,1.5c0.9,1,1.4,2.4,1.4,4.2
			L1261.1,748.6L1261.1,748.6z M1259.1,747c0-1.1-0.3-2-0.9-2.6s-1.4-0.9-2.5-0.9c-1.1,0-2,0.4-2.7,1c-0.7,0.7-1,1.5-1.2,2.5
			L1259.1,747L1259.1,747z"/>
		<path class="st1" d="M1285.1,739.9c0.7,0.7,1.2,1.7,1.5,2.8c0.3,1.1,0.5,2.3,0.5,3.7c0,1.4-0.2,2.6-0.6,3.7
			c-0.4,1.1-0.9,2-1.5,2.7c-0.7,0.7-1.5,1.4-2.4,1.7c-0.9,0.4-2,0.6-3.3,0.6c-1.2,0-2.3-0.2-3.3-0.6s-1.8-1-2.5-1.7
			c-0.7-0.7-1.2-1.7-1.5-2.7c-0.4-1-0.5-2.3-0.5-3.7c0-1.4,0.2-2.6,0.5-3.7c0.4-1.1,0.9-2,1.5-2.8c0.6-0.7,1.5-1.4,2.5-1.7
			c1-0.4,2.1-0.6,3.3-0.6c1.2,0,2.3,0.2,3.3,0.6C1283.6,738.7,1284.5,739.1,1285.1,739.9z M1285,746.4c0-2.2-0.5-3.9-1.4-5.1
			c-1-1.2-2.3-1.8-4-1.8c-1.7,0-3.1,0.6-4.1,1.8s-1.4,2.9-1.4,5.1c0,2.2,0.5,3.9,1.5,5.1c1,1.2,2.3,1.7,4,1.7s3-0.6,4-1.7
			C1284.5,750.2,1285,748.5,1285,746.4z"/>
		<path class="st1" d="M1301.1,754.7h-2.2v-1.4c-0.7,0.6-1.4,1-2.1,1.3s-1.4,0.5-2.2,0.5c-1.4,0-2.3-0.4-3.1-1.2s-1.1-2-1.1-3.6
			v-8.2h2.2v7.1c0,0.6,0.1,1.2,0.1,1.6c0.1,0.5,0.2,0.9,0.4,1.2c0.2,0.4,0.5,0.6,0.8,0.7c0.4,0.2,0.8,0.2,1.4,0.2s1.2-0.1,1.8-0.4
			s1.3-0.6,1.8-1.1V742h2.2V754.7L1301.1,754.7z"/>
		<path class="st1" d="M1311.9,754.6c-0.4,0.1-0.8,0.2-1.4,0.2c-0.6,0.1-0.9,0.1-1.3,0.1c-1.3,0-2.3-0.4-3-1c-0.7-0.7-1-1.8-1-3.3
			v-6.7h-1.4v-1.8h1.4v-3.6h2.2v3.6h4.4v1.8h-4.4v5.7c0,0.6,0,1.2,0.1,1.5c0.1,0.4,0.1,0.7,0.3,1c0.2,0.3,0.4,0.5,0.7,0.6
			c0.3,0.1,0.7,0.2,1.4,0.2c0.4,0,0.7-0.1,1.1-0.2c0.4-0.1,0.6-0.2,0.8-0.2h0.1V754.6L1311.9,754.6z"/>
		<path class="st1" d="M1318.1,737.9l-0.3,12.2h-1.9l-0.3-12.2H1318.1z M1318,754.7h-2.3v-2.3h2.3V754.7z"/>
		<path class="st1" d="M1073,783.6h-2.3l-1.7-4.7h-7.3l-1.7,4.7h-2.3l6.1-16.8h3L1073,783.6z M1068.3,777l-3-8.3l-3,8.3H1068.3z"/>
		<path class="st1" d="M1090.9,771l-3.3,12.6h-2l-3.3-9.7l-3.3,9.7h-2l-3.3-12.6h2.2l2.3,9.7l3.1-9.7h1.7l3.3,9.7l2.2-9.7H1090.9z"
			/>
		<path class="st1" d="M1103.5,783.6h-2.2v-1.4c-0.2,0.1-0.5,0.3-0.7,0.5c-0.4,0.2-0.6,0.4-0.9,0.5c-0.4,0.2-0.7,0.3-1.2,0.5
			c-0.5,0.1-1,0.2-1.6,0.2c-1.2,0-2.1-0.4-2.9-1.2c-0.8-0.7-1.2-1.7-1.2-2.9c0-1,0.2-1.7,0.6-2.3c0.4-0.6,1-1,1.7-1.4
			c0.7-0.4,1.7-0.6,2.8-0.7c1.1-0.1,2.3-0.2,3.5-0.3v-0.4c0-0.5-0.1-0.9-0.2-1.2s-0.4-0.6-0.7-0.7c-0.3-0.2-0.6-0.3-1.1-0.4
			c-0.4-0.1-0.9-0.1-1.4-0.1c-0.6,0-1.2,0.1-1.8,0.2c-0.7,0.2-1.4,0.4-2.2,0.6h0.1v-2.2c0.4-0.1,1-0.2,1.8-0.4
			c0.8-0.1,1.5-0.2,2.3-0.2c0.9,0,1.7,0.1,2.3,0.2c0.7,0.2,1.2,0.4,1.7,0.7c0.5,0.4,0.8,0.8,1.1,1.4c0.3,0.5,0.4,1.2,0.4,2
			L1103.5,783.6L1103.5,783.6z M1101.4,780.5V777c-0.6,0.1-1.4,0.1-2.3,0.2c-0.9,0.1-1.5,0.2-2.1,0.4c-0.6,0.2-1.1,0.5-1.5,0.8
			c-0.4,0.3-0.6,0.9-0.6,1.5c0,0.7,0.2,1.3,0.6,1.6c0.5,0.4,1.1,0.5,2,0.5c0.7,0,1.4-0.2,2-0.5
			C1100.3,781.2,1100.9,780.9,1101.4,780.5z"/>
		<path class="st1" d="M1115.5,773.3h-0.1c-0.3-0.1-0.6-0.1-0.9-0.2c-0.3-0.1-0.6-0.1-1-0.1c-0.6,0-1.3,0.2-1.9,0.5
			s-1.2,0.6-1.7,1.1v8.9h-2.2v-12.6h2.2v1.8c0.9-0.7,1.5-1.2,2.3-1.4c0.7-0.2,1.3-0.4,2-0.4c0.4,0,0.6,0,0.8,0s0.4,0.1,0.7,0.1
			L1115.5,773.3L1115.5,773.3z"/>
		<path class="st1" d="M1127.7,783.6h-2.2v-1.4c-0.6,0.5-1.3,0.9-1.9,1.2s-1.4,0.5-2.2,0.5c-1.5,0-2.7-0.6-3.6-1.7s-1.4-2.8-1.4-4.8
			c0-1,0.2-2,0.5-2.8c0.3-0.8,0.7-1.5,1.2-2.2c0.5-0.6,1.1-1,1.8-1.4c0.7-0.3,1.4-0.5,2.2-0.5c0.6,0,1.3,0.1,1.7,0.2
			c0.5,0.1,1,0.4,1.6,0.6v-5.5h2.2V783.6L1127.7,783.6z M1125.6,780.5v-7.2c-0.6-0.2-1.1-0.4-1.5-0.5c-0.5-0.1-0.9-0.2-1.5-0.2
			c-1.2,0-2.2,0.4-2.8,1.2c-0.6,0.8-1,2-1,3.5s0.2,2.6,0.7,3.4c0.5,0.7,1.4,1.2,2.5,1.2c0.6,0,1.2-0.1,1.8-0.4
			C1124.5,781.3,1125,780.9,1125.6,780.5z"/>
		<path class="st1" d="M1153.1,782.4c-0.4,0.2-0.8,0.4-1.1,0.5c-0.4,0.2-0.7,0.4-1.4,0.5c-0.5,0.1-1,0.3-1.5,0.4
			c-0.5,0.1-1.2,0.2-1.8,0.2c-1.2,0-2.3-0.2-3.3-0.5c-1-0.4-1.8-0.9-2.6-1.6c-0.7-0.7-1.3-1.6-1.7-2.7c-0.4-1.1-0.6-2.3-0.6-3.9
			c0-1.4,0.2-2.6,0.6-3.7c0.4-1.1,1-2,1.7-2.8s1.5-1.3,2.6-1.7c1-0.4,2.2-0.6,3.3-0.6c0.9,0,1.8,0.1,2.7,0.4c0.9,0.2,1.9,0.6,3,1.2
			v2.6h-0.2c-0.9-0.7-1.8-1.4-2.8-1.7c-0.9-0.4-1.9-0.5-3-0.5c-0.9,0-1.6,0.1-2.3,0.4c-0.7,0.3-1.3,0.7-1.8,1.3
			c-0.5,0.6-0.9,1.3-1.2,2.2c-0.3,0.9-0.5,1.8-0.5,3s0.2,2.2,0.5,3.1c0.4,0.9,0.7,1.5,1.2,2.1c0.5,0.6,1.2,1,1.8,1.2
			c0.7,0.3,1.4,0.4,2.3,0.4c1.1,0,2.1-0.2,3-0.6c0.9-0.4,1.8-0.9,2.6-1.7h0.2v2.6h0.2V782.4z"/>
		<path class="st1" d="M1166.7,777.5h-9.3c0,0.7,0.1,1.4,0.4,2c0.2,0.6,0.6,1,1,1.4c0.4,0.4,0.9,0.6,1.4,0.8
			c0.5,0.2,1.2,0.3,1.8,0.3c0.9,0,1.7-0.2,2.6-0.5c0.9-0.4,1.5-0.7,1.8-1h0.1v2.3c-0.7,0.3-1.4,0.6-2.2,0.7
			c-0.7,0.2-1.5,0.3-2.3,0.3c-2.1,0-3.7-0.6-4.9-1.7c-1.2-1.2-1.7-2.7-1.7-4.8c0-2.1,0.6-3.7,1.7-4.9c1.1-1.2,2.6-1.8,4.4-1.8
			c1.7,0,3,0.5,3.9,1.5c0.9,1,1.4,2.4,1.4,4.2L1166.7,777.5L1166.7,777.5z M1164.6,775.9c0-1.1-0.3-2-0.9-2.6
			c-0.6-0.6-1.4-0.9-2.5-0.9c-1.1,0-2,0.4-2.7,1c-0.7,0.6-1,1.5-1.2,2.5L1164.6,775.9L1164.6,775.9z"/>
		<path class="st1" d="M1177.8,773.3h-0.1c-0.3-0.1-0.6-0.1-0.9-0.2c-0.3-0.1-0.6-0.1-1-0.1c-0.6,0-1.3,0.2-1.9,0.5
			s-1.2,0.6-1.7,1.1v8.9h-2.2v-12.6h2.2v1.8c0.9-0.7,1.5-1.2,2.3-1.4c0.7-0.2,1.3-0.4,2-0.4c0.4,0,0.6,0,0.8,0s0.4,0.1,0.7,0.1
			L1177.8,773.3L1177.8,773.3z"/>
		<path class="st1" d="M1190.3,777.5h-9.3c0,0.7,0.1,1.4,0.4,2c0.2,0.6,0.6,1,1,1.4s0.9,0.6,1.4,0.8c0.5,0.2,1.2,0.3,1.8,0.3
			c0.9,0,1.7-0.2,2.6-0.5c0.9-0.4,1.5-0.7,1.8-1h0.1v2.3c-0.7,0.3-1.4,0.6-2.2,0.7c-0.7,0.2-1.5,0.3-2.3,0.3c-2.1,0-3.7-0.6-4.9-1.7
			s-1.7-2.7-1.7-4.8c0-2.1,0.6-3.7,1.7-4.9c1.1-1.2,2.6-1.8,4.4-1.8c1.7,0,3,0.5,3.9,1.5c0.9,1,1.4,2.4,1.4,4.2L1190.3,777.5
			L1190.3,777.5z M1188.2,775.9c0-1.1-0.3-2-0.9-2.6c-0.6-0.6-1.4-0.9-2.5-0.9c-1.1,0-2,0.4-2.7,1s-1,1.5-1.2,2.5L1188.2,775.9
			L1188.2,775.9z"/>
		<path class="st1" d="M1211.9,783.6h-2.2v-7.1c0-0.5,0-1-0.1-1.5c-0.1-0.5-0.2-0.9-0.3-1.2c-0.2-0.4-0.4-0.6-0.7-0.7
			c-0.4-0.2-0.8-0.2-1.4-0.2c-0.6,0-1.2,0.2-1.8,0.5s-1.2,0.7-1.8,1.2c0,0.2,0.1,0.4,0.1,0.6c0,0.2,0,0.5,0,0.7v8.1h-2.2v-7.1
			c0-0.6,0-1.1-0.1-1.5c-0.1-0.5-0.2-0.9-0.3-1.2c-0.2-0.4-0.4-0.6-0.7-0.7c-0.4-0.2-0.8-0.2-1.4-0.2c-0.6,0-1.2,0.1-1.7,0.4
			s-1.2,0.6-1.7,1.1v9.4h-2.2v-12.6h2.2v1.4c0.6-0.6,1.4-1,2-1.3s1.4-0.5,2.1-0.5c0.9,0,1.5,0.2,2.2,0.5c0.7,0.3,1,0.9,1.4,1.5
			c0.9-0.7,1.6-1.3,2.3-1.5c0.7-0.2,1.4-0.5,2.3-0.5c1.4,0,2.4,0.4,3.1,1.3c0.6,0.9,1,2,1,3.5V783.6z"/>
		<path class="st1" d="M1226.7,777.3c0,2.1-0.5,3.7-1.5,4.9s-2.5,1.8-4.2,1.8c-1.8,0-3.2-0.6-4.3-1.8c-1.1-1.2-1.5-2.8-1.5-4.9
			c0-2,0.5-3.7,1.5-4.9s2.5-1.8,4.3-1.8s3.2,0.6,4.2,1.8S1226.7,775.2,1226.7,777.3z M1224.6,777.3c0-1.6-0.4-2.8-1-3.6
			s-1.5-1.2-2.6-1.2s-2,0.4-2.6,1.2s-1,2-1,3.6c0,1.5,0.4,2.8,1,3.6s1.5,1.2,2.6,1.2s2-0.4,2.6-1.2S1224.6,778.9,1224.6,777.3z"/>
		<path class="st1" d="M1240.6,783.6h-2.2v-7.1c0-0.6-0.1-1.1-0.1-1.6c-0.1-0.5-0.2-0.9-0.4-1.2c-0.2-0.3-0.5-0.6-0.8-0.7
			c-0.4-0.1-0.8-0.2-1.4-0.2c-0.6,0-1.2,0.1-1.8,0.4c-0.6,0.3-1.2,0.6-1.8,1.1v9.4h-2.1v-12.6h2.2v1.4c0.6-0.6,1.4-1,2.1-1.3
			c0.7-0.3,1.4-0.5,2.2-0.5c1.4,0,2.4,0.4,3.1,1.2c0.7,0.8,1.1,2,1.1,3.5v8.2L1240.6,783.6L1240.6,783.6z"/>
		<path class="st1" d="M1255.3,771l-7.3,17.3h-2.3l2.3-5.2l-5.1-12h2.3l3.9,9.4l3.9-9.4H1255.3L1255.3,771z"/>
	</g>
</g>
</svg>
