<svg xmlns="http://www.w3.org/2000/svg" width="302.148" height="106.724" viewBox="0 0 302.148 106.724">
  <g id="グループ_732" data-name="グループ 732" transform="translate(-1006.164 -720.564)">
    <path id="パス_672" data-name="パス 672" d="M-116.228.252c-.028-.448-.112-1.708-.112-2.716V-16.912c0-.672.056-1.54.084-2.184-.56.028-1.4.056-2.072.056h-13.8a28.256,28.256,0,0,1-3.052-.168v2.492c.672-.028,2.044-.084,3.08-.084h13.412V-3.584H-132.44c-1.176,0-2.38-.084-3.108-.14V-1.2c.756-.056,2.016-.112,3.164-.112h13.692c-.028.672-.028,1.26-.056,1.568Zm10.584-20.776-1.6,1.708a58.152,58.152,0,0,1,6.972,5.852l1.764-1.764A61.313,61.313,0,0,0-105.644-20.524Zm-2.408,18.76,1.484,2.3a30.183,30.183,0,0,0,11-4.368,27.929,27.929,0,0,0,9.408-9.94l-1.344-2.38a26.377,26.377,0,0,1-9.352,10.3A28.911,28.911,0,0,1-108.052-1.764ZM-64.288-16.8a2.044,2.044,0,0,1,2.072-2.044A2.037,2.037,0,0,1-60.172-16.8a2.055,2.055,0,0,1-2.044,2.044A2.062,2.062,0,0,1-64.288-16.8Zm-1.344,0a3.388,3.388,0,0,0,3.416,3.388A3.382,3.382,0,0,0-58.828-16.8a3.406,3.406,0,0,0-3.388-3.416A3.412,3.412,0,0,0-65.632-16.8ZM-82.488-7.364l2.044,2.072c.42-.56,1.036-1.428,1.624-2.156,1.26-1.54,3.612-4.62,4.956-6.244.952-1.176,1.344-1.2,2.52-.224a75.436,75.436,0,0,1,5.46,5.684c1.792,2.044,4.34,4.928,6.3,7.448l1.82-1.988c-2.044-2.408-4.9-5.46-6.776-7.476a70.645,70.645,0,0,0-5.8-5.8c-2.016-1.68-3.164-1.484-4.648.28-1.764,2.072-4.2,5.18-5.544,6.552C-81.256-8.484-81.788-7.98-82.488-7.364ZM-51.24-21.5a12.228,12.228,0,0,1-.2,1.96A86.4,86.4,0,0,0-52.7-7.9,33.5,33.5,0,0,0-51.632.9l1.988-.168c-.028-.28-.084-.672-.084-.952a4.757,4.757,0,0,1,.14-1.232,59.864,59.864,0,0,1,1.96-6.132L-48.8-8.512c-.476,1.12-1.12,2.772-1.568,4.032a24.5,24.5,0,0,1-.252-3.78,68.1,68.1,0,0,1,1.372-11.172,13.133,13.133,0,0,1,.476-1.876ZM-37.1-4.312c0,1.848-.672,3-3.024,3-1.988,0-3.332-.784-3.332-2.156,0-1.288,1.428-2.212,3.5-2.212a8.67,8.67,0,0,1,2.828.448C-37.1-4.9-37.1-4.564-37.1-4.312Zm7.56,1.372A18.906,18.906,0,0,0-35-6.552c-.112-2.324-.308-5.1-.336-7.868,1.652-.112,3.276-.28,4.788-.532v-2.184a35.32,35.32,0,0,1-4.788.644c.028-1.288.056-2.576.084-3.332a15.709,15.709,0,0,1,.168-1.652h-2.548a11.333,11.333,0,0,1,.14,1.68v3.444c-.868.028-1.736.056-2.6.056a43.349,43.349,0,0,1-4.7-.252v2.128c1.624.084,3.08.168,4.648.168.9,0,1.764-.028,2.66-.056.028,2.3.2,4.956.28,7.084a12.367,12.367,0,0,0-2.576-.252c-3.64,0-5.712,1.9-5.712,4.228,0,2.464,2.044,4,5.768,4,3.752,0,4.816-2.24,4.816-4.536v-.5A21.041,21.041,0,0,1-30.744-1.12Zm4.172-4.62A20.123,20.123,0,0,1-27.188-.9a7.273,7.273,0,0,1,1.624.784,24.642,24.642,0,0,0,1.988-7.112Zm5.768.308a27.456,27.456,0,0,1,1.708,5.124l1.6-.532a25.959,25.959,0,0,0-1.792-5.1Zm4.34,5.1A51.513,51.513,0,0,1-4.48,2.268L-3.248.616A60.053,60.053,0,0,0-14.028-3.64Zm3.024-5.292A28.678,28.678,0,0,1-6.58-4.2l1.288-1.428a30.643,30.643,0,0,0-5.684-3.108Zm.168-11.256H-5.74a18.641,18.641,0,0,1-3.276,4.452,21.839,21.839,0,0,1-3.192-4.284Zm7.756-1.9-.364.112h-6.272a24.926,24.926,0,0,0,1.316-2.576l-2.044-.364a20.108,20.108,0,0,1-6.048,8.064A5.913,5.913,0,0,1-16.3-14.028,22.6,22.6,0,0,0-13.356-17a25.319,25.319,0,0,0,2.968,3.976,23.714,23.714,0,0,1-6.048,3.7,23.14,23.14,0,0,0-2.436-5.068l-1.456.588c.448.784.9,1.652,1.288,2.52l-4.116.168a96.072,96.072,0,0,0,5.572-8.344l-1.764-.784a57.028,57.028,0,0,1-2.828,5.012,22.487,22.487,0,0,0-1.624-1.82c1.036-1.568,2.212-3.78,3.164-5.628l-1.82-.728a35.409,35.409,0,0,1-2.52,5.208c-.28-.252-.532-.5-.812-.728l-1.064,1.344a24.959,24.959,0,0,1,3.612,3.976c-.616.924-1.26,1.82-1.848,2.576l-1.848.084.168,1.848c1.288-.084,2.8-.168,4.4-.252V2.184h1.848V-9.464l2.184-.14c.2.532.364,1.064.476,1.484l1.316-.588a12.067,12.067,0,0,1,.9,1.232,25.072,25.072,0,0,0,6.636-4.172,22.779,22.779,0,0,0,6.8,4.536A10.04,10.04,0,0,1-.868-8.82a21.277,21.277,0,0,1-6.776-4.116A21.459,21.459,0,0,0-3.052-19.88Zm27.5-.784-.448.14H2.828v2.044H20.86a34.642,34.642,0,0,1-6.524,5.264H12.964V-.588c0,.5-.2.672-.812.7s-2.8.028-5.1-.056A7.172,7.172,0,0,1,7.9,2.128a26.211,26.211,0,0,0,5.768-.308C14.728,1.484,15.12.84,15.12-.56V-12.124a39.337,39.337,0,0,0,9.688-8.092Zm11.564-.364a14.251,14.251,0,0,1,.252,2.8c0,2.94-.28,9.94-.28,14.056,0,4.508,2.744,6.188,6.72,6.188A13.815,13.815,0,0,0,53-4.816l-1.54-1.932c-1.988,2.884-4.872,5.74-9.968,5.74-2.576,0-4.536-1.064-4.536-4.116,0-4.144.224-10.7.336-13.832.056-.9.14-1.876.28-2.772ZM70.028-3.248c0,1.9-1.344,2.38-2.94,2.38-2.744,0-3.836-.952-3.836-2.24,0-1.26,1.428-2.268,4.06-2.268A14.116,14.116,0,0,1,70-5.124C70-4.368,70.028-3.724,70.028-3.248ZM80.136-2.3a22.762,22.762,0,0,0-8.064-4.312c-.056-1.316-.14-2.772-.2-4.2,2.632-.112,5.1-.308,7.7-.644l-.028-2.1a74.8,74.8,0,0,1-7.7.728V-16.8c2.6-.14,4.984-.364,7.168-.588l-.028-2.044a61.655,61.655,0,0,1-7.112.672c0-.672,0-1.2.028-1.54a14.271,14.271,0,0,1,.14-1.848h-2.38a15.521,15.521,0,0,1,.084,1.652v1.82H68.32a44.2,44.2,0,0,1-6.5-.532v2.072c1.652.2,4.592.42,6.524.42H69.72v3.976H68.236a49.33,49.33,0,0,1-6.972-.532v2.128c1.988.224,5.068.392,6.972.392h1.54c.028,1.148.084,2.464.14,3.7a15.653,15.653,0,0,0-2.324-.168c-4,0-6.44,1.708-6.44,4.228,0,2.688,2.212,4.116,6.188,4.116,3.612,0,4.9-1.988,4.9-3.892,0-.42-.028-1.036-.056-1.736A20.593,20.593,0,0,1,78.876-.336Zm10.612-19.46a14.251,14.251,0,0,1,.252,2.8c0,2.94-.28,9.94-.28,14.056,0,4.508,2.744,6.188,6.72,6.188A13.815,13.815,0,0,0,109-4.816l-1.54-1.932c-1.988,2.884-4.872,5.74-9.968,5.74-2.576,0-4.536-1.064-4.536-4.116,0-4.144.224-10.7.336-13.832.056-.9.14-1.876.28-2.772Zm36.288,10.332a44.549,44.549,0,0,1,5.124-.308,39.886,39.886,0,0,1,4.676.336l.056-2.128a44.276,44.276,0,0,0-4.788-.224c-1.792,0-3.612.084-5.068.224Zm1.792-7.28a40.182,40.182,0,0,1-5.292,1.008l.42-2.044c.112-.56.308-1.6.5-2.212l-2.716-.224a13.224,13.224,0,0,1-.084,2.3c-.084.56-.224,1.428-.42,2.436-1.064.056-2.044.112-2.968.112a24.721,24.721,0,0,1-3.332-.2l.084,2.184c.98.056,1.988.112,3.22.112q1.176,0,2.52-.084c-.224,1.008-.448,2.016-.7,2.94a61.613,61.613,0,0,1-4.648,12.4L117.88.84a82.2,82.2,0,0,0,4.34-12.712c.308-1.176.616-2.464.868-3.668a53.343,53.343,0,0,0,5.74-.952ZM125.636-6.972a15.454,15.454,0,0,0-.42,3.276c0,2.744,2.3,4.088,6.664,4.088a41.169,41.169,0,0,0,5.348-.364l.084-2.268a31.013,31.013,0,0,1-5.4.532c-3.948,0-4.564-1.26-4.564-2.576a9.888,9.888,0,0,1,.392-2.492Zm-222.6,36.548a44.549,44.549,0,0,1,5.124-.308,39.886,39.886,0,0,1,4.676.336l.056-2.128a44.276,44.276,0,0,0-4.788-.224c-1.792,0-3.612.084-5.068.224Zm1.792-7.28a40.182,40.182,0,0,1-5.292,1.008l.42-2.044c.112-.56.308-1.6.5-2.212l-2.716-.224a13.224,13.224,0,0,1-.084,2.3c-.084.56-.224,1.428-.42,2.436-1.064.056-2.044.112-2.968.112a24.721,24.721,0,0,1-3.332-.2l.084,2.184c.98.056,1.988.112,3.22.112q1.176,0,2.52-.084c-.224,1.008-.448,2.016-.7,2.94a61.613,61.613,0,0,1-4.648,12.4l2.464.812a82.2,82.2,0,0,0,4.34-12.712c.308-1.176.616-2.464.868-3.668a53.343,53.343,0,0,0,5.74-.952Zm-3.192,11.732a15.454,15.454,0,0,0-.42,3.276c0,2.744,2.3,4.088,6.664,4.088a41.169,41.169,0,0,0,5.348-.364l.084-2.268a31.013,31.013,0,0,1-5.4.532c-3.948,0-4.564-1.26-4.564-2.576a9.888,9.888,0,0,1,.392-2.492Zm31.948-15.456a12.872,12.872,0,0,1-1.6,1.848c-1.876,1.9-6.076,5.208-8.148,6.972-2.52,2.1-2.8,3.36-.2,5.544,2.6,2.128,7.224,6.076,8.736,7.7.588.644,1.344,1.344,1.9,2.016l2.016-1.82c-2.716-2.688-7.84-6.944-10.36-8.96-1.792-1.484-1.792-1.9-.112-3.36,2.044-1.68,6.02-4.872,7.952-6.524.448-.392,1.288-1.12,1.9-1.568Zm16.184,13.692a16.087,16.087,0,0,0-.756,4.256c0,3.472,2.856,5.544,8.008,5.544a36,36,0,0,0,7.28-.644l.028-2.324a29.306,29.306,0,0,1-7.28.756c-4.144,0-5.8-1.456-5.8-3.892a11.071,11.071,0,0,1,.784-3.5Zm17.5-10.332a42.062,42.062,0,0,1-5.684,1.4c-.616-1.484-1.12-2.716-1.792-4.564l-2.492.476a22.184,22.184,0,0,1,1.176,2.324l.924,2.044a47.216,47.216,0,0,1-11-.168l.084,2.24a58.9,58.9,0,0,0,11.788-.056c.84,1.932,2.24,4.816,3.024,6.524-.924-.084-2.856-.308-3.92-.392l-.224,1.82c1.792.168,4.536.56,5.74.812l1.288-1.344c-1.2-2.324-2.716-5.544-3.724-7.756,1.708-.28,3.528-.7,5.236-1.148Zm20.244-1.988-2.492-1.008c-.336.812-.7,1.484-1.008,2.156-1.512,2.66-7.756,14.392-9.8,19.992l2.436.812a43.617,43.617,0,0,1,2.38-6.3c1.092-2.184,3.136-4.424,5.376-4.424A1.832,1.832,0,0,1-13.58,33.1c.084,1.484.028,3.64.14,5.264.084,1.624,1.064,3.528,4,3.528,4.032,0,6.384-3.108,7.84-7.588l-1.848-1.484c-.728,2.94-2.548,6.748-5.628,6.748a1.977,1.977,0,0,1-2.212-1.96c-.112-1.344-.056-3.472-.112-5.124A3.174,3.174,0,0,0-14.672,29.1a6.01,6.01,0,0,0-4.06,1.68c1.428-2.688,4.116-7.588,5.348-9.492A11.1,11.1,0,0,1-12.488,19.944ZM7.588,37.08c-1.2,0-2.828-1.54-2.828-5.04,0-3.724,3.248-8.288,8.568-8.96a44.737,44.737,0,0,1-1.54,7.476C10.36,35.232,8.82,37.08,7.588,37.08ZM14.9,41.728C21.5,40.86,25.34,36.968,25.34,31.144c0-5.6-4.144-10.192-10.64-10.192-6.776,0-12.152,5.264-12.152,11.284,0,4.564,2.492,7.42,4.956,7.42,2.576,0,4.788-2.94,6.5-8.624a58.6,58.6,0,0,0,1.652-7.98,7.685,7.685,0,0,1,7.364,8.036c0,4.788-3.472,7.42-7.028,8.2a17.381,17.381,0,0,1-2.38.336ZM49.812,18.544,48.3,19.16a29.225,29.225,0,0,1,2.3,3.92l1.512-.7A39.683,39.683,0,0,0,49.812,18.544Zm3.08-1.148-1.484.644A25.71,25.71,0,0,1,53.732,21.9l1.54-.672A40.806,40.806,0,0,0,52.892,17.4Zm-18.76,6.58c2.212.2,4.564.308,7.336.308,2.576,0,5.6-.2,7.476-.336v-2.3c-1.988.2-4.816.392-7.476.392a61.889,61.889,0,0,1-7.336-.364Zm-1.12,8.68a15.568,15.568,0,0,0-.588,3.864c0,3.472,3.276,5.348,8.9,5.348a39.027,39.027,0,0,0,9.464-.98l-.028-2.38a36.037,36.037,0,0,1-9.492,1.064c-4.424,0-6.552-1.456-6.552-3.556a10.593,10.593,0,0,1,.56-3.136Zm49.532-9.492V21.176H71.876V17.592H69.748v3.584H59.472V28.4c0,3.976-.224,9.576-2.492,13.58a7.752,7.752,0,0,1,1.764,1.176c2.38-4.228,2.772-10.5,2.772-14.756V23.164ZM76.16,28.2a34.187,34.187,0,0,0-6.5-4.116l-1.428,1.344a33.341,33.341,0,0,1,6.44,4.312ZM63.392,40.468c1.428-2.212,2.128-5.852,2.52-8.9l-1.9-.42c-.336,2.94-1.064,6.356-2.464,8.484Zm7.756.224c-1.064,0-1.288-.168-1.288-1.12V28.764H67.816V39.572c0,2.324.644,3.024,3.08,3.024h4.088c2.38,0,2.912-1.232,3.136-5.852a6.645,6.645,0,0,1-1.876-.84c-.084,4.088-.252,4.788-1.4,4.788Zm5.964-9.408A31.665,31.665,0,0,1,81.06,40.5l1.988-.868a30.166,30.166,0,0,0-4.088-9.1Zm15.176-8.708H94.3v-1.4h7.28v1.4h2.044v-1.4h6.356V19.468h-6.356V17.592h-2.044v1.876H94.3V17.592H92.288v1.876H86.016v1.708h6.272Zm5.656,13.86c.168-.644.308-1.288.42-1.988H96.32a13.8,13.8,0,0,1-.448,1.988H90.72A16.389,16.389,0,0,0,94,33.888h7.952a15.53,15.53,0,0,0,2.94,2.548Zm-7.028-8.988h14.252V29.24H90.916Zm0-3.108h14.252v1.792H90.916Zm19.46,9.548v-1.68H95.424c.364-.532.672-1.036.98-1.6h10.808V22.968H88.928v7.644h5.236a9.717,9.717,0,0,1-1.12,1.6H85.652v1.68H91.28a20.005,20.005,0,0,1-6.244,3.192,4.766,4.766,0,0,1,1.2,1.484,30.29,30.29,0,0,0,3.444-1.512V38h5.46c-1.092,1.736-3.192,2.94-7.224,3.668A5.187,5.187,0,0,1,88.956,43.3c4.872-1.008,7.2-2.688,8.4-5.292h6.3c-.2,1.988-.448,2.856-.756,3.164a1.263,1.263,0,0,1-.924.224,28.657,28.657,0,0,1-3.024-.14,4.583,4.583,0,0,1,.476,1.708c1.4.056,2.688.084,3.36.028a2.22,2.22,0,0,0,1.68-.616c.616-.56.924-1.96,1.232-5.152l.028-.224a19.653,19.653,0,0,0,4,1.82,7.412,7.412,0,0,1,1.344-1.624,18.667,18.667,0,0,1-6.776-3.3ZM-136.892,69.68a18.914,18.914,0,0,1-4.676,7,29.043,29.043,0,0,1-.476-5.04V70.548a13.811,13.811,0,0,1,4.7-.868ZM-144,71.892a33.323,33.323,0,0,0,.644,6.272,7.015,7.015,0,0,1-3.808,1.456c-1.036,0-1.568-.56-1.568-1.68,0-2.24,2.044-4.984,4.732-6.524Zm9.744-3.752c.168-.42.392-1.176.56-1.54l-2.24-.56a10.01,10.01,0,0,1-.28,1.6l-.084.252c-.336-.028-.672-.028-1.008-.028a16.512,16.512,0,0,0-4.648.728c.084-1.176.168-2.352.28-3.416a94.951,94.951,0,0,0,10-1.008l-.028-2.1a58.045,58.045,0,0,1-9.716,1.176q.168-1.218.336-2.1a10.071,10.071,0,0,1,.336-1.232l-2.352-.056a11.848,11.848,0,0,1-.084,1.316c-.056.588-.14,1.316-.224,2.128-.616.028-1.232.028-1.848.028a44.705,44.705,0,0,1-4.564-.336l.056,2.1c1.12.056,3.276.168,4.48.168.532,0,1.092,0,1.68-.028-.112,1.288-.252,2.688-.308,4.088-3.808,1.736-6.916,5.4-6.916,8.96,0,2.38,1.428,3.5,3.3,3.5a9.3,9.3,0,0,0,4.648-1.512c.14.56.308,1.064.448,1.54l2.044-.616c-.224-.7-.448-1.456-.672-2.24a22.507,22.507,0,0,0,6.132-8.96,4.9,4.9,0,0,1,3.976,4.7c0,3.584-3.08,6.16-8.064,6.692l1.2,1.876c6.44-1.008,9.072-4.48,9.072-8.456,0-3.052-2.072-5.628-5.544-6.552Zm15.344-8.232c-.028.672-.112,1.512-.224,2.38a72.745,72.745,0,0,0-.84,8.96,33.926,33.926,0,0,0,.28,4.4l2.184-.168a11.574,11.574,0,0,1-.056-3.388c.336-3.64,3.528-8.652,6.972-8.652,2.94,0,4.4,3.136,4.4,7.5,0,6.972-4.7,9.38-10.724,10.3l1.316,2.016c6.888-1.26,11.732-4.648,11.732-12.348,0-5.824-2.66-9.52-6.356-9.52-3.5,0-6.412,3.444-7.5,6.3a51.393,51.393,0,0,1,1.288-7.7Zm48.188,2.212a36.825,36.825,0,0,0-2.352-3.808l-1.484.616a31.4,31.4,0,0,1,2.324,3.864Zm-3.136,1.148a39.86,39.86,0,0,0-2.324-3.836l-1.484.616A34.276,34.276,0,0,1-75.4,63.94ZM-88.7,60.076a30.351,30.351,0,0,1-.7,6.02c-1.68.14-3.276.28-4.2.308-.9.028-1.6.028-2.464,0l.224,2.436c.7-.14,1.82-.252,2.492-.336.728-.084,2.044-.224,3.5-.364-.952,3.7-3,9.94-5.824,13.72l2.268.924c2.912-4.648,4.816-10.892,5.824-14.868,1.2-.112,2.3-.2,2.968-.2,1.792,0,2.94.448,2.94,2.968,0,3-.42,6.608-1.316,8.456A2.317,2.317,0,0,1-85.4,80.572a12.638,12.638,0,0,1-3.416-.616l.364,2.38a16.933,16.933,0,0,0,3.276.392c1.792,0,3.164-.448,4.06-2.3,1.148-2.324,1.6-6.692,1.6-10,0-3.752-2.016-4.732-4.508-4.732-.672,0-1.82.084-3.108.2.308-1.484.56-3.108.728-3.92.084-.56.224-1.12.336-1.652ZM-78.6,64.444c1.932,2.268,4.116,7.112,4.956,9.968l2.156-1.064a46.913,46.913,0,0,0-5.068-9.856Zm29.54-1.148a11.128,11.128,0,0,1-1.988,1.316c-1.512.868-4.508,2.324-7.112,3.892a63.707,63.707,0,0,1-3.724-8.2l-2.212.9a91.9,91.9,0,0,0,4.032,8.54c-2.968,2.072-4.788,4.34-4.788,7.2,0,4.144,3.78,5.712,8.988,5.712a54.419,54.419,0,0,0,8.764-.672v-2.52a40.843,40.843,0,0,1-8.876.952c-4.368,0-6.552-1.428-6.552-3.724,0-2.1,1.54-3.92,4.116-5.6a93.408,93.408,0,0,1,8.428-4.564c.812-.42,1.512-.784,2.128-1.176Zm27.132,9.324c0,4.984-4.76,7.616-11.48,8.456l1.316,2.128c7.2-1.064,12.544-4.48,12.544-10.5,0-3.948-2.94-6.16-6.888-6.16a36.763,36.763,0,0,0-8.288,1.344c-.812.168-1.764.336-2.52.42l.7,2.576c.672-.252,1.484-.588,2.324-.812a25.825,25.825,0,0,1,7.56-1.428C-23.8,68.644-21.924,70.3-21.924,72.62Zm-11.62-12.488-.364,2.128c3.136.56,8.736,1.12,11.816,1.316l.336-2.156A74.289,74.289,0,0,1-33.544,60.132Zm41.356-.588L6.3,60.16a29.225,29.225,0,0,1,2.3,3.92l1.512-.7A39.684,39.684,0,0,0,7.812,59.544Zm3.08-1.148-1.484.644A25.709,25.709,0,0,1,11.732,62.9l1.54-.672A40.806,40.806,0,0,0,10.892,58.4Zm-18.76,6.58c2.212.2,4.564.308,7.336.308,2.576,0,5.6-.2,7.476-.336v-2.3c-1.988.2-4.816.392-7.476.392a61.889,61.889,0,0,1-7.336-.364Zm-1.12,8.68a15.569,15.569,0,0,0-.588,3.864c0,3.472,3.276,5.348,8.9,5.348a39.027,39.027,0,0,0,9.464-.98l-.028-2.38A36.037,36.037,0,0,1-.728,80.572c-4.424,0-6.552-1.456-6.552-3.556a10.593,10.593,0,0,1,.56-3.136ZM19.6,73.488a15.9,15.9,0,0,0-.756,4.228c0,3.5,2.828,5.544,8.008,5.544a36,36,0,0,0,7.28-.644l.028-2.3a29.477,29.477,0,0,1-7.28.756c-4.144,0-5.8-1.456-5.8-3.92a10.919,10.919,0,0,1,.784-3.472Zm14.532-13.86a29.176,29.176,0,0,1,2.184,3.752,44.274,44.274,0,0,1-4.9,1.148c-.616-1.456-1.148-2.688-1.792-4.564l-2.52.5a12.744,12.744,0,0,1,1.176,2.324l.924,2.044a46.991,46.991,0,0,1-10.976-.168l.084,2.24A56.787,56.787,0,0,0,30.1,66.824c.84,1.96,2.212,4.816,3.024,6.552-.924-.112-2.884-.308-3.92-.42l-.252,1.82c1.82.168,4.564.56,5.768.812l1.288-1.344c-1.26-2.352-2.744-5.572-3.724-7.756a46.633,46.633,0,0,0,5.208-1.148L37.1,63.212l.812-.364a34.956,34.956,0,0,0-2.268-3.864Zm3.108-1.12A26.969,26.969,0,0,1,39.564,62.4l1.512-.672a32.856,32.856,0,0,0-2.352-3.836Zm11.088,4-2.688-.056a14.782,14.782,0,0,1,.168,2.464,73.4,73.4,0,0,0,.308,7.392c.756,7.2,3.276,9.8,5.88,9.8,1.9,0,3.612-1.6,5.264-6.3L55.5,73.8c-.728,2.8-2.016,5.656-3.444,5.656-1.96,0-3.3-3.052-3.752-7.7-.2-2.268-.224-4.816-.2-6.552C48.132,64.472,48.216,63.184,48.328,62.512Zm14.448.756-2.184.756c2.632,3.248,4.312,8.736,4.788,13.72l2.268-.9C67.256,72.172,65.268,66.488,62.776,63.268ZM84.028,78.752c0,1.9-1.344,2.38-2.94,2.38-2.744,0-3.836-.952-3.836-2.24,0-1.26,1.428-2.268,4.06-2.268A14.116,14.116,0,0,1,84,76.876C84,77.632,84.028,78.276,84.028,78.752Zm10.108.952a22.762,22.762,0,0,0-8.064-4.312c-.056-1.316-.14-2.772-.2-4.2,2.632-.112,5.1-.308,7.7-.644l-.028-2.1a74.805,74.805,0,0,1-7.7.728V65.2c2.6-.14,4.984-.364,7.168-.588l-.028-2.044a61.655,61.655,0,0,1-7.112.672c0-.672,0-1.2.028-1.54a14.271,14.271,0,0,1,.14-1.848h-2.38a15.521,15.521,0,0,1,.084,1.652v1.82H82.32a44.205,44.205,0,0,1-6.5-.532v2.072c1.652.2,4.592.42,6.524.42H83.72V69.26H82.236a49.33,49.33,0,0,1-6.972-.532v2.128c1.988.224,5.068.392,6.972.392h1.54c.028,1.148.084,2.464.14,3.7a15.653,15.653,0,0,0-2.324-.168c-4,0-6.44,1.708-6.44,4.228,0,2.688,2.212,4.116,6.188,4.116,3.612,0,4.9-1.988,4.9-3.892,0-.42-.028-1.036-.056-1.736a20.593,20.593,0,0,1,6.692,4.172Zm10.612-19.46a14.251,14.251,0,0,1,.252,2.8c0,2.94-.28,9.94-.28,14.056,0,4.508,2.744,6.188,6.72,6.188A13.815,13.815,0,0,0,123,77.184l-1.54-1.932c-1.988,2.884-4.872,5.74-9.968,5.74-2.576,0-4.536-1.064-4.536-4.116,0-4.144.224-10.7.336-13.832.056-.9.14-1.876.28-2.772Zm36.288,10.332a44.547,44.547,0,0,1,5.124-.308,39.886,39.886,0,0,1,4.676.336l.056-2.128a44.276,44.276,0,0,0-4.788-.224c-1.792,0-3.612.084-5.068.224Zm1.792-7.28a40.182,40.182,0,0,1-5.292,1.008l.42-2.044c.112-.56.308-1.6.5-2.212l-2.716-.224a13.224,13.224,0,0,1-.084,2.3c-.084.56-.224,1.428-.42,2.436-1.064.056-2.044.112-2.968.112a24.721,24.721,0,0,1-3.332-.2l.084,2.184c.98.056,1.988.112,3.22.112q1.176,0,2.52-.084c-.224,1.008-.448,2.016-.7,2.94a61.613,61.613,0,0,1-4.648,12.4l2.464.812a82.2,82.2,0,0,0,4.34-12.712c.308-1.176.616-2.464.868-3.668a53.342,53.342,0,0,0,5.74-.952Zm-3.192,11.732a15.454,15.454,0,0,0-.42,3.276c0,2.744,2.3,4.088,6.664,4.088a41.169,41.169,0,0,0,5.348-.364l.084-2.268a31.013,31.013,0,0,1-5.4.532c-3.948,0-4.564-1.26-4.564-2.576a9.888,9.888,0,0,1,.392-2.492Z" transform="translate(1157 744)" fill="#fff"/>
  </g>
</svg>
