<svg xmlns="http://www.w3.org/2000/svg" width="314.08" height="40.24" viewBox="0 0 314.08 40.24">
  <g id="グループ_509" data-name="グループ 509" transform="translate(-504 -1416)">
    <rect id="長方形_367" data-name="長方形 367" width="25" height="1" transform="translate(793.08 1432)" fill="#017a94"/>
    <path id="パス_673" data-name="パス 673" d="M-83.34-.48q.12,0,.12.24t-.12.24q-1.24,0-1.96-.04l-2.76-.04-2.96.04Q-91.7,0-92.9,0q-.12,0-.12-.24t.12-.24a9.335,9.335,0,0,0,2.28-.2,1.414,1.414,0,0,0,.98-.78,4.59,4.59,0,0,0,.26-1.78V-12.6h-15.36v9.36a4.591,4.591,0,0,0,.26,1.78,1.414,1.414,0,0,0,.98.78,9.335,9.335,0,0,0,2.28.2q.08,0,.08.24t-.08.24q-1.24,0-1.96-.04l-2.88-.04-2.76.04q-.72.04-2,.04-.08,0-.08-.24t.08-.24a9.371,9.371,0,0,0,2.26-.2,1.422,1.422,0,0,0,1-.78,4.591,4.591,0,0,0,.26-1.78V-21.76a4.432,4.432,0,0,0-.26-1.76,1.484,1.484,0,0,0-.98-.78,8.312,8.312,0,0,0-2.24-.22q-.08,0-.08-.24t.08-.24l2.04.04q1.68.08,2.68.08,1.16,0,2.92-.08l1.92-.04q.08,0,.08.24t-.08.24a7.868,7.868,0,0,0-2.26.24,1.54,1.54,0,0,0-1,.82,4.591,4.591,0,0,0-.26,1.78v8.24h15.36v-8.24a4.59,4.59,0,0,0-.26-1.78,1.534,1.534,0,0,0-.98-.82,7.838,7.838,0,0,0-2.28-.24q-.12,0-.12-.24t.12-.24l1.88.04q1.76.08,2.96.08,1.08,0,2.76-.08l1.96-.04q.12,0,.12.24t-.12.24a8.312,8.312,0,0,0-2.24.22,1.484,1.484,0,0,0-.98.78,4.432,4.432,0,0,0-.26,1.76V-3.24a4.591,4.591,0,0,0,.26,1.78,1.414,1.414,0,0,0,.98.78A9.109,9.109,0,0,0-83.34-.48Zm10.72,1a7.436,7.436,0,0,1-4.1-1.14A7.568,7.568,0,0,1-79.46-3.7a9.383,9.383,0,0,1-.96-4.22,7.574,7.574,0,0,1,1.26-4.42,7.81,7.81,0,0,1,3.24-2.72,9.628,9.628,0,0,1,4.02-.9,7.314,7.314,0,0,1,4.12,1.16,7.677,7.677,0,0,1,2.7,3.06,8.948,8.948,0,0,1,.94,4.02A8.03,8.03,0,0,1-65.3-3.38,7.953,7.953,0,0,1-68.4-.5,8.93,8.93,0,0,1-72.62.52Zm1.16-.76a4.039,4.039,0,0,0,3.4-1.56,7.849,7.849,0,0,0,1.2-4.8,11.41,11.41,0,0,0-.82-4.44,7.28,7.28,0,0,0-2.26-3.06,5.26,5.26,0,0,0-3.28-1.1,3.942,3.942,0,0,0-3.34,1.56,7.318,7.318,0,0,0-1.18,4.48,12.169,12.169,0,0,0,.8,4.48A7.838,7.838,0,0,0-74.7-1.44,4.929,4.929,0,0,0-71.46-.24Zm35.4-15.2q.12,0,.12.24t-.12.24a2.378,2.378,0,0,0-1.66.64,6.543,6.543,0,0,0-1.38,2.28l-4.96,12q-.04.16-.44.16t-.44-.16l-4.52-9.72L-53.54-.04q-.04.16-.44.16t-.44-.16l-5.6-12.08a9.227,9.227,0,0,0-1.34-2.28,1.786,1.786,0,0,0-1.34-.56q-.12,0-.12-.24t.12-.24q.8,0,1.24.04l1.52.04,2.4-.04q.6-.04,1.72-.04.12,0,.12.24t-.12.24a5.222,5.222,0,0,0-1.72.22.772.772,0,0,0-.6.74,1.349,1.349,0,0,0,.16.6L-53.1-3.12l3.16-7.6-.64-1.4A9.8,9.8,0,0,0-51.9-14.4a1.678,1.678,0,0,0-1.28-.56q-.08,0-.08-.24t.08-.24q.8,0,1.2.04l1.48.04,2.6-.04q.56-.04,1.52-.04.12,0,.12.24t-.12.24q-2.28,0-2.28.96a1.349,1.349,0,0,0,.16.6l4.84,10.36,3.76-9.2a2.737,2.737,0,0,0,.28-1.16,1.245,1.245,0,0,0-.76-1.18,5.663,5.663,0,0,0-2.4-.38q-.08,0-.08-.24t.08-.24q1.08,0,1.64.04l2.4.04,1.44-.04Q-36.9-15.44-36.06-15.44Zm22,13.36a.257.257,0,0,1,.24.18q.08.18-.04.26A11.529,11.529,0,0,1-16.52,0a6.468,6.468,0,0,1-2.46.48,4.686,4.686,0,0,1-2.76-.76A2.865,2.865,0,0,1-22.82-2.8v-9.4a5.45,5.45,0,0,0-.14-1.48.844.844,0,0,0-.54-.58,4.593,4.593,0,0,0-1.36-.14q-.16,0-.16-.26t.16-.26a4.139,4.139,0,0,0,2.6-.86,3.187,3.187,0,0,0,1.16-2.18q0-.12.32-.12.28,0,.28.12V-15q2-.04,5.56-.4.08,0,.18.3a2.077,2.077,0,0,1,.1.66,1.728,1.728,0,0,1-.14.66q-.14.34-.3.3a24.766,24.766,0,0,0-5.4-.64v9.96a3.27,3.27,0,0,0,.82,2.44,3.213,3.213,0,0,0,2.34.8,5.087,5.087,0,0,0,3.2-1.12ZM-3.74.52A7.436,7.436,0,0,1-7.84-.62,7.568,7.568,0,0,1-10.58-3.7a9.383,9.383,0,0,1-.96-4.22,7.574,7.574,0,0,1,1.26-4.42,7.81,7.81,0,0,1,3.24-2.72,9.628,9.628,0,0,1,4.02-.9A7.314,7.314,0,0,1,1.1-14.8a7.677,7.677,0,0,1,2.7,3.06,8.948,8.948,0,0,1,.94,4.02A8.03,8.03,0,0,1,3.58-3.38,7.953,7.953,0,0,1,.48-.5,8.93,8.93,0,0,1-3.74.52Zm1.16-.76A4.039,4.039,0,0,0,.82-1.8a7.849,7.849,0,0,0,1.2-4.8,11.41,11.41,0,0,0-.82-4.44A7.28,7.28,0,0,0-1.06-14.1a5.26,5.26,0,0,0-3.28-1.1,3.942,3.942,0,0,0-3.34,1.56A7.318,7.318,0,0,0-8.86-9.16a12.169,12.169,0,0,0,.8,4.48A7.838,7.838,0,0,0-5.82-1.44,4.929,4.929,0,0,0-2.58-.24ZM43.5-.48q.16,0,.16.24T43.5,0q-.76,0-2.36-.08T38.82-.16q-.88,0-2.24.08Q35.3,0,34.62,0q-.16,0-.16-.24t.16-.24a6.1,6.1,0,0,0,2.16-.28.978.978,0,0,0,.68-.96,4.822,4.822,0,0,0-.52-1.72L33.38-11H23.86L21.34-5.08a6.147,6.147,0,0,0-.56,2.2,1.963,1.963,0,0,0,.98,1.82,5.9,5.9,0,0,0,2.94.58q.2,0,.2.24T24.7,0q-.72,0-2.08-.08Q21.1-.16,19.98-.16q-1.04,0-2.4.08-1.2.08-2,.08-.2,0-.2-.24t.2-.24a3.962,3.962,0,0,0,1.9-.42,4.329,4.329,0,0,0,1.48-1.48A19.418,19.418,0,0,0,20.5-5.44l8.44-19.92a.311.311,0,0,1,.28-.12q.2,0,.24.12L38.9-5.48A16.194,16.194,0,0,0,41.22-1.5,3.027,3.027,0,0,0,43.5-.48ZM24.18-11.8h8.84l-4.68-9.88Zm32.2-4.16a5.605,5.605,0,0,1,3.04.88,6.213,6.213,0,0,1,2.24,2.56A8.66,8.66,0,0,1,62.5-8.6a8.985,8.985,0,0,1-1.36,5.06A8.69,8.69,0,0,1,57.8-.48a8.605,8.605,0,0,1-3.9,1A9.361,9.361,0,0,1,51.68.28a8.59,8.59,0,0,1-2.02-.8V7.76a3.9,3.9,0,0,0,.3,1.76,1.69,1.69,0,0,0,1.14.78,10.934,10.934,0,0,0,2.56.22q.08,0,.08.24t-.08.24q-1.36,0-2.16-.04l-2.92-.04-2.2.04q-.56.04-1.48.04-.12,0-.12-.24t.12-.24a4.354,4.354,0,0,0,1.6-.22,1.268,1.268,0,0,0,.72-.78,5.652,5.652,0,0,0,.2-1.76v-18.8a4.811,4.811,0,0,0-.32-2.06,1.152,1.152,0,0,0-1.12-.62,5.339,5.339,0,0,0-2.12.56l-.08.04q-.16,0-.22-.2t.06-.28l4.44-2.12a.686.686,0,0,1,.28-.04q.56,0,.92.84a6.752,6.752,0,0,1,.4,2.4Q53.06-15.96,56.38-15.96ZM55.1-.32a4.143,4.143,0,0,0,3.48-1.86,8.636,8.636,0,0,0,1.36-5.18,8.19,8.19,0,0,0-1.48-5.22,4.6,4.6,0,0,0-3.76-1.86,5.186,5.186,0,0,0-2.6.68,11.614,11.614,0,0,0-2.44,1.92v9A8.3,8.3,0,0,0,52.04-.96,6.7,6.7,0,0,0,55.1-.32ZM76.82-15.96a5.605,5.605,0,0,1,3.04.88,6.213,6.213,0,0,1,2.24,2.56,8.66,8.66,0,0,1,.84,3.92,8.985,8.985,0,0,1-1.36,5.06A8.69,8.69,0,0,1,78.24-.48a8.605,8.605,0,0,1-3.9,1A9.361,9.361,0,0,1,72.12.28a8.59,8.59,0,0,1-2.02-.8V7.76a3.9,3.9,0,0,0,.3,1.76,1.69,1.69,0,0,0,1.14.78,10.934,10.934,0,0,0,2.56.22q.08,0,.08.24T74.1,11q-1.36,0-2.16-.04l-2.92-.04-2.2.04q-.56.04-1.48.04-.12,0-.12-.24t.12-.24a4.354,4.354,0,0,0,1.6-.22,1.268,1.268,0,0,0,.72-.78,5.652,5.652,0,0,0,.2-1.76v-18.8a4.811,4.811,0,0,0-.32-2.06,1.152,1.152,0,0,0-1.12-.62,5.339,5.339,0,0,0-2.12.56l-.08.04q-.16,0-.22-.2t.06-.28l4.44-2.12a.686.686,0,0,1,.28-.04q.56,0,.92.84a6.752,6.752,0,0,1,.4,2.4Q73.5-15.96,76.82-15.96ZM75.54-.32a4.143,4.143,0,0,0,3.48-1.86,8.636,8.636,0,0,0,1.36-5.18,8.19,8.19,0,0,0-1.48-5.22,4.6,4.6,0,0,0-3.76-1.86,5.186,5.186,0,0,0-2.6.68,11.614,11.614,0,0,0-2.44,1.92v9A8.3,8.3,0,0,0,72.48-.96,6.7,6.7,0,0,0,75.54-.32ZM86.1,0q-.12,0-.12-.24t.12-.24A4.354,4.354,0,0,0,87.7-.7a1.269,1.269,0,0,0,.72-.8,5.68,5.68,0,0,0,.2-1.74V-23.92A5.6,5.6,0,0,0,88.34-26a1,1,0,0,0-1-.64,5.126,5.126,0,0,0-1.84.56h-.08q-.12,0-.18-.2t.06-.24l5.12-2.44a.445.445,0,0,1,.2-.04.433.433,0,0,1,.22.1.277.277,0,0,1,.14.22V-3.24a6.052,6.052,0,0,0,.18,1.72,1.269,1.269,0,0,0,.7.8,4.022,4.022,0,0,0,1.6.24q.12,0,.12.24T93.46,0q-.88,0-1.44-.04L89.78-.08l-2.16.04Q87.06,0,86.1,0Zm25.96-15.44q.12,0,.12.24t-.12.24a2.347,2.347,0,0,0-1.72.72,6.95,6.95,0,0,0-1.36,2.36l-4.88,13a40.232,40.232,0,0,1-2.78,6.06,9.735,9.735,0,0,1-2.68,3.12,5.513,5.513,0,0,1-3.18.94,2.513,2.513,0,0,1-1.46-.4,1.322,1.322,0,0,1-.58-1.16,1.117,1.117,0,0,1,.36-.88,1.277,1.277,0,0,1,.88-.32,2.807,2.807,0,0,1,.88.12,3,3,0,0,1,.76.4q.08.04.46.24a2,2,0,0,0,.94.2,2.588,2.588,0,0,0,1.82-.84,10.67,10.67,0,0,0,1.84-2.82q.98-1.98,2.3-5.46L97.58-12.12a13.279,13.279,0,0,0-1.4-2.3,1.583,1.583,0,0,0-1.24-.54q-.08,0-.08-.24t.08-.24l1.36.04q.48.04,1.32.04l2.56-.04q.56-.04,1.56-.04.08,0,.08.24t-.08.24q-2.32,0-2.32.92a1.55,1.55,0,0,0,.2.64L104.9-2.56l3.2-9.2a5.145,5.145,0,0,0,.32-1.52,1.348,1.348,0,0,0-.72-1.3,5.376,5.376,0,0,0-2.36-.38q-.08,0-.08-.24t.08-.24q1.08,0,1.64.04l2.4.04,1.44-.04Q111.22-15.44,112.06-15.44Z" transform="translate(660.9 1445)" fill="#017a94"/>
    <rect id="長方形_366" data-name="長方形 366" width="26" height="1" transform="translate(504 1432)" fill="#017a94"/>
  </g>
</svg>
