<svg xmlns="http://www.w3.org/2000/svg" width="582.667" height="104.373" viewBox="0 0 582.667 104.373">
  <g id="グループ_751" data-name="グループ 751" transform="translate(-487.666 -923.814)">
    <path id="パス_672" data-name="パス 672" d="M-176.66,0h3.72V-11.64h4.84c6.4,0,10.8-2.88,10.8-9.08,0-6.4-4.4-8.6-11-8.6h-8.36Zm3.72-14.64V-26.32h4.2c5.16,0,7.76,1.36,7.76,5.6,0,4.2-2.44,6.08-7.6,6.08ZM-151.7,0h3.64V-13.96c1.44-3.72,3.68-5,5.48-5a5.139,5.139,0,0,1,2.12.36l.68-3.2a4.63,4.63,0,0,0-2.32-.48c-2.44,0-4.64,1.76-6.16,4.52h-.12l-.32-3.96h-3Zm23.84.52a12.928,12.928,0,0,0,7.2-2.24l-1.32-2.4a9.363,9.363,0,0,1-5.44,1.72c-4.12,0-6.96-2.96-7.2-7.6h14.64a14.21,14.21,0,0,0,.16-2.08c0-6.2-3.12-10.2-8.64-10.2-5.04,0-9.8,4.4-9.8,11.44C-138.26-3.68-133.62.52-127.86.52Zm-6.8-13.12c.44-4.28,3.16-6.76,6.24-6.76,3.4,0,5.4,2.36,5.4,6.76ZM-110.62.52A5.751,5.751,0,0,0-108.5.2l-.52-2.8a3.2,3.2,0,0,1-.76.08c-.56,0-1.04-.44-1.04-1.56V-31.84h-3.64V-4.32C-114.46-1.24-113.34.52-110.62.52Zm7.56-.52h3.64V-21.72h-3.64Zm1.84-26.2a2.38,2.38,0,0,0,2.52-2.36,2.312,2.312,0,0,0-2.52-2.36,2.312,2.312,0,0,0-2.52,2.36A2.38,2.38,0,0,0-101.22-26.2ZM-92.06,0h3.64V-15.76c2-2.24,3.84-3.32,5.48-3.32,2.76,0,4.04,1.72,4.04,5.8V0h3.64V-15.76c2.04-2.24,3.8-3.32,5.48-3.32,2.76,0,4.04,1.72,4.04,5.8V0h3.64V-13.76c0-5.56-2.12-8.52-6.6-8.52-2.64,0-4.92,1.72-7.16,4.16a5.728,5.728,0,0,0-6-4.16c-2.6,0-4.88,1.64-6.76,3.72h-.12l-.32-3.16h-3Zm37.04,0h3.64V-21.72h-3.64Zm1.84-26.2a2.38,2.38,0,0,0,2.52-2.36,2.312,2.312,0,0,0-2.52-2.36,2.312,2.312,0,0,0-2.52,2.36A2.38,2.38,0,0,0-53.18-26.2ZM-44.02,0h3.64V-15.76c2.2-2.2,3.72-3.32,5.96-3.32,2.88,0,4.12,1.72,4.12,5.8V0h3.64V-13.76c0-5.56-2.08-8.52-6.64-8.52-2.96,0-5.2,1.64-7.28,3.68h-.12l-.32-3.12h-3Zm29.44.52c2.68,0,5.12-1.4,7.2-3.12h.12L-6.94,0h3V-13.36c0-5.36-2.24-8.92-7.52-8.92a16.337,16.337,0,0,0-8.56,2.84l1.44,2.52a11.967,11.967,0,0,1,6.52-2.32c3.56,0,4.48,2.68,4.48,5.48-9.24,1.04-13.36,3.4-13.36,8.12C-20.94-1.72-18.22.52-14.58.52Zm1.04-2.92c-2.16,0-3.84-1-3.84-3.48,0-2.8,2.48-4.6,9.8-5.48v6.08C-9.7-3.4-11.42-2.4-13.54-2.4ZM2.98,0H6.62V-13.96c1.44-3.72,3.68-5,5.48-5a5.139,5.139,0,0,1,2.12.36l.68-3.2a4.63,4.63,0,0,0-2.32-.48c-2.44,0-4.64,1.76-6.16,4.52H6.3l-.32-3.96h-3ZM20.02,9.36c4.32,0,6.56-3.28,8.08-7.56l8.2-23.52H32.74L28.86-9.64c-.6,1.92-1.24,4.12-1.84,6.08h-.2c-.68-1.96-1.44-4.2-2.08-6.08L20.3-21.72H16.5L25.22.04l-.48,1.64c-.88,2.68-2.44,4.68-4.92,4.68A5.19,5.19,0,0,1,18.18,6l-.72,2.92A6.687,6.687,0,0,0,20.02,9.36ZM53.5-26.32h4.92c4.6,0,7.12,1.36,7.12,5.24,0,3.8-2.52,5.64-7.12,5.64H53.5ZM70.1,0,62.58-12.84c4-.96,6.64-3.68,6.64-8.24,0-6.12-4.28-8.24-10.24-8.24h-9.2V0H53.5V-12.44h5.28L65.9,0ZM83.18.52a12.928,12.928,0,0,0,7.2-2.24l-1.32-2.4A9.363,9.363,0,0,1,83.62-2.4c-4.12,0-6.96-2.96-7.2-7.6H91.06a14.21,14.21,0,0,0,.16-2.08c0-6.2-3.12-10.2-8.64-10.2-5.04,0-9.8,4.4-9.8,11.44C72.78-3.68,77.42.52,83.18.52ZM76.38-12.6c.44-4.28,3.16-6.76,6.24-6.76,3.4,0,5.4,2.36,5.4,6.76ZM102.26.52c5.12,0,7.92-2.92,7.92-6.44,0-4.12-3.48-5.4-6.64-6.6-2.44-.92-4.8-1.68-4.8-3.76,0-1.68,1.24-3.12,3.96-3.12a8.172,8.172,0,0,1,5,1.92l1.76-2.36a11.254,11.254,0,0,0-6.76-2.44c-4.72,0-7.48,2.72-7.48,6.16,0,3.68,3.44,5.16,6.48,6.28,2.4.92,4.96,1.92,4.96,4.12,0,1.88-1.4,3.4-4.28,3.4a9.851,9.851,0,0,1-6.44-2.56l-1.8,2.4A13.1,13.1,0,0,0,102.26.52Zm19.36,0c3,0,5.16-1.56,7.2-3.92h.12l.28,3.4h3.04V-21.72h-3.64v15.4c-2.08,2.6-3.64,3.68-5.88,3.68-2.88,0-4.08-1.72-4.08-5.76V-21.72h-3.64V-7.96C115.02-2.44,117.06.52,121.62.52Zm21.8,0A5.751,5.751,0,0,0,145.54.2l-.52-2.8a3.2,3.2,0,0,1-.76.08c-.56,0-1.04-.44-1.04-1.56V-31.84h-3.64V-4.32C139.58-1.24,140.7.52,143.42.52Zm14.4,0a13.674,13.674,0,0,0,4-.8L161.1-3a7.7,7.7,0,0,1-2.48.56c-2.52,0-3.36-1.52-3.36-4.2V-18.76h5.88v-2.96h-5.88V-27.8h-3.04l-.44,6.08-3.4.2v2.76h3.24V-6.72C151.62-2.36,153.18.52,157.82.52Zm13.48,0c5.12,0,7.92-2.92,7.92-6.44,0-4.12-3.48-5.4-6.64-6.6-2.44-.92-4.8-1.68-4.8-3.76,0-1.68,1.24-3.12,3.96-3.12a8.172,8.172,0,0,1,5,1.92l1.76-2.36a11.254,11.254,0,0,0-6.76-2.44c-4.72,0-7.48,2.72-7.48,6.16,0,3.68,3.44,5.16,6.48,6.28,2.4.92,4.96,1.92,4.96,4.12,0,1.88-1.4,3.4-4.28,3.4a9.851,9.851,0,0,1-6.44-2.56l-1.8,2.4A13.1,13.1,0,0,0,171.3.52ZM-199.22,47.08l1.44-4.48c1.04-3.32,2-6.48,2.92-9.92h.16c.96,3.4,1.88,6.6,2.96,9.92l1.4,4.48ZM-186.62,59h3.92l-9.96-29.32h-4.12L-206.74,59h3.76l2.84-8.96h10.72Zm7.72,0h3.64V43.24c2.2-2.2,3.72-3.32,5.96-3.32,2.88,0,4.12,1.72,4.12,5.8V59h3.64V45.24c0-5.56-2.08-8.52-6.64-8.52-2.96,0-5.2,1.64-7.28,3.68h-.12l-.32-3.12h-3Zm24.44,0h3.64V43.24c2.2-2.2,3.72-3.32,5.96-3.32,2.88,0,4.12,1.72,4.12,5.8V59h3.64V45.24c0-5.56-2.08-8.52-6.64-8.52-2.96,0-5.2,1.64-7.28,3.68h-.12l-.32-3.12h-3Zm32.88.52c5.32,0,10.08-4.16,10.08-11.36,0-7.24-4.76-11.44-10.08-11.44s-10.08,4.2-10.08,11.44C-131.66,55.36-126.9,59.52-121.58,59.52Zm0-3.04c-3.76,0-6.28-3.32-6.28-8.32s2.52-8.4,6.28-8.4,6.32,3.4,6.32,8.4S-117.82,56.48-121.58,56.48Zm22.12,3.04c3,0,5.16-1.56,7.2-3.92h.12l.28,3.4h3.04V37.28h-3.64v15.4c-2.08,2.6-3.64,3.68-5.88,3.68-2.88,0-4.08-1.72-4.08-5.76V37.28h-3.64V51.04C-106.06,56.56-104.02,59.52-99.46,59.52ZM-81.5,59h3.64V43.24c2.2-2.2,3.72-3.32,5.96-3.32,2.88,0,4.12,1.72,4.12,5.8V59h3.64V45.24c0-5.56-2.08-8.52-6.64-8.52-2.96,0-5.2,1.64-7.28,3.68h-.12l-.32-3.12h-3Zm33,.52a10.356,10.356,0,0,0,7-2.76l-1.56-2.44a7.658,7.658,0,0,1-5.12,2.16c-4,0-6.72-3.32-6.72-8.32s2.88-8.4,6.8-8.4a6.305,6.305,0,0,1,4.36,1.96l1.88-2.44a9.286,9.286,0,0,0-6.36-2.56c-5.56,0-10.48,4.2-10.48,11.44C-58.7,55.36-54.26,59.52-48.5,59.52Zm19.6,0a12.928,12.928,0,0,0,7.2-2.24l-1.32-2.4a9.363,9.363,0,0,1-5.44,1.72c-4.12,0-6.96-2.96-7.2-7.6h14.64a14.21,14.21,0,0,0,.16-2.08c0-6.2-3.12-10.2-8.64-10.2-5.04,0-9.8,4.4-9.8,11.44C-39.3,55.32-34.66,59.52-28.9,59.52ZM-35.7,46.4c.44-4.28,3.16-6.76,6.24-6.76,3.4,0,5.4,2.36,5.4,6.76ZM-15.5,59h3.64V43.24c2-2.24,3.84-3.32,5.48-3.32,2.76,0,4.04,1.72,4.04,5.8V59H1.3V43.24C3.34,41,5.1,39.92,6.78,39.92c2.76,0,4.04,1.72,4.04,5.8V59h3.64V45.24c0-5.56-2.12-8.52-6.6-8.52-2.64,0-4.92,1.72-7.16,4.16a5.728,5.728,0,0,0-6-4.16c-2.6,0-4.88,1.64-6.76,3.72h-.12l-.32-3.16h-3Zm45.8.52a12.928,12.928,0,0,0,7.2-2.24l-1.32-2.4a9.363,9.363,0,0,1-5.44,1.72c-4.12,0-6.96-2.96-7.2-7.6H38.18a14.21,14.21,0,0,0,.16-2.08c0-6.2-3.12-10.2-8.64-10.2-5.04,0-9.8,4.4-9.8,11.44C19.9,55.32,24.54,59.52,30.3,59.52ZM23.5,46.4c.44-4.28,3.16-6.76,6.24-6.76,3.4,0,5.4,2.36,5.4,6.76ZM43.7,59h3.64V43.24c2.2-2.2,3.72-3.32,5.96-3.32,2.88,0,4.12,1.72,4.12,5.8V59h3.64V45.24c0-5.56-2.08-8.52-6.64-8.52-2.96,0-5.2,1.64-7.28,3.68h-.12l-.32-3.12h-3Zm31.28.52a13.674,13.674,0,0,0,4-.8L78.26,56a7.7,7.7,0,0,1-2.48.56c-2.52,0-3.36-1.52-3.36-4.2V40.24H78.3V37.28H72.42V31.2H69.38l-.44,6.08-3.4.2v2.76h3.24V52.28C68.78,56.64,70.34,59.52,74.98,59.52ZM92.5,59h17.36V55.84H96.22V45.16h11.12V42H96.22V32.8h13.2V29.68H92.5Zm27.44,0h4.24l7.72-21.72h-3.6l-4.12,12.36c-.64,2.12-1.36,4.36-2,6.4h-.16c-.68-2.04-1.36-4.28-2.04-6.4L115.9,37.28h-3.8Zm24.76.52a12.928,12.928,0,0,0,7.2-2.24l-1.32-2.4a9.363,9.363,0,0,1-5.44,1.72c-4.12,0-6.96-2.96-7.2-7.6h14.64a14.21,14.21,0,0,0,.16-2.08c0-6.2-3.12-10.2-8.64-10.2-5.04,0-9.8,4.4-9.8,11.44C134.3,55.32,138.94,59.52,144.7,59.52ZM137.9,46.4c.44-4.28,3.16-6.76,6.24-6.76,3.4,0,5.4,2.36,5.4,6.76ZM158.1,59h3.64V43.24c2.2-2.2,3.72-3.32,5.96-3.32,2.88,0,4.12,1.72,4.12,5.8V59h3.64V45.24c0-5.56-2.08-8.52-6.64-8.52-2.96,0-5.2,1.64-7.28,3.68h-.12l-.32-3.12h-3Zm31.28.52a13.674,13.674,0,0,0,4-.8L192.66,56a7.7,7.7,0,0,1-2.48.56c-2.52,0-3.36-1.52-3.36-4.2V40.24h5.88V37.28h-5.88V31.2h-3.04l-.44,6.08-3.4.2v2.76h3.24V52.28C183.18,56.64,184.74,59.52,189.38,59.52Zm9.76-9.36h2.52l.48-16.96.12-4.16h-3.72l.12,4.16Zm1.24,9.36a2.619,2.619,0,0,0,2.64-2.76,2.647,2.647,0,1,0-5.28,0A2.642,2.642,0,0,0,200.38,59.52Z" transform="translate(779 960)" fill="#fff"/>
    <line id="線_1" data-name="線 1" x2="53" y2="103" transform="translate(489 924.5)" fill="none" stroke="#fff" stroke-width="3"/>
    <line id="線_2" data-name="線 2" x1="53" y2="103" transform="translate(1016 924.5)" fill="none" stroke="#fff" stroke-width="3"/>
  </g>
</svg>
