<svg xmlns="http://www.w3.org/2000/svg" width="234.464" height="16.115" viewBox="0 0 234.464 16.115">
  <path id="パス_671" data-name="パス 671" d="M14.9-10q.048,0,.048.1t-.048.1a1.806,1.806,0,0,0-1.68,1.376L9.888-.016q-.016.064-.176.064a.208.208,0,0,1-.176-.064l-2.08-4.5L5.68-.016Q5.664.048,5.5.048a.208.208,0,0,1-.176-.064L1.344-8.672a2.711,2.711,0,0,0-.584-.9A1.129,1.129,0,0,0,0-9.808q-.048,0-.048-.1T0-10l.544.016q.448.032.752.032.656,0,1.36-.032Q2.9-10,3.28-10q.048,0,.048.1t-.048.1a1.658,1.658,0,0,0-.68.1.367.367,0,0,0-.216.36,1.816,1.816,0,0,0,.192.672l3.312,7.1,1.36-3.408-1.712-3.7a2.67,2.67,0,0,0-.56-.872,1,1,0,0,0-.7-.264q-.048,0-.048-.1t.048-.1l.544.016q.384.032.688.032.544,0,1.056-.032Q6.72-10,6.992-10q.048,0,.048.1t-.048.1a1.053,1.053,0,0,0-.408.056.2.2,0,0,0-.12.2,3.4,3.4,0,0,0,.3.88L7.856-6.336,8.72-8.512a2.109,2.109,0,0,0,.208-.8q0-.5-.64-.5-.032,0-.032-.1t.032-.1l.352.016a6.525,6.525,0,0,0,.7.032q.3,0,.72-.032L10.7-10q.032,0,.032.1t-.032.1a1.466,1.466,0,0,0-.928.312,2.418,2.418,0,0,0-.688,1.064L8.064-5.888,10.1-1.568l2.736-6.9a1.826,1.826,0,0,0,.128-.608q0-.736-1.152-.736-.048,0-.048-.1t.048-.1l.688.016q.544.032.976.032.336,0,.752-.032ZM22.512-.192q.048,0,.048.1t-.048.1q-.4,0-.624-.016l-.864-.016-.9.016Q19.9,0,19.536,0q-.048,0-.048-.1t.048-.1a1.051,1.051,0,0,0,.784-.216,1.42,1.42,0,0,0,.192-.888v-2.5a2.245,2.245,0,0,0-.352-1.392,1.3,1.3,0,0,0-1.088-.448,2.123,2.123,0,0,0-.968.248,3.158,3.158,0,0,0-.888.68V-1.3a1.42,1.42,0,0,0,.192.888,1.079,1.079,0,0,0,.8.216q.048,0,.048.1t-.048.1q-.4,0-.624-.016L16.72-.032l-.9.016Q15.6,0,15.232,0q-.048,0-.048-.1t.048-.1a1.051,1.051,0,0,0,.784-.216,1.42,1.42,0,0,0,.192-.888v-8.24a2.239,2.239,0,0,0-.112-.832.391.391,0,0,0-.384-.256,1.938,1.938,0,0,0-.7.224h-.016a.119.119,0,0,1-.1-.08q-.04-.08.024-.112l2.1-1.008h.048a.153.153,0,0,1,.112.048.138.138,0,0,1,.048.1v6.464a3.292,3.292,0,0,1,2.464-1.36,1.773,1.773,0,0,1,1.36.512,2.049,2.049,0,0,1,.48,1.456V-1.3a1.42,1.42,0,0,0,.192.888A1.079,1.079,0,0,0,22.512-.192Zm6.976-.672a.078.078,0,0,1,.08.072.085.085,0,0,1-.048.1L27.872.1a.318.318,0,0,1-.144.032q-.208,0-.376-.28a2,2,0,0,1-.232-.76l-.8.528a2.99,2.99,0,0,1-.7.384,1.95,1.95,0,0,1-.664.112A1.335,1.335,0,0,1,24.016-.2a1.034,1.034,0,0,1-.336-.792,1.075,1.075,0,0,1,.408-.856,4.578,4.578,0,0,1,1.3-.68L27.1-3.152V-4.208A2.928,2.928,0,0,0,26.856-5.6a.793.793,0,0,0-.728-.432.932.932,0,0,0-.8.368,1.931,1.931,0,0,0-.352.832q-.1.7-.656.7a.587.587,0,0,1-.432-.144.479.479,0,0,1-.144-.352,1.082,1.082,0,0,1,.5-.8,4.254,4.254,0,0,1,1.216-.656,3.782,3.782,0,0,1,1.256-.256,1.26,1.26,0,0,1,1.016.424,1.842,1.842,0,0,1,.36,1.224v2.96a1.619,1.619,0,0,0,.152.8.51.51,0,0,0,.472.256,1.973,1.973,0,0,0,.736-.192ZM27.1-1.152V-2.928l-1.344.544a1.739,1.739,0,0,0-.656.392.807.807,0,0,0-.224.584.856.856,0,0,0,.248.632.856.856,0,0,0,.632.248,1.435,1.435,0,0,0,.72-.24Zm7.472.272q.048,0,.08.072t-.016.1a4.8,4.8,0,0,1-1.072.688,2.547,2.547,0,0,1-1.024.208A1.876,1.876,0,0,1,31.432-.12a1.177,1.177,0,0,1-.44-1.032V-4.88a1.858,1.858,0,0,0-.064-.568A.385.385,0,0,0,30.7-5.7a1.629,1.629,0,0,0-.536-.064q-.048,0-.048-.112t.048-.112a1.847,1.847,0,0,0,1.1-.336,1.352,1.352,0,0,0,.52-.9q.016-.048.128-.048t.112.048V-6q.768-.016,2.192-.16.048,0,.08.112a.933.933,0,0,1,.032.256.835.835,0,0,1-.048.28q-.048.136-.112.12a10.835,10.835,0,0,0-2.144-.24V-1.7a1.117,1.117,0,0,0,1.248,1.28,2.125,2.125,0,0,0,1.28-.448ZM40.9-8.144a.764.764,0,0,1-.552-.192.719.719,0,0,1-.2-.544.677.677,0,0,1,.2-.512.764.764,0,0,1,.552-.192.714.714,0,0,1,.528.192.692.692,0,0,1,.192.512.736.736,0,0,1-.192.544A.714.714,0,0,1,40.9-8.144ZM39.52,0q-.048,0-.048-.1t.048-.1A1.051,1.051,0,0,0,40.3-.408,1.42,1.42,0,0,0,40.5-1.3V-4.272a2.18,2.18,0,0,0-.112-.816.4.4,0,0,0-.4-.256,1.639,1.639,0,0,0-.7.224h-.016q-.064,0-.1-.08t.032-.112L41.328-6.3l.064-.016a.166.166,0,0,1,.1.048.132.132,0,0,1,.056.1q0,.112-.016.64T41.52-4.288V-1.3a2.511,2.511,0,0,0,.072.7.483.483,0,0,0,.28.32,1.684,1.684,0,0,0,.624.088q.048,0,.048.1T42.5,0q-.4,0-.624-.016l-.864-.016-.9.016Q39.888,0,39.52,0ZM44.7-5.248a1.161,1.161,0,0,0,.352.88,4.726,4.726,0,0,0,1.056.7q.56.288.88.5a1.853,1.853,0,0,1,.544.552,1.477,1.477,0,0,1,.224.824A1.848,1.848,0,0,1,47.152-.4a2.344,2.344,0,0,1-1.68.576A2.76,2.76,0,0,1,44.68.064,2.838,2.838,0,0,1,43.92-.3a.215.215,0,0,1-.1-.192l-.032-1.3q0-.048.088-.056t.1.04a2.877,2.877,0,0,0,.8,1.24,1.722,1.722,0,0,0,1.152.44,1.058,1.058,0,0,0,.72-.224.846.846,0,0,0,.256-.672,1.3,1.3,0,0,0-.36-.984,4.651,4.651,0,0,0-1.08-.712,7.485,7.485,0,0,1-.848-.48,1.88,1.88,0,0,1-.52-.544,1.508,1.508,0,0,1-.216-.832,1.53,1.53,0,0,1,.648-1.336,2.641,2.641,0,0,1,1.56-.456,3.014,3.014,0,0,1,1.2.24q.144.064.144.176,0,.336-.016.528l-.016.688q0,.032-.1.032t-.1-.032a1.146,1.146,0,0,0-.536-.9,1.855,1.855,0,0,0-1.144-.408.9.9,0,0,0-.608.192A.759.759,0,0,0,44.7-5.248ZM57.216-.88q.048,0,.08.072t-.016.1a4.8,4.8,0,0,1-1.072.688,2.547,2.547,0,0,1-1.024.208A1.876,1.876,0,0,1,54.072-.12a1.177,1.177,0,0,1-.44-1.032V-4.88a1.858,1.858,0,0,0-.064-.568.385.385,0,0,0-.232-.248A1.629,1.629,0,0,0,52.8-5.76q-.048,0-.048-.112t.048-.112a1.847,1.847,0,0,0,1.1-.336,1.352,1.352,0,0,0,.52-.9q.016-.048.128-.048t.112.048V-6q.768-.016,2.192-.16.048,0,.08.112a.933.933,0,0,1,.032.256.835.835,0,0,1-.048.28q-.048.136-.112.12a10.835,10.835,0,0,0-2.144-.24V-1.7A1.117,1.117,0,0,0,55.9-.416a2.125,2.125,0,0,0,1.28-.448Zm8.064.688q.048,0,.048.1T65.28,0q-.4,0-.624-.016l-.864-.016-.9.016Q62.672,0,62.3,0q-.048,0-.048-.1t.048-.1a1.051,1.051,0,0,0,.784-.216A1.42,1.42,0,0,0,63.28-1.3v-2.5a2.245,2.245,0,0,0-.352-1.392,1.3,1.3,0,0,0-1.088-.448,2.123,2.123,0,0,0-.968.248,3.158,3.158,0,0,0-.888.68V-1.3a1.42,1.42,0,0,0,.192.888,1.079,1.079,0,0,0,.8.216q.048,0,.048.1t-.048.1q-.4,0-.624-.016l-.864-.016-.9.016Q58.368,0,58,0q-.048,0-.048-.1T58-.192a1.051,1.051,0,0,0,.784-.216,1.42,1.42,0,0,0,.192-.888v-8.24a2.239,2.239,0,0,0-.112-.832.391.391,0,0,0-.384-.256,1.938,1.938,0,0,0-.7.224H57.76a.119.119,0,0,1-.1-.08q-.04-.08.024-.112l2.1-1.008h.048a.153.153,0,0,1,.112.048.138.138,0,0,1,.048.1v6.464a3.292,3.292,0,0,1,2.464-1.36,1.773,1.773,0,0,1,1.36.512,2.049,2.049,0,0,1,.48,1.456V-1.3a1.42,1.42,0,0,0,.192.888A1.079,1.079,0,0,0,65.28-.192Zm6.144-.736a.111.111,0,0,1,.088.056.085.085,0,0,1,.008.1,3.471,3.471,0,0,1-2.368.96,2.967,2.967,0,0,1-1.616-.424,2.77,2.77,0,0,1-1.024-1.136A3.4,3.4,0,0,1,66.16-2.9a3.375,3.375,0,0,1,.456-1.728,3.373,3.373,0,0,1,1.24-1.24,3.375,3.375,0,0,1,1.728-.456A1.957,1.957,0,0,1,71-5.848,1.794,1.794,0,0,1,71.488-4.5q0,.432-.192.432l-3.952.016q-.032.352-.032.544a3.562,3.562,0,0,0,.656,2.24,2.21,2.21,0,0,0,1.856.848,2.368,2.368,0,0,0,.808-.12,4.6,4.6,0,0,0,.776-.392ZM69.04-6a1.454,1.454,0,0,0-1.1.456,2.322,2.322,0,0,0-.56,1.272l2.912-.064a2,2,0,0,0-.328-1.24A1.1,1.1,0,0,0,69.04-6Zm12.24.368a3.281,3.281,0,0,1,2.056.856,2.438,2.438,0,0,1,.776,1.832,2.829,2.829,0,0,1-.432,1.536A3.024,3.024,0,0,1,82.5-.328a3.531,3.531,0,0,1-1.672.392q-.512,0-1.12-.048Q79.488,0,79.184-.016T78.5-.032l-1.1.016q-.3.016-.816.016-.032,0-.032-.1t.032-.1a3.072,3.072,0,0,0,.856-.088.591.591,0,0,0,.384-.312,1.773,1.773,0,0,0,.1-.7V-8.7a1.907,1.907,0,0,0-.1-.7.561.561,0,0,0-.368-.312,2.982,2.982,0,0,0-.848-.088q-.048,0-.048-.1t.048-.1l.784.016q.672.032,1.1.032.288,0,.536-.016T79.456-10q.5-.048.944-.048a3.155,3.155,0,0,1,2.064.576,1.9,1.9,0,0,1,.688,1.536,2.088,2.088,0,0,1-.5,1.368A3.235,3.235,0,0,1,81.28-5.632Zm-1.2-4.16a1.881,1.881,0,0,0-.6.072.506.506,0,0,0-.3.312,2.107,2.107,0,0,0-.1.736v3.04l.72.016a2.074,2.074,0,0,0,1.64-.608,2.331,2.331,0,0,0,.536-1.6,2.112,2.112,0,0,0-.464-1.432A1.8,1.8,0,0,0,80.08-9.792ZM80.592-.24A2.235,2.235,0,0,0,82.3-.84a2.4,2.4,0,0,0,.56-1.7,2.753,2.753,0,0,0-.7-1.96,2.56,2.56,0,0,0-1.928-.76q-.448-.016-1.152.032V-1.3a1.337,1.337,0,0,0,.12.624.721.721,0,0,0,.44.328A3.24,3.24,0,0,0,80.592-.24Zm7.376-1.12a1.8,1.8,0,0,0,.088.656.487.487,0,0,0,.336.28,3.118,3.118,0,0,0,.792.072H90.72A2.2,2.2,0,0,0,92.3-.936,2.86,2.86,0,0,0,93.1-2.528q0-.048.088-.04t.088.056A22.249,22.249,0,0,0,93.136-.24a.282.282,0,0,1-.048.184A.25.25,0,0,1,92.9,0H85.472q-.032,0-.032-.1t.032-.1a3.352,3.352,0,0,0,.864-.08A.535.535,0,0,0,86.7-.584a1.976,1.976,0,0,0,.1-.712V-8.7a1.907,1.907,0,0,0-.1-.7.561.561,0,0,0-.368-.312,3.06,3.06,0,0,0-.864-.088q-.032,0-.032-.1t.032-.1l.8.016q.672.032,1.1.032.464,0,1.136-.032L89.3-10q.032,0,.032.1t-.032.1a3.072,3.072,0,0,0-.856.088.56.56,0,0,0-.376.32,1.976,1.976,0,0,0-.1.712ZM102.64-8.192a1.777,1.777,0,0,0-.36-1.208,1.324,1.324,0,0,0-1.048-.408q-.048,0-.048-.1t.048-.1l.7.016q.544.032.912.032.3,0,.816-.032l.672-.016q.032,0,.032.1t-.032.1a1.145,1.145,0,0,0-.96.408,1.932,1.932,0,0,0-.32,1.208v4.528a3.821,3.821,0,0,1-1.04,2.84A3.779,3.779,0,0,1,99.232.208,4.413,4.413,0,0,1,97.16-.256a3.369,3.369,0,0,1-1.384-1.32,3.934,3.934,0,0,1-.5-2.008V-8.7a1.907,1.907,0,0,0-.1-.7.561.561,0,0,0-.368-.312,3.06,3.06,0,0,0-.864-.088q-.032,0-.032-.1t.032-.1l.8.016q.7.032,1.1.032.448,0,1.152-.032L97.76-10q.048,0,.048.1t-.048.1a2.745,2.745,0,0,0-.848.1.582.582,0,0,0-.368.328,1.976,1.976,0,0,0-.1.712v4.528a4.341,4.341,0,0,0,.832,2.872,2.91,2.91,0,0,0,2.352.984,2.815,2.815,0,0,0,2.216-.888,3.585,3.585,0,0,0,.792-2.472Zm9.7,5.792q0-.048.1-.04t.1.056a15.619,15.619,0,0,0-.144,2.144.253.253,0,0,1-.056.184.28.28,0,0,1-.2.056H105.36q-.032,0-.032-.1t.032-.1a3.352,3.352,0,0,0,.864-.08.535.535,0,0,0,.368-.312,1.976,1.976,0,0,0,.1-.712V-8.7a1.907,1.907,0,0,0-.1-.7.561.561,0,0,0-.368-.312,3.06,3.06,0,0,0-.864-.088q-.032,0-.032-.1t.032-.1h6.5a.127.127,0,0,1,.144.144l.032,2q0,.048-.088.048t-.088-.048a2.058,2.058,0,0,0-.592-1.328,1.821,1.821,0,0,0-1.3-.464h-.88a1.622,1.622,0,0,0-.992.208,1.038,1.038,0,0,0-.24.8v3.264h1.84a1.945,1.945,0,0,0,1.16-.272,1.032,1.032,0,0,0,.36-.88q0-.032.1-.032t.1.032L111.392-5.2q0,.464.016.7l.016.8q0,.032-.1.032t-.1-.032a1.264,1.264,0,0,0-.368-1.016,1.849,1.849,0,0,0-1.2-.312h-1.808V-1.36a1.556,1.556,0,0,0,.1.624.564.564,0,0,0,.336.3,2.285,2.285,0,0,0,.736.088h1.136a1.955,1.955,0,0,0,1.408-.536A2.854,2.854,0,0,0,112.336-2.4Zm16.3,2.208q.048,0,.048.1t-.048.1q-.512,0-.8-.016L126.7-.032l-1.232.016Q125.2,0,124.72,0q-.048,0-.048-.1t.048-.1a3.63,3.63,0,0,0,.9-.08.562.562,0,0,0,.384-.312,1.836,1.836,0,0,0,.1-.712V-5.024h-5.968V-1.3a1.836,1.836,0,0,0,.1.712.562.562,0,0,0,.384.312,3.63,3.63,0,0,0,.9.08q.032,0,.032.1t-.032.1q-.512,0-.8-.016l-1.2-.016-1.12.016Q118.128,0,117.6,0q-.032,0-.032-.1t.032-.1a3.541,3.541,0,0,0,.888-.08.562.562,0,0,0,.384-.312,1.836,1.836,0,0,0,.1-.712V-8.7a1.773,1.773,0,0,0-.1-.7.591.591,0,0,0-.384-.312,3.151,3.151,0,0,0-.872-.088q-.032,0-.032-.1t.032-.1l.816.016q.672.032,1.1.032.48,0,1.216-.032l.784-.016q.032,0,.032.1t-.032.1a3.06,3.06,0,0,0-.9.1.614.614,0,0,0-.392.328,1.836,1.836,0,0,0-.1.712v3.3h5.968v-3.3a1.836,1.836,0,0,0-.1-.712.614.614,0,0,0-.392-.328,3.06,3.06,0,0,0-.9-.1q-.048,0-.048-.1t.048-.1l.752.016q.7.032,1.232.032.432,0,1.136-.032l.8-.016q.048,0,.048.1t-.048.1a3.231,3.231,0,0,0-.888.088.591.591,0,0,0-.384.312,1.773,1.773,0,0,0-.1.7V-1.3a1.836,1.836,0,0,0,.1.712.562.562,0,0,0,.384.312A3.541,3.541,0,0,0,128.64-.192Zm9.728-8a1.777,1.777,0,0,0-.36-1.208,1.324,1.324,0,0,0-1.048-.408q-.048,0-.048-.1t.048-.1l.7.016q.544.032.912.032.3,0,.816-.032l.672-.016q.032,0,.032.1t-.032.1a1.145,1.145,0,0,0-.96.408,1.932,1.932,0,0,0-.32,1.208v4.528a3.821,3.821,0,0,1-1.04,2.84A3.779,3.779,0,0,1,134.96.208a4.413,4.413,0,0,1-2.072-.464,3.369,3.369,0,0,1-1.384-1.32,3.934,3.934,0,0,1-.5-2.008V-8.7a1.907,1.907,0,0,0-.1-.7.561.561,0,0,0-.368-.312,3.06,3.06,0,0,0-.864-.088q-.032,0-.032-.1t.032-.1l.8.016q.7.032,1.1.032.448,0,1.152-.032l.752-.016q.048,0,.048.1t-.048.1a2.746,2.746,0,0,0-.848.1.582.582,0,0,0-.368.328,1.976,1.976,0,0,0-.1.712v4.528a4.341,4.341,0,0,0,.832,2.872,2.91,2.91,0,0,0,2.352.984,2.815,2.815,0,0,0,2.216-.888,3.585,3.585,0,0,0,.792-2.472ZM151.712-10q.048,0,.048.1t-.048.1a1.162,1.162,0,0,0-.968.392,1.957,1.957,0,0,0-.312,1.224V.192q0,.048-.08.064A.121.121,0,0,1,150.24.24l-7.456-8.928-.048-.064v6.96a1.959,1.959,0,0,0,.3,1.216,1.131,1.131,0,0,0,.944.384q.048,0,.048.1t-.048.1q-.384,0-.608-.016l-.816-.016-.848.016q-.24.016-.688.016-.032,0-.032-.1t.032-.1a1.214,1.214,0,0,0,1-.384,1.921,1.921,0,0,0,.312-1.216V-9.168a1.921,1.921,0,0,0-1.328-.64q-.048,0-.048-.1t.048-.1l.592.016q.192.016.544.016l.752-.016a2.822,2.822,0,0,1,.336-.016.253.253,0,0,1,.184.056,1.932,1.932,0,0,1,.184.248q.192.288.384.528l6.048,7.328V-8.192a2.081,2.081,0,0,0-.288-1.224,1.093,1.093,0,0,0-.944-.392q-.032,0-.032-.1t.032-.1l.624.016q.512.032.816.032t.816-.032Zm3.44.3a2.067,2.067,0,0,0-1.528.536,3.375,3.375,0,0,0-.776,1.752q-.016.048-.1.04t-.088-.04q.064-.448.144-1.44t.08-1.5q0-.08.1-.08t.1.08q0,.352.864.352,1.376.048,3.216.048.944,0,2-.032L160.24-10a3.365,3.365,0,0,0,.856-.08.49.49,0,0,0,.36-.32.086.086,0,0,1,.1-.064q.08,0,.08.064-.048.464-.1,1.432t-.048,1.56q0,.032-.088.032t-.1-.032a2.72,2.72,0,0,0-.568-1.76,2.066,2.066,0,0,0-1.56-.528,4.622,4.622,0,0,0-.92.064.531.531,0,0,0-.384.272,1.651,1.651,0,0,0-.1.688V-1.3a1.828,1.828,0,0,0,.1.72.582.582,0,0,0,.416.3,4.446,4.446,0,0,0,1,.08q.032,0,.032.1t-.032.1q-.544,0-.864-.016l-1.264-.016-1.216.016q-.32.016-.9.016-.032,0-.032-.1t.032-.1a4.461,4.461,0,0,0,.992-.08.607.607,0,0,0,.432-.312,1.717,1.717,0,0,0,.112-.712V-8.7a1.54,1.54,0,0,0-.1-.664.537.537,0,0,0-.384-.264A4.737,4.737,0,0,0,155.152-9.7Zm14.736,7.3q0-.048.1-.04t.1.056a15.62,15.62,0,0,0-.144,2.144.253.253,0,0,1-.056.184.28.28,0,0,1-.2.056h-6.768q-.032,0-.032-.1t.032-.1a3.352,3.352,0,0,0,.864-.08.535.535,0,0,0,.368-.312,1.976,1.976,0,0,0,.1-.712V-8.7a1.907,1.907,0,0,0-.1-.7.561.561,0,0,0-.368-.312,3.06,3.06,0,0,0-.864-.088q-.032,0-.032-.1t.032-.1h6.5a.127.127,0,0,1,.144.144l.032,2q0,.048-.088.048t-.088-.048a2.058,2.058,0,0,0-.592-1.328,1.821,1.821,0,0,0-1.3-.464h-.88a1.622,1.622,0,0,0-.992.208,1.038,1.038,0,0,0-.24.8v3.264h1.84a1.945,1.945,0,0,0,1.16-.272,1.032,1.032,0,0,0,.36-.88q0-.032.1-.032t.1.032L168.944-5.2q0,.464.016.7l.016.8q0,.032-.1.032t-.1-.032a1.264,1.264,0,0,0-.368-1.016,1.849,1.849,0,0,0-1.2-.312h-1.808V-1.36a1.556,1.556,0,0,0,.1.624.564.564,0,0,0,.336.3,2.285,2.285,0,0,0,.736.088h1.136a1.955,1.955,0,0,0,1.408-.536A2.854,2.854,0,0,0,169.888-2.4ZM181.856-.192q.048,0,.048.1t-.048.1h-2.192q-.384,0-1.448-1.3t-2.6-3.64a4.414,4.414,0,0,1-.8.08q-.08,0-.752-.048V-1.3a1.966,1.966,0,0,0,.1.72.537.537,0,0,0,.368.3,3.352,3.352,0,0,0,.864.08q.048,0,.048.1t-.048.1q-.512,0-.784-.016l-1.136-.016-1.1.016q-.3.016-.816.016-.032,0-.032-.1t.032-.1a3.352,3.352,0,0,0,.864-.08.56.56,0,0,0,.376-.312,1.836,1.836,0,0,0,.1-.712V-8.7a1.907,1.907,0,0,0-.1-.7.561.561,0,0,0-.368-.312,2.982,2.982,0,0,0-.848-.088q-.048,0-.048-.1t.048-.1l.784.016q.672.032,1.1.032.336,0,.64-.016T174.64-10q.592-.048,1.1-.048a3.118,3.118,0,0,1,1.992.568,1.853,1.853,0,0,1,.712,1.528,2.631,2.631,0,0,1-.5,1.568,3.442,3.442,0,0,1-1.336,1.1q1.344,1.936,2.248,3.024A8.528,8.528,0,0,0,180.472-.68,2.454,2.454,0,0,0,181.856-.192Zm-7.792-5.1a8.869,8.869,0,0,0,.944.048,2.294,2.294,0,0,0,1.712-.536,2.35,2.35,0,0,0,.512-1.672,2.512,2.512,0,0,0-.528-1.8,2.039,2.039,0,0,0-1.52-.536,1.275,1.275,0,0,0-.872.232,1.21,1.21,0,0,0-.248.888Zm16.512-1.088a2.282,2.282,0,0,1,1.224.352,2.465,2.465,0,0,1,.9,1.024,3.464,3.464,0,0,1,.336,1.568A3.665,3.665,0,0,1,192.5-1.4a3.342,3.342,0,0,1-1.336,1.216,3.578,3.578,0,0,1-1.584.392,4.343,4.343,0,0,1-.88-.08,2.82,2.82,0,0,1-.768-.288V3.1a1.56,1.56,0,0,0,.12.7.671.671,0,0,0,.448.312,4.265,4.265,0,0,0,1.016.088q.032,0,.032.1t-.032.1q-.576,0-.9-.016l-1.184-.016-.88.016q-.224.016-.608.016-.048,0-.048-.1t.048-.1a1.675,1.675,0,0,0,.632-.088.484.484,0,0,0,.272-.312,2.5,2.5,0,0,0,.072-.7V-4.4a1.985,1.985,0,0,0-.12-.808.444.444,0,0,0-.44-.248,2.188,2.188,0,0,0-.832.24h-.016a.119.119,0,0,1-.1-.08q-.04-.08.024-.1l1.872-.9a.258.258,0,0,1,.112-.032q.208,0,.352.328a2.577,2.577,0,0,1,.16.936,4.971,4.971,0,0,1,1.32-1.008A2.952,2.952,0,0,1,190.576-6.384Zm-.544,6.24a1.588,1.588,0,0,0,1.352-.736,3.535,3.535,0,0,0,.52-2.064A3.21,3.21,0,0,0,191.32-5a1.834,1.834,0,0,0-1.5-.728,2.014,2.014,0,0,0-.992.248,3.88,3.88,0,0,0-.9.712v3.632a2.913,2.913,0,0,0,.9.744A2.609,2.609,0,0,0,190.032-.144ZM198.1-6.32a1.253,1.253,0,0,1,.68.208.592.592,0,0,1,.328.5.511.511,0,0,1-.152.376.551.551,0,0,1-.408.152.54.54,0,0,1-.272-.064,1.588,1.588,0,0,1-.256-.192,1.9,1.9,0,0,0-.28-.192.623.623,0,0,0-.3-.064.714.714,0,0,0-.424.16,5.65,5.65,0,0,0-.7.7V-1.3a1.568,1.568,0,0,0,.12.7.659.659,0,0,0,.44.32,3.978,3.978,0,0,0,.976.088q.048,0,.048.1t-.048.1q-.528,0-.848-.016l-1.2-.016-.864.016Q194.72,0,194.336,0q-.048,0-.048-.1t.048-.1a1.618,1.618,0,0,0,.616-.088.486.486,0,0,0,.272-.32,2.511,2.511,0,0,0,.072-.7V-4.432a1.719,1.719,0,0,0-.128-.768.437.437,0,0,0-.416-.24,2.821,2.821,0,0,0-.848.24h-.016a.1.1,0,0,1-.1-.072.07.07,0,0,1,.032-.1l1.92-.928.1-.016q.16,0,.312.36a2.625,2.625,0,0,1,.168.936,6.832,6.832,0,0,1,1.04-1.024A1.284,1.284,0,0,1,198.1-6.32ZM203.024.208a3,3,0,0,1-1.656-.456,3.084,3.084,0,0,1-1.1-1.232,3.69,3.69,0,0,1-.392-1.688,3,3,0,0,1,.512-1.768,3.179,3.179,0,0,1,1.3-1.088,3.886,3.886,0,0,1,1.624-.36,2.965,2.965,0,0,1,1.656.464,3.11,3.11,0,0,1,1.1,1.224,3.518,3.518,0,0,1,.384,1.608,3.212,3.212,0,0,1-.464,1.736A3.167,3.167,0,0,1,204.736-.2,3.653,3.653,0,0,1,203.024.208Zm.464-.3a1.5,1.5,0,0,0,1.288-.624,3.232,3.232,0,0,0,.456-1.9,4.71,4.71,0,0,0-.32-1.792,2.855,2.855,0,0,0-.88-1.216,1.994,1.994,0,0,0-1.248-.432,1.478,1.478,0,0,0-1.264.608,2.968,2.968,0,0,0-.448,1.776,5.09,5.09,0,0,0,.312,1.816,3.152,3.152,0,0,0,.856,1.3A1.849,1.849,0,0,0,203.488-.1Zm5.584-8.048a.764.764,0,0,1-.552-.192.719.719,0,0,1-.2-.544.677.677,0,0,1,.2-.512.764.764,0,0,1,.552-.192.714.714,0,0,1,.528.192.692.692,0,0,1,.192.512.736.736,0,0,1-.192.544A.714.714,0,0,1,209.072-8.144Zm.656,1.968q0,.112-.016.64T209.7-4.288V.768a6.144,6.144,0,0,1-.216,1.784,2.584,2.584,0,0,1-.72,1.16,4.242,4.242,0,0,1-1.416.8q-.032.016-.072-.072t-.008-.1a2.016,2.016,0,0,0,1.1-1.072,5.538,5.538,0,0,0,.32-2.128V-4.272a2.18,2.18,0,0,0-.112-.816.391.391,0,0,0-.384-.256,1.639,1.639,0,0,0-.7.224h-.016a.119.119,0,0,1-.1-.08q-.04-.08.024-.112l2.144-.992.048-.016a.129.129,0,0,1,.1.048A.15.15,0,0,1,209.728-6.176ZM216.96-.928a.111.111,0,0,1,.088.056.085.085,0,0,1,.008.1,3.471,3.471,0,0,1-2.368.96,2.967,2.967,0,0,1-1.616-.424,2.77,2.77,0,0,1-1.024-1.136A3.4,3.4,0,0,1,211.7-2.9a3.375,3.375,0,0,1,.456-1.728,3.373,3.373,0,0,1,1.24-1.24,3.375,3.375,0,0,1,1.728-.456,1.957,1.957,0,0,1,1.416.472,1.794,1.794,0,0,1,.488,1.352q0,.432-.192.432l-3.952.016q-.032.352-.032.544a3.562,3.562,0,0,0,.656,2.24,2.21,2.21,0,0,0,1.856.848,2.368,2.368,0,0,0,.808-.12,4.6,4.6,0,0,0,.776-.392ZM214.576-6a1.454,1.454,0,0,0-1.1.456,2.323,2.323,0,0,0-.56,1.272l2.912-.064a2,2,0,0,0-.328-1.24A1.1,1.1,0,0,0,214.576-6Zm6.7,6.192a3.144,3.144,0,0,1-1.744-.456,2.847,2.847,0,0,1-1.048-1.176,3.483,3.483,0,0,1-.344-1.52,3.048,3.048,0,0,1,.528-1.784,3.544,3.544,0,0,1,1.344-1.168,3.715,3.715,0,0,1,1.68-.408,2.908,2.908,0,0,1,1.3.288q.584.288.584.72a.53.53,0,0,1-.168.4.612.612,0,0,1-.44.16.824.824,0,0,1-.768-.576,1.322,1.322,0,0,0-.408-.512,1.163,1.163,0,0,0-.664-.16,1.541,1.541,0,0,0-1.344.7,3.2,3.2,0,0,0-.48,1.848,3.515,3.515,0,0,0,.656,2.2,2.36,2.36,0,0,0,2,.856,2.607,2.607,0,0,0,1.6-.512h.032a.114.114,0,0,1,.088.048q.04.048-.008.08a3.852,3.852,0,0,1-1.128.744A3.336,3.336,0,0,1,221.28.192ZM229.216-.88q.048,0,.08.072t-.016.1a4.8,4.8,0,0,1-1.072.688,2.548,2.548,0,0,1-1.024.208,1.876,1.876,0,0,1-1.112-.312,1.177,1.177,0,0,1-.44-1.032V-4.88a1.858,1.858,0,0,0-.064-.568.385.385,0,0,0-.232-.248,1.629,1.629,0,0,0-.536-.064q-.048,0-.048-.112t.048-.112a1.847,1.847,0,0,0,1.1-.336,1.352,1.352,0,0,0,.52-.9q.016-.048.128-.048t.112.048V-6q.768-.016,2.192-.16.048,0,.08.112a.933.933,0,0,1,.032.256.835.835,0,0,1-.048.28q-.048.136-.112.12a10.835,10.835,0,0,0-2.144-.24V-1.7A1.117,1.117,0,0,0,227.9-.416a2.125,2.125,0,0,0,1.28-.448Zm2.944-8.9a.526.526,0,0,0-.48.2,1.347,1.347,0,0,0-.176.536,1.345,1.345,0,0,1-.192.568.534.534,0,0,1-.48.216.543.543,0,0,1-.432-.184.607.607,0,0,1-.16-.408.97.97,0,0,1,.576-.808A2.635,2.635,0,0,1,232.192-10a2.5,2.5,0,0,1,1.592.5,1.7,1.7,0,0,1,.632,1.424,1.872,1.872,0,0,1-.184.848,2.5,2.5,0,0,1-.376.576q-.192.208-.72.7a3.8,3.8,0,0,0-.768.976,2.223,2.223,0,0,0-.224,1.008,4.824,4.824,0,0,0,.1.864q.016.048-.088.072t-.12-.024a5.41,5.41,0,0,1-.3-.984,4.708,4.708,0,0,1-.12-.936,1.61,1.61,0,0,1,.192-.824,3.94,3.94,0,0,1,.56-.712A3.9,3.9,0,0,0,233-7.3a1.964,1.964,0,0,0,.216-.984,1.807,1.807,0,0,0-.3-1.072A.9.9,0,0,0,232.16-9.776ZM231.968.176a.752.752,0,0,1-.544-.2.73.73,0,0,1-.208-.552.663.663,0,0,1,.208-.512.77.77,0,0,1,.544-.192.755.755,0,0,1,.544.184.686.686,0,0,1,.192.52.764.764,0,0,1-.192.552A.719.719,0,0,1,231.968.176Z" transform="translate(0.048 11.6)" fill="#017a94"/>
</svg>
