<svg xmlns="http://www.w3.org/2000/svg" xmlns:xlink="http://www.w3.org/1999/xlink" width="76" height="65" viewBox="0 0 76 65">
  <defs>
    <style>
      .cls-1 {
        fill: #fff;
        fill-rule: evenodd;
        filter: url(#filter);
      }
    </style>
    <filter id="filter" x="594" y="3474" width="76" height="65" filterUnits="userSpaceOnUse">
      <feGaussianBlur result="blur" stdDeviation="3.333" in="SourceAlpha"/>
      <feComposite result="composite"/>
      <feComposite result="composite-2"/>
      <feComposite result="composite-3"/>
      <feFlood result="flood" flood-color="#43dbf2" flood-opacity="0.75"/>
      <feComposite result="composite-4" operator="in" in2="composite-3"/>
      <feBlend result="blend" in2="SourceGraphic"/>
      <feBlend result="blend-2" in="SourceGraphic"/>
    </filter>
  </defs>
  <path id="twitter.svg" class="cls-1" d="M620.752,3528.67a32.264,32.264,0,0,0,32.724-32.25v-1.87a24.1,24.1,0,0,0,5.844-6.08,23.063,23.063,0,0,1-6.545,1.87,12.44,12.44,0,0,0,5.143-6.31,21.11,21.11,0,0,1-7.247,2.8,11.5,11.5,0,0,0-16.362-.46,11.339,11.339,0,0,0-3.272,10.98A32.7,32.7,0,0,1,607.2,3485.2a11.506,11.506,0,0,0,3.506,15.42,11.991,11.991,0,0,1-5.142-1.4v0.24a11.512,11.512,0,0,0,9.349,11.22,12.94,12.94,0,0,1-5.142.23,11.3,11.3,0,0,0,10.752,7.95,22.48,22.48,0,0,1-14.258,4.91,11.093,11.093,0,0,1-2.8-.24,32.549,32.549,0,0,0,17.3,5.14" transform="translate(-594 -3474)"/>
</svg>
