<svg xmlns="http://www.w3.org/2000/svg" width="24.312" height="24.31" viewBox="0 0 24.312 24.31">
  <defs>
    <style>
      .cls-1 {
        fill: #0078ce;
        fill-rule: evenodd;
      }
    </style>
  </defs>
  <path id="icon_instagram_02.svg" class="cls-1" d="M866.592,3730.87a6.28,6.28,0,1,0,6.278,6.28A6.313,6.313,0,0,0,866.592,3730.87Zm0,10.33a4.05,4.05,0,1,1,4.051-4.05A4.06,4.06,0,0,1,866.592,3741.2Zm6.481-11.95a1.42,1.42,0,1,0,1.418,1.42A1.387,1.387,0,0,0,873.073,3729.25Zm5.569,2.94a7.284,7.284,0,0,0-.607-2.94,4.479,4.479,0,0,0-1.317-2.22,5.949,5.949,0,0,0-2.126-1.42,13.3,13.3,0,0,0-2.937-.61h-5.063c-3.342,0-3.747,0-4.962.1a7.182,7.182,0,0,0-2.936.61,4.5,4.5,0,0,0-2.228,1.32,5.952,5.952,0,0,0-1.418,2.12,10.612,10.612,0,0,0-.506,3.04c-0.1,1.21-.1,1.62-0.1,4.96s0,3.75.1,4.96a7.234,7.234,0,0,0,.608,2.94,4.552,4.552,0,0,0,1.316,2.23,6.087,6.087,0,0,0,2.127,1.42,13.885,13.885,0,0,0,2.936.6h5.063c3.342,0,3.747,0,4.962-.1a7.19,7.19,0,0,0,2.937-.61,6.09,6.09,0,0,0,3.544-3.54,13.688,13.688,0,0,0,.607-2.94c0.1-1.21.1-1.62,0.1-4.96S878.744,3733.4,878.642,3732.19Zm-2.228,9.82a5.476,5.476,0,0,1-.4,2.23,4.083,4.083,0,0,1-2.33,2.33,5.833,5.833,0,0,1-2.227.4c-1.317.1-1.621,0.1-4.861,0.1s-3.645,0-4.86-.1a5.509,5.509,0,0,1-2.228-.4,3.953,3.953,0,0,1-2.329-2.33,5.779,5.779,0,0,1-.4-2.23c-0.1-1.31-.1-1.62-0.1-4.86s0-3.64.1-4.86a5.46,5.46,0,0,1,.4-2.23,4.236,4.236,0,0,1,.911-1.41,4.317,4.317,0,0,1,1.418-.92,5.838,5.838,0,0,1,2.228-.4c1.215-.1,1.62-0.1,4.86-0.1s3.646,0,4.861.1a5.5,5.5,0,0,1,2.227.4,4.306,4.306,0,0,1,1.418.92,4.239,4.239,0,0,1,.912,1.41,5.8,5.8,0,0,1,.4,2.23c0.1,1.32.1,1.62,0.1,4.86S876.516,3740.8,876.414,3742.01Z" transform="translate(-854.438 -3725)"/>
</svg>
