<svg xmlns="http://www.w3.org/2000/svg" width="126.19" height="52.375" viewBox="0 0 126.19 52.375">
  <defs>
    <style>
      .cls-1 {
        fill: #fff;
        fill-rule: evenodd;
      }
    </style>
  </defs>
  <path id="nav_text_news_current_sp.svg" class="cls-1" d="M1790.82,347.587v51.8h7.4V366.828l12.36,32.563h7.4v-51.8h-7.4v32.562l-12.36-32.562h-7.4Zm42.7,36.189h14.95v-9.621c0-2.886-.45-6.587-3.7-9.4a11.537,11.537,0,0,0-7.7-2.664,11.057,11.057,0,0,0-7.33,2.516,11.193,11.193,0,0,0-3.62,8.881V387.55c0,2.22.07,5.994,2.66,8.88a11.569,11.569,0,0,0,8.51,3.553,11.985,11.985,0,0,0,6.88-2.072c3.63-2.591,4.15-6.217,4.15-8.955v-0.3h-7.4a5.063,5.063,0,0,1-.67,2.516,3.272,3.272,0,0,1-2.96,1.554,3.74,3.74,0,0,1-2.81-1.036,4.191,4.191,0,0,1-.96-3.182v-4.736Zm0-5.7v-4.514a4.484,4.484,0,0,1,.88-2.96,3.675,3.675,0,0,1,2.89-1.258,3.85,3.85,0,0,1,2.74,1.036,3.788,3.788,0,0,1,1.04,2.886v4.81h-7.55Zm18.79-15.393,8.73,36.707h6.29l4.44-22.5h0.37l4.44,22.5h6.3l8.73-36.707h-7.4l-4.59,23.238-4.52-23.238h-6.14l-4.36,23.238-4.74-23.238h-7.55Zm64.68,9.917a10.939,10.939,0,0,0-2.81-7.549c-1.26-1.332-3.93-2.96-8.59-2.96a10.689,10.689,0,0,0-7.92,2.96,11.493,11.493,0,0,0-2.73,7.993,9.588,9.588,0,0,0,1.99,6.216,12.132,12.132,0,0,0,4.59,3.108l4.37,1.851c3.11,1.332,3.7,2.738,3.7,4.662a4.21,4.21,0,0,1-.96,2.96,3.72,3.72,0,0,1-2.89,1.258,4.416,4.416,0,0,1-3.03-1.184,4.311,4.311,0,0,1-.97-2.812h-7.4a11.49,11.49,0,0,0,2.74,7.622c1.48,1.629,4.15,3.257,8.59,3.257,4.66,0,7.4-1.776,8.95-3.7a11.419,11.419,0,0,0,2.37-7.178,10.969,10.969,0,0,0-1.85-6.735,12.352,12.352,0,0,0-4.74-3.552l-4.44-1.85a6.033,6.033,0,0,1-2.88-1.924,3.946,3.946,0,0,1-.74-2.368,3.466,3.466,0,0,1,3.62-3.7,3.708,3.708,0,0,1,2.67.962,4.248,4.248,0,0,1,1.11,2.664h7.25Z" transform="translate(-1790.81 -347.594)"/>
</svg>
