<svg xmlns="http://www.w3.org/2000/svg" width="178.32" height="67.66" viewBox="0 0 178.32 67.66">
  <defs>
    <style>
      .cls-1 {
        fill: #fff;
        fill-rule: evenodd;
      }
    </style>
  </defs>
  <path id="nav_text_special_current_sp.svg" class="cls-1" d="M1808.32,1031.94h7.4v-1.7c0-8.58-4.96-13.39-12.36-13.39-3.4,0-6.51.81-8.95,3.18a13.118,13.118,0,0,0-3.85,9.62v1.48a18.5,18.5,0,0,0,1.11,7.55c1.48,3.48,4.14,4.81,6.81,5.77l5.4,1.93a7.546,7.546,0,0,1,3.55,2.29c0.96,1.33,1.18,3.55,1.18,5.33v1.92c0,1.56-.07,3.7-1.18,5.11-0.59.74-1.85,1.85-4.66,1.85a5.081,5.081,0,0,1-4.07-1.7,7.9,7.9,0,0,1-1.19-4.59v-1.41h-7.4v1.7c0,0.67,0,5.55,2.37,8.74,1.7,2.36,5.11,4.51,10.36,4.51,4.29,0,7.7-1.41,9.62-3.4,2.15-2.22,3.56-6.22,3.56-11.47v-1.78c0-3.26-.23-6.22-2.22-8.96-1.93-2.66-4.52-3.62-6.74-4.44l-4.51-1.62a6.911,6.911,0,0,1-3.41-2.3c-0.96-1.4-1.18-3.99-1.18-5.4,0-1.7.15-3.77,1.55-5.25a4.936,4.936,0,0,1,3.63-1.41,4.7,4.7,0,0,1,3.92,1.7,7.792,7.792,0,0,1,1.26,4.74v1.4Zm22.42,0.74h-7.4v51.81h7.4v-18.06a10.155,10.155,0,0,0,2.44,2.15,8.717,8.717,0,0,0,4.89,1.4,7.145,7.145,0,0,0,5.47-2.14,8.5,8.5,0,0,0,2.15-6.22v-19.09c0-2.37-.08-5.41-1.7-7.63a7.393,7.393,0,0,0-6.15-2.81,8.31,8.31,0,0,0-4.51,1.26,9.543,9.543,0,0,0-2.52,2.59h-0.07v-3.26Zm0,11.55a4.922,4.922,0,0,1,1.18-3.7,3.86,3.86,0,0,1,2.82-1.19,3.259,3.259,0,0,1,2.59,1.11,4.266,4.266,0,0,1,.96,3.33v14.88a4.087,4.087,0,0,1-.96,2.96,3.259,3.259,0,0,1-2.59,1.11,3.9,3.9,0,0,1-2.82-1.18,4.946,4.946,0,0,1-1.18-3.7v-13.62Zm30.04,9.55h14.95v-9.63c0-2.88-.44-6.58-3.7-9.39a11.511,11.511,0,0,0-7.7-2.67,11.05,11.05,0,0,0-7.32,2.52,11.2,11.2,0,0,0-3.63,8.88v14.06c0,2.22.08,5.99,2.67,8.88a11.539,11.539,0,0,0,8.51,3.55,12.022,12.022,0,0,0,6.88-2.07c3.63-2.59,4.14-6.22,4.14-8.95v-0.3h-7.4a5.184,5.184,0,0,1-.66,2.52,3.279,3.279,0,0,1-2.96,1.55,3.751,3.751,0,0,1-2.82-1.04,4.217,4.217,0,0,1-.96-3.18v-4.73Zm0-5.7v-4.52a4.5,4.5,0,0,1,.89-2.96,3.661,3.661,0,0,1,2.89-1.26,3.853,3.853,0,0,1,2.73,1.04,3.789,3.789,0,0,1,1.04,2.89v4.81h-7.55Zm44.55-4.3v-0.22a12.4,12.4,0,0,0-2.96-8.29,11.592,11.592,0,0,0-8.51-3.18,10.956,10.956,0,0,0-7.62,2.74c-3.11,2.81-3.41,6.59-3.41,9.55v12.65c0,3.18-.07,6.74,2.89,9.77a11.872,11.872,0,0,0,8.51,3.18,11.474,11.474,0,0,0,7.4-2.51,10.626,10.626,0,0,0,3.7-8.37v-0.66h-7.4v0.07a4.983,4.983,0,0,1-.81,2.96,3.507,3.507,0,0,1-2.96,1.26,3.73,3.73,0,0,1-3.04-1.26,5.129,5.129,0,0,1-.89-3.11v-14.21a5.166,5.166,0,0,1,1.04-3.55,3.656,3.656,0,0,1,2.89-1.26,3.472,3.472,0,0,1,2.96,1.41,4.968,4.968,0,0,1,.81,2.89v0.14h7.4Zm6.21,25.61h7.4v-36.71h-7.4v36.71Zm0-50.77v7.26h7.4v-7.26h-7.4Zm29.97,50.77h7.41v-25.68c0-2.52-.37-5.99-3.04-8.66a11.311,11.311,0,0,0-7.92-2.96,11.82,11.82,0,0,0-8.29,3.04,11.054,11.054,0,0,0-3.03,7.91h7.03a3.985,3.985,0,0,1,.96-2.36,3.8,3.8,0,0,1,2.96-1.34,3.943,3.943,0,0,1,2.96,1.19,4.2,4.2,0,0,1,.96,3.11v3.85a40.2,40.2,0,0,0-4.21-.23c-2.15,0-6.29.3-8.74,3.19-2.14,2.51-2.29,6.51-2.29,9.17,0,2.96.37,6.29,2.66,8.44a8.1,8.1,0,0,0,5.63,1.92,6.377,6.377,0,0,0,4.29-1.4,12.311,12.311,0,0,0,2.52-2.82h0.14v3.63Zm0-10.8c0,3.25-1.92,4.73-4.14,4.73a3.267,3.267,0,0,1-2.96-1.7,5.608,5.608,0,0,1-.74-3.03,5.836,5.836,0,0,1,1.11-3.85,5.16,5.16,0,0,1,4.14-1.56,15.659,15.659,0,0,1,2.59.23v5.18Zm15.4-41v41.74c0,2.14.07,4.73,1.85,6.95,2.29,2.89,5.84,3.11,7.54,3.11h2.15v-6.88h-0.74a3.586,3.586,0,0,1-2.37-.74,3.635,3.635,0,0,1-1.03-2.81v-41.37h-7.4Z" transform="translate(-1790.12 -1016.84)"/>
</svg>
