<svg xmlns="http://www.w3.org/2000/svg" width="83.32" height="66.906" viewBox="0 0 83.32 66.906">
  <defs>
    <style>
      .cls-1 {
        fill: #fff;
        fill-rule: evenodd;
      }
    </style>
  </defs>
  <path id="nav_text_top_current_sp.svg" class="cls-1" d="M1791.06,204.587v7.031h9.17v44.773h7.41V211.618h9.17v-7.031h-25.75Zm30.93,39.963c0,2.886.22,6.956,3.63,9.842a12.281,12.281,0,0,0,15.09,0c3.41-2.886,3.63-6.956,3.63-9.842V231.525c0-2.886-.22-6.957-3.63-9.843a12.285,12.285,0,0,0-15.09,0c-3.41,2.886-3.63,6.957-3.63,9.843V244.55Zm14.95,0.444a5.541,5.541,0,0,1-1.11,3.7,3.946,3.946,0,0,1-5.33,0,5.488,5.488,0,0,1-1.11-3.7V231.081a5.488,5.488,0,0,1,1.11-3.7,3.946,3.946,0,0,1,5.33,0,5.541,5.541,0,0,1,1.11,3.7v13.913Zm22.49-25.31h-7.4v51.8h7.4V253.43a9.765,9.765,0,0,0,2.45,2.147,8.652,8.652,0,0,0,4.88,1.406,7.143,7.143,0,0,0,5.48-2.146,8.525,8.525,0,0,0,2.14-6.217V229.527c0-2.368-.07-5.4-1.7-7.623a7.341,7.341,0,0,0-6.14-2.812,8.382,8.382,0,0,0-4.52,1.258,9.28,9.28,0,0,0-2.51,2.59h-0.08v-3.256Zm0,11.545a4.944,4.944,0,0,1,1.19-3.7,3.84,3.84,0,0,1,2.81-1.184,3.259,3.259,0,0,1,2.59,1.11,4.253,4.253,0,0,1,.96,3.33V245.66a4.048,4.048,0,0,1-.96,2.96,3.259,3.259,0,0,1-2.59,1.11,3.84,3.84,0,0,1-2.81-1.184,4.944,4.944,0,0,1-1.19-3.7V231.229Z" transform="translate(-1791.06 -204.594)"/>
</svg>
