<svg xmlns="http://www.w3.org/2000/svg" width="40.91" height="16.969" viewBox="0 0 40.91 16.969">
  <defs>
    <style>
      .cls-1 {
        fill: #fff;
        fill-rule: evenodd;
      }
    </style>
  </defs>
  <path id="nav_text_news_current.svg" class="cls-1" d="M2338.83,54.894V71.7h2.4V61.134l4.01,10.561h2.4v-16.8h-2.4V65.455l-4.01-10.561h-2.4Zm13.85,11.737h4.85v-3.12a3.791,3.791,0,0,0-1.2-3.048,3.752,3.752,0,0,0-2.5-.864,3.4,3.4,0,0,0-3.55,3.7v4.56a4.145,4.145,0,0,0,.86,2.88,3.753,3.753,0,0,0,2.76,1.152,3.877,3.877,0,0,0,2.23-.672,3.309,3.309,0,0,0,1.35-2.9v-0.1h-2.4a1.6,1.6,0,0,1-.22.816,1.06,1.06,0,0,1-.96.5,1.212,1.212,0,0,1-.91-0.336,1.353,1.353,0,0,1-.31-1.032V66.631Zm0-1.848V63.319a1.449,1.449,0,0,1,.28-0.96,1.2,1.2,0,0,1,.94-0.408,1.242,1.242,0,0,1,.89.336,1.227,1.227,0,0,1,.34.936v1.56h-2.45Zm6.09-4.992L2361.6,71.7h2.04l1.44-7.3h0.12l1.45,7.3h2.04l2.83-11.9h-2.4l-1.49,7.537-1.46-7.537h-2l-1.41,7.537-1.54-7.537h-2.45Zm20.98,3.216a3.566,3.566,0,0,0-.91-2.448,3.747,3.747,0,0,0-2.79-.96,3.477,3.477,0,0,0-2.57.96,3.74,3.74,0,0,0-.88,2.592,3.134,3.134,0,0,0,.64,2.016,4,4,0,0,0,1.49,1.008l1.42,0.6a1.5,1.5,0,0,1,1.2,1.512,1.377,1.377,0,0,1-.31.96,1.208,1.208,0,0,1-.94.408,1.413,1.413,0,0,1-.98-0.384,1.389,1.389,0,0,1-.32-0.912h-2.4a3.728,3.728,0,0,0,.89,2.472,3.611,3.611,0,0,0,2.79,1.056,3.506,3.506,0,0,0,2.9-1.2,3.7,3.7,0,0,0,.77-2.328,3.517,3.517,0,0,0-.6-2.184,4.038,4.038,0,0,0-1.54-1.152l-1.44-.6a1.952,1.952,0,0,1-.93-0.624,1.244,1.244,0,0,1-.24-0.768,1.121,1.121,0,0,1,1.17-1.2,1.212,1.212,0,0,1,.87.312,1.408,1.408,0,0,1,.36.864h2.35Z" transform="translate(-2338.84 -54.906)"/>
</svg>
