<svg xmlns="http://www.w3.org/2000/svg" width="46.87" height="17.281" viewBox="0 0 46.87 17.281">
  <defs>
    <style>
      .cls-1 {
        fill: #fff;
        fill-rule: evenodd;
      }
    </style>
  </defs>
  <path id="nav_text_comic_current.svg" class="cls-1" d="M2433.51,59.67h2.32V58.518a3.993,3.993,0,0,0-1.08-2.784,4.378,4.378,0,0,0-2.9-1.08,4.281,4.281,0,0,0-2.74.984,4.022,4.022,0,0,0-1.22,3.288v8.713a4.274,4.274,0,0,0,.84,3.024,3.736,3.736,0,0,0,3.02,1.272,4.13,4.13,0,0,0,3.15-1.128,4.372,4.372,0,0,0,1.01-3.072v-0.7h-2.4v0.6a2.244,2.244,0,0,1-.34,1.368,1.68,1.68,0,0,1-1.34.576,1.456,1.456,0,0,1-1.23-.6,2.409,2.409,0,0,1-.31-1.488V59.214a2.491,2.491,0,0,1,.41-1.656,1.534,1.534,0,0,1,1.25-.552,1.454,1.454,0,0,1,1.24.6,2.06,2.06,0,0,1,.32,1.1v0.96Zm4.67,8.185a3.912,3.912,0,0,0,1.18,3.192,3.993,3.993,0,0,0,4.9,0,3.9,3.9,0,0,0,1.17-3.192V63.631a3.9,3.9,0,0,0-1.17-3.192,3.993,3.993,0,0,0-4.9,0,3.912,3.912,0,0,0-1.18,3.192v4.224ZM2443.03,68a1.766,1.766,0,0,1-.36,1.2,1.269,1.269,0,0,1-1.72,0,1.766,1.766,0,0,1-.36-1.2V63.487a1.766,1.766,0,0,1,.36-1.2,1.269,1.269,0,0,1,1.72,0,1.766,1.766,0,0,1,.36,1.2V68Zm4.9-8.209V71.7h2.4V63.535a1.6,1.6,0,0,1,.38-1.2,1.138,1.138,0,0,1,.89-0.384,1.02,1.02,0,0,1,.82.36,1.306,1.306,0,0,1,.31.96V71.7h2.4V63.535a1.6,1.6,0,0,1,.38-1.2,1.135,1.135,0,0,1,.89-0.384,1.04,1.04,0,0,1,.82.36,1.413,1.413,0,0,1,.31.96V71.7h2.4V62.623a3.416,3.416,0,0,0-.53-2.064,2.4,2.4,0,0,0-2.16-.96,2.474,2.474,0,0,0-1.32.336,3.005,3.005,0,0,0-1.05,1.08,2.373,2.373,0,0,0-.87-1.032,2.332,2.332,0,0,0-1.29-.384,2.622,2.622,0,0,0-1.64.528,4.138,4.138,0,0,0-.74.744V59.79h-2.4ZM2462.52,71.7h2.4V59.79h-2.4V71.7Zm0-16.465v2.352h2.4V55.23h-2.4Zm12.22,8.161V63.319a4.057,4.057,0,0,0-.96-2.688,3.751,3.751,0,0,0-2.76-1.032,3.593,3.593,0,0,0-2.48.888,3.92,3.92,0,0,0-1.1,3.1v4.1a4.063,4.063,0,0,0,.94,3.168,3.833,3.833,0,0,0,2.76,1.032,3.721,3.721,0,0,0,2.4-.816,3.468,3.468,0,0,0,1.2-2.712V68.143h-2.4v0.024a1.634,1.634,0,0,1-.27.96,1.127,1.127,0,0,1-.96.408,1.213,1.213,0,0,1-.98-0.408,1.629,1.629,0,0,1-.29-1.008V63.511a1.667,1.667,0,0,1,.34-1.152,1.153,1.153,0,0,1,.93-0.408,1.127,1.127,0,0,1,.96.456,1.578,1.578,0,0,1,.27.936v0.048h2.4Z" transform="translate(-2427.88 -54.656)"/>
</svg>
