<svg xmlns="http://www.w3.org/2000/svg" width="144.44" height="53.281" viewBox="0 0 144.44 53.281">
  <defs>
    <style>
      .cls-1 {
        fill: #fff;
        fill-rule: evenodd;
      }
    </style>
  </defs>
  <path id="nav_text_comic_current_sp.svg" class="cls-1" d="M1807.07,498.314h7.18v-3.552a12.313,12.313,0,0,0-3.33-8.585,13.554,13.554,0,0,0-8.96-3.33,13.136,13.136,0,0,0-8.43,3.034c-3.33,2.886-3.78,6.735-3.78,10.139v26.864c0,2.664-.07,6.216,2.59,9.324,1.63,1.925,4.44,3.923,9.33,3.923,5.11,0,8.14-1.776,9.69-3.479,1.34-1.406,3.11-4.366,3.11-9.472v-2.146h-7.4v1.85a6.959,6.959,0,0,1-1.03,4.218,5.176,5.176,0,0,1-4.15,1.776,4.461,4.461,0,0,1-3.77-1.85c-0.97-1.332-.97-2.886-0.97-4.588V496.908c0-1.776.08-3.626,1.26-5.106a4.756,4.756,0,0,1,3.85-1.7,4.5,4.5,0,0,1,3.85,1.851,6.392,6.392,0,0,1,.96,3.4v2.96Zm14.43,25.236c0,2.886.22,6.956,3.63,9.842a12.281,12.281,0,0,0,15.09,0c3.41-2.886,3.63-6.956,3.63-9.842V510.525c0-2.886-.22-6.957-3.63-9.843a12.285,12.285,0,0,0-15.09,0c-3.41,2.886-3.63,6.957-3.63,9.843V523.55Zm14.95,0.444a5.541,5.541,0,0,1-1.11,3.7,3.946,3.946,0,0,1-5.33,0,5.488,5.488,0,0,1-1.11-3.7V510.081a5.488,5.488,0,0,1,1.11-3.7,3.946,3.946,0,0,1,5.33,0,5.541,5.541,0,0,1,1.11,3.7v13.913Zm15.09-25.31v36.707h7.4V510.229a4.944,4.944,0,0,1,1.19-3.7,3.5,3.5,0,0,1,2.74-1.184,3.082,3.082,0,0,1,2.51,1.11,4.048,4.048,0,0,1,.96,2.96v25.976h7.4V510.229a4.944,4.944,0,0,1,1.19-3.7,3.49,3.49,0,0,1,2.74-1.184,3.165,3.165,0,0,1,2.51,1.11,4.27,4.27,0,0,1,.96,2.96v25.976h7.41V507.417a10.529,10.529,0,0,0-1.63-6.365c-1.85-2.59-4.37-2.96-6.66-2.96a7.554,7.554,0,0,0-4.07,1.036,9.278,9.278,0,0,0-3.26,3.33,7.192,7.192,0,0,0-6.66-4.366,8.012,8.012,0,0,0-5.03,1.628,13.611,13.611,0,0,0-2.3,2.294v-3.33h-7.4Zm44.99,36.707h7.4V498.684h-7.4v36.707Zm0-50.768v7.253h7.4v-7.253h-7.4Zm37.67,25.162v-0.222a12.374,12.374,0,0,0-2.96-8.289,11.561,11.561,0,0,0-8.51-3.182,10.975,10.975,0,0,0-7.62,2.738c-3.11,2.812-3.41,6.587-3.41,9.547v12.655c0,3.182-.07,6.734,2.89,9.768a11.861,11.861,0,0,0,8.51,3.183,11.458,11.458,0,0,0,7.4-2.517,10.607,10.607,0,0,0,3.7-8.362v-0.666h-7.4v0.074a4.993,4.993,0,0,1-.81,2.96,3.516,3.516,0,0,1-2.96,1.258,3.749,3.749,0,0,1-3.04-1.258,5.139,5.139,0,0,1-.89-3.108V510.155a5.154,5.154,0,0,1,1.04-3.552,3.634,3.634,0,0,1,2.89-1.258,3.47,3.47,0,0,1,2.96,1.406,4.964,4.964,0,0,1,.81,2.886v0.148h7.4Z" transform="translate(-1789.75 -482.844)"/>
</svg>
