<svg xmlns="http://www.w3.org/2000/svg" width="117" height="53.281" viewBox="0 0 117 53.281">
  <defs>
    <style>
      .cls-1 {
        fill: #fff;
        fill-rule: evenodd;
      }
    </style>
  </defs>
  <path id="nav_text_staff_current_sp.svg" class="cls-1" d="M1807.98,903.944h7.4v-1.7c0-8.585-4.96-13.395-12.36-13.395-3.4,0-6.51.814-8.95,3.182a13.121,13.121,0,0,0-3.85,9.621v1.48a18.48,18.48,0,0,0,1.11,7.548c1.48,3.479,4.14,4.811,6.81,5.773l5.4,1.924a7.543,7.543,0,0,1,3.55,2.294c0.97,1.332,1.19,3.552,1.19,5.329v1.924c0,1.554-.08,3.7-1.19,5.106-0.59.74-1.85,1.85-4.66,1.85a5.071,5.071,0,0,1-4.07-1.7,7.937,7.937,0,0,1-1.18-4.588v-1.406h-7.4v1.7c0,0.666,0,5.55,2.36,8.732,1.71,2.369,5.11,4.515,10.37,4.515,4.29,0,7.69-1.406,9.62-3.4,2.14-2.22,3.55-6.216,3.55-11.47V925.48c0-3.257-.22-6.217-2.22-8.955-1.93-2.664-4.52-3.626-6.74-4.44l-4.51-1.629a6.8,6.8,0,0,1-3.4-2.294c-0.97-1.406-1.19-4-1.19-5.4,0-1.7.15-3.774,1.56-5.254a4.936,4.936,0,0,1,3.62-1.407,4.659,4.659,0,0,1,3.92,1.7,7.713,7.713,0,0,1,1.26,4.736v1.406Zm15.91-10.435v11.175h-3.77v5.92h3.77v20.8c0,2.22.07,5.18,2.15,7.4,2.29,2.517,5.84,2.591,7.99,2.591h2v-6.883h-0.97a4.392,4.392,0,0,1-2.73-.666,4.135,4.135,0,0,1-1.04-3.108V910.6h4.74v-5.92h-4.74V893.509h-7.4Zm32.56,47.882h7.4v-25.68c0-2.516-.37-6-3.03-8.659a11.285,11.285,0,0,0-7.92-2.96,11.8,11.8,0,0,0-8.29,3.034,11.085,11.085,0,0,0-3.04,7.919h7.04a4.009,4.009,0,0,1,.96-2.368,3.791,3.791,0,0,1,2.96-1.332,3.96,3.96,0,0,1,2.96,1.184,4.2,4.2,0,0,1,.96,3.108v3.848a41.666,41.666,0,0,0-4.22-.222c-2.14,0-6.29.3-8.73,3.182-2.15,2.516-2.3,6.513-2.3,9.177,0,2.96.37,6.29,2.67,8.437a8.076,8.076,0,0,0,5.62,1.924,6.393,6.393,0,0,0,4.3-1.406,12.465,12.465,0,0,0,2.51-2.813h0.15v3.627Zm0-10.8c0,3.256-1.92,4.736-4.14,4.736a3.261,3.261,0,0,1-2.96-1.7,5.525,5.525,0,0,1-.74-3.034,5.784,5.784,0,0,1,1.11-3.848,5.167,5.167,0,0,1,4.14-1.554,16.032,16.032,0,0,1,2.59.222v5.18Zm17.09,10.8h7.4V910.6h5.92v-5.92h-5.99V900.91a4.882,4.882,0,0,1,1.11-3.552,4.126,4.126,0,0,1,3.48-1.259h1.48v-6.512h-2.67c-2.59,0-5.62.3-7.91,2.294-2.6,2.294-2.82,5.4-2.82,7.919v4.884h-3.85v5.92h3.85v30.787Zm19.83,0h7.4V910.6h5.93v-5.92h-6V900.91a4.882,4.882,0,0,1,1.11-3.552,4.126,4.126,0,0,1,3.48-1.259h1.48v-6.512h-2.67c-2.59,0-5.62.3-7.91,2.294-2.59,2.294-2.82,5.4-2.82,7.919v4.884h-3.84v5.92h3.84v30.787Z" transform="translate(-1789.78 -888.844)"/>
</svg>
