<svg xmlns="http://www.w3.org/2000/svg" width="37.94" height="17.281" viewBox="0 0 37.94 17.281">
  <defs>
    <style>
      .cls-1 {
        fill: #fff;
        fill-rule: evenodd;
      }
    </style>
  </defs>
  <path id="nav_text_staff_current.svg" class="cls-1" d="M2821.34,59.55h2.4V59c0-2.784-1.61-4.344-4.01-4.344a3.972,3.972,0,0,0-2.9,1.032,4.245,4.245,0,0,0-1.25,3.12v0.48a6.121,6.121,0,0,0,.36,2.448,3.372,3.372,0,0,0,2.21,1.872l1.75,0.624a2.418,2.418,0,0,1,1.15.744,3.1,3.1,0,0,1,.39,1.728v0.624a2.737,2.737,0,0,1-.39,1.656,1.776,1.776,0,0,1-1.51.6,1.648,1.648,0,0,1-1.32-.552,2.6,2.6,0,0,1-.38-1.488V67.087h-2.4v0.552a5.194,5.194,0,0,0,.77,2.832,3.972,3.972,0,0,0,3.36,1.464,4.335,4.335,0,0,0,3.12-1.1,5.4,5.4,0,0,0,1.15-3.72V66.535a4.571,4.571,0,0,0-.72-2.9,4.239,4.239,0,0,0-2.19-1.44l-1.46-.528a2.189,2.189,0,0,1-1.1-.744,3.494,3.494,0,0,1-.39-1.752,2.371,2.371,0,0,1,.51-1.7,1.593,1.593,0,0,1,1.17-.456,1.5,1.5,0,0,1,1.27.552,2.477,2.477,0,0,1,.41,1.536V59.55Zm5.16-3.384V59.79h-1.22v1.92h1.22v6.745a3.3,3.3,0,0,0,.7,2.4,3.359,3.359,0,0,0,2.59.84h0.65V69.463h-0.31a1.425,1.425,0,0,1-.89-0.216,1.323,1.323,0,0,1-.34-1.008V61.71h1.54V59.79h-1.54V56.166h-2.4ZM2837.06,71.7h2.4V63.367a3.83,3.83,0,0,0-.98-2.808,3.663,3.663,0,0,0-2.57-.96,3.823,3.823,0,0,0-2.69.984,3.567,3.567,0,0,0-.98,2.568h2.28a1.274,1.274,0,0,1,.31-0.768,1.222,1.222,0,0,1,.96-0.432,1.284,1.284,0,0,1,.96.384,1.355,1.355,0,0,1,.31,1.008v1.248a13.486,13.486,0,0,0-1.37-.072,3.7,3.7,0,0,0-2.83,1.032,4.664,4.664,0,0,0-.74,2.976,3.64,3.64,0,0,0,.86,2.736,2.613,2.613,0,0,0,1.82.624,2.085,2.085,0,0,0,1.4-.456,4.151,4.151,0,0,0,.81-0.912h0.05V71.7Zm0-3.5a1.341,1.341,0,0,1-1.34,1.536,1.056,1.056,0,0,1-.96-0.552,1.747,1.747,0,0,1-.24-0.984,1.847,1.847,0,0,1,.36-1.248,1.671,1.671,0,0,1,1.34-.5,5.238,5.238,0,0,1,.84.072v1.68Zm5.54,3.5h2.4V61.71h1.92V59.79h-1.94V58.566a1.589,1.589,0,0,1,.36-1.152,1.34,1.34,0,0,1,1.13-.408h0.48V54.894h-0.87a3.764,3.764,0,0,0-2.56.744,3.187,3.187,0,0,0-.92,2.568V59.79h-1.24v1.92h1.24V71.7Zm6.44,0h2.4V61.71h1.92V59.79h-1.95V58.566a1.589,1.589,0,0,1,.36-1.152,1.34,1.34,0,0,1,1.13-.408h0.48V54.894h-0.86a3.79,3.79,0,0,0-2.57.744,3.177,3.177,0,0,0-.91,2.568V59.79h-1.25v1.92h1.25V71.7Z" transform="translate(-2815.44 -54.656)"/>
</svg>
