<svg xmlns="http://www.w3.org/2000/svg" width="366.56" height="52.375" viewBox="0 0 366.56 52.375">
  <defs>
    <style>
      .cls-1 {
        fill: #fff;
        fill-rule: evenodd;
      }
    </style>
  </defs>
  <path id="nav_text_world_current_sp.svg" class="cls-1" d="M1790.23,619.587v7.031h9.17v44.773h7.4V626.618h9.18v-7.031h-25.75Zm29.95,51.8h7.4V646.229a4.944,4.944,0,0,1,1.19-3.7,3.821,3.821,0,0,1,2.81-1.184,3.259,3.259,0,0,1,2.59,1.11,4.048,4.048,0,0,1,.96,2.96v25.976h7.4V642.455a8.493,8.493,0,0,0-2.15-6.217,7.135,7.135,0,0,0-5.47-2.146,8.711,8.711,0,0,0-4.89,1.406,9.89,9.89,0,0,0-2.44,2.146V619.587h-7.4v51.8Zm35.01-15.615h14.95v-9.621c0-2.886-.44-6.587-3.7-9.4a11.537,11.537,0,0,0-7.7-2.664,11.029,11.029,0,0,0-7.32,2.516,11.205,11.205,0,0,0-3.63,8.881V659.55c0,2.22.07,5.994,2.66,8.88a11.586,11.586,0,0,0,8.51,3.553,12.017,12.017,0,0,0,6.89-2.072c3.62-2.591,4.14-6.217,4.14-8.955v-0.3h-7.4a5.063,5.063,0,0,1-.67,2.516,3.272,3.272,0,0,1-2.96,1.554,3.74,3.74,0,0,1-2.81-1.036,4.191,4.191,0,0,1-.96-3.182v-4.736Zm0-5.7v-4.514a4.5,4.5,0,0,1,.89-2.96,3.653,3.653,0,0,1,2.88-1.258,3.85,3.85,0,0,1,2.74,1.036,3.788,3.788,0,0,1,1.04,2.886v4.81h-7.55Zm32.93-30.49,8.14,51.8h6.66l5.92-33.451h0.52l5.92,33.451h6.66l8.14-51.8h-7.85l-3.99,32.266h-0.45l-5.92-32.266h-5.55l-5.92,32.266h-0.29l-4.15-32.266h-7.84Zm43.99,39.963c0,2.886.22,6.956,3.63,9.842a12.281,12.281,0,0,0,15.09,0c3.41-2.886,3.63-6.956,3.63-9.842V646.525c0-2.886-.22-6.957-3.63-9.843a12.285,12.285,0,0,0-15.09,0c-3.41,2.886-3.63,6.957-3.63,9.843V659.55Zm14.95,0.444a5.541,5.541,0,0,1-1.11,3.7,3.946,3.946,0,0,1-5.33,0,5.488,5.488,0,0,1-1.11-3.7V646.081a5.488,5.488,0,0,1,1.11-3.7,3.946,3.946,0,0,1,5.33,0,5.541,5.541,0,0,1,1.11,3.7v13.913Zm12.66-25.31v36.707h7.4V650.373c0-8.066,6.29-8.954,9.84-8.362v-7.919a12.281,12.281,0,0,0-9.69,4.588l-0.15-.074v-3.922h-7.4Zm20.88-15.1v41.739c0,2.146.07,4.736,1.85,6.956,2.3,2.887,5.85,3.109,7.55,3.109h2.15v-6.883h-0.74a3.538,3.538,0,0,1-2.37-.74,3.632,3.632,0,0,1-1.04-2.812V619.587h-7.4Zm30.45,51.8h7.4v-51.8h-7.4v18.057a9.713,9.713,0,0,0-2.44-2.146,8.676,8.676,0,0,0-4.88-1.406,7.143,7.143,0,0,0-5.48,2.146,8.536,8.536,0,0,0-2.15,6.217v19.093c0,2.368.08,5.4,1.71,7.622a7.338,7.338,0,0,0,6.14,2.813,8.325,8.325,0,0,0,4.51-1.258,9.321,9.321,0,0,0,2.52-2.591h0.07v3.257Zm0-11.545a4.934,4.934,0,0,1-1.18,3.7,3.859,3.859,0,0,1-2.81,1.184,3.245,3.245,0,0,1-2.59-1.11,4.222,4.222,0,0,1-.97-3.33V645.415a4.06,4.06,0,0,1,.97-2.96,3.245,3.245,0,0,1,2.59-1.11,3.859,3.859,0,0,1,2.81,1.184,4.934,4.934,0,0,1,1.18,3.7v13.617Zm28.64-.3c0,2.886.22,6.956,3.62,9.842a12.3,12.3,0,0,0,15.1,0c3.41-2.886,3.63-6.956,3.63-9.842V646.525c0-2.886-.22-6.957-3.63-9.843a12.3,12.3,0,0,0-15.1,0c-3.4,2.886-3.62,6.957-3.62,9.843V659.55Zm14.95,0.444a5.541,5.541,0,0,1-1.11,3.7,3.835,3.835,0,0,1-2.67,1.036,3.791,3.791,0,0,1-2.66-1.036,5.488,5.488,0,0,1-1.11-3.7V646.081a5.488,5.488,0,0,1,1.11-3.7,3.791,3.791,0,0,1,2.66-1.036,3.835,3.835,0,0,1,2.67,1.036,5.541,5.541,0,0,1,1.11,3.7v13.913Zm15.05,11.4h7.4V640.6h5.92v-5.92h-6V630.91a4.882,4.882,0,0,1,1.11-3.552,4.126,4.126,0,0,1,3.48-1.259h1.48v-6.512h-2.66c-2.59,0-5.63.3-7.92,2.294-2.59,2.294-2.81,5.4-2.81,7.919v4.884h-3.85v5.92h3.85v30.787Zm32.11-51.8v51.8h11.25c4.44,0,7.18-1.184,8.81-2.443,4.44-3.33,4.44-8.658,4.44-10.8v-3.923c0-2.516,0-3.922-1.48-6.512a7.393,7.393,0,0,0-3.56-3.256,10.684,10.684,0,0,0,2.82-2.368c1.92-2.3,2.22-4.663,2.22-8.067,0-3.034-.08-8.585-4.74-11.915-3.26-2.294-7.55-2.516-9.77-2.516h-9.99Zm7.4,6.66h3.48a6.489,6.489,0,0,1,4.81,1.7,5.48,5.48,0,0,1,1.41,3.552v3.182a7.218,7.218,0,0,1-1.41,4.44,5.929,5.929,0,0,1-4.74,1.925h-3.55v-14.8Zm0,21.462h3.78a5.641,5.641,0,0,1,3.92,1.332c1.63,1.406,2,3.182,2,5.7v2.443c0,0.888-.08,3.552-1.34,5.254a5.931,5.931,0,0,1-5.03,2.294h-3.33V647.709Zm22.78-28.122v51.8h7.4V648.523h9.99v22.868h7.4v-51.8h-7.4v22.276h-9.99V619.587h-7.4Z" transform="translate(-1790.22 -619.594)"/>
</svg>
